<?xml version="1.0" standalone="no"?>
<!DOCTYPE svg PUBLIC "-//W3C//DTD SVG 1.1//EN" "http://www.w3.org/Graphics/SVG/1.1/DTD/svg11.dtd" >
<svg xmlns="http://www.w3.org/2000/svg">
<metadata>Generated by IcoMoon</metadata>
<defs>
<font id="Atlas-icons" horiz-adv-x="1024">
<font-face units-per-em="1024" ascent="960" descent="-64" />
<missing-glyph horiz-adv-x="1024" />
<glyph unicode="&#x20;" horiz-adv-x="512" d="" />
<glyph unicode="&#xe900;" glyph-name="arrow-down-envelope-thin" horiz-adv-x="1003" d="M501.514 471.028l-190.302 190.438 32.279 31.915 158.022-157.886 158.022 157.886 32.234-32.234zM524.31 503.262h-45.592v435.405h45.592zM501.514 123.16l-494.812 494.356 32.234 32.234 462.578-462.122 462.624 462.168 32.234-32.234zM38.936-78.677l-32.234 32.234 348.324 348.324 32.234-32.234zM964.092-78.677l-348.324 348.324 32.279 32.279 348.324-348.324zM1003.028-85.333h-1003.028v741.785h201.061v-45.592h-155.469v-650.6h911.843v650.6h-155.469v45.592h201.061z" />
<glyph unicode="&#xe901;" glyph-name="arrow-up-envelope-thin" d="M673.373 688.718l-161.373 160.954-161.373-160.954-32.861 32.954 194.234 193.722 194.234-193.722zM535.273 438.49h-46.545v444.044h46.545zM512 138.876l-505.204 505.344 32.954 32.582 472.25-472.111 472.25 472.111 32.908-32.908zM39.703-66.715l-32.908 32.954 355.607 355.142 32.908-32.954zM984.297-66.715l-355.607 355.142 32.861 32.954 355.607-355.142zM1024-73.51h-1024v757.295h205.265v-46.545h-158.72v-664.204h930.909v664.204h-158.72v46.545h205.265z" />
<glyph unicode="&#xe902;" glyph-name="block-envelope-thin" d="M512 938.667c111.051 0 201.076-90.025 201.076-201.076s-90.025-201.076-201.076-201.076c-111.051 0-201.076 90.025-201.076 201.076v0c0.132 110.998 90.078 200.944 201.064 201.076h0.013zM512 583.060c85.345 0 154.531 69.186 154.531 154.531s-69.186 154.531-154.531 154.531c-85.345 0-154.531-69.186-154.531-154.531v0c0.106-85.302 69.228-154.425 154.521-154.531h0.010zM409.74 602.888l-32.861 32.954 237.382 236.916 32.861-32.954zM512 127.054l-505.204 505.158 32.908 32.908 472.297-472.25 472.25 472.297 32.908-32.908zM39.75-78.537l-32.908 32.908 355.607 355.607 32.908-32.908zM984.25-78.537l-355.607 355.607 32.954 32.954 355.607-355.607zM1024-85.333h-1024v757.295h205.265v-46.545h-158.72v-664.204h930.909v664.204h-158.72v46.545h205.265z" />
<glyph unicode="&#xe903;" glyph-name="bookmark-envelope-thin" d="M668.393 516.267l-156.393 104.448-156.393-104.448v422.4h312.785zM512 676.663l109.847-73.123v288.582h-219.695v-288.582zM1024-85.333h-1024v757.295h205.265v-46.545h-158.72v-664.204h930.909v664.204h-158.72v46.545h205.265zM512 127.054l-505.204 505.158 32.908 32.908 472.297-472.25 472.25 472.297 32.908-32.908zM39.75-78.537l-32.908 32.908 355.607 355.607 32.908-32.908zM984.25-78.537l-355.607 355.607 32.954 32.954 355.607-355.607zM1024-85.333h-1024v757.295h245.295v-46.545h-198.749v-664.204h930.909v664.204h-198.749v46.545h245.295z" />
<glyph unicode="&#xe904;" glyph-name="bullhorn-thin" d="M846.196 92.471h-73.542l-417.047 231.796v382.79l417.047 231.61h73.542zM784.756 139.016h14.895v753.105h-14.895l-382.604-212.433v-328.192zM201.076 716.645h201.076v-402.153h-201.076c-111.051 0-201.076 90.025-201.076 201.076s90.025 201.076 201.076 201.076v0zM355.607 670.1h-154.531c-85.345 0-154.531-69.186-154.531-154.531s69.186-154.531 154.531-154.531h154.531zM172.218 361.038h225.327l98.769-446.371h-225.001zM360.355 314.492h-130.327l78.615-353.28h129.676zM799.651 627.743h112.175c61.952 0 112.175-50.222 112.175-112.175s-50.222-112.175-112.175-112.175v0h-112.175zM911.825 449.94c36.246 0 65.629 29.383 65.629 65.629s-29.383 65.629-65.629 65.629v0h-65.629v-131.258z" />
<glyph unicode="&#xe905;" glyph-name="call-arrow-down-left-thin" d="M666.141 547.492l-33.129 33.129 357.999 357.999 33.129-33.129zM918.053 540.65h-291.929v291.929h46.859v-245.070h245.070zM687.462-85.38c-138.654 0-313.39 88.61-456.027 231.294-94.881 91.279-167.902 204.586-210.885 331.733l-1.712 5.836c-35.097 118.74-20.618 217.939 40.58 279.277l141.232 141.372 273.42-273.42-106.369-107.494c-13.208-13.323-21.37-31.668-21.37-51.919s8.162-38.596 21.375-51.925l137.244-137.244c13.298-13.225 31.631-21.4 51.872-21.4s38.574 8.175 51.876 21.403l-0.003-0.003 107.494 106.416 273.42-273.42-141.372-141.185c-39.499-36.884-92.705-59.53-151.2-59.53-3.366 0-6.715 0.075-10.045 0.223l0.473-0.017zM200.648 837.734l-108.056-107.775c-48.545-48.733-58.854-131.532-29.005-233.074 42.394-125.177 111.399-231.788 200.701-317.392l0.275-0.262c134.156-134.343 296.24-217.752 422.898-217.752 3.003-0.185 6.512-0.29 10.047-0.29 45.49 0 86.903 17.458 117.904 46.040l-0.12-0.11 107.915 108.056-207.209 207.115-74.318-73.568c-21.768-21.646-51.775-35.026-84.908-35.026s-63.14 13.38-84.913 35.032l0.005-0.005-137.389 137.577c-21.607 21.803-34.958 51.82-34.958 84.955s13.351 63.151 34.967 84.964l-0.009-0.009 73.287 74.318z" />
<glyph unicode="&#xe906;" glyph-name="call-arrow-up-right-thin" d="M661.72 543.292l-32.909 32.909 355.623 355.623 32.909-32.909zM1024.14 648.676h-46.548v243.444h-243.444v46.548h289.991zM682.899-85.38c-137.734 0-311.31 88.021-453.001 229.759-94.251 90.673-166.787 203.228-209.485 329.531l-1.701 5.797c-34.864 117.952-20.481 216.493 40.31 277.424l140.294 140.434 271.605-271.605-105.663-106.78c-13.121-13.235-21.228-31.458-21.228-51.575s8.107-38.34 21.233-51.58l136.333-136.333c13.21-13.137 31.421-21.258 51.528-21.258s38.318 8.121 51.531 21.261l-0.003-0.003 106.78 105.71 271.605-271.605-140.434-140.248c-39.237-36.639-92.090-59.135-150.196-59.135-3.344 0-6.671 0.075-9.979 0.222l0.47-0.017zM199.317 831.608l-107.339-107.059c-48.223-48.409-58.464-130.659-28.813-231.528 42.112-124.346 110.66-230.25 199.369-315.285l0.274-0.261c133.266-133.452 294.274-216.307 420.092-216.307 2.983-0.184 6.469-0.288 9.98-0.288 45.188 0 86.326 17.342 117.121 45.735l-0.12-0.109 107.199 107.339-205.833 205.74-73.824-73.080c-21.624-21.502-51.432-34.794-84.344-34.794s-62.721 13.291-84.35 34.799l0.005-0.005-136.477 136.664c-21.463 21.659-34.726 51.476-34.726 84.391s13.262 62.732 34.735 84.4l-0.009-0.009 72.8 73.824z" />
<glyph unicode="&#xe907;" glyph-name="call-dots-thin" d="M654.615-50.331c-131.817 0-298.263 84.34-434.316 220.067-90.479 86.767-160.082 194.587-200.988 315.627l-1.624 5.536c-33.28 113.524-19.363 208.431 39.145 267.45v0l134.982 133.585 259.724-260.655-100.445-102.959c-12.255-12.622-19.81-29.865-19.81-48.873s7.555-36.251 19.827-48.89l-0.017 0.017 131.119-129.722c12.601-12.437 29.921-20.118 49.036-20.118s36.435 7.681 49.043 20.126l-0.008-0.007 101.516 101.516 260.841-260.841-134.609-134.982c-37.629-35.355-88.427-57.076-144.298-57.076-3.206 0-6.396 0.072-9.567 0.213l0.451-0.016zM89.786 725.489c-45.94-46.545-55.855-125.021-27.462-221.324 40.161-118.843 105.702-220.045 190.562-301.215l0.274-0.26c127.674-127.348 281.46-206.476 401.455-206.476 2.853-0.177 6.186-0.279 9.544-0.279 42.875 0 81.898 16.492 111.071 43.479l-0.108-0.099 101.795 102.4-195.212 194.979-68.701-68.701c-21.009-20.774-49.908-33.607-81.804-33.607s-60.795 12.833-81.814 33.618l0.011-0.011-131.537 130.327c-20.569 20.972-33.263 49.731-33.263 81.455s12.695 60.482 33.282 81.473l-0.018-0.019 68.748 69.818-194.56 195.491zM661.225 544.613h-85.178v46.545h85.178zM831.116 544.613h-85.178v46.545h85.178zM1001.007 544.613h-85.178v46.545h85.178z" />
<glyph unicode="&#xe908;" glyph-name="caller-id-thin" d="M0 799.031h1024v-757.295h-1024zM977.455 752.485h-930.909v-664.204h930.909zM177.804 621.227h491.055v-402.153h-491.055zM622.313 574.682h-397.964v-309.062h397.964zM867.607 574.682h-88.902v46.545h88.902zM867.607 396.878h-88.902v46.545h88.902zM867.607 219.074h-88.902v46.545h88.902z" />
<glyph unicode="&#xe909;" glyph-name="call-slash-thin" horiz-adv-x="1026" d="M40.152-80.778l-33.202 33.202 986.196 986.196 33.202-33.202zM169.86 211.982c-73.603 84.324-129.016 186.503-158.91 299.076l-1.182 5.236c-22.917 103.785-5.025 191.228 49.732 246.079l141.543 141.683 274.069-273.552-106.65-107.636c-13.265-13.428-21.458-31.891-21.458-52.268s8.193-38.841 21.466-52.276l5.112-5.112-33.202-33.202-5.166 5.166c-21.66 21.936-35.038 52.094-35.038 85.376s13.378 63.44 35.050 85.389l-0.013-0.013 73.401 74.387-207.571 207.195-108.294-108.012c-43.252-43.252-56.354-115.338-37.1-202.922 29.312-110.126 81.306-205.601 150.976-285.215l-0.699 0.815zM690.666-85.333c-30.079 0.22-59.21 3.802-87.181 10.388l2.65-0.526c-117.218 31.031-218.783 86.645-303.119 161.286l0.779-0.677-1.832 1.55c-24.321 19.385-46.063 39.178-66.449 60.29l-0.189 0.197 34.705 31.605c19.139-19.853 39.35-38.293 60.688-55.383l1.255-0.971 1.972-1.644c185.076-156.289 393.539-205.082 484.927-113.694l108.341 108.341-207.336 207.759-74.481-73.73c-21.926-21.643-52.067-35.010-85.329-35.010s-63.403 13.367-85.342 35.023l0.013-0.013-68.658 68.94 33.202 33.202 68.564-68.564c13.423-13.237 31.867-21.412 52.221-21.412s38.799 8.175 52.23 21.42l-0.009-0.008 107.73 106.65 273.552-274.069-141.496-141.496c-39.489-36.976-92.733-59.685-151.281-59.685-3.562 0-7.104 0.084-10.624 0.25l0.498-0.019z" />
<glyph unicode="&#xe90a;" glyph-name="call-thin" d="M711.018-85.333c-143.568 0-323.654 91.876-470.006 239.806-97.703 94.953-173.348 212.067-218.866 343.264l-1.868 6.189c-37.122 123.244-22.923 225.839 40.37 288.853l145.331 145.888 282.032-282.032-109.184-109.23c-13.769-14.089-22.264-33.383-22.264-54.662s8.495-40.573 22.278-54.676l-0.014 0.015 143.846-143.846c14.079-13.943 33.457-22.558 54.847-22.558s40.768 8.615 54.853 22.565l109.132 109.132 282.032-282.032-146.445-144.96c-40.693-38.356-95.689-61.929-156.19-61.929-3.476 0-6.934 0.078-10.371 0.232l0.489-0.017zM206.071 872.962l-112.803-112.989c-50.439-50.439-60.601-136.561-28.537-242.636 45.114-129.85 116.887-240.5 209.282-329.982l0.223-0.215c137.953-139.206 305.418-226.071 437.014-226.071 3.105-0.191 6.734-0.299 10.388-0.299 47.429 0 90.587 18.288 122.807 48.198l-0.114-0.105 113.499 112.664-216.326 216.465-76.378-76.378c-22.471-22.31-53.429-36.098-87.607-36.098s-65.136 13.788-87.614 36.105l-143.839 143.839c-22.015 22.501-35.599 53.329-35.599 87.329s13.584 64.827 35.621 87.351l-0.022-0.023 76.331 76.517z" />
<glyph unicode="&#xe90b;" glyph-name="call-xmark-thin" d="M666.141 547.492l-33.129 33.129 357.999 357.999 33.129-33.129zM990.965 547.492l-357.999 357.999 33.176 33.176 357.999-357.999zM687.462-85.38c-138.654 0-313.39 88.61-456.027 231.294-94.881 91.279-167.902 204.586-210.885 331.733l-1.712 5.836c-35.097 118.74-20.618 217.939 40.58 279.277l141.232 141.372 273.42-273.42-106.369-107.494c-13.208-13.323-21.37-31.668-21.37-51.919s8.162-38.596 21.375-51.925l137.244-137.244c13.298-13.225 31.631-21.4 51.872-21.4s38.574 8.175 51.876 21.403l-0.003-0.003 107.494 106.416 273.42-273.42-141.372-141.185c-39.499-36.884-92.705-59.53-151.2-59.53-3.366 0-6.715 0.075-10.045 0.223l0.473-0.017zM200.648 837.734l-108.056-107.775c-48.545-48.733-58.854-131.532-29.005-233.074 42.394-125.177 111.399-231.788 200.701-317.392l0.275-0.262c134.156-134.343 296.24-217.752 422.898-217.752 3.003-0.185 6.512-0.29 10.047-0.29 45.49 0 86.903 17.458 117.904 46.040l-0.12-0.11 107.915 108.056-207.209 207.115-74.318-73.568c-21.768-21.646-51.775-35.026-84.908-35.026s-63.14 13.38-84.913 35.032l0.005-0.005-137.389 137.577c-21.607 21.803-34.958 51.82-34.958 84.955s13.351 63.151 34.967 84.964l-0.009-0.009 73.287 74.318z" />
<glyph unicode="&#xe90c;" glyph-name="contact-mobile-thin" d="M298.356 938.667h444.044c61.92-0.079 112.095-50.254 112.175-112.167v-799.659c-0.079-61.92-50.254-112.095-112.167-112.175h-444.052c-61.92 0.079-112.095 50.254-112.175 112.167v799.659c0.079 61.92 50.254 112.095 112.167 112.175h0.008zM742.4-38.788c36.225 0.053 65.576 29.404 65.629 65.624v799.656c-0.053 36.225-29.404 65.576-65.624 65.629h-444.049c-36.225-0.053-65.576-29.404-65.629-65.624v-799.656c0.053-36.225 29.404-65.576 65.624-65.629h0.005zM831.302 92.471h-621.847v46.545h621.847zM520.378 716.645c61.952 0 112.175-50.222 112.175-112.175s-50.222-112.175-112.175-112.175c-61.952 0-112.175 50.222-112.175 112.175v0c0.079 61.92 50.254 112.095 112.167 112.175h0.008zM520.378 538.842c36.246 0 65.629 29.383 65.629 65.629s-29.383 65.629-65.629 65.629c-36.246 0-65.629-29.383-65.629-65.629v0c0.053-36.225 29.404-65.576 65.624-65.629h0.005zM520.378 538.842v0c0.005 0 0.011 0 0.017 0 86.373 0 156.393-70.019 156.393-156.393 0-0.818-0.006-1.635-0.019-2.451l0.001 0.123v-69.818h-312.785v69.818c-0.011 0.692-0.017 1.509-0.017 2.327 0 86.373 70.019 156.393 156.393 156.393 0.006 0 0.012 0 0.018 0h-0.001zM630.225 356.849v23.692c0.011 0.568 0.017 1.237 0.017 1.908 0 60.667-49.18 109.847-109.847 109.847-0.006 0-0.012 0-0.018 0h0.001c-0.005 0-0.010 0-0.016 0-60.667 0-109.847-49.18-109.847-109.847 0-0.655 0.006-1.308 0.017-1.96l-0.001 0.098v-23.738z" />
<glyph unicode="&#xe90d;" glyph-name="envelope-arrow-right-thin" horiz-adv-x="1031" d="M840.604 764.642h-593.671v46.856h480.278l-94.322 93.994 33.081 33.174zM515.421 128.473l-508.579 508.533 33.127 33.127 475.452-475.405 475.405 475.452 33.127-33.127zM40.015-78.492l-33.127 33.127 357.983 357.983 33.127-33.127zM990.826-78.492l-357.983 357.983 33.174 33.174 357.983-357.983zM0 677.021h1030.841v-762.354h-1030.841zM983.985 630.164h-937.128v-668.641h937.128z" />
<glyph unicode="&#xe90e;" glyph-name="envelope-check-thin" horiz-adv-x="1031" d="M515.421 620.418l-150.597 151.112 33.174 33.081 117.422-117.844 251.9 251.9 33.127-33.127zM515.421 128.473l-508.579 508.533 33.127 33.127 475.452-475.405 475.405 475.452 33.127-33.127zM40.015-78.492l-33.127 33.127 357.983 357.983 33.127-33.127zM990.826-78.492l-357.983 357.983 33.174 33.174 357.983-357.983zM1030.841-85.333h-1030.841v762.354h296.133v-46.856h-249.276v-668.641h937.128v668.641h-249.276v46.856h296.133z" />
<glyph unicode="&#xe90f;" glyph-name="envelope-lines-thin" d="M512 254.123l-505.204 505.158 32.908 32.908 472.297-472.25 472.25 472.297 32.908-32.908zM39.75 48.066l-32.908 32.908 355.607 355.607 32.908-32.908zM984.25 48.066l-355.607 355.607 32.954 32.954 355.607-355.607zM0 799.031h1024v-757.295h-1024zM977.455 752.485h-930.909v-664.204h930.909z" />
<glyph unicode="&#xe910;" glyph-name="envelope-line-thin" horiz-adv-x="1025" d="M557.006 617.831h-44.56v297.664h44.56zM534.726 118.442l-483.615 483.169 31.504 31.504 452.111-451.665 452.155 451.71 31.504-31.504zM82.615-78.827l-31.504 31.504 340.442 340.442 31.504-31.504zM986.837-78.827l-340.442 340.442 31.549 31.549 340.442-340.442zM1024.891-85.333h-980.331v724.999h324.4v-44.56h-279.84v-635.878h891.21v635.878h-279.84v44.56h324.4z" />
<glyph unicode="&#xe911;" glyph-name="envelope-minus-thin" d="M689.804 822.303h-355.607v46.545h355.607zM512 190.356l-505.204 505.67 32.908 32.908 472.297-472.762 472.25 472.716 32.908-32.908zM39.75-15.236l-32.908 32.908 355.607 355.607 32.908-32.908zM984.25-15.236l-355.607 355.607 32.954 32.954 355.607-355.607zM1024-22.031h-1024v757.76h294.167v-46.545h-247.622v-664.669h930.909v664.669h-247.622v46.545h294.167z" />
<glyph unicode="&#xe912;" glyph-name="envelope-paper-thin" d="M846.196 426.667h-46.545v465.455h-575.302v-465.455h-46.545v512h668.393zM689.804 670.1h-355.607v46.545h355.607zM689.804 492.296h-355.607v46.545h355.607zM1024-85.333h-1024v743.657l184.599 184.646 32.908-32.908-170.961-171.008v-677.841h930.909v677.841l-171.008 170.961 32.908 32.908 184.646-184.599zM512 82.836l-505.204 505.158 32.908 32.908 472.297-472.25 472.25 472.297 32.908-32.908z" />
<glyph unicode="&#xe913;" glyph-name="envelope-question-thin" d="M556.522 616.775h-44.522v7.569c0.033 29.567 12.040 56.323 31.431 75.686l35.351 35.351c11.387 11.365 18.432 27.077 18.432 44.435 0 0.031 0 0.061 0 0.092v-0.005 6.945c0 34.67-28.106 62.776-62.776 62.776s-62.776-28.106-62.776-62.776v0h-44.522c0 59.259 48.039 107.297 107.297 107.297s107.297-48.039 107.297-107.297v0-7.123c-0.093-29.565-12.104-56.306-31.477-75.687l-35.127-35.127c-11.388-11.371-18.432-27.090-18.432-44.453 0-0.024 0-0.048 0-0.073v0.004zM1024-85.333h-979.478v724.369h196.341v-44.522h-151.819v-635.325h890.435v635.325h-321.892v44.522h366.414zM534.261 117.82l-483.239 483.194 31.477 31.477 451.762-451.718 451.718 451.762 31.477-31.477zM82.543-78.833l-31.477 31.477 340.146 340.146 31.477-31.477zM985.978-78.833l-340.146 340.146 31.521 31.521 340.146-340.146zM1024-85.333h-979.478v724.369h362.407v-44.522h-317.885v-635.325h890.435v635.325h-321.892v44.522h366.414z" />
<glyph unicode="&#xe914;" glyph-name="envelopes-lines-thin" d="M0 667.772h846.196v-668.393h-846.196zM799.651 621.227h-753.105v-575.302h753.105zM133.12 845.576h890.88v-668.393h-224.349v444.044h-666.531zM977.455 799.031h-797.789v-131.258h666.531v-444.044h131.258zM414.255 229.454l-407.459 407.412 32.908 32.908 374.551-374.505 374.505 374.505 32.908-32.908zM39.75 15.019l-32.908 32.908 310.924 310.924 32.908-32.908zM788.759 15.019l-310.924 310.924 32.954 32.954 310.924-310.924z" />
<glyph unicode="&#xe915;" glyph-name="envelope-xmark-thin" horiz-adv-x="1031" d="M632.872 637.085l-268.031 268.5 33.176 33.082 268.031-268.5zM398.017 637.085l-33.176 33.082 268.031 268.5 33.176-33.082zM515.444 128.483l-508.603 508.556 33.129 33.129 475.474-475.427 475.427 475.474 33.129-33.129zM40.017-78.492l-33.129 33.129 357.999 357.999 33.129-33.129zM990.871-78.492l-357.999 357.999 33.176 33.176 357.999-357.999zM1030.888-85.333h-1030.888v762.389h246.945v-46.859h-200.086v-668.672h937.171v668.672h-204.772v46.859h251.63z" />
<glyph unicode="&#xe916;" glyph-name="fast-envelope-thin" d="M212.814 566.020h-212.814v44.522h212.814zM212.814 395.502h-170.073v44.522h170.073zM212.814 224.984h-127.777v44.522h127.777zM1001.739 97.206h-788.925v44.522h744.403v552.070h-744.403v44.522h788.925zM596.146 310.065l-398.915 390.099 31.165 31.833 367.75-359.647 367.75 359.647 31.165-31.833zM228.575 103.706l-31.477 31.477 298.296 298.296 31.477-31.477zM963.718 103.706l-298.296 298.296 31.521 31.521 298.296-298.296z" />
<glyph unicode="&#xe917;" glyph-name="heart-envelope-thin" d="M430.406 938.667h0.931c31.53-0.426 59.967-13.327 80.665-33.98l-0.002 0.002c20.707 20.661 49.163 33.565 80.631 33.977l0.079 0.001h1.815c66.525-4.649 118.731-59.756 118.731-127.056 0-2.378-0.065-4.742-0.194-7.088l0.014 0.326c-0.605-141.498-184.413-218.764-192.233-221.882l-8.844-3.677-8.844 3.631c-7.82 3.212-191.628 80.384-192.233 221.882-0.116 2.034-0.182 4.413-0.182 6.808 0 67.301 52.207 122.409 118.332 127.034l0.401 0.022zM512 816.532l-20.527 38.586c-11.708 21.684-33.998 36.323-59.766 37.002l-0.092 0.002c-41.745-3.409-74.332-38.127-74.332-80.457 0-1.661 0.050-3.31 0.149-4.946l-0.011 0.225v-1.396c0-95.884 120.46-159.465 154.531-175.569 34.025 16.105 154.531 79.965 154.531 175.569v1.396c0.088 1.413 0.139 3.065 0.139 4.728 0 42.297-32.537 76.995-73.947 80.43l-0.292 0.020c-25.86-0.68-48.149-15.32-59.675-36.634l-0.183-0.37zM1024-85.333h-1024v757.295h205.265v-46.545h-158.72v-664.204h930.909v664.204h-158.72v46.545h205.265zM512 127.054l-505.204 505.158 32.908 32.908 472.297-472.25 472.25 472.297 32.908-32.908zM39.75-78.537l-32.908 32.908 355.607 355.607 32.908-32.908zM984.25-78.537l-355.607 355.607 32.954 32.954 355.607-355.607zM1024-85.333h-1024v757.295h245.295v-46.545h-198.749v-664.204h930.909v664.204h-198.749v46.545h245.295z" />
<glyph unicode="&#xe918;" glyph-name="id-card-thin" d="M0 799.031h1024v-757.295h-1024zM977.455 752.485h-930.909v-664.204h930.909zM512 574.682h-355.607v46.545h355.607zM512 396.878h-355.607v46.545h355.607zM423.098 219.074h-266.705v46.545h266.705zM621.847 621.227h224.349v-224.349h-224.349zM799.651 574.682h-131.258v-131.258h131.258z" />
<glyph unicode="&#xe919;" glyph-name="inbox-mailbox-thin" horiz-adv-x="1003" d="M0 590.343h631.907c204.87-0.233 370.887-166.25 371.12-371.097v-196.981h-1003.028zM957.435 67.857v151.366c-0.208 179.701-145.827 325.321-325.508 325.528h-586.335v-476.894zM219.754 45.517h-45.592v522.030h45.592zM524.31 262.991h-45.592v652.88h45.592zM478.718 938.667h263.067v-219.754h-263.067zM696.192 893.075h-171.882v-128.57h171.882zM611.391-85.333h-45.592v108.053h-128.57v-108.053h-45.592v153.646h219.754zM501.514 372.412c36.511 0 66.109-29.598 66.109-66.109s-29.598-66.109-66.109-66.109c-36.511 0-66.109 29.598-66.109 66.109v0c0.052 36.49 29.619 66.057 66.104 66.109h0.005zM501.514 285.787c11.331 0 20.516 9.186 20.516 20.516s-9.186 20.516-20.516 20.516c-11.331 0-20.516-9.186-20.516-20.516v0c0.026-11.321 9.196-20.491 20.514-20.516h0.002z" />
<glyph unicode="&#xe91a;" glyph-name="lock-envelope-thin" d="M355.607 760.863h313.251v-268.567h-313.251zM622.313 714.318h-220.16v-175.476h220.16zM512 938.667c61.92-0.079 112.095-50.254 112.175-112.167v-112.183h-224.349v112.175c0.079 61.92 50.254 112.095 112.167 112.175h0.008zM577.629 760.863v65.629c0 36.246-29.383 65.629-65.629 65.629s-65.629-29.383-65.629-65.629v0-65.629zM512 127.054l-505.204 505.158 32.908 32.908 472.297-472.25 472.25 472.297 32.908-32.908zM39.75-78.537l-32.908 32.908 355.607 355.607 32.908-32.908zM984.25-78.537l-355.607 355.607 32.954 32.954 355.607-355.607zM1024-85.333h-1024v757.295h249.949v-46.545h-203.404v-664.204h930.909v664.204h-203.404v46.545h249.949z" />
<glyph unicode="&#xe91b;" glyph-name="mailbox-thin" horiz-adv-x="1003" d="M1003.028 21.809h-393.916v370.664c0.061 108.731 88.219 196.851 196.958 196.851 54.124 0 103.149-21.831 138.749-57.168l-0.012 0.012 0.456 0.456c35.697-35.844 57.765-85.283 57.765-139.876 0-0.096 0-0.193 0-0.289v0.015zM654.703 67.401h302.732v325.072c0 0.114 0 0.248 0 0.382 0 41.721-16.763 79.527-43.922 107.050l0.017-0.017-0.456-0.456c-27.389 27.376-65.22 44.307-107.005 44.307-83.562 0-151.309-67.712-151.366-151.261v-0.006zM196.958 590.343h609.111v-45.592c-0.001 0-0.002 0-0.003 0-83.597 0-151.366-67.769-151.366-151.366 0-0.321 0.001-0.641 0.003-0.961v0.049-370.664h-654.703v370.664c-0.001 0.271-0.002 0.591-0.002 0.912 0 108.777 88.181 196.958 196.958 196.958 0.001 0 0.001 0 0.002 0v0zM680.235 544.751h-483.277c-0.001 0-0.002 0-0.003 0-83.597 0-151.366-67.769-151.366-151.366 0-0.321 0.001-0.641 0.003-0.961v0.049-325.072h563.519v325.072c0 0.128 0 0.28 0 0.433 0 54.36 21.886 103.609 57.326 139.415l-0.017-0.017q6.565 6.565 13.678 12.447zM414.433 283.508h-174.162v45.592h174.162zM45.592 219.223h-45.592v696.648h45.592zM0 938.667h263.067v-219.754h-263.067zM217.475 893.075h-171.882v-128.57h171.882zM654.703-85.333h-45.592v108.053h-128.57v-108.053h-45.592v153.646h219.754z" />
<glyph unicode="&#xe91c;" glyph-name="megaphone-thin" d="M46.545 246.536h-46.545v355.607h46.545zM1024-20.169h-46.545v889.018h46.545zM1024 810.434v-773.539l-518.097 164.817-505.903 115.153v214.109zM977.455 100.57v648.89l-930.909-253.999v-141.452l472.529-107.66zM245.295 45.46c-61.703 0.495-111.6 50.343-112.174 111.98v147.744h46.545v-147.549c0.366-36.147 29.61-65.343 65.741-65.629h177.691c36.147 0.366 65.343 29.61 65.629 65.741v66.447h46.545v-66.56c-0.495-61.703-50.343-111.6-111.98-112.174h-0.055z" />
<glyph unicode="&#xe91d;" glyph-name="mobile-thin" d="M298.356 938.667h444.044c61.92-0.079 112.095-50.254 112.175-112.167v-799.659c-0.079-61.92-50.254-112.095-112.167-112.175h-444.052c-61.92 0.079-112.095 50.254-112.175 112.167v799.659c0.079 61.92 50.254 112.095 112.167 112.175h0.008zM742.4-38.788c36.225 0.053 65.576 29.404 65.629 65.624v799.656c-0.053 36.225-29.404 65.576-65.624 65.629h-444.049c-36.225-0.053-65.576-29.404-65.629-65.624v-799.656c0.053-36.225 29.404-65.576 65.624-65.629h0.005zM609.28 92.471h-177.804v46.545h177.804z" />
<glyph unicode="&#xe91e;" glyph-name="newspaper-thin" d="M799.651 627.743h224.349v-600.902c-0.495-61.703-50.343-111.6-111.98-112.174h-0.427c-61.38 0.777-110.932 50.329-111.708 111.635l-0.001 0.074v601.367zM977.455 581.198h-131.258v-554.217c0-36.246 29.383-65.629 65.629-65.629s65.629 29.383 65.629 65.629v0zM111.709-85.333c-0.173-0.001-0.377-0.002-0.581-0.002-30.683 0-58.457 12.453-78.544 32.581l-0.002 0.002c-20.138 20.307-32.583 48.271-32.583 79.142 0 0.159 0 0.317 0.001 0.476v-0.025 911.825h846.196v-911.686c0.646-36.174 29.893-65.307 66.051-65.768h0.044l-0.233-46.545zM46.545 892.122v-865.28c0-0.082-0.001-0.18-0.001-0.277 0-18.054 7.29-34.406 19.087-46.271l-0.003 0.003c11.728-11.788 27.963-19.084 45.902-19.084 0.063 0 0.125 0 0.188 0h709.575c-13.303 18.032-21.383 40.629-21.643 65.102l-0.001 0.062v865.745zM177.804 760.863h491.055v-313.251h-491.055zM622.313 714.318h-397.964v-220.16h397.964zM689.804 270.274h-533.411v46.545h533.411zM689.804 92.471h-533.411v46.545h533.411z" />
<glyph unicode="&#xe91f;" glyph-name="office-phone-thin" d="M355.607 826.492h556.218c61.92-0.079 112.095-50.254 112.175-112.167v-532.953c-0.079-61.92-50.254-112.095-112.167-112.175h-556.226zM911.825 115.743c36.225 0.053 65.576 29.404 65.629 65.624v532.95c-0.053 36.225-29.404 65.576-65.624 65.629h-509.678v-664.204zM114.502 915.394h173.149c63.206-0.079 114.422-51.296 114.502-114.494v-750.786c-0.079-63.206-51.296-114.422-114.494-114.502h-173.157c-63.206 0.079-114.422 51.296-114.502 114.494v750.786c0.079 63.206 51.296 114.422 114.494 114.502h0.008zM287.651-17.842c37.51 0.053 67.903 30.446 67.956 67.951v750.783c-0.053 37.51-30.446 67.903-67.951 67.956h-173.154c-37.51-0.053-67.903-30.446-67.956-67.951v-750.783c0.053-37.51 30.446-67.903 67.951-67.956h0.005zM600.902 424.805h-88.902v46.545h88.902zM734.022 424.805h-88.902v46.545h88.902zM867.607 424.805h-88.902v46.545h88.902zM600.902 247.002h-88.902v46.545h88.902zM734.022 247.002h-88.902v46.545h88.902zM867.607 247.002h-88.902v46.545h88.902zM867.607 602.609h-355.607v46.545h355.607z" />
<glyph unicode="&#xe920;" glyph-name="open-envelope-thin" d="M109.568-77.094l-32.908 32.908 325.818 325.818 32.908-32.908zM895.814-77.094l-325.818 325.818 32.954 32.954 325.818-325.818zM512 938.667l442.182-393.030v-638.836h-884.364v638.836zM907.636 524.692l-395.636 351.697-395.636-351.697v-571.345h791.273zM512 102.664l-434.967 415.697 32.163 33.652 402.804-384.931 402.851 384.931 32.163-33.652z" />
<glyph unicode="&#xe921;" glyph-name="pause-call-thin" horiz-adv-x="1003" d="M1003.162 546.978h-45.598v391.689h45.598zM741.884 546.978h-45.598v391.689h45.598zM669.109-85.333c-134.788 0-304.916 86.181-443.99 224.936s-225.119 308.472-225.119 443.717c-0.142 2.92-0.222 6.341-0.222 9.781 0 56.864 22.048 108.578 58.062 147.061l-0.112-0.121 137.433 137.388 266.111-265.61-103.554-104.602c-12.869-13.043-20.817-30.969-20.817-50.751s7.948-37.708 20.825-50.759l-0.008 0.008 133.512-133.056c12.941-12.869 30.78-20.824 50.477-20.824s37.537 7.955 50.48 20.828l-0.003-0.003 104.602 103.508 266.066-265.519-137.524-138.3c-38.391-35.861-90.111-57.88-146.974-57.88-3.252 0-6.487 0.072-9.704 0.215l0.458-0.016zM195.161 812.953l-105.15-105.195c-27.712-29.968-44.709-70.199-44.709-114.399 0-3.516 0.108-7.006 0.319-10.468l-0.023 0.475c0-123.571 81.165-281.25 211.713-411.479s288.637-211.621 411.798-211.621c2.92-0.18 6.334-0.283 9.772-0.283 44.18 0 84.4 16.954 114.509 44.711l-0.117-0.106 105.013 105.925-201.772 201.407-72.364-71.589c-21.183-21.064-50.383-34.084-82.624-34.084s-61.441 13.020-82.629 34.089l0.005-0.005-133.603 133.147c-21.031 21.299-34.021 50.582-34.021 82.898s12.99 61.598 34.033 82.91l-0.012-0.012 71.407 72.364z" />
<glyph unicode="&#xe922;" glyph-name="pencil-envelope-thin" d="M391.215 491.831c-4.655 0-8.89 0-13.312 0.279l-21.597 0.884-0.698 21.597c-0.098 2.96-0.154 6.439-0.154 9.932 0 88.259 35.736 168.172 93.529 226.057l153.596 153.596c20.987 21.183 50.085 34.299 82.246 34.299 63.881 0 115.676-51.745 115.758-115.606v-0.008c0.070-1.506 0.109-3.272 0.109-5.047 0-31.782-12.706-60.597-33.316-81.641l-153.999-153.999c-57.126-55.872-135.381-90.345-221.688-90.345-0.166 0-0.333 0-0.499 0h0.026zM684.218 892.122c-19.041-0.182-36.218-8.015-48.634-20.567l-153.606-153.606c-46.183-46.218-75.903-108.892-79.61-178.47l-0.029-0.683c69.706 2.782 132.208 31.506 178.558 76.714l-0.056-0.054 153.6 153.6c12.177 12.552 19.683 29.695 19.683 48.591 0 1.229-0.032 2.45-0.094 3.664l0.007-0.17v1.164c0 38.56-31.259 69.818-69.818 69.818v0zM512 127.054l-505.204 505.158 32.908 32.908 472.297-472.25 472.25 472.297 32.908-32.908zM39.75-78.537l-32.908 32.908 355.607 355.607 32.908-32.908zM984.25-78.537l-355.607 355.607 32.954 32.954 355.607-355.607zM1024-85.333h-1024v757.295h294.167v-46.545h-247.622v-664.204h930.909v664.204h-158.72v46.545h205.265z" />
<glyph unicode="&#xe923;" glyph-name="phone-arrow-right-thin" d="M979.596 721.114h-444.044v46.545h444.044zM818.269 550.106l-32.908 32.908 161.327 161.373-161.373 161.327 32.908 32.908 194.281-194.234zM706.327-78.537c-137.728 0-311.296 88.017-452.98 229.748-94.323 90.622-166.965 203.097-209.837 329.323l-1.712 5.804c-34.769 117.993-20.294 216.576 40.727 277.597l140.241 140.428 271.5-271.5-104.262-107.055c-13.207-13.151-21.38-31.349-21.38-51.456s8.173-38.305 21.377-51.453l0.003-0.003 135.959-136.425c13.284-13.164 31.571-21.298 51.759-21.298s38.475 8.134 51.764 21.303l106.77 105.653 271.686-271.686-141.871-140.288c-39.199-36.505-91.95-58.912-149.935-58.912-3.45 0-6.881 0.079-10.292 0.236l0.483-0.018zM222.767 838.408l-107.334-107.055c-48.407-48.407-58.694-130.607-28.998-231.517 42.206-124.338 110.804-230.229 199.543-315.269l0.276-0.263c133.26-133.446 294.26-216.297 420.073-216.297 2.983-0.184 6.469-0.288 9.98-0.288 45.186 0 86.322 17.342 117.116 45.733l-0.12-0.109 108.637 107.427-205.871 205.638-73.914-72.844c-21.697-21.528-51.581-34.833-84.573-34.833s-62.876 13.304-84.581 34.84l0.008-0.008-135.913 136.471c-21.613 21.571-34.984 51.394-34.984 84.34s13.371 62.769 34.982 84.338l0.002 0.002 71.82 73.728z" />
<glyph unicode="&#xe924;" glyph-name="phonebook-thin" d="M105.517 916.406h896.223v-981.259h-896.223zM957.217 871.884h-807.179v-892.216h807.179zM255.555 659.070h-255.555v44.522h255.555zM255.555 403.516h-255.555v44.522h255.555zM255.555 147.961h-255.555v44.522h255.555zM596.146 703.592c82.864 0 150.038-67.174 150.038-150.038s-67.174-150.038-150.038-150.038c-82.864 0-150.038 67.174-150.038 150.038v0c0.101 82.823 67.215 149.937 150.028 150.038h0.010zM596.146 448.037c58.275 0 105.517 47.241 105.517 105.517s-47.241 105.517-105.517 105.517c-58.275 0-105.517-47.241-105.517-105.517v0c0.076-58.245 47.272-105.441 105.509-105.517h0.007zM596.102 448.037v0c106.418-0.127 192.652-86.361 192.779-192.767v-107.309h-385.069v107.297c0.176 106.226 86.102 192.324 192.246 192.779h0.043zM744.403 192.483v62.776c0 81.757-66.277 148.035-148.035 148.035s-148.035-66.277-148.035-148.035v0-62.776z" />
<glyph unicode="&#xe925;" glyph-name="phone-missed-thin" d="M1024-85.333h-357.469v156.393c-0.053 36.225-29.404 65.576-65.624 65.629h-177.809c-36.225-0.053-65.576-29.404-65.629-65.624v-156.398h-357.469v165.702c0 80.105 55.063 154.298 155.089 208.943 99.413 51.186 216.942 81.193 341.479 81.193 5.426 0 10.839-0.057 16.238-0.17l-0.807 0.013c4.606 0.101 10.035 0.158 15.476 0.158 124.538 0 242.068-30.007 345.754-83.184l-4.273 1.991c99.98-54.644 155.043-128.838 155.043-208.943zM713.076-38.788h264.378v119.156c0 62.278-46.545 121.996-130.839 168.076-92.935 47.619-202.748 75.527-319.079 75.527-5.463 0-10.911-0.062-16.345-0.184l0.808 0.014c-4.625 0.108-10.073 0.17-15.536 0.17-116.331 0-226.145-27.908-323.109-77.394l4.030 1.867c-84.294-46.080-130.839-105.705-130.839-168.076v-119.156h264.378v109.847c0.079 61.92 50.254 112.095 112.167 112.175h177.812c61.92-0.079 112.095-50.254 112.175-112.167v-0.008zM512 492.296v0c-0.082 0-0.179 0-0.276 0-35.816 0-68.247 14.494-91.747 37.937l-325.816 325.816 32.908 32.908 325.818-325.818c15.273-15.078 36.268-24.391 59.439-24.391s44.166 9.313 59.447 24.399l368.445 368.724 32.908-32.908-368.64-368.64c-23.528-23.497-56.015-38.029-91.897-38.029-0.207 0-0.414 0-0.621 0.001h0.032zM91.229 648.689h-46.545v289.978h289.513v-46.545h-242.967z" />
<glyph unicode="&#xe926;" glyph-name="phone-thin" d="M298.356 938.667h444.044c61.92-0.079 112.095-50.254 112.175-112.167v-799.659c-0.079-61.92-50.254-112.095-112.167-112.175h-444.052c-61.92 0.079-112.095 50.254-112.175 112.167v799.659c0.079 61.92 50.254 112.095 112.167 112.175h0.008zM742.4-38.788c36.225 0.053 65.576 29.404 65.629 65.624v799.656c-0.053 36.225-29.404 65.576-65.624 65.629h-444.049c-36.225-0.053-65.576-29.404-65.629-65.624v-799.656c0.053-36.225 29.404-65.576 65.624-65.629h0.005zM387.258 915.394h266.705v-46.545c0-25.706-20.839-46.545-46.545-46.545v0h-175.942c-25.706 0-46.545 20.839-46.545 46.545v0 46.545zM564.596 47.787h-88.436v46.545h88.436z" />
<glyph unicode="&#xe927;" glyph-name="plus-envelope-thin" horiz-adv-x="1003" d="M675.676 741.709h-348.324v45.592h348.324zM524.31 590.343h-45.592v348.324h45.592zM501.514 123.16l-494.812 494.356 32.234 32.234 462.578-462.122 462.624 462.168 32.234-32.234zM38.936-78.677l-32.234 32.234 348.324 348.324 32.234-32.234zM964.092-78.677l-348.324 348.324 32.279 32.279 348.324-348.324zM1003.028-85.333h-1003.028v741.785h288.142v-45.592h-242.55v-650.6h911.843v650.6h-242.55v45.592h288.142z" />
<glyph unicode="&#xe928;" glyph-name="postage-thin" d="M0 938.667h179.665v-23.273c0-36.246 29.383-65.629 65.629-65.629s65.629 29.383 65.629 65.629v0 23.273h135.447v-23.273c0-36.246 29.383-65.629 65.629-65.629s65.629 29.383 65.629 65.629v0 23.273h135.447v-23.273c0-36.246 29.383-65.629 65.629-65.629s65.629 29.383 65.629 65.629v0 23.273h179.665v-179.526h-23.273c-36.246 0-65.629-29.383-65.629-65.629s29.383-65.629 65.629-65.629h23.273v-135.587h-23.273c-36.246 0-65.629-29.383-65.629-65.629s29.383-65.629 65.629-65.629v0h23.273v-135.447h-23.273c-36.246 0-65.629-29.383-65.629-65.629s29.383-65.629 65.629-65.629v0h23.273v-179.665h-179.665v23.273c0 36.246-29.383 65.629-65.629 65.629s-65.629-29.383-65.629-65.629v0-23.273h-135.447v23.273c0 36.246-29.383 65.629-65.629 65.629s-65.629-29.383-65.629-65.629v0-23.273h-135.447v23.273c0 36.246-29.383 65.629-65.629 65.629s-65.629-29.383-65.629-65.629v0-23.273h-179.665v179.665h23.273c36.246 0 65.629 29.383 65.629 65.629s-29.383 65.629-65.629 65.629v0h-23.273v135.447h23.273c36.246 0 65.629 29.383 65.629 65.629s-29.383 65.629-65.629 65.629v0h-23.273v135.447h23.273c36.246 0 65.629 29.383 65.629 65.629s-29.383 65.629-65.629 65.629v0h-23.273zM135.54 892.122h-88.995v-88.995c51.202-11.093 88.998-56.010 88.998-109.754s-37.796-98.661-88.258-109.619l-0.74-0.135v-47.197c51.202-11.093 88.998-56.010 88.998-109.754s-37.796-98.661-88.258-109.619l-0.74-0.135v-47.197c51.202-11.093 88.998-56.010 88.998-109.754s-37.796-98.661-88.258-109.619l-0.74-0.135v-88.995h88.995c11.093 51.202 56.010 88.998 109.754 88.998s98.661-37.796 109.619-88.258l0.135-0.74h47.197c11.093 51.202 56.010 88.998 109.754 88.998s98.661-37.796 109.619-88.258l0.135-0.74h47.197c11.093 51.202 56.010 88.998 109.754 88.998s98.661-37.796 109.619-88.258l0.135-0.74h88.995v88.995c-51.202 11.093-88.998 56.010-88.998 109.754s37.796 98.661 88.258 109.619l0.74 0.135v47.197c-51.202 11.093-88.998 56.010-88.998 109.754s37.796 98.661 88.258 109.619l0.74 0.135v47.29c-50.897 11.435-88.431 56.028-88.901 109.47v0.331c0.471 53.493 38.004 98.087 88.146 109.378l0.756 0.143v89.088h-88.995c-11.093-51.202-56.010-88.998-109.754-88.998s-98.661 37.796-109.619 88.258l-0.135 0.74h-47.197c-11.093-51.202-56.010-88.998-109.754-88.998s-98.661 37.796-109.619 88.258l-0.135 0.74h-47.197c-11.093-51.202-56.010-88.998-109.754-88.998s-98.661 37.796-109.619 88.258l-0.135 0.74zM706.793 382.961c-0.012 0-0.026 0-0.040 0-31.783 0-61.509 8.807-86.871 24.115l0.755-0.423-74.054 44.265 23.878 39.936 74.007-44.218c17.798-10.754 39.295-17.117 62.278-17.117s44.48 6.363 62.826 17.423l-0.548-0.306c24.143 14.936 53.418 23.786 84.76 23.786 0.262 0 0.523-0.001 0.784-0.002h-0.040c0.186 0.001 0.407 0.001 0.628 0.001 25.278 0 49.191-5.84 70.464-16.246l-0.948 0.419-20.201-41.891c-14.399 7.079-31.341 11.219-49.25 11.219-0.195 0-0.389 0-0.584-0.001h-0.249c-0.18 0.001-0.392 0.002-0.604 0.002-22.45 0-43.415-6.358-61.194-17.371l0.498 0.287h-0.233c-24.577-14.938-54.277-23.807-86.043-23.878h-0.020zM704.465 604.983c-0.012 0-0.026 0-0.040 0-31.783 0-61.509 8.807-86.871 24.115l0.755-0.423-0.419 0.233-71.68 44.684 24.623 39.517 71.494-44.404c17.781-10.728 39.253-17.075 62.208-17.075s44.427 6.347 62.757 17.382l-0.549-0.307c24.143 14.936 53.419 23.787 84.761 23.787 0.31 0 0.62-0.001 0.93-0.003h2.652c28.393-3.508 54.22-10.627 78.342-20.959l-1.868 0.711-18.013-42.915c-18.224 7.883-39.381 13.781-61.484 16.673l-1.213 0.13c-22.194-0.147-42.878-6.484-60.448-17.369l0.498 0.287h-0.233c-24.602-15.024-54.348-23.959-86.173-24.064h-0.029zM706.793 160.753c-31.857 0.007-61.634 8.904-86.989 24.343l0.74-0.419-73.961 44.218 23.878 39.936 74.007-44.218c17.775-10.838 39.277-17.255 62.278-17.255s44.502 6.416 62.813 17.557l-0.535-0.302c24.222 14.668 53.488 23.348 84.783 23.348s60.561-8.68 85.524-23.764l-0.741 0.416-23.785-39.983c-17.413 10.544-38.454 16.784-60.951 16.784s-43.538-6.24-61.485-17.083l0.533 0.299c-24.575-14.996-54.305-23.876-86.108-23.878h-0.001z" />
<glyph unicode="&#xe929;" glyph-name="radio-thin" horiz-adv-x="1026" d="M0 673.79h1026.473v-759.123h-1026.473zM979.815 627.132h-933.157v-665.808h933.157zM802.515 496.024c25.253 0 45.725-20.472 45.725-45.725s-20.472-45.725-45.725-45.725c-25.253 0-45.725 20.472-45.725 45.725v0c0.027 25.242 20.482 45.698 45.722 45.725h0.003zM802.515 272.999c25.253 0 45.725-20.472 45.725-45.725s-20.472-45.725-45.725-45.725c-25.253 0-45.725 20.472-45.725 45.725v0c0.027 25.242 20.482 45.698 45.722 45.725h0.003zM256.338 629.605l-20.856 41.712 534.699 267.35 20.856-41.712zM646.678 448.899h-489.907v46.658h489.907zM646.678 271.133h-489.907v46.658h489.907zM646.678 92.9h-489.907v46.658h489.907z" />
<glyph unicode="&#xe92a;" glyph-name="refresh-envelope-arrow-thin" horiz-adv-x="1003" d="M501.514 123.16l-494.812 494.356 32.234 32.234 462.578-462.122 462.624 462.168 32.234-32.234zM38.936-78.677l-32.234 32.234 348.324 348.324 32.234-32.234zM964.092-78.677l-348.324 348.324 32.279 32.279 348.324-348.324zM1003.028-85.333h-1003.028v741.785h201.061v-45.592h-155.469v-650.6h911.843v650.6h-155.469v45.592h201.061zM502.061 524.417c-0.027 0-0.059 0-0.091 0-108.525 0-196.502 87.977-196.502 196.502s87.977 196.502 196.502 196.502c108.525 0 196.502-87.977 196.502-196.502 0-0.064 0-0.128 0-0.192v0.010h-45.592c0 0.040 0 0.088 0 0.136 0 83.345-67.565 150.91-150.91 150.91s-150.91-67.565-150.91-150.91c0-83.345 67.565-150.91 150.91-150.91 39.462 0 75.386 15.147 102.276 39.943l-0.104-0.095 30.866-33.556c-31.988-29.462-73.971-48.51-120.325-51.534l-0.586-0.031q-6.018-0.274-12.036-0.274zM698.472 741.709h-196.958v45.592h151.366v151.366h45.592z" />
<glyph unicode="&#xe92b;" glyph-name="router-thin" horiz-adv-x="1003" d="M0 395.664h1003.028v-480.997h-1003.028zM957.435 350.072h-911.843v-389.813h911.843zM219.754 329.1h-45.592v609.567h45.592zM828.866 329.1h-45.592v609.567h45.592zM849.838 132.598h-87.081v45.592h87.081zM675.676 132.598h-87.081v45.592h87.081zM240.271 221.502c36.511 0 66.109-29.598 66.109-66.109s-29.598-66.109-66.109-66.109c-36.511 0-66.109 29.598-66.109 66.109v0c0.052 36.49 29.619 66.057 66.104 66.109h0.005zM240.271 134.877c11.331 0 20.516 9.186 20.516 20.516s-9.186 20.516-20.516 20.516c-11.331 0-20.516-9.186-20.516-20.516v0c0.026-11.321 9.196-20.491 20.514-20.516h0.002z" />
<glyph unicode="&#xe92c;" glyph-name="rss-square-thin" d="M581.818 159.962h-46.545c0 0.002 0 0.005 0 0.008 0 158.865-128.786 287.651-287.651 287.651-0.753 0-1.505-0.003-2.256-0.009l0.115 0.001-0.326 46.545c0.733 0.006 1.6 0.009 2.467 0.009 184.572 0 334.196-149.625 334.196-334.196 0-0.003 0-0.007 0-0.010v0.001zM801.978 159.962h-46.545c0 281.742-228.397 510.138-510.138 510.138v0 46.545c307.448 0 556.684-249.236 556.684-556.684v0zM289.978 272.136c37.274 0 67.491-30.217 67.491-67.491s-30.217-67.491-67.491-67.491c-37.274 0-67.491 30.217-67.491 67.491v0c0.053 37.253 30.238 67.438 67.486 67.491h0.005zM289.978 183.7c11.568 0 20.945 9.378 20.945 20.945s-9.378 20.945-20.945 20.945c-11.568 0-20.945-9.378-20.945-20.945v0c0.026-11.557 9.388-20.919 20.943-20.945h0.003zM0 938.667h1024v-1024h-1024zM977.455 892.122h-930.909v-930.909h930.909z" />
<glyph unicode="&#xe92d;" glyph-name="satellite-dish-thin" horiz-adv-x="1026" d="M917.059 938.667c60.135 0 108.883-48.749 108.883-108.883s-48.749-108.883-108.883-108.883c-60.135 0-108.883 48.749-108.883 108.883v0c0.077 60.104 48.78 108.806 108.876 108.883h0.007zM917.059 766.080c35.182 0 63.704 28.521 63.704 63.704s-28.521 63.704-63.704 63.704c-35.182 0-63.704-28.521-63.704-63.704v0c0.051-35.162 28.542-63.652 63.699-63.703h0.005zM806.64 477.11l-41.204 18.569 116.564 258.428 41.204-18.569zM583 678.16l-18.569 41.204 258.428 116.564 18.569-41.204zM724.142-55.288h-692.154v161.156l227.074 227.074 31.942-31.942-213.836-213.836v-97.272h601.795v137.347h45.18zM317.859 868.272l59.102 59.102 635.744-635.744-59.102-59.102c-175.556-175.556-460.188-175.556-635.744 0s-175.556 460.188 0 635.744v0zM376.961 863.48l-27.155-27.155c-157.912-157.912-157.912-413.938 0-571.85s413.938-157.912 571.85 0v0l27.155 27.155z" />
<glyph unicode="&#xe92e;" glyph-name="satellite-signal-thin" d="M512.047 938.667c61.926-0.079 112.105-50.259 112.185-112.177v-399.87c0-61.958-50.227-112.185-112.185-112.185s-112.185 50.227-112.185 112.185v0 399.862c0.079 61.926 50.259 112.105 112.177 112.185h0.008zM512.047 360.985c36.228 0.053 65.582 29.407 65.635 65.63v399.867c0 36.249-29.386 65.635-65.635 65.635s-65.635-29.386-65.635-65.635v0-399.862c0.053-36.228 29.407-65.582 65.63-65.635h0.005zM0 805.535h268.592v-402.189h-268.592zM222.042 758.985h-175.492v-309.090h175.492zM755.501 805.535h268.592v-402.189h-268.592zM977.543 758.985h-175.492v-309.090h175.492zM423.137 581.165h-133.132v46.55h133.132zM734.089 581.165h-133.132v46.55h133.132zM513.21 93.511c-0.226-0.001-0.493-0.001-0.76-0.001-79.219 0-150.961 32.010-202.999 83.802l0.011-0.011 32.585 33.097c43.967-43.296 104.35-70.030 170.977-70.030s127.011 26.734 171.008 70.060l-0.031-0.031 32.585-33.097c-52.026-51.78-123.768-83.79-202.987-83.79-0.137 0-0.273 0-0.41 0h0.021zM512.047-85.426c-129.095 0.049-245.947 52.432-330.498 137.084l-0.005 0.005 32.957 32.911c76.169-76.256 181.442-123.427 297.732-123.427s221.563 47.171 297.728 123.423l0.004 0.004 32.957-32.911c-84.596-84.696-201.517-137.089-330.675-137.089-0.070 0-0.141 0-0.211 0h0.011zM535.321 248.801h-46.55v88.91h46.55z" />
<glyph unicode="&#xe92f;" glyph-name="satellite-thin" horiz-adv-x="1003" d="M501.514 938.667c60.652-0.078 109.799-49.225 109.877-109.87v-391.644c0-60.683-49.194-109.877-109.877-109.877s-109.877 49.194-109.877 109.877v0 391.637c0.078 60.652 49.225 109.799 109.87 109.877h0.007zM501.514 372.868c35.483 0.052 64.233 28.802 64.285 64.28v391.642c0 35.504-28.781 64.285-64.285 64.285s-64.285-28.781-64.285-64.285v0-391.637c0.052-35.483 28.802-64.233 64.28-64.285h0.005zM0 807.817h263.067v-393.916h-263.067zM217.475 762.225h-171.882v-302.732h171.882zM739.961 807.817h263.067v-393.916h-263.067zM957.435 762.225h-171.882v-302.732h171.882zM414.433 588.519h-130.394v45.592h130.394zM718.988 588.519h-130.394v45.592h130.394zM524.31 219.223h-45.592v130.85h45.592zM501.514 242.019c108.725-0.13 196.828-88.233 196.958-196.946v-22.808h-393.916v22.796c0.13 108.725 88.233 196.828 196.946 196.958h0.012zM651.147 67.857c-11.417 73.27-74.066 128.68-149.656 128.68s-138.24-55.409-149.547-127.828l-0.11-0.852zM524.31-85.333h-45.592v130.85h45.592z" />
<glyph unicode="&#xe930;" glyph-name="search-envelope-thin" d="M467.782 938.667c86.373 0 156.393-70.019 156.393-156.393s-70.019-156.393-156.393-156.393c-86.373 0-156.393 70.019-156.393 156.393v0c0.106 86.331 70.062 156.287 156.383 156.393h0.010zM467.782 672.427c60.667 0 109.847 49.18 109.847 109.847s-49.18 109.847-109.847 109.847c-60.667 0-109.847-49.18-109.847-109.847v0c0.079-60.635 49.212-109.768 109.84-109.847h0.008zM673.513 543.496l-128.186 127.814 32.954 32.954 127.814-128.186zM512 127.054l-505.204 505.158 32.908 32.908 472.297-472.25 472.25 472.297 32.908-32.908zM39.75-78.537l-32.908 32.908 355.607 355.607 32.908-32.908zM984.25-78.537l-355.607 355.607 32.954 32.954 355.607-355.607zM1024-85.333h-1024v757.295h249.949v-46.545h-203.404v-664.204h930.909v664.204h-203.404v46.545h249.949zM1024-85.333h-1024v757.295h245.295v-46.545h-198.749v-664.204h930.909v664.204h-198.749v46.545h245.295z" />
<glyph unicode="&#xe931;" glyph-name="share-envelope-thin" d="M378.88 805.082c37.274 0 67.491-30.217 67.491-67.491s-30.217-67.491-67.491-67.491c-37.274 0-67.491 30.217-67.491 67.491v0c0.053 37.253 30.238 67.438 67.486 67.491h0.005zM378.88 716.645c11.568 0 20.945 9.378 20.945 20.945s-9.378 20.945-20.945 20.945c-11.568 0-20.945-9.378-20.945-20.945v0c0.026-11.557 9.388-20.919 20.943-20.945h0.003zM645.12 938.667c37.274 0 67.491-30.217 67.491-67.491s-30.217-67.491-67.491-67.491c-37.274 0-67.491 30.217-67.491 67.491v0c0.053 37.253 30.238 67.438 67.486 67.491h0.005zM645.12 850.231c11.568 0 20.945 9.378 20.945 20.945s-9.378 20.945-20.945 20.945c-11.568 0-20.945-9.378-20.945-20.945v0c0.026-11.557 9.388-20.919 20.943-20.945h0.003zM645.12 671.962c37.274 0 67.491-30.217 67.491-67.491s-30.217-67.491-67.491-67.491c-37.274 0-67.491 30.217-67.491 67.491v0c0.053 37.253 30.238 67.438 67.486 67.491h0.005zM645.12 583.525c11.568 0 20.945 9.378 20.945 20.945s-9.378 20.945-20.945 20.945c-11.568 0-20.945-9.378-20.945-20.945v0c0.026-11.557 9.388-20.919 20.943-20.945h0.003zM634.88 583.665l-266.426 133.12 20.852 41.612 266.24-133.12zM389.306 716.785l-20.852 41.612 266.426 133.585 20.852-41.612zM512 127.054l-505.204 505.158 32.908 32.908 472.297-472.25 472.25 472.297 32.908-32.908zM39.75-78.537l-32.908 32.908 355.607 355.607 32.908-32.908zM984.25-78.537l-355.607 355.607 32.954 32.954 355.607-355.607zM1024-85.333h-1024v757.295h205.265v-46.545h-158.72v-664.204h930.909v664.204h-158.72v46.545h205.265z" />
<glyph unicode="&#xe932;" glyph-name="shield-envelope-thin" horiz-adv-x="1023" d="M511.628 446.481l-5.721 1.442c-112.885 29.127-194.997 129.879-195.349 249.867v190.738l201.070 50.14 200.791-52.558v-188.186c-0.324-120.060-82.443-220.851-193.554-249.606l-1.795-0.394zM357.209 852.295v-154.372c0.303-96.31 64.794-177.474 152.922-202.978l1.497-0.371c89.645 25.897 154.142 107.1 154.419 203.41v152.218l-154.419 40.465zM511.628 126.9l-504.837 504.791 32.884 32.884 471.953-471.907 471.907 471.953 32.884-32.884zM39.721-78.542l-32.884 32.884 355.349 355.349 32.884-32.884zM983.535-78.542l-355.349 355.349 32.93 32.93 355.349-355.349zM1023.256-85.333h-1023.256v756.744h205.116v-46.512h-158.605v-663.721h930.233v663.721h-158.605v46.512h205.116z" />
<glyph unicode="&#xe933;" glyph-name="signal-thin" d="M510.65 711.292c37.017 0 67.025-30.008 67.025-67.025s-30.008-67.025-67.025-67.025c-37.017 0-67.025 30.008-67.025 67.025v0c0.053 36.996 30.030 66.973 67.020 67.025h0.005zM510.65 623.787c11.311 0 20.48 9.169 20.48 20.48s-9.169 20.48-20.48 20.48c-11.311 0-20.48-9.169-20.48-20.48v0c0-11.311 9.169-20.48 20.48-20.48v0zM339.549 473.352c-43.235 43.703-69.944 103.829-69.944 170.193s26.71 126.491 69.965 170.215l-0.021-0.022 33.094-32.582c-34.771-35.369-56.238-83.914-56.238-137.472s21.466-102.103 56.265-137.5l-0.027 0.028zM681.658 471.909l-32.954 32.861c35.22 35.399 56.991 84.207 56.991 138.1s-21.772 102.701-56.999 138.109l0.008-0.008 32.954 32.861c43.601-43.822 70.554-104.244 70.554-170.961s-26.953-127.139-70.564-170.972l0.010 0.010zM214.9 349.448c-75.272 75.437-121.817 179.565-121.817 294.563s46.545 219.126 121.824 294.571l-0.008-0.008 32.908-32.908c-66.863-67.009-108.208-159.504-108.208-261.655s41.345-194.645 108.214-261.662l-0.006 0.006zM806.307 347.074l-32.582 33.047c67.619 67.071 109.48 160.021 109.48 262.749s-41.861 195.679-109.455 262.725l-0.024 0.024 32.582 33.047c76.123-75.507 123.248-180.148 123.248-295.796s-47.125-220.289-123.22-295.769l-0.028-0.028zM707.212-62.293l-207.127 657.222 44.404 13.964 207.127-657.222zM314.089-62.293l-44.404 13.964 207.127 657.222 44.404-13.964zM641.908 183.932h-262.516v46.545h262.516zM816.454-78.584h-611.607v46.545h611.607z" />
<glyph unicode="&#xe934;" glyph-name="star-envelope-thin" horiz-adv-x="1037" d="M518.72 938.903l71.63-152.362 157.455-23.861-113.835-116.995 27.115-166.226-142.365 78.374-142.365-78.421 27.115 166.226-113.835 116.806 157.455 23.861zM649.909 729.812l-91.53 13.864-39.658 84.174-39.658-84.363-91.53-13.864 66.302-68.047-15.279-94.077 80.166 44.185 80.166-44.185-15.326 94.077zM518.72 129.841l-511.835 511.976 33.387 33.009 478.448-478.307 478.448 478.307 33.34-33.34zM40.224-78.448l-33.34 33.387 360.274 359.803 33.34-33.387zM997.215-78.448l-360.274 359.803 33.292 33.387 360.274-359.803zM1037.44-85.333h-1037.44v767.234h207.959v-47.156h-160.803v-672.921h943.127v672.921h-160.803v47.156h207.959z" />
<glyph unicode="&#xe935;" glyph-name="telephone-thin" d="M298.356 938.667h444.044c61.92-0.079 112.095-50.254 112.175-112.167v-799.659c-0.079-61.92-50.254-112.095-112.167-112.175h-444.052c-61.92 0.079-112.095 50.254-112.175 112.167v799.659c0.079 61.92 50.254 112.095 112.167 112.175h0.008zM742.4-38.788c36.225 0.053 65.576 29.404 65.629 65.624v799.656c-0.053 36.225-29.404 65.576-65.624 65.629h-444.049c-36.225-0.053-65.576-29.404-65.629-65.624v-799.656c0.053-36.225 29.404-65.576 65.624-65.629h0.005zM831.302 92.471h-621.847v46.545h621.847z" />
<glyph unicode="&#xe936;" glyph-name="tty-thin" d="M600.902 290.754h-177.804v46.545h177.804zM289.978 290.754h-177.804v46.545h177.804zM911.825 290.754h-177.804v46.545h177.804zM600.902 113.416h-177.804v46.545h177.804zM600.902-64.388h-177.804v46.545h177.804zM289.978 113.416h-177.804v46.545h177.804zM911.825 113.416h-177.804v46.545h177.804zM1024 468.558h-357.469v156.858c-0.342 36.014-29.578 65.086-65.622 65.164h-177.811c-36.052-0.077-65.287-29.15-65.629-65.131v-156.425h-357.469v165.702c0 79.546 55.203 152.111 155.462 204.335 99.223 48.295 215.859 76.527 339.088 76.527 6.136 0 12.256-0.070 18.358-0.209l-0.908 0.016c5.236 0.125 11.405 0.196 17.59 0.196 123.147 0 239.717-28.163 343.619-78.401l-4.717 2.057c100.305-52.177 155.508-124.788 155.508-204.521zM713.076 515.103h264.378v119.622c0 61.487-46.545 119.482-130.327 163.188-92.937 44.905-202.109 71.146-317.409 71.146-6.231 0-12.443-0.077-18.637-0.229l0.919 0.018c-5.164 0.129-11.245 0.203-17.344 0.203-115.456 0-224.759-26.344-322.226-73.349l4.443 1.932c-83.782-43.66-130.327-101.562-130.327-162.909v-119.156h264.378v109.847c0.421 61.688 50.449 111.552 112.16 111.709h177.819c61.736-0.131 111.779-50.010 112.174-111.671v-0.038z" />
<glyph unicode="&#xe937;" glyph-name="typewriter-thin" d="M661.593 41.999h-254.664v44.522h254.664zM171.854 426.667h724.814v-404.703c-0.076-59.228-48.069-107.221-107.29-107.297h-510.226c-59.228 0.076-107.221 48.069-107.297 107.29v0.007zM852.146 382.145h-635.77v-360.181c0.051-34.65 28.126-62.725 62.771-62.776h510.224c34.65 0.051 62.725 28.126 62.776 62.771v0.005zM1001.739 382.145h-934.957v44.522h934.957zM1024 319.37h-44.522v170.073h44.522zM89.043 319.37h-44.522v170.073h44.522zM256.89 894.145h554.296v-512h-554.296zM766.664 849.624h-465.252v-422.957h465.252zM406.929 212.072h-85.037v44.522h85.037zM576.557 212.072h-84.591v44.522h84.591zM746.63 212.072h-85.037v44.522h85.037z" />
<glyph unicode="&#xe938;" glyph-name="voice-envelope-thin" d="M334.196 892.122c61.952 0 112.175-50.222 112.175-112.175s-50.222-112.175-112.175-112.175c-61.952 0-112.175 50.222-112.175 112.175v0c0.079 61.92 50.254 112.095 112.167 112.175h0.008zM334.196 714.318c36.246 0 65.629 29.383 65.629 65.629s-29.383 65.629-65.629 65.629c-36.246 0-65.629-29.383-65.629-65.629v0c0.053-36.225 29.404-65.576 65.624-65.629h0.005zM689.804 892.122c61.952 0 112.175-50.222 112.175-112.175s-50.222-112.175-112.175-112.175c-61.952 0-112.175 50.222-112.175 112.175v0c0.079 61.92 50.254 112.095 112.167 112.175h0.008zM689.804 714.318c36.246 0 65.629 29.383 65.629 65.629s-29.383 65.629-65.629 65.629c-36.246 0-65.629-29.383-65.629-65.629v0c0.053-36.225 29.404-65.576 65.624-65.629h0.005zM689.804 667.772h-355.607v46.545h355.607zM1024-43.442h-1024v757.76h112.175v-46.545h-65.629v-664.669h930.909v664.669h-65.629v46.545h112.175zM512 169.41l-505.204 505.158 32.908 32.908 472.297-472.25 472.25 472.297 32.908-32.908zM39.75-36.646l-32.908 32.908 355.607 355.607 32.908-32.908zM984.25-36.646l-355.607 355.607 32.954 32.954 355.607-355.607z" />
<glyph unicode="&#xe939;" glyph-name="walkie-talkie-thin" horiz-adv-x="655" d="M0 787.115h655.36v-431.445l-43.691-105.131v-335.872h-567.979v335.872l-43.691 105.131zM609.849 741.604h-564.338v-376.832l43.691-105.131v-299.463h476.956v299.463l43.691 105.131zM501.988 567.751h-348.615v45.511h348.615zM501.988 393.444h-348.615v45.511h348.615zM132.892 764.359h-45.511v174.308h45.511zM567.979 764.359h-45.511v87.381h45.511zM283.989 175.901h-86.926v45.511h86.926z" />
<glyph unicode="&#xe93a;" glyph-name="wifi-call-thin" d="M679.688 493.114c-0.367 55.689-45.413 100.734-101.066 101.101h-0.035v46.548c81.299-0.445 147.098-66.179 147.649-147.41v-0.053zM875.187 493.207h-46.548c-0.159 137.985-111.975 249.802-249.945 249.96h-0.015v46.548c163.682-0.185 296.323-132.826 296.508-296.491v-0.017zM1024.14 493.207h-46.548c-0.265 220.207-178.706 398.648-398.887 398.913h-0.026v46.548c245.903-0.291 445.169-199.556 445.46-445.432v-0.028zM682.899-85.38c-137.734 0-311.31 88.021-453.001 229.759-94.251 90.673-166.787 203.228-209.485 329.531l-1.701 5.797c-34.864 117.952-20.481 216.493 40.31 277.424l140.294 140.434 271.605-271.605-105.663-106.78c-13.121-13.235-21.228-31.458-21.228-51.575s8.107-38.34 21.233-51.58l136.333-136.333c13.21-13.137 31.421-21.258 51.528-21.258s38.318 8.121 51.531 21.261l-0.003-0.003 106.78 105.71 271.605-271.605-140.434-140.248c-39.237-36.639-92.090-59.135-150.196-59.135-3.344 0-6.671 0.075-9.979 0.222l0.47-0.017zM199.317 831.608l-107.339-107.059c-48.223-48.409-58.464-130.659-28.813-231.528 42.112-124.346 110.66-230.25 199.369-315.285l0.274-0.261c133.266-133.452 294.274-216.307 420.092-216.307 2.983-0.184 6.469-0.288 9.98-0.288 45.188 0 86.326 17.342 117.121 45.735l-0.12-0.109 107.199 107.339-205.833 205.74-73.824-73.080c-21.624-21.502-51.432-34.794-84.344-34.794s-62.721 13.291-84.35 34.799l0.005-0.005-136.477 136.664c-21.463 21.659-34.726 51.476-34.726 84.391s13.262 62.732 34.735 84.4l-0.009-0.009 72.8 73.824z" />
<glyph unicode="&#xe93b;" glyph-name="wifi-thin" d="M505.455 229.391c61.472 0 111.304-49.833 111.304-111.304s-49.833-111.304-111.304-111.304c-61.472 0-111.304 49.833-111.304 111.304v0c0 61.472 49.833 111.304 111.304 111.304v0zM505.455 51.304c36.883 0 66.783 29.9 66.783 66.783s-29.9 66.783-66.783 66.783c-36.883 0-66.783-29.9-66.783-66.783v0c0-36.883 29.9-66.783 66.783-66.783v0zM678.511 291.098c-44.34 44.159-105.499 71.459-173.034 71.459s-128.694-27.3-173.042-71.467l0.008 0.008-31.477 31.521c52.401 52.202 124.687 84.476 204.511 84.476s152.109-32.274 204.52-84.484l-0.009 0.009zM836.074 448.75c-84.605 84.647-201.509 137.005-330.641 137.005s-246.035-52.358-330.639-137.003l-0.002-0.002-31.477 31.477c92.662 92.701 220.693 150.040 362.118 150.040s269.456-57.339 362.116-150.039l0.002-0.002zM31.432 608.984l-31.432 31.521c129.428 129.202 308.111 209.101 505.455 209.101s376.027-79.898 505.465-209.11l-0.010 0.010-31.432-31.521c-121.488 120.929-289.025 195.688-474.023 195.688s-352.535-74.758-474.048-195.713l0.025 0.025z" />
<glyph unicode="&#xe93c;" glyph-name="arrow-down-envelope" horiz-adv-x="1015" d="M507.266 460.214l-196.143 196.188 47.796 47.796 148.347-148.302 148.347 148.347 47.796-47.841zM541.083 508.055h-67.635v430.612h67.635zM507.266 116.221l-497.346 496.85 47.796 47.886 449.55-449.144 449.55 449.099 47.796-47.841zM57.716-75.413l-47.796 47.796 344.49 344.49 47.796-47.796zM956.816-75.413l-344.49 344.49 47.796 47.796 344.49-344.49zM1014.531-85.333h-1014.531v756.164h210.121v-67.635h-142.485v-620.893h879.26v620.893h-142.485v67.635h210.121z" />
<glyph unicode="&#xe93d;" glyph-name="arrow-up-envelope" d="M647.346 675.989l-146.477 146.12-146.477-146.12-47.193 47.282 193.67 193.135 193.67-193.135zM534.261 444.52h-66.783v424.737h66.783zM500.87 142.173l-491.075 491.119 47.193 47.193 443.882-443.837 443.882 443.882 47.193-47.238zM56.988-46.599l-47.193 47.238 340.146 339.745 47.193-47.282zM944.751-46.599l-340.146 339.701 47.193 47.282 340.146-339.745zM1001.739-56.349h-1001.739v746.63h207.471v-66.783h-140.689v-613.064h868.174v613.064h-140.689v66.783h207.471z" />
<glyph unicode="&#xe93e;" glyph-name="block-envelope" d="M512 938.667c114.867 0 207.986-93.118 207.986-207.986s-93.118-207.986-207.986-207.986c-114.867 0-207.986 93.118-207.986 207.986v0c0.129 114.815 93.17 207.856 207.973 207.986h0.012zM512 590.962c77.165 0 139.719 62.554 139.719 139.719s-62.554 139.719-139.719 139.719c-77.165 0-139.719-62.554-139.719-139.719v0c0.078-77.133 62.586-139.641 139.712-139.719h0.007zM420.068 590.917l-48.242 48.333 232.107 231.652 48.242-48.333zM512 117.601l-501.988 502.033 48.242 48.242 453.746-453.7 453.746 453.7 48.242-48.242zM58.254-75.321l-48.242 48.242 347.705 347.705 48.242-48.242zM965.746-75.321l-347.705 347.705 48.242 48.242 347.705-347.705zM1024-85.333h-1024v763.221h212.082v-68.267h-143.815v-626.688h887.467v626.688h-143.815v68.267h212.082z" />
<glyph unicode="&#xe93f;" glyph-name="bookmark-envelope" d="M676.295 492.977l-164.295 109.727-164.295-109.727v445.69h328.59zM512 684.806l96.028-64.125v249.719h-192.057v-249.719zM1024-85.333h-1024v763.221h212.082v-68.267h-143.815v-626.688h887.467v626.688h-143.815v68.267h212.082zM512 117.601l-501.988 502.033 48.242 48.242 453.746-453.7 453.746 453.7 48.242-48.242zM58.254-75.321l-48.242 48.242 347.705 347.705 48.242-48.242zM965.746-75.321l-347.705 347.705 48.242 48.242 347.705-347.705zM1024-85.333h-1024v763.221h251.221v-68.267h-182.955v-626.688h887.467v626.688h-182.955v68.267h251.221z" />
<glyph unicode="&#xe940;" glyph-name="bullhorn" d="M850.148 88.519h-86.198l-416.245 231.151v387.846l416.245 231.151h86.198zM781.608 156.786h0.273v713.614h-0.273l-365.636-203.025v-307.519zM207.986 721.579h207.986v-415.972h-207.986c-114.867 0-207.986 93.118-207.986 207.986s93.118 207.986 207.986 207.986v0zM347.705 653.312h-139.719c-77.165 0-139.719-62.554-139.719-139.719s62.554-139.719 139.719-139.719h139.719zM165.433 373.874h243.803l101.581-459.207h-243.302zM354.441 305.607h-103.902l71.726-322.674h103.492zM781.881 634.653h121.060c66.859 0 121.060-54.2 121.060-121.060s-54.2-121.060-121.060-121.060v0h-121.060zM902.94 460.8c29.157 0 52.793 23.636 52.793 52.793s-23.636 52.793-52.793 52.793h-52.793v-105.586z" />
<glyph unicode="&#xe941;" glyph-name="call" d="M703.368-85.333c-142.634 0-321.039 90.738-465.524 236.759-96.363 93.74-170.947 209.359-215.771 338.87l-1.838 6.106c-37.533 124.161-22.583 227.997 42.095 292.449l149.454 149.815 290.507-290.507-114.224-114.179c-11.327-11.664-18.311-27.599-18.311-45.166s6.984-33.502 18.326-45.182l-0.015 0.016 140.014-140.014c11.664-11.549 27.717-18.685 45.437-18.685s33.773 7.136 45.442 18.69l114.174 114.174 290.326-290.507-150.583-149.499c-41.573-39.235-97.784-63.352-159.628-63.352-3.474 0-6.931 0.076-10.369 0.227l0.489-0.017zM211.873 842.735l-101.623-101.939c-46.205-46.024-55.102-125.877-25.157-224.926 43.282-124.555 112.12-230.695 200.732-316.545l0.211-0.203c132.2-133.646 292.133-216.796 417.332-216.796 3.047-0.201 6.606-0.315 10.192-0.315 43.171 0 82.468 16.585 111.868 43.731l-0.112-0.102 102.481 101.759-194.755 194.62-66.394-66.349c-23.912-23.738-56.854-38.408-93.222-38.408s-69.31 14.67-93.23 38.416l-140.277 140.187c-23.411 23.934-37.856 56.722-37.856 92.884s14.445 68.949 37.879 92.908l66.37 66.37z" />
<glyph unicode="&#xe942;" glyph-name="call-arrow-down-left" d="M672.954 538.811l-48.718 48.718 351.138 351.138 48.718-48.718zM911.948 528.699h-297.824v297.824h68.941v-228.883h228.883zM685.777-85.287c-82.939 3.077-160.045 25.297-227.9 62.336l2.693-1.346c-88.525 46.225-164.409 102.648-230.13 169.139l-0.087 0.088c-94.378 90.85-166.999 203.623-209.717 330.164l-1.702 5.808c-35.482 120.646-20.223 221.989 42.881 285.415l146.476 146.66 284.404-284.404-112.373-113.522c-10.894-10.985-17.626-26.112-17.626-42.812s6.732-31.827 17.631-42.816l-0.004 0.004 134.526-134.664c10.965-10.9 26.079-17.637 42.766-17.637s31.801 6.737 42.769 17.64l-0.003-0.003 113.614 112.419 284.404-284.404-146.614-146.614c-40.774-38.198-95.76-61.659-156.226-61.659-3.441 0-6.864 0.076-10.268 0.226l0.484-0.017zM208.293 815.447l-97.896-97.85c-44.49-44.674-53.59-121.841-25.554-217.255 41-120.864 107.683-223.795 193.958-306.436l0.272-0.258c129.563-129.563 285.369-210.039 406.659-210.039 2.91-0.189 6.31-0.297 9.735-0.297 41.492 0 79.287 15.827 107.679 41.772l-0.123-0.111 97.85 97.85-187.151 187.151-64.804-64.345c-23.429-23.303-55.728-37.708-91.392-37.708s-67.964 14.405-91.398 37.713l0.006-0.006-134.664 135.078c-23.254 23.468-37.622 55.776-37.622 91.438s14.368 67.97 37.631 91.448l63.967 64.703z" />
<glyph unicode="&#xe943;" glyph-name="call-arrow-up-right" d="M651.887 519.272l-47.193 47.193 340.146 340.146 47.193-47.193zM1001.828 627.905h-66.783v221.718h-221.718v66.783h288.501zM664.309-85.289c-80.343 2.981-155.035 24.505-220.766 60.384l2.609-1.304c-85.754 44.778-159.262 99.435-222.925 163.844l-0.084 0.085c-91.424 88.006-161.771 197.249-203.152 319.828l-1.648 5.626c-34.371 116.87-19.59 215.040 41.539 276.48l141.891 142.069 275.501-275.501-108.856-109.969c-10.553-10.641-17.075-25.295-17.075-41.472s6.521-30.831 17.079-41.476l-0.004 0.004 130.315-130.449c10.622-10.559 25.263-17.085 41.427-17.085s30.805 6.526 41.43 17.088l-0.003-0.003 110.058 108.9 275.501-275.501-142.024-142.024c-39.498-37.002-92.762-59.728-151.335-59.728-3.333 0-6.649 0.074-9.947 0.219l0.469-0.016zM201.773 787.249l-94.831-94.787c-43.097-43.275-51.912-118.027-24.754-210.454 39.717-117.081 104.312-216.789 187.886-296.843l0.263-0.25c125.507-125.507 276.435-203.464 393.928-203.464 2.819-0.183 6.113-0.288 9.431-0.288 40.193 0 76.805 15.331 104.308 40.465l-0.119-0.107 94.787 94.787-181.293 181.293-62.776-62.33c-22.695-22.573-53.984-36.527-88.531-36.527s-65.836 13.954-88.537 36.533l0.006-0.006-130.449 130.849c-22.526 22.734-36.444 54.030-36.444 88.576s13.918 65.842 36.453 88.585l61.965 62.677z" />
<glyph unicode="&#xe944;" glyph-name="call-dots" d="M666.298-55.125c-80.674 2.939-155.692 24.514-221.712 60.515l2.622-1.309c-85.889 44.899-159.525 99.629-223.347 164.094l-0.071 0.072c-91.835 88.152-162.455 197.697-203.901 320.662l-1.644 5.621c-34.49 117.62-19.596 216.623 41.891 278.761l0.233 0.233 143.546 141.871 276.015-277.132-108.823-111.244c-10.168-10.512-16.435-24.853-16.435-40.657s6.267-30.146 16.451-40.674l-0.016 0.016 130.839-129.769c10.501-10.366 24.936-16.769 40.867-16.769s30.366 6.403 40.873 16.775l109.702 109.702 277.411-277.271-142.801-143.36c-39.68-37.371-93.292-60.337-152.267-60.337-3.317 0-6.617 0.073-9.899 0.216l0.467-0.016zM109.708 724.092c-92.625-93.696-17.873-325.492 163.375-506.321 125.673-125.254 276.247-203.078 393.216-203.078 2.804-0.184 6.078-0.289 9.378-0.289 39.708 0 75.87 15.178 103.003 40.048l-0.113-0.102 93.556 94.022-178.735 178.735-60.509-60.509c-23.111-22.858-54.904-36.979-89.996-36.979s-66.885 14.121-90.007 36.991l0.012-0.011-131.677 130.327c-22.625 23.069-36.59 54.704-36.59 89.6s13.964 66.531 36.61 89.621l60.489 61.885-178.176 178.781zM672.908 539.819h-85.178v69.818h85.178zM842.799 539.819h-85.178v69.818h85.178zM1012.689 539.819h-85.178v69.818h85.178z" />
<glyph unicode="&#xe945;" glyph-name="caller-id" d="M0 805.102h1001.739v-746.63h-1001.739zM934.957 738.319h-868.174v-613.064h868.174zM170.073 635.029h491.965v-406.929h-491.965zM595.256 568.246h-358.4v-273.363h358.4zM841.016 568.246h-85.037v66.783h85.037zM841.016 398.173h-85.037v66.783h85.037zM841.016 228.1h-85.037v66.783h85.037z" />
<glyph unicode="&#xe946;" glyph-name="call-slash" horiz-adv-x="1026" d="M59.057-77.548l-48.83 48.83 967.385 967.385 48.83-48.83zM169.292 210.364c-73.313 84.075-128.489 185.948-158.214 298.176l-1.174 5.215c-23.355 105.675-4.929 195.32 51.916 252.165l146.95 146.95 285.102-284.549-112.677-113.829c-10.949-11.091-17.711-26.338-17.711-43.164s6.763-32.073 17.718-43.17l-0.006 0.007 4.975-4.975-48.876-48.83-5.067 5.067c-23.323 23.601-37.73 56.057-37.73 91.879s14.407 68.278 37.742 91.891l-0.012-0.013 64.124 64.861-187.534 187.166-98.167-98.12c-84.946-84.946-36.853-283.766 111.756-462.502zM689.193-85.379c-114.658 0-255.85 58.964-386.954 169.799l-1.751 1.474c-24.244 19.401-45.934 39.237-66.257 60.396l-0.217 0.227 51.087 46.527c18.412-19.031 37.86-36.727 58.384-53.135l1.226-0.947 1.935-1.612c75.171-66.838 166.545-117.182 267.409-144.406l4.657-1.070c81.721-18.15 148.517-6.357 188.087 33.26l98.12 98.12-187.258 187.534-64.907-64.262c-23.594-23.282-56.022-37.661-91.809-37.661s-68.216 14.379-91.824 37.676l0.014-0.014-67.348 67.487 48.83 48.83 67.256-67.256c11.079-10.919 26.299-17.662 43.095-17.662s32.016 6.743 43.102 17.669l-0.007-0.007 113.875 112.677 284.549-285.102-146.95-146.95c-40.719-38.29-95.703-61.817-156.183-61.817-3.574 0-7.129 0.082-10.662 0.245l0.501-0.018z" />
<glyph unicode="&#xe947;" glyph-name="call-xmark" d="M672.954 538.811l-48.718 48.718 351.138 351.138 48.718-48.718zM975.374 538.811l-351.138 351.138 48.718 48.718 351.138-351.138zM685.777-85.287c-82.939 3.077-160.045 25.297-227.9 62.336l2.693-1.346c-88.525 46.225-164.409 102.648-230.13 169.139l-0.087 0.088c-94.378 90.85-166.999 203.623-209.717 330.164l-1.702 5.808c-35.482 120.646-20.223 221.989 42.881 285.415l146.476 146.66 284.404-284.404-112.373-113.522c-10.894-10.985-17.626-26.112-17.626-42.812s6.732-31.827 17.631-42.816l-0.004 0.004 134.526-134.664c10.965-10.9 26.079-17.637 42.766-17.637s31.801 6.737 42.769 17.64l-0.003-0.003 113.614 112.419 284.404-284.404-146.614-146.614c-40.774-38.198-95.76-61.659-156.226-61.659-3.441 0-6.864 0.076-10.268 0.226l0.484-0.017zM208.293 815.447l-97.896-97.85c-44.49-44.674-53.59-121.841-25.554-217.255 41-120.864 107.683-223.795 193.958-306.436l0.272-0.258c129.563-129.563 285.369-210.039 406.659-210.039 2.91-0.189 6.31-0.297 9.735-0.297 41.492 0 79.287 15.827 107.679 41.772l-0.123-0.111 97.85 97.85-187.151 187.151-64.804-64.345c-23.429-23.303-55.728-37.708-91.392-37.708s-67.964 14.405-91.398 37.713l0.006-0.006-134.664 135.078c-23.254 23.468-37.622 55.776-37.622 91.438s14.368 67.97 37.631 91.448l63.967 64.703z" />
<glyph unicode="&#xe948;" glyph-name="contact-mobile" horiz-adv-x="676" d="M121.060 938.667h434.176c66.828-0.078 120.982-54.231 121.060-121.052v-781.888c-0.078-66.828-54.231-120.982-121.052-121.060h-434.183c-66.828 0.078-120.982 54.231-121.060 121.052v781.888c0.078 66.828 54.231 120.982 121.052 121.060h0.007zM555.236-17.066c29.146 0.026 52.767 23.647 52.793 52.79v781.884c-0.026 29.146-23.647 52.767-52.79 52.793h-434.179c-29.146-0.026-52.767-23.647-52.793-52.79v-781.884c0.026-29.146 23.647-52.767 52.79-52.793h0.003zM642.162 88.519h-608.028v68.267h608.028zM338.148 721.579c66.859 0 121.060-54.2 121.060-121.060s-54.2-121.060-121.060-121.060c-66.859 0-121.060 54.2-121.060 121.060v0c0.078 66.828 54.231 120.982 121.052 121.060h0.007zM338.148 547.727c29.157 0 52.793 23.636 52.793 52.793s-23.636 52.793-52.793 52.793c-29.157 0-52.793-23.636-52.793-52.793v0c0.026-29.146 23.647-52.767 52.79-52.793h0.003zM338.148 547.727v0c0.006 0 0.013 0 0.020 0 90.738 0 164.295-73.557 164.295-164.295 0-0.896-0.007-1.79-0.021-2.683l0.002 0.135v-79.371h-328.59v79.371c-0.013 0.758-0.020 1.653-0.020 2.549 0 90.738 73.557 164.295 164.295 164.295 0.007 0 0.014 0 0.021 0h-0.001zM434.176 369.778v11.969c0.009 0.501 0.015 1.092 0.015 1.684 0 53.035-42.993 96.028-96.028 96.028-0.005 0-0.010 0-0.016 0h0.001c-0.004 0-0.010 0-0.015 0-53.035 0-96.028-42.993-96.028-96.028 0-0.592 0.005-1.183 0.016-1.773l-0.001 0.089v-11.969z" />
<glyph unicode="&#xe949;" glyph-name="envelope-arrow-right" d="M836.786 732.042h-591.026v66.783h429.412l-70.522 70.3 47.104 47.282zM500.87 122.94l-491.075 491.119 47.193 47.193 443.882-443.837 443.882 443.837 47.193-47.193zM56.988-65.788l-47.193 47.193 340.146 340.146 47.193-47.193zM944.751-65.788l-340.146 340.146 47.193 47.193 340.146-340.146zM0 671.047h1001.739v-746.63h-1001.739zM934.957 604.264h-868.174v-613.064h868.174z" />
<glyph unicode="&#xe94a;" glyph-name="envelope-check" d="M500.87 590.418l-150.929 151.374 47.238 47.238 103.691-104.047 231.513 231.424 47.193-47.193zM500.87 122.984l-491.075 491.119 47.193 47.193 443.882-443.837 443.882 443.837 47.193-47.193zM56.988-65.743l-47.193 47.193 340.146 340.146 47.193-47.193zM944.751-65.743l-340.146 340.146 47.193 47.193 340.146-340.146zM1001.739-75.538h-1001.739v746.63h292.508v-66.783h-225.725v-613.064h868.174v613.064h-225.725v66.783h292.508z" />
<glyph unicode="&#xe94b;" glyph-name="envelope-line" horiz-adv-x="1025" d="M562.032 621.284h-66.121v294.461h66.121zM528.971 111.709l-486.213 485.728 46.726 46.814 439.487-439.090 439.487 439.046 46.726-46.77zM89.484-75.635l-46.726 46.726 336.778 336.778 46.726-46.726zM968.458-75.635l-336.778 336.778 46.726 46.726 336.778-336.778zM1024.882-85.333h-991.821v739.237h331.929v-66.121h-265.808v-606.994h859.578v606.994h-265.808v66.121h331.929z" />
<glyph unicode="&#xe94c;" glyph-name="envelope-lines" d="M500.87 256.995l-491.075 491.119 47.193 47.193 443.882-443.882 443.882 443.882 47.193-47.193zM56.988 67.822l-47.193 47.193 340.146 340.146 47.193-47.193zM944.751 67.822l-340.146 340.146 47.193 47.193 340.146-340.146zM0 805.102h1001.739v-746.63h-1001.739zM934.957 738.319h-868.174v-613.064h868.174z" />
<glyph unicode="&#xe94d;" glyph-name="envelope-minus" d="M670.943 805.102h-340.146v66.783h340.146zM500.87 196l-491.119 491.565 47.282 47.193 443.837-444.282 443.837 444.282 47.238-47.193zM56.988 7.272l-47.193 47.193 340.146 340.146 47.193-47.193zM944.751 7.272l-340.146 340.146 47.193 47.193 340.146-340.146zM1001.739-2.523h-1001.739v747.075h292.508v-66.783h-225.725v-613.51h868.174v613.51h-225.725v66.783h292.508z" />
<glyph unicode="&#xe94e;" glyph-name="envelope-paper" d="M850.148 426.667h-68.267v443.733h-539.762v-443.733h-68.267v512h676.295zM685.852 653.312h-347.705v68.267h347.705zM685.852 479.46h-347.705v68.267h347.705zM1024-85.333h-1024v743.242l183.865 183.819 48.242-48.242-163.84-163.84v-646.713h887.467v646.667l-163.84 163.84 48.242 48.287 183.865-183.865zM512 74.365l-501.988 502.033 48.242 48.242 453.746-453.7 453.746 453.746 48.242-48.287z" />
<glyph unicode="&#xe94f;" glyph-name="envelope-question" d="M561.548 620.236h-66.065v7.487c0 0.003 0 0.008 0 0.012 0 32.32 13.113 61.578 34.308 82.744l34.839 34.839c9.231 9.219 14.949 21.953 14.975 36.022v7.14c0 28.216-22.874 51.090-51.090 51.090s-51.090-22.874-51.090-51.090v0h-66.065c0 64.703 52.452 117.154 117.154 117.154s117.154-52.452 117.154-117.154v0-7.047c-0.046-32.374-13.182-61.671-34.398-82.889l-34.75-34.75c-9.252-9.26-14.975-22.048-14.975-36.173 0-0.011 0-0.021 0-0.032v0.002zM1024-85.333h-990.968v738.601h205.24v-66.065h-139.176v-606.472h858.839v606.472h-307.42v66.065h373.485zM528.516 111.055l-485.794 485.838 46.686 46.686 439.109-439.065 439.109 439.065 46.686-46.686zM89.407-75.644l-46.686 46.686 336.489 336.489 46.686-46.686zM967.625-75.644l-336.489 336.489 46.686 46.686 336.489-336.489zM1024-85.333h-990.968v738.601h369.521v-66.065h-303.456v-606.472h858.839v606.472h-307.42v66.065h373.485z" />
<glyph unicode="&#xe950;" glyph-name="envelopes-lines" d="M0 679.55h831.666v-661.593h-831.666zM764.883 612.768h-698.101v-528.028h698.101zM127.332 849.624h874.407v-661.593h-236.856v424.737h-637.551zM934.957 782.841h-740.842v-103.29h637.551v-424.737h103.29zM407.374 233.443l-397.579 397.579 47.193 47.193 350.386-350.386 350.386 350.386 47.193-47.193zM56.988 36.211l-47.193 47.193 297.405 297.405 47.193-47.193zM757.76 36.211l-297.405 297.405 47.193 47.193 297.405-297.405z" />
<glyph unicode="&#xe951;" glyph-name="envelope-xmark" d="M604.561 614.104l-254.664 255.11 47.282 47.193 254.664-255.11zM397.178 614.104l-47.282 47.193 254.664 255.11 47.282-47.193zM500.87 122.984l-491.075 491.119 47.193 47.193 443.882-443.837 443.882 443.837 47.193-47.193zM56.988-65.743l-47.193 47.193 340.146 340.146 47.193-47.193zM944.751-65.743l-340.146 340.146 47.193 47.193 340.146-340.146zM1001.739-75.538h-1001.739v746.63h245.76v-66.783h-178.977v-613.064h868.174v613.064h-183.43v66.783h250.212z" />
<glyph unicode="&#xe952;" glyph-name="fast-envelope" d="M212.814 566.020h-212.814v66.783h212.814zM212.814 395.502h-170.073v66.783h170.073zM212.814 224.984h-127.777v66.783h127.777zM1012.87 97.206h-800.056v66.783h733.273v529.809h-733.273v66.783h800.056zM596.146 305.612l-406.662 397.713 46.481 47.727 360.003-352.033 360.003 352.033 46.703-47.727zM236.41 107.001l-47.193 47.193 298.296 298.296 47.193-47.193zM955.882 107.001l-298.296 298.296 47.193 47.193 298.296-298.296z" />
<glyph unicode="&#xe953;" glyph-name="heart-envelope" d="M431.9 938.667h1.32c30.113-0.381 57.595-11.342 78.97-29.328l-0.19 0.156c21.173 17.821 48.637 28.78 78.65 29.172l0.084 0.001h2.64c71.035-4.94 126.788-63.776 126.788-135.633 0-2.43-0.064-4.845-0.19-7.243l0.014 0.335c-0.865-145.636-187.051-223.915-195.015-227.146l-12.971-5.37-12.971 5.325c-7.964 3.368-194.15 81.465-195.015 227.191-0.109 2.037-0.171 4.421-0.171 6.82 0 71.84 55.726 130.664 126.309 135.606l0.429 0.024zM512 783.656l-30.128 56.616c-9.451 17.499-27.355 29.363-48.094 30.125l-0.102 0.003c-34.633-3.148-61.558-32.046-61.558-67.232 0-1.405 0.043-2.8 0.128-4.183l-0.009 0.19v-2.048c0-81.92 102.946-140.675 139.81-158.97 36.955 18.204 139.628 76.095 139.628 158.97v2.048c0.073 1.179 0.115 2.557 0.115 3.944 0 35.201-26.948 64.108-61.34 67.216l-0.261 0.019c-20.841-0.765-38.745-12.629-48.047-29.827l-0.149-0.301zM1024-85.333h-1024v763.221h212.082v-68.267h-143.815v-626.688h887.467v626.688h-143.815v68.267h212.082zM512 117.601l-501.988 502.033 48.242 48.242 453.746-453.7 453.746 453.7 48.242-48.242zM58.254-75.321l-48.242 48.242 347.705 347.705 48.242-48.242zM965.746-75.321l-347.705 347.705 48.242 48.242 347.705-347.705zM1024-85.333h-1024v763.221h251.221v-68.267h-182.955v-626.688h887.467v626.688h-182.955v68.267h251.221z" />
<glyph unicode="&#xe954;" glyph-name="id-card" d="M0 805.102h1001.739v-746.63h-1001.739zM934.957 738.319h-868.174v-613.064h868.174zM500.87 568.246h-340.146v66.783h340.146zM500.87 398.173h-340.146v66.783h340.146zM415.833 228.1h-255.11v66.783h255.11zM594.81 635.029h236.856v-236.856h-236.856zM764.883 568.246h-103.29v-103.29h103.29z" />
<glyph unicode="&#xe955;" glyph-name="inbox-mailbox" horiz-adv-x="1015" d="M0 594.177h636.224c208.83-0.257 378.051-169.478 378.307-378.283v-206.087h-1014.531zM946.896 77.443v138.427c-0.256 171.476-139.196 310.416-310.647 310.672h-568.613v-449.099zM239.88 44.076h-67.635v516.284h67.635zM541.083 259.157h-67.635v645.693h67.635zM473.448 938.667h282.716v-239.88h-282.716zM688.528 871.032h-147.445v-104.609h147.445zM627.206-85.333h-67.635v95.591h-104.609v-95.591h-67.635v163.227h239.88zM507.266 378.646c42.335 0 76.653-34.319 76.653-76.653s-34.319-76.653-76.653-76.653c-42.335 0-76.653 34.319-76.653 76.653v0c0 42.335 34.319 76.653 76.653 76.653v0zM507.266 292.974c4.981 0 9.018 4.038 9.018 9.018s-4.038 9.018-9.018 9.018c-4.981 0-9.018-4.038-9.018-9.018v0c0-4.981 4.038-9.018 9.018-9.018v0z" />
<glyph unicode="&#xe956;" glyph-name="lock-envelope" d="M347.705 764.815h329.045v-285.355h-329.045zM608.484 696.548h-192.512v-148.821h192.512zM512 938.667c66.828-0.078 120.982-54.231 121.060-121.052v-121.067h-242.119v121.060c0.078 66.828 54.231 120.982 121.052 121.060h0.007zM564.793 764.815v52.793c0 29.157-23.636 52.793-52.793 52.793s-52.793-23.636-52.793-52.793v0-52.793zM512 117.601l-501.988 502.033 48.242 48.242 453.746-453.7 453.746 453.7 48.242-48.242zM58.254-75.321l-48.242 48.242 347.705 347.705 48.242-48.242zM965.746-75.321l-347.705 347.705 48.242 48.242 347.705-347.705zM1024-85.333h-1024v763.221h255.772v-68.267h-187.506v-626.688h887.467v626.688h-187.506v68.267h255.772z" />
<glyph unicode="&#xe957;" glyph-name="mailbox" horiz-adv-x="1015" d="M1014.531 9.357h-412.125v377.856c0.049 113.768 92.288 205.976 206.063 205.976 56.646 0 107.953-22.857 145.202-59.85l-0.012 0.011 0.451 0.451c37.338-37.502 60.421-89.222 60.421-146.335 0-0.089 0-0.178 0-0.268v0.014zM670.041 76.992h276.854v310.221c0 0.112 0.001 0.244 0.001 0.377 0 38.148-15.321 72.718-40.147 97.891l0.016-0.016-0.451-0.451c-25.047 25.028-59.639 40.508-97.846 40.508-76.409 0-138.359-61.908-138.427-138.302v-0.006zM206.063 594.177h602.406v-67.635c-0.001 0-0.002 0-0.003 0-76.451 0-138.427-61.976-138.427-138.427 0-0.317 0.001-0.634 0.003-0.951v0.049-377.856h-670.041v377.856c-0.001 0.268-0.002 0.585-0.002 0.902 0 113.805 92.257 206.063 206.063 206.063 0.001 0 0.002 0 0.002 0v0zM655.838 526.542h-449.775c-0.001 0-0.002 0-0.003 0-76.451 0-138.427-61.976-138.427-138.427 0-0.317 0.001-0.634 0.003-0.951v0.049-310.221h534.771v310.221c0 0.109 0 0.238 0 0.367 0 53.54 20.286 102.342 53.59 139.139l-0.158-0.177zM421.143 268.175h-172.245v67.635h172.245zM67.635 215.87h-67.635v688.979h67.635zM0 938.667h282.716v-239.88h-282.716zM215.081 871.032h-147.445v-104.609h147.445zM670.041-85.333h-67.635v95.591h-104.609v-95.591h-67.635v163.227h239.88z" />
<glyph unicode="&#xe958;" glyph-name="megaphone" d="M66.783 254.368h-66.783v340.146h66.783zM1001.739-0.742h-66.783v850.365h66.783zM1001.739 808.307v-769.692l-509.774 162.148-491.965 111.972v222.253zM934.957 129.974v590.893l-868.174-236.9v-117.938l442.991-100.797zM245.76 50.904c-65.142 0.499-117.828 53.123-118.427 118.193v141.369h66.783v-141.134c0.325-28.454 23.355-51.422 51.802-51.645h169.916c28.454 0.325 51.422 23.355 51.645 51.802v63.509h66.783v-63.666c-0.499-65.142-53.123-117.828-118.193-118.427h-0.057z" />
<glyph unicode="&#xe959;" glyph-name="mobile" horiz-adv-x="676" d="M121.060 938.667h434.176c66.828-0.078 120.982-54.231 121.060-121.052v-781.888c-0.078-66.828-54.231-120.982-121.052-121.060h-434.183c-66.828 0.078-120.982 54.231-121.060 121.052v781.888c0.078 66.828 54.231 120.982 121.052 121.060h0.007zM555.236-17.066c29.146 0.026 52.767 23.647 52.793 52.79v781.884c-0.026 29.146-23.647 52.767-52.79 52.793h-434.179c-29.146-0.026-52.767-23.647-52.793-52.79v-781.884c0.026-29.146 23.647-52.767 52.79-52.793h0.003zM425.074 88.519h-173.852v68.267h173.852z" />
<glyph unicode="&#xe95a;" glyph-name="newspaper" d="M781.881 634.653h242.119v-598.926c-0.51-66.589-54.303-120.446-120.819-121.059h-0.604c-66.339 0.711-119.933 54.274-120.695 120.532l-0.001 0.073v599.381zM955.733 566.386h-105.586v-530.478c0.549-29.002 23.89-52.375 52.827-52.974l0.057-0.001c29.037 0.407 52.449 23.915 52.702 52.951v0.024zM120.604-85.333c-0.1 0-0.218 0-0.336 0-33.199 0-63.245 13.501-84.947 35.312l-0.005 0.005c-21.826 21.942-35.317 52.192-35.317 85.593 0 0.117 0 0.234 0 0.35v-0.018 902.758h850.148v-902.758c0.555-29.127 24.098-52.574 53.21-52.975h0.038l-0.364-68.267zM68.267 870.4v-834.674c0-0.074-0.001-0.163-0.001-0.251 0-14.516 5.859-27.664 15.341-37.208l-0.003 0.003c9.417-9.474 22.456-15.337 36.865-15.337 0.048 0 0.095 0 0.143 0h673.557c-7.618 15.28-12.138 33.264-12.288 52.288v835.179zM173.852 764.815h502.898v-329.045h-502.898zM608.484 696.548h-366.364v-192.512h366.364zM685.852 262.372h-521.557v68.267h521.557zM685.852 88.519h-521.557v68.267h521.557z" />
<glyph unicode="&#xe95b;" glyph-name="office-phone" d="M340.146 831.37h543.165c65.375-0.076 118.352-53.053 118.428-118.421v-509.781c-0.076-65.375-53.053-118.352-118.421-118.428h-543.172zM883.311 151.523c28.513 0.025 51.62 23.133 51.645 51.643v509.777c-0.025 28.513-23.133 51.62-51.643 51.645h-476.385v-613.064zM120.654 916.406h165.621c66.605-0.076 120.578-54.049 120.654-120.647v-718.143c-0.076-66.605-54.049-120.578-120.647-120.654h-165.628c-66.605 0.076-120.578 54.049-120.654 120.647v718.143c0.076 66.605 54.049 120.578 120.647 120.654h0.007zM286.275 23.745c29.742 0.025 53.846 24.129 53.871 53.869v718.138c-0.025 29.742-24.129 53.846-53.869 53.871h-165.623c-29.742-0.025-53.846-24.129-53.871-53.869v-718.138c0.025-29.742 24.129-53.846 53.869-53.871h0.002zM585.906 424.886h-85.037v66.783h85.037zM713.238 424.886h-85.037v66.783h85.037zM841.016 424.886h-85.037v66.783h85.037zM585.906 254.813h-85.037v66.783h85.037zM713.238 254.813h-85.037v66.783h85.037zM841.016 254.813h-85.037v66.783h85.037zM841.016 594.959h-340.146v66.783h340.146z" />
<glyph unicode="&#xe95c;" glyph-name="open-envelope" horiz-adv-x="878" d="M57.606-66.431l-47.705 47.705 315.035 315.035 47.705-47.705zM801.99-66.431l-315.035 315.035 47.705 47.705 315.035-315.035zM438.799 938.532l438.799-390.059v-633.806h-877.599v633.986zM810.091 518.185l-371.292 330.337-371.292-330.202v-536.145h742.583zM438.799 99.773l-428.358 409.546 46.625 48.56 381.733-364.766 381.733 364.541 46.625-48.785z" />
<glyph unicode="&#xe95d;" glyph-name="pause-call" horiz-adv-x="1015" d="M1014.665 551.29h-67.644v387.377h67.644zM756.264 551.29h-67.644v387.377h67.644zM673.016-85.333c-81.457 3.001-157.192 24.805-223.845 61.165l2.648-1.322c-86.842 45.359-161.293 100.672-225.815 165.836l-0.072 0.073c-139.257 138.987-225.842 310.172-225.887 446.813-0.136 2.916-0.213 6.335-0.213 9.772 0 59.305 23.062 113.224 60.706 153.278l-0.109-0.117 143.857 143.857 279.101-278.559-110.305-111.433c-10.718-10.858-17.339-25.783-17.339-42.255s6.62-31.398 17.345-42.262l-0.006 0.006 131.997-131.546c10.761-10.708 25.6-17.328 41.985-17.328s31.223 6.62 41.987 17.33l-0.002-0.002 111.388 110.441 279.010-278.469-143.722-144.804c-39.985-37.58-93.969-60.67-153.345-60.67-3.292 0-6.568 0.071-9.826 0.212l0.464-0.016zM204.331 798.418l-96.1-96.055c-25.354-27.67-40.89-64.697-40.89-105.354 0-3.424 0.11-6.822 0.327-10.191l-0.024 0.459c0-119.325 79.009-272.201 206.045-398.966s280.363-206 399.282-206c2.827-0.182 6.129-0.286 9.455-0.286 40.67 0 77.713 15.528 105.523 40.98l-0.118-0.107 96.055 96.777-183.677 183.316-63.586-63.135c-22.988-22.865-54.681-36.998-89.674-36.998s-66.686 14.134-89.679 37.004l0.006-0.006-132.132 131.681c-22.821 23.109-36.917 54.88-36.917 89.944s14.096 66.836 36.93 89.958l-0.013-0.013 62.774 63.766z" />
<glyph unicode="&#xe95e;" glyph-name="pencil-envelope" d="M393.899 479.187c-4.551 0-9.102 0-13.653 0.273l-31.858 1.32-1.047 31.858c-0.099 2.988-0.155 6.501-0.155 10.027 0 89.466 36.231 170.469 94.822 229.137l150.183 150.183c22.457 22.589 53.525 36.596 87.865 36.682h0.335c68.788-0.075 124.589-55.572 125.155-124.237v-0.054c0.069-1.554 0.108-3.377 0.108-5.208 0-34.197-13.675-65.199-35.855-87.838l0.021 0.021v-0.228l-150.733-150.551c-57.878-56.52-137.117-91.387-224.5-91.387-0.242 0-0.484 0-0.726 0.001h0.037zM680.619 870.582c-15.537-0.153-29.551-6.546-39.681-16.789l-150.192-150.192c-40.216-40.273-67.086-93.882-73.405-153.623l-0.096-1.115c60.263 5.515 113.625 31.375 153.981 70.557l-0.062-0.060 150.187 149.914c10.006 10.271 16.177 24.319 16.177 39.809 0 0.965-0.024 1.924-0.071 2.878l0.005-0.134v1.684c-0.026 31.424-25.506 56.889-56.934 56.889-0.048 0-0.096 0-0.144 0h0.007zM512 117.601l-501.988 502.033 48.242 48.242 453.746-453.7 453.746 453.7 48.242-48.242zM58.254-75.321l-48.242 48.242 347.705 347.705 48.242-48.242zM965.746-75.321l-347.705 347.705 48.242 48.242 347.705-347.705zM1024-85.333h-1024v763.221h299.008v-68.267h-230.741v-626.688h887.467v626.688h-143.815v68.267h212.082z" />
<glyph unicode="&#xe95f;" glyph-name="phone" horiz-adv-x="676" d="M121.060 938.667h434.176c66.828-0.078 120.982-54.231 121.060-121.052v-781.888c-0.078-66.828-54.231-120.982-121.052-121.060h-434.183c-66.828 0.078-120.982 54.231-121.060 121.052v781.888c0.078 66.828 54.231 120.982 121.052 121.060h0.007zM555.236-17.066c29.146 0.026 52.767 23.647 52.793 52.79v781.884c-0.026 29.146-23.647 52.767-52.79 52.793h-434.179c-29.146-0.026-52.767-23.647-52.793-52.79v-781.884c0.026-29.146 23.647-52.767 52.79-52.793h0.003zM207.986 904.534h260.779v-45.511c0-25.135-20.376-45.511-45.511-45.511v0h-172.032c-25.135 0-45.511 20.376-45.511 45.511v0 45.511zM381.383 44.829h-86.471v68.267h86.471z" />
<glyph unicode="&#xe960;" glyph-name="phone-arrow-right" horiz-adv-x="1005" d="M955.795 704.268h-438.463v68.941h438.463zM804.585 538.811l-48.718 48.718 151.21 151.21-151.21 151.21 48.718 48.718 199.928-199.928zM685.96-85.287c-82.939 3.077-160.045 25.297-227.9 62.336l2.693-1.346c-88.525 46.225-164.409 102.648-230.13 169.139l-0.087 0.088c-94.482 90.848-167.216 203.614-210.077 330.158l-1.709 5.813c-35.573 120.876-20.269 221.989 43.111 285.415l146.614 146.614 284.22-284.22-110.995-113.89c-10.956-10.906-17.735-25.998-17.735-42.674s6.78-31.769 17.733-42.672l0.002-0.002 134.297-134.756c11.039-10.927 26.229-17.677 42.996-17.677s31.957 6.751 43.001 17.682l-0.005-0.005 113.568 112.419 284.541-284.541-148.269-146.614c-40.737-38.089-95.635-61.479-155.997-61.479-3.473 0-6.928 0.077-10.363 0.231l0.489-0.017zM208.477 815.447l-97.896-97.85c-44.674-44.674-53.82-121.841-25.738-217.255 41.097-120.861 107.833-223.784 194.139-306.434l0.274-0.26c129.563-129.563 285.369-210.039 406.659-210.039 2.91-0.189 6.31-0.297 9.735-0.297 41.492 0 79.287 15.827 107.679 41.772l-0.123-0.111 99.091 97.988-187.013 187.013-64.804-64.345c-23.5-23.316-55.867-37.725-91.599-37.725s-68.099 14.409-91.608 37.733l0.008-0.008-134.297 135.124c-23.413 23.378-37.897 55.694-37.897 91.392s14.484 68.014 37.896 91.391l0.001 0.001 62.966 64.62z" />
<glyph unicode="&#xe961;" glyph-name="phonebook" horiz-adv-x="1034" d="M96.312 938.667h937.228v-1024h-937.228zM965.395 870.521h-800.937v-887.709h800.937zM260.77 653.364h-260.77v68.146h260.77zM260.77 392.594h-260.77v68.146h260.77zM260.77 131.824h-260.77v68.146h260.77zM608.312 721.51c90.828 0 164.458-73.63 164.458-164.458s-73.63-164.458-164.458-164.458c-90.828 0-164.458 73.63-164.458 164.458v0c0.103 90.786 73.672 164.354 164.448 164.458h0.010zM608.312 460.74c53.192 0 96.312 43.12 96.312 96.312s-43.12 96.312-96.312 96.312c-53.192 0-96.312-43.12-96.312-96.312v0c0.052-53.171 43.141-96.261 96.307-96.312h0.005zM608.221 460.74v0c114.862-0.129 207.942-93.208 208.071-208.058v-120.858h-415.597v120.845c0.205 114.641 92.929 207.556 207.477 208.071h0.049zM748.238 199.97v52.699c0 77.153-62.545 139.698-139.698 139.698s-139.698-62.545-139.698-139.698v0-52.699z" />
<glyph unicode="&#xe962;" glyph-name="phone-missed" d="M1024-85.333h-372.281v164.295c-0.026 29.146-23.647 52.767-52.79 52.793h-173.855c-29.146-0.026-52.767-23.647-52.793-52.79v-164.298h-372.281v173.397c0 82.648 55.933 158.743 157.559 214.266 98.794 50.935 215.609 80.796 339.399 80.796 5.289 0 10.565-0.055 15.828-0.163l-0.786 0.013c4.476 0.096 9.753 0.15 15.041 0.15 123.79 0 240.605-29.861 343.635-82.772l-4.236 1.977c101.581-55.524 157.559-131.618 157.559-214.266zM719.986-17.066h235.748v105.131c0 122.88-203.207 226.645-443.733 226.645s-443.733-103.811-443.733-226.645v-105.131h235.748v96.028c0.078 66.828 54.231 120.982 121.052 121.060h173.86c66.828-0.078 120.982-54.231 121.060-121.052v-0.007zM512 479.46h-0.41c-0.084 0-0.183 0-0.282 0-38.145 0-72.684 15.442-97.705 40.416l-318.576 318.576 48.333 48.333 318.578-318.578c12.873-12.678 30.553-20.506 50.062-20.506s37.189 7.828 50.071 20.515l360.439 360.439 48.242-48.242-360.448-360.448c-25.056-25.028-59.656-40.506-97.87-40.506-0.153 0-0.305 0-0.457 0.001h0.024zM111.957 643.755h-68.267v294.912h294.457v-68.267h-226.19z" />
<glyph unicode="&#xe963;" glyph-name="plus-envelope" horiz-adv-x="1015" d="M679.51 732.604h-344.49v67.635h344.49zM541.083 594.177h-67.635v344.49h67.635zM507.266 116.221l-497.346 496.85 47.796 47.886 449.55-449.144 449.55 449.099 47.796-47.841zM57.716-75.413l-47.796 47.796 344.49 344.49 47.796-47.796zM956.816-75.413l-344.49 344.49 47.796 47.796 344.49-344.49zM1014.531-85.333h-1014.531v756.164h296.243v-67.635h-228.608v-620.893h879.26v620.893h-228.608v67.635h296.243z" />
<glyph unicode="&#xe964;" glyph-name="postage" d="M0 938.667h198.428v-34.133c0-29.157 23.636-52.793 52.793-52.793s52.793 23.636 52.793 52.793v0 34.133h155.193v-34.133c0-29.157 23.636-52.793 52.793-52.793s52.793 23.636 52.793 52.793v0 34.133h155.193v-34.133c0-29.157 23.636-52.793 52.793-52.793s52.793 23.636 52.793 52.793v0 34.133h198.428v-198.246h-33.951c-29.157 0-52.793-23.636-52.793-52.793s23.636-52.793 52.793-52.793h33.951v-155.375h-34.133c-29.157 0-52.793-23.636-52.793-52.793s23.636-52.793 52.793-52.793h34.133v-155.193h-34.133c-29.157 0-52.793-23.636-52.793-52.793s23.636-52.793 52.793-52.793h34.133v-198.428h-198.428v34.133c0 29.157-23.636 52.793-52.793 52.793s-52.793-23.636-52.793-52.793v0-34.133h-155.193v34.133c0 29.157-23.636 52.793-52.793 52.793s-52.793-23.636-52.793-52.793v0-34.133h-155.193v34.133c0 29.157-23.636 52.793-52.793 52.793s-52.793-23.636-52.793-52.793v0-34.133h-198.428v198.428h34.133c29.157 0 52.793 23.636 52.793 52.793s-23.636 52.793-52.793 52.793h-34.133v155.193h34.133c29.157 0 52.793 23.636 52.793 52.793s-23.636 52.793-52.793 52.793h-34.133v155.193h34.133c29.157 0 52.793 23.636 52.793 52.793s-23.636 52.793-52.793 52.793h-34.133zM135.077 870.4h-66.81v-66.81c50.492-15.337 86.606-61.477 86.606-116.053s-36.114-100.717-85.749-115.829l-0.858-0.225v-28.444c50.492-15.337 86.606-61.477 86.606-116.053s-36.114-100.717-85.749-115.829l-0.858-0.225v-28.444c50.492-15.337 86.606-61.477 86.606-116.053s-36.114-100.717-85.749-115.829l-0.858-0.225v-67.447h66.81c15.337 50.492 61.477 86.606 116.053 86.606s100.717-36.114 115.829-85.749l0.225-0.858h28.444c15.337 50.492 61.477 86.606 116.053 86.606s100.717-36.114 115.829-85.749l0.225-0.858h28.444c15.337 50.492 61.477 86.606 116.053 86.606s100.717-36.114 115.829-85.749l0.225-0.858h67.447v66.81c-50.492 15.337-86.606 61.477-86.606 116.053s36.114 100.717 85.749 115.829l0.858 0.225v28.444c-50.492 15.337-86.606 61.477-86.606 116.053s36.114 100.717 85.749 115.829l0.858 0.225v29.036c-50.366 15.484-86.433 61.377-86.926 115.768v0.421c0.493 54.448 36.56 100.342 86.061 115.596l0.865 0.229v66.947h-66.81c-15.337-50.492-61.477-86.606-116.053-86.606s-100.717 36.114-115.829 85.749l-0.225 0.858h-28.444c-15.337-50.492-61.477-86.606-116.053-86.606s-100.717 36.114-115.829 85.749l-0.225 0.858h-28.9c-15.337-50.492-61.477-86.606-116.053-86.606s-100.717 36.114-115.829 85.749l-0.225 0.858zM702.464 372.554c-0.004 0-0.008 0-0.013 0-33.219 0-64.289 9.204-90.798 25.2l0.79-0.442-72.408 43.281 34.998 58.618 72.363-43.236c15.733-9.498 34.733-15.118 55.046-15.118s39.313 5.62 55.531 15.389l-0.485-0.271c25.276 15.632 55.923 24.896 88.733 24.896 0.261 0 0.522-0.001 0.782-0.002h-0.040c0.211 0.001 0.46 0.001 0.709 0.001 26.483 0 51.539-6.114 73.832-17.007l-0.995 0.439-29.628-61.531c-12.626 6.204-27.482 9.832-43.185 9.832-0.178 0-0.355 0-0.533-0.001h-0.383c-0.168 0.001-0.367 0.002-0.566 0.002-19.739 0-38.172-5.59-53.802-15.273l0.438 0.252h-0.364c-25.702-15.648-56.767-24.944-89.997-25.031h-0.024zM700.188 589.642c-0.004 0-0.008 0-0.013 0-33.219 0-64.289 9.204-90.798 25.2l0.79-0.442-0.592 0.364-70.087 43.691 36.227 57.936 69.769-43.509c15.706-9.457 34.666-15.051 54.932-15.051s39.226 5.594 55.419 15.322l-0.488-0.272c25.272 15.633 55.915 24.897 88.722 24.897 0.345 0 0.689-0.001 1.033-0.003h1.904l1.957-0.228c28.895-3.574 55.177-10.822 79.724-21.341l-1.9 0.724-26.578-62.851c-16.723 7.23-36.143 12.672-56.425 15.393l-1.146 0.126c-19.276-0.264-37.201-5.818-52.457-15.271l0.437 0.252h-0.364c-25.722-15.625-56.807-24.892-90.053-24.94h-0.013zM702.51 155.284c-33.319 0.004-64.462 9.313-90.976 25.468l0.773-0.437-72.317 43.19 34.998 58.618 72.363-43.236c15.706-9.599 34.712-15.284 55.046-15.284s39.34 5.684 55.516 15.55l-0.47-0.266c25.353 15.358 55.988 24.447 88.747 24.447s63.394-9.089 89.522-24.882l-0.775 0.435-34.907-58.664c-15.362 9.302-33.924 14.807-53.771 14.807s-38.409-5.505-54.242-15.071l0.47 0.264c-25.678-15.665-56.743-24.94-89.973-24.94-0.001 0-0.002 0-0.002 0v0z" />
<glyph unicode="&#xe965;" glyph-name="radio" d="M0 664.814h1001.739v-746.63h-1001.739zM934.957 598.031h-868.174v-613.064h868.174zM776.904 495.186c30.244 0 54.762-24.518 54.762-54.762s-24.518-54.762-54.762-54.762c-30.244 0-54.762 24.518-54.762 54.762v0c0.025 30.234 24.528 54.736 54.759 54.762h0.003zM776.904 282.372c30.244 0 54.762-24.518 54.762-54.762s-24.518-54.762-54.762-54.762c-30.244 0-54.762 24.518-54.762 54.762v0c0.025 30.234 24.528 54.736 54.759 54.762h0.003zM260.675 601.593l-29.83 59.704 510.219 255.11 30.052-59.748zM628.202 427.958h-467.478v66.783h467.478zM628.202 258.33h-467.478v66.783h467.478zM628.202 88.257h-467.478v66.783h467.478z" />
<glyph unicode="&#xe966;" glyph-name="refresh-envelope-arrow" horiz-adv-x="1015" d="M507.266 116.221l-497.346 496.85 47.796 47.886 449.55-449.144 449.55 449.099 47.796-47.841zM57.716-75.413l-47.796 47.796 344.49 344.49 47.796-47.796zM956.816-75.413l-344.49 344.49 47.796 47.796 344.49-344.49zM1014.531-85.333h-1014.531v756.164h210.121v-67.635h-142.485v-620.893h879.26v620.893h-142.485v67.635h210.121zM507.807 517.704c-0.027 0-0.058 0-0.090 0-113.556 0-205.612 92.055-205.612 205.612s92.055 205.612 205.612 205.612c113.556 0 205.612-92.055 205.612-205.612 0-0.063 0-0.127 0-0.19v0.010h-67.635c0 0.037 0 0.081 0 0.124 0 76.202-61.774 137.976-137.976 137.976s-137.976-61.774-137.976-137.976c0-76.202 61.774-137.976 137.976-137.976 36.085 0 68.935 13.853 93.522 36.53l-0.095-0.086 45.812-49.599c-33.457-30.884-77.387-50.868-125.903-54.075l-0.62-0.033q-6.313-0.316-12.625-0.316zM713.328 732.604h-206.063v67.635h138.427v138.427h67.635z" />
<glyph unicode="&#xe967;" glyph-name="router" horiz-adv-x="1015" d="M0 412.914h1014.531v-498.247h-1014.531zM946.896 345.279h-879.26v-362.977h879.26zM239.88 335.81h-67.635v602.857h67.635zM842.286 335.81h-67.635v602.857h67.635zM851.755 130.198h-86.122v67.635h86.122zM679.51 130.198h-86.122v67.635h86.122zM248.898 240.67c42.335 0 76.653-34.319 76.653-76.653s-34.319-76.653-76.653-76.653c-42.335 0-76.653 34.319-76.653 76.653v0c0 42.335 34.319 76.653 76.653 76.653v0zM248.898 154.998c4.981 0 9.018 4.038 9.018 9.018s-4.038 9.018-9.018 9.018c-4.981 0-9.018-4.038-9.018-9.018v0c0-4.981 4.038-9.018 9.018-9.018v0z" />
<glyph unicode="&#xe968;" glyph-name="rss-square" d="M591.644 165.888h-68.267c0 0.002 0 0.005 0 0.007 0 149.051-120.83 269.881-269.881 269.881-0.704 0-1.407-0.003-2.11-0.008l0.108 0.001-0.501 68.267c0.757 0.006 1.653 0.010 2.549 0.010 186.754 0 338.148-151.394 338.148-338.148 0-0.004 0-0.007 0-0.011v0.001zM806.912 165.888h-68.267c0 269.197-218.227 487.424-487.424 487.424v0 68.267c306.899 0 555.691-248.791 555.691-555.691v0zM294.912 286.948c42.73 0 77.369-34.639 77.369-77.369s-34.639-77.369-77.369-77.369c-42.73 0-77.369 34.639-77.369 77.369v0c0 42.73 34.639 77.369 77.369 77.369v0zM294.912 200.477c5.027 0 9.102 4.075 9.102 9.102s-4.075 9.102-9.102 9.102c-5.027 0-9.102-4.075-9.102-9.102v0c0-5.027 4.075-9.102 9.102-9.102v0zM0 938.667h1024v-1024h-1024zM955.733 870.4h-887.467v-887.467h887.467z" />
<glyph unicode="&#xe969;" glyph-name="satellite" horiz-adv-x="1015" d="M507.266 938.667c66.21-0.077 119.863-53.73 119.94-119.933v-387.332c0-66.241-53.699-119.94-119.94-119.94s-119.94 53.699-119.94 119.94v0 387.325c0.077 66.21 53.73 119.863 119.933 119.94h0.007zM507.266 379.097c28.877 0.026 52.279 23.428 52.305 52.302v387.328c0 28.887-23.418 52.305-52.305 52.305s-52.305-23.418-52.305-52.305v0-387.325c0.026-28.877 23.428-52.279 52.302-52.305h0.003zM0 809.258h282.716v-412.125h-282.716zM215.081 741.623h-147.445v-276.854h147.445zM731.815 809.258h282.716v-412.125h-282.716zM946.896 741.623h-147.445v-276.854h147.445zM421.143 569.829h-128.958v67.635h128.958zM722.346 569.829h-128.958v67.635h128.958zM541.083 215.87h-67.635v129.409h67.635zM507.266 249.688c113.754-0.128 205.934-92.309 206.063-206.050v-33.83h-412.125v33.818c0.128 113.754 92.309 205.934 206.050 206.063h0.012zM641.499 77.443c-15.604 60.626-69.783 104.703-134.256 104.703s-118.652-44.077-134.046-103.742l-0.21-0.961zM541.083-85.333h-67.635v129.409h67.635z" />
<glyph unicode="&#xe96a;" glyph-name="satellite-dish" horiz-adv-x="1026" d="M908.834 938.667c64.65 0 117.059-52.409 117.059-117.059s-52.409-117.059-117.059-117.059c-64.65 0-117.059 52.409-117.059 117.059v0c0.075 64.62 52.439 116.984 117.052 117.059h0.007zM908.834 770.56c28.193 0 51.048 22.855 51.048 51.048s-22.855 51.048-51.048 51.048c-28.193 0-51.048-22.855-51.048-51.048v0c0.025-28.183 22.865-51.023 51.046-51.048h0.002zM811.314 473.601l-60.202 27.108 113.714 251.72 60.026-27.108zM587.934 663.887l-27.108 60.026 251.72 113.538 27.108-60.026zM731.925-51.492h-696.192v172.552l224.436 224.436 46.647-46.691-205.073-205.073v-79.213h564.17v122.78h66.011zM317.407 866.877l65.347 65.347 634.801-634.801-65.347-65.347c-175.295-175.295-459.505-175.295-634.801 0s-175.295 459.505 0 634.801v0zM382.754 838.871l-18.671-18.671c-149.517-149.517-149.517-391.931 0-541.448s391.931-149.517 541.448 0v0l18.671 18.671z" />
<glyph unicode="&#xe96b;" glyph-name="satellite-signal" d="M500.87 916.406c65.375-0.076 118.352-53.053 118.428-118.421v-382.449c0-65.406-53.022-118.428-118.428-118.428s-118.428 53.022-118.428 118.428v0 382.442c0.076 65.375 53.053 118.352 118.421 118.428h0.007zM500.87 363.891c28.513 0.025 51.62 23.133 51.645 51.643v382.445c0 28.523-23.122 51.645-51.645 51.645s-51.645-23.122-51.645-51.645v0-382.442c0.025-28.513 23.133-51.62 51.643-51.645h0.003zM0 789.074h279.151v-406.929h-279.151zM212.369 722.291h-145.586v-273.363h145.586zM722.588 789.074h279.151v-406.929h-279.151zM934.957 722.291h-145.586v-273.363h145.586zM415.833 552.218h-127.332v66.783h127.332zM713.238 552.218h-127.332v66.783h127.332zM501.983 85.809c-0.214-0.001-0.468-0.001-0.721-0.001-78.831 0-150.22 31.858-201.997 83.401l0.011-0.011 47.015 47.46c40.040-39.416 95.024-63.753 155.693-63.753s115.652 24.337 155.721 63.782l-0.029-0.028 47.015-47.46c-51.766-51.532-123.156-83.39-201.986-83.39-0.254 0-0.507 0-0.76 0.001h0.039zM500.87-85.244c-0.010 0-0.022 0-0.033 0-126.6 0-241.206 51.352-324.125 134.362l-0.004 0.004 47.238 47.193c70.837-70.927 168.746-114.802 276.903-114.802s206.065 43.875 276.899 114.798l0.004 0.004 47.238-47.193c-82.921-83.012-197.522-134.363-324.118-134.367v0zM534.261 245.464h-66.783v85.037h66.783z" />
<glyph unicode="&#xe96c;" glyph-name="search-envelope" d="M468.764 938.667c90.738 0 164.295-73.557 164.295-164.295s-73.557-164.295-164.295-164.295c-90.738 0-164.295 73.557-164.295 164.295v0c0.104 90.696 73.599 164.192 164.285 164.295h0.010zM468.764 678.343c53.035 0 96.028 42.993 96.028 96.028s-42.993 96.028-96.028 96.028c-53.035 0-96.028-42.993-96.028-96.028v0c0.052-53.014 43.014-95.977 96.023-96.028h0.005zM661.732 532.708l-125.156 125.156 48.242 48.242 125.156-125.156zM512 117.601l-501.988 502.033 48.242 48.242 453.746-453.7 453.746 453.7 48.242-48.242zM58.254-75.321l-48.242 48.242 347.705 347.705 48.242-48.242zM965.746-75.321l-347.705 347.705 48.242 48.242 347.705-347.705zM1024-85.333h-1024v763.221h255.772v-68.267h-187.506v-626.688h887.467v626.688h-187.506v68.267h255.772zM1024-85.333h-1024v763.221h251.221v-68.267h-182.955v-626.688h887.467v626.688h-182.955v68.267h251.221z" />
<glyph unicode="&#xe96d;" glyph-name="share-envelope" d="M381.838 808.050c42.73 0 77.369-34.639 77.369-77.369s-34.639-77.369-77.369-77.369c-42.73 0-77.369 34.639-77.369 77.369v0c0 42.73 34.639 77.369 77.369 77.369v0zM381.838 721.579c5.027 0 9.102 4.075 9.102 9.102s-4.075 9.102-9.102 9.102c-5.027 0-9.102-4.075-9.102-9.102v0c0-5.027 4.075-9.102 9.102-9.102v0zM642.162 938.667c42.73 0 77.369-34.639 77.369-77.369s-34.639-77.369-77.369-77.369c-42.73 0-77.369 34.639-77.369 77.369v0c0 42.73 34.639 77.369 77.369 77.369v0zM642.162 852.196c5.027 0 9.102 4.075 9.102 9.102s-4.075 9.102-9.102 9.102c-5.027 0-9.102-4.075-9.102-9.102v0c0-5.027 4.075-9.102 9.102-9.102v0zM642.162 677.888c42.73 0 77.369-34.639 77.369-77.369s-34.639-77.369-77.369-77.369c-42.73 0-77.369 34.639-77.369 77.369v0c0 42.73 34.639 77.369 77.369 77.369v0zM642.162 591.417c5.027 0 9.102 4.075 9.102 9.102s-4.075 9.102-9.102 9.102c-5.027 0-9.102-4.075-9.102-9.102v0c0-5.027 4.075-9.102 9.102-9.102v0zM626.916 569.981l-260.324 130.162 30.492 61.076 260.324-130.162zM397.13 700.189l-30.583 60.985 260.324 130.617 30.583-60.985zM512 117.601l-501.988 502.033 48.242 48.242 453.746-453.7 453.746 453.7 48.242-48.242zM58.254-75.321l-48.242 48.242 347.705 347.705 48.242-48.242zM965.746-75.321l-347.705 347.705 48.242 48.242 347.705-347.705zM1024-85.333h-1024v763.221h212.082v-68.267h-143.815v-626.688h887.467v626.688h-143.815v68.267h212.082z" />
<glyph unicode="&#xe96e;" glyph-name="shield-envelope" horiz-adv-x="1023" d="M511.454 434.123l-8.365 2.091c-115.265 29.806-199.084 132.73-199.399 255.282v195.525l207.764 51.646 207.537-54.555v-192.489c-0.31-122.601-84.128-225.539-197.565-254.96l-1.834-0.404zM371.884 833.648v-142.025c0.285-87.837 58.361-162.033 138.183-186.575l1.387-0.367c81.229 24.932 139.312 99.165 139.57 187.003v140.009l-139.57 36.597zM511.454 117.385l-501.453 501.498 48.19 48.19 453.262-453.217 453.262 453.217 48.19-48.19zM58.192-75.331l-48.19 48.19 347.334 347.334 48.19-48.19zM964.717-75.331l-347.334 347.334 48.19 48.19 347.334-347.334zM1022.909-85.333h-1022.909v762.408h211.856v-68.194h-143.662v-626.020h886.521v626.020h-143.662v68.194h211.856z" />
</font>
</defs>
</svg>
