<?xml version="1.0" standalone="no"?>
<!DOCTYPE svg PUBLIC "-//W3C//DTD SVG 1.1//EN" "http://www.w3.org/Graphics/SVG/1.1/DTD/svg11.dtd" >
<svg xmlns="http://www.w3.org/2000/svg">
<metadata>Generated by IcoMoon</metadata>
<defs>
<font id="content-box" horiz-adv-x="1024">
<font-face units-per-em="1024" ascent="960" descent="-64" />
<missing-glyph horiz-adv-x="1024" />
<glyph unicode="&#x20;" horiz-adv-x="512" d="" />
<glyph unicode="&#xe900;" glyph-name="add-chats-thin" horiz-adv-x="1055" d="M161.169 755.433h549.702c88.967-0.109 161.060-72.202 161.169-161.159v-366.479c-0.109-88.967-72.202-161.060-161.159-161.169h-67.644v-151.96l-304.495 151.96h-177.574c-88.967 0.109-161.060 72.202-161.169 161.159v366.479c0.109 88.967 72.202 161.060 161.159 161.169h0.011zM710.871 114.594c62.487 0.082 113.12 50.715 113.202 113.194v366.476c-0.082 62.487-50.715 113.12-113.194 113.202h-549.71c-62.487-0.082-113.12-50.715-113.202-113.194v-366.476c0.082-62.487 50.715-113.12 113.194-113.202h188.998l245.207-122.412v122.412zM896.168 249.861h-47.967v47.967h47.967c61.16 1.483 110.278 50.987 111.139 112.16l0.001 0.082v367.427c0 62.52-50.682 113.202-113.202 113.202v0h-549.702c-62.52 0-113.202-50.682-113.202-113.202v0-47.967h-47.967v47.967c0 89.011 72.158 161.169 161.169 161.169v0h549.702c89.011 0 161.169-72.158 161.169-161.169v0-367.427c-0.531-87.814-71.208-158.945-158.795-160.209l-0.119-0.001zM619.254 387.046h-366.468v47.967h366.468zM460.004 227.796h-47.967v366.468h47.967z" />
<glyph unicode="&#xe901;" glyph-name="add-chat-thin" horiz-adv-x="1056" d="M512 938.667c282.641-0.32 511.68-229.359 512-511.969v-0.031c0.002-0.579 0.004-1.265 0.004-1.951 0-128.801-48.172-246.35-127.482-335.615l0.451 0.517 159.386-174.95h-544.358c-282.77 0-512 229.23-512 512s229.23 512 512 512v0zM940.442-34.133l-113.357 124.467 16.742 17.254c79.774 81.855 128.976 193.836 128.976 317.308 0 0.623-0.001 1.245-0.004 1.867v-0.097c0 254.493-206.307 460.8-460.8 460.8s-460.8-206.307-460.8-460.8c0-254.493 206.307-460.8 460.8-460.8v0zM706.56 401.067h-389.12v51.2h389.12zM537.6 232.107h-51.2v389.12h51.2z" />
<glyph unicode="&#xe902;" glyph-name="add-comments-thin" horiz-adv-x="1060" d="M670.97 754.536c0.152 0 0.331 0.001 0.51 0.001 56.62 0 107.918-22.788 145.222-59.693l-0.018 0.018c38.185-37.783 61.879-90.148 62.036-148.046v-276.227c-0.137-114.948-93.284-208.095-208.219-208.232h-82.438l-150.293-147.69-147.449 147.69h-82.088c-114.948 0.137-208.095 93.284-208.232 208.219v276.21c0 114.737 93.013 207.75 207.75 207.75v0h463.22zM670.488 110.559c88.338 0.11 159.92 71.692 160.030 160.020v276.208c-0.12 44.481-18.309 84.691-47.61 113.695l-0.013 0.013c-28.631 28.35-68.036 45.866-111.531 45.866-1.020 0-2.037-0.010-3.052-0.029l0.152 0.002h-460.713c-88.116 0-159.548-71.432-159.548-159.548v0-276.197c0.11-88.338 71.692-159.92 160.020-160.030h102.054l128.024-128.024 130.145 128.024zM852.209 246.488v48.202c0.001 0 0.002 0 0.003 0 88.382 0 160.030 71.648 160.030 160.030 0 0.339-0.001 0.678-0.003 1.016v-0.052 274.751c0 88.382-71.648 160.030-160.030 160.030v0h-459.846c-88.382 0-160.030-71.648-160.030-160.030v0h-48.202c0 115.003 93.229 208.232 208.232 208.232v0h459.846c115.003 0 208.232-93.229 208.232-208.232v-274.751c0.001-0.286 0.002-0.625 0.002-0.964 0-115.003-93.229-208.232-208.232-208.232-0.001 0-0.002 0-0.002 0v0zM622.286 384.346h-368.262v48.202h368.262zM462.256 224.316h-48.202v368.262h48.202z" />
<glyph unicode="&#xe903;" glyph-name="add-comment-thin" horiz-adv-x="1060" d="M760.036 476.477h-459.781v48.195h459.781zM554.243 270.684h-48.195v459.781h48.195zM208.203 938.667h643.886c114.932-0.137 208.066-93.271 208.203-208.189v-459.794c-0.137-114.932-93.271-208.066-208.189-208.203h-174.142l-147.814-147.814-147.814 147.814h-174.129c-114.932 0.137-208.066 93.271-208.203 208.189v459.794c0.137 114.932 93.271 208.066 208.189 208.203h0.013zM852.088 110.676c88.326 0.11 159.898 71.682 160.008 159.997v459.792c-0.11 88.326-71.682 159.898-159.997 160.008h-643.896c-88.326-0.11-159.898-71.682-160.008-159.997v-459.792c0.11-88.326 71.682-159.898 159.997-160.008h194.092l127.861-127.861 127.861 127.861z" />
<glyph unicode="&#xe904;" glyph-name="add-messages-thin" horiz-adv-x="1083" d="M823.235 372.785h-281.957v49.207h281.957zM706.614 256.164h-49.207v281.957h49.207zM494.531 703.457h375.45c117.345-0.14 212.435-95.229 212.575-212.561v-576.228l-175.571 176.161h-412.946c-0.005 0-0.011 0-0.017 0-117.13 0-212.083 94.953-212.083 212.083 0 0.934 0.006 1.867 0.018 2.799l-0.001-0.141v185.314c0.14 117.345 95.229 212.435 212.561 212.575h0.013zM1033.349 33.748v457.134c-0.112 90.18-73.187 163.256-163.357 163.368h-375.461c-90.18-0.112-163.256-73.187-163.368-163.357v-185.866c-0.018-0.909-0.029-1.98-0.029-3.054 0-14.071 1.806-27.72 5.198-40.728l-0.248 1.119c18.65-70.893 82.173-122.329 157.71-122.329 0.086 0 0.172 0 0.259 0h433.402zM212.575 938.667h378.255c116.189-1.582 209.77-96.141 209.77-212.556 0-0.007 0-0.013 0-0.020v0.001-73.811h-306.068c-90.18-0.112-163.256-73.187-163.368-163.357v-165.347h-155.741l-175.423-172.963v575.477c0.14 117.345 95.229 212.435 212.561 212.575h0.013zM590.485 889.46h-377.911c-90.18-0.112-163.256-73.187-163.368-163.357v-457.637l106.041 104.319h126.708v116.129c0.14 117.345 95.229 212.435 212.561 212.575h256.875v24.604c-0.343 89.227-71.885 161.632-160.745 163.365l-0.163 0.003z" />
<glyph unicode="&#xe905;" glyph-name="add-message-thin" horiz-adv-x="1058" d="M710.938 478.62h-366.502v47.972h366.502zM551.672 319.355h-47.972v366.502h47.972zM207.237 938.667h643.298c114.399-0.136 207.101-92.838 207.237-207.224v-457.661c-0.136-114.399-92.838-207.101-207.224-207.237h-269.277l-306.394-151.878v151.878h-67.64c-114.399 0.136-207.101 92.838-207.237 207.224v457.661c0.136 114.399 92.838 207.101 207.224 207.237h0.013zM850.535 114.516c87.916 0.109 159.156 71.349 159.265 159.255v457.658c-0.109 87.916-71.349 159.156-159.255 159.265h-643.308c-87.916-0.109-159.156-71.349-159.265-159.255v-457.658c0.109-87.916 71.349-159.156 159.255-159.265h115.622v-122.519l247.197 122.519z" />
<glyph unicode="&#xe906;" glyph-name="arrow-down-line-chat-thin" horiz-adv-x="1058" d="M527.687 377.064l-177.207 177.159 33.916 33.916 143.291-143.243 143.243 143.243 33.916-33.916zM207.237 938.667h643.298c114.399-0.136 207.101-92.838 207.237-207.224v-457.661c-0.136-114.399-92.838-207.101-207.224-207.237h-269.277l-306.394-151.878v151.878h-67.64c-114.399 0.136-207.101 92.838-207.237 207.224v457.661c0.136 114.399 92.838 207.101 207.224 207.237h0.013zM850.535 114.516c87.916 0.109 159.156 71.349 159.265 159.255v457.658c-0.109 87.916-71.349 159.156-159.255 159.265h-643.308c-87.916-0.109-159.156-71.349-159.265-159.255v-457.658c0.109-87.916 71.349-159.156 159.255-159.265h115.622v-122.519l247.197 122.519zM551.672 410.98h-47.972v366.502h47.972zM710.938 249.796h-366.502v47.972h366.502z" />
<glyph unicode="&#xe907;" glyph-name="arrow-down-line-message-thin" horiz-adv-x="1061" d="M207.502 938.667h645.562c114.548-0.131 207.371-92.955 207.502-207.49v-461.128c-0.131-114.548-92.955-207.371-207.49-207.502h-174.914l-147.88-147.88-147.88 147.88h-174.901c-114.548 0.131-207.371 92.955-207.502 207.49v461.128c0.131 114.548 92.955 207.371 207.49 207.502h0.012zM853.064 108.658c89.134 0 161.391 72.257 161.391 161.391v0 461.116c0 89.134-72.257 161.391-161.391 161.391v0h-645.562c-89.134 0-161.391-72.257-161.391-161.391v0-461.116c0-89.134 72.257-161.391 161.391-161.391v0h193.991l128.79-128.79 128.79 128.79zM530.283 375.783l-177.714 177.668 32.601 32.601 145.113-145.067 145.067 145.067 32.601-32.601zM553.339 408.384h-46.112v368.893h46.112zM714.73 246.993h-368.893v46.112h368.893z" />
<glyph unicode="&#xe908;" glyph-name="arrow-left-chat-thin" horiz-adv-x="1058" d="M207.237 938.667h643.298c114.399-0.136 207.101-92.838 207.237-207.224v-457.661c-0.136-114.399-92.838-207.101-207.224-207.237h-269.277l-306.394-151.878v151.878h-67.64c-114.399 0.136-207.101 92.838-207.237 207.224v457.661c0.136 114.399 92.838 207.101 207.224 207.237h0.013zM850.535 114.516c87.916 0.109 159.156 71.349 159.265 159.255v457.658c-0.109 87.916-71.349 159.156-159.255 159.265h-643.308c-87.916-0.109-159.156-71.349-159.265-159.255v-457.658c0.109-87.916 71.349-159.156 159.255-159.265h115.622v-122.519l247.197 122.519zM596.286 295.369h-297.423v47.972h297.423c75.243 0 136.239 60.996 136.239 136.239v0c0.001 0.143 0.001 0.311 0.001 0.48 0 75.243-60.996 136.239-136.239 136.239 0 0-0.001 0-0.001 0h-205.798v47.972h205.798c101.869 0 184.45-82.581 184.45-184.45s-82.581-184.45-184.45-184.45v0zM510.705 485.624l-154.085 154.132 154.085 154.66 33.964-33.868-120.313-120.696 120.265-120.265z" />
<glyph unicode="&#xe909;" glyph-name="arrow-left-message-thin" horiz-adv-x="1060" d="M208.203 938.667h643.886c114.932-0.137 208.066-93.271 208.203-208.189v-459.794c-0.137-114.932-93.271-208.066-208.189-208.203h-174.142l-147.814-147.814-147.814 147.814h-174.129c-114.932 0.137-208.066 93.271-208.203 208.189v459.794c0.137 114.932 93.271 208.066 208.189 208.203h0.013zM852.088 110.676c88.326 0.11 159.898 71.682 160.008 159.997v459.792c-0.11 88.326-71.682 159.898-159.997 160.008h-643.896c-88.326-0.11-159.898-71.682-160.008-159.997v-459.792c0.11-88.326 71.682-159.898 159.997-160.008h194.092l127.861-127.861 127.861 127.861zM599.064 292.372h-298.809v48.195h298.809c75.593 0 136.874 61.281 136.874 136.874v0c0.001 0.143 0.001 0.313 0.001 0.482 0 75.593-61.281 136.874-136.874 136.874 0 0-0.001 0-0.001 0h-206.757v48.195h206.757c102.344 0 185.31-82.966 185.31-185.31s-82.966-185.31-185.31-185.31v0zM513.084 483.513l-154.802 154.851 154.802 155.381 34.122-34.026-120.873-121.259 120.825-120.825z" />
<glyph unicode="&#xe90a;" glyph-name="arrow-right-chat-thin" horiz-adv-x="1058" d="M756.511 295.369h-297.423c-101.869 0-184.45 82.581-184.45 184.45s82.581 184.45 184.45 184.45v0h205.798v-47.972h-205.798c0 0 0 0-0.001 0-75.243 0-136.239-60.996-136.239-136.239 0-0.135 0-0.27 0.001-0.405v0.021c0-0.029 0-0.062 0-0.096 0-75.243 60.996-136.239 136.239-136.239 0 0 0 0 0 0h297.423zM544.669 485.624l-33.916 33.916 120.265 120.265-120.313 120.744 33.964 33.868 154.085-154.66zM207.237 938.667h643.298c114.399-0.136 207.101-92.838 207.237-207.224v-457.661c-0.136-114.399-92.838-207.101-207.224-207.237h-269.277l-306.394-151.878v151.878h-67.64c-114.399 0.136-207.101 92.838-207.237 207.224v457.661c0.136 114.399 92.838 207.101 207.224 207.237h0.013zM850.535 114.516c87.916 0.109 159.156 71.349 159.265 159.255v457.658c-0.109 87.916-71.349 159.156-159.255 159.265h-643.308c-87.916-0.109-159.156-71.349-159.265-159.255v-457.658c0.109-87.916 71.349-159.156 159.255-159.265h115.622v-122.519l247.197 122.519z" />
<glyph unicode="&#xe90b;" glyph-name="arrow-right-message-thin" horiz-adv-x="1060" d="M208.203 938.667h643.886c114.932-0.137 208.066-93.271 208.203-208.189v-459.794c-0.137-114.932-93.271-208.066-208.189-208.203h-174.142l-147.814-147.814-147.814 147.814h-174.129c-114.932 0.137-208.066 93.271-208.203 208.189v459.794c0.137 114.932 93.271 208.066 208.189 208.203h0.013zM852.088 110.676c88.326 0.11 159.898 71.682 160.008 159.997v459.792c-0.11 88.326-71.682 159.898-159.997 160.008h-643.896c-88.326-0.11-159.898-71.682-160.008-159.997v-459.792c0.11-88.326 71.682-159.898 159.997-160.008h194.092l127.861-127.861 127.861 127.861zM760.036 292.372h-298.809c-102.344 0-185.31 82.966-185.31 185.31s82.966 185.31 185.31 185.31v0h206.757v-48.195h-206.757c0 0 0 0-0.001 0-75.593 0-136.874-61.281-136.874-136.874 0-0.136 0-0.271 0.001-0.407v0.021c0-0.029 0-0.063 0-0.096 0-75.593 61.281-136.874 136.874-136.874 0 0 0 0 0 0h298.809zM547.206 483.513l-34.074 34.074 120.825 120.825-120.873 121.307 34.122 34.026 154.802-155.381z" />
<glyph unicode="&#xe90c;" glyph-name="arrow-up-line-chat-thin" horiz-adv-x="1060" d="M208.203 938.667h643.886c114.932-0.137 208.066-93.271 208.203-208.189v-459.794c-0.137-114.932-93.271-208.066-208.189-208.203h-174.142l-147.814-147.814-147.814 147.814h-174.129c-114.932 0.137-208.066 93.271-208.203 208.189v459.794c0.137 114.932 93.271 208.066 208.189 208.203h0.013zM852.088 110.676c88.326 0.11 159.898 71.682 160.008 159.997v459.792c-0.11 88.326-71.682 159.898-159.997 160.008h-643.896c-88.326-0.11-159.898-71.682-160.008-159.997v-459.792c0.11-88.326 71.682-159.898 159.997-160.008h194.092l127.861-127.861 127.861 127.861zM674.056 552.48l-143.91 144.248-143.91-144.248-34.122 34.026 178.032 178.563 178.032-178.563zM554.243 362.736h-48.195v367.728h48.195zM714.25 246.586h-368.21v48.195h368.21z" />
<glyph unicode="&#xe90d;" glyph-name="arrow-up-line-message-thin" horiz-adv-x="1058" d="M670.93 554.271l-143.243 143.579-143.243-143.579-33.964 33.868 177.207 177.734 177.207-177.734zM551.672 365.407h-47.972v366.023h47.972zM710.938 249.796h-366.502v47.972h366.502zM207.237 938.667h643.298c114.399-0.136 207.101-92.838 207.237-207.224v-457.661c-0.136-114.399-92.838-207.101-207.224-207.237h-269.277l-306.394-151.878v151.878h-67.64c-114.399 0.136-207.101 92.838-207.237 207.224v457.661c0.136 114.399 92.838 207.101 207.224 207.237h0.013zM850.535 114.516c87.916 0.109 159.156 71.349 159.265 159.255v457.658c-0.109 87.916-71.349 159.156-159.255 159.265h-643.308c-87.916-0.109-159.156-71.349-159.265-159.255v-457.658c0.109-87.916 71.349-159.156 159.255-159.265h115.622v-122.519l247.197 122.519z" />
<glyph unicode="&#xe90e;" glyph-name="audio-chat-thin" horiz-adv-x="1058" d="M551.672 319.355h-47.972v366.502h47.972zM780.497 410.98h-47.972v183.251h47.972zM322.848 410.98h-47.972v183.251h47.972zM207.237 938.667h643.298c114.399-0.136 207.101-92.838 207.237-207.224v-457.661c-0.136-114.399-92.838-207.101-207.224-207.237h-269.277l-306.394-151.878v151.878h-67.64c-114.399 0.136-207.101 92.838-207.237 207.224v457.661c0.136 114.399 92.838 207.101 207.224 207.237h0.013zM850.535 114.516c87.916 0.109 159.156 71.349 159.265 159.255v457.658c-0.109 87.916-71.349 159.156-159.255 159.265h-643.308c-87.916-0.109-159.156-71.349-159.265-159.255v-457.658c0.109-87.916 71.349-159.156 159.255-159.265h115.622v-122.519l247.197 122.519z" />
<glyph unicode="&#xe90f;" glyph-name="audio-message-thin" horiz-adv-x="1060" d="M554.243 316.469h-48.195v368.21h48.195zM784.133 408.522h-48.195v184.105h48.195zM324.353 408.522h-48.195v184.105h48.195zM208.203 938.667h643.886c114.932-0.137 208.066-93.271 208.203-208.189v-459.794c-0.137-114.932-93.271-208.066-208.189-208.203h-174.142l-147.814-147.814-147.814 147.814h-174.129c-114.932 0.137-208.066 93.271-208.203 208.189v459.794c0.137 114.932 93.271 208.066 208.189 208.203h0.013zM852.088 110.676c88.326 0.11 159.898 71.682 160.008 159.997v459.792c-0.11 88.326-71.682 159.898-159.997 160.008h-643.896c-88.326-0.11-159.898-71.682-160.008-159.997v-459.792c0.11-88.326 71.682-159.898 159.997-160.008h194.092l127.861-127.861 127.861 127.861z" />
<glyph unicode="&#xe910;" glyph-name="block-chat-thin" horiz-adv-x="1060" d="M530.145 754.562c140.274 0 253.988-113.714 253.988-253.988s-113.714-253.988-253.988-253.988c-140.274 0-253.988 113.714-253.988 253.988v0c0.164 140.207 113.78 253.823 253.972 253.988h0.016zM530.145 294.781c113.656 0 205.793 92.137 205.793 205.793s-92.137 205.793-205.793 205.793c-113.656 0-205.793-92.137-205.793-205.793v0c0.137-113.601 92.192-205.656 205.78-205.793h0.013zM384.259 321.289l-34.026 33.737 325.798 325.317 34.074-34.122zM208.203 938.667h643.886c114.932-0.137 208.066-93.271 208.203-208.189v-459.794c-0.137-114.932-93.271-208.066-208.189-208.203h-174.142l-147.814-147.814-147.814 147.814h-174.129c-114.932 0.137-208.066 93.271-208.203 208.189v459.794c0.137 114.932 93.271 208.066 208.189 208.203h0.013zM852.088 110.676c88.326 0.11 159.898 71.682 160.008 159.997v459.792c-0.11 88.326-71.682 159.898-159.997 160.008h-643.896c-88.326-0.11-159.898-71.682-160.008-159.997v-459.792c0.11-88.326 71.682-159.898 159.997-160.008h194.092l127.861-127.861 127.861 127.861z" />
<glyph unicode="&#xe911;" glyph-name="block-message-thin" horiz-adv-x="1058" d="M527.687 755.416c139.623 0 252.81-113.187 252.81-252.81s-113.187-252.81-252.81-252.81c-139.623 0-252.81 113.187-252.81 252.81v0c0.164 139.557 113.253 252.646 252.794 252.81h0.016zM527.687 297.768c113.129 0 204.838 91.709 204.838 204.838s-91.709 204.838-204.838 204.838c-113.129 0-204.838-91.709-204.838-204.838v0c0.136-113.074 91.764-204.702 204.826-204.838h0.013zM382.477 324.152l-33.868 33.58 324.287 323.808 33.916-33.964zM207.237 938.667h643.298c114.399-0.136 207.101-92.838 207.237-207.224v-457.661c-0.136-114.399-92.838-207.101-207.224-207.237h-269.277l-306.394-151.878v151.878h-67.64c-114.399 0.136-207.101 92.838-207.237 207.224v457.661c0.136 114.399 92.838 207.101 207.224 207.237h0.013zM850.535 114.516c87.916 0.109 159.156 71.349 159.265 159.255v457.658c-0.109 87.916-71.349 159.156-159.255 159.265h-643.308c-87.916-0.109-159.156-71.349-159.265-159.255v-457.658c0.109-87.916 71.349-159.156 159.255-159.265h115.622v-122.519l247.197 122.519z" />
<glyph unicode="&#xe912;" glyph-name="chat-lines-thin" horiz-adv-x="1056" d="M755.2 595.627h-486.4v51.2h486.4zM755.2 401.067h-486.4v51.2h486.4zM755.2 206.507h-486.4v51.2h486.4zM512 938.667c282.641-0.32 511.68-229.359 512-511.969v-0.031c0.002-0.579 0.004-1.265 0.004-1.951 0-128.801-48.172-246.35-127.482-335.615l0.451 0.517 159.386-174.95h-544.358c-282.77 0-512 229.23-512 512s229.23 512 512 512v0zM940.442-34.133l-113.357 124.467 16.742 17.254c79.774 81.855 128.976 193.836 128.976 317.308 0 0.623-0.001 1.245-0.004 1.867v-0.097c0 254.493-206.307 460.8-460.8 460.8s-460.8-206.307-460.8-460.8c0-254.493 206.307-460.8 460.8-460.8v0z" />
<glyph unicode="&#xe913;" glyph-name="chats-dots-thin" horiz-adv-x="1060" d="M670.97 754.536c0.152 0 0.331 0.001 0.51 0.001 56.62 0 107.918-22.788 145.222-59.693l-0.018 0.018c38.185-37.783 61.879-90.148 62.036-148.046v-276.227c-0.137-114.948-93.284-208.095-208.219-208.232h-82.438l-150.293-147.69-147.449 147.69h-82.088c-114.948 0.137-208.095 93.284-208.232 208.219v276.21c0 114.737 93.013 207.75 207.75 207.75v0h463.22zM670.488 110.559c88.338 0.11 159.92 71.692 160.030 160.020v276.208c-0.12 44.481-18.309 84.691-47.61 113.695l-0.013 0.013c-28.631 28.35-68.036 45.866-111.531 45.866-1.020 0-2.037-0.010-3.052-0.029l0.152 0.002h-460.713c-88.116 0-159.548-71.432-159.548-159.548v0-276.197c0.11-88.338 71.692-159.92 160.020-160.030h102.054l128.024-128.024 130.145 128.024zM852.209 246.488v48.202c0.001 0 0.002 0 0.003 0 88.382 0 160.030 71.648 160.030 160.030 0 0.339-0.001 0.678-0.003 1.016v-0.052 274.751c0 88.382-71.648 160.030-160.030 160.030v0h-459.846c-88.382 0-160.030-71.648-160.030-160.030v0h-48.202c0 115.003 93.229 208.232 208.232 208.232v0h459.846c115.003 0 208.232-93.229 208.232-208.232v-274.751c0.001-0.286 0.002-0.625 0.002-0.964 0-115.003-93.229-208.232-208.232-208.232-0.001 0-0.002 0-0.002 0v0zM300.298 384.346h-92.066v48.202h92.066zM484.429 384.346h-92.066v48.202h92.066zM668.078 384.346h-92.066v48.202h92.066z" />
<glyph unicode="&#xe914;" glyph-name="chats-lines-thin" horiz-adv-x="1060" d="M670.97 754.536c0.152 0 0.331 0.001 0.51 0.001 56.62 0 107.918-22.788 145.222-59.693l-0.018 0.018c38.185-37.783 61.879-90.148 62.036-148.046v-276.227c-0.137-114.948-93.284-208.095-208.219-208.232h-82.438l-150.293-147.69-147.449 147.69h-82.088c-114.948 0.137-208.095 93.284-208.232 208.219v276.21c0 114.737 93.013 207.75 207.75 207.75v0h463.22zM670.488 110.559c88.338 0.11 159.92 71.692 160.030 160.020v276.208c-0.12 44.481-18.309 84.691-47.61 113.695l-0.013 0.013c-28.631 28.35-68.036 45.866-111.531 45.866-1.020 0-2.037-0.010-3.052-0.029l0.152 0.002h-460.713c-88.116 0-159.548-71.432-159.548-159.548v0-276.197c0.11-88.338 71.692-159.92 160.020-160.030h102.054l128.024-128.024 130.145 128.024zM852.209 246.488v48.202c0.001 0 0.002 0 0.003 0 88.382 0 160.030 71.648 160.030 160.030 0 0.339-0.001 0.678-0.003 1.016v-0.052 274.751c0 88.382-71.648 160.030-160.030 160.030v0h-459.846c-88.382 0-160.030-71.648-160.030-160.030v0h-48.202c0 115.003 93.229 208.232 208.232 208.232v0h459.846c115.003 0 208.232-93.229 208.232-208.232v-274.751c0.001-0.286 0.002-0.625 0.002-0.964 0-115.003-93.229-208.232-208.232-208.232-0.001 0-0.002 0-0.002 0v0zM668.078 476.411h-459.846v48.202h459.846zM668.078 292.28h-459.846v48.202h459.846z" />
<glyph unicode="&#xe915;" glyph-name="chats-thin" horiz-adv-x="1083" d="M494.531 703.457h375.45c117.345-0.14 212.435-95.229 212.575-212.561v-576.228l-175.571 176.161h-412.946c-0.005 0-0.011 0-0.017 0-117.13 0-212.083 94.953-212.083 212.083 0 0.934 0.006 1.867 0.018 2.799l-0.001-0.141v185.314c0.14 117.345 95.229 212.435 212.561 212.575h0.013zM1033.349 33.748v457.134c-0.112 90.18-73.187 163.256-163.357 163.368h-375.461c-90.18-0.112-163.256-73.187-163.368-163.357v-185.866c-0.018-0.909-0.029-1.98-0.029-3.054 0-14.071 1.806-27.72 5.198-40.728l-0.248 1.119c18.65-70.893 82.173-122.329 157.71-122.329 0.086 0 0.172 0 0.259 0h433.402zM212.575 938.667h378.255c116.189-1.582 209.77-96.141 209.77-212.556 0-0.007 0-0.013 0-0.020v0.001-73.811h-306.068c-90.18-0.112-163.256-73.187-163.368-163.357v-165.347h-155.741l-175.423-172.963v575.477c0.14 117.345 95.229 212.435 212.561 212.575h0.013zM590.485 889.46h-377.911c-90.18-0.112-163.256-73.187-163.368-163.357v-457.637l106.041 104.319h126.708v116.129c0.14 117.345 95.229 212.435 212.561 212.575h256.875v24.604c-0.343 89.227-71.885 161.632-160.745 163.365l-0.163 0.003z" />
<glyph unicode="&#xe916;" glyph-name="check-chat-thin" horiz-adv-x="1058" d="M481.634 331.492l-154.18 154.132 33.916 33.916 120.265-120.265 257.895 257.463 33.868-33.964zM207.237 938.667h643.298c114.399-0.136 207.101-92.838 207.237-207.224v-457.661c-0.136-114.399-92.838-207.101-207.224-207.237h-269.277l-306.394-151.878v151.878h-67.64c-114.399 0.136-207.101 92.838-207.237 207.224v457.661c0.136 114.399 92.838 207.101 207.224 207.237h0.013zM850.535 114.516c87.916 0.109 159.156 71.349 159.265 159.255v457.658c-0.109 87.916-71.349 159.156-159.255 159.265h-643.308c-87.916-0.109-159.156-71.349-159.265-159.255v-457.658c0.109-87.916 71.349-159.156 159.255-159.265h115.622v-122.519l247.197 122.519z" />
<glyph unicode="&#xe917;" glyph-name="check-comment-thin" horiz-adv-x="1060" d="M483.83 328.662l-200.636 201.166 34.122 34.026 166.61-167.044 305.364 304.737 34.074-34.122zM208.203 938.667h643.886c114.932-0.137 208.066-93.271 208.203-208.189v-459.794c-0.137-114.932-93.271-208.066-208.189-208.203h-174.142l-147.814-147.814-147.814 147.814h-174.129c-114.932 0.137-208.066 93.271-208.203 208.189v459.794c0.137 114.932 93.271 208.066 208.189 208.203h0.013zM852.088 110.676c88.326 0.11 159.898 71.682 160.008 159.997v459.792c-0.11 88.326-71.682 159.898-159.997 160.008h-643.896c-88.326-0.11-159.898-71.682-160.008-159.997v-459.792c0.11-88.326 71.682-159.898 159.997-160.008h194.092l127.861-127.861 127.861 127.861z" />
<glyph unicode="&#xe918;" glyph-name="check-messages-thin" horiz-adv-x="1083" d="M635.313 268.663l-111.405 110.814 34.691 34.888 76.566-76.173 170.601 170.601 34.789-34.789zM494.531 703.457h375.45c117.345-0.14 212.435-95.229 212.575-212.561v-576.228l-175.571 176.161h-412.946c-0.005 0-0.011 0-0.017 0-117.13 0-212.083 94.953-212.083 212.083 0 0.934 0.006 1.867 0.018 2.799l-0.001-0.141v185.314c0.14 117.345 95.229 212.435 212.561 212.575h0.013zM1033.349 33.748v457.134c-0.112 90.18-73.187 163.256-163.357 163.368h-375.461c-90.18-0.112-163.256-73.187-163.368-163.357v-185.866c-0.018-0.909-0.029-1.98-0.029-3.054 0-14.071 1.806-27.72 5.198-40.728l-0.248 1.119c18.65-70.893 82.173-122.329 157.71-122.329 0.086 0 0.172 0 0.259 0h433.402zM212.575 938.667h378.255c116.189-1.582 209.77-96.141 209.77-212.556 0-0.007 0-0.013 0-0.020v0.001-73.811h-306.068c-90.18-0.112-163.256-73.187-163.368-163.357v-165.347h-155.741l-175.423-172.963v575.477c0.14 117.345 95.229 212.435 212.561 212.575h0.013zM590.485 889.46h-377.911c-90.18-0.112-163.256-73.187-163.368-163.357v-457.637l106.041 104.319h126.708v116.129c0.14 117.345 95.229 212.435 212.561 212.575h256.875v24.604c-0.343 89.227-71.885 161.632-160.745 163.365l-0.163 0.003z" />
<glyph unicode="&#xe919;" glyph-name="check-message-thin" horiz-adv-x="1056" d="M512 938.667c282.641-0.32 511.68-229.359 512-511.969v-0.031c0.002-0.579 0.004-1.265 0.004-1.951 0-128.801-48.172-246.35-127.482-335.615l0.451 0.517 159.386-174.95h-544.358c-282.77 0-512 229.23-512 512s229.23 512 512 512v0zM940.442-34.133l-113.357 124.467 16.742 17.254c79.774 81.855 128.976 193.836 128.976 317.308 0 0.623-0.001 1.245-0.004 1.867v-0.097c0 254.493-206.307 460.8-460.8 460.8s-460.8-206.307-460.8-460.8c0-254.493 206.307-460.8 460.8-460.8v0zM463.36 293.189l-163.84 163.84 36.198 36.198 128-128 225.28 225.28 36.198-36.198z" />
<glyph unicode="&#xe91a;" glyph-name="comment-blank-thin" horiz-adv-x="1058" d="M207.237 938.667h643.298c114.399-0.136 207.101-92.838 207.237-207.224v-457.661c-0.136-114.399-92.838-207.101-207.224-207.237h-269.277l-306.394-151.878v151.878h-67.64c-114.399 0.136-207.101 92.838-207.237 207.224v457.661c0.136 114.399 92.838 207.101 207.224 207.237h0.013zM850.535 114.516c87.916 0.109 159.156 71.349 159.265 159.255v457.658c-0.109 87.916-71.349 159.156-159.255 159.265h-643.308c-87.916-0.109-159.156-71.349-159.265-159.255v-457.658c0.109-87.916 71.349-159.156 159.255-159.265h115.622v-122.519l247.197 122.519z" />
<glyph unicode="&#xe91b;" glyph-name="comment-dots-thin" horiz-adv-x="1058" d="M207.237 938.667h643.298c114.399-0.136 207.101-92.838 207.237-207.224v-457.661c-0.136-114.399-92.838-207.101-207.224-207.237h-269.277l-306.394-151.878v151.878h-67.64c-114.399 0.136-207.101 92.838-207.237 207.224v457.661c0.136 114.399 92.838 207.101 207.224 207.237h0.013zM850.535 114.516c87.916 0.109 159.156 71.349 159.265 159.255v457.658c-0.109 87.916-71.349 159.156-159.255 159.265h-643.308c-87.916-0.109-159.156-71.349-159.265-159.255v-457.658c0.109-87.916 71.349-159.156 159.255-159.265h115.622v-122.519l247.197 122.519zM802.563 478.62h-91.626v47.972h91.626zM573.26 478.62h-91.146v47.972h91.146zM344.435 478.62h-91.626v47.972h91.626z" />
<glyph unicode="&#xe91c;" glyph-name="comment-thin" horiz-adv-x="1056" d="M512 938.667c282.641-0.32 511.68-229.359 512-511.969v-0.031c0.002-0.579 0.004-1.265 0.004-1.951 0-128.801-48.172-246.35-127.482-335.615l0.451 0.517 159.386-174.95h-544.358c-282.77 0-512 229.23-512 512s229.23 512 512 512v0zM940.442-34.133l-113.357 124.467 16.742 17.254c79.774 81.855 128.976 193.836 128.976 317.308 0 0.623-0.001 1.245-0.004 1.867v-0.097c0 254.493-206.307 460.8-460.8 460.8s-460.8-206.307-460.8-460.8c0-254.493 206.307-460.8 460.8-460.8v0z" />
<glyph unicode="&#xe91d;" glyph-name="dollar-chat-thin" horiz-adv-x="1058" d="M550.713 341.422h-160.225v47.972h160.225c24.639 0 44.614 19.974 44.614 44.614s-19.974 44.614-44.614 44.614h-47.972c-51.111 0.055-92.53 41.474-92.585 92.58v0.005c0 0.005 0 0.010 0 0.015 0 51.398 41.667 93.065 93.065 93.065 0.59 0 1.18-0.005 1.767-0.016l-0.088 0.001h159.985v-47.972h-160.705c-0.286 0.007-0.622 0.010-0.959 0.010-24.904 0-45.093-20.189-45.093-45.093 0-0.004 0-0.007 0-0.011v0.001c0-24.639 19.974-44.614 44.614-44.614v0h47.972c51.133 0 92.585-41.452 92.585-92.585s-41.452-92.585-92.585-92.585v0zM551.672 640.284h-47.972v91.146h47.972zM551.672 273.782h-47.972v91.626h47.972zM207.237 938.667h643.298c114.399-0.136 207.101-92.838 207.237-207.224v-457.661c-0.136-114.399-92.838-207.101-207.224-207.237h-269.277l-306.394-151.878v151.878h-67.64c-114.399 0.136-207.101 92.838-207.237 207.224v457.661c0.136 114.399 92.838 207.101 207.224 207.237h0.013zM850.535 114.516c87.916 0.109 159.156 71.349 159.265 159.255v457.658c-0.109 87.916-71.349 159.156-159.255 159.265h-643.308c-87.916-0.109-159.156-71.349-159.265-159.255v-457.658c0.109-87.916 71.349-159.156 159.255-159.265h115.622v-122.519l247.197 122.519z" />
<glyph unicode="&#xe91e;" glyph-name="dollar-message-thin" horiz-adv-x="1060" d="M208.203 938.667h643.886c114.932-0.137 208.066-93.271 208.203-208.189v-459.794c-0.137-114.932-93.271-208.066-208.189-208.203h-174.142l-147.814-147.814-147.814 147.814h-174.129c-114.932 0.137-208.066 93.271-208.203 208.189v459.794c0.137 114.932 93.271 208.066 208.189 208.203h0.013zM852.088 110.676c88.326 0.11 159.898 71.682 160.008 159.997v459.792c-0.11 88.326-71.682 159.898-159.997 160.008h-643.896c-88.326-0.11-159.898-71.682-160.008-159.997v-459.792c0.11-88.326 71.682-159.898 159.997-160.008h194.092l127.861-127.861 127.861 127.861zM553.279 338.639h-160.971v48.195h160.971c24.754 0 44.821 20.067 44.821 44.821s-20.067 44.821-44.821 44.821h-48.195c-51.349 0.055-92.962 41.667-93.016 93.011v0.005c0 28.098 13.591 93.498 139.284 93.498h114.704v-48.195h-114.704c-34.026 0-91.089-5.88-91.089-45.303 0-24.754 20.067-44.821 44.821-44.821v0h48.195c51.372 0 93.016-41.645 93.016-93.016s-41.645-93.016-93.016-93.016v0zM554.243 638.894h-48.195v91.571h48.195zM554.243 270.684h-48.195v92.053h48.195z" />
<glyph unicode="&#xe91f;" glyph-name="dots-comment-thin" horiz-adv-x="1056" d="M512 938.667c282.641-0.32 511.68-229.359 512-511.969v-0.031c0.002-0.579 0.004-1.265 0.004-1.951 0-128.801-48.172-246.35-127.482-335.615l0.451 0.517 159.386-174.95h-544.358c-282.77 0-512 229.23-512 512s229.23 512 512 512v0zM940.442-34.133l-113.357 124.467 16.742 17.254c79.774 81.855 128.976 193.836 128.976 317.308 0 0.623-0.001 1.245-0.004 1.867v-0.097c0 254.493-206.307 460.8-460.8 460.8s-460.8-206.307-460.8-460.8c0-254.493 206.307-460.8 460.8-460.8v0zM755.2 401.067h-97.28v51.2h97.28zM560.64 401.067h-97.28v51.2h97.28zM366.080 401.067h-97.28v51.2h97.28z" />
<glyph unicode="&#xe920;" glyph-name="exclamation-chat-thin" horiz-adv-x="1058" d="M551.672 410.98h-47.972v320.45h47.972zM207.237 938.667h643.298c114.399-0.136 207.101-92.838 207.237-207.224v-457.661c-0.136-114.399-92.838-207.101-207.224-207.237h-269.277l-306.394-151.878v151.878h-67.64c-114.399 0.136-207.101 92.838-207.237 207.224v457.661c0.136 114.399 92.838 207.101 207.224 207.237h0.013zM850.535 114.516c87.916 0.109 159.156 71.349 159.265 159.255v457.658c-0.109 87.916-71.349 159.156-159.255 159.265h-643.308c-87.916-0.109-159.156-71.349-159.265-159.255v-457.658c0.109-87.916 71.349-159.156 159.255-159.265h115.622v-122.519l247.197 122.519zM573.26 295.369h-91.146v47.972h91.146z" />
<glyph unicode="&#xe921;" glyph-name="exclamation-message-thin" horiz-adv-x="1060" d="M554.243 408.522h-48.195v321.943h48.195zM208.203 938.667h643.886c114.932-0.137 208.066-93.271 208.203-208.189v-459.794c-0.137-114.932-93.271-208.066-208.189-208.203h-174.142l-147.814-147.814-147.814 147.814h-174.129c-114.932 0.137-208.066 93.271-208.203 208.189v459.794c0.137 114.932 93.271 208.066 208.189 208.203h0.013zM852.088 110.676c88.326 0.11 159.898 71.682 160.008 159.997v459.792c-0.11 88.326-71.682 159.898-159.997 160.008h-643.896c-88.326-0.11-159.898-71.682-160.008-159.997v-459.792c0.11-88.326 71.682-159.898 159.997-160.008h194.092l127.861-127.861 127.861 127.861zM575.931 292.372h-91.571v48.195h91.571z" />
<glyph unicode="&#xe922;" glyph-name="graph-chat-thin" horiz-adv-x="1058" d="M292.626 393.998l-33.58 33.964 200.041 200.185 137.199-137.199 166.461 165.838 33.868-33.964-200.329-199.705-137.199 137.199zM207.237 938.667h643.298c114.399-0.136 207.101-92.838 207.237-207.224v-457.661c-0.136-114.399-92.838-207.101-207.224-207.237h-269.277l-306.394-151.878v151.878h-67.64c-114.399 0.136-207.101 92.838-207.237 207.224v457.661c0.136 114.399 92.838 207.101 207.224 207.237h0.013zM850.535 114.516c87.916 0.109 159.156 71.349 159.265 159.255v457.658c-0.109 87.916-71.349 159.156-159.255 159.265h-643.308c-87.916-0.109-159.156-71.349-159.265-159.255v-457.658c0.109-87.916 71.349-159.156 159.255-159.265h115.622v-122.519l247.197 122.519z" />
<glyph unicode="&#xe923;" glyph-name="graph-message-thin" horiz-adv-x="1060" d="M247.915 299.408l-34.074 34.074 247.433 247.578 137.838-138.32 212.829 212.829 34.074-34.074-246.951-246.951-137.838 138.32zM208.203 938.667h643.886c114.932-0.137 208.066-93.271 208.203-208.189v-459.794c-0.137-114.932-93.271-208.066-208.189-208.203h-174.142l-147.814-147.814-147.814 147.814h-174.129c-114.932 0.137-208.066 93.271-208.203 208.189v459.794c0.137 114.932 93.271 208.066 208.189 208.203h0.013zM852.088 110.676c88.326 0.11 159.898 71.682 160.008 159.997v459.792c-0.11 88.326-71.682 159.898-159.997 160.008h-643.896c-88.326-0.11-159.898-71.682-160.008-159.997v-459.792c0.11-88.326 71.682-159.898 159.997-160.008h194.092l127.861-127.861 127.861 127.861z" />
<glyph unicode="&#xe924;" glyph-name="heart-chats-thin" horiz-adv-x="1083" d="M823.235 408.214c0.036 0.896 0.057 1.948 0.057 3.005 0 43.007-34.058 78.060-76.674 79.659l-0.146 0.004c-27.247-0.32-51.024-14.879-64.271-36.57l-0.19-0.335c-13.218 22.025-36.858 36.607-63.926 36.905h-0.043c-42.762-1.603-76.82-36.656-76.82-79.663 0-1.057 0.021-2.109 0.061-3.156l-0.005 0.151c0-98.414 140.732-152.050 140.732-152.050s141.224 55.112 141.224 152.050zM494.531 703.457h375.45c117.345-0.14 212.435-95.229 212.575-212.561v-576.228l-175.571 176.161h-412.946c-0.005 0-0.011 0-0.017 0-117.13 0-212.083 94.953-212.083 212.083 0 0.934 0.006 1.867 0.018 2.799l-0.001-0.141v185.314c0.14 117.345 95.229 212.435 212.561 212.575h0.013zM1033.349 33.748v457.134c-0.112 90.18-73.187 163.256-163.357 163.368h-375.461c-90.18-0.112-163.256-73.187-163.368-163.357v-185.866c-0.018-0.909-0.029-1.98-0.029-3.054 0-14.071 1.806-27.72 5.198-40.728l-0.248 1.119c18.65-70.893 82.173-122.329 157.71-122.329 0.086 0 0.172 0 0.259 0h433.402zM212.575 938.667h378.255c116.189-1.582 209.77-96.141 209.77-212.556 0-0.007 0-0.013 0-0.020v0.001-73.811h-306.068c-90.18-0.112-163.256-73.187-163.368-163.357v-165.347h-155.741l-175.423-172.963v575.477c0.14 117.345 95.229 212.435 212.561 212.575h0.013zM590.485 889.46h-377.911c-90.18-0.112-163.256-73.187-163.368-163.357v-457.637l106.041 104.319h126.708v116.129c0.14 117.345 95.229 212.435 212.561 212.575h256.875v24.604c-0.343 89.227-71.885 161.632-160.745 163.365l-0.163 0.003z" />
<glyph unicode="&#xe925;" glyph-name="heart-chat-thin" horiz-adv-x="1058" d="M207.237 938.667h643.298c114.399-0.136 207.101-92.838 207.237-207.224v-457.661c-0.136-114.399-92.838-207.101-207.224-207.237h-269.277l-306.394-151.878v151.878h-67.64c-114.399 0.136-207.101 92.838-207.237 207.224v457.661c0.136 114.399 92.838 207.101 207.224 207.237h0.013zM850.535 114.516c87.916 0.109 159.156 71.349 159.265 159.255v457.658c-0.109 87.916-71.349 159.156-159.255 159.265h-643.308c-87.916-0.109-159.156-71.349-159.265-159.255v-457.658c0.109-87.916 71.349-159.156 159.255-159.265h115.622v-122.519l247.197 122.519zM740.68 527.071c0 0.007 0 0.016 0 0.024 0 62.526-50.687 113.213-113.213 113.213-39.314 0-73.948-20.039-94.245-50.461l-0.259-0.413c-20.416 31.056-55.1 51.275-94.508 51.275-62.261 0-112.733-50.472-112.733-112.733 0-0.318 0.001-0.636 0.004-0.954v0.049c0-131.922 207.237-207.717 207.237-207.717s207.717 75.795 207.717 207.717z" />
<glyph unicode="&#xe926;" glyph-name="heart-comment-thin" horiz-adv-x="1060" d="M744.131 525.154c0 0.007 0 0.016 0 0.024 0 62.817-50.923 113.74-113.74 113.74-39.498 0-74.293-20.133-94.684-50.696l-0.261-0.415c-20.511 31.2-55.357 51.514-94.948 51.514-62.551 0-113.258-50.707-113.258-113.258 0-0.32 0.001-0.639 0.004-0.958v0.049c0-132.536 208.203-208.685 208.203-208.685s208.685 76.148 208.685 208.685zM208.203 938.667h643.886c114.932-0.137 208.066-93.271 208.203-208.189v-459.794c-0.137-114.932-93.271-208.066-208.189-208.203h-174.142l-147.814-147.814-147.814 147.814h-174.129c-114.932 0.137-208.066 93.271-208.203 208.189v459.794c0.137 114.932 93.271 208.066 208.189 208.203h0.013zM852.088 110.676c88.326 0.11 159.898 71.682 160.008 159.997v459.792c-0.11 88.326-71.682 159.898-159.997 160.008h-643.896c-88.326-0.11-159.898-71.682-160.008-159.997v-459.792c0.11-88.326 71.682-159.898 159.997-160.008h194.092l127.861-127.861 127.861 127.861z" />
<glyph unicode="&#xe927;" glyph-name="heart-message-thin" horiz-adv-x="1056" d="M692.736 473.259c0.001 0.152 0.001 0.332 0.001 0.512 0 54.575-44.241 98.816-98.816 98.816 0 0-0.001 0-0.001 0v0c-0.332 0.004-0.723 0.006-1.115 0.006-33.622 0-63.238-17.147-80.583-43.172l-0.222-0.354c-17.476 26.96-47.418 44.545-81.467 44.545-0.159 0-0.319 0-0.478-0.001h0.025c0 0-0.001 0-0.001 0-54.575 0-98.816-44.241-98.816-98.816 0-0.18 0-0.36 0.001-0.54v0.028c0-115.712 180.736-181.76 180.736-181.76s180.736 65.024 180.736 180.736zM512 938.667c282.641-0.32 511.68-229.359 512-511.969v-0.031c0.002-0.579 0.004-1.265 0.004-1.951 0-128.801-48.172-246.35-127.482-335.615l0.451 0.517 159.386-174.95h-544.358c-282.77 0-512 229.23-512 512s229.23 512 512 512v0zM940.442-34.133l-113.357 124.467 16.742 17.254c79.774 81.855 128.976 193.836 128.976 317.308 0 0.623-0.001 1.245-0.004 1.867v-0.097c0 254.493-206.307 460.8-460.8 460.8s-460.8-206.307-460.8-460.8c0-254.493 206.307-460.8 460.8-460.8v0z" />
<glyph unicode="&#xe928;" glyph-name="image-chat-thin" horiz-adv-x="1060" d="M208.203 938.667h643.886c114.932-0.137 208.066-93.271 208.203-208.189v-459.794c-0.137-114.932-93.271-208.066-208.189-208.203h-174.142l-147.814-147.814-147.814 147.814h-174.129c-114.932 0.137-208.066 93.271-208.203 208.189v459.794c0.137 114.932 93.271 208.066 208.189 208.203h0.013zM852.088 110.676c88.326 0.11 159.898 71.682 160.008 159.997v459.792c-0.11 88.326-71.682 159.898-159.997 160.008h-643.896c-88.326-0.11-159.898-71.682-160.008-159.997v-459.792c0.11-88.326 71.682-159.898 159.997-160.008h194.092l127.861-127.861 127.861 127.861zM806.303 316.469h-355.197l38.556 60.726 138.802 215.432zM489.662 377.195l-38.556-60.726h-197.118l138.32 207.239zM483.878 661.546c0-38.063-30.856-68.919-68.919-68.919s-68.919 30.856-68.919 68.919c0 38.063 30.856 68.919 68.919 68.919s68.919-30.856 68.919-68.919z" />
<glyph unicode="&#xe929;" glyph-name="image-message-thin" horiz-adv-x="1058" d="M802.563 319.355h-353.55l38.377 60.444 138.158 214.433zM487.391 379.799l-38.377-60.444h-196.203l137.678 206.278zM481.634 662.831c0-37.886-30.713-68.599-68.599-68.599s-68.599 30.713-68.599 68.599c0 37.886 30.713 68.599 68.599 68.599s68.599-30.713 68.599-68.599zM207.237 938.667h643.298c114.399-0.136 207.101-92.838 207.237-207.224v-457.661c-0.136-114.399-92.838-207.101-207.224-207.237h-269.277l-306.394-151.878v151.878h-67.64c-114.399 0.136-207.101 92.838-207.237 207.224v457.661c0.136 114.399 92.838 207.101 207.224 207.237h0.013zM850.535 114.516c87.916 0.109 159.156 71.349 159.265 159.255v457.658c-0.109 87.916-71.349 159.156-159.255 159.265h-643.308c-87.916-0.109-159.156-71.349-159.265-159.255v-457.658c0.109-87.916 71.349-159.156 159.255-159.265h115.622v-122.519l247.197 122.519z" />
<glyph unicode="&#xe92a;" glyph-name="info-chat-thin" horiz-adv-x="1060" d="M208.203 938.667h643.886c114.932-0.137 208.066-93.271 208.203-208.189v-459.794c-0.137-114.932-93.271-208.066-208.189-208.203h-174.142l-147.814-147.814-147.814 147.814h-174.129c-114.932 0.137-208.066 93.271-208.203 208.189v459.794c0.137 114.932 93.271 208.066 208.189 208.203h0.013zM852.088 110.676c88.326 0.11 159.898 71.682 160.008 159.997v459.792c-0.11 88.326-71.682 159.898-159.997 160.008h-643.896c-88.326-0.11-159.898-71.682-160.008-159.997v-459.792c0.11-88.326 71.682-159.898 159.997-160.008h194.092l127.861-127.861 127.861 127.861zM622.198 292.372h-184.105v48.195h184.105zM554.243 316.469h-48.195v252.060h-67.955v48.195h116.15zM575.931 706.367h-91.571v48.195h91.571z" />
<glyph unicode="&#xe92b;" glyph-name="info-message-thin" horiz-adv-x="1058" d="M619.312 295.369h-183.251v47.972h183.251zM551.672 319.355h-47.972v250.891h-67.64v47.972h115.611zM207.237 938.667h643.298c114.399-0.136 207.101-92.838 207.237-207.224v-457.661c-0.136-114.399-92.838-207.101-207.224-207.237h-269.277l-306.394-151.878v151.878h-67.64c-114.399 0.136-207.101 92.838-207.237 207.224v457.661c0.136 114.399 92.838 207.101 207.224 207.237h0.013zM850.535 114.516c87.916 0.109 159.156 71.349 159.265 159.255v457.658c-0.109 87.916-71.349 159.156-159.255 159.265h-643.308c-87.916-0.109-159.156-71.349-159.265-159.255v-457.658c0.109-87.916 71.349-159.156 159.255-159.265h115.622v-122.519l247.197 122.519zM573.26 707.444h-91.146v47.972h91.146z" />
<glyph unicode="&#xe92c;" glyph-name="list-chat-thin" horiz-adv-x="1060" d="M208.203 938.667h643.886c114.932-0.137 208.066-93.271 208.203-208.189v-459.794c-0.137-114.932-93.271-208.066-208.189-208.203h-174.142l-147.814-147.814-147.814 147.814h-174.129c-114.932 0.137-208.066 93.271-208.203 208.189v459.794c0.137 114.932 93.271 208.066 208.189 208.203h0.013zM852.088 110.676c88.326 0.11 159.898 71.682 160.008 159.997v459.792c-0.11 88.326-71.682 159.898-159.997 160.008h-643.896c-88.326-0.11-159.898-71.682-160.008-159.997v-459.792c0.11-88.326 71.682-159.898 159.997-160.008h194.092l127.861-127.861 127.861 127.861zM806.303 660.582h-368.21v48.195h368.21zM806.303 476.477h-368.21v48.195h368.21zM806.303 292.372h-368.21v48.195h368.21zM346.040 660.582h-92.053v48.195h92.053zM346.040 476.477h-92.053v48.195h92.053zM346.040 292.372h-92.053v48.195h92.053z" />
<glyph unicode="&#xe92d;" glyph-name="list-message-thin" horiz-adv-x="1058" d="M802.563 661.871h-366.502v47.972h366.502zM802.563 478.62h-366.502v47.972h366.502zM802.563 295.369h-366.502v47.972h366.502zM344.435 661.871h-91.626v47.972h91.626zM344.435 478.62h-91.626v47.972h91.626zM344.435 295.369h-91.626v47.972h91.626zM207.237 938.667h643.298c114.399-0.136 207.101-92.838 207.237-207.224v-457.661c-0.136-114.399-92.838-207.101-207.224-207.237h-269.277l-306.394-151.878v151.878h-67.64c-114.399 0.136-207.101 92.838-207.237 207.224v457.661c0.136 114.399 92.838 207.101 207.224 207.237h0.013zM850.535 114.516c87.916 0.109 159.156 71.349 159.265 159.255v457.658c-0.109 87.916-71.349 159.156-159.255 159.265h-643.308c-87.916-0.109-159.156-71.349-159.265-159.255v-457.658c0.109-87.916 71.349-159.156 159.255-159.265h115.622v-122.519l247.197 122.519z" />
<glyph unicode="&#xe92e;" glyph-name="lock-chat-thin" horiz-adv-x="1060" d="M208.203 938.667h643.886c114.932-0.137 208.066-93.271 208.203-208.189v-459.794c-0.137-114.932-93.271-208.066-208.189-208.203h-174.142l-147.814-147.814-147.814 147.814h-174.129c-114.932 0.137-208.066 93.271-208.203 208.189v459.794c0.137 114.932 93.271 208.066 208.189 208.203h0.013zM852.088 110.676c88.326 0.11 159.898 71.682 160.008 159.997v459.792c-0.11 88.326-71.682 159.898-159.997 160.008h-643.896c-88.326-0.11-159.898-71.682-160.008-159.997v-459.792c0.11-88.326 71.682-159.898 159.997-160.008h194.092l127.861-127.861 127.861 127.861zM321.943 570.939h416.405v-324.353h-416.405zM690.153 522.744h-320.015v-227.963h320.015zM530.145 754.562c63.924-0.135 115.741-51.782 116.15-115.629v-116.189h-232.3v116.15c0.436 63.875 52.237 115.506 116.135 115.668h0.016zM598.1 570.939v67.955c-0.354 37.29-30.626 67.393-67.947 67.473h-0.008c-37.329-0.080-67.601-30.183-67.955-67.439v-67.989z" />
<glyph unicode="&#xe92f;" glyph-name="lock-message-thin" horiz-adv-x="1058" d="M320.45 572.644h414.474v-322.848h-414.474zM686.952 524.673h-318.531v-226.905h318.531zM527.687 755.416c63.628-0.135 115.204-51.542 115.611-115.093v-115.65h-231.223v115.611c0.434 63.578 51.994 114.97 115.596 115.132h0.015zM595.326 572.644v67.64c-0.352 37.117-30.484 67.080-67.632 67.16h-0.008c-37.156-0.080-67.288-30.043-67.64-67.127v-67.673zM207.237 938.667h643.298c114.399-0.136 207.101-92.838 207.237-207.224v-457.661c-0.136-114.399-92.838-207.101-207.224-207.237h-269.277l-306.394-151.878v151.878h-67.64c-114.399 0.136-207.101 92.838-207.237 207.224v457.661c0.136 114.399 92.838 207.101 207.224 207.237h0.013zM850.535 114.516c87.916 0.109 159.156 71.349 159.265 159.255v457.658c-0.109 87.916-71.349 159.156-159.255 159.265h-643.308c-87.916-0.109-159.156-71.349-159.265-159.255v-457.658c0.109-87.916 71.349-159.156 159.255-159.265h115.622v-122.519l247.197 122.519z" />
<glyph unicode="&#xe930;" glyph-name="message-lines-thin" horiz-adv-x="1058" d="M756.511 661.871h-457.648v47.972h457.648zM756.511 295.369h-457.648v47.972h457.648zM756.511 478.62h-457.648v47.972h457.648zM207.237 938.667h643.298c114.399-0.136 207.101-92.838 207.237-207.224v-457.661c-0.136-114.399-92.838-207.101-207.224-207.237h-269.277l-306.394-151.878v151.878h-67.64c-114.399 0.136-207.101 92.838-207.237 207.224v457.661c0.136 114.399 92.838 207.101 207.224 207.237h0.013zM850.535 114.516c87.916 0.109 159.156 71.349 159.265 159.255v457.658c-0.109 87.916-71.349 159.156-159.255 159.265h-643.308c-87.916-0.109-159.156-71.349-159.265-159.255v-457.658c0.109-87.916 71.349-159.156 159.255-159.265h115.622v-122.519l247.197 122.519z" />
<glyph unicode="&#xe931;" glyph-name="messages-blank-thin" horiz-adv-x="1060" d="M670.97 754.536c0.152 0 0.331 0.001 0.51 0.001 56.62 0 107.918-22.788 145.222-59.693l-0.018 0.018c38.185-37.783 61.879-90.148 62.036-148.046v-276.227c-0.137-114.948-93.284-208.095-208.219-208.232h-82.438l-150.293-147.69-147.449 147.69h-82.088c-114.948 0.137-208.095 93.284-208.232 208.219v276.21c0 114.737 93.013 207.75 207.75 207.75v0h463.22zM670.488 110.559c88.338 0.11 159.92 71.692 160.030 160.020v276.208c-0.12 44.481-18.309 84.691-47.61 113.695l-0.013 0.013c-28.631 28.35-68.036 45.866-111.531 45.866-1.020 0-2.037-0.010-3.052-0.029l0.152 0.002h-460.713c-88.116 0-159.548-71.432-159.548-159.548v0-276.197c0.11-88.338 71.692-159.92 160.020-160.030h102.054l128.024-128.024 130.145 128.024zM852.209 246.488v48.202c0.001 0 0.002 0 0.003 0 88.382 0 160.030 71.648 160.030 160.030 0 0.339-0.001 0.678-0.003 1.016v-0.052 274.751c0 88.382-71.648 160.030-160.030 160.030v0h-459.846c-88.382 0-160.030-71.648-160.030-160.030v0h-48.202c0 115.003 93.229 208.232 208.232 208.232v0h459.846c115.003 0 208.232-93.229 208.232-208.232v-274.751c0.001-0.286 0.002-0.625 0.002-0.964 0-115.003-93.229-208.232-208.232-208.232-0.001 0-0.002 0-0.002 0v0z" />
<glyph unicode="&#xe932;" glyph-name="messages-dots-thin" horiz-adv-x="1055" d="M161.169 755.433h549.702c88.967-0.109 161.060-72.202 161.169-161.159v-366.479c-0.109-88.967-72.202-161.060-161.159-161.169h-67.644v-151.96l-304.495 151.96h-177.574c-88.967 0.109-161.060 72.202-161.169 161.159v366.479c0.109 88.967 72.202 161.060 161.159 161.169h0.011zM710.871 114.594c62.487 0.082 113.12 50.715 113.202 113.194v366.476c-0.082 62.487-50.715 113.12-113.194 113.202h-549.71c-62.487-0.082-113.12-50.715-113.202-113.194v-366.476c0.082-62.487 50.715-113.12 113.194-113.202h188.998l245.207-122.412v122.412zM896.168 249.861h-47.967v47.967h47.967c61.16 1.483 110.278 50.987 111.139 112.16l0.001 0.082v367.427c0 62.52-50.682 113.202-113.202 113.202v0h-549.702c-62.52 0-113.202-50.682-113.202-113.202v0-47.967h-47.967v47.967c0 89.011 72.158 161.169 161.169 161.169v0h549.702c89.011 0 161.169-72.158 161.169-161.169v0-367.427c-0.531-87.814-71.208-158.945-158.795-160.209l-0.119-0.001zM298.835 387.046h-91.617v47.967h91.617zM482.069 387.046h-91.617v47.967h91.617zM664.823 387.046h-91.617v47.967h91.617z" />
<glyph unicode="&#xe933;" glyph-name="messages-text-thin" horiz-adv-x="1083" d="M869.982 466.279h-375.45v49.207h375.45zM869.982 278.8h-375.45v49.207h375.45zM494.531 703.457h375.45c117.345-0.14 212.435-95.229 212.575-212.561v-576.228l-175.571 176.161h-412.946c-0.005 0-0.011 0-0.017 0-117.13 0-212.083 94.953-212.083 212.083 0 0.934 0.006 1.867 0.018 2.799l-0.001-0.141v185.314c0.14 117.345 95.229 212.435 212.561 212.575h0.013zM1033.349 33.748v457.134c-0.112 90.18-73.187 163.256-163.357 163.368h-375.461c-90.18-0.112-163.256-73.187-163.368-163.357v-185.866c-0.018-0.909-0.029-1.98-0.029-3.054 0-14.071 1.806-27.72 5.198-40.728l-0.248 1.119c18.65-70.893 82.173-122.329 157.71-122.329 0.086 0 0.172 0 0.259 0h433.402zM212.575 938.667h378.255c116.189-1.582 209.77-96.141 209.77-212.556 0-0.007 0-0.013 0-0.020v0.001-73.811h-306.068c-90.18-0.112-163.256-73.187-163.368-163.357v-165.347h-155.741l-175.423-172.963v575.477c0.14 117.345 95.229 212.435 212.561 212.575h0.013zM590.485 889.46h-377.911c-90.18-0.112-163.256-73.187-163.368-163.357v-457.637l106.041 104.319h126.708v116.129c0.14 117.345 95.229 212.435 212.561 212.575h256.875v24.604c-0.343 89.227-71.885 161.632-160.745 163.365l-0.163 0.003z" />
<glyph unicode="&#xe934;" glyph-name="messages-thin" horiz-adv-x="1055" d="M161.169 755.433h549.702c88.967-0.109 161.060-72.202 161.169-161.159v-366.479c-0.109-88.967-72.202-161.060-161.159-161.169h-67.644v-151.96l-304.495 151.96h-177.574c-88.967 0.109-161.060 72.202-161.169 161.159v366.479c0.109 88.967 72.202 161.060 161.159 161.169h0.011zM710.871 114.594c62.487 0.082 113.12 50.715 113.202 113.194v366.476c-0.082 62.487-50.715 113.12-113.194 113.202h-549.71c-62.487-0.082-113.12-50.715-113.202-113.194v-366.476c0.082-62.487 50.715-113.12 113.194-113.202h188.998l245.207-122.412v122.412zM896.168 249.861h-47.967v47.967h47.967c61.16 1.483 110.278 50.987 111.139 112.16l0.001 0.082v367.427c0 62.52-50.682 113.202-113.202 113.202v0h-549.702c-62.52 0-113.202-50.682-113.202-113.202v0-47.967h-47.967v47.967c0 89.011 72.158 161.169 161.169 161.169v0h549.702c89.011 0 161.169-72.158 161.169-161.169v0-367.427c-0.531-87.814-71.208-158.945-158.795-160.209l-0.119-0.001z" />
<glyph unicode="&#xe935;" glyph-name="message-text-thin" horiz-adv-x="1060" d="M852.088 660.582h-643.886v48.195h643.886zM852.088 292.372h-643.886v48.195h643.886zM852.088 476.477h-643.886v48.195h643.886zM208.203 938.667h643.886c114.932-0.137 208.066-93.271 208.203-208.189v-459.794c-0.137-114.932-93.271-208.066-208.189-208.203h-174.142l-147.814-147.814-147.814 147.814h-174.129c-114.932 0.137-208.066 93.271-208.203 208.189v459.794c0.137 114.932 93.271 208.066 208.189 208.203h0.013zM852.088 110.676c88.326 0.11 159.898 71.682 160.008 159.997v459.792c-0.11 88.326-71.682 159.898-159.997 160.008h-643.896c-88.326-0.11-159.898-71.682-160.008-159.997v-459.792c0.11-88.326 71.682-159.898 159.997-160.008h194.092l127.861-127.861 127.861 127.861z" />
<glyph unicode="&#xe936;" glyph-name="message-thin" horiz-adv-x="1060" d="M208.203 938.667h643.886c114.932-0.137 208.066-93.271 208.203-208.189v-459.794c-0.137-114.932-93.271-208.066-208.189-208.203h-174.142l-147.814-147.814-147.814 147.814h-174.129c-114.932 0.137-208.066 93.271-208.203 208.189v459.794c0.137 114.932 93.271 208.066 208.189 208.203h0.013zM852.088 110.676c88.326 0.11 159.898 71.682 160.008 159.997v459.792c-0.11 88.326-71.682 159.898-159.997 160.008h-643.896c-88.326-0.11-159.898-71.682-160.008-159.997v-459.792c0.11-88.326 71.682-159.898 159.997-160.008h194.092l127.861-127.861 127.861 127.861z" />
<glyph unicode="&#xe937;" glyph-name="messaging-lines-thin" horiz-adv-x="1055" d="M161.169 755.433h549.702c88.967-0.109 161.060-72.202 161.169-161.159v-366.479c-0.109-88.967-72.202-161.060-161.159-161.169h-67.644v-151.96l-304.495 151.96h-177.574c-88.967 0.109-161.060 72.202-161.169 161.159v366.479c0.109 88.967 72.202 161.060 161.159 161.169h0.011zM710.871 114.594c62.487 0.082 113.12 50.715 113.202 113.194v366.476c-0.082 62.487-50.715 113.12-113.194 113.202h-549.71c-62.487-0.082-113.12-50.715-113.202-113.194v-366.476c0.082-62.487 50.715-113.12 113.194-113.202h188.998l245.207-122.412v122.412zM896.168 249.861h-47.967v47.967h47.967c61.16 1.483 110.278 50.987 111.139 112.16l0.001 0.082v367.427c0 62.52-50.682 113.202-113.202 113.202v0h-549.702c-62.52 0-113.202-50.682-113.202-113.202v0-47.967h-47.967v47.967c0 89.011 72.158 161.169 161.169 161.169v0h549.702c89.011 0 161.169-72.158 161.169-161.169v0-367.427c-0.531-87.814-71.208-158.945-158.795-160.209l-0.119-0.001zM664.823 478.663h-457.605v47.967h457.605zM664.823 295.429h-457.605v47.967h457.605z" />
<glyph unicode="&#xe938;" glyph-name="minus-chats-thin" horiz-adv-x="1083" d="M823.235 372.785h-281.957v49.207h281.957zM494.531 703.457h375.45c117.345-0.14 212.435-95.229 212.575-212.561v-576.228l-175.571 176.161h-412.946c-0.005 0-0.011 0-0.017 0-117.13 0-212.083 94.953-212.083 212.083 0 0.934 0.006 1.867 0.018 2.799l-0.001-0.141v185.314c0.14 117.345 95.229 212.435 212.561 212.575h0.013zM1033.349 33.748v457.134c-0.112 90.18-73.187 163.256-163.357 163.368h-375.461c-90.18-0.112-163.256-73.187-163.368-163.357v-185.866c-0.018-0.909-0.029-1.98-0.029-3.054 0-14.071 1.806-27.72 5.198-40.728l-0.248 1.119c18.65-70.893 82.173-122.329 157.71-122.329 0.086 0 0.172 0 0.259 0h433.402zM212.575 938.667h378.255c116.189-1.582 209.77-96.141 209.77-212.556 0-0.007 0-0.013 0-0.020v0.001-73.811h-306.068c-90.18-0.112-163.256-73.187-163.368-163.357v-165.347h-155.741l-175.423-172.963v575.477c0.14 117.345 95.229 212.435 212.561 212.575h0.013zM590.485 889.46h-377.911c-90.18-0.112-163.256-73.187-163.368-163.357v-457.637l106.041 104.319h126.708v116.129c0.14 117.345 95.229 212.435 212.561 212.575h256.875v24.604c-0.343 89.227-71.885 161.632-160.745 163.365l-0.163 0.003z" />
<glyph unicode="&#xe939;" glyph-name="minus-chat-thin" horiz-adv-x="1056" d="M512 938.667c282.641-0.32 511.68-229.359 512-511.969v-0.031c0.002-0.579 0.004-1.265 0.004-1.951 0-128.801-48.172-246.35-127.482-335.615l0.451 0.517 159.386-174.95h-544.358c-282.77 0-512 229.23-512 512s229.23 512 512 512v0zM940.442-34.133l-113.357 124.467 16.742 17.254c79.774 81.855 128.976 193.836 128.976 317.308 0 0.623-0.001 1.245-0.004 1.867v-0.097c0 254.493-206.307 460.8-460.8 460.8s-460.8-206.307-460.8-460.8c0-254.493 206.307-460.8 460.8-460.8v0zM706.56 401.067h-389.12v51.2h389.12z" />
<glyph unicode="&#xe93a;" glyph-name="minus-comment-thin" horiz-adv-x="1060" d="M760.036 476.477h-459.781v48.195h459.781zM208.203 938.667h643.886c114.932-0.137 208.066-93.271 208.203-208.189v-459.794c-0.137-114.932-93.271-208.066-208.189-208.203h-174.142l-147.814-147.814-147.814 147.814h-174.129c-114.932 0.137-208.066 93.271-208.203 208.189v459.794c0.137 114.932 93.271 208.066 208.189 208.203h0.013zM852.088 110.676c88.326 0.11 159.898 71.682 160.008 159.997v459.792c-0.11 88.326-71.682 159.898-159.997 160.008h-643.896c-88.326-0.11-159.898-71.682-160.008-159.997v-459.792c0.11-88.326 71.682-159.898 159.997-160.008h194.092l127.861-127.861 127.861 127.861z" />
<glyph unicode="&#xe93b;" glyph-name="minus-message-thin" horiz-adv-x="1058" d="M710.938 478.62h-366.502v47.972h366.502zM207.237 938.667h643.298c114.399-0.136 207.101-92.838 207.237-207.224v-457.661c-0.136-114.399-92.838-207.101-207.224-207.237h-269.277l-306.394-151.878v151.878h-67.64c-114.399 0.136-207.101 92.838-207.237 207.224v457.661c0.136 114.399 92.838 207.101 207.224 207.237h0.013zM850.535 114.516c87.916 0.109 159.156 71.349 159.265 159.255v457.658c-0.109 87.916-71.349 159.156-159.255 159.265h-643.308c-87.916-0.109-159.156-71.349-159.265-159.255v-457.658c0.109-87.916 71.349-159.156 159.255-159.265h115.622v-122.519l247.197 122.519z" />
<glyph unicode="&#xe93c;" glyph-name="music-chat-thin" horiz-adv-x="1060" d="M394.235 290.444c-39.926 0-72.293 32.366-72.293 72.293s32.366 72.293 72.293 72.293c39.926 0 72.293-32.366 72.293-72.293v0c0-39.926-32.366-72.293-72.293-72.293v0zM394.235 386.834c-13.309 0-24.098-10.789-24.098-24.098s10.789-24.098 24.098-24.098c13.309 0 24.098 10.789 24.098 24.098v0c0 13.309-10.789 24.098-24.098 24.098v0zM667.983 478.404c38.595 0 69.883-31.288 69.883-69.883s-31.288-69.883-69.883-69.883c-38.595 0-69.883 31.288-69.883 69.883v0c0.055 38.573 31.31 69.828 69.878 69.883h0.005zM667.983 386.834c11.978 0 21.688 9.71 21.688 21.688s-9.71 21.688-21.688 21.688c-11.978 0-21.688-9.71-21.688-21.688v0c0.027-11.967 9.721-21.66 21.685-21.688h0.003zM462.19 362.736h-48.195v296.062l324.353 54.364v-304.641h-48.195v247.674l-227.963-38.17zM208.203 938.667h643.886c114.932-0.137 208.066-93.271 208.203-208.189v-459.794c-0.137-114.932-93.271-208.066-208.189-208.203h-174.142l-147.814-147.814-147.814 147.814h-174.129c-114.932 0.137-208.066 93.271-208.203 208.189v459.794c0.137 114.932 93.271 208.066 208.189 208.203h0.013zM852.088 110.676c88.326 0.11 159.898 71.682 160.008 159.997v459.792c-0.11 88.326-71.682 159.898-159.997 160.008h-643.896c-88.326-0.11-159.898-71.682-160.008-159.997v-459.792c0.11-88.326 71.682-159.898 159.997-160.008h194.092l127.861-127.861 127.861 127.861z" />
<glyph unicode="&#xe93d;" glyph-name="music-message-thin" horiz-adv-x="1058" d="M392.407 293.45c-39.741 0-71.957 32.216-71.957 71.957s32.216 71.957 71.957 71.957c39.741 0 71.957-32.216 71.957-71.957v0c0-39.741-32.216-71.957-71.957-71.957v0zM392.407 389.393c-13.247 0-23.986-10.739-23.986-23.986s10.739-23.986 23.986-23.986c13.247 0 23.986 10.739 23.986 23.986v0c0 13.247-10.739 23.986-23.986 23.986v0zM664.885 480.539c38.416 0 69.559-31.142 69.559-69.559s-31.142-69.559-69.559-69.559c-38.416 0-69.559 31.142-69.559 69.559v0c0.055 38.394 31.165 69.504 69.554 69.559h0.005zM664.885 389.393c11.922 0 21.587 9.665 21.587 21.587s-9.665 21.587-21.587 21.587c-11.922 0-21.587-9.665-21.587-21.587v0c0.027-11.911 9.676-21.56 21.585-21.587h0.003zM460.047 365.407h-47.972v294.689l322.848 54.112v-303.228h-47.972v246.526l-226.905-37.993zM207.237 938.667h643.298c114.399-0.136 207.101-92.838 207.237-207.224v-457.661c-0.136-114.399-92.838-207.101-207.224-207.237h-269.277l-306.394-151.878v151.878h-67.64c-114.399 0.136-207.101 92.838-207.237 207.224v457.661c0.136 114.399 92.838 207.101 207.224 207.237h0.013zM850.535 114.516c87.916 0.109 159.156 71.349 159.265 159.255v457.658c-0.109 87.916-71.349 159.156-159.255 159.265h-643.308c-87.916-0.109-159.156-71.349-159.265-159.255v-457.658c0.109-87.916 71.349-159.156 159.255-159.265h115.622v-122.519l247.197 122.519z" />
<glyph unicode="&#xe93e;" glyph-name="pencil-chat-thin" horiz-adv-x="1060" d="M531.302 383.46h-25.158v24.098c-0.003 0.578-0.005 1.263-0.005 1.947 0 97.825 39.471 186.43 103.356 250.76l224.28 224.424c22.062 22.074 52.547 35.728 86.221 35.728 67.324 0 121.901-54.577 121.901-121.901 0-33.65-13.635-64.115-35.68-86.173l0.001 0.001-223.48-225.408c-64.28-63.946-152.904-103.475-250.761-103.475-0.236 0-0.473 0-0.709 0.001h0.036zM920.284 872.977c-20.326-0.048-38.684-8.433-51.844-21.914l-224.844-224.844c-49.897-50.243-82.566-117.653-88.372-192.594l-0.066-1.053c76.029 5.866 143.463 38.575 193.709 88.548l-0.014-0.013 223.77 225.697c13.544 13.154 21.949 31.536 21.949 51.882s-8.405 38.728-21.931 51.865l-0.018 0.017-0.482 0.482c-13.174 13.496-31.532 21.88-51.849 21.929h-0.009zM530.145-85.333l-147.814 147.814h-174.129c-114.932 0.137-208.066 93.271-208.203 208.189v459.794c0 114.987 93.215 208.203 208.203 208.203v0h459.781v-48.195h-459.781c-88.37 0-160.008-71.638-160.008-160.008v0-459.781c0.11-88.326 71.682-159.898 159.997-160.008h194.092l127.861-127.861 127.861 127.861h194.081c88.326 0.11 159.898 71.682 160.008 159.997v276.169h48.195v-276.158c-0.137-114.932-93.271-208.066-208.189-208.203h-174.142z" />
<glyph unicode="&#xe93f;" glyph-name="pencil-message-thin" horiz-adv-x="1058" d="M528.838 386.035h-25.041v23.986c-0.003 0.576-0.005 1.257-0.005 1.938 0 97.371 39.288 185.566 102.876 249.597l223.239 223.383c21.96 21.972 52.303 35.562 85.821 35.562 67.012 0 121.335-54.324 121.335-121.335 0-33.494-13.571-63.818-35.515-85.774l0.001 0.001-222.444-224.363c-63.982-63.65-152.195-102.995-249.598-102.995-0.235 0-0.47 0-0.705 0.001h0.036zM916.016 873.282c-20.231-0.048-38.504-8.394-51.603-21.813l-223.801-223.801c-49.666-50.010-82.183-117.107-87.962-191.701l-0.065-1.048c75.676 5.838 142.798 38.396 192.811 88.137l-0.013-0.013 222.732 224.651c13.481 13.093 21.847 31.39 21.847 51.641s-8.366 38.548-21.83 51.624l-0.018 0.017-0.48 0.48c-13.113 13.433-31.386 21.779-51.608 21.827h-0.009zM274.877-85.333v151.878h-67.64c-114.399 0.136-207.101 92.838-207.237 207.224v457.661c0.136 114.399 92.838 207.101 207.224 207.237h457.661v-47.972h-457.648c-87.916-0.109-159.156-71.349-159.265-159.255v-457.658c0.109-87.916 71.349-159.156 159.255-159.265h115.622v-122.519l247.197 122.519h280.489c87.916 0.109 159.156 71.349 159.265 159.255v274.887h47.972v-274.877c-0.136-114.399-92.838-207.101-207.224-207.237h-269.277z" />
<glyph unicode="&#xe940;" glyph-name="play-chat-thin" horiz-adv-x="1060" d="M321.943 711.186l449.178-210.612-449.178-210.42zM657.477 500.767l-287.339 134.464v-269.266zM208.203 938.667h643.886c114.932-0.137 208.066-93.271 208.203-208.189v-459.794c-0.137-114.932-93.271-208.066-208.189-208.203h-174.142l-147.814-147.814-147.814 147.814h-174.129c-114.932 0.137-208.066 93.271-208.203 208.189v459.794c0.137 114.932 93.271 208.066 208.189 208.203h0.013zM852.088 110.676c88.326 0.11 159.898 71.682 160.008 159.997v459.792c-0.11 88.326-71.682 159.898-159.997 160.008h-643.896c-88.326-0.11-159.898-71.682-160.008-159.997v-459.792c0.11-88.326 71.682-159.898 159.997-160.008h194.092l127.861-127.861 127.861 127.861z" />
<glyph unicode="&#xe941;" glyph-name="play-message-thin" horiz-adv-x="1058" d="M320.45 724.666l444.12-222.060-444.12-222.108zM657.21 502.606l-288.789 144.442v-288.884zM207.237 938.667h643.298c114.399-0.136 207.101-92.838 207.237-207.224v-457.661c-0.136-114.399-92.838-207.101-207.224-207.237h-269.277l-306.394-151.878v151.878h-67.64c-114.399 0.136-207.101 92.838-207.237 207.224v457.661c0.136 114.399 92.838 207.101 207.224 207.237h0.013zM850.535 114.516c87.916 0.109 159.156 71.349 159.265 159.255v457.658c-0.109 87.916-71.349 159.156-159.255 159.265h-643.308c-87.916-0.109-159.156-71.349-159.265-159.255v-457.658c0.109-87.916 71.349-159.156 159.255-159.265h115.622v-122.519l247.197 122.519z" />
<glyph unicode="&#xe942;" glyph-name="question-chat-thin" horiz-adv-x="1060" d="M208.203 938.667h643.886c114.932-0.137 208.066-93.271 208.203-208.189v-459.794c-0.137-114.932-93.271-208.066-208.189-208.203h-174.142l-147.814-147.814-147.814 147.814h-174.129c-114.932 0.137-208.066 93.271-208.203 208.189v459.794c0.137 114.932 93.271 208.066 208.189 208.203h0.013zM852.088 110.676c88.326 0.11 159.898 71.682 160.008 159.997v459.792c-0.11 88.326-71.682 159.898-159.997 160.008h-643.896c-88.326-0.11-159.898-71.682-160.008-159.997v-459.792c0.11-88.326 71.682-159.898 159.997-160.008h194.092l127.861-127.861 127.861 127.861zM554.243 407.558h-48.195v54.942c0.1 32.004 13.102 60.952 34.074 81.932l38.218 38.266c12.327 12.31 19.953 29.325 19.953 48.121 0 0.026 0 0.052 0 0.078v-0.004 8c0 37.531-30.424 67.955-67.955 67.955s-67.955-30.424-67.955-67.955v0l-48.195 0.241c0 64.148 52.002 116.15 116.15 116.15s116.15-52.002 116.15-116.15v0-8.434c-0.036-32.006-13.033-60.97-34.024-81.93l-38.123-38.123c-12.327-12.302-19.953-29.311-19.953-48.101 0-0.033 0-0.066 0-0.1v0.005zM575.931 292.372h-91.571v48.195h91.571z" />
<glyph unicode="&#xe943;" glyph-name="question-message-thin" horiz-adv-x="1058" d="M207.237 938.667h643.298c114.399-0.136 207.101-92.838 207.237-207.224v-457.661c-0.136-114.399-92.838-207.101-207.224-207.237h-269.277l-306.394-151.878v151.878h-67.64c-114.399 0.136-207.101 92.838-207.237 207.224v457.661c0.136 114.399 92.838 207.101 207.224 207.237h0.013zM850.535 114.516c87.916 0.109 159.156 71.349 159.265 159.255v457.658c-0.109 87.916-71.349 159.156-159.255 159.265h-643.308c-87.916-0.109-159.156-71.349-159.265-159.255v-457.658c0.109-87.916 71.349-159.156 159.255-159.265h115.622v-122.519l247.197 122.519zM551.672 410.021h-47.972v54.688c0.1 31.856 13.041 60.669 33.916 81.552l38.041 38.089c12.27 12.253 19.86 29.189 19.86 47.897 0 0.026 0 0.052 0 0.078v-0.004 7.963c0 37.356-30.283 67.64-67.64 67.64s-67.64-30.283-67.64-67.64v0l-47.972 0.24c0 63.85 51.761 115.611 115.611 115.611s115.611-51.761 115.611-115.611v0-8.395c-0.036-31.858-12.973-60.687-33.867-81.55l-37.946-37.946c-12.27-12.245-19.86-29.175-19.86-47.878 0-0.033 0-0.066 0-0.099v0.005zM573.26 295.369h-91.146v47.972h91.146z" />
<glyph unicode="&#xe944;" glyph-name="record-chat-thin" horiz-adv-x="1060" d="M346.040 616.724c64.148 0 116.15-52.002 116.15-116.15s-52.002-116.15-116.15-116.15c-64.148 0-116.15 52.002-116.15 116.15v0c0.082 64.115 52.035 116.068 116.142 116.15h0.008zM346.040 432.619c37.531 0 67.955 30.424 67.955 67.955s-30.424 67.955-67.955 67.955c-37.531 0-67.955-30.424-67.955-67.955v0c0.055-37.508 30.447-67.9 67.95-67.955h0.005zM714.25 616.724c64.148 0 116.15-52.002 116.15-116.15s-52.002-116.15-116.15-116.15c-64.148 0-116.15 52.002-116.15 116.15v0c0.082 64.115 52.035 116.068 116.142 116.15h0.008zM714.25 432.619c37.531 0 67.955 30.424 67.955 67.955s-30.424 67.955-67.955 67.955c-37.531 0-67.955-30.424-67.955-67.955v0c0.055-37.508 30.447-67.9 67.95-67.955h0.005zM714.25 384.424h-368.21v48.195h368.21zM208.203 938.667h643.886c114.932-0.137 208.066-93.271 208.203-208.189v-459.794c-0.137-114.932-93.271-208.066-208.189-208.203h-174.142l-147.814-147.814-147.814 147.814h-174.129c-114.932 0.137-208.066 93.271-208.203 208.189v459.794c0.137 114.932 93.271 208.066 208.189 208.203h0.013zM852.088 110.676c88.326 0.11 159.898 71.682 160.008 159.997v459.792c-0.11 88.326-71.682 159.898-159.997 160.008h-643.896c-88.326-0.11-159.898-71.682-160.008-159.997v-459.792c0.11-88.326 71.682-159.898 159.997-160.008h194.092l127.861-127.861 127.861 127.861z" />
<glyph unicode="&#xe945;" glyph-name="record-message-thin" horiz-adv-x="1058" d="M344.435 618.217c63.85 0 115.611-51.761 115.611-115.611s-51.761-115.611-115.611-115.611c-63.85 0-115.611 51.761-115.611 115.611v0c0.082 63.817 51.794 115.529 115.603 115.611h0.008zM344.435 434.966c37.356 0 67.64 30.283 67.64 67.64s-30.283 67.64-67.64 67.64c-37.356 0-67.64-30.283-67.64-67.64v0c0.055-37.334 30.305-67.585 67.635-67.64h0.005zM710.938 618.217c63.85 0 115.611-51.761 115.611-115.611s-51.761-115.611-115.611-115.611c-63.85 0-115.611 51.761-115.611 115.611v0c0.082 63.817 51.794 115.529 115.603 115.611h0.008zM710.938 434.966c37.356 0 67.64 30.283 67.64 67.64s-30.283 67.64-67.64 67.64c-37.356 0-67.64-30.283-67.64-67.64v0c0.055-37.334 30.305-67.585 67.635-67.64h0.005zM710.938 386.995h-366.502v47.972h366.502zM207.237 938.667h643.298c114.399-0.136 207.101-92.838 207.237-207.224v-457.661c-0.136-114.399-92.838-207.101-207.224-207.237h-269.277l-306.394-151.878v151.878h-67.64c-114.399 0.136-207.101 92.838-207.237 207.224v457.661c0.136 114.399 92.838 207.101 207.224 207.237h0.013zM850.535 114.516c87.916 0.109 159.156 71.349 159.265 159.255v457.658c-0.109 87.916-71.349 159.156-159.255 159.265h-643.308c-87.916-0.109-159.156-71.349-159.265-159.255v-457.658c0.109-87.916 71.349-159.156 159.255-159.265h115.622v-122.519l247.197 122.519z" />
<glyph unicode="&#xe946;" glyph-name="refresh-chat-thin" horiz-adv-x="1060" d="M208.203 938.667h643.886c114.932-0.137 208.066-93.271 208.203-208.189v-459.794c-0.137-114.932-93.271-208.066-208.189-208.203h-174.142l-147.814-147.814-147.814 147.814h-174.129c-114.932 0.137-208.066 93.271-208.203 208.189v459.794c0.137 114.932 93.271 208.066 208.189 208.203h0.013zM852.088 110.676c88.326 0.11 159.898 71.682 160.008 159.997v459.792c-0.11 88.326-71.682 159.898-159.997 160.008h-643.896c-88.326-0.11-159.898-71.682-160.008-159.997v-459.792c0.11-88.326 71.682-159.898 159.997-160.008h194.092l127.861-127.861 127.861 127.861zM516.94 487.369l-150.947 150.995 150.947 151.525 34.122-34.026-117.018-117.403 116.969-116.969zM530.145 246.49c-115.029 0.191-208.204 93.484-208.204 208.54 0 0.254 0 0.508 0.001 0.763v-0.039l48.195-0.241c-0.001-0.215-0.002-0.469-0.002-0.723 0-88.37 71.638-160.008 160.008-160.008s160.008 71.638 160.008 160.008c0 88.369-71.637 160.007-160.006 160.008h-137.838v48.195h137.838c115.014 0 208.251-93.237 208.251-208.251s-93.237-208.251-208.251-208.251v0z" />
<glyph unicode="&#xe947;" glyph-name="refresh-message-thin" horiz-adv-x="1058" d="M514.542 489.462l-150.247 150.295 150.247 150.822 33.964-33.868-116.475-116.859 116.427-116.427zM207.237 938.667h643.298c114.399-0.136 207.101-92.838 207.237-207.224v-457.661c-0.136-114.399-92.838-207.101-207.224-207.237h-269.277l-306.394-151.878v151.878h-67.64c-114.399 0.136-207.101 92.838-207.237 207.224v457.661c0.136 114.399 92.838 207.101 207.224 207.237h0.013zM850.535 114.516c87.916 0.109 159.156 71.349 159.265 159.255v457.658c-0.109 87.916-71.349 159.156-159.255 159.265h-643.308c-87.916-0.109-159.156-71.349-159.265-159.255v-457.658c0.109-87.916 71.349-159.156 159.255-159.265h115.622v-122.519l247.197 122.519zM527.687 249.7c-114.495 0.19-207.238 93.051-207.238 207.572 0 0.253 0 0.506 0.001 0.759v-0.039l47.972-0.24c-0.001-0.214-0.002-0.467-0.002-0.72 0-87.96 71.306-159.265 159.265-159.265s159.265 71.306 159.265 159.265c0 87.959-71.305 159.264-159.264 159.265h-137.199v47.972h137.199c114.48 0 207.285-92.805 207.285-207.285s-92.805-207.285-207.285-207.285v0z" />
<glyph unicode="&#xe948;" glyph-name="search-chat-thin" horiz-adv-x="1060" d="M507.012 708.777c102.211 0 185.069-82.858 185.069-185.069s-82.858-185.069-185.069-185.069c-102.211 0-185.069 82.858-185.069 185.069v0c0.11 102.167 82.902 184.959 185.058 185.069h0.011zM507.012 386.834c75.593 0 136.874 61.281 136.874 136.874s-61.281 136.874-136.874 136.874c-75.593 0-136.874-61.281-136.874-136.874v0c0.082-75.56 61.314-136.792 136.866-136.874h0.008zM742.975 253.623l-139.284 139.284 34.122 34.122 139.284-139.284zM208.203 938.667h643.886c114.932-0.137 208.066-93.271 208.203-208.189v-459.794c-0.137-114.932-93.271-208.066-208.189-208.203h-174.142l-147.814-147.814-147.814 147.814h-174.129c-114.932 0.137-208.066 93.271-208.203 208.189v459.794c0.137 114.932 93.271 208.066 208.189 208.203h0.013zM852.088 110.676c88.326 0.11 159.898 71.682 160.008 159.997v459.792c-0.11 88.326-71.682 159.898-159.997 160.008h-643.896c-88.326-0.11-159.898-71.682-160.008-159.997v-459.792c0.11-88.326 71.682-159.898 159.997-160.008h194.092l127.861-127.861 127.861 127.861z" />
<glyph unicode="&#xe949;" glyph-name="search-message-thin" horiz-adv-x="1058" d="M504.66 709.843c101.737 0 184.211-82.474 184.211-184.211s-82.474-184.211-184.211-184.211c-101.737 0-184.211 82.474-184.211 184.211v0c0.109 101.693 82.518 184.101 184.2 184.211h0.011zM504.66 389.393c75.243 0 136.239 60.996 136.239 136.239s-60.996 136.239-136.239 136.239c-75.243 0-136.239-60.996-136.239-136.239v0c0.082-75.21 61.029-136.157 136.231-136.239h0.008zM739.529 256.8l-138.638 138.638 33.964 33.964 138.638-138.638zM207.237 938.667h643.298c114.399-0.136 207.101-92.838 207.237-207.224v-457.661c-0.136-114.399-92.838-207.101-207.224-207.237h-269.277l-306.394-151.878v151.878h-67.64c-114.399 0.136-207.101 92.838-207.237 207.224v457.661c0.136 114.399 92.838 207.101 207.224 207.237h0.013zM850.535 114.516c87.916 0.109 159.156 71.349 159.265 159.255v457.658c-0.109 87.916-71.349 159.156-159.255 159.265h-643.308c-87.916-0.109-159.156-71.349-159.265-159.255v-457.658c0.109-87.916 71.349-159.156 159.255-159.265h115.622v-122.519l247.197 122.519z" />
<glyph unicode="&#xe94a;" glyph-name="settings-chat-thin" horiz-adv-x="1058" d="M527.687 663.79c89.020 0 161.184-72.165 161.184-161.184s-72.165-161.184-161.184-161.184c-89.020 0-161.184 72.165-161.184 161.184v0c0.109 88.976 72.209 161.075 161.174 161.184h0.011zM527.687 389.393c62.526 0 113.213 50.687 113.213 113.213s-50.687 113.213-113.213 113.213c-62.526 0-113.213-50.687-113.213-113.213v0c0.082-62.493 50.72-113.131 113.205-113.213h0.008zM551.672 640.284h-47.972v91.146h47.972zM551.672 273.782h-47.972v91.626h47.972zM396.724 550.481l-79.201 46.053 23.986 41.447 79.201-46.053zM713.816 367.662l-79.105 45.573 23.986 41.591 79.105-45.621zM658.697 550.481l-23.986 41.447 79.105 46.053 23.986-41.447zM341.509 367.662l-23.986 41.591 79.201 45.525 23.986-41.591zM207.237 938.667h643.298c114.399-0.136 207.101-92.838 207.237-207.224v-457.661c-0.136-114.399-92.838-207.101-207.224-207.237h-269.277l-306.394-151.878v151.878h-67.64c-114.399 0.136-207.101 92.838-207.237 207.224v457.661c0.136 114.399 92.838 207.101 207.224 207.237h0.013zM850.535 114.516c87.916 0.109 159.156 71.349 159.265 159.255v457.658c-0.109 87.916-71.349 159.156-159.255 159.265h-643.308c-87.916-0.109-159.156-71.349-159.265-159.255v-457.658c0.109-87.916 71.349-159.156 159.255-159.265h115.622v-122.519l247.197 122.519z" />
<glyph unicode="&#xe94b;" glyph-name="settings-message-thin" horiz-adv-x="1060" d="M208.203 938.667h643.886c114.932-0.137 208.066-93.271 208.203-208.189v-459.794c-0.137-114.932-93.271-208.066-208.189-208.203h-174.142l-147.814-147.814-147.814 147.814h-174.129c-114.932 0.137-208.066 93.271-208.203 208.189v459.794c0.137 114.932 93.271 208.066 208.189 208.203h0.013zM852.088 110.676c88.326 0.11 159.898 71.682 160.008 159.997v459.792c-0.11 88.326-71.682 159.898-159.997 160.008h-643.896c-88.326-0.11-159.898-71.682-160.008-159.997v-459.792c0.11-88.326 71.682-159.898 159.997-160.008h194.092l127.861-127.861 127.861 127.861zM530.145 662.509c89.434 0 161.935-72.501 161.935-161.935s-72.501-161.935-161.935-161.935c-89.434 0-161.935 72.501-161.935 161.935v0c0.11 89.39 72.545 161.826 161.925 161.935h0.011zM530.145 386.834c62.817 0 113.74 50.923 113.74 113.74s-50.923 113.74-113.74 113.74c-62.817 0-113.74-50.923-113.74-113.74v0c0.082-62.784 50.956-113.658 113.732-113.74h0.008zM554.243 638.894h-48.195v91.571h48.195zM554.243 270.684h-48.195v92.053h48.195zM398.573 548.673l-79.57 46.267 24.098 41.641 79.57-46.267zM717.142 365.001l-79.474 45.785 24.098 41.785 79.474-45.833zM661.766 548.673l-24.098 41.641 79.474 46.267 24.098-41.641zM343.1 365.001l-24.098 41.785 79.57 45.737 24.098-41.785z" />
<glyph unicode="&#xe94c;" glyph-name="share-chat-thin" horiz-adv-x="1060" d="M208.203 938.667h643.886c114.932-0.137 208.066-93.271 208.203-208.189v-459.794c-0.137-114.932-93.271-208.066-208.189-208.203h-174.142l-147.814-147.814-147.814 147.814h-174.129c-114.932 0.137-208.066 93.271-208.203 208.189v459.794c0.137 114.932 93.271 208.066 208.189 208.203h0.013zM852.088 110.676c88.326 0.11 159.898 71.682 160.008 159.997v459.792c-0.11 88.326-71.682 159.898-159.997 160.008h-643.896c-88.326-0.11-159.898-71.682-160.008-159.997v-459.792c0.11-88.326 71.682-159.898 159.997-160.008h194.092l127.861-127.861 127.861 127.861zM346.040 570.457c38.595 0 69.883-31.288 69.883-69.883s-31.288-69.883-69.883-69.883c-38.595 0-69.883 31.288-69.883 69.883v0c0.055 38.573 31.31 69.828 69.878 69.883h0.005zM346.040 478.886c11.978 0 21.688 9.71 21.688 21.688s-9.71 21.688-21.688 21.688c-11.978 0-21.688-9.71-21.688-21.688v0c0.027-11.967 9.721-21.66 21.685-21.688h0.003zM714.25 754.562c38.595 0 69.883-31.288 69.883-69.883s-31.288-69.883-69.883-69.883c-38.595 0-69.883 31.288-69.883 69.883v0c0.055 38.573 31.31 69.828 69.878 69.883h0.005zM714.25 662.991c11.978 0 21.688 9.71 21.688 21.688s-9.71 21.688-21.688 21.688c-11.978 0-21.688-9.71-21.688-21.688v0c0.027-11.967 9.721-21.66 21.685-21.688h0.003zM714.25 386.352c38.595 0 69.883-31.288 69.883-69.883s-31.288-69.883-69.883-69.883c-38.595 0-69.883 31.288-69.883 69.883v0c0.055 38.573 31.31 69.828 69.878 69.883h0.005zM714.25 294.781c11.978 0 21.688 9.71 21.688 21.688s-9.71 21.688-21.688 21.688c-11.978 0-21.688-9.71-21.688-21.688v0c0.027-11.967 9.721-21.66 21.685-21.688h0.003zM703.455 294.926l-368.21 184.105 21.591 43.086 368.21-184.105zM356.836 479.031l-21.543 43.086 368.21 184.105 21.543-43.086z" />
<glyph unicode="&#xe94d;" glyph-name="share-message-thin" horiz-adv-x="1058" d="M207.237 938.667h643.298c114.399-0.136 207.101-92.838 207.237-207.224v-457.661c-0.136-114.399-92.838-207.101-207.224-207.237h-269.277l-306.394-151.878v151.878h-67.64c-114.399 0.136-207.101 92.838-207.237 207.224v457.661c0.136 114.399 92.838 207.101 207.224 207.237h0.013zM850.535 114.516c87.916 0.109 159.156 71.349 159.265 159.255v457.658c-0.109 87.916-71.349 159.156-159.255 159.265h-643.308c-87.916-0.109-159.156-71.349-159.265-159.255v-457.658c0.109-87.916 71.349-159.156 159.255-159.265h115.622v-122.519l247.197 122.519zM344.435 572.165c38.416 0 69.559-31.142 69.559-69.559s-31.142-69.559-69.559-69.559c-38.416 0-69.559 31.142-69.559 69.559v0c0.055 38.394 31.165 69.504 69.554 69.559h0.005zM344.435 481.019c11.922 0 21.587 9.665 21.587 21.587s-9.665 21.587-21.587 21.587c-11.922 0-21.587-9.665-21.587-21.587v0c0.027-11.911 9.676-21.56 21.585-21.587h0.003zM710.938 755.416c38.416 0 69.559-31.142 69.559-69.559s-31.142-69.559-69.559-69.559c-38.416 0-69.559 31.142-69.559 69.559v0c0.055 38.394 31.165 69.504 69.554 69.559h0.005zM710.938 664.27c11.922 0 21.587 9.665 21.587 21.587s-9.665 21.587-21.587 21.587c-11.922 0-21.587-9.665-21.587-21.587v0c0.027-11.911 9.676-21.56 21.585-21.587h0.003zM710.938 388.913c38.416 0 69.559-31.142 69.559-69.559s-31.142-69.559-69.559-69.559c-38.416 0-69.559 31.142-69.559 69.559v0c0.055 38.394 31.165 69.504 69.554 69.559h0.005zM710.938 297.768c11.922 0 21.587 9.665 21.587 21.587s-9.665 21.587-21.587 21.587c-11.922 0-21.587-9.665-21.587-21.587v0c0.027-11.911 9.676-21.56 21.585-21.587h0.003zM700.192 297.911l-366.502 183.251 21.491 42.887 366.502-183.251zM355.181 481.163l-21.443 42.887 366.502 183.251 21.443-42.887z" />
<glyph unicode="&#xe94e;" glyph-name="shield-chat-thin" horiz-adv-x="1058" d="M527.687 294.889l-5.661 1.391c-116.567 29.014-201.579 132.775-201.579 256.391 0 0.444 0.001 0.888 0.003 1.332v-0.068 150.679l207.237 51.569 207.093-54.208v-148.040c0.003-0.453 0.004-0.99 0.004-1.527 0-123.582-84.965-227.32-199.667-255.984l-1.817-0.384zM368.421 667.1v-113.165c-0.006-0.622-0.010-1.358-0.010-2.094 0-98.942 66.802-182.282 157.765-207.378l1.511-0.356c92.471 25.433 159.276 108.763 159.276 207.696 0 0.749-0.004 1.498-0.011 2.245l0.001-0.114v111.006l-159.265 41.735zM207.237 938.667h643.298c114.399-0.136 207.101-92.838 207.237-207.224v-457.661c-0.136-114.399-92.838-207.101-207.224-207.237h-269.277l-306.394-151.878v151.878h-67.64c-114.399 0.136-207.101 92.838-207.237 207.224v457.661c0.136 114.399 92.838 207.101 207.224 207.237h0.013zM850.535 114.516c87.916 0.109 159.156 71.349 159.265 159.255v457.658c-0.109 87.916-71.349 159.156-159.255 159.265h-643.308c-87.916-0.109-159.156-71.349-159.265-159.255v-457.658c0.109-87.916 71.349-159.156 159.255-159.265h115.622v-122.519l247.197 122.519z" />
<glyph unicode="&#xe94f;" glyph-name="shield-message-thin" horiz-adv-x="1060" d="M530.145 245.863l-5.687 1.398c-116.921 28.905-202.283 132.794-202.516 256.66v153.575l208.203 54.509 208.203-54.509v-153.549c-0.24-123.861-85.549-227.729-200.599-256.304l-1.82-0.382zM370.138 620.291v-116.343c0.248-99.241 67.262-182.762 158.487-208.036l1.521-0.36c92.736 25.648 159.742 109.16 160.007 208.365v116.373l-160.008 41.881zM208.203 938.667h643.886c114.932-0.137 208.066-93.271 208.203-208.189v-459.794c-0.137-114.932-93.271-208.066-208.189-208.203h-174.142l-147.814-147.814-147.814 147.814h-174.129c-114.932 0.137-208.066 93.271-208.203 208.189v459.794c0.137 114.932 93.271 208.066 208.189 208.203h0.013zM852.088 110.676c88.326 0.11 159.898 71.682 160.008 159.997v459.792c-0.11 88.326-71.682 159.898-159.997 160.008h-643.896c-88.326-0.11-159.898-71.682-160.008-159.997v-459.792c0.11-88.326 71.682-159.898 159.997-160.008h194.092l127.861-127.861 127.861 127.861z" />
<glyph unicode="&#xe950;" glyph-name="signal-chat-thin" horiz-adv-x="1058" d="M734.924 365.407h-47.972v320.45h47.972zM551.672 365.407h-47.972v228.824h47.972zM368.421 365.407h-47.972v137.199h47.972zM207.237 938.667h643.298c114.399-0.136 207.101-92.838 207.237-207.224v-457.661c-0.136-114.399-92.838-207.101-207.224-207.237h-269.277l-306.394-151.878v151.878h-67.64c-114.399 0.136-207.101 92.838-207.237 207.224v457.661c0.136 114.399 92.838 207.101 207.224 207.237h0.013zM850.535 114.516c87.916 0.109 159.156 71.349 159.265 159.255v457.658c-0.109 87.916-71.349 159.156-159.255 159.265h-643.308c-87.916-0.109-159.156-71.349-159.265-159.255v-457.658c0.109-87.916 71.349-159.156 159.255-159.265h115.622v-122.519l247.197 122.519z" />
<glyph unicode="&#xe951;" glyph-name="signal-message-thin" horiz-adv-x="1060" d="M738.348 362.736h-48.195v321.943h48.195zM554.243 362.736h-48.195v229.89h48.195zM370.138 362.736h-48.195v137.838h48.195zM208.203 938.667h643.886c114.932-0.137 208.066-93.271 208.203-208.189v-459.794c-0.137-114.932-93.271-208.066-208.189-208.203h-174.142l-147.814-147.814-147.814 147.814h-174.129c-114.932 0.137-208.066 93.271-208.203 208.189v459.794c0.137 114.932 93.271 208.066 208.189 208.203h0.013zM852.088 110.676c88.326 0.11 159.898 71.682 160.008 159.997v459.792c-0.11 88.326-71.682 159.898-159.997 160.008h-643.896c-88.326-0.11-159.898-71.682-160.008-159.997v-459.792c0.11-88.326 71.682-159.898 159.997-160.008h194.092l127.861-127.861 127.861 127.861z" />
<glyph unicode="&#xe952;" glyph-name="star-chat-thin" horiz-adv-x="1058" d="M207.237 938.667h643.298c114.399-0.136 207.101-92.838 207.237-207.224v-457.661c-0.136-114.399-92.838-207.101-207.224-207.237h-269.277l-306.394-151.878v151.878h-67.64c-114.399 0.136-207.101 92.838-207.237 207.224v457.661c0.136 114.399 92.838 207.101 207.224 207.237h0.013zM850.535 114.516c87.916 0.109 159.156 71.349 159.265 159.255v457.658c-0.109 87.916-71.349 159.156-159.255 159.265h-643.308c-87.916-0.109-159.156-71.349-159.265-159.255v-457.658c0.109-87.916 71.349-159.156 159.255-159.265h115.622v-122.519l247.197 122.519zM527.687 685.857l56.606-120.408 126.645-19.668-91.626-93.544 21.587-132.881-113.213 62.843-113.213-62.843 21.587 132.881-91.626 93.544 126.645 19.668z" />
<glyph unicode="&#xe953;" glyph-name="star-comment-thin" horiz-adv-x="1060" d="M530.145 684.679l56.87-120.97 127.235-19.76-92.053-93.98 21.688-133.5-113.74 63.136-113.74-63.136 21.688 133.5-92.053 93.98 127.235 19.76zM208.203 938.667h643.886c114.932-0.137 208.066-93.271 208.203-208.189v-459.794c-0.137-114.932-93.271-208.066-208.189-208.203h-174.142l-147.814-147.814-147.814 147.814h-174.129c-114.932 0.137-208.066 93.271-208.203 208.189v459.794c0.137 114.932 93.271 208.066 208.189 208.203h0.013zM852.088 110.676c88.326 0.11 159.898 71.682 160.008 159.997v459.792c-0.11 88.326-71.682 159.898-159.997 160.008h-643.896c-88.326-0.11-159.898-71.682-160.008-159.997v-459.792c0.11-88.326 71.682-159.898 159.997-160.008h194.092l127.861-127.861 127.861 127.861z" />
<glyph unicode="&#xe954;" glyph-name="star-messages-thin" horiz-adv-x="1083" d="M682.011 555.836l43.794-93.001 97.43-14.762-70.366-72.334 16.238-101.859-87.097 48.223-87.097-48.223 16.73 101.859-70.366 72.334 97.43 14.762zM494.531 703.457h375.45c117.345-0.14 212.435-95.229 212.575-212.561v-576.228l-175.571 176.161h-412.946c-0.005 0-0.011 0-0.017 0-117.13 0-212.083 94.953-212.083 212.083 0 0.934 0.006 1.867 0.018 2.799l-0.001-0.141v185.314c0.14 117.345 95.229 212.435 212.561 212.575h0.013zM1033.349 33.748v457.134c-0.112 90.18-73.187 163.256-163.357 163.368h-375.461c-90.18-0.112-163.256-73.187-163.368-163.357v-185.866c-0.018-0.909-0.029-1.98-0.029-3.054 0-14.071 1.806-27.72 5.198-40.728l-0.248 1.119c18.65-70.893 82.173-122.329 157.71-122.329 0.086 0 0.172 0 0.259 0h433.402zM212.575 938.667h378.255c116.189-1.582 209.77-96.141 209.77-212.556 0-0.007 0-0.013 0-0.020v0.001-73.811h-306.068c-90.18-0.112-163.256-73.187-163.368-163.357v-165.347h-155.741l-175.423-172.963v575.477c0.14 117.345 95.229 212.435 212.561 212.575h0.013zM590.485 889.46h-377.911c-90.18-0.112-163.256-73.187-163.368-163.357v-457.637l106.041 104.319h126.708v116.129c0.14 117.345 95.229 212.435 212.561 212.575h256.875v24.604c-0.343 89.227-71.885 161.632-160.745 163.365l-0.163 0.003z" />
<glyph unicode="&#xe955;" glyph-name="star-message-thin" horiz-adv-x="1056" d="M512 938.667c282.641-0.32 511.68-229.359 512-511.969v-0.031c0.002-0.579 0.004-1.265 0.004-1.951 0-128.801-48.172-246.35-127.482-335.615l0.451 0.517 159.386-174.95h-544.358c-282.77 0-512 229.23-512 512s229.23 512 512 512v0zM940.442-34.133l-113.357 124.467 16.742 17.254c79.774 81.855 128.976 193.836 128.976 317.308 0 0.623-0.001 1.245-0.004 1.867v-0.097c0 254.493-206.307 460.8-460.8 460.8s-460.8-206.307-460.8-460.8c0-254.493 206.307-460.8 460.8-460.8v0zM512 621.227l59.904-128 134.656-20.48-97.28-99.84 23.040-140.8-120.32 66.56-120.32-66.56 23.040 140.8-97.28 99.84 134.656 20.48z" />
<glyph unicode="&#xe956;" glyph-name="user-chats-thin" horiz-adv-x="1083" d="M729.249 467.755c0-38.862-31.504-70.366-70.366-70.366s-70.366 31.504-70.366 70.366c0 38.862 31.504 70.366 70.366 70.366s70.366-31.504 70.366-70.366zM494.531 703.457h375.45c117.345-0.14 212.435-95.229 212.575-212.561v-576.228l-175.571 176.161h-412.946c-0.005 0-0.011 0-0.017 0-117.13 0-212.083 94.953-212.083 212.083 0 0.934 0.006 1.867 0.018 2.799l-0.001-0.141v185.314c0.14 117.345 95.229 212.435 212.561 212.575h0.013zM1033.349 33.748v457.134c-0.112 90.18-73.187 163.256-163.357 163.368h-375.461c-90.18-0.112-163.256-73.187-163.368-163.357v-185.866c-0.018-0.909-0.029-1.98-0.029-3.054 0-14.071 1.806-27.72 5.198-40.728l-0.248 1.119c18.65-70.893 82.173-122.329 157.71-122.329 0.086 0 0.172 0 0.259 0h433.402zM212.575 938.667h378.255c116.189-1.582 209.77-96.141 209.77-212.556 0-0.007 0-0.013 0-0.020v0.001-73.811h-306.068c-90.18-0.112-163.256-73.187-163.368-163.357v-165.347h-155.741l-175.423-172.963v575.477c0.14 117.345 95.229 212.435 212.561 212.575h0.013zM590.485 889.46h-377.911c-90.18-0.112-163.256-73.187-163.368-163.357v-457.637l106.041 104.319h126.708v116.129c0.14 117.345 95.229 212.435 212.561 212.575h256.875v24.604c-0.343 89.227-71.885 161.632-160.745 163.365l-0.163 0.003zM658.883 394.928v0c64.951 0 117.605-52.654 117.605-117.605v0-23.619h-235.21v23.619c0 64.951 52.654 117.605 117.605 117.605v0z" />
<glyph unicode="&#xe957;" glyph-name="user-chat-thin" horiz-adv-x="1056" d="M512 938.667c282.641-0.32 511.68-229.359 512-511.969v-0.031c0.002-0.579 0.004-1.265 0.004-1.951 0-128.801-48.172-246.35-127.482-335.615l0.451 0.517 159.386-174.95h-544.358c-282.77 0-512 229.23-512 512s229.23 512 512 512v0zM940.442-34.133l-113.357 124.467 16.742 17.254c79.774 81.855 128.976 193.836 128.976 317.308 0 0.623-0.001 1.245-0.004 1.867v-0.097c0 254.493-206.307 460.8-460.8 460.8s-460.8-206.307-460.8-460.8c0-254.493 206.307-460.8 460.8-460.8v0zM609.28 523.947c0-53.726-43.554-97.28-97.28-97.28s-97.28 43.554-97.28 97.28c0 53.726 43.554 97.28 97.28 97.28s97.28-43.554 97.28-97.28zM512 426.667v0c80.589 0 145.92-65.331 145.92-145.92v0-51.2h-291.84v51.2c0 80.589 65.331 145.92 145.92 145.92v0z" />
<glyph unicode="&#xe958;" glyph-name="user-comment-thin" horiz-adv-x="1060" d="M208.203 938.667h643.886c114.932-0.137 208.066-93.271 208.203-208.189v-459.794c-0.137-114.932-93.271-208.066-208.189-208.203h-174.142l-147.814-147.814-147.814 147.814h-174.129c-114.932 0.137-208.066 93.271-208.203 208.189v459.794c0.137 114.932 93.271 208.066 208.189 208.203h0.013zM852.088 110.676c88.326 0.11 159.898 71.682 160.008 159.997v459.792c-0.11 88.326-71.682 159.898-159.997 160.008h-643.896c-88.326-0.11-159.898-71.682-160.008-159.997v-459.792c0.11-88.326 71.682-159.898 159.997-160.008h194.092l127.861-127.861 127.861 127.861zM622.198 592.627c0-50.839-41.213-92.053-92.053-92.053s-92.053 41.213-92.053 92.053c0 50.839 41.213 92.053 92.053 92.053s92.053-41.213 92.053-92.053zM530.145 500.574v0c76.126 0 137.838-61.712 137.838-137.838v0-48.195h-275.676v48.195c0 76.126 61.712 137.838 137.838 137.838v0z" />
<glyph unicode="&#xe959;" glyph-name="user-message-thin" horiz-adv-x="1058" d="M207.237 938.667h643.298c114.399-0.136 207.101-92.838 207.237-207.224v-457.661c-0.136-114.399-92.838-207.101-207.224-207.237h-269.277l-306.394-151.878v151.878h-67.64c-114.399 0.136-207.101 92.838-207.237 207.224v457.661c0.136 114.399 92.838 207.101 207.224 207.237h0.013zM850.535 114.516c87.916 0.109 159.156 71.349 159.265 159.255v457.658c-0.109 87.916-71.349 159.156-159.255 159.265h-643.308c-87.916-0.109-159.156-71.349-159.265-159.255v-457.658c0.109-87.916 71.349-159.156 159.255-159.265h115.622v-122.519l247.197 122.519zM619.312 594.231c0-50.603-41.022-91.626-91.626-91.626s-91.626 41.022-91.626 91.626c0 50.603 41.022 91.626 91.626 91.626s91.626-41.022 91.626-91.626zM527.687 502.606v0c75.773 0 137.199-61.426 137.199-137.199v0-47.972h-274.397v47.972c0 75.773 61.426 137.199 137.199 137.199v0z" />
<glyph unicode="&#xe95a;" glyph-name="video-chat-thin" horiz-adv-x="1060" d="M208.203 938.667h643.886c114.932-0.137 208.066-93.271 208.203-208.189v-459.794c-0.137-114.932-93.271-208.066-208.189-208.203h-174.142l-147.814-147.814-147.814 147.814h-174.129c-114.932 0.137-208.066 93.271-208.203 208.189v459.794c0.137 114.932 93.271 208.066 208.189 208.203h0.013zM852.088 110.676c88.326 0.11 159.898 71.682 160.008 159.997v459.792c-0.11 88.326-71.682 159.898-159.997 160.008h-643.896c-88.326-0.11-159.898-71.682-160.008-159.997v-459.792c0.11-88.326 71.682-159.898 159.997-160.008h194.092l127.861-127.861 127.861 127.861zM276.158 662.991h324.353v-370.138h-324.353zM552.315 614.796h-227.963v-273.748h227.963zM704.274 662.509h79.859v-370.138h-79.907l-151.911 152.441v65.738zM735.938 614.314h-11.711l-123.717-123.717v-25.833l123.765-124.199h11.663z" />
<glyph unicode="&#xe95b;" glyph-name="video-message-thin" horiz-adv-x="1058" d="M274.877 664.27h322.848v-368.421h-322.848zM549.754 616.298h-226.905v-272.478h226.905zM701.008 663.79h79.489v-368.421h-79.537l-151.206 151.734v65.433zM732.525 615.819h-11.657l-123.143-123.143v-25.713l123.191-123.623h11.609zM207.237 938.667h643.298c114.399-0.136 207.101-92.838 207.237-207.224v-457.661c-0.136-114.399-92.838-207.101-207.224-207.237h-269.277l-306.394-151.878v151.878h-67.64c-114.399 0.136-207.101 92.838-207.237 207.224v457.661c0.136 114.399 92.838 207.101 207.224 207.237h0.013zM850.535 114.516c87.916 0.109 159.156 71.349 159.265 159.255v457.658c-0.109 87.916-71.349 159.156-159.255 159.265h-643.308c-87.916-0.109-159.156-71.349-159.265-159.255v-457.658c0.109-87.916 71.349-159.156 159.255-159.265h115.622v-122.519l247.197 122.519z" />
<glyph unicode="&#xe95c;" glyph-name="wifi-chat-thin" horiz-adv-x="1060" d="M575.931 362.736c0-25.287-20.499-45.785-45.785-45.785s-45.785 20.499-45.785 45.785c0 25.287 20.499 45.785 45.785 45.785s45.785-20.499 45.785-45.785zM654.778 443.029c-32.271 32.276-76.855 52.239-126.102 52.239s-93.831-19.963-126.102-52.239v0l-34.074 34.074c40.992 40.994 97.623 66.35 160.176 66.35s119.184-25.356 160.176-66.35v0zM763.747 550.504c-59.862 59.592-142.418 96.432-233.577 96.432s-173.715-36.84-233.59-96.445l0.012 0.012-34.074 34.122c68.594 68.288 163.193 110.504 267.651 110.504s199.057-42.216 267.665-110.518l-0.014 0.014zM208.203 938.667h643.886c114.932-0.137 208.066-93.271 208.203-208.189v-459.794c-0.137-114.932-93.271-208.066-208.189-208.203h-174.142l-147.814-147.814-147.814 147.814h-174.129c-114.932 0.137-208.066 93.271-208.203 208.189v459.794c0.137 114.932 93.271 208.066 208.189 208.203h0.013zM852.088 110.676c88.326 0.11 159.898 71.682 160.008 159.997v459.792c-0.11 88.326-71.682 159.898-159.997 160.008h-643.896c-88.326-0.11-159.898-71.682-160.008-159.997v-459.792c0.11-88.326 71.682-159.898 159.997-160.008h194.092l127.861-127.861 127.861 127.861z" />
<glyph unicode="&#xe95d;" glyph-name="wifi-message-thin" horiz-adv-x="1058" d="M207.237 938.667h643.298c114.399-0.136 207.101-92.838 207.237-207.224v-457.661c-0.136-114.399-92.838-207.101-207.224-207.237h-269.277l-306.394-151.878v151.878h-67.64c-114.399 0.136-207.101 92.838-207.237 207.224v457.661c0.136 114.399 92.838 207.101 207.224 207.237h0.013zM850.535 114.516c87.916 0.109 159.156 71.349 159.265 159.255v457.658c-0.109 87.916-71.349 159.156-159.255 159.265h-643.308c-87.916-0.109-159.156-71.349-159.265-159.255v-457.658c0.109-87.916 71.349-159.156 159.255-159.265h115.622v-122.519l247.197 122.519zM573.26 365.407c0-25.169-20.404-45.573-45.573-45.573s-45.573 20.404-45.573 45.573c0 25.169 20.404 45.573 45.573 45.573s45.573-20.404 45.573-45.573zM651.741 445.328c-32.121 32.126-76.499 51.997-125.517 51.997s-93.396-19.871-125.517-51.997v0l-33.916 33.916c40.802 40.804 97.17 66.042 159.433 66.042s118.632-25.238 159.433-66.042v0zM760.205 552.304c-59.585 59.316-141.757 95.985-232.494 95.985s-172.909-36.669-232.506-95.997l0.012 0.012-33.916 33.964c68.276 67.971 162.436 109.991 266.41 109.991s198.134-42.020 266.424-110.005l-0.014 0.014z" />
<glyph unicode="&#xe95e;" glyph-name="xmark-chats-thin" horiz-adv-x="1083" d="M770.534 262.758l-225.369 234.718 35.528 34.051 225.369-234.718zM590.042 262.758l-35.478 34.101 225.369 234.718 35.478-34.101zM494.531 703.457h375.45c117.345-0.14 212.435-95.229 212.575-212.561v-576.228l-175.571 176.161h-412.946c-0.005 0-0.011 0-0.017 0-117.13 0-212.083 94.953-212.083 212.083 0 0.934 0.006 1.867 0.018 2.799l-0.001-0.141v185.314c0.14 117.345 95.229 212.435 212.561 212.575h0.013zM1033.349 33.748v457.134c-0.112 90.18-73.187 163.256-163.357 163.368h-375.461c-90.18-0.112-163.256-73.187-163.368-163.357v-185.866c-0.018-0.909-0.029-1.98-0.029-3.054 0-14.071 1.806-27.72 5.198-40.728l-0.248 1.119c18.65-70.893 82.173-122.329 157.71-122.329 0.086 0 0.172 0 0.259 0h433.402zM212.575 938.667h378.255c116.189-1.582 209.77-96.141 209.77-212.556 0-0.007 0-0.013 0-0.020v0.001-73.811h-306.068c-90.18-0.112-163.256-73.187-163.368-163.357v-165.347h-155.741l-175.423-172.963v575.477c0.14 117.345 95.229 212.435 212.561 212.575h0.013zM590.485 889.46h-377.911c-90.18-0.112-163.256-73.187-163.368-163.357v-457.637l106.041 104.319h126.708v116.129c0.14 117.345 95.229 212.435 212.561 212.575h256.875v24.604c-0.343 89.227-71.885 161.632-160.745 163.365l-0.163 0.003z" />
<glyph unicode="&#xe95f;" glyph-name="xmark-chat-thin" horiz-adv-x="1056" d="M512 938.667c282.641-0.32 511.68-229.359 512-511.969v-0.031c0.002-0.579 0.004-1.265 0.004-1.951 0-128.801-48.172-246.35-127.482-335.615l0.451 0.517 159.386-174.95h-544.358c-282.77 0-512 229.23-512 512s229.23 512 512 512v0zM940.442-34.133l-113.357 124.467 16.742 17.254c79.774 81.855 128.976 193.836 128.976 317.308 0 0.623-0.001 1.245-0.004 1.867v-0.097c0 254.493-206.307 460.8-460.8 460.8s-460.8-206.307-460.8-460.8c0-254.493 206.307-460.8 460.8-460.8v0zM627.661 260.984l-284.16 295.936 36.966 35.43 284.16-295.936zM392.243 260.984l-36.915 35.482 284.16 295.936 36.915-35.482z" />
<glyph unicode="&#xe960;" glyph-name="xmark-comment-thin" horiz-adv-x="1060" d="M363.101 299.408l-34.074 34.074 368.21 368.21 34.074-34.074zM697.189 299.408l-368.21 368.21 34.122 34.122 368.21-368.21zM208.203 938.667h643.886c114.932-0.137 208.066-93.271 208.203-208.189v-459.794c-0.137-114.932-93.271-208.066-208.189-208.203h-174.142l-147.814-147.814-147.814 147.814h-174.129c-114.932 0.137-208.066 93.271-208.203 208.189v459.794c0.137 114.932 93.271 208.066 208.189 208.203h0.013zM852.088 110.676c88.326 0.11 159.898 71.682 160.008 159.997v459.792c-0.11 88.326-71.682 159.898-159.997 160.008h-643.896c-88.326-0.11-159.898-71.682-160.008-159.997v-459.792c0.11-88.326 71.682-159.898 159.997-160.008h194.092l127.861-127.861 127.861 127.861z" />
<glyph unicode="&#xe961;" glyph-name="xmark-message-thin" horiz-adv-x="1058" d="M407.47 348.473l-33.964 33.868 274.397 274.877 33.964-33.868zM647.903 348.473l-274.397 274.877 33.964 33.868 274.397-274.877zM207.237 938.667h643.298c114.399-0.136 207.101-92.838 207.237-207.224v-457.661c-0.136-114.399-92.838-207.101-207.224-207.237h-269.277l-306.394-151.878v151.878h-67.64c-114.399 0.136-207.101 92.838-207.237 207.224v457.661c0.136 114.399 92.838 207.101 207.224 207.237h0.013zM850.535 114.516c87.916 0.109 159.156 71.349 159.265 159.255v457.658c-0.109 87.916-71.349 159.156-159.255 159.265h-643.308c-87.916-0.109-159.156-71.349-159.265-159.255v-457.658c0.109-87.916 71.349-159.156 159.255-159.265h115.622v-122.519l247.197 122.519z" />
<glyph unicode="&#xe962;" glyph-name="add-chat" horiz-adv-x="1071" d="M512 938.667c282.633-0.341 511.659-229.368 512-511.968v-0.032c0.002-0.518 0.003-1.131 0.003-1.743 0-124.959-45.345-239.327-120.478-327.548l0.592 0.712 167.337-183.421h-559.454c-282.77 0-512 229.23-512 512s229.23 512 512 512v0zM901.62-10.406l-99.453 109.193 24.526 25.275c75.695 77.636 122.383 183.863 122.383 300.994 0 0.566-0.001 1.133-0.003 1.699v-0.088c0 241.389-195.684 437.073-437.073 437.073s-437.073-195.684-437.073-437.073c0-241.389 195.684-437.073 437.073-437.073v0zM701.815 389.204h-379.629v74.927h379.629zM549.463 236.852h-74.927v379.629h74.927z" />
<glyph unicode="&#xe963;" glyph-name="add-chats" horiz-adv-x="1047" d="M168.006 760.888h533.338c92.745-0.106 167.9-75.262 168.006-167.996v-355.569c-0.106-92.745-75.262-167.9-167.996-168.006h-53.996v-154.649l-309.95 154.649h-169.402c-92.745 0.106-167.9 75.262-168.006 167.996v355.569c0.106 92.745 75.262 167.9 167.996 168.006h0.010zM701.344 139.125c54.212 0.053 98.144 43.986 98.198 98.192v355.564c-0.053 54.212-43.986 98.144-98.192 98.198h-533.343c-54.212-0.053-98.144-43.986-98.198-98.192v-355.564c0.053-54.212 43.986-98.144 98.192-98.198h186.162l223.388-111.694v111.694zM881.218 247.096h-46.772v69.809h46.26c53.105 1.182 95.801 44.106 96.614 97.189l0.001 0.078v356.49c0 54.233-43.965 98.198-98.198 98.198v0h-533.338c-54.233 0-98.198-43.965-98.198-98.198v0-46.539h-69.809v46.539c0 92.787 75.219 168.006 168.006 168.006v0h533.338c92.787 0 168.006-75.219 168.006-168.006v0-356.722c-0.645-91.477-74.299-165.539-165.556-166.841l-0.123-0.001zM612.455 380.198h-355.559v69.809h355.559zM469.58 237.323h-69.809v355.559h69.809z" />
<glyph unicode="&#xe964;" glyph-name="add-comment" horiz-adv-x="1054" d="M750.743 465.821h-447.072v70.294h447.072zM562.354 277.432h-70.294v447.072h70.294zM214.163 938.667h626.088c118.225-0.133 214.030-95.938 214.163-214.15v-447.085c-0.133-118.225-95.938-214.030-214.15-214.163h-164.455l-148.602-148.602-148.602 148.602h-164.442c-118.225 0.133-214.030 95.938-214.163 214.15v447.085c0.133 118.225 95.938 214.030 214.15 214.163h0.013zM840.251 133.563c79.424 0.080 143.789 64.445 143.869 143.861v447.080c-0.080 79.424-64.445 143.789-143.861 143.869h-626.095c-79.424-0.080-143.789-64.445-143.869-143.861v-447.080c0.080-79.424 64.445-143.789 143.861-143.869h193.598l119.453-119.453 119.453 119.453z" />
<glyph unicode="&#xe965;" glyph-name="add-comments" horiz-adv-x="1055" d="M664.198 759.61c0.173 0.001 0.378 0.001 0.584 0.001 58.261 0 111.046-23.449 149.431-61.424l-0.019 0.019c39.255-38.883 63.604-92.754 63.748-152.312v-268.613c-0.133-118.252-95.96-214.079-214.199-214.212h-75.011l-150.98-148.402-148.589 148.402h-74.951c-118.252 0.133-214.079 95.96-214.212 214.199v268.599c0 118.047 95.696 213.743 213.743 213.743v0h450.455zM663.73 133.379c79.443 0.080 143.822 64.459 143.902 143.894v268.594c-0.111 39.996-16.474 76.148-42.83 102.219l-0.013 0.013c-25.742 25.482-61.165 41.226-100.266 41.226-0.922 0-1.841-0.009-2.759-0.026l0.138 0.002h-448.158c-79.216 0-143.433-64.217-143.433-143.433v0-268.586c0.080-79.443 64.459-143.822 143.894-143.902h104.114l119.715-119.715 121.871 119.715zM840.443 242.126v70.31c0.001 0 0.002 0 0.003 0 79.475 0 143.902 64.427 143.902 143.902 0 0.33-0.001 0.659-0.003 0.988v-0.051 267.179c0 79.475-64.427 143.902-143.902 143.902v0h-447.174c-79.475 0-143.902-64.427-143.902-143.902v0h-70.31c0 118.306 95.906 214.212 214.212 214.212v0h447.174c118.306 0 214.212-95.906 214.212-214.212v0-267.179c0.001-0.279 0.002-0.608 0.002-0.937 0-118.306-95.906-214.212-214.212-214.212-0.001 0-0.002 0-0.002 0v0zM616.856 376.184h-358.114v70.31h358.114zM472.954 232.282h-70.31v358.114h70.31z" />
<glyph unicode="&#xe966;" glyph-name="add-message" horiz-adv-x="1050" d="M701.472 469.002h-355.623v69.821h355.623zM558.571 326.101h-69.821v355.623h69.821zM212.722 938.667h624.203c117.43-0.132 212.59-95.292 212.722-212.71v-444.077c-0.132-117.43-95.292-212.59-212.71-212.722h-258.538l-311.869-154.491v154.491h-53.809c-117.43 0.132-212.59 95.292-212.722 212.71v444.077c0.132 117.43 95.292 212.59 212.71 212.722h0.013zM836.925 138.98c78.89 0.079 142.822 64.011 142.901 142.893v444.072c-0.079 78.89-64.011 142.822-142.893 142.901h-624.21c-78.89-0.079-142.822-64.011-142.901-142.893v-444.072c0.079-78.89 64.011-142.822 142.893-142.901h123.824v-111.714l225.476 111.714z" />
<glyph unicode="&#xe967;" glyph-name="add-messages" horiz-adv-x="1063" d="M802.563 371.485h-270.829v70.898h270.829zM702.36 271.283h-70.898v270.829h70.898zM486.831 712.739h360.633c119.24-0.134 215.867-96.761 216.002-215.989v-582.084l-185.327 185.988h-391.781c-0.005 0-0.010 0-0.016 0-119.033 0-215.529 96.496-215.529 215.529 0 0.914 0.006 1.827 0.017 2.738l-0.001-0.139v177.953c0.134 119.24 96.761 215.867 215.989 216.002h0.013zM992.569 86.24v410.498c-0.081 80.106-64.998 145.023-145.096 145.104h-360.641c-80.106-0.081-145.023-64.998-145.104-145.096v-178.718c-0.004-0.402-0.006-0.878-0.006-1.354 0-12.962 1.727-25.521 4.964-37.459l-0.231 1c16.529-62.989 72.948-108.702 140.046-108.71h421.228zM216.002 938.667h363.469c118.069-1.6 213.166-97.686 213.166-215.983 0-0.007 0-0.013 0-0.020v0.001-82.714h-305.806c-80.106-0.081-145.023-64.998-145.104-145.096v-170.635h-156.542l-185.185-182.585v581.031c0.134 119.24 96.761 215.867 215.989 216.002h0.013zM578.715 867.769h-362.713c-80.106-0.081-145.023-64.998-145.104-145.096v-411.546l85.077 83.99h114.854v99.73c0.134 119.24 96.761 215.867 215.989 216.002h234.921v11.816c-0.305 79.289-63.909 143.621-142.885 145.102l-0.139 0.002z" />
</font>
</defs>
</svg>
