<?xml version="1.0" standalone="no"?>
<!DOCTYPE svg PUBLIC "-//W3C//DTD SVG 1.1//EN" "http://www.w3.org/Graphics/SVG/1.1/DTD/svg11.dtd" >
<svg xmlns="http://www.w3.org/2000/svg">
<metadata>Generated by IcoMoon</metadata>
<defs>
<font id="electronic-gadget" horiz-adv-x="1024">
<font-face units-per-em="1024" ascent="960" descent="-64" />
<missing-glyph horiz-adv-x="1024" />
<glyph unicode="&#x20;" horiz-adv-x="512" d="" />
<glyph unicode="&#xe900;" glyph-name="airpods-thin" d="M289.978 670.1h-133.585v46.545h133.585zM239.383 938.667h0.977c107.208-7.513 204.732-43.453 286.71-100.247l-1.899 1.244 10.1-6.935v-278.668l-10.1-6.935c-80.061-55.672-177.564-91.76-282.96-99.36l-1.852-0.107h-0.838q-7.587-0.233-15.174 0v-532.992h-224.349v778.566c-0.015 1.018-0.024 2.22-0.024 3.424 0 132.421 106.344 240.005 238.288 242.008l0.188 0.002zM488.727 808.014c-70.977 46.903-156.619 77.348-248.852 84.009l-1.702 0.099c-106.302-2.155-191.65-88.837-191.65-195.453 0-1.044 0.008-2.087 0.025-3.127l-0.002 0.157v-732.486h131.258v539.183l26.857-4.189c8.374-1.379 18.024-2.167 27.858-2.167 1.792 0 3.578 0.026 5.357 0.078l-0.261-0.006c94.253 6.807 180.168 37.42 253.309 85.793l-1.963-1.22zM867.607 136.689h-133.585v46.545h133.585zM784.617-85.333h-0.977c-107.208 7.513-204.732 43.453-286.71 100.247l1.899-1.244-10.1 6.935v278.807l10.24 6.935c80.235 54.834 177.798 90.111 283.112 96.959l1.7 0.088h1.583q7.168 0 14.336-0.512v535.785h224.303v-778.566c0.015-1.018 0.024-2.22 0.024-3.424 0-132.421-106.344-240.005-238.288-242.008l-0.188-0.002zM535.273 45.32c70.977-46.903 156.619-77.348 248.852-84.009l1.702-0.099c106.302 2.155 191.65 88.837 191.65 195.453 0 1.044-0.008 2.087-0.025 3.127l0.002-0.157v732.486h-131.258v-543.977l-27.927 5.399c-9.739 1.987-20.983 3.185-32.485 3.304l-0.097 0.001c-93.715-6.258-179.344-36.101-252.46-83.584l2.046 1.245z" />
<glyph unicode="&#xe901;" glyph-name="audio-player-thin" d="M112.175 938.667h799.651c61.92-0.079 112.095-50.254 112.175-112.167v-799.659c-0.079-61.92-50.254-112.095-112.167-112.175h-799.659c-61.92 0.079-112.095 50.254-112.175 112.167v799.659c0.079 61.92 50.254 112.095 112.167 112.175h0.008zM911.825-38.788c36.225 0.053 65.576 29.404 65.629 65.624v799.656c-0.053 36.225-29.404 65.576-65.624 65.629h-799.656c-36.225-0.053-65.576-29.404-65.629-65.624v-799.656c0.053-36.225 29.404-65.576 65.624-65.629h0.005zM512 805.547c209.25 0 378.88-169.63 378.88-378.88s-169.63-378.88-378.88-378.88c-209.25 0-378.88 169.63-378.88 378.88v0c0.238 209.153 169.726 378.642 378.857 378.88h0.023zM512 94.332c183.543 0 332.335 148.791 332.335 332.335s-148.791 332.335-332.335 332.335c-183.543 0-332.335-148.791-332.335-332.335v0c0.212-183.458 148.876-332.123 332.314-332.335h0.020zM578.56 559.787h-133.12l66.56 133.585zM445.44 293.547h133.12l-66.56-133.585zM645.12 360.107v133.12l133.585-66.56zM378.88 493.227v-133.12l-133.585 66.56zM512 494.158c37.274 0 67.491-30.217 67.491-67.491s-30.217-67.491-67.491-67.491c-37.274 0-67.491 30.217-67.491 67.491v0c0.053 37.253 30.238 67.438 67.486 67.491h0.005zM512 405.722c11.568 0 20.945 9.378 20.945 20.945s-9.378 20.945-20.945 20.945c-11.568 0-20.945-9.378-20.945-20.945v0c0.026-11.557 9.388-20.919 20.943-20.945h0.003z" />
<glyph unicode="&#xe902;" glyph-name="cable-charge-thin" horiz-adv-x="1034" d="M356.963 445.503h318.868v-158.023c0-0.007 0-0.016 0-0.024 0-61.771-49.414-112.001-110.87-113.318l-0.123-0.002h-94.532c-62.598 0-113.344 50.746-113.344 113.344v0zM628.801 398.472h-224.807v-110.993c0-36.624 29.689-66.313 66.313-66.313v0h93.779c35.851 1.095 64.521 30.325 64.714 66.294v0.019zM630.682 398.942h-226.688v202.702h47.031v-155.672h132.627v155.672h47.031zM605.568-85.333c-61.747 0.129-111.753 50.215-111.753 111.98 0 0.48 0.003 0.959 0.009 1.437l-0.001-0.073v169.64h47.031v-170.11c-0.004-0.281-0.007-0.613-0.007-0.946 0-35.845 29.058-64.902 64.902-64.902 4.446 0 8.787 0.447 12.981 1.298l-0.417-0.071c212.32 48.124 368.455 235.213 368.455 458.768 0 259.484-210.353 469.837-469.837 469.837s-469.837-210.353-469.837-469.837c0-129.664 52.525-247.060 137.458-332.071l-0.004 0.004-33.251-33.251c-93.427 93.517-151.207 222.661-151.207 365.301 0 285.458 231.41 516.868 516.868 516.868s516.868-231.41 516.868-516.868c0-246.025-171.891-451.902-402.129-504.087l-3.461-0.66h-0.423c-6.681-1.421-14.363-2.242-22.234-2.257h-0.012z" />
<glyph unicode="&#xe903;" glyph-name="cable-thin" d="M0 760.863h313.251v-156.393c-0.079-61.92-50.254-112.095-112.167-112.175h-88.91c-61.92 0.079-112.095 50.254-112.175 112.167v0.008zM266.705 714.318h-220.16v-109.847c0.053-36.225 29.404-65.576 65.624-65.629h88.907c36.225 0.053 65.576 29.404 65.629 65.624v0.005zM44.218 938.667h224.349v-224.349h-224.349zM222.022 892.122h-131.258v-131.258h131.258zM1024 92.471h-313.251v156.393c0.079 61.92 50.254 112.095 112.167 112.175h88.91c61.92-0.079 112.095-50.254 112.175-112.167v-0.008zM757.295 139.016h220.16v109.847c-0.053 36.225-29.404 65.576-65.624 65.629h-88.907c-36.225-0.053-65.576-29.404-65.629-65.624v-0.005zM979.316-85.333h-224.349v224.349h224.349zM801.513-38.788h131.258v131.258h-131.258zM334.196-85.333c-111.051 0-201.076 90.025-201.076 201.076v0 399.825h46.545v-399.825c0-85.345 69.186-154.531 154.531-154.531s154.531 69.186 154.531 154.531v0 621.847c0 111.051 90.025 201.076 201.076 201.076s201.076-90.025 201.076-201.076v0-399.825h-46.545v399.825c0 85.345-69.186 154.531-154.531 154.531s-154.531-69.186-154.531-154.531v-621.847c0-111.051-90.025-201.076-201.076-201.076v0z" />
<glyph unicode="&#xe904;" glyph-name="cable-usb-thin" horiz-adv-x="1034" d="M356.963 445.503h318.868v-158.023c0-0.007 0-0.016 0-0.024 0-61.771-49.414-112.001-110.87-113.318l-0.123-0.002h-94.532c-62.598 0-113.344 50.746-113.344 113.344v0zM628.801 398.472h-224.807v-110.993c0-36.624 29.689-66.313 66.313-66.313v0h93.779c35.851 1.095 64.521 30.325 64.714 66.294v0.019zM403.994 625.16h226.688v-226.688h-226.688zM583.651 578.129h-132.627v-132.627h132.627zM605.568-85.333c-61.747 0.129-111.753 50.215-111.753 111.98 0 0.48 0.003 0.959 0.009 1.437l-0.001-0.073v169.64h47.031v-170.11c-0.004-0.281-0.007-0.613-0.007-0.946 0-35.845 29.058-64.902 64.902-64.902 4.446 0 8.787 0.447 12.981 1.298l-0.417-0.071c212.32 48.124 368.455 235.213 368.455 458.768 0 259.484-210.353 469.837-469.837 469.837s-469.837-210.353-469.837-469.837c0-129.664 52.525-247.060 137.458-332.071l-0.004 0.004-33.251-33.251c-93.427 93.517-151.207 222.661-151.207 365.301 0 285.458 231.41 516.868 516.868 516.868s516.868-231.41 516.868-516.868c0-246.025-171.891-451.902-402.129-504.087l-3.461-0.66h-0.423c-6.681-1.421-14.363-2.242-22.234-2.257h-0.012z" />
<glyph unicode="&#xe905;" glyph-name="camcorder-back-thin" d="M112.175 803.22h425.984l-3.072-25.972c-0.237-1.907-0.372-4.115-0.372-6.353s0.135-4.446 0.397-6.615l-0.026 0.261v-278.295c-0.013-0.54-0.020-1.177-0.020-1.815 0-46.014 37.302-83.316 83.316-83.316 0.007 0 0.014 0 0.021 0h275.269c18.462 0.687 35.285 7.179 48.833 17.691l-0.193-0.144 37.236 28.719v-378.647c-0.495-61.703-50.343-111.6-111.98-112.174h-755.395c-61.92 0.079-112.095 50.254-112.175 112.167v622.321c0.079 61.92 50.254 112.095 112.167 112.175h0.008zM488.727 756.674h-376.553c-36.225-0.053-65.576-29.404-65.629-65.624v-622.318c0.053-36.225 29.404-65.576 65.624-65.629h755.438c36.147 0.366 65.343 29.61 65.629 65.741v292.705c-11.351-4.021-24.456-6.558-38.087-7.022l-0.22-0.006h-276.34c-0.008 0-0.016 0-0.025 0-71.721 0-129.862 58.141-129.862 129.862 0 0.9 0.009 1.798 0.027 2.694l-0.002-0.134zM894.138 892.122c0.158 0.001 0.345 0.001 0.532 0.001 35.359 0 67.398-14.219 90.71-37.25l-0.013 0.013c23.862-23.672 38.633-56.476 38.633-92.731 0-0.127 0-0.253-0.001-0.38v0.020-275.084c0-0.085 0-0.186 0-0.287 0-43.15-21.091-81.374-53.526-104.926l-0.374-0.259c-21.074-15.191-47.399-24.32-75.852-24.39h-276.125c-0.11 0-0.24-0.001-0.37-0.001-35.617 0-67.851 14.484-91.133 37.883l-0.005 0.005c-23.415 23.556-37.888 56.023-37.888 91.871 0 0.069 0 0.138 0 0.207v-0.011 273.734c-0.387 3.324-0.608 7.175-0.608 11.078s0.221 7.754 0.651 11.542l-0.043-0.464v1.164c10.592 61.814 63.78 108.265 127.817 108.265 0.032 0 0.063 0 0.095 0h277.499zM894.138 403.394c18.357 0.053 35.329 5.941 49.171 15.904l-0.251-0.172c20.941 15.246 34.397 39.678 34.397 67.253 0 0.084 0 0.167 0 0.251v-0.013 275.177c0 0.089 0.001 0.194 0.001 0.299 0 23.247-9.468 44.282-24.758 59.461l-0.005 0.005c-14.969 14.854-35.588 24.034-58.351 24.034-0.579 0-1.156-0.006-1.732-0.018l0.086 0.001h-275.968c-40.693-0.226-74.447-29.655-81.38-68.383l-0.075-0.504c-0.216-1.823-0.339-3.934-0.339-6.074s0.123-4.251 0.363-6.327l-0.024 0.253v-277.83c0-0.074 0-0.161 0-0.248 0-22.95 9.263-43.736 24.255-58.823l-0.004 0.004c14.907-14.98 35.539-24.251 58.337-24.251 0.093 0 0.185 0 0.278 0h276.001zM756.364 759.002c74.291 0 134.516-60.225 134.516-134.516s-60.225-134.516-134.516-134.516c-74.291 0-134.516 60.225-134.516 134.516v0c0.079 74.259 60.257 134.437 134.509 134.516h0.008zM756.364 536.514c48.585 0 87.971 39.386 87.971 87.971s-39.386 87.971-87.971 87.971c-48.585 0-87.971-39.386-87.971-87.971v0c0.053-48.564 39.407-87.918 87.966-87.971h0.005zM822.924 134.362h-88.902v46.545h88.902zM645.12 134.362h-88.902v46.545h88.902zM133.12 625.416h268.567v-268.567h-268.567zM355.142 578.871h-175.476v-175.476h175.476z" />
<glyph unicode="&#xe906;" glyph-name="camera-device-thin" d="M0 760.863h1024v-846.196h-1024zM977.455 714.318h-930.909v-753.105h930.909zM600.902 583.060c135.472 0 245.295-109.822 245.295-245.295s-109.822-245.295-245.295-245.295c-135.472 0-245.295 109.822-245.295 245.295v0c0.159 135.408 109.886 245.136 245.279 245.295h0.015zM600.902 139.016c109.766 0 198.749 88.983 198.749 198.749s-88.983 198.749-198.749 198.749c-109.766 0-198.749-88.983-198.749-198.749v0c0.132-109.713 89.036-198.617 198.737-198.749h0.012zM491.194 727.164l-82.479 164.957h-282.159l-82.479-164.957-41.612 20.666 95.279 190.836h339.782l95.325-190.836zM245.295 536.514h-88.902v46.545h88.902zM245.295 359.176h-88.902v46.545h88.902z" />
<glyph unicode="&#xe907;" glyph-name="camera-photography-thin" d="M321.769 938.667h380.509l88.995-133.12h232.727v-890.88h-1024v890.88h232.727zM677.376 892.122h-330.752l-88.902-133.12h-211.177v-797.789h930.909v797.789h-211.177zM512 672.427c160.151 0 289.978-129.828 289.978-289.978s-129.828-289.978-289.978-289.978c-160.151 0-289.978 129.828-289.978 289.978v0c0.185 160.076 129.902 289.793 289.961 289.978h0.017zM512 139.016c134.444 0 243.433 108.989 243.433 243.433s-108.989 243.433-243.433 243.433c-134.444 0-243.433-108.989-243.433-243.433v0c0.159-134.38 109.052-243.274 243.418-243.433h0.015z" />
<glyph unicode="&#xe908;" glyph-name="charging-cable-thin" horiz-adv-x="579" d="M0 583.060h579.491v-334.196c-0.106-86.331-70.062-156.287-156.383-156.393h-266.716c-86.331 0.106-156.287 70.062-156.393 156.383v0.010zM532.945 536.514h-486.4v-287.651c0.079-60.635 49.212-109.768 109.84-109.847h266.713c60.635 0.079 109.768 49.212 109.847 109.84v0.008zM177.338 139.016h224.349v-224.349h-224.349zM355.142 92.471h-131.258v-131.258h131.258zM156.393 938.667h266.705c61.92-0.079 112.095-50.254 112.175-112.167v-289.986h-491.055v289.978c0.079 61.92 50.254 112.095 112.167 112.175h0.008zM488.727 583.060v243.433c-0.053 36.225-29.404 65.576-65.624 65.629h-266.71c-36.225-0.053-65.576-29.404-65.629-65.624v-243.438zM156.393 938.667h266.705c61.952 0 112.175-50.222 112.175-112.175s-50.222-112.175-112.175-112.175v0h-266.705c-61.952 0-112.175 50.222-112.175 112.175s50.222 112.175 112.175 112.175v0zM423.098 760.863c36.246 0 65.629 29.383 65.629 65.629s-29.383 65.629-65.629 65.629v0h-266.705c-36.246 0-65.629-29.383-65.629-65.629s29.383-65.629 65.629-65.629v0z" />
<glyph unicode="&#xe909;" glyph-name="chip-computer-thin" d="M312.988 747.669h398.024c67.342-0.076 121.914-54.647 121.99-121.982v-398.031c-0.076-67.342-54.647-121.914-121.982-121.99h-398.032c-67.342 0.076-121.914 54.647-121.99 121.982v398.031c0.076 67.342 54.647 121.914 121.982 121.99h0.007zM711.012 150.187c42.764 0.051 77.417 34.704 77.468 77.463v398.029c-0.051 42.764-34.704 77.417-77.463 77.468h-398.029c-42.764-0.051-77.417-34.704-77.468-77.463v-398.029c0.051-42.764 34.704-77.417 77.463-77.468h0.005zM321.002 725.408h-44.522v213.259h44.522zM534.261 725.408h-44.522v213.259h44.522zM747.52 725.408h-44.522v213.259h44.522zM321.002-85.333h-44.522v213.259h44.522zM534.261-85.333h-44.522v213.259h44.522zM747.52-85.333h-44.522v213.259h44.522zM213.259 191.147h-213.259v44.522h213.259zM213.259 404.406h-213.259v44.522h213.259zM213.259 617.665h-213.259v44.522h213.259zM1024 191.147h-213.259v44.522h213.259zM1024 404.406h-213.259v44.522h213.259zM1024 617.665h-213.259v44.522h213.259zM725.259 597.185c0-23.605-19.136-42.741-42.741-42.741s-42.741 19.136-42.741 42.741c0 23.605 19.136 42.741 42.741 42.741s42.741-19.136 42.741-42.741z" />
<glyph unicode="&#xe90a;" glyph-name="chip-memory-thin" d="M472.762 20.791h-472.762v801.513h1024v-757.295h-461.871zM46.545 67.336h415.325l89.367 44.218h426.217v664.204h-930.909zM268.567 44.063h-46.545v88.902h46.545zM1000.727 598.42h-133.12v46.545h133.12zM1000.727 420.616h-133.12v46.545h133.12zM1000.727 242.812h-133.12v46.545h133.12zM177.804 644.965h268.567v-402.153h-268.567zM399.825 598.42h-175.476v-309.062h175.476zM624.175 221.402h-46.545v444.509h46.545z" />
<glyph unicode="&#xe90b;" glyph-name="computer-chip-thin" d="M225.28 832.705h573.885c65.867-0.076 119.242-53.451 119.318-119.311v-573.892c-0.076-65.867-53.451-119.242-119.311-119.318h-573.893c-65.867 0.076-119.242 53.451-119.318 119.311v573.892c0.076 65.867 53.451 119.242 119.311 119.318h0.007zM799.165 64.705c41.289 0.051 74.746 33.508 74.797 74.792v573.89c-0.051 41.289-33.508 74.746-74.792 74.797h-573.89c-41.289-0.051-74.746-33.508-74.797-74.792v-573.89c0.051-41.289 33.508-74.746 74.792-74.797h0.005zM384.223 662.187h255.555c59.474-0.076 107.667-48.269 107.743-107.735v-255.562c-0.076-59.474-48.269-107.667-107.735-107.743h-255.562c-59.474 0.076-107.667 48.269-107.743 107.735v255.562c0.076 59.474 48.269 107.667 107.735 107.743h0.007zM639.777 235.669c34.895 0.051 63.17 28.325 63.221 63.216v255.56c-0.051 34.895-28.325 63.17-63.216 63.221h-255.56c-34.895-0.051-63.17-28.325-63.221-63.216v-255.56c0.051-34.895 28.325-63.17 63.216-63.221h0.005zM321.002 853.185h-44.522v85.482h44.522zM534.261 853.185h-44.522v85.482h44.522zM747.52 853.185h-44.522v85.482h44.522zM321.002-85.333h-44.522v85.482h44.522zM534.261-85.333h-44.522v85.482h44.522zM747.52-85.333h-44.522v85.482h44.522zM85.482 191.147h-85.482v44.522h85.482zM85.482 404.406h-85.482v44.522h85.482zM85.482 617.665h-85.482v44.522h85.482zM1024 191.147h-85.482v44.522h85.482zM1024 404.406h-85.482v44.522h85.482zM1024 617.665h-85.482v44.522h85.482z" />
<glyph unicode="&#xe90c;" glyph-name="computer-memory-thin" d="M107.297-22.112h-44.522v871.736h-62.776v44.522h107.297zM62.776 809.109h938.963v-683.409h-342.817v42.741h-223.989l-42.296-42.741h-329.862zM957.217 764.587h-849.92v-594.365h266.685l42.296 42.741h287.165v-42.741h253.774zM62.776 638.59h257.336v-342.817h-257.336zM275.59 594.069h-168.292v-253.774h168.292zM446.108 596.295h385.113v-215.040h-385.113zM786.699 551.773h-296.070v-125.997h296.070zM533.37 574.034h-44.522v85.037h44.522zM661.148 574.034h-44.522v85.037h44.522zM788.925 574.034h-44.522v85.037h44.522zM533.37 318.479h-44.522v85.037h44.522zM661.148 318.479h-44.522v85.037h44.522zM788.925 318.479h-44.522v85.037h44.522z" />
<glyph unicode="&#xe90d;" glyph-name="computer-monitor-thin" d="M357.004-66.668l-45.615 9.309 44.684 221.975 45.615-9.309zM822.924-85.333h-621.847v46.545h621.847zM112.175 938.667h799.651c61.92-0.079 112.095-50.254 112.175-112.167v-577.637c-0.079-61.92-50.254-112.095-112.167-112.175h-799.659c-61.92 0.079-112.095 50.254-112.175 112.167v577.637c0.079 61.92 50.254 112.095 112.167 112.175h0.008zM911.825 183.234c36.225 0.053 65.576 29.404 65.629 65.624v577.634c-0.053 36.225-29.404 65.576-65.624 65.629h-799.656c-36.225-0.053-65.576-29.404-65.629-65.624v-577.634c0.053-36.225 29.404-65.576 65.624-65.629h0.005zM663.738-66.622l-44.218 221.929 45.615 9.309 44.218-222.022zM1000.727 314.492h-977.455v46.545h977.455z" />
<glyph unicode="&#xe90e;" glyph-name="computer-screen-thin" d="M112.175 938.667h799.651c61.92-0.079 112.095-50.254 112.175-112.167v-577.637c-0.079-61.92-50.254-112.095-112.167-112.175h-799.659c-61.92 0.079-112.095 50.254-112.175 112.167v577.637c0.079 61.92 50.254 112.095 112.167 112.175h0.008zM911.825 183.234c36.225 0.053 65.576 29.404 65.629 65.624v577.634c-0.053 36.225-29.404 65.576-65.624 65.629h-799.656c-36.225-0.053-65.576-29.404-65.629-65.624v-577.634c0.053-36.225 29.404-65.576 65.624-65.629h0.005zM718.243-85.333h-412.486l54.039 268.567h304.361zM362.636-38.788h298.775l-35.328 175.476h-228.073zM822.924-85.333h-621.847v46.545h621.847zM556.218 293.547c0-24.421-19.797-44.218-44.218-44.218s-44.218 19.797-44.218 44.218c0 24.421 19.797 44.218 44.218 44.218s44.218-19.797 44.218-44.218z" />
<glyph unicode="&#xe90f;" glyph-name="cpu-thin" d="M183.529 938.667h656.943l183.529-641.862v-382.138h-1024v382.138zM805.236 892.122h-586.473l-172.218-601.833v-329.076h930.909v329.076zM867.142 115.743c0-24.421-19.797-44.218-44.218-44.218s-44.218 19.797-44.218 44.218c0 24.421 19.797 44.218 44.218 44.218s44.218-19.797 44.218-44.218zM689.804 92.471h-177.804v46.545h177.804zM1000.727 270.274h-977.455v46.545h977.455z" />
<glyph unicode="&#xe910;" glyph-name="curved-tv-thin" d="M0 892.122l27.462-5.027c145.685-27.888 313.247-43.843 484.535-43.846h0.003c171.313 0.036 338.87 16.023 501.294 46.557l-16.755-2.618 27.462 4.934v-767.069l-27.462 5.027c-145.686 27.96-313.244 43.955-484.538 43.955s-338.855-15.995-501.267-46.573l16.729 2.619-27.462-5.027zM512 796.703c-0.023 0-0.054 0-0.084 0-164.415 0-325.456 14.443-481.925 42.13l16.554-2.427v-655.639c139.94 25.345 301.005 39.837 465.455 39.837s325.514-14.492 481.987-42.269l-16.532 2.432v655.639c-139.914-25.26-300.956-39.703-465.371-39.703-0.030 0-0.061 0-0.091 0h0.007zM535.273-24.824h-46.545v222.487h46.545zM734.022-48.097h-444.044v46.545h444.044z" />
<glyph unicode="&#xe911;" glyph-name="disk-reader-thin" horiz-adv-x="846" d="M112.175 938.667h621.847c61.92-0.079 112.095-50.254 112.175-112.167v-799.659c-0.079-61.92-50.254-112.095-112.167-112.175h-621.855c-61.92 0.079-112.095 50.254-112.175 112.167v799.659c0.079 61.92 50.254 112.095 112.167 112.175h0.008zM734.022-38.788c36.225 0.053 65.576 29.404 65.629 65.624v799.656c-0.053 36.225-29.404 65.576-65.624 65.629h-621.852c-36.225-0.053-65.576-29.404-65.629-65.624v-799.656c0.053-36.225 29.404-65.576 65.624-65.629h0.005zM423.098 760.863c135.472 0 245.295-109.822 245.295-245.295s-109.822-245.295-245.295-245.295c-135.472 0-245.295 109.822-245.295 245.295v0c0.159 135.408 109.886 245.136 245.279 245.295h0.015zM423.098 316.82c109.766 0 198.749 88.983 198.749 198.749s-88.983 198.749-198.749 198.749c-109.766 0-198.749-88.983-198.749-198.749v0c0.132-109.713 89.036-198.617 198.737-198.749h0.012zM606.767 298.946l-133.585 133.585 32.954 32.954 133.585-133.585zM467.316 515.569c0-24.421-19.797-44.218-44.218-44.218s-44.218 19.797-44.218 44.218c0 24.421 19.797 44.218 44.218 44.218s44.218-19.797 44.218-44.218zM645.12 92.471h-444.044v46.545h444.044z" />
<glyph unicode="&#xe912;" glyph-name="drawing-tablet-thin" horiz-adv-x="1047" d="M114.73 938.667h817.867c63.331-0.081 114.649-51.399 114.73-114.722v-545.094c-0.081-63.331-51.399-114.649-114.722-114.73h-817.875c-63.331 0.081-114.649 51.399-114.73 114.722v545.094c0.081 63.331 51.399 114.649 114.722 114.73h0.008zM932.597 211.727c37.050 0.054 67.070 30.074 67.124 67.119v545.091c-0.054 37.050-30.074 67.070-67.119 67.124h-817.872c-37.050-0.054-67.070-30.074-67.124-67.119v-545.091c0.054-37.050 30.074-67.070 67.119-67.124h0.005zM273.733 551.632c0-37.597-30.479-68.076-68.076-68.076s-68.076 30.479-68.076 68.076c0 37.597 30.479 68.076 68.076 68.076s68.076-30.479 68.076-68.076zM250.882 709.207h-90.927v47.606h90.927zM250.882 345.975h-90.927v47.606h90.927zM23.803-16.781l136.152 22.851c24.464-2.183 43.497-22.583 43.497-47.428 0-19.288-11.471-35.898-27.964-43.378l-0.299-0.121c0-4.285-142.817 22.375-151.386 22.851-11.126 1.664-19.561 11.153-19.561 22.613s8.435 20.949 19.436 22.597l0.126 0.015zM1023.524-62.958h-863.569c-13.146 0-23.803 10.657-23.803 23.803v0c0 13.146 10.657 23.803 23.803 23.803v0h863.569c13.146 0 23.803-10.657 23.803-23.803v0c0-13.146-10.657-23.803-23.803-23.803v0z" />
<glyph unicode="&#xe913;" glyph-name="drone-thin" d="M178.735 581.198c-98.712 0-178.735 80.022-178.735 178.735s80.022 178.735 178.735 178.735c98.712 0 178.735-80.022 178.735-178.735v0h-46.545c0 73.006-59.183 132.189-132.189 132.189s-132.189-59.183-132.189-132.189c0-73.006 59.183-132.189 132.189-132.189v0zM178.735-85.333c-98.712 0-178.735 80.022-178.735 178.735s80.022 178.735 178.735 178.735v0-46.545c-73.006 0-132.189-59.183-132.189-132.189s59.183-132.189 132.189-132.189c73.006 0 132.189 59.183 132.189 132.189v0h46.545c-0.106-98.67-80.065-178.629-178.724-178.735h-0.010zM845.265 581.198v46.545c73.006 0 132.189 59.183 132.189 132.189s-59.183 132.189-132.189 132.189c-73.006 0-132.189-59.183-132.189-132.189h-46.545c0 98.712 80.022 178.735 178.735 178.735s178.735-80.022 178.735-178.735c0-98.712-80.022-178.735-178.735-178.735v0zM845.265-85.333c-98.67 0.106-178.629 80.065-178.735 178.724v0.010h46.545c0-73.006 59.183-132.189 132.189-132.189s132.189 59.183 132.189 132.189c0 73.006-59.183 132.189-132.189 132.189v0 46.545c98.712 0 178.735-80.022 178.735-178.735s-80.022-178.735-178.735-178.735v0zM851.13 54.583l-222.487 222.487 32.954 32.954 222.487-222.487zM362.403 543.31l-222.487 222.487 32.954 32.954 222.487-222.487zM172.87 54.583l-32.908 32.908 222.487 222.487 32.908-32.908zM661.597 543.31l-32.908 32.908 222.487 222.487 32.908-32.908zM512 716.18c86.331-0.106 156.287-70.062 156.393-156.383v-266.25c0-86.373-70.019-156.393-156.393-156.393s-156.393 70.019-156.393 156.393v266.24c0.106 86.331 70.062 156.287 156.383 156.393h0.010zM512 183.7c60.635 0.079 109.768 49.212 109.847 109.84v266.248c0 60.667-49.18 109.847-109.847 109.847s-109.847-49.18-109.847-109.847v-266.24c0.079-60.635 49.212-109.768 109.84-109.847h0.008z" />
<glyph unicode="&#xe914;" glyph-name="dvd-thin" d="M512 938.667c282.763-0.009 511.984-229.236 511.984-512 0-141.381-57.304-269.378-149.953-362.031v0c-92.888-94.106-221.865-152.395-364.456-152.395-282.77 0-512 229.23-512 512 0 142.591 58.29 271.568 152.34 364.402l0.055 0.054c92.145 92.639 219.706 149.971 360.658 149.971 0.483 0 0.966-0.001 1.448-0.002h-0.075zM512-38.788c257.063 0 465.455 208.391 465.455 465.455s-208.391 465.455-465.455 465.455c-257.063 0-465.455-208.391-465.455-465.455v0c0.291-256.946 208.508-465.163 465.427-465.455h0.028zM512.372 271.112c-0.019 0-0.041 0-0.063 0-86.168 0-156.020 69.853-156.020 156.020s69.853 156.020 156.020 156.020c86.168 0 156.020-69.853 156.020-156.020 0-79.072-58.823-144.406-135.096-154.629l-0.8-0.088c-6.023-0.827-12.985-1.3-20.057-1.303h-0.004zM512.372 536.421c-60.41 0-109.382-48.972-109.382-109.382s48.972-109.382 109.382-109.382v0c60.41 0 109.382 48.972 109.382 109.382s-48.972 109.382-109.382 109.382v0zM512 92.471c-184.465 0.265-333.932 149.731-334.196 334.171v0.026h46.545c0.527-158.652 128.998-287.123 287.6-287.651h0.051zM799.651 426.667c-0.527 158.652-128.998 287.123-287.6 287.651h-0.051v46.545c184.465-0.265 333.932-149.731 334.196-334.171v-0.026z" />
<glyph unicode="&#xe915;" glyph-name="earphones-thin" horiz-adv-x="1003" d="M174.618 938.667h3.283c60.167-7.662 114.555-26.802 162.843-55.202l-1.994 1.084 11.398-6.565v-229.648l-11.991-6.474c-34-18.749-73.41-34.692-114.804-45.789l-3.736-0.852v-267.945h-219.617v436.317c0.010 48.36 19.55 92.154 51.162 123.927l-0.007-0.007c31.392 31.598 74.871 51.155 122.916 51.155 0.192 0 0.385 0 0.577-0.001h-0.030zM304.556 851.404c-37.887 20.637-82.087 35.33-128.978 41.466l-1.917 0.205c-35.298-0.173-67.195-14.589-90.267-37.79l-0.006-0.006c-23.357-23.48-37.795-55.851-37.796-91.594v0-390.816h128.57v258.508l17.781 4.012c42.689 9.756 80.259 23.632 115.367 41.632l-2.754-1.282zM45.592 763.593h-45.592v21.428h45.592zM828.41 938.667c0.163 0.001 0.355 0.001 0.547 0.001 48.046 0 91.524-19.558 122.907-51.146l0.009-0.009c31.613-31.773 51.154-75.582 51.154-123.955 0-0.004 0-0.007 0-0.011v0-436.271h-219.754v267.945c-45.129 11.948-84.54 27.892-121.322 48.037l2.782-1.396-11.991 6.474v229.648l11.398 6.565c46.369 27.282 100.845 46.366 158.978 53.719l2.099 0.217h1.368zM957.435 372.868v390.725c0 0.020 0 0.045 0 0.069 0 35.751-14.438 68.129-37.802 91.623l0.006-0.006c-23.078 23.207-54.975 37.623-90.239 37.796h-0.033c-48.809-6.343-93.008-21.036-132.898-42.665l2.003 0.994v-175.667c32.354-16.717 69.924-30.594 109.318-39.707l3.295-0.642 17.781-4.012v-258.508zM1003.028 763.593h-45.592v21.428h45.592zM524.31-85.333h-45.592v195.134h-151.366c-132.635 0.156-240.115 107.636-240.271 240.256v0.015h45.592c0.13-107.466 87.213-194.549 194.666-194.679h196.97zM673.852 109.801h-259.419v45.592h259.419c107.466 0.13 194.549 87.213 194.679 194.666v0.012h45.592c-0.156-132.635-107.636-240.115-240.256-240.271h-0.015z" />
<glyph unicode="&#xe916;" glyph-name="electricity-cable-thin" d="M22.261 706.264h467.478v-232.849c-0.101-82.577-67.016-149.492-149.583-149.593h-168.302c-82.577 0.101-149.492 67.016-149.593 149.583v0.010zM445.217 661.742h-378.435v-188.327c0.076-57.999 47.073-104.995 105.064-105.071h168.299c57.999 0.076 104.995 47.073 105.071 105.064v0.007zM151.819 684.003h-44.522v254.664h44.522zM406.929 684.003h-44.522v254.664h44.522zM149.593 366.117h214.595v-107.297c0-59.259-48.039-107.297-107.297-107.297s-107.297 48.039-107.297 107.297v0zM319.666 321.596h-125.551v-62.776c0-34.67 28.106-62.776 62.776-62.776s62.776 28.106 62.776 62.776v0zM1001.739-80.881h-44.522v594.81c0 81.634-66.178 147.812-147.812 147.812s-147.812-66.178-147.812-147.812v-361.071c0.142-2.911 0.223-6.322 0.223-9.752 0-118.026-95.679-213.704-213.704-213.704s-213.704 95.679-213.704 213.704c0 3.43 0.081 6.841 0.241 10.231l-0.018-0.479v20.925h44.522v-20.925c-0.142-2.591-0.223-5.624-0.223-8.676 0-93.437 75.746-169.183 169.183-169.183s169.183 75.746 169.183 169.183c0 3.052-0.081 6.085-0.24 9.097l0.018-0.421v361.071c0 106.223 86.111 192.334 192.334 192.334s192.334-86.111 192.334-192.334v0z" />
<glyph unicode="&#xe917;" glyph-name="electricity-socket-thin" d="M112.175 938.667h799.651c61.92-0.079 112.095-50.254 112.175-112.167v-799.659c-0.079-61.92-50.254-112.095-112.167-112.175h-799.659c-61.92 0.079-112.095 50.254-112.175 112.167v799.659c0.079 61.92 50.254 112.095 112.167 112.175h0.008zM911.825-38.788c36.225 0.053 65.576 29.404 65.629 65.624v799.656c-0.053 36.225-29.404 65.576-65.624 65.629h-799.656c-36.225-0.053-65.576-29.404-65.629-65.624v-799.656c0.053-36.225 29.404-65.576 65.624-65.629h0.005zM512 760.863c184.572 0 334.196-149.625 334.196-334.196s-149.625-334.196-334.196-334.196c-184.572 0-334.196 149.625-334.196 334.196v0c0.212 184.486 149.71 333.984 334.176 334.196h0.021zM512 139.016c158.865 0 287.651 128.786 287.651 287.651s-128.786 287.651-287.651 287.651c-158.865 0-287.651-128.786-287.651-287.651v0c0.185-158.791 128.86-287.466 287.633-287.651h0.018zM200.611 782.274c0-24.421-19.797-44.218-44.218-44.218s-44.218 19.797-44.218 44.218c0 24.421 19.797 44.218 44.218 44.218s44.218-19.797 44.218-44.218zM911.825 782.274c0-24.421-19.797-44.218-44.218-44.218s-44.218 19.797-44.218 44.218c0 24.421 19.797 44.218 44.218 44.218s44.218-19.797 44.218-44.218zM911.825 71.060c0-24.421-19.797-44.218-44.218-44.218s-44.218 19.797-44.218 44.218c0 24.421 19.797 44.218 44.218 44.218s44.218-19.797 44.218-44.218zM200.611 71.060c0-24.421-19.797-44.218-44.218-44.218s-44.218 19.797-44.218 44.218c0 24.421 19.797 44.218 44.218 44.218s44.218-19.797 44.218-44.218zM402.153 337.765h-46.545v177.804h46.545zM668.393 337.765h-46.545v177.804h46.545z" />
<glyph unicode="&#xe918;" glyph-name="ethernet-port-thin" d="M112.175 938.667h799.651c61.92-0.079 112.095-50.254 112.175-112.167v-799.659c-0.079-61.92-50.254-112.095-112.167-112.175h-799.659c-61.92 0.079-112.095 50.254-112.175 112.167v799.659c0.079 61.92 50.254 112.095 112.167 112.175h0.008zM911.825-38.788c36.225 0.053 65.576 29.404 65.629 65.624v799.656c-0.053 36.225-29.404 65.576-65.624 65.629h-799.656c-36.225-0.053-65.576-29.404-65.629-65.624v-799.656c0.053-36.225 29.404-65.576 65.624-65.629h0.005zM177.804 716.645h668.393v-402.153h-88.902v-88.902h-133.12v-88.902h-224.349v88.902h-133.12v88.902h-88.902zM799.651 670.1h-575.302v-309.062h88.902v-88.902h133.12v-88.902h131.258v88.902h133.12v88.902h88.902zM357.469 559.787h-46.545v133.585h46.545zM535.273 559.787h-46.545v133.585h46.545zM713.076 559.787h-46.545v133.585h46.545z" />
<glyph unicode="&#xe919;" glyph-name="european-plug-thin" d="M22.261 706.264h467.478v-232.849c-0.101-82.577-67.016-149.492-149.583-149.593h-168.302c-82.577 0.101-149.492 67.016-149.593 149.583v0.010zM445.217 661.742h-378.435v-188.327c0.076-57.999 47.073-104.995 105.064-105.071h168.299c57.999 0.076 104.995 47.073 105.071 105.064v0.007zM151.819 684.003h-44.522v254.664h44.522zM406.929 684.003h-44.522v254.664h44.522zM149.593 366.117h214.595v-107.297c0-59.259-48.039-107.297-107.297-107.297s-107.297 48.039-107.297 107.297v0zM319.666 321.596h-125.551v-62.776c0-34.67 28.106-62.776 62.776-62.776s62.776 28.106 62.776 62.776v0zM1001.739-80.881h-44.522v594.81c0 81.634-66.178 147.812-147.812 147.812s-147.812-66.178-147.812-147.812v-361.071c0.142-2.911 0.223-6.322 0.223-9.752 0-118.026-95.679-213.704-213.704-213.704s-213.704 95.679-213.704 213.704c0 3.43 0.081 6.841 0.241 10.231l-0.018-0.479v20.925h44.522v-20.925c-0.142-2.591-0.223-5.624-0.223-8.676 0-93.437 75.746-169.183 169.183-169.183s169.183 75.746 169.183 169.183c0 3.052-0.081 6.085-0.24 9.097l0.018-0.421v361.071c0 106.223 86.111 192.334 192.334 192.334s192.334-86.111 192.334-192.334v0zM279.151 684.003h-44.522v170.073h44.522z" />
<glyph unicode="&#xe91a;" glyph-name="european-socket-thin" d="M112.175 938.667h799.651c61.92-0.079 112.095-50.254 112.175-112.167v-799.659c-0.079-61.92-50.254-112.095-112.167-112.175h-799.659c-61.92 0.079-112.095 50.254-112.175 112.167v799.659c0.079 61.92 50.254 112.095 112.167 112.175h0.008zM911.825-38.788c36.225 0.053 65.576 29.404 65.629 65.624v799.656c-0.053 36.225-29.404 65.576-65.624 65.629h-799.656c-36.225-0.053-65.576-29.404-65.629-65.624v-799.656c0.053-36.225 29.404-65.576 65.624-65.629h0.005zM512 760.863c184.572 0 334.196-149.625 334.196-334.196s-149.625-334.196-334.196-334.196c-184.572 0-334.196 149.625-334.196 334.196v0c0.212 184.486 149.71 333.984 334.176 334.196h0.021zM512 139.016c158.865 0 287.651 128.786 287.651 287.651s-128.786 287.651-287.651 287.651c-158.865 0-287.651-128.786-287.651-287.651v0c0.185-158.791 128.86-287.466 287.633-287.651h0.018zM200.611 782.274c0-24.421-19.797-44.218-44.218-44.218s-44.218 19.797-44.218 44.218c0 24.421 19.797 44.218 44.218 44.218s44.218-19.797 44.218-44.218zM911.825 782.274c0-24.421-19.797-44.218-44.218-44.218s-44.218 19.797-44.218 44.218c0 24.421 19.797 44.218 44.218 44.218s44.218-19.797 44.218-44.218zM911.825 71.060c0-24.421-19.797-44.218-44.218-44.218s-44.218 19.797-44.218 44.218c0 24.421 19.797 44.218 44.218 44.218s44.218-19.797 44.218-44.218zM200.611 71.060c0-24.421-19.797-44.218-44.218-44.218s-44.218 19.797-44.218 44.218c0 24.421 19.797 44.218 44.218 44.218s44.218-19.797 44.218-44.218zM402.153 293.547h-46.545v133.12h46.545zM668.393 293.547h-46.545v133.12h46.545zM535.273 470.885h-46.545v133.585h46.545z" />
<glyph unicode="&#xe91b;" glyph-name="flashlight-thin" d="M911.825 682.667c33.885 0 63.907-28.3 84.48-79.639 17.728-46.994 27.99-101.318 27.99-158.038 0-2.678-0.023-5.351-0.068-8.019l0.005 0.401c0.040-2.266 0.063-4.939 0.063-7.617 0-56.72-10.263-111.043-29.032-161.214l1.042 3.176c-20.573-51.2-50.548-79.639-84.48-79.639s-63.907 28.3-84.247 79.639c-17.728 46.994-27.99 101.318-27.99 158.038 0 2.678 0.023 5.351 0.068 8.019l-0.005-0.401c-0.040 2.266-0.063 4.939-0.063 7.617 0 56.72 10.263 111.043 29.032 161.214l-1.042-3.176c20.34 51.34 50.362 79.639 84.247 79.639zM911.825 238.623c9.728 0 26.345 13.219 41.239 50.409 15.502 41.682 24.472 89.837 24.472 140.086 0 2.902-0.030 5.797-0.089 8.685l0.007-0.431c0.059 2.602 0.093 5.669 0.093 8.744 0 50.067-8.905 98.054-25.217 142.463l0.921-2.867c-15.081 37.19-31.697 50.409-41.425 50.409s-26.345-13.219-41.239-50.409c-15.502-41.682-24.472-89.837-24.472-140.086 0-2.902 0.030-5.797 0.089-8.685l-0.007 0.431c-0.053-2.457-0.082-5.352-0.082-8.254 0-50.25 8.97-98.405 25.397-142.95l-0.924 2.864c14.895-37.19 31.465-50.409 41.239-50.409zM911.825 192.078h-177.804c-70.237 0-112.175 124.742-112.175 245.295-0.041 2.282-0.064 4.973-0.064 7.67 0 56.67 10.263 110.943 29.032 161.062l-1.041-3.17c20.62 51.2 50.595 79.732 84.387 79.732h177.804v-46.545c-26.112 0-65.629-79.127-65.629-198.749s39.517-198.749 65.629-198.749zM734.022 636.122c-26.112 0-65.629-79.127-65.629-198.749-0.030-1.842-0.047-4.016-0.047-6.194 0-50.949 9.285-99.728 26.256-144.74l-0.935 2.826c13.964-34.769 30.86-50.641 40.355-50.641h109.94c-5.879 9.422-11.426 20.344-16.014 31.753l-0.509 1.434c-17.644 46.846-27.858 100.994-27.858 157.527 0 2.825 0.026 5.644 0.076 8.457l-0.006-0.422c-0.041 2.282-0.064 4.973-0.064 7.67 0 56.67 10.263 110.943 29.032 161.062l-1.041-3.17c5.098 12.843 10.644 23.765 17.049 34.098l-0.526-0.911zM678.307 227.918l-389.725 53.062h-198.749c-51.2 0-89.833 67.212-89.833 156.393s38.633 156.393 89.833 156.393h198.749l389.725 53.062 6.237-46.127-392.983-53.481h-201.728c-17.222 0-43.287-43.799-43.287-109.847s26.065-109.847 43.287-109.847h201.728l392.983-53.062zM267.636 280.98c-50.362 0-89.833 68.701-89.833 156.393s39.471 156.393 89.833 156.393v-46.545c-14.848 0-43.287-42.775-43.287-109.847s28.439-109.847 43.287-109.847zM512 414.1h-88.902v46.545h88.902z" />
<glyph unicode="&#xe91c;" glyph-name="floppy-disk-thin" d="M1024-85.333h-1024v1024h832.559l191.441-191.441zM46.545-38.788h930.909v766.743l-164.166 164.166h-766.743zM264.378 938.667h493.382v-245.295c0-38.56-31.259-69.818-69.818-69.818v0h-353.745c-38.56 0-69.818 31.259-69.818 69.818v0zM711.215 892.122h-400.291v-198.749c0-12.853 10.42-23.273 23.273-23.273v0h353.745c12.853 0 23.273 10.42 23.273 23.273v0zM222.022 316.82h579.491v-402.153h-579.491zM754.967 270.274h-486.4v-309.062h486.4zM645.12 92.471h-266.24v46.545h266.24z" />
<glyph unicode="&#xe91d;" glyph-name="hard-disk-thin" d="M156.393 716.645h311.389c86.331-0.106 156.287-70.062 156.393-156.383v-489.203c-0.106-86.331-70.062-156.287-156.383-156.393h-311.399c-86.331 0.106-156.287 70.062-156.393 156.383v489.203c0.106 86.331 70.062 156.287 156.383 156.393h0.010zM467.782-38.788c60.635 0.079 109.768 49.212 109.847 109.84v489.201c-0.079 60.635-49.212 109.768-109.84 109.847h-311.397c-60.635-0.079-109.768-49.212-109.847-109.84v-489.201c0.079-60.635 49.212-109.768 109.84-109.847h0.008zM245.295 515.569c0-24.421-19.797-44.218-44.218-44.218s-44.218 19.797-44.218 44.218c0 24.421 19.797 44.218 44.218 44.218s44.218-19.797 44.218-44.218zM201.076 270.274h-177.804v46.545h177.804zM600.902 270.274h-177.804v46.545h177.804zM201.076 92.471h-177.804v46.545h177.804zM600.902 92.471h-177.804v46.545h177.804zM935.098 248.863h-46.545v444.509c-0.474 109.591-89.201 198.302-198.753 198.749h-88.898c-109.766 0-198.749-88.983-198.749-198.749v0h-46.545c0 135.472 109.822 245.295 245.295 245.295v0h88.902c135.233-0.553 244.715-110.018 245.294-245.192v-0.056zM911.825 316.82c61.92-0.079 112.095-50.254 112.175-112.167v-112.183h-224.349v112.175c0.079 61.92 50.254 112.095 112.167 112.175h0.008zM977.455 139.016v65.629c0 36.246-29.383 65.629-65.629 65.629s-65.629-29.383-65.629-65.629v0-65.629zM844.335 139.016h135.447v-135.447h-135.447zM933.236 92.471h-42.356v-42.356h42.356z" />
<glyph unicode="&#xe91e;" glyph-name="hardware-thin" horiz-adv-x="846" d="M112.175 938.667h621.847c61.92-0.079 112.095-50.254 112.175-112.167v-799.659c-0.079-61.92-50.254-112.095-112.167-112.175h-621.855c-61.92 0.079-112.095 50.254-112.175 112.167v799.659c0.079 61.92 50.254 112.095 112.167 112.175h0.008zM734.022-38.788c36.225 0.053 65.576 29.404 65.629 65.624v799.656c-0.053 36.225-29.404 65.576-65.624 65.629h-621.852c-36.225-0.053-65.576-29.404-65.629-65.624v-799.656c0.053-36.225 29.404-65.576 65.624-65.629h0.005zM177.804 938.667h490.589v-600.902c0-135.472-109.822-245.295-245.295-245.295s-245.295 109.822-245.295 245.295v0 187.439l44.218 44.218v158.86l-44.218 46.545zM621.847 892.122h-397.498v-98.676l44.218-46.545v-196.748l-44.218-44.218v-168.169c0-109.766 88.983-198.749 198.749-198.749s198.749 88.983 198.749 198.749v0zM423.098 405.256c37.274 0 67.491-30.217 67.491-67.491s-30.217-67.491-67.491-67.491c-37.274 0-67.491 30.217-67.491 67.491v0c0.053 37.253 30.238 67.438 67.486 67.491h0.005zM423.098 316.82c11.568 0 20.945 9.378 20.945 20.945s-9.378 20.945-20.945 20.945c-11.568 0-20.945-9.378-20.945-20.945v0c0.026-11.557 9.388-20.919 20.943-20.945h0.003zM200.611 71.060c0-24.421-19.797-44.218-44.218-44.218s-44.218 19.797-44.218 44.218c0 24.421 19.797 44.218 44.218 44.218s44.218-19.797 44.218-44.218zM734.022 71.060c0-24.421-19.797-44.218-44.218-44.218s-44.218 19.797-44.218 44.218c0 24.421 19.797 44.218 44.218 44.218s44.218-19.797 44.218-44.218zM512 714.318h-88.902v46.545h88.902z" />
<glyph unicode="&#xe91f;" glyph-name="headphones-thin" d="M112.175 496.485h112.268v-402.153h-112.175c-0.007 0-0.016 0-0.024 0-61.134 0-110.846 48.904-112.148 109.726l-0.002 0.121v175.43c-0.063 1.403-0.099 3.048-0.099 4.701 0 61.952 50.222 112.175 112.175 112.175 0.002 0 0.004 0 0.006 0v0zM177.897 449.94h-65.722c-36.237-0.012-65.608-29.391-65.608-65.629 0-1.080 0.026-2.155 0.078-3.223l-0.006 0.151v-176.314c1.084-35.481 30.012-63.855 65.61-64.046h65.648zM799.744 496.485h112.175v-46.545h-65.629v-313.251h65.629c36.225 0.053 65.576 29.404 65.629 65.624v178.926c0.046 0.917 0.072 1.992 0.072 3.072 0 36.238-29.371 65.617-65.607 65.629h-0.001v46.545c0.002 0 0.004 0 0.005 0 61.952 0 112.175-50.222 112.175-112.175 0-1.653-0.036-3.298-0.107-4.934l0.008 0.233v-177.292c-0.079-61.92-50.254-112.095-112.167-112.175h-112.183zM689.897-85.333h-177.804v46.545h177.804c85.302 0.106 154.425 69.228 154.531 154.521v0.010h46.545c-0.132-110.998-90.078-200.944-201.064-201.076h-0.013zM890.973 470.885h-46.545v88.902c0 183.543-148.791 332.335-332.335 332.335s-332.335-148.791-332.335-332.335v0-88.902h-46.545v88.902c0 209.25 169.63 378.88 378.88 378.88s378.88-169.63 378.88-378.88v0z" />
<glyph unicode="&#xe920;" glyph-name="keyboard-pointer-up-thin" d="M673.373 688.718l-161.373 160.954-161.373-160.954-32.861 32.954 194.234 193.722 194.234-193.722zM112.175 594.882h799.651c61.92-0.079 112.095-50.254 112.175-112.167v-444.052c-0.079-61.92-50.254-112.095-112.167-112.175h-799.659c-61.92 0.079-112.095 50.254-112.175 112.167v444.052c0.079 61.92 50.254 112.095 112.167 112.175h0.008zM911.825-26.965c36.225 0.053 65.576 29.404 65.629 65.624v444.049c-0.053 36.225-29.404 65.576-65.624 65.629h-799.656c-36.225-0.053-65.576-29.404-65.629-65.624v-444.049c0.053-36.225 29.404-65.576 65.624-65.629h0.005zM689.804 104.293h-355.607v46.545h355.607zM289.978 237.413h-88.902v46.545h88.902zM467.782 237.413h-88.902v46.545h88.902zM645.12 237.413h-88.902v46.545h88.902zM822.924 237.413h-88.902v46.545h88.902zM289.978 370.533h-88.902v46.545h88.902zM467.782 370.533h-88.902v46.545h88.902zM645.12 370.533h-88.902v46.545h88.902zM822.924 370.533h-88.902v46.545h88.902z" />
<glyph unicode="&#xe921;" glyph-name="keyboard-thin" horiz-adv-x="1003" d="M109.926 569.662h783.622c60.679-0.078 109.848-49.247 109.926-109.919v-435.15c-0.078-60.679-49.247-109.848-109.919-109.926h-783.629c-60.679 0.078-109.848 49.247-109.926 109.919v435.15c0.078 60.679 49.247 109.848 109.919 109.926h0.007zM893.548-39.721c35.499 0.052 64.262 28.815 64.314 64.309v435.148c-0.052 35.499-28.815 64.262-64.309 64.314h-783.627c-35.499-0.052-64.262-28.815-64.314-64.309v-435.148c0.052-35.499 28.815-64.262 64.309-64.314h0.005zM675.977 88.451h-348.479v45.612h348.479zM284.166 218.902h-87.12v45.612h87.12zM458.405 218.902h-87.12v45.612h87.12zM632.189 218.902h-87.12v45.612h87.12zM806.428 218.902h-87.12v45.612h87.12zM284.166 349.81h-87.12v45.612h87.12zM458.405 349.81h-87.12v45.612h87.12zM632.189 349.81h-87.12v45.612h87.12zM806.428 349.81h-87.12v45.612h87.12zM350.304 546.856h-45.612v260.903c0 60.71 49.216 109.926 109.926 109.926s109.926-49.216 109.926-109.926v0c0.065-35.47 28.834-64.2 64.314-64.2 35.519 0 64.314 28.794 64.314 64.314 0 0.040 0 0.080 0 0.12v-0.006 130.68h45.612v-130.908c0-60.71-49.216-109.926-109.926-109.926s-109.926 49.216-109.926 109.926v0c0 35.519-28.794 64.314-64.314 64.314s-64.314-28.794-64.314-64.314v0z" />
<glyph unicode="&#xe922;" glyph-name="keyboard-typing-thin" d="M112.175 752.485h799.651c61.92-0.079 112.095-50.254 112.175-112.167v-444.052c-0.079-61.92-50.254-112.095-112.167-112.175h-799.659c-61.92 0.079-112.095 50.254-112.175 112.167v444.052c0.079 61.92 50.254 112.095 112.167 112.175h0.008zM911.825 130.638c36.225 0.053 65.576 29.404 65.629 65.624v444.049c-0.053 36.225-29.404 65.576-65.624 65.629h-799.656c-36.225-0.053-65.576-29.404-65.629-65.624v-444.049c0.053-36.225 29.404-65.576 65.624-65.629h0.005zM689.804 261.896h-355.607v46.545h355.607zM289.978 395.016h-88.902v46.545h88.902zM467.782 395.016h-88.902v46.545h88.902zM645.12 395.016h-88.902v46.545h88.902zM822.924 395.016h-88.902v46.545h88.902zM289.978 528.136h-88.902v46.545h88.902zM467.782 528.136h-88.902v46.545h88.902zM645.12 528.136h-88.902v46.545h88.902zM822.924 528.136h-88.902v46.545h88.902z" />
<glyph unicode="&#xe923;" glyph-name="laptop-screen-thin" d="M201.076 845.576h621.847c61.92-0.079 112.095-50.254 112.175-112.167v-556.226h-846.196v556.218c0.079 61.92 50.254 112.095 112.167 112.175h0.008zM888.553 223.729v509.673c-0.053 36.225-29.404 65.576-65.624 65.629h-621.852c-36.225-0.053-65.576-29.404-65.629-65.624v-509.678zM0 223.729h1024v-112.175c-0.079-61.92-50.254-112.095-112.167-112.175h-799.659c-61.92 0.079-112.095 50.254-112.175 112.167v0.008zM977.455 177.183h-930.909v-65.629c0.053-36.225 29.404-65.576 65.624-65.629h799.656c36.225 0.053 65.576 29.404 65.629 65.624v0.005z" />
<glyph unicode="&#xe924;" glyph-name="laptop-thin" d="M201.076 938.667h621.847c61.92-0.079 112.095-50.254 112.175-112.167v-556.226h-846.196v556.218c0.079 61.92 50.254 112.095 112.167 112.175h0.008zM888.553 316.82v509.673c-0.053 36.225-29.404 65.576-65.624 65.629h-621.852c-36.225-0.053-65.576-29.404-65.629-65.624v-509.678zM95.418 316.82h833.164l90.764-271.5c2.904-9.223 4.602-19.833 4.654-30.833v-0.353c-0.547-54.713-44.754-98.921-99.415-99.467h-824.977c-54.773 0.469-99.059 44.706-99.607 99.415v0.378c0.053 11.026 1.75 21.636 4.86 31.624l-0.205-0.765v0.559zM895.069 270.274h-766.138l-79.779-238.871c-1.603-5.129-2.552-11.031-2.606-17.147v-0.029c0.39-29.186 23.999-52.731 53.174-53.015h824.673c29.142 0.362 52.673 23.877 53.061 52.978v0.037c-0.055 6.144-1.004 12.046-2.722 17.61l0.116-0.435zM600.902 47.787h-177.804v46.545h177.804z" />
<glyph unicode="&#xe925;" glyph-name="memory-card-thin" horiz-adv-x="846" d="M88.902 938.667h654.755l102.4-102.4v-921.6h-846.057v268.567h46.545v173.615h-46.545v254.697l88.902 133.12zM724.387 892.122h-588.94v-161.606l-88.902-133.12v-194.001h46.545v-266.705h-46.545v-175.476h753.105v855.645zM313.251 737.591h-46.545v177.804h46.545zM490.589 737.591h-46.545v177.804h46.545zM668.393 737.591h-46.545v177.804h46.545zM600.902 136.689h-355.607v46.545h355.607z" />
<glyph unicode="&#xe926;" glyph-name="memory-computer-thin" d="M107.297-22.112h-44.522v871.736h-62.776v44.522h107.297zM62.776 809.109h938.963v-683.409h-342.817v42.741h-223.989l-42.296-42.741h-329.862zM957.217 764.587h-849.92v-594.365h266.685l42.296 42.741h287.165v-42.741h253.774zM62.776 638.59h257.336v-342.817h-257.336zM275.59 594.069h-168.292v-253.774h168.292zM660.257 639.036c94.666 0 171.409-76.742 171.409-171.409s-76.742-171.409-171.409-171.409c-94.666 0-171.409 76.742-171.409 171.409v0c0.101 94.626 76.783 171.307 171.399 171.409h0.010zM660.257 340.74c70.078 0 126.887 56.809 126.887 126.887s-56.809 126.887-126.887 126.887c-70.078 0-126.887-56.809-126.887-126.887v0c0.076-70.047 56.84-126.811 126.88-126.887h0.007z" />
<glyph unicode="&#xe927;" glyph-name="memory-ram-thin" d="M0 752.485h1024v-267.45l-22.109-1.071c-0.297 0.015-0.644 0.023-0.994 0.023-11.722 0-21.225-9.503-21.225-21.225s9.503-21.225 21.225-21.225c0.349 0 0.697 0.008 1.042 0.025l-0.049-0.002 22.156-1.071v-356.399h-1024.047v351.325l16.384 5.073c9.562 3.037 16.37 11.836 16.37 22.225s-6.807 19.188-16.205 22.18l-0.165 0.045-16.384 5.12zM977.455 705.94h-930.909v-183.994c19.835-12.543 32.815-34.359 32.815-59.206s-12.98-46.663-32.529-59.037l-0.286-0.169v-272.896h930.909v269.033c-25.149 10.016-42.862 33.599-44.166 61.471l-0.006 0.155v2.048c0.948 28.358 18.769 52.325 43.703 62.253l0.469 0.165zM222.022 574.682h313.251v-224.349h-313.251zM488.727 528.136h-220.16v-131.258h220.16zM488.727 574.682h313.251v-224.349h-313.251zM755.433 528.136h-220.16v-131.258h220.16zM179.665 107.365h-46.545v133.12h46.545zM357.469 107.365h-46.545v133.12h46.545zM535.273 107.365h-46.545v133.12h46.545zM713.076 107.365h-46.545v133.12h46.545zM890.88 107.365h-46.545v133.12h46.545z" />
<glyph unicode="&#xe928;" glyph-name="memory-stick-thin" horiz-adv-x="579" d="M0 671.962h579.491v-600.902c-0.106-86.331-70.062-156.287-156.383-156.393h-266.716c-86.331 0.106-156.287 70.062-156.393 156.383v0.010zM532.945 625.416h-486.4v-554.356c0.079-60.635 49.212-109.768 109.84-109.847h266.713c60.635 0.079 109.768 49.212 109.847 109.84v0.008zM88.436 938.667h402.153v-313.251h-402.153zM444.044 892.122h-309.062v-220.16h309.062zM177.338 671.962h224.349v-467.782c-0.132-61.852-50.304-111.942-112.175-111.942-61.952 0-112.175 50.222-112.175 112.175 0 0.082 0 0.164 0 0.245v-0.013zM355.142 625.416h-131.258v-420.771c0-0.048 0-0.106 0-0.163 0-36.246 29.383-65.629 65.629-65.629 36.189 0 65.536 29.29 65.629 65.458v0.009z" />
<glyph unicode="&#xe929;" glyph-name="microchip-thin" d="M112.175 938.667h799.651c61.92-0.079 112.095-50.254 112.175-112.167v-799.659c-0.079-61.92-50.254-112.095-112.167-112.175h-799.659c-61.92 0.079-112.095 50.254-112.175 112.167v799.659c0.079 61.92 50.254 112.095 112.167 112.175h0.008zM911.825-38.788c36.225 0.053 65.576 29.404 65.629 65.624v799.656c-0.053 36.225-29.404 65.576-65.624 65.629h-799.656c-36.225-0.053-65.576-29.404-65.629-65.624v-799.656c0.053-36.225 29.404-65.576 65.624-65.629h0.005zM222.022 716.645h579.491v-579.491h-579.491zM754.967 670.1h-486.4v-486.4h486.4zM357.469 693.372h-46.545v88.902h46.545zM357.469 71.060h-46.545v88.902h46.545zM535.273 693.372h-46.545v88.902h46.545zM535.273 71.060h-46.545v88.902h46.545zM713.076 693.372h-46.545v88.902h46.545zM713.076 71.060h-46.545v88.902h46.545zM245.295 225.591h-88.902v46.545h88.902zM867.607 225.591h-88.902v46.545h88.902zM245.295 403.394h-88.902v46.545h88.902zM867.607 403.394h-88.902v46.545h88.902zM245.295 581.198h-88.902v46.545h88.902zM867.607 581.198h-88.902v46.545h88.902z" />
<glyph unicode="&#xe92a;" glyph-name="micro-usb-thin" d="M112.175 938.667h799.651c61.92-0.079 112.095-50.254 112.175-112.167v-799.659c-0.079-61.92-50.254-112.095-112.167-112.175h-799.659c-61.92 0.079-112.095 50.254-112.175 112.167v799.659c0.079 61.92 50.254 112.095 112.167 112.175h0.008zM911.825-38.788c36.225 0.053 65.576 29.404 65.629 65.624v799.656c-0.053 36.225-29.404 65.576-65.624 65.629h-799.656c-36.225-0.053-65.576-29.404-65.629-65.624v-799.656c0.053-36.225 29.404-65.576 65.624-65.629h0.005zM378.88 627.743h266.705c110.766-0.475 200.401-90.273 200.611-201.056v-201.096h-668.393v201.076c0.132 110.998 90.078 200.944 201.064 201.076h0.013zM799.651 272.136v154.531c-0.158 85.135-69.011 154.135-154.074 154.531h-266.697c-85.302-0.106-154.425-69.228-154.531-154.521v-154.541zM689.804 403.394h-355.607v46.545h355.607z" />
<glyph unicode="&#xe92b;" glyph-name="mobile-pen-thin" horiz-adv-x="866" d="M111.92 936.345h443.037c61.78-0.079 111.841-50.14 111.92-111.913v-797.846c-0.079-61.78-50.14-111.841-111.913-111.92h-443.045c-61.78 0.079-111.841 50.14-111.92 111.913v797.846c0.079 61.78 50.14 111.841 111.913 111.92h0.008zM554.957-38.893c36.143 0.053 65.427 29.338 65.48 65.475v797.843c-0.053 36.143-29.338 65.427-65.475 65.48h-443.042c-36.143-0.053-65.427-29.338-65.48-65.475v-797.843c0.053-36.143 29.338-65.427 65.475-65.48h0.005zM378.021 47.485h-88.7v46.44h88.7zM425.018 845.694h-180.837c-0.001 0-0.002 0-0.003 0-36.933 0-66.873 29.94-66.873 66.873 0 1.536 0.052 3.060 0.154 4.57l-0.011-0.205 1.393 21.734h311.472l1.44-21.687c0.093-1.32 0.146-2.859 0.146-4.412 0-36.933-29.94-66.873-66.873-66.873-0.002 0-0.004 0-0.007 0v0zM244.599 892.134h179.072c0.494-0.043 1.068-0.067 1.649-0.067s1.155 0.024 1.723 0.072l-0.074-0.005h-182.37zM798.766-62.113l-21.827 132.818c-0.296 1.934-0.464 4.165-0.464 6.435 0 24.75 20.064 44.815 44.815 44.815s44.815-20.064 44.815-44.815c0-2.27-0.169-4.501-0.495-6.681l0.030 0.246-22.291-132.818c0-12.824-10.396-23.22-23.22-23.22s-23.22 10.396-23.22 23.22v0zM821.058 47.485c-12.824 0-23.22 10.396-23.22 23.22v0 842.42c0 12.824 10.396 23.22 23.22 23.22v0c12.824 0 23.22-10.396 23.22-23.22v0-842.42c0-12.824-10.396-23.22-23.22-23.22v0z" />
<glyph unicode="&#xe92c;" glyph-name="mouse-pointer-up-thin" horiz-adv-x="575" d="M199.202 621.097h176.146c109.963-0.131 199.071-89.239 199.202-199.189v-219.965c0-158.658-128.617-287.275-287.275-287.275s-287.275 128.617-287.275 287.275v0 219.952c0.131 109.963 89.239 199.071 199.189 199.202h0.013zM287.275-39.221c133.128 0.157 241.006 108.036 241.164 241.149v219.967c-0.105 84.507-68.583 152.986-153.080 153.090h-176.156c-84.507-0.105-152.986-68.583-153.090-153.080v-219.962c0.157-133.128 108.036-241.006 241.149-241.164h0.015zM310.331 333.821h-46.112v131.879h46.112zM402.831 757.863l-115.556 115.602-115.556-115.602-32.601 32.601 148.157 148.203 148.203-148.203z" />
<glyph unicode="&#xe92d;" glyph-name="mouse-thin" horiz-adv-x="593" d="M205.753 644.327h181.939c113.579-0.135 205.617-92.173 205.753-205.74v-227.198c0-163.875-132.847-296.722-296.722-296.722s-296.722 132.847-296.722 296.722v0 227.185c0.135 113.579 92.173 205.617 205.74 205.753h0.013zM296.722-37.705c137.505 0.162 248.931 111.589 249.094 249.078v227.201c-0.108 87.286-70.838 158.016-158.114 158.125h-181.949c-87.286-0.108-158.016-70.838-158.125-158.114v-227.195c0.162-137.505 111.589-248.931 249.078-249.094h0.016zM320.536 347.605h-47.628v136.216h47.628zM320.536 620.513h-47.628v204.324c0.132 50.76 41.069 91.914 91.733 92.398h0.379c50.689-0.511 91.599-41.655 91.731-92.385v-0.013c0-24.594 19.938-44.532 44.532-44.532s44.532 19.938 44.532 44.532v0 113.831h47.628v-113.831c0-50.899-41.261-92.16-92.16-92.16s-92.16 41.261-92.16 92.16v0c0 24.463-19.831 44.294-44.294 44.294s-44.294-19.831-44.294-44.294v0z" />
<glyph unicode="&#xe92e;" glyph-name="mp3-player-thin" horiz-adv-x="668" d="M112.175 938.667h444.044c61.92-0.079 112.095-50.254 112.175-112.167v-799.659c-0.079-61.92-50.254-112.095-112.167-112.175h-444.052c-61.92 0.079-112.095 50.254-112.175 112.167v799.659c0.079 61.92 50.254 112.095 112.167 112.175h0.008zM556.218-38.788c36.225 0.053 65.576 29.404 65.629 65.624v799.656c-0.053 36.225-29.404 65.576-65.624 65.629h-444.049c-36.225-0.053-65.576-29.404-65.629-65.624v-799.656c0.053-36.225 29.404-65.576 65.624-65.629h0.005zM334.196 361.038c86.373 0 156.393-70.019 156.393-156.393s-70.019-156.393-156.393-156.393c-86.373 0-156.393 70.019-156.393 156.393v0c0.106 86.331 70.062 156.287 156.383 156.393h0.010zM334.196 94.798c60.667 0 109.847 49.18 109.847 109.847s-49.18 109.847-109.847 109.847c-60.667 0-109.847-49.18-109.847-109.847v0c0.079-60.635 49.212-109.768 109.84-109.847h0.008zM133.12 805.547h402.153v-357.469h-402.153zM488.727 759.002h-309.062v-264.378h309.062z" />
<glyph unicode="&#xe92f;" glyph-name="music-player-thin" horiz-adv-x="846" d="M112.175 938.667h621.847c61.92-0.079 112.095-50.254 112.175-112.167v-799.659c-0.079-61.92-50.254-112.095-112.167-112.175h-621.855c-61.92 0.079-112.095 50.254-112.175 112.167v799.659c0.079 61.92 50.254 112.095 112.167 112.175h0.008zM734.022-38.788c36.225 0.053 65.576 29.404 65.629 65.624v799.656c-0.053 36.225-29.404 65.576-65.624 65.629h-621.852c-36.225-0.053-65.576-29.404-65.629-65.624v-799.656c0.053-36.225 29.404-65.576 65.624-65.629h0.005zM423.098 361.038c86.373 0 156.393-70.019 156.393-156.393s-70.019-156.393-156.393-156.393c-86.373 0-156.393 70.019-156.393 156.393v0c0.106 86.331 70.062 156.287 156.383 156.393h0.010zM423.098 94.798c60.667 0 109.847 49.18 109.847 109.847s-49.18 109.847-109.847 109.847c-60.667 0-109.847-49.18-109.847-109.847v0c0.079-60.635 49.212-109.768 109.84-109.847h0.008zM133.12 805.547h579.491v-357.469h-579.491zM666.065 759.002h-486.4v-264.378h486.4z" />
<glyph unicode="&#xe930;" glyph-name="pc-thin" horiz-adv-x="757" d="M112.175 938.667h532.945c61.92-0.079 112.095-50.254 112.175-112.167v-799.659c-0.079-61.92-50.254-112.095-112.167-112.175h-532.953c-61.92 0.079-112.095 50.254-112.175 112.167v799.659c0.079 61.92 50.254 112.095 112.167 112.175h0.008zM645.12-38.788c36.225 0.053 65.576 29.404 65.629 65.624v799.656c-0.053 36.225-29.404 65.576-65.624 65.629h-532.95c-36.225-0.053-65.576-29.404-65.629-65.624v-799.656c0.053-36.225 29.404-65.576 65.624-65.629h0.005zM177.804 760.863h402.153v-224.349h-402.153zM533.411 714.318h-309.062v-131.258h309.062zM423.098 115.743c0-24.421-19.797-44.218-44.218-44.218s-44.218 19.797-44.218 44.218c0 24.421 19.797 44.218 44.218 44.218s44.218-19.797 44.218-44.218zM556.684 359.176h-355.607v46.545h355.607z" />
<glyph unicode="&#xe931;" glyph-name="phone-socket-thin" horiz-adv-x="846" d="M112.175 938.667h621.847c61.92-0.079 112.095-50.254 112.175-112.167v-799.659c-0.079-61.92-50.254-112.095-112.167-112.175h-621.855c-61.92 0.079-112.095 50.254-112.175 112.167v799.659c0.079 61.92 50.254 112.095 112.167 112.175h0.008zM734.022-38.788c36.225 0.053 65.576 29.404 65.629 65.624v799.656c-0.053 36.225-29.404 65.576-65.624 65.629h-621.852c-36.225-0.053-65.576-29.404-65.629-65.624v-799.656c0.053-36.225 29.404-65.576 65.624-65.629h0.005zM719.639-85.333h-593.082l56.367 224.349h480.349zM186.228-38.788h473.74l-33.001 131.258h-407.738zM357.469-62.060h-46.545v177.804h46.545zM535.273-62.060h-46.545v177.804h46.545zM177.804 716.645h491.055v-402.153h-491.055zM622.313 670.1h-397.964v-309.062h397.964zM268.567 693.372h-46.545v88.902h46.545zM268.567 248.863h-46.545v88.902h46.545zM446.371 693.372h-46.545v88.902h46.545zM446.371 248.863h-46.545v88.902h46.545zM624.175 693.372h-46.545v88.902h46.545zM624.175 248.863h-46.545v88.902h46.545z" />
<glyph unicode="&#xe932;" glyph-name="photo-camera-thin" d="M0 759.002h1024v-801.978h-1024zM977.455 712.456h-930.909v-708.887h930.909zM1000.727 179.511h-222.022v46.545h222.022zM423.098 179.511h-399.825v46.545h399.825zM600.902 581.198c135.472 0 245.295-109.822 245.295-245.295s-109.822-245.295-245.295-245.295c-135.472 0-245.295 109.822-245.295 245.295v0c0.159 135.408 109.886 245.136 245.279 245.295h0.015zM600.902 137.154c109.766 0 198.749 88.983 198.749 198.749s-88.983 198.749-198.749 198.749c-109.766 0-198.749-88.983-198.749-198.749v0c0.132-109.713 89.036-198.617 198.737-198.749h0.012zM289.978 534.652h-133.585v46.545h133.585zM866.444 712.456h-530.944l119.343 179.665h291.607zM422.26 759.002h357.097l-57.903 86.575h-241.664zM135.447 735.729h-46.545v88.902h46.545z" />
<glyph unicode="&#xe933;" glyph-name="photography-thin" d="M454.842 892.122h291.607l88.902-133.12h188.649v-801.978h-1024v801.978h366.406zM721.594 845.576h-241.804l-88.436-133.12h-344.809v-708.887h930.909v708.887h-166.959zM600.902 625.882c135.472 0 245.295-109.822 245.295-245.295s-109.822-245.295-245.295-245.295c-135.472 0-245.295 109.822-245.295 245.295v0c0.159 135.408 109.886 245.136 245.279 245.295h0.015zM600.902 181.838c109.766 0 198.749 88.983 198.749 198.749s-88.983 198.749-198.749 198.749c-109.766 0-198.749-88.983-198.749-198.749v0c0.132-109.713 89.036-198.617 198.737-198.749h0.012zM289.978 534.652h-133.585v46.545h133.585z" />
<glyph unicode="&#xe934;" glyph-name="port-thin" d="M112.175 938.667h799.651c61.92-0.079 112.095-50.254 112.175-112.167v-799.659c-0.079-61.92-50.254-112.095-112.167-112.175h-799.659c-61.92 0.079-112.095 50.254-112.175 112.167v799.659c0.079 61.92 50.254 112.095 112.167 112.175h0.008zM911.825-38.788c36.225 0.053 65.576 29.404 65.629 65.624v799.656c-0.053 36.225-29.404 65.576-65.624 65.629h-799.656c-36.225-0.053-65.576-29.404-65.629-65.624v-799.656c0.053-36.225 29.404-65.576 65.624-65.629h0.005zM177.804 627.743h668.393v-402.153h-668.393zM799.651 581.198h-575.302v-309.062h575.302zM402.153 248.863h-46.545v88.902h46.545zM535.273 248.863h-46.545v88.902h46.545zM668.393 248.863h-46.545v88.902h46.545zM822.924 403.394h-621.847v46.545h621.847z" />
<glyph unicode="&#xe935;" glyph-name="power-chip-thin" d="M112.175 938.667h799.651c61.92-0.079 112.095-50.254 112.175-112.167v-799.659c-0.079-61.92-50.254-112.095-112.167-112.175h-799.659c-61.92 0.079-112.095 50.254-112.175 112.167v799.659c0.079 61.92 50.254 112.095 112.167 112.175h0.008zM911.825-38.788c36.225 0.053 65.576 29.404 65.629 65.624v799.656c-0.053 36.225-29.404 65.576-65.624 65.629h-799.656c-36.225-0.053-65.576-29.404-65.629-65.624v-799.656c0.053-36.225 29.404-65.576 65.624-65.629h0.005zM222.022 716.645h579.491v-579.491h-579.491zM754.967 670.1h-486.4v-486.4h486.4zM357.469 693.372h-46.545v88.902h46.545zM357.469 71.060h-46.545v88.902h46.545zM535.273 693.372h-46.545v88.902h46.545zM535.273 71.060h-46.545v88.902h46.545zM713.076 693.372h-46.545v88.902h46.545zM713.076 71.060h-46.545v88.902h46.545zM245.295 225.591h-88.902v46.545h88.902zM867.607 225.591h-88.902v46.545h88.902zM245.295 403.394h-88.902v46.545h88.902zM867.607 403.394h-88.902v46.545h88.902zM245.295 581.198h-88.902v46.545h88.902zM867.607 581.198h-88.902v46.545h88.902zM512 381.983h-133.12l133.12 222.487zM512 471.351h133.12l-133.12-222.487z" />
<glyph unicode="&#xe936;" glyph-name="print-thin" d="M911.825 136.689h-133.12v46.545h133.12c36.225 0.053 65.576 29.404 65.629 65.624v310.929c-0.366 36.147-29.61 65.343-65.741 65.629h-799.538c-36.147-0.366-65.343-29.61-65.629-65.741v-310.811c0.053-36.225 29.404-65.576 65.624-65.629h133.125v-46.545h-133.12c-61.92 0.079-112.095 50.254-112.175 112.167v310.932c0.495 61.703 50.343 111.6 111.98 112.174h799.846c61.703-0.495 111.6-50.343 112.174-111.98v-311.118c-0.079-61.92-50.254-112.095-112.167-112.175h-0.008zM222.022 316.82h579.491v-402.153h-579.491zM754.967 270.274h-486.4v-309.062h486.4zM222.022 938.667h579.491v-313.251h-579.491zM754.967 892.122h-486.4v-220.16h486.4zM867.607 270.274h-711.215v46.545h711.215zM867.607 447.612h-88.902v46.545h88.902zM645.12 92.471h-266.24v46.545h266.24z" />
<glyph unicode="&#xe937;" glyph-name="ram-memory-thin" d="M0 752.485h1024v-267.45l-22.109-1.071c-0.297 0.015-0.644 0.023-0.994 0.023-11.722 0-21.225-9.503-21.225-21.225s9.503-21.225 21.225-21.225c0.349 0 0.697 0.008 1.042 0.025l-0.049-0.002 22.156-1.071v-356.399h-1024.047v351.325l16.384 5.073c9.562 3.037 16.37 11.836 16.37 22.225s-6.807 19.188-16.205 22.18l-0.165 0.045-16.384 5.12zM977.455 705.94h-930.909v-183.994c19.835-12.543 32.815-34.359 32.815-59.206s-12.98-46.663-32.529-59.037l-0.286-0.169v-272.896h930.909v269.033c-25.149 10.016-42.862 33.599-44.166 61.471l-0.006 0.155v2.048c0.948 28.358 18.769 52.325 43.703 62.253l0.469 0.165zM222.022 574.682h224.349v-224.349h-224.349zM399.825 528.136h-131.258v-131.258h131.258zM399.825 574.682h224.349v-224.349h-224.349zM577.629 528.136h-131.258v-131.258h131.258zM577.629 574.682h224.349v-224.349h-224.349zM755.433 528.136h-131.258v-131.258h131.258zM179.665 107.365h-46.545v133.12h46.545zM357.469 107.365h-46.545v133.12h46.545zM535.273 107.365h-46.545v133.12h46.545zM713.076 107.365h-46.545v133.12h46.545zM890.88 107.365h-46.545v133.12h46.545z" />
<glyph unicode="&#xe938;" glyph-name="ram-storage-thin" d="M0 752.485h1024v-267.45l-22.109-1.071c-0.297 0.015-0.644 0.023-0.994 0.023-11.722 0-21.225-9.503-21.225-21.225s9.503-21.225 21.225-21.225c0.349 0 0.697 0.008 1.042 0.025l-0.049-0.002 22.156-1.071v-356.399h-1024.047v351.325l16.384 5.073c9.562 3.037 16.37 11.836 16.37 22.225s-6.807 19.188-16.205 22.18l-0.165 0.045-16.384 5.12zM977.455 705.94h-930.909v-183.994c19.835-12.543 32.815-34.359 32.815-59.206s-12.98-46.663-32.529-59.037l-0.286-0.169v-272.896h930.909v269.033c-25.149 10.016-42.862 33.599-44.166 61.471l-0.006 0.155v2.048c0.948 28.358 18.769 52.325 43.703 62.253l0.469 0.165zM222.022 574.682h579.956v-224.349h-579.956zM755.433 528.136h-486.865v-131.258h486.865zM179.665 107.365h-46.545v133.12h46.545zM357.469 107.365h-46.545v133.12h46.545zM535.273 107.365h-46.545v133.12h46.545zM713.076 107.365h-46.545v133.12h46.545zM890.88 107.365h-46.545v133.12h46.545z" />
<glyph unicode="&#xe939;" glyph-name="remote-control-thin" d="M112.185 583.121h799.724c61.926-0.079 112.105-50.259 112.185-112.177v-444.092c-0.079-61.926-50.259-112.105-112.177-112.185h-799.732c-61.926 0.079-112.105 50.259-112.185 112.177v444.092c0.079 61.926 50.259 112.105 112.177 112.185h0.008zM911.908-38.783c36.228 0.053 65.582 29.407 65.635 65.63v444.089c-0.053 36.228-29.407 65.582-65.63 65.635h-799.729c-36.228-0.053-65.582-29.407-65.635-65.63v-444.089c0.053-36.228 29.407-65.582 65.63-65.635h0.005zM245.317 272.169c37.278 0 67.497-30.219 67.497-67.497s-30.219-67.497-67.497-67.497c-37.278 0-67.497 30.219-67.497 67.497v0c0.053 37.256 30.241 67.444 67.492 67.497h0.005zM245.317 183.724c11.569 0 20.947 9.378 20.947 20.947s-9.378 20.947-20.947 20.947c-11.569 0-20.947-9.378-20.947-20.947v0c0.026-11.558 9.389-20.921 20.945-20.947h0.003zM268.592 204.672h-46.55v222.042h46.55zM778.776 272.169c37.278 0 67.497-30.219 67.497-67.497s-30.219-67.497-67.497-67.497c-37.278 0-67.497 30.219-67.497 67.497v0c0.053 37.256 30.241 67.444 67.492 67.497h0.005zM778.776 183.724c11.569 0 20.947 9.378 20.947 20.947s-9.378 20.947-20.947 20.947c-11.569 0-20.947-9.378-20.947-20.947v0c0.026-11.558 9.389-20.921 20.945-20.947h0.003zM802.051 204.672h-46.55v222.042h46.55zM467.824 47.799h-88.91v46.55h88.91zM645.179 47.799h-88.91v46.55h88.91zM619.111 358.751h-214.129l-55.86 224.369h325.848zM441.291 405.301h141.418l32.585 131.27h-206.588zM535.321 559.846h-46.55v88.91h46.55zM621.299 679.292c-27.982 27.892-66.592 45.137-109.229 45.137s-81.246-17.245-109.233-45.141l0.004 0.004-32.911 32.911c36.416 36.291 86.658 58.728 142.139 58.728s105.723-22.438 142.145-58.734l-0.006 0.006zM740.14 797.994c-58.484 58.020-139.032 93.874-227.954 93.874s-169.47-35.854-227.975-93.895l0.021 0.021-32.864 32.957c66.832 66.568 159.019 107.724 260.818 107.724s193.986-41.155 260.83-107.736l-0.012 0.012z" />
<glyph unicode="&#xe93a;" glyph-name="smartwatch-wireless-thin" horiz-adv-x="970" d="M289.978 716.645c160.151 0 289.978-129.828 289.978-289.978s-129.828-289.978-289.978-289.978c-160.151 0-289.978 129.828-289.978 289.978v0c0.185 160.076 129.902 289.793 289.961 289.978h0.017zM289.978 183.234c134.444 0 243.433 108.989 243.433 243.433s-108.989 243.433-243.433 243.433c-134.444 0-243.433-108.989-243.433-243.433v0c0.159-134.38 109.052-243.274 243.418-243.433h0.015zM289.978 314.492c-61.952 0-112.175 50.222-112.175 112.175s50.222 112.175 112.175 112.175v0-46.545c-36.246 0-65.629-29.383-65.629-65.629s29.383-65.629 65.629-65.629c36.246 0 65.629 29.383 65.629 65.629v0h46.545c-0.079-61.92-50.254-112.095-112.167-112.175h-0.008zM488.913 570.958l-41.565 321.164h-314.74l-41.565-321.164-46.173 5.958 46.871 361.751h396.521l46.825-361.937zM488.215-85.333h-396.474l-46.871 361.937 46.173 5.958 41.565-321.35h314.694l41.612 321.164 46.173-5.958zM645.585 403.394h-88.902v46.545h88.902zM743.052 284.564l-32.908 32.908c27.889 27.98 45.133 66.586 45.133 109.219s-17.244 81.239-45.137 109.223l0.004-0.004 32.908 32.908c36.287-36.413 58.723-86.65 58.723-142.127s-22.436-105.714-58.728-142.132l0.006 0.006zM861.696 166.012l-32.908 32.954c58.366 58.301 94.471 138.877 94.471 227.887s-36.105 169.586-94.468 227.884l-0.003 0.003 32.908 32.954c66.814-66.728 108.145-158.958 108.145-260.841s-41.331-194.113-108.141-260.837l-0.004-0.004z" />
<glyph unicode="&#xe93b;" glyph-name="socket-electricity-thin" d="M112.175 938.667h799.651c61.92-0.079 112.095-50.254 112.175-112.167v-799.659c-0.079-61.92-50.254-112.095-112.167-112.175h-799.659c-61.92 0.079-112.095 50.254-112.175 112.167v799.659c0.079 61.92 50.254 112.095 112.167 112.175h0.008zM911.825-38.788c36.225 0.053 65.576 29.404 65.629 65.624v799.656c-0.053 36.225-29.404 65.576-65.624 65.629h-799.656c-36.225-0.053-65.576-29.404-65.629-65.624v-799.656c0.053-36.225 29.404-65.576 65.624-65.629h0.005zM512 760.863c184.572 0 334.196-149.625 334.196-334.196s-149.625-334.196-334.196-334.196c-184.572 0-334.196 149.625-334.196 334.196v0c0.212 184.486 149.71 333.984 334.176 334.196h0.021zM512 139.016c158.865 0 287.651 128.786 287.651 287.651s-128.786 287.651-287.651 287.651c-158.865 0-287.651-128.786-287.651-287.651v0c0.185-158.791 128.86-287.466 287.633-287.651h0.018zM200.611 782.274c0-24.421-19.797-44.218-44.218-44.218s-44.218 19.797-44.218 44.218c0 24.421 19.797 44.218 44.218 44.218s44.218-19.797 44.218-44.218zM911.825 782.274c0-24.421-19.797-44.218-44.218-44.218s-44.218 19.797-44.218 44.218c0 24.421 19.797 44.218 44.218 44.218s44.218-19.797 44.218-44.218zM911.825 71.060c0-24.421-19.797-44.218-44.218-44.218s-44.218 19.797-44.218 44.218c0 24.421 19.797 44.218 44.218 44.218s44.218-19.797 44.218-44.218zM200.611 71.060c0-24.421-19.797-44.218-44.218-44.218s-44.218 19.797-44.218 44.218c0 24.421 19.797 44.218 44.218 44.218s44.218-19.797 44.218-44.218zM423.098 426.667c0-24.421-19.797-44.218-44.218-44.218s-44.218 19.797-44.218 44.218c0 24.421 19.797 44.218 44.218 44.218s44.218-19.797 44.218-44.218zM689.338 426.667c0-24.421-19.797-44.218-44.218-44.218s-44.218 19.797-44.218 44.218c0 24.421 19.797 44.218 44.218 44.218s44.218-19.797 44.218-44.218z" />
<glyph unicode="&#xe93c;" glyph-name="sound-thin" d="M890.88 377.794h-46.545v135.447c0 183.543-148.791 332.335-332.335 332.335s-332.335-148.791-332.335-332.335v0-135.447h-46.545v135.447c0 209.25 169.63 378.88 378.88 378.88s378.88-169.63 378.88-378.88v0zM154.345 401.067h69.818l2.095-444.509h-69.865c-86.356 0.448-156.209 70.465-156.393 156.841v133.557c1.513 84.498 69.614 152.599 153.969 154.11l0.143 0.002zM177.943 354.522h-23.273c-59.351-0.979-107.199-48.86-108.124-108.13l-0.001-0.088v-132.887c0.105-60.751 49.219-109.996 109.91-110.313h23.303zM869.562-43.442h-69.818l-2.095 444.509h71.354c85.655-0.013 155.268-68.679 156.81-153.967l0.002-0.145v-133.539c-0.157-86.355-69.947-156.357-156.205-156.858h-0.048zM846.289 3.103h23.273c60.721 0.317 109.836 49.562 109.94 110.303v132.944c-1.48 59.936-50.324 107.981-110.434 108.172h-24.642z" />
<glyph unicode="&#xe93d;" glyph-name="speaker-thin" horiz-adv-x="757" d="M112.175 938.667h532.945c61.92-0.079 112.095-50.254 112.175-112.167v-799.659c-0.079-61.92-50.254-112.095-112.167-112.175h-532.953c-61.92 0.079-112.095 50.254-112.175 112.167v799.659c0.079 61.92 50.254 112.095 112.167 112.175h0.008zM645.12-38.788c36.225 0.053 65.576 29.404 65.629 65.624v799.656c-0.053 36.225-29.404 65.576-65.624 65.629h-532.95c-36.225-0.053-65.576-29.404-65.629-65.624v-799.656c0.053-36.225 29.404-65.576 65.624-65.629h0.005zM378.88 760.863c111.051 0 201.076-90.025 201.076-201.076s-90.025-201.076-201.076-201.076c-111.051 0-201.076 90.025-201.076 201.076v0c0.132 110.998 90.078 200.944 201.064 201.076h0.013zM378.88 405.256c85.345 0 154.531 69.186 154.531 154.531s-69.186 154.531-154.531 154.531c-85.345 0-154.531-69.186-154.531-154.531v0c0.106-85.302 69.228-154.425 154.521-154.531h0.010zM378.88 227.452c37.274 0 67.491-30.217 67.491-67.491s-30.217-67.491-67.491-67.491c-37.274 0-67.491 30.217-67.491 67.491v0c0.053 37.253 30.238 67.438 67.486 67.491h0.005zM378.88 139.016c11.568 0 20.945 9.378 20.945 20.945s-9.378 20.945-20.945 20.945c-11.568 0-20.945-9.378-20.945-20.945v0c0.026-11.557 9.388-20.919 20.943-20.945h0.003zM423.098 559.787c0-24.421-19.797-44.218-44.218-44.218s-44.218 19.797-44.218 44.218c0 24.421 19.797 44.218 44.218 44.218s44.218-19.797 44.218-44.218z" />
<glyph unicode="&#xe93e;" glyph-name="storage-card-thin" d="M0 752.485h1024v-179.526h-23.273c-36.246 0-65.629-29.383-65.629-65.629s29.383-65.629 65.629-65.629v0h23.273v-357.609h-268.567v177.804h-131.258v-177.804h-624.175v357.469h23.273c36.246 0 65.629 29.383 65.629 65.629s-29.383 65.629-65.629 65.629v0h-23.273zM977.455 705.94h-930.909v-88.995c51.202-11.093 88.998-56.010 88.998-109.754s-37.796-98.661-88.258-109.619l-0.74-0.135v-266.799h531.084v177.804h224.349v-177.804h175.476v266.892c-50.897 11.435-88.431 56.028-88.901 109.47v0.285c0.448 53.512 37.989 98.13 88.146 109.425l0.756 0.143zM268.567 107.365h-46.545v177.804h46.545zM446.371 107.365h-46.545v177.804h46.545zM624.175 107.365h-46.545v177.804h46.545zM801.978 107.365h-46.545v177.804h46.545zM1000.727 261.896h-977.455v46.545h977.455zM357.469 418.289h-46.545v177.804h46.545zM535.273 418.289h-46.545v177.804h46.545zM713.076 418.289h-46.545v177.804h46.545z" />
<glyph unicode="&#xe93f;" glyph-name="storage-thin" horiz-adv-x="758" d="M112.175 227.918h532.945c61.92-0.079 112.095-50.254 112.175-112.167v-88.91c-0.079-61.92-50.254-112.095-112.167-112.175h-532.953c-61.92 0.079-112.095 50.254-112.175 112.167v88.91c0.079 61.92 50.254 112.095 112.167 112.175h0.008zM645.12-38.788c36.225 0.053 65.576 29.404 65.629 65.624v88.907c-0.053 36.225-29.404 65.576-65.624 65.629h-532.95c-36.225-0.053-65.576-29.404-65.629-65.624v-88.907c0.053-36.225 29.404-65.576 65.624-65.629h0.005zM757.76 115.743h-46.545v710.749c0 36.246-29.383 65.629-65.629 65.629v0h-533.411c-36.246 0-65.629-29.383-65.629-65.629v0-710.749h-46.545v710.749c0 61.952 50.222 112.175 112.175 112.175v0h533.411c61.952 0 112.175-50.222 112.175-112.175v0zM645.585 47.787h-177.804v46.545h177.804zM201.076 71.060c0-24.421-19.797-44.218-44.218-44.218s-44.218 19.797-44.218 44.218c0 24.421 19.797 44.218 44.218 44.218s44.218-19.797 44.218-44.218z" />
<glyph unicode="&#xe940;" glyph-name="tablet-pen-thin" horiz-adv-x="1046" d="M112.175 938.667h621.847c61.92-0.079 112.095-50.254 112.175-112.167v-799.659c-0.079-61.92-50.254-112.095-112.167-112.175h-621.855c-61.92 0.079-112.095 50.254-112.175 112.167v799.659c0.079 61.92 50.254 112.095 112.167 112.175h0.008zM734.022-38.788c36.225 0.053 65.576 29.404 65.629 65.624v799.656c-0.053 36.225-29.404 65.576-65.624 65.629h-621.852c-36.225-0.053-65.576-29.404-65.629-65.624v-799.656c0.053-36.225 29.404-65.576 65.624-65.629h0.005zM467.782 47.787h-88.902v46.545h88.902zM977.455-62.060l-21.876 133.12c-1.476 4.339-2.327 9.337-2.327 14.534 0 25.706 20.839 46.545 46.545 46.545s46.545-20.839 46.545-46.545c0-5.197-0.852-10.195-2.423-14.862l0.096 0.328-20.015-133.12c0-12.853-10.42-23.273-23.273-23.273s-23.273 10.42-23.273 23.273v0zM1000.727 47.787c-12.853 0-23.273 10.42-23.273 23.273v0 844.335c0 12.853 10.42 23.273 23.273 23.273v0c12.853 0 23.273-10.42 23.273-23.273v0-844.335c0-12.853-10.42-23.273-23.273-23.273v0z" />
<glyph unicode="&#xe941;" glyph-name="tablet-thin" horiz-adv-x="846" d="M112.175 938.667h621.847c61.92-0.079 112.095-50.254 112.175-112.167v-799.659c-0.079-61.92-50.254-112.095-112.167-112.175h-621.855c-61.92 0.079-112.095 50.254-112.175 112.167v799.659c0.079 61.92 50.254 112.095 112.167 112.175h0.008zM734.022-38.788c36.225 0.053 65.576 29.404 65.629 65.624v799.656c-0.053 36.225-29.404 65.576-65.624 65.629h-621.852c-36.225-0.053-65.576-29.404-65.629-65.624v-799.656c0.053-36.225 29.404-65.576 65.624-65.629h0.005zM467.316 47.787h-88.436v46.545h88.436z" />
<glyph unicode="&#xe942;" glyph-name="tv-thin" d="M535.273-20.169h-46.545v222.487h46.545zM734.022-43.442h-444.044v46.545h444.044zM0 892.122h1024v-757.295h-1024zM977.455 845.576h-930.909v-664.204h930.909z" />
<glyph unicode="&#xe943;" glyph-name="usb-cable-thin" d="M0 760.863h313.251v-156.393c-0.079-61.92-50.254-112.095-112.167-112.175h-88.91c-61.92 0.079-112.095 50.254-112.175 112.167v0.008zM266.705 714.318h-220.16v-109.847c0.053-36.225 29.404-65.576 65.624-65.629h88.907c36.225 0.053 65.576 29.404 65.629 65.624v0.005zM44.218 938.667h224.349v-224.349h-224.349zM222.022 892.122h-131.258v-131.258h131.258zM1024-85.333h-313.251v245.295c0.079 61.92 50.254 112.095 112.167 112.175h88.91c61.92-0.079 112.095-50.254 112.175-112.167v-0.008zM757.295-38.788h220.16v198.749c-0.053 36.225-29.404 65.576-65.624 65.629h-88.907c-36.225-0.053-65.576-29.404-65.629-65.624v-0.005zM334.196-85.333c-111.051 0-201.076 90.025-201.076 201.076v0 399.825h46.545v-399.825c0-85.345 69.186-154.531 154.531-154.531s154.531 69.186 154.531 154.531v0 621.847c0 111.051 90.025 201.076 201.076 201.076s201.076-90.025 201.076-201.076v0-488.727h-46.545v488.727c0 85.345-69.186 154.531-154.531 154.531s-154.531-69.186-154.531-154.531v-621.847c0-111.051-90.025-201.076-201.076-201.076v0z" />
<glyph unicode="&#xe944;" glyph-name="usb-plug-thin" horiz-adv-x="579" d="M0 583.060h579.491v-334.196c-0.106-86.331-70.062-156.287-156.383-156.393h-266.716c-86.331 0.106-156.287 70.062-156.393 156.383v0.010zM532.945 536.514h-486.4v-287.651c0.079-60.635 49.212-109.768 109.84-109.847h266.713c60.635 0.079 109.768 49.212 109.847 109.84v0.008zM177.338 139.016h224.349v-224.349h-224.349zM355.142 92.471h-131.258v-131.258h131.258zM44.218 938.667h491.055v-402.153h-491.055zM488.727 892.122h-397.964v-309.062h397.964zM223.884 693.372h-46.545v88.902h46.545zM401.687 693.372h-46.545v88.902h46.545z" />
<glyph unicode="&#xe945;" glyph-name="usb-port-thin" d="M112.175 938.667h799.651c61.92-0.079 112.095-50.254 112.175-112.167v-799.659c-0.079-61.92-50.254-112.095-112.167-112.175h-799.659c-61.92 0.079-112.095 50.254-112.175 112.167v799.659c0.079 61.92 50.254 112.095 112.167 112.175h0.008zM911.825-38.788c36.225 0.053 65.576 29.404 65.629 65.624v799.656c-0.053 36.225-29.404 65.576-65.624 65.629h-799.656c-36.225-0.053-65.576-29.404-65.629-65.624v-799.656c0.053-36.225 29.404-65.576 65.624-65.629h0.005zM378.88 627.743h266.24c111.051 0 201.076-90.025 201.076-201.076s-90.025-201.076-201.076-201.076v0h-266.24c-111.051 0-201.076 90.025-201.076 201.076s90.025 201.076 201.076 201.076v0zM645.12 272.136c85.345 0 154.531 69.186 154.531 154.531s-69.186 154.531-154.531 154.531v0h-266.24c-85.345 0-154.531-69.186-154.531-154.531s69.186-154.531 154.531-154.531v0zM689.804 403.394h-355.607v46.545h355.607z" />
<glyph unicode="&#xe946;" glyph-name="usb-stick-thin" horiz-adv-x="491" d="M0 671.962h491.055v-512c0-135.472-109.822-245.295-245.295-245.295v0h-0.465c-135.408 0.159-245.136 109.886-245.295 245.279v0.015zM444.509 625.416h-397.964v-465.455c0.132-109.713 89.036-198.617 198.737-198.749h0.478c109.766 0 198.749 88.983 198.749 198.749v0zM44.218 938.667h402.153v-313.251h-402.153zM399.825 892.122h-309.062v-220.16h309.062zM467.316 447.612h-444.044v46.545h444.044zM268.567 826.492h-46.545v88.902h46.545zM268.567 648.689h-46.545v88.902h46.545z" />
<glyph unicode="&#xe947;" glyph-name="vr-goggles-thin" d="M1024 26.842h-46.545v355.607h46.545zM46.545 26.842h-46.545v355.607h46.545zM867.654-85.333v0h-284.579l-7.82 28.998c-8.487 27.385-33.588 46.931-63.255 46.931s-54.769-19.546-63.13-46.462l-0.125-0.468-7.82-28.998h-284.532c-61.92 0.079-112.095 50.254-112.175 112.167v353.288c0.421 61.688 50.449 111.552 112.16 111.709h711.23c61.736-0.131 111.779-50.010 112.174-111.671v-356.39c-1.713-60.615-51.258-109.1-112.128-109.103v0zM618.496-38.788h249.158c0.13-0.001 0.283-0.001 0.437-0.001 35.449 0 64.287 28.306 65.144 63.55l0.002 0.080v355.281c-0.342 36.014-29.578 65.086-65.622 65.164h-711.222c-36.052-0.077-65.287-29.15-65.629-65.131v-353.312c0.053-36.225 29.404-65.576 65.624-65.629h249.116c15.687 44.572 57.428 75.947 106.496 75.947s90.809-31.375 106.254-75.159l0.242-0.789zM289.978 270.274h-88.902v46.545h88.902zM289.978 92.471h-88.902v46.545h88.902zM268.567 759.002h-156.393v46.545h109.847v86.575h-109.847v46.545h156.393zM268.567 625.416h-156.393v46.545h109.847v87.040h-109.847v46.545h156.393zM399.825 805.547h179.665v-179.665h-179.665zM532.945 759.002h-86.575v-86.575h86.575zM446.371 715.714h-46.545v222.953h201.076v-46.545h-154.531zM710.749 938.667h179.665v-313.251h-179.665zM843.869 892.122h-86.575v-220.16h86.575z" />
<glyph unicode="&#xe948;" glyph-name="webcam-thin" horiz-adv-x="846" d="M423.098 938.667c233.671 0 423.098-189.428 423.098-423.098s-189.428-423.098-423.098-423.098c-233.671 0-423.098 189.428-423.098 423.098v0c0.265 233.564 189.534 422.833 423.072 423.098h0.026zM423.098 139.016c207.964 0 376.553 168.588 376.553 376.553s-168.588 376.553-376.553 376.553c-207.964 0-376.553-168.588-376.553-376.553v0c0.265-207.858 168.695-376.288 376.527-376.553h0.025zM423.098 671.962c86.373 0 156.393-70.019 156.393-156.393s-70.019-156.393-156.393-156.393c-86.373 0-156.393 70.019-156.393 156.393v0c0.106 86.331 70.062 156.287 156.383 156.393h0.010zM423.098 405.722c60.667 0 109.847 49.18 109.847 109.847s-49.18 109.847-109.847 109.847c-60.667 0-109.847-49.18-109.847-109.847v0c0.079-60.635 49.212-109.768 109.84-109.847h0.008zM778.705-85.333h-711.215v46.545h711.215zM624.175-85.333h-402.153v242.502h46.545v-195.956h309.062v195.956h46.545zM467.316 759.002h-88.436v46.545h88.436z" />
<glyph unicode="&#xe949;" glyph-name="wifi-drawing-tablet-thin" horiz-adv-x="1047" d="M114.73 938.667h817.867c63.331-0.081 114.649-51.399 114.73-114.722v-545.094c-0.081-63.331-51.399-114.649-114.722-114.73h-817.875c-63.331 0.081-114.649 51.399-114.73 114.722v545.094c0.081 63.331 51.399 114.649 114.722 114.73h0.008zM932.597 211.727c37.050 0.054 67.070 30.074 67.124 67.119v545.091c-0.054 37.050-30.074 67.070-67.119 67.124h-817.872c-37.050-0.054-67.070-30.074-67.124-67.119v-545.091c0.054-37.050 30.074-67.070 67.119-67.124h0.005zM273.733 551.632c0-37.597-30.479-68.076-68.076-68.076s-68.076 30.479-68.076 68.076c0 37.597 30.479 68.076 68.076 68.076s68.076-30.479 68.076-68.076zM250.882 709.207h-90.927v47.606h90.927zM250.882 345.975h-90.927v47.606h90.927zM23.803-16.781l136.152 22.851c24.464-2.183 43.497-22.583 43.497-47.428 0-19.288-11.471-35.898-27.964-43.378l-0.299-0.121c0-4.285-142.817 22.375-151.386 22.851-11.126 1.664-19.561 11.153-19.561 22.613s8.435 20.949 19.436 22.597l0.126 0.015zM1023.524-62.958h-863.569c-13.146 0-23.803 10.657-23.803 23.803v0c0 13.146 10.657 23.803 23.803 23.803v0h863.569c13.146 0 23.803-10.657 23.803-23.803v0c0-13.146-10.657-23.803-23.803-23.803v0zM659.816 369.778c0-24.977-20.248-45.225-45.225-45.225s-45.225 20.248-45.225 45.225c0 24.977 20.248 45.225 45.225 45.225s45.225-20.248 45.225-45.225zM711.516 466.418c-24.827 24.778-59.099 40.099-96.949 40.099s-72.122-15.322-96.951-40.102l0.002 0.002-33.657 33.657c33.447 33.378 79.616 54.018 130.606 54.018s97.16-20.64 130.609-54.021l-0.003 0.003zM824.817 580.053c-53.774 53.861-128.11 87.181-210.227 87.181s-156.452-33.32-210.223-87.177l-0.004-0.004-33.705 33.657c62.394 62.502 148.647 101.167 243.932 101.167s181.538-38.665 243.927-101.162l0.005-0.005z" />
<glyph unicode="&#xe94a;" glyph-name="wifi-monitor-thin" d="M535.273-20.169h-46.545v222.487h46.545zM734.022-43.442h-444.044v46.545h444.044zM112.175 892.122h799.651c61.92-0.079 112.095-50.254 112.175-112.167v-532.953c-0.079-61.92-50.254-112.095-112.167-112.175h-799.659c-61.92 0.079-112.095 50.254-112.175 112.167v532.953c0.079 61.92 50.254 112.095 112.167 112.175h0.008zM911.825 181.372c36.225 0.053 65.576 29.404 65.629 65.624v532.95c-0.053 36.225-29.404 65.576-65.624 65.629h-799.656c-36.225-0.053-65.576-29.404-65.629-65.624v-532.95c0.053-36.225 29.404-65.576 65.624-65.629h0.005zM621.242 407.863c-27.98 27.889-66.586 45.133-109.219 45.133s-81.239-17.244-109.223-45.137l0.004 0.004-32.908 32.908c36.413 36.287 86.65 58.723 142.127 58.723s105.714-22.436 142.132-58.728l-0.006 0.006zM740.073 528.927c-58.301 58.366-138.877 94.471-227.887 94.471s-169.586-36.105-227.884-94.468l-0.003-0.003-32.954 32.861c66.728 66.814 158.958 108.145 260.841 108.145s194.113-41.331 260.837-108.141l0.004-0.004zM556.218 335.438c0-24.421-19.797-44.218-44.218-44.218s-44.218 19.797-44.218 44.218c0 24.421 19.797 44.218 44.218 44.218s44.218-19.797 44.218-44.218z" />
<glyph unicode="&#xe94b;" glyph-name="wireless-keyboard-thin" d="M112.185 583.121h799.724c61.926-0.079 112.105-50.259 112.185-112.177v-444.092c-0.079-61.926-50.259-112.105-112.177-112.185h-799.732c-61.926 0.079-112.105 50.259-112.185 112.177v444.092c0.079 61.926 50.259 112.105 112.177 112.185h0.008zM911.908-38.783c36.228 0.053 65.582 29.407 65.635 65.63v444.089c-0.053 36.228-29.407 65.582-65.63 65.635h-799.729c-36.228-0.053-65.582-29.407-65.635-65.63v-444.089c0.053-36.228 29.407-65.582 65.63-65.635h0.005zM689.866 92.487h-355.64v46.55h355.64zM290.005 225.619h-88.91v46.55h88.91zM467.824 225.619h-88.91v46.55h88.91zM645.179 225.619h-88.91v46.55h88.91zM822.998 225.619h-88.91v46.55h88.91zM290.005 359.217h-88.91v46.55h88.91zM467.824 359.217h-88.91v46.55h88.91zM645.179 359.217h-88.91v46.55h88.91zM822.998 359.217h-88.91v46.55h88.91zM621.299 679.292c-27.982 27.892-66.592 45.137-109.229 45.137s-81.246-17.245-109.233-45.141l0.004 0.004-32.911 32.911c36.416 36.291 86.658 58.728 142.139 58.728s105.723-22.438 142.145-58.734l-0.006 0.006zM740.14 797.994c-58.484 58.020-139.032 93.874-227.954 93.874s-169.47-35.854-227.975-93.895l0.021 0.021-32.864 32.957c66.832 66.568 159.019 107.724 260.818 107.724s193.986-41.155 260.83-107.736l-0.012 0.012zM556.269 604.533c0-24.423-19.799-44.222-44.222-44.222s-44.222 19.799-44.222 44.222c0 24.423 19.799 44.222 44.222 44.222s44.222-19.799 44.222-44.222z" />
<glyph unicode="&#xe94c;" glyph-name="wireless-mouse-thin" horiz-adv-x="580" d="M201.104 627.841h177.828c111.013-0.132 200.971-90.091 201.104-201.091v-222.065c0-160.172-129.845-290.018-290.018-290.018s-290.018 129.845-290.018 290.018v0 222.052c0.132 111.013 90.091 200.971 201.091 201.104h0.013zM290.018-38.781c134.399 0.159 243.307 109.067 243.466 243.451v222.067c-0.106 85.314-69.238 154.446-154.542 154.552h-177.838c-85.314-0.106-154.446-69.238-154.552-154.542v-222.062c0.159-134.399 109.067-243.307 243.451-243.466h0.015zM313.294 337.823h-46.552v133.138h46.552zM493.263 807.856c-51.992 52.065-123.857 84.273-203.245 84.273s-151.253-32.208-203.242-84.27l-0.003-0.003-32.959 32.912c60.42 60.514 143.94 97.949 236.204 97.949s175.783-37.435 236.2-97.945l0.004-0.004zM399.275 713.775c-27.984 27.893-66.595 45.139-109.234 45.139s-81.25-17.246-109.238-45.143l0.004 0.004-32.912 32.912c36.418 36.292 86.661 58.731 142.146 58.731s105.728-22.439 142.152-58.736l-0.006 0.006z" />
<glyph unicode="&#xe94d;" glyph-name="wireless-router-thin" horiz-adv-x="1048" d="M114.762 393.238h818.095c63.349-0.081 114.681-51.413 114.762-114.754v-181.913c-0.081-63.349-51.413-114.681-114.754-114.762h-818.103c-63.349 0.081-114.681 51.413-114.762 114.754v181.913c0.081 63.349 51.413 114.681 114.754 114.762h0.008zM932.857 29.429c37.060 0.054 67.089 30.083 67.143 67.138v181.91c-0.054 37.060-30.083 67.089-67.138 67.143h-818.1c-37.060-0.054-67.089-30.083-67.143-67.138v-181.91c0.054-37.060 30.083-67.089 67.138-67.143h0.005zM183.81-85.333h-47.619v90.952h47.619zM911.429-85.333h-47.619v90.952h47.619zM250.952 187.524c0-24.984-20.254-45.238-45.238-45.238s-45.238 20.254-45.238 45.238c0 24.984 20.254 45.238 45.238 45.238s45.238-20.254 45.238-45.238zM523.81 163.715h-90.952v47.619h90.952zM705.714 163.715h-90.952v47.619h90.952zM887.619 163.715h-90.952v47.619h90.952zM569.048 550.857c0-24.984-20.254-45.238-45.238-45.238s-45.238 20.254-45.238 45.238c0 24.984 20.254 45.238 45.238 45.238s45.238-20.254 45.238-45.238zM635.571 662.572c-28.625 28.533-68.121 46.174-111.738 46.174s-83.113-17.642-111.742-46.178l0.004 0.004-33.667 33.667c37.253 37.124 88.648 60.077 145.405 60.077s108.152-22.953 145.411-60.083l-0.006 0.006zM764.095 791.191c-61.407 61.666-146.378 99.825-240.262 99.825s-178.855-38.159-240.25-99.813l-0.012-0.012-33.762 33.619c70.033 70.337 166.946 113.863 274.024 113.863s203.991-43.525 274.010-113.849l0.014-0.014z" />
<glyph unicode="&#xe94e;" glyph-name="wireless-smartwatch-thin" horiz-adv-x="970" d="M474.484 684.762l-27.136 207.36h-314.74l-27.136-207.36-46.173 6.051 32.442 247.855h396.474l32.582-247.855zM488.215-85.333h-396.474l-32.582 247.855 46.173 6.051 27.276-207.36h314.74l27.136 207.36 46.173-6.051zM645.585 403.394h-88.902v46.545h88.902zM743.052 284.564l-32.908 32.908c27.889 27.98 45.133 66.586 45.133 109.219s-17.244 81.239-45.137 109.223l0.004-0.004 32.908 32.908c36.287-36.413 58.723-86.65 58.723-142.127s-22.436-105.714-58.728-142.132l0.006 0.006zM861.696 166.012l-32.908 32.954c58.366 58.301 94.471 138.877 94.471 227.887s-36.105 169.586-94.468 227.884l-0.003 0.003 32.908 32.954c66.814-66.728 108.145-158.958 108.145-260.841s-41.331-194.113-108.141-260.837l-0.004-0.004zM112.175 716.645h355.142c61.92-0.079 112.095-50.254 112.175-112.167v-355.15c-0.079-61.92-50.254-112.095-112.167-112.175h-355.15c-61.92 0.079-112.095 50.254-112.175 112.167v355.15c0.079 61.92 50.254 112.095 112.167 112.175h0.008zM467.316 183.7c36.225 0.053 65.576 29.404 65.629 65.624v355.147c-0.053 36.225-29.404 65.576-65.624 65.629h-355.147c-36.225-0.053-65.576-29.404-65.629-65.624v-355.147c0.053-36.225 29.404-65.576 65.624-65.629h0.005zM289.978 270.274c-86.373 0-156.393 70.019-156.393 156.393s70.019 156.393 156.393 156.393v0-46.545c-60.667 0-109.847-49.18-109.847-109.847s49.18-109.847 109.847-109.847c60.667 0 109.847 49.18 109.847 109.847v0h46.545c-0.106-86.331-70.062-156.287-156.383-156.393h-0.010z" />
<glyph unicode="&#xe94f;" glyph-name="airpods" d="M294.944 653.325h-130.611v68.264h130.611zM245.795 938.667h1.411c106.944-7.493 204.229-43.342 286.007-99.996l-1.893 1.241 14.836-10.149v-284.432l-14.79-10.194c-79.856-55.577-177.117-91.617-282.258-99.238l-1.856-0.108h-5.097v-521.079h-242.108v772.471c-0.016 1.036-0.024 2.26-0.024 3.486 0 135.693 108.967 245.935 244.169 247.995l0.194 0.002zM477.891 793.311c-66.492 42.83-146.362 70.693-232.223 76.995l-1.649 0.097c-97.531-2.256-175.731-81.853-175.731-179.716 0-0.96 0.008-1.918 0.023-2.875l-0.002 0.145v-704.981h105.581v529.089l39.411-6.144c7.639-1.255 16.442-1.972 25.413-1.972 1.577 0 3.15 0.022 4.717 0.066l-0.23-0.005c87.822 6.397 167.979 34.38 236.683 78.612l-1.993-1.201zM859.712 131.791h-130.611v68.264h130.611zM778.251-85.287h-1.411c-106.944 7.493-204.229 43.342-286.007 99.996l1.893-1.241-14.836 10.149v284.75l15.018 10.149c80.040 54.695 177.363 89.882 282.418 96.71l1.695 0.088h4.869v523.355h242.108v-772.471c0.016-1.036 0.024-2.26 0.024-3.486 0-135.693-108.967-245.935-244.169-247.995l-0.194-0.002zM546.155 60.069c66.495-42.815 146.366-70.662 232.226-76.95l1.646-0.097c97.53 2.256 175.731 81.854 175.731 179.716 0 0.944-0.007 1.886-0.022 2.827l0.002-0.142v704.981h-105.581v-534.277l-40.64 7.919c-8.777 1.787-18.92 2.874-29.294 3.003l-0.105 0.001c-87.38-5.878-167.324-33.174-236.031-76.63l2.068 1.222z" />
<glyph unicode="&#xe950;" glyph-name="audio-player" d="M121.060 938.667h781.881c66.828-0.078 120.982-54.231 121.060-121.052v-781.888c-0.078-66.828-54.231-120.982-121.052-121.060h-781.888c-66.828 0.078-120.982 54.231-121.060 121.052v781.888c0.078 66.828 54.231 120.982 121.052 121.060h0.007zM902.94-17.066c29.146 0.026 52.767 23.647 52.793 52.79v781.884c-0.026 29.146-23.647 52.767-52.79 52.793h-781.883c-29.146-0.026-52.767-23.647-52.793-52.79v-781.884c0.026-29.146 23.647-52.767 52.79-52.793h0.003zM512 808.505c210.883 0 381.838-170.955 381.838-381.838s-170.955-381.838-381.838-381.838c-210.883 0-381.838 170.955-381.838 381.838v0c0.259 210.78 171.059 381.58 381.814 381.838h0.024zM512 113.095c173.181 0 313.572 140.391 313.572 313.572s-140.391 313.572-313.572 313.572c-173.181 0-313.572-140.391-313.572-313.572v0c0.259-173.077 140.495-313.313 313.547-313.572h0.025zM577.081 556.829h-130.162l65.081 130.617zM446.919 296.505h130.162l-65.081-130.617zM642.162 361.586v130.162l130.617-65.081zM381.838 491.748v-130.162l-130.617 65.081zM512 504.036c42.73 0 77.369-34.639 77.369-77.369s-34.639-77.369-77.369-77.369c-42.73 0-77.369 34.639-77.369 77.369v0c0 42.73 34.639 77.369 77.369 77.369v0zM512 417.565c5.027 0 9.102 4.075 9.102 9.102s-4.075 9.102-9.102 9.102c-5.027 0-9.102-4.075-9.102-9.102v0c0-5.027 4.075-9.102 9.102-9.102v0z" />
<glyph unicode="&#xe951;" glyph-name="cable" d="M0 764.815h329.045v-164.295c-0.078-66.828-54.231-120.982-121.052-121.060h-86.934c-66.828 0.078-120.982 54.231-121.060 121.052v0.007zM260.779 696.548h-192.512v-96.028c0.026-29.146 23.647-52.767 52.79-52.793h86.929c29.146 0.026 52.767 23.647 52.793 52.79v0.003zM43.236 938.667h242.119v-242.119h-242.119zM217.088 870.4h-105.586v-105.586h105.586zM1024 88.519h-329.045v164.295c0.078 66.828 54.231 120.982 121.052 121.060h86.934c66.828-0.078 120.982-54.231 121.060-121.052v-0.007zM763.221 156.786h192.512v96.028c-0.026 29.146-23.647 52.767-52.79 52.793h-86.929c-29.146-0.026-52.767-23.647-52.793-52.79v-0.003zM980.309-85.333h-242.119v242.119h242.119zM806.457-17.066h105.586v105.586h-105.586zM338.148-85.333c-114.867 0-207.986 93.118-207.986 207.986v0 390.94h68.267v-390.94c0-77.165 62.554-139.719 139.719-139.719s139.719 62.554 139.719 139.719v0 608.028c0 114.867 93.118 207.986 207.986 207.986s207.986-93.118 207.986-207.986v0-390.94h-68.267v390.94c0 77.165-62.554 139.719-139.719 139.719s-139.719-62.554-139.719-139.719v-608.028c0-114.867-93.118-207.986-207.986-207.986v0z" />
<glyph unicode="&#xe952;" glyph-name="cable-charge" horiz-adv-x="1034" d="M348.95 456.574h334.698v-165.97c0-0.009 0-0.020 0-0.031 0-66.571-53.191-120.718-119.392-122.26l-0.143-0.003h-92.869c-67.541 0-122.293 54.753-122.293 122.293v0zM614.685 387.611h-196.773v-97.007c0-29.454 23.877-53.331 53.331-53.331v0h91.536c28.768 0.966 51.743 24.439 51.906 53.315v0.016zM639.512 388.071h-244.587v209.646h68.962v-140.683h106.662v140.683h68.962zM603.421-85.333c-66.689 0.152-120.693 54.249-120.693 120.96 0 0.501 0.003 1.002 0.009 1.502l-0.001-0.076v165.74h68.962v-166.475c-0.004-0.228-0.006-0.496-0.006-0.765 0-28.692 23.26-51.952 51.952-51.952 3.581 0 7.078 0.362 10.455 1.052l-0.335-0.057c202.203 45.987 350.854 224.222 350.854 437.177 0 247.311-200.485 447.796-447.796 447.796s-447.796-200.485-447.796-447.796c0-123.56 50.044-235.431 130.968-316.451l-0.004 0.004-48.779-48.733c-93.416 93.499-151.19 222.621-151.19 365.238 0 285.398 231.361 516.758 516.758 516.758s516.758-231.361 516.758-516.758c0-245.962-171.841-451.789-402.015-503.974l-3.46-0.66h-0.644c-7.193-1.559-15.474-2.477-23.96-2.528h-0.039z" />
<glyph unicode="&#xe953;" glyph-name="cable-usb" horiz-adv-x="1034" d="M348.95 456.574h334.698v-165.97c0-0.009 0-0.020 0-0.031 0-66.571-53.191-120.718-119.392-122.26l-0.143-0.003h-92.869c-67.541 0-122.293 54.753-122.293 122.293v0zM614.685 387.611h-196.773v-97.007c0-29.454 23.877-53.331 53.331-53.331v0h91.536c28.768 0.966 51.743 24.439 51.906 53.315v0.016zM394.925 632.198h244.587v-244.587h-244.587zM570.549 563.236h-106.662v-106.662h106.662zM603.421-85.333c-66.689 0.152-120.693 54.249-120.693 120.96 0 0.501 0.003 1.002 0.009 1.502l-0.001-0.076v165.74h68.962v-166.475c-0.004-0.228-0.006-0.496-0.006-0.765 0-28.692 23.26-51.952 51.952-51.952 3.581 0 7.078 0.362 10.455 1.052l-0.335-0.057c202.203 45.987 350.854 224.222 350.854 437.177 0 247.311-200.485 447.796-447.796 447.796s-447.796-200.485-447.796-447.796c0-123.56 50.044-235.431 130.968-316.451l-0.004 0.004-48.779-48.733c-93.416 93.499-151.19 222.621-151.19 365.238 0 285.398 231.361 516.758 516.758 516.758s516.758-231.361 516.758-516.758c0-245.962-171.841-451.789-402.015-503.974l-3.46-0.66h-0.644c-7.193-1.559-15.474-2.477-23.96-2.528h-0.039z" />
<glyph unicode="&#xe954;" glyph-name="camcorder-back" d="M118.428 809.109h419.974l-4.452-37.309c-0.178-1.437-0.28-3.099-0.28-4.786s0.102-3.349 0.3-4.983l-0.019 0.197 0.223-1.959v-265.795c-0.011-0.451-0.017-0.981-0.017-1.514 0-37.867 30.697-68.563 68.563-68.563 0.006 0 0.012 0 0.018 0h263.212c15.209 0.581 29.065 5.932 40.229 14.589l-0.16-0.119 53.426 41.227v-384.668c-0.499-65.142-53.123-117.828-118.193-118.427h-722.823c-65.375 0.076-118.352 53.053-118.428 118.421v595.263c0.076 65.375 53.053 118.352 118.421 118.428h0.007zM467.478 742.326h-349.050c-28.513-0.025-51.62-23.133-51.645-51.643v-595.259c0.025-28.513 23.133-51.62 51.643-51.645h722.59c28.454 0.325 51.422 23.355 51.645 51.802v265.237c-7.429-1.717-16.071-2.853-24.924-3.155l-0.231-0.006h-264.682c-0.008 0-0.017 0-0.026 0-74.75 0-135.346 60.597-135.346 135.346 0 0.939 0.010 1.876 0.029 2.811l-0.002-0.14zM866.393 894.145c0.096 0 0.21 0 0.324 0 36.974 0 70.464-14.914 94.783-39.054l-0.008 0.008c24.753-24.657 40.070-58.772 40.070-96.464 0-0.162 0-0.323-0.001-0.485v0.025-262.945c0-0.073 0-0.159 0-0.246 0-45-22.004-84.86-55.84-109.408l-0.391-0.27c-21.949-15.831-49.369-25.346-79.008-25.422h-263.943c-0.122 0-0.266-0.001-0.41-0.001-37.126 0-70.725 15.097-94.994 39.486l-0.005 0.005c-24.405 24.545-39.491 58.379-39.491 95.737 0 0.089 0 0.177 0 0.266v-0.014 261.209c-0.324 3.139-0.509 6.784-0.509 10.471 0 4.421 0.266 8.78 0.782 13.062l-0.051-0.516 0.223 1.647c10.988 64.382 66.317 112.794 132.974 112.907h265.495zM602.379 426.667h264.014c15.139 0.059 29.131 4.922 40.544 13.142l-0.207-0.142c17.186 12.531 28.227 32.595 28.227 55.239 0 0.083 0 0.166 0 0.248v-0.013 263.213c0 0.073 0 0.16 0 0.247 0 19.151-7.796 36.481-20.388 48.99l-0.004 0.004c-12.315 12.218-29.276 19.768-48.001 19.768-0.060 0-0.121 0-0.181 0h-265.341c-33.413-0.11-61.175-24.166-67.030-55.899l-0.064-0.421c-0.154-1.336-0.242-2.884-0.242-4.452s0.088-3.116 0.259-4.639l-0.017 0.187 0.223-1.959v-264.949c0-0.070 0-0.153 0-0.235 0-18.877 7.619-35.975 19.95-48.386l-0.004 0.004c12.259-12.321 29.227-19.946 47.977-19.946 0.1 0 0.2 0 0.3 0.001h-0.015zM734.609 766.813c77.208 0 139.798-62.59 139.798-139.798s-62.59-139.798-139.798-139.798c-77.208 0-139.798 62.59-139.798 139.798v0c0.101 77.168 62.63 139.697 139.788 139.798h0.010zM734.609 553.999c40.325 0 73.016 32.69 73.016 73.016s-32.69 73.016-73.016 73.016c-40.325 0-73.016-32.69-73.016-73.016v0c0.051-40.305 32.711-72.965 73.011-73.016h0.005zM798.275 147.070h-85.037v66.783h85.037zM628.202 147.070h-85.037v66.783h85.037zM127.332 639.036h279.151v-279.151h-279.151zM339.701 572.253h-145.586v-145.586h145.586z" />
<glyph unicode="&#xe955;" glyph-name="camera-device" d="M0 764.815h1024v-850.148h-1024zM955.733 696.548h-887.467v-713.614h887.467zM598.926 590.962c138.746 0 251.221-112.476 251.221-251.221s-112.476-251.221-251.221-251.221c-138.746 0-251.221 112.476-251.221 251.221v0c0.155 138.683 112.538 251.066 251.206 251.221h0.015zM598.926 156.786c101.043 0 182.955 81.912 182.955 182.955s-81.912 182.955-182.955 182.955c-101.043 0-182.955-81.912-182.955-182.955v0c0.129-100.991 81.964-182.825 182.942-182.955h0.013zM481.462 715.435l-77.505 154.965h-261.78l-77.369-154.965-61.212 30.492 96.347 192.74h346.203l96.347-192.74zM251.221 522.695h-86.926v68.267h86.926zM251.221 349.298h-86.926v68.267h86.926z" />
<glyph unicode="&#xe956;" glyph-name="camera-photography" d="M319.898 938.667h384.205l86.926-130.162h232.971v-893.838h-1024v893.838h232.971zM667.602 870.4h-311.205l-86.926-130.162h-201.205v-757.305h887.467v757.305h-201.205zM512 678.343c162.875 0 294.912-132.037 294.912-294.912s-132.037-294.912-294.912-294.912c-162.875 0-294.912 132.037-294.912 294.912v0c0.181 162.802 132.11 294.731 294.895 294.912h0.017zM512 156.786c125.173 0 226.645 101.473 226.645 226.645s-101.473 226.645-226.645 226.645c-125.173 0-226.645-101.473-226.645-226.645v0c0.155-125.11 101.535-226.49 226.63-226.645h0.015z" />
<glyph unicode="&#xe957;" glyph-name="charging-cable" horiz-adv-x="589" d="M0 590.962h589.369v-338.148c-0.104-90.696-73.599-164.192-164.285-164.295h-260.789c-90.696 0.104-164.192 73.599-164.295 164.285v0.010zM521.102 522.695h-452.836v-269.881c0.052-53.014 43.014-95.977 96.023-96.028h260.784c53.014 0.052 95.977 43.014 96.028 96.023v0.005zM173.397 156.786h242.119v-242.119h-242.119zM347.25 88.519h-105.586v-105.586h105.586zM164.295 938.667h260.779c66.828-0.078 120.982-54.231 121.060-121.052v-294.919h-502.898v294.912c0.078 66.828 54.231 120.982 121.052 121.060h0.007zM477.867 590.962v226.645c-0.026 29.146-23.647 52.767-52.79 52.793h-260.781c-29.146-0.026-52.767-23.647-52.793-52.79v-226.648zM164.295 938.667h260.779c66.859 0 121.060-54.2 121.060-121.060s-54.2-121.060-121.060-121.060v0h-260.779c-66.859 0-121.060 54.2-121.060 121.060s54.2 121.060 121.060 121.060v0zM425.074 764.815c29.157 0 52.793 23.636 52.793 52.793s-23.636 52.793-52.793 52.793v0h-260.779c-29.157 0-52.793-23.636-52.793-52.793s23.636-52.793 52.793-52.793v0z" />
<glyph unicode="&#xe958;" glyph-name="chip-computer" d="M312.988 758.799h398.024c73.49-0.076 133.044-59.63 133.12-133.113v-398.031c-0.076-73.49-59.63-133.044-133.113-133.12h-398.032c-73.49 0.076-133.044 59.63-133.12 133.113v398.031c0.076 73.49 59.63 133.044 133.113 133.12h0.007zM711.012 161.317c36.617 0.051 66.287 29.721 66.337 66.333v398.029c-0.051 36.617-29.721 66.287-66.333 66.337h-398.029c-36.617-0.051-66.287-29.721-66.337-66.333v-398.029c0.051-36.617 29.721-66.287 66.333-66.337h0.005zM332.132 725.408h-66.783v213.259h66.783zM545.391 725.408h-66.783v213.259h66.783zM758.65 725.408h-66.783v213.259h66.783zM332.132-85.333h-66.783v213.259h66.783zM545.391-85.333h-66.783v213.259h66.783zM758.65-85.333h-66.783v213.259h66.783zM213.259 180.017h-213.259v66.783h213.259zM213.259 393.276h-213.259v66.783h213.259zM213.259 606.535h-213.259v66.783h213.259zM1024 180.017h-213.259v66.783h213.259zM1024 393.276h-213.259v66.783h213.259zM1024 606.535h-213.259v66.783h213.259zM725.259 597.185c0-23.605-19.136-42.741-42.741-42.741s-42.741 19.136-42.741 42.741c0 23.605 19.136 42.741 42.741 42.741s42.741-19.136 42.741-42.741z" />
<glyph unicode="&#xe959;" glyph-name="chip-memory" d="M465.92 38.437h-465.92v788.925h1001.739v-746.63h-450.337zM66.783 105.22h383.555l85.482 42.296h399.137v613.064h-868.174zM279.151 71.829h-66.783v85.037h66.783zM968.348 590.952h-127.332v66.783h127.332zM968.348 420.879h-127.332v66.783h127.332zM968.348 250.806h-127.332v66.783h127.332zM170.073 657.735h279.151v-406.929h-279.151zM382.442 590.952h-145.586v-273.363h145.586zM619.297 241.457h-66.783v425.183h66.783z" />
<glyph unicode="&#xe95a;" glyph-name="computer-chip" d="M225.28 843.836h573.885c72.014-0.076 130.373-58.435 130.449-130.442v-573.892c-0.076-72.014-58.435-130.373-130.442-130.449h-573.892c-72.014 0.076-130.373 58.435-130.449 130.442v573.892c0.076 72.014 58.435 130.373 130.442 130.449h0.007zM799.165 75.836c35.141 0.051 63.616 28.525 63.666 63.661v573.89c-0.051 35.141-28.525 63.616-63.661 63.666h-573.89c-35.141-0.051-63.616-28.525-63.666-63.661v-573.89c0.051-35.141 28.525-63.616 63.661-63.666h0.005zM384.223 673.317h255.555c65.621-0.076 118.797-53.252 118.873-118.866v-255.562c-0.076-65.621-53.252-118.797-118.866-118.873h-255.562c-65.621 0.076-118.797 53.252-118.873 118.866v255.562c0.076 65.621 53.252 118.797 118.866 118.873h0.007zM639.777 246.799c28.759 0.025 52.065 23.332 52.090 52.088v255.557c-0.025 28.759-23.332 52.065-52.088 52.090h-255.557c-28.759-0.025-52.065-23.332-52.090-52.088v-255.557c0.025-28.759 23.332-52.065 52.088-52.090h0.002zM332.132 853.185h-66.783v85.482h66.783zM545.391 853.185h-66.783v85.482h66.783zM758.65 853.185h-66.783v85.482h66.783zM332.132-85.333h-66.783v85.482h66.783zM545.391-85.333h-66.783v85.482h66.783zM758.65-85.333h-66.783v85.482h66.783zM85.482 180.017h-85.482v66.783h85.482zM85.482 393.276h-85.482v66.783h85.482zM85.482 606.535h-85.482v66.783h85.482zM1024 180.017h-85.482v66.783h85.482zM1024 393.276h-85.482v66.783h85.482zM1024 606.535h-85.482v66.783h85.482z" />
<glyph unicode="&#xe95b;" glyph-name="computer-memory" d="M118.428-33.243h-66.783v860.605h-51.645v66.783h118.428zM51.645 809.109h961.224v-705.67h-365.078v42.741h-208.228l-42.296-42.741h-345.622zM946.087 742.326h-827.659v-572.104h251.103l42.296 42.741h302.748v-42.741h231.513zM51.645 638.59h279.597v-365.078h-279.597zM264.459 571.808h-146.031v-231.513h146.031zM434.977 596.295h407.374v-237.301h-407.374zM775.569 529.512h-273.809v-103.736h273.809zM544.501 562.904h-66.783v85.037h66.783zM672.278 562.904h-66.783v85.037h66.783zM800.056 562.904h-66.783v85.037h66.783zM544.501 307.349h-66.783v85.037h66.783zM672.278 307.349h-66.783v85.037h66.783zM800.056 307.349h-66.783v85.037h66.783z" />
<glyph unicode="&#xe95c;" glyph-name="computer-monitor" d="M371.598-57.935l-66.947 13.653 43.691 217.088 67.174-13.653zM816.014-85.333h-608.028v68.267h608.028zM121.060 938.667h781.881c66.828-0.078 120.982-54.231 121.060-121.052v-564.8c-0.078-66.828-54.231-120.982-121.052-121.060h-781.888c-66.828 0.078-120.982 54.231-121.060 121.052v564.8c0.078 66.828 54.231 120.982 121.052 121.060h0.007zM902.94 200.022c29.146 0.026 52.767 23.647 52.793 52.79v564.796c-0.026 29.146-23.647 52.767-52.79 52.793h-781.883c-29.146-0.026-52.767-23.647-52.793-52.79v-564.796c0.026-29.146 23.647-52.767 52.79-52.793h0.003zM649.17-57.844l-43.236 217.088 66.992 13.289 43.236-217.088zM989.867 305.607h-955.733v68.267h955.733z" />
</font>
</defs>
</svg>
