<?xml version="1.0" standalone="no"?>
<!DOCTYPE svg PUBLIC "-//W3C//DTD SVG 1.1//EN" "http://www.w3.org/Graphics/SVG/1.1/DTD/svg11.dtd" >
<svg xmlns="http://www.w3.org/2000/svg">
<metadata>Generated by IcoMoon</metadata>
<defs>
<font id="hand-gesture" horiz-adv-x="1024">
<font-face units-per-em="1024" ascent="960" descent="-64" />
<missing-glyph horiz-adv-x="1024" />
<glyph unicode="&#x20;" horiz-adv-x="512" d="" />
<glyph unicode="&#xe900;" glyph-name="click-thin" horiz-adv-x="1241" d="M909.032-85.333h-410.276c-77.812 0-140.892 63.079-140.892 140.892s63.079 140.892 140.892 140.892v0h37.984l-327.827 332.504c-26.131 25.597-42.33 61.246-42.33 100.678 0 32.438 10.962 62.316 29.384 86.13l-0.241-0.325 0.676 0.845c25.279 29.672 62.677 48.369 104.443 48.369 37.551 0 71.571-15.113 96.311-39.589l211.325-211.325 210.379 157.799c22.441 16.85 50.766 26.984 81.457 26.984 37.585 0 71.62-15.197 96.296-39.781l-0.004 0.004c106.437-106.914 188.893-237.796 238.559-383.836l2.083-7.054v-0.338l3.381-10.708-53.764-16.907-3.325 10.539c-48.836 144.373-126.615 267.799-227.038 368.662l0.033-0.033c-14.42 14.318-34.287 23.167-56.221 23.167-17.952 0-34.519-5.928-47.851-15.932l0.206 0.148-249.491-187.104-246.109 246.053c-13.777 13.931-32.893 22.558-54.024 22.558-0.543 0-1.084-0.006-1.624-0.017l0.081 0.001h-0.902c-0.397 0.007-0.864 0.011-1.333 0.011-23.691 0-44.897-10.639-59.101-27.401l-0.093-0.113c-10.671-14-17.097-31.736-17.097-50.973 0-23.706 9.758-45.134 25.477-60.484l0.017-0.016 0.394-0.394 422.675-428.31h-172.789c-46.687 0-84.535-37.848-84.535-84.535s37.848-84.535 84.535-84.535v0h410.276zM297.563 343.541c-164.332 0.010-297.545 133.23-297.545 297.563 0 164.34 133.224 297.563 297.563 297.563 163.19 0 295.698-131.367 297.544-294.12l0.002-0.175c0.056-2.129 0.087-4.636 0.087-7.15 0-41.218-8.509-80.448-23.867-116.030l0.73 1.901-51.904 21.866c11.808 27.197 18.677 58.875 18.677 92.156 0 2.155-0.029 4.304-0.086 6.446l0.007-0.316v0.394c-1.438 132.116-108.873 238.662-241.193 238.662-133.215 0-241.206-107.992-241.206-241.206s107.992-241.206 241.206-241.206c0.709 0 1.416 0.003 2.124 0.009l-0.108-0.001h0.338c0.233-0.001 0.509-0.001 0.786-0.001 27.663 0 54.208 4.79 78.85 13.586l-1.638-0.51 18.541-53.201c-28.534-10.286-61.461-16.232-95.777-16.232-0.288 0-0.575 0-0.862 0.001h0.045z" />
<glyph unicode="&#xe901;" glyph-name="count-finger-thin" horiz-adv-x="917" d="M568.324 828.678h-45.829c0 35.435-28.726 64.16-64.16 64.16s-64.16-28.726-64.16-64.16v0h-45.829c0 60.745 49.244 109.989 109.989 109.989s109.989-49.244 109.989-109.989v0zM742.473 785.14h-45.829c0 35.435-28.726 64.16-64.16 64.16s-64.16-28.726-64.16-64.16v0h-45.829c0 60.745 49.244 109.989 109.989 109.989s109.989-49.244 109.989-109.989v0zM829.548-85.15h-45.829c0 0.074 0 0.162 0 0.25 0 63.444 12.56 123.955 35.33 179.181l-1.142-3.128 21.952 55.728c19.569 47.103 30.935 101.815 30.935 159.181 0 0.059 0 0.117 0 0.176v-0.010 348.299c0 35.435-28.726 64.16-64.16 64.16s-64.16-28.726-64.16-64.16v0-216.312h-45.829v216.312c0 60.745 49.244 109.989 109.989 109.989s109.989-49.244 109.989-109.989v-348.299c0-0.074 0-0.162 0-0.25 0-63.444-12.56-123.955-35.33-179.181l1.142 3.128-21.952-55.728c-19.569-47.103-30.935-101.815-30.935-159.181 0-0.059 0-0.117 0-0.176v0.010zM220.024 306.687h-45.829v478.453c0 60.745 49.244 109.989 109.989 109.989s109.989-49.244 109.989-109.989v0-346.924h-45.829v346.924c0 35.435-28.726 64.16-64.16 64.16s-64.16-28.726-64.16-64.16v0zM394.174 437.299h-45.829v391.378h45.829zM568.324 437.299h-45.829v391.378h45.829zM742.473 437.299h-45.829v347.841h45.829zM220.024-85.333l-45.829 0.412c0.007 0.606 0.011 1.321 0.011 2.038 0 50.587-20.163 96.464-52.89 130.034l0.038-0.039-63.748 61.456c-35.563 35.521-57.562 84.615-57.562 138.847 0 0.215 0 0.429 0.001 0.644v-0.033 160.401c-0.023 0.932-0.036 2.030-0.036 3.131 0 51.726 28.565 96.781 70.781 120.249l0.702 0.358 0.779 0.412c17.377 9.028 37.942 14.323 59.743 14.323 29.717 0 57.137-9.838 79.179-26.436l-0.336 0.243-27.497-36.663c-14.224 10.768-32.214 17.248-51.717 17.248-14.041 0-27.297-3.359-39.010-9.316l0.489 0.226c-28.406-15.939-47.285-45.866-47.285-80.201 0-0.902 0.013-1.801 0.039-2.697l-0.003 0.132v-161.409c-0.001-0.145-0.001-0.316-0.001-0.487 0-41.571 16.829-79.211 44.045-106.479l-0.002 0.002 64.16-61.777c40.795-41.751 65.963-98.923 65.963-161.974 0-0.929-0.005-1.857-0.016-2.784l0.001 0.141z" />
<glyph unicode="&#xe902;" glyph-name="double-click-thin" horiz-adv-x="1120" d="M766.010-85.333h-357.257c-70.62 0.722-127.59 58.139-127.59 128.861 0 33.251 12.594 63.561 33.271 86.42l-0.099-0.111 0.919 0.97c22.75 22.665 54.057 36.754 88.654 37.001h31.077l-253.346 253.295c-23.403 22.565-37.937 54.192-37.937 89.213 0 28.674 9.743 55.073 26.1 76.066l-0.208-0.277 0.715 0.715c22.236 26.18 55.18 42.681 91.978 42.681 33.084 0 63.053-13.339 84.821-34.932l200.668-200.668-36.083-36.083-200.574 200.574c-12.54 12.436-29.808 20.121-48.871 20.121-20.954 0-39.739-9.285-52.466-23.965l-0.073-0.086c-9.35-12.13-14.986-27.541-14.986-44.269 0-20.712 8.64-39.406 22.512-52.675l0.027-0.026 340.976-340.976h-154.080c-0.464 0.011-1.011 0.017-1.559 0.017-38.926 0-70.482-31.556-70.482-70.482 0-1.173 0.029-2.339 0.085-3.498l-0.006 0.163v-0.459c0-42.28 34.275-76.555 76.555-76.555v0h357.257zM1071.515 266.412l-3.062 9.187c-42.813 126.69-110.668 235.093-198.231 324.038l0.106-0.108-0.459 0.51c-11.617 12.329-28.054 20.006-46.283 20.006-14.877 0-28.56-5.113-39.387-13.677l0.133 0.102-136.523-117.384-236.198 236.351c-12.525 12.356-29.739 19.987-48.735 19.987-24.9 0-46.738-13.112-58.986-32.808l-0.171-0.295c-5.632-10.113-8.948-22.183-8.948-35.028 0-20.675 8.591-39.344 22.398-52.631l0.023-0.022 230.533-230.533-36.083-36.083-229.971 229.971c-23.386 22.603-37.905 54.251-37.905 89.291 0 22.117 5.785 42.883 15.924 60.868l-0.322-0.621 0.459 0.817c21.469 35.095 59.586 58.16 103.091 58.16 33.040 0 62.973-13.303 84.734-34.846l202.81-202.81 101.614 87.171c19.42 15.547 44.345 24.949 71.467 24.949 32.783 0 62.357-13.738 83.281-35.77l0.047-0.050c92.692-94.211 164.616-209.152 208.165-337.21l1.851-6.267 3.062-9.136zM264.268 247.937h-2.858c-0.005 0-0.011 0-0.018 0-144.316 0-261.308 116.992-261.308 261.308 0 85.045 40.628 160.602 103.534 208.319l0.65 0.472c20.035 126.421 128.245 221.92 258.76 221.92 144.598 0 261.818-117.22 261.818-261.818 0-0.525-0.002-1.049-0.005-1.573v0.081c0.005-0.557 0.007-1.216 0.007-1.876 0-33.665-6.678-65.771-18.782-95.064l0.605 1.654-47.311 19.088c9.173 22.040 14.5 47.643 14.5 74.491 0 0.546-0.002 1.092-0.007 1.638l0.001-0.084c0.002 0.346 0.003 0.756 0.003 1.166 0 116.411-94.37 210.782-210.782 210.782-108.263 0-197.463-81.622-209.419-186.686l-0.089-0.967-1.327-11.585-9.595-6.584c-55.441-38.417-91.292-101.708-91.292-173.372 0-116.13 94.142-210.271 210.271-210.271 0.193 0 0.386 0 0.579 0.001h0.276c0.584-0.006 1.275-0.010 1.966-0.010 26.881 0 52.518 5.329 75.912 14.988l-1.323-0.484 19.088-47.362c-27.678-11.494-59.825-18.169-93.531-18.169-0.114 0-0.229 0-0.343 0h0.018z" />
<glyph unicode="&#xe903;" glyph-name="double-finger-thin" horiz-adv-x="849" d="M274.365-85.38l-239.521 239.521c-21.465 21.388-34.746 50.977-34.746 83.667 0 65.229 52.878 118.107 118.107 118.107 32.538 0 62.003-13.158 83.364-34.443l-0.003 0.003 21.123-21.265v338.819c-0.002 0.272-0.004 0.593-0.004 0.915 0 59.336 43.737 108.457 100.732 116.881l0.644 0.078h0.754c2.943 0.271 6.364 0.426 9.821 0.426 61.369 0 111.362-48.71 113.423-109.577l0.005-0.189v-267.387h-47.15v266.585c-0.437 17.198-7.721 32.614-19.218 43.689l-0.020 0.019-0.707 0.707c-11.243 11.765-27.057 19.078-44.58 19.078-2.184 0-4.341-0.114-6.466-0.335l0.266 0.022c-34.391-5.191-60.45-34.54-60.45-69.974 0-0.264 0.001-0.527 0.004-0.79v0.040-453.534l-101.514 102.457c-12.827 12.769-30.516 20.662-50.050 20.662-39.183 0-70.948-31.764-70.948-70.948 0-19.65 7.989-37.435 20.895-50.283l239.571-239.571zM756.991-76.422l-41.68 22.066 4.102 7.78c51.661 101.87 82.025 222.073 82.276 349.344v0.083c0 0.009 0 0.019 0 0.030 0 31.626-24.251 57.589-55.172 60.306l-0.229 0.016-167.146 14.145v314.489c-0.294 35.972-29.523 65.019-65.536 65.019-5.609 0-11.054-0.705-16.251-2.030l0.454 0.098c-29.075-9.363-49.744-36.177-49.744-67.818 0-0.094 0-0.187 0.001-0.281v0.014-306.474h-47.15v306.285c0 0.095 0 0.208 0 0.321 0 53.022 34.826 97.909 82.852 113.035l0.839 0.228 0.99 0.283c8.406 2.246 18.057 3.536 28.009 3.536 61.987 0 112.285-50.050 112.686-111.943v-271.385l124.098-10.42c55.347-4.817 98.449-50.935 98.449-107.12 0-0.101 0-0.202 0-0.303v0.016c-0.242-135.139-32.471-262.694-89.515-375.574l2.194 4.788-0.283-0.519zM237.258 421.575c-29.887 12.498-55.282 30.271-76.141 52.371l-0.1 0.107c-45.045 44.622-72.935 106.493-72.935 174.878 0 135.929 110.193 246.122 246.122 246.122 12.223 0 24.238-0.891 35.984-2.612l-1.334 0.16c39.899 28.941 89.841 46.295 143.837 46.295 136.19 0 246.594-110.404 246.594-246.594 0-67.667-27.255-128.968-71.386-173.525l0.019 0.019c-21.096-21.779-46.31-39.425-74.407-51.703l-1.504-0.586-18.624 43.331c23.706 10.32 43.895 24.482 60.724 41.909l0.052 0.054c35.099 35.917 56.754 85.103 56.754 139.346 0 110.15-89.294 199.444-199.444 199.444-46.202 0-88.734-15.71-122.547-42.079l0.444 0.333-8.393-6.601-10.467 1.933c-10.968 2.145-23.58 3.373-36.479 3.373-109.889 0-198.972-89.083-198.972-198.972 0-55.428 22.664-105.562 59.231-141.642l0.635-0.635c16.537-17.589 36.595-31.66 59.073-41.114l1.138-0.425z" />
<glyph unicode="&#xe904;" glyph-name="double-press-thin" horiz-adv-x="838" d="M270.868-85.333l-236.591 236.591c-21.144 20.94-34.245 49.968-34.278 82.055v0.006c0.034 32.322 13.144 61.576 34.325 82.761v0c20.955 21.141 50.003 34.231 82.108 34.231v0c32.324-0.069 61.571-13.19 82.761-34.371l20.725-20.725v423.954c-0.002 0.268-0.003 0.586-0.003 0.904 0 58.61 43.202 107.13 99.499 115.451l0.636 0.077h1.118c2.764 0.242 5.981 0.381 9.229 0.381 61.886 0 112.055-50.169 112.055-112.055 0-0.461-0.003-0.922-0.008-1.382l0.001 0.070v-351.812h-46.573v352.697c0.014 0.492 0.022 1.071 0.022 1.652 0 17.619-7.285 33.537-19.008 44.905l-0.016 0.015-0.419 0.419c-11.46 11.673-27.407 18.907-45.042 18.907-1.9 0-3.779-0.084-5.636-0.248l0.24 0.017c-33.881-5.21-59.524-34.156-59.524-69.091 0-0.27 0.002-0.54 0.005-0.81v0.041-536.521l-100.411 100.272c-12.702 12.729-30.247 20.622-49.636 20.678h-0.011c-19.239-0.036-36.634-7.902-49.175-20.579l-0.006-0.006c-12.751-12.724-20.648-30.307-20.678-49.734v-0.006c0.036-19.239 7.902-36.634 20.579-49.175l236.643-236.643zM747.589-79.558l-41.171 21.75 4.145 7.824c51.017 100.538 80.982 219.183 81.177 344.809v0.064c0 0.042 0 0.091 0 0.14 0 31.088-23.928 56.587-54.371 59.086l-0.213 0.014-165.241 14.438v398.106c0 0.067 0 0.145 0 0.224 0 17.64-7.275 33.58-18.988 44.985l-0.014 0.013-0.419 0.419c-11.611 11.772-27.738 19.065-45.569 19.065-5.467 0-10.773-0.685-15.838-1.975l0.443 0.096c-28.696-9.263-49.089-35.737-49.089-66.974 0-0.114 0-0.228 0.001-0.342v0.018-391.213h-46.573v391.027c0 0.094 0 0.205 0 0.317 0 52.373 34.4 96.711 81.838 111.652l0.829 0.225 0.931 0.279c8.226 2.189 17.669 3.446 27.406 3.446 30.75 0 58.572-12.537 78.632-32.779l0.008-0.008c20.326-19.895 32.927-47.612 32.927-78.272 0-0.104 0-0.209 0-0.313v0.016-355.352l122.673-10.712c54.591-4.479 97.198-49.887 97.198-105.248 0-0.117 0-0.234-0.001-0.351v0.018c-0.176-133.433-32.002-259.391-88.369-370.825l2.163 4.715-0.279-0.512zM723.465 594.679l-32.974 32.881c35.46 35.667 57.378 84.831 57.378 139.113s-21.918 103.446-57.387 139.123l0.009-0.009 32.974 32.881c43.835-44.1 70.929-104.883 70.929-171.994s-27.094-127.894-70.941-172.006l0.012 0.012zM114.896 550.388c-44.421 44.205-71.911 105.39-71.911 172.995s27.49 128.79 71.901 172.986l0.010 0.010 32.834-33.020c-35.94-35.769-58.181-85.275-58.181-139.975s22.241-104.206 58.174-139.967l0.008-0.008z" />
<glyph unicode="&#xe905;" glyph-name="double-touch-finger-thin" horiz-adv-x="1049" d="M372.802-85.381l-242.333 242.333c-19.485 21.159-31.431 49.523-31.431 80.677 0 65.865 53.394 119.258 119.258 119.258 31.237 0 59.669-12.010 80.931-31.663l-0.080 0.073 21.848-21.657v342.462c-0.002 0.263-0.003 0.574-0.003 0.886 0 59.857 43.94 109.452 101.325 118.288l0.668 0.085h1.574c2.717 0.228 5.88 0.359 9.073 0.359 62.982 0 114.135-50.646 114.955-113.433l0.001-0.077v-270.383h-47.703v269.858c-0.645 36.651-30.508 66.115-67.252 66.115-1.531 0-3.050-0.051-4.555-0.152l0.204 0.011c-34.45-5.713-60.395-35.288-60.395-70.924 0-0.222 0.001-0.444 0.003-0.665v0.034-457.284l-103.325 102.61c-12.609 11.34-29.377 18.276-47.764 18.276-39.519 0-71.555-32.036-71.555-71.555 0-18.316 6.882-35.025 18.201-47.682l-0.061 0.069 242.142-242.142zM861.57-78.655l-42.933 20.322 4.055 8.634c52.429 102.875 83.147 224.364 83.147 353.027 0 0.093 0 0.186 0 0.28v-0.015c0.002 0.164 0.003 0.358 0.003 0.553 0 31.726-24.329 57.769-55.347 60.491l-0.23 0.016-169.585 14.311v317.99c0.002 0.193 0.003 0.421 0.003 0.65 0 17.806-7.302 33.906-19.075 45.47l-0.343 0.343c-11.893 12.058-28.412 19.528-46.675 19.528-5.599 0-11.035-0.702-16.223-2.023l0.454 0.098c-29.392-9.488-50.28-36.604-50.28-68.599 0-0.117 0-0.233 0.001-0.35v0.018-310.072h-47.703v309.881c0 0.096 0 0.21 0 0.325 0 53.644 35.235 99.058 83.825 114.362l0.849 0.231 0.954 0.286c8.437 2.248 18.122 3.539 28.109 3.539 31.501 0 60.002-12.845 80.55-33.584l0.008-0.009c20.619-20.275 33.395-48.468 33.395-79.646 0-0.292-0.001-0.583-0.003-0.874v0.045-273.722l126.032-10.59c55.725-4.823 99.132-51.248 99.132-107.811 0-0.335-0.002-0.669-0.005-1.004v0.051c-0.040-136.42-32.64-265.217-90.45-379.054l2.199 4.774zM835.906 520.499l-33.774 33.679c36.32 36.533 58.771 86.89 58.771 142.49s-22.45 105.957-58.78 142.499l0.010-0.010 33.774 33.679c44.899-45.171 72.651-107.429 72.651-176.168s-27.752-130.998-72.663-176.181l0.012 0.012zM213.472 475.658c-44.899 45.171-72.651 107.429-72.651 176.168s27.752 130.998 72.663 176.181l-0.012-0.012 33.774-33.679c-36.32-36.533-58.771-86.89-58.771-142.49s22.45-105.957 58.78-142.499l-0.010 0.010zM100.129 409.828c-61.753 62.015-99.93 147.549-99.93 241.999s38.177 179.984 99.942 242.011l-0.012-0.012 33.822-33.679c-53.038-53.44-85.816-127.052-85.816-208.321s32.778-154.881 85.834-208.339l-0.018 0.019zM949.249 454.669l-33.822 33.679c53.038 53.44 85.816 127.052 85.816 208.321s-32.778 154.881-85.834 208.339l0.018-0.019 33.822 33.679c61.753-62.015 99.93-147.549 99.93-241.999s-38.177-179.984-99.942-242.011l0.012 0.012z" />
<glyph unicode="&#xe906;" glyph-name="double-touch-thin" horiz-adv-x="869" d="M373.261-85.378l-242.618 242.618c-21.391 21.391-34.622 50.944-34.622 83.586 0 65.285 52.924 118.208 118.208 118.208 32.642 0 62.194-13.231 83.586-34.622l23.721-23.721v391.345c-0.020 0.809-0.032 1.762-0.032 2.718 0 59.112 44.186 107.904 101.33 115.15l0.574 0.059h0.767c3.041 0.291 6.575 0.458 10.148 0.458 62.265 0 112.741-50.476 112.741-112.741 0-0.161 0-0.322-0.001-0.482v0.025-250.915l218.717-31.071c55.131-8.153 96.96-55.144 96.96-111.905 0-0.294-0.001-0.588-0.003-0.881v0.045c-0.023-136.64-32.728-265.635-90.723-379.602l2.199 4.762-0.496-0.947-4.059-7.215-39.324 22.097 3.788 6.764c52.657 103.216 83.513 225.12 83.518 354.23v0.226c0.002 0.198 0.003 0.432 0.003 0.666 0 34.019-25.113 62.173-57.812 66.935l-0.365 0.044-257.499 36.573v290.194c0 0.071 0 0.155 0 0.239 0 37.359-30.285 67.644-67.644 67.644-2 0-3.98-0.087-5.937-0.257l0.254 0.018c-35.146-4.662-61.982-34.441-61.982-70.488 0-0.586 0.007-1.17 0.021-1.752l-0.002 0.086v-500.884l-100.745 100.7c-13.232 13.232-31.512 21.416-51.703 21.416-40.382 0-73.119-32.736-73.119-73.119 0-20.191 8.184-38.471 21.416-51.703l242.618-242.618zM213.666 521.617c-45.017 44.906-72.868 107.003-72.868 175.605s27.851 130.698 72.863 175.6l0.005 0.005 31.838-31.928c-36.832-36.742-59.619-87.548-59.619-143.677s22.787-106.935 59.615-143.672l0.004-0.004zM100.023 455.777c-61.796 61.781-100.019 147.138-100.019 241.423s38.223 179.642 100.018 241.422l0.001 0.001 31.883-31.883c-53.638-53.62-86.816-127.705-86.816-209.54s33.177-155.919 86.814-209.539l0.001-0.001zM654.978 521.617l-31.838 31.928c36.832 36.742 59.619 87.548 59.619 143.677s-22.787 106.935-59.615 143.672l-0.004 0.004 31.838 31.928c45.017-44.906 72.868-107.003 72.868-175.605s-27.851-130.698-72.863-175.6l-0.005-0.005zM768.62 455.777l-31.883 31.883c53.638 53.62 86.816 127.705 86.816 209.54s-33.177 155.919-86.814 209.539l-0.001 0.001 31.883 31.883c61.796-61.781 100.019-147.138 100.019-241.423s-38.223-179.642-100.018-241.422l-0.001-0.001z" />
<glyph unicode="&#xe907;" glyph-name="down-move-thin" horiz-adv-x="1003" d="M438.438-85.333l-235.831 235.602c-20.997 20.957-33.987 49.93-33.987 81.937 0 63.934 51.829 115.764 115.764 115.764 31.927 0 60.836-12.925 81.779-33.828l21.337-21.337v378.321c-0.003 0.289-0.004 0.631-0.004 0.973 0 58.104 43.195 106.12 99.225 113.688l0.591 0.065h0.642c3.322 0.363 7.175 0.571 11.076 0.571 30.315 0 57.705-12.519 77.284-32.668l0.025-0.026c19.85-19.917 32.124-47.397 32.124-77.744 0-0.095 0-0.19 0-0.285v0.015-306.548h-45.89v306.548c0.001 0.138 0.002 0.3 0.002 0.463 0 17.627-7.098 33.595-18.592 45.203l-0.27 0.27c-11.281 11.517-26.992 18.657-44.371 18.657-2.151 0-4.277-0.109-6.372-0.323l0.263 0.022c-33.864-4.684-59.66-33.44-59.66-68.221 0-0.216 0.001-0.432 0.003-0.647v0.033-489.101l-99.949 99.72c-12.548 12.587-29.904 20.376-49.078 20.376-0.073 0-0.146 0-0.219 0h-0.677c-0.56 0.016-1.22 0.026-1.881 0.026-38.017 0-68.836-30.819-68.836-68.836 0-19.654 8.237-37.384 21.447-49.926l0.030-0.028 236.29-236.29zM912.807-79.184l-41.026 20.513 4.13 8.26c51.083 100.199 81.035 218.525 81.088 343.84v0.017c0 0.053 0 0.115 0 0.178 0 31.13-23.991 56.657-54.493 59.099l-0.209 0.013-164.196 14.226v352.576c0.001 0.154 0.002 0.336 0.002 0.518 0 17.521-7.3 33.336-19.025 44.571l-0.022 0.021-0.688 0.551c-11.198 11.639-26.907 18.869-44.304 18.869-5.69 0-11.199-0.773-16.428-2.221l0.432 0.102c-28.782-8.676-49.384-34.947-49.384-66.030 0-0.309 0.002-0.617 0.006-0.925v0.047-345.876h-45.89v345.555c-0.005 0.392-0.008 0.854-0.008 1.317 0 51.977 34.469 95.904 81.796 110.169l0.815 0.211h0.413c8.465 2.4 18.187 3.779 28.231 3.779 30.213 0 57.51-12.483 77.016-32.572l0.025-0.026c20.302-19.622 32.906-47.096 32.906-77.515 0-0.272-0.001-0.544-0.003-0.816v0.042-310.22l122.206-10.555c54.294-4.392 96.692-49.537 96.692-104.584 0-0.162 0-0.323-0.001-0.485v0.025c-0.041-132.89-31.792-258.355-88.096-369.252l2.143 4.652zM147.446 468.014l-147.446 147.4 32.445 32.445 115.093-115.047 115.46 115.093 32.399-32.49zM170.437 500.413h-45.89v438.254h45.89z" />
<glyph unicode="&#xe908;" glyph-name="drag-down-thin" horiz-adv-x="1001" d="M527.809-85.333l-237.702 235.866c-20.959 20.947-33.923 49.892-33.923 81.865 0 63.923 51.819 115.742 115.742 115.742 31.95 0 60.876-12.946 81.82-33.878l21.384-21.384v377.799c-0.003 0.289-0.004 0.631-0.004 0.973 0 58.102 43.193 106.115 99.22 113.683l0.591 0.065h1.055c2.777 0.247 6.008 0.388 9.271 0.388 61.096 0 110.669-49.339 111.048-110.346v-243.703l209.756-30.195c53.847-8.154 94.68-53.991 94.943-109.416v-0.028c-0.050-132.713-31.799-257.999-88.087-368.713l2.138 4.635-4.13-8.26-41.024 20.512 4.13 8.26c51.096 100.103 81.051 218.333 81.085 343.555v0.011c-0.046 32.539-23.986 59.473-55.211 64.199l-0.36 0.045-249.128 35.885v283.040c-0.414 35.671-29.427 64.429-65.157 64.429-1.729 0-3.443-0.067-5.139-0.2l0.224 0.014c-33.711-4.828-59.337-33.509-59.337-68.174 0-0.231 0.001-0.463 0.003-0.693v0.035-488.574l-99.761 99.761c-12.642 12.642-30.107 20.462-49.399 20.462-38.583 0-69.861-31.278-69.861-69.861 0-19.291 7.819-36.757 20.462-49.399v0l237.656-235.821zM682.315 454.085l-17.896 42.263c23.385 10.019 43.322 23.808 59.993 40.811l0.029 0.030c35.581 35.548 57.59 84.675 57.59 138.942 0 108.47-87.932 196.402-196.402 196.402s-196.402-87.932-196.402-196.402c0-54.267 22.009-103.394 57.588-138.941l0.002-0.002c16.735-17.092 36.718-30.927 58.961-40.518l1.199-0.46-17.896-42.263c-29.177 12.494-54.052 29.692-74.854 50.899l-0.036 0.037c-43.806 43.839-70.898 104.385-70.898 171.258 0 133.814 108.477 242.291 242.291 242.291s242.291-108.477 242.291-242.291c0-66.873-27.092-127.419-70.899-171.259l0.002 0.002c-20.779-21.177-45.576-38.326-73.168-50.226l-1.492-0.573zM147.439 468.035l-147.439 147.394 32.443 32.443 115.088-115.042 115.455 115.088 32.397-32.489zM170.43 500.433h-45.888v438.234h45.888z" />
<glyph unicode="&#xe909;" glyph-name="drag-left-thin" horiz-adv-x="1038" d="M555.026-85.333l-242.516 240.644c-21.306 21.259-34.486 50.653-34.486 83.125 0 64.852 52.573 117.424 117.424 117.424 32.379 0 61.698-13.105 82.94-34.301l-0.002 0.002 22.894-22.192v386.622c-0.003 0.295-0.004 0.644-0.004 0.993 0 59.278 44.067 108.264 101.23 115.985l0.603 0.067h0.936c2.624 0.215 5.68 0.337 8.764 0.337 62.532 0 113.319-50.284 114.132-112.623l0.001-0.077v-247.339l214.004-30.806c55-8.329 96.694-55.194 96.866-111.83v-0.018c-0.051-135.401-32.443-263.225-89.871-376.181l2.181 4.729-4.214-8.427-41.855 20.928 4.214 8.427c52.131 102.13 82.692 222.755 82.727 350.514v0.012c-0.047 33.198-24.471 60.677-56.33 65.499l-0.367 0.046-254.174 36.612v287.836c0.001 0.135 0.002 0.294 0.002 0.453 0 17.802-7.431 33.867-19.36 45.265l-0.024 0.023-0.702 0.655c-11.628 12.022-27.904 19.486-45.924 19.486-1.963 0-3.905-0.089-5.823-0.262l0.247 0.018c-34.438-4.884-60.632-34.167-60.632-69.568 0-0.232 0.001-0.463 0.003-0.694v0.035-497.299l-102.765 99.675c-12.779 12.779-30.432 20.682-49.931 20.682-38.999 0-70.613-31.615-70.613-70.613 0-19.499 7.904-37.153 20.682-49.931v0l242.516-240.644zM712.661 465.011l-18.259 43.119c23.859 10.222 44.199 24.29 61.208 41.637l0.030 0.031c36.301 36.268 58.756 86.39 58.756 141.757 0 110.667-89.713 200.38-200.38 200.38s-200.38-89.713-200.38-200.38c0-55.366 22.455-105.488 58.755-141.755l0.002-0.002c17.074-17.438 37.461-31.554 60.155-41.339l1.223-0.469-18.259-43.119c-29.768 12.747-55.147 30.293-76.37 51.93l-0.037 0.038c-44.693 44.727-72.334 106.499-72.334 174.726 0 136.524 110.674 247.198 247.198 247.198s247.198-110.674 247.198-247.198c0-68.228-27.641-129.999-72.335-174.728l0.002 0.002c-21.2-21.606-46.499-39.103-74.65-51.243l-1.522-0.584zM150.426 540.247l-150.379 150.941 150.379 150.426 33.1-33.1-117.372-117.419 117.419-117.794zM390.789 667.732h-357.688v46.818h357.688z" />
<glyph unicode="&#xe90a;" glyph-name="drag-right-thin" horiz-adv-x="951" d="M275.131-85.192l-240.493 240.493c-21.421 21.421-34.67 51.014-34.67 83.702 0 65.375 52.997 118.372 118.372 118.372 32.688 0 62.281-13.249 83.702-34.67l21.461-21.461v384.929c-0.002 0.273-0.004 0.596-0.004 0.919 0 59.806 44.621 109.19 102.388 116.676l0.59 0.062h1.224c2.494 0.195 5.4 0.306 8.332 0.306 62.418 0 113.060-50.42 113.42-112.753v-248.104l215.079-30.968c55.365-7.827 97.536-54.728 97.891-111.55v-0.037c-0.157-135.418-32.513-263.243-89.821-376.278l2.19 4.762-4.236-8.518-42.074 21.037 4.236 8.518c51.99 102.143 82.505 222.731 82.643 350.434v0.046c-0.095 33.26-24.818 60.716-56.887 65.097l-0.342 0.038h-0.235l-255.506 36.803v288.685c-0.402 36.342-29.956 65.647-66.355 65.647-1.492 0-2.972-0.049-4.439-0.146l0.199 0.011c-34.73-4.804-61.185-34.295-61.185-69.965 0-0.221 0.001-0.443 0.003-0.664v0.034-498.869l-101.845 101.845c-12.906 12.906-30.735 20.888-50.428 20.888-39.387 0-71.316-31.929-71.316-71.316 0-19.693 7.982-37.522 20.888-50.428l240.493-240.493zM435.052 464.929l-18.261 43.392c23.792 10.159 44.041 24.299 60.842 41.779l0.058 0.060 0.282 0.282c36.16 36.19 58.523 86.17 58.523 141.373 0 110.467-89.551 200.018-200.018 200.018s-200.018-89.551-200.018-200.018c0-55.203 22.363-105.183 58.524-141.375l-0.001 0.001 0.329-0.282c16.865-17.486 37.115-31.58 59.71-41.245l1.19-0.453-18.261-43.392c-29.821 12.658-55.216 30.283-76.324 52.084l-0.059 0.062c-44.581 44.691-72.148 106.372-72.148 174.492 0 136.459 110.622 247.082 247.082 247.082s247.082-110.622 247.082-247.082c0-68.12-27.567-129.801-72.153-174.497l0.005 0.005c-21.16-21.917-46.556-39.589-74.889-51.718l-1.495-0.569zM800.074 540.748l-32.944 32.944 117.658 117.658-117.658 117.658 32.944 32.944 150.602-150.602zM917.731 667.819h-357.68v47.063h357.68z" />
<glyph unicode="&#xe90b;" glyph-name="drag-up-thin" horiz-adv-x="1021" d="M538.499-85.333l-242.516 240.644c-21.306 21.259-34.486 50.653-34.486 83.125 0 64.852 52.573 117.424 117.424 117.424 32.379 0 61.698-13.105 82.94-34.301l-0.002 0.002 22.894-22.192v386.622c-0.003 0.295-0.004 0.644-0.004 0.993 0 59.278 44.067 108.264 101.23 115.985l0.603 0.067h0.936c2.624 0.215 5.68 0.337 8.764 0.337 62.532 0 113.319-50.284 114.132-112.623l0.001-0.077v-247.339l214.004-30.806c55-8.329 96.694-55.194 96.866-111.83v-0.018c-0.051-135.401-32.443-263.225-89.871-376.181l2.181 4.729-4.214-8.427-41.855 20.928 4.214 8.427c52.131 102.13 82.692 222.755 82.727 350.514v0.012c-0.047 33.198-24.471 60.677-56.33 65.499l-0.367 0.046-254.174 36.612v287.836c0.001 0.135 0.002 0.294 0.002 0.453 0 17.802-7.431 33.867-19.36 45.265l-0.024 0.023-0.702 0.655c-11.628 12.022-27.904 19.486-45.924 19.486-1.963 0-3.905-0.089-5.823-0.262l0.247 0.018c-34.438-4.884-60.632-34.167-60.632-69.568 0-0.232 0.001-0.463 0.003-0.694v0.035-497.299l-102.765 99.675c-12.779 12.779-30.432 20.682-49.931 20.682-38.999 0-70.613-31.615-70.613-70.613 0-19.499 7.904-37.153 20.682-49.931v0l242.516-240.644zM696.135 465.011l-18.259 43.119c23.859 10.222 44.199 24.29 61.208 41.637l0.030 0.031c36.301 36.268 58.756 86.39 58.756 141.757 0 110.667-89.713 200.38-200.38 200.38s-200.38-89.713-200.38-200.38c0-55.366 22.455-105.488 58.755-141.755l0.002-0.002c17.074-17.438 37.461-31.554 60.155-41.339l1.223-0.469-18.259-43.119c-29.768 12.747-55.147 30.293-76.37 51.93l-0.037 0.038c-44.693 44.727-72.334 106.499-72.334 174.726 0 136.524 110.674 247.198 247.198 247.198s247.198-110.674 247.198-247.198c0-68.228-27.641-129.999-72.335-174.728l0.002 0.002c-21.2-21.606-46.499-39.103-74.65-51.243l-1.522-0.584zM268.266 719.044l-117.747 117.794-117.372-117.747-33.147 33.053 150.426 150.988 150.988-150.941zM173.881 422.875h-46.818v447.11h46.818z" />
<glyph unicode="&#xe90c;" glyph-name="draw-line-thin" horiz-adv-x="1055" d="M277.912-85.333l-240.589 240.075c-23.044 21.417-37.415 51.896-37.415 85.731 0 64.577 52.35 116.927 116.927 116.927 1.644 0 3.281-0.034 4.909-0.101l-0.233 0.008c32.496-0.196 61.838-13.539 83.006-34.973l21.76-21.76v385.859c-0.006 0.459-0.010 1.001-0.010 1.544 0 58.756 43.338 107.39 99.792 115.68l0.635 0.077h0.795c3.509 0.403 7.576 0.634 11.696 0.634 30.579 0 58.197-12.677 77.887-33.061l0.030-0.031c20.669-20.155 33.489-48.275 33.489-79.39 0-0.141 0-0.282-0.001-0.423v0.022-247.885l216.128-30.822c54.999-8.574 96.613-55.529 96.769-112.233v-0.017c0.008-1.336 0.012-2.916 0.012-4.497 0-133.591-31.455-259.834-87.362-371.729l2.18 4.819-4.256-8.559-41.813 20.907 4.209 8.419c50.659 100.999 80.318 220.073 80.318 346.075 0 1.539-0.004 3.077-0.013 4.614l0.001-0.236c-0.086 33.277-24.478 60.831-56.355 65.851l-0.378 0.049-256.164 36.715v288.763c0 0.092 0.001 0.2 0.001 0.309 0 18.045-7.47 34.345-19.487 45.977l-0.625 0.625c-11.264 11.739-27.083 19.033-44.605 19.033-2.229 0-4.43-0.118-6.598-0.348l0.27 0.023c-34.094-5.169-59.921-34.271-59.921-69.406 0-0.363 0.003-0.725 0.008-1.086l-0.001 0.055v-499.232l-101.96 101.82c-12.787 12.947-30.518 20.984-50.126 21.047h-0.901c-0.859 0.038-1.867 0.059-2.879 0.059-38.746 0-70.156-31.41-70.156-70.156 0-20.336 8.653-38.652 22.478-51.466l0.045-0.041 0.702-0.655 240.87-240.402zM940.327 668.332h-511.673v46.771h382.585l-267.997 223.564h511.673v-46.771h-382.585z" />
<glyph unicode="&#xe90d;" glyph-name="draw-thin" horiz-adv-x="887" d="M613.143-85.333h-337.92c-64.909 0-117.527 52.619-117.527 117.527s52.619 117.527 117.527 117.527v0h30.394l-270.662 270.662c-21.594 21.143-34.981 50.593-34.981 83.171 0 26.803 9.062 51.489 24.289 71.162l-0.199-0.267 0.698 0.884c20.793 24.427 51.567 39.819 85.935 39.819 30.725 0 58.577-12.302 78.899-32.249l174.389-174.389 173.801 129.862c18.46 13.891 41.773 22.246 67.036 22.246 30.971 0 59.010-12.557 79.302-32.857v0c88.061-88.328 156.417-196.354 197.882-316.891l1.751-5.856v-0.372l2.793-8.844-44.404-13.964-2.746 8.657c-40.814 119.228-105.324 221.128-188.434 304.472l0.018-0.018c-11.84 11.824-28.188 19.136-46.243 19.136-14.723 0-28.31-4.862-39.243-13.067l0.169 0.121-206.103-154.065-202.752 202.752c-11.898 11.606-28.18 18.766-46.135 18.766-19.977 0-37.884-8.863-50.004-22.871l-0.071-0.084c-8.801-11.557-14.101-26.196-14.101-42.073 0-19.593 8.070-37.3 21.068-49.98l350.222-350.222h-142.569c-39.202 0-70.982-31.78-70.982-70.982s31.78-70.982 70.982-70.982v0h337.92zM332.009 536.514h-130.327v46.545h130.327c36.225 0.053 65.576 29.404 65.629 65.624v0.005c0.001 0.139 0.002 0.302 0.002 0.466 0 35.875-28.99 64.979-64.822 65.163h-132.998c-61.703 0.495-111.6 50.343-112.174 111.98v0.055c0 0.041 0 0.091 0 0.14 0 61.952 50.222 112.175 112.175 112.175 0 0 0 0 0 0h221.091v-46.545h-221.091c-36.246 0-65.629-29.383-65.629-65.629v0c0.366-36.147 29.61-65.343 65.741-65.629h133.007c61.495-0.264 111.245-50.176 111.245-111.708 0-0.213-0.001-0.426-0.002-0.639v0.033c-0.132-61.871-50.293-111.982-112.17-112.035h-0.005z" />
<glyph unicode="&#xe90e;" glyph-name="fist-thin" horiz-adv-x="995" d="M580.007 117.511c-0.847 191.023-155.731 345.589-346.795 345.921h-0.032v45.278c0 0 0.001 0 0.001 0 216.235 0 391.588-175.035 392.104-391.149v-0.050zM864.577 888.137c72.112-0.077 130.549-58.514 130.626-130.619v-129.954c0-72.143-58.483-130.626-130.626-130.626s-130.626 58.483-130.626 130.626v0 129.947c0.077 72.112 58.514 130.549 130.619 130.626h0.007zM864.577 542.216c47.116 0.052 85.297 38.233 85.348 85.343v129.952c0 47.137-38.212 85.348-85.348 85.348s-85.348-38.212-85.348-85.348v0-129.947c0.052-47.116 38.233-85.297 85.343-85.348h0.005zM648.15 931.604c72.112-0.077 130.549-58.514 130.626-130.619v-172.741c0-72.143-58.483-130.626-130.626-130.626s-130.626 58.483-130.626 130.626v0 172.734c0.077 72.112 58.514 130.549 130.619 130.626h0.007zM648.15 542.668c47.148 0.052 85.349 38.284 85.349 85.439 0 0.048 0 0.096 0 0.143v-0.008 172.734c0 47.137-38.212 85.348-85.348 85.348s-85.348-38.212-85.348-85.348v0-172.734c0-0.040 0-0.088 0-0.136 0-47.155 38.201-85.387 85.344-85.439h0.005zM486.101 509.163l-17.749 41.655c30.225 13.137 51.056 42.576 51.435 76.924v174.458c0.115 1.664 0.181 3.607 0.181 5.565 0 47.262-38.313 85.575-85.575 85.575s-85.575-38.313-85.575-85.575c0-1.958 0.066-3.9 0.195-5.825l-0.014 0.261v-104.682h-45.278v102.554c-0.144 2.3-0.226 4.987-0.226 7.694 0 72.268 58.585 130.852 130.852 130.852s130.852-58.585 130.852-130.852c0-2.707-0.082-5.394-0.244-8.060l0.018 0.366v-172.055c-0.281-53.057-32.304-98.567-78.036-118.528l-0.838-0.326zM130.853 625.074h-45.278v174.998c-0.144 2.3-0.226 4.987-0.226 7.694 0 72.268 58.585 130.852 130.852 130.852s130.852-58.585 130.852-130.852c0-2.707-0.082-5.394-0.244-8.060l0.018 0.366v-102.554h-45.278v104.682c0.115 1.664 0.181 3.607 0.181 5.565 0 47.262-38.313 85.575-85.575 85.575s-85.575-38.313-85.575-85.575c0-1.958 0.066-3.9 0.195-5.825l-0.014 0.261v-177.126zM260.347-85.333h-45.278v76.067l-27.167 23.454c-55.31 52.788-101.608 114.406-136.753 182.703l-1.796 3.841c-31.067 64.097-49.225 139.413-49.225 218.97 0 2.608 0.020 5.212 0.058 7.811l-0.005-0.392c-0.002 0.417-0.003 0.91-0.003 1.404 0 161.065 130.569 291.634 291.634 291.634 0.065 0 0.13 0 0.194 0h99.601c0.014 0 0.029 0 0.045 0 70.767 0 128.136-57.368 128.136-128.136v0c0.001-0.134 0.001-0.294 0.001-0.453 0-70.767-57.368-128.136-128.136-128.136 0 0 0 0-0.001 0h-158.472v45.278h158.472c0 0 0.001 0 0.001 0 45.761 0 82.858 37.097 82.858 82.858 0 0.127 0 0.255-0.001 0.382v-0.020c0 0.027 0 0.059 0 0.091 0 45.761-37.097 82.858-82.858 82.858 0 0 0 0 0 0h-99.611c-0.122 0-0.266 0-0.411 0-136.059 0-246.356-110.297-246.356-246.356 0-0.462 0.001-0.923 0.004-1.384v0.071c0-146.021 50.394-256.317 173.866-380.333l41.203-35.181zM779.229-85.333h-45.278v96.94l41.203 35.135c123.472 124.151 173.866 234.448 173.866 380.333v217.469h45.278v-217.333c0.034-2.206 0.054-4.81 0.054-7.418 0-79.557-18.158-154.873-50.556-222.029l1.33 3.059c-36.942-72.138-83.239-133.756-138.282-186.29l-0.268-0.254-1.358-1.222-26.035-22.186z" />
<glyph unicode="&#xe90f;" glyph-name="four-finger-thin" horiz-adv-x="1003" d="M656.925 828.8h-45.588c-0.052 35.48-28.8 64.227-64.274 64.279h-0.461c-0.407 0.009-0.887 0.015-1.368 0.015-35.5 0-64.279-28.779-64.279-64.279 0-0.005 0-0.010 0-0.015v0.001h-45.588c0 61.182 49.597 110.779 110.779 110.779s110.779-49.597 110.779-110.779v0zM828.792 784.898l-45.588 0.228c0 35.5-28.779 64.279-64.279 64.279s-64.279-28.779-64.279-64.279v0h-45.588c0 60.678 49.189 109.867 109.867 109.867s109.867-49.189 109.867-109.867v0zM870.277-85.242c0 0.173 0 0.379 0 0.584 0 63.293 12.494 123.668 35.149 178.793l-1.14-3.134 22.293 56.803c19.468 47.023 30.772 101.629 30.772 158.876 0 0.208 0 0.416 0 0.623v-0.032 130.838c0 35.5-28.779 64.279-64.279 64.279s-64.279-28.779-64.279-64.279v0l-45.588 0.228c0.065 60.629 49.229 109.753 109.867 109.753 60.678 0 109.867-49.189 109.867-109.867 0-0.040 0-0.080 0-0.12v0.006-130.838c0-0.173 0-0.379 0-0.584 0-63.293-12.494-123.668-35.149-178.793l1.14 3.134-22.293-56.803c-19.496-47.054-30.818-101.699-30.818-158.989 0-0.2 0-0.4 0-0.6v0.031zM350.117-85.333h-45.588c0 0.023 0 0.051 0 0.079 0 51.595-20.905 98.307-54.707 132.128l-216.269 216.451c-20.732 20.739-33.554 49.385-33.554 81.026 0 0.155 0 0.309 0.001 0.464v-0.024c0.046 31.739 12.774 60.496 33.387 81.483l-0.017-0.017c20.729 21.292 49.669 34.501 81.694 34.501s60.965-13.209 81.669-34.476l0.025-0.025 64.462-64.735v423.513c0 60.678 49.189 109.867 109.867 109.867s109.867-49.189 109.867-109.867v0-346.925h-45.588v346.925c0 35.5-28.779 64.279-64.279 64.279s-64.279-28.779-64.279-64.279v0-533.837l-142.691 143.238c-12.44 12.798-29.819 20.738-49.053 20.738s-36.612-7.941-49.037-20.722l-0.016-0.016c-12.614-12.834-20.406-30.442-20.423-49.87v-0.003c0-0.088-0.001-0.193-0.001-0.297 0-19.003 7.7-36.208 20.151-48.665l216.133-216.133c42.162-42.089 68.246-100.273 68.246-164.55 0-0.088 0-0.177 0-0.265v0.014zM480.955 437.198h-45.588v391.602h45.588zM654.645 437.198h-45.588v391.602h45.588zM828.792 437.198h-45.588v347.837h45.588z" />
<glyph unicode="&#xe910;" glyph-name="high-five-thin" horiz-adv-x="1003" d="M656.925 828.8h-45.588c-0.052 35.48-28.8 64.227-64.274 64.279h-0.461c-0.407 0.009-0.887 0.015-1.368 0.015-35.5 0-64.279-28.779-64.279-64.279 0-0.005 0-0.010 0-0.015v0.001h-45.588c0 61.182 49.597 110.779 110.779 110.779s110.779-49.597 110.779-110.779v0zM828.792 784.898l-45.588 0.228c0 35.5-28.779 64.279-64.279 64.279s-64.279-28.779-64.279-64.279v0h-45.588c0 60.678 49.189 109.867 109.867 109.867s109.867-49.189 109.867-109.867v0zM870.277-85.242c0 0.173 0 0.379 0 0.584 0 63.293 12.494 123.668 35.149 178.793l-1.14-3.134 22.338 56.028c19.439 46.98 30.727 101.536 30.727 158.727 0 0.212 0 0.424 0 0.636v-0.033 348.293c0 35.5-28.779 64.279-64.279 64.279s-64.279-28.779-64.279-64.279v0-216.543h-45.588v216.543c0 60.678 49.189 109.867 109.867 109.867s109.867-49.189 109.867-109.867v0-348.293c0-0.173 0-0.379 0-0.584 0-63.293-12.494-123.668-35.149-178.793l1.14 3.134-22.338-56.028c-19.468-47.011-30.772-101.606-30.772-158.84 0-0.172 0-0.345 0-0.517v0.027zM350.117-85.333h-45.588c0 0.023 0 0.051 0 0.079 0 51.595-20.905 98.307-54.707 132.128l-216.269 216.451c-20.732 20.739-33.554 49.385-33.554 81.026 0 0.155 0 0.309 0.001 0.464v-0.024c0.046 31.739 12.774 60.496 33.387 81.483l-0.017-0.017c20.729 21.292 49.669 34.501 81.694 34.501s60.965-13.209 81.669-34.476l0.025-0.025 64.462-64.735v423.513c0 60.678 49.189 109.867 109.867 109.867s109.867-49.189 109.867-109.867v0-346.925h-45.588v346.925c0 35.5-28.779 64.279-64.279 64.279s-64.279-28.779-64.279-64.279v0-533.837l-142.691 143.238c-12.44 12.798-29.819 20.738-49.053 20.738s-36.612-7.941-49.037-20.722l-0.016-0.016c-12.614-12.834-20.406-30.442-20.423-49.87v-0.003c0-0.088-0.001-0.193-0.001-0.297 0-19.003 7.7-36.208 20.151-48.665l216.133-216.133c42.162-42.089 68.246-100.273 68.246-164.55 0-0.088 0-0.177 0-0.265v0.014zM480.955 437.198h-45.588v391.602h45.588zM654.645 437.198h-45.588v391.602h45.588zM828.792 437.198h-45.588v347.837h45.588z" />
<glyph unicode="&#xe911;" glyph-name="hold-thin" horiz-adv-x="1054" d="M277.671-85.333l-240.38 239.866c-23.024 21.399-37.383 51.851-37.383 85.657 0 64.521 52.305 116.826 116.826 116.826 1.643 0 3.278-0.034 4.904-0.101l-0.233 0.008c32.468-0.196 61.784-13.527 82.934-34.942l21.742-21.742v385.431c-0.012 0.62-0.019 1.35-0.019 2.083 0 58.758 43.378 107.385 99.858 115.602l0.631 0.075h1.589c2.464 0.19 5.337 0.298 8.235 0.298 62.42 0 113.125-50.157 114.010-112.367l0.001-0.083v-248.278l215.94-30.795c54.952-8.567 96.529-55.481 96.685-112.136v-0.016c0.007-1.236 0.010-2.698 0.010-4.16 0-133.587-31.426-259.835-87.288-371.753l2.182 4.828-4.252-8.552-41.777 20.888 4.206 8.411c50.615 101.021 80.246 220.11 80.246 346.118 0 1.417-0.004 2.833-0.011 4.249l0.001-0.217c-0.11 33.228-24.472 60.734-56.306 65.747l-0.378 0.049-256.129 36.87v288.326c-0.562 36.732-30.471 66.293-67.284 66.293-1.433 0-2.855-0.045-4.266-0.133l0.193 0.010c-33.888-5.326-59.501-34.317-59.501-69.29 0-0.48 0.005-0.96 0.014-1.438l-0.001 0.072v-498.939l-101.872 101.732c-12.759 12.961-30.485 21-50.089 21.029h-0.894c-0.858 0.038-1.865 0.059-2.877 0.059-38.713 0-70.095-31.383-70.095-70.095 0-20.319 8.645-38.618 22.458-51.421l0.045-0.041 0.701-0.654 240.661-240.193zM437.162 464.869l-18.225 43.039c23.814 10.203 44.116 24.245 61.093 41.559l0.030 0.031c36.376 36.295 58.88 86.478 58.88 141.918 0 110.718-89.755 200.473-200.473 200.473s-200.473-89.755-200.473-200.473c0-55.44 22.504-105.624 58.877-141.915l0.004-0.004c17.054-17.41 37.42-31.5 60.088-41.262l1.222-0.468-18.225-43.039c-29.628 12.79-54.879 30.344-75.985 51.964l-0.045 0.047c-44.752 44.738-72.432 106.55-72.432 174.827 0 136.526 110.677 247.203 247.203 247.203s247.203-110.677 247.203-247.203c0-68.277-27.68-130.089-72.431-174.826l-0.001-0.001c-21.228-21.646-46.577-39.161-74.789-51.289l-1.522-0.582zM874.884 709.876l-25.234 12.617c-52.095 25.992-87.249 78.903-87.249 140.024 0 0.354 0.001 0.708 0.004 1.062v-0.054 74.254h225.707v-74.301c0-0.077 0-0.168 0-0.26 0-61.303-35.101-114.408-86.301-140.313l-0.898-0.412h-0.28zM809.134 891.049v-27.571c-0.002-0.224-0.003-0.489-0.003-0.754 0-42.954 24.704-80.139 60.679-98.121l0.634-0.287 4.673-2.383 4.907 2.383c36.66 18.539 61.357 55.919 61.357 99.068 0 0.049 0 0.099 0 0.148v-0.008 27.524zM1054.001 891.049h-357.486v46.73h357.486zM874.837 762.26l26.169-13.458c51.525-25.995 86.401-78.214 87.104-138.648l0.001-0.094v-75.096h-225.707v74.768c0.321 60.692 35.285 113.142 86.113 138.614l0.899 0.408zM941.381 609.733c-0.553 42.55-25.109 79.236-60.724 97.19l-0.633 0.289-4.673 2.477-4.673-2.523c-36.475-17.998-61.199-54.787-61.543-97.386v-28.084h132.247zM1054.001 533.562h-357.486v46.73h357.486z" />
<glyph unicode="&#xe912;" glyph-name="left-right-move-thin" horiz-adv-x="1057" d="M905.783 635.010l-33.399 33.305 118.312 118.689-118.312 118.265 33.352 33.352 151.569-151.569zM151.569 635.010l-151.522 152.088 151.522 151.569 33.352-33.352-118.265-118.312 118.312-118.689zM1024 763.464h-327.386v47.174h327.386zM542.356 763.464h-509.004v47.174h509.004zM377.060-85.38l-242.614 242.662c-20.821 21.348-33.664 50.561-33.664 82.773 0 0.918 0.010 1.834 0.031 2.747l-0.002-0.136c0.188 64.991 52.917 117.604 117.934 117.604 0 0 0 0 0 0v0c0.085 0 0.186 0 0.287 0 32.782 0 62.456-13.306 83.916-34.812l0.002-0.002 21.936-21.794v388.57c-0.003 0.297-0.004 0.649-0.004 1 0 59.729 44.402 109.087 101.999 116.867l0.608 0.067h0.943c2.855 0.254 6.176 0.398 9.531 0.398 62.886 0 113.91-50.784 114.3-113.578v-317.516h-47.174v317.479c0 0.026 0 0.056 0 0.087 0 18.106-7.397 34.485-19.335 46.279l-0.336 0.336c-11.878 12.168-28.443 19.715-46.77 19.715-1.935 0-3.851-0.084-5.744-0.249l0.246 0.017c-34.7-4.921-61.093-34.427-61.093-70.097 0-0.233 0.001-0.466 0.003-0.699v0.036-502.117l-102.461 101.707c-12.91 12.968-30.777 20.993-50.517 20.993-0.068 0-0.137 0-0.205 0h0.011c-39.080 0-70.761-31.681-70.761-70.761v0-0.613c-0.012-0.494-0.019-1.076-0.019-1.659 0-19.283 7.673-36.775 20.131-49.588l242.315-242.315zM864.647-79.719l-41.702 22.077 4.104 7.784c52.41 102.991 83.158 224.582 83.262 353.344v0.034c0.002 0.163 0.002 0.355 0.002 0.547 0 31.878-24.454 58.044-55.627 60.763l-0.23 0.016-169.165 14.624v362.294c-0.376 36.708-30.222 66.321-66.983 66.321-5.525 0-10.894-0.669-16.030-1.93l0.459 0.095c-29.442-9.009-50.484-35.944-50.484-67.793 0-0.38 0.003-0.759 0.009-1.137l-0.001 0.057v-357.907h-47.174v357.435c-0.005 0.389-0.007 0.848-0.007 1.307 0 53.431 35.433 98.586 84.082 113.25l0.837 0.217 0.943 0.236c8.216 2.114 17.648 3.328 27.364 3.328 62.76 0 113.691-50.643 114.157-113.293v-319.174l126.095-10.897c55.668-4.702 99.069-51.045 99.069-107.525 0-0.343-0.002-0.685-0.005-1.026v0.052c-0.118-136.56-32.747-265.472-90.563-379.449l2.206 4.795-0.236-0.472z" />
<glyph unicode="&#xe913;" glyph-name="middle-finger-gesture-thin" horiz-adv-x="902" d="M177.791-85.333l-23.357 23.808c-95.403 95.313-154.421 227.031-154.434 372.533v0.003c-0.001 0.19-0.001 0.414-0.001 0.638 0 66.505 26.988 126.706 70.609 170.25l0.004 0.004c43.899 43.796 104.435 70.931 171.309 71.107h80.475c59.572-0.481 107.736-48.645 108.216-108.171v-0.271c-0.333-59.514-48.655-107.63-108.215-107.63-0.001 0-0.001 0-0.002 0h-128.507v45.090h128.507c1.597-0.144 3.454-0.225 5.33-0.225 34.864 0 63.126 28.263 63.126 63.126s-28.263 63.126-63.126 63.126c-1.876 0-3.734-0.082-5.568-0.242l0.238 0.017h-80.261c-54.576-0.018-103.986-22.119-139.783-57.854l0.003 0.003c-35.383-35.422-57.266-84.336-57.266-138.361 0-0.213 0-0.427 0.001-0.64v0.033c-0.001-0.378-0.002-0.826-0.002-1.273 0-132.678 54.010-252.742 141.244-339.403l0.026-0.025 23.447-23.898zM430.612 59.407h-45.090c0.002 0.387 0.003 0.844 0.003 1.302 0 122.492-75.528 227.344-182.554 270.526l-1.958 0.698-15.195 5.681 16.097 42.114 15.601-5.997c125.918-51.112 213.097-172.473 213.097-314.195 0-0.045 0-0.091 0-0.136v0.007zM747.281-61.616l-31.879 31.924c87.286 86.685 141.315 206.76 141.315 339.455 0 0.439-0.001 0.877-0.002 1.315v-0.068h45.090c-0.013-145.55-59.068-277.304-154.519-372.62l-0.006-0.006zM622.246 553.145c59.766 0 108.217-48.45 108.217-108.217v0-128.507c0-59.766-48.45-108.217-108.217-108.217s-108.217 48.45-108.217 108.217v0 128.507c0 59.766 48.45 108.217 108.217 108.217v0zM622.246 253.295c34.864 0 63.126 28.263 63.126 63.126v0 128.507c0 34.864-28.263 63.126-63.126 63.126s-63.126-28.263-63.126-63.126v0-128.507c0-34.864 28.263-63.126 63.126-63.126v0zM793.589 510.309c59.766 0 108.217-48.45 108.217-108.217v0-85.672c0-59.766-48.45-108.217-108.217-108.217s-108.217 48.45-108.217 108.217v0 85.672c0 59.766 48.45 108.217 108.217 108.217v0zM793.589 253.295c34.864 0 63.126 28.263 63.126 63.126v85.672c0 34.864-28.263 63.126-63.126 63.126s-63.126-28.263-63.126-63.126v0-85.672c0-34.864 28.263-63.126 63.126-63.126v0zM559.119 400.289h-45.090v429.034c0 34.864-28.263 63.126-63.126 63.126s-63.126-28.263-63.126-63.126v0-298.723h-45.090v298.498c-0.002 0.268-0.004 0.585-0.004 0.903 0 59.858 48.398 108.413 108.196 108.667h0.024c59.823-0.254 108.22-48.808 108.22-108.667 0-0.317-0.001-0.635-0.004-0.951v0.049z" />
<glyph unicode="&#xe914;" glyph-name="middle-finger-thin" horiz-adv-x="786" d="M219.864-85.333h-45.511v77.369l-116.69 116.782c-35.591 35.388-57.618 84.385-57.618 138.526 0 0.163 0 0.327 0.001 0.49v-0.025 160.882c-0.024 0.961-0.038 2.093-0.038 3.229 0 51.638 28.581 96.601 70.786 119.932l0.704 0.357 0.546 0.273c17.354 8.978 37.881 14.243 59.638 14.243 29.833 0 57.354-9.898 79.459-26.59l-0.333 0.241-27.307-36.409c-14.206 10.751-32.171 17.221-51.648 17.221-14.092 0-27.392-3.387-39.132-9.391l0.486 0.226c-28.622-15.87-47.676-45.905-47.676-80.39 0-0.762 0.009-1.522 0.028-2.28l-0.002 0.112v-161.655c0-0.083 0-0.18 0-0.278 0-41.619 16.929-79.284 44.276-106.485l0.007-0.006 130.025-130.025zM219.864 263.737h-45.511v174.308c-0.002 0.27-0.003 0.59-0.003 0.91 0 84.705 68.667 153.372 153.372 153.372 0.001 0 0.002 0 0.003 0h22.755v-68.267h-45.511v20.298c-48.997-10.81-85.11-53.868-85.11-105.361 0-0.335 0.002-0.67 0.005-1.004v0.051zM698.641-85.333h-45.511v135.714l6.053 12.88c50.99 99.563 80.873 217.202 80.873 341.821 0 0.068 0 0.137 0 0.205v-0.010c-0.263 55.981-43.295 101.828-98.085 106.559l-0.401 0.028-162.748 9.421v307.701c-0.043 35.408-28.756 64.096-64.171 64.096-5.478 0-10.796-0.686-15.872-1.978l0.444 0.096c-28.477-8.646-48.846-34.667-48.846-65.446 0-0.992 0.021-1.979 0.063-2.961l-0.005 0.14v-300.828h-45.511v299.6c-0.046 1.215-0.073 2.642-0.073 4.075 0 51.512 34.232 95.028 81.188 109.042l0.805 0.206h0.774c8.060 2.12 17.314 3.338 26.852 3.338 60.533 0 109.613-49.037 109.682-109.554v-264.609l120.559-6.963c79.039-6.216 140.825-71.868 140.857-151.958v-0.003c0-0.065 0-0.141 0-0.218 0-131.968-31.614-256.552-87.682-366.592l2.121 4.587-1.365-2.867z" />
<glyph unicode="&#xe915;" glyph-name="move-down-thin" horiz-adv-x="1001" d="M527.809-85.333l-237.702 235.866c-20.959 20.947-33.923 49.892-33.923 81.865 0 63.923 51.819 115.742 115.742 115.742 31.95 0 60.876-12.946 81.82-33.878l21.384-21.384v377.799c-0.003 0.289-0.004 0.631-0.004 0.973 0 58.102 43.193 106.115 99.22 113.683l0.591 0.065h1.055c2.777 0.247 6.008 0.388 9.271 0.388 61.096 0 110.669-49.339 111.048-110.346v-243.703l209.756-30.195c53.847-8.154 94.68-53.991 94.943-109.416v-0.028c-0.050-132.713-31.799-257.999-88.087-368.713l2.138 4.635-4.13-8.26-41.024 20.512 4.13 8.26c51.096 100.103 81.051 218.333 81.085 343.555v0.011c-0.046 32.539-23.986 59.473-55.211 64.199l-0.36 0.045-249.128 35.885v283.040c-0.414 35.671-29.427 64.429-65.157 64.429-1.729 0-3.443-0.067-5.139-0.2l0.224 0.014c-33.711-4.828-59.337-33.509-59.337-68.174 0-0.231 0.001-0.463 0.003-0.693v0.035-488.574l-99.761 99.761c-12.642 12.642-30.107 20.462-49.399 20.462-38.583 0-69.861-31.278-69.861-69.861 0-19.291 7.819-36.757 20.462-49.399v0l237.656-235.821zM147.439 468.035l-147.439 147.394 32.443 32.443 115.088-115.042 115.455 115.088 32.397-32.489zM170.43 500.433h-45.888v438.234h45.888z" />
<glyph unicode="&#xe916;" glyph-name="move-left-right-thin" horiz-adv-x="1057" d="M467.35-85.38l-242.473 242.473c-23.823 21.721-38.713 52.887-38.713 87.531 0 65.342 52.97 118.312 118.312 118.312 34.573 0 65.683-14.829 87.315-38.475l0.081-0.090 21.936-21.936v389.325c-0.003 0.297-0.004 0.649-0.004 1 0 59.729 44.402 109.087 101.999 116.867l0.608 0.067h0.943c2.855 0.254 6.176 0.398 9.531 0.398 62.886 0 113.91-50.784 114.3-113.578v-249.35l215.631-31.040c55.488-8.282 97.598-55.489 97.838-112.578v-0.025c-0.051-136.43-32.69-265.226-90.554-379.041l2.198 4.765-4.246-8.491-42.173 21.087 4.246 8.491c52.528 102.907 83.321 224.448 83.356 353.178v0.012c-0.047 33.45-24.657 61.138-56.758 65.997l-0.37 0.046-256.106 36.89v290.024c0 0.026 0 0.056 0 0.087 0 18.106-7.397 34.485-19.335 46.279l-0.336 0.336c-11.878 12.168-28.443 19.715-46.77 19.715-1.935 0-3.851-0.084-5.744-0.249l0.246 0.017c-34.7-4.921-61.093-34.427-61.093-70.097 0-0.233 0.001-0.466 0.003-0.699v0.036-503.344l-102.367 102.508c-12.878 12.89-30.675 20.863-50.334 20.863-39.295 0-71.15-31.855-71.15-71.15 0-19.636 7.954-37.414 20.816-50.288l242.189-242.472zM905.783 635.010l-33.399 33.305 118.312 118.689-118.312 118.265 33.352 33.352 151.569-151.569zM1024 763.464h-315.12v47.174h315.12zM151.569 635.010l-151.522 152.088 151.522 151.569 33.352-33.352-118.265-118.312 118.312-118.689zM348.472 763.464h-315.12v47.174h315.12z" />
<glyph unicode="&#xe917;" glyph-name="move-left-thin" horiz-adv-x="1046" d="M559.219-85.38l-244.349 242.462c-21.467 21.42-34.747 51.035-34.747 83.753 0 65.342 52.97 118.311 118.311 118.311 32.624 0 62.164-13.204 83.567-34.56l-0.002 0.002 23.067-22.359v389.543c-0.003 0.297-0.004 0.649-0.004 1 0 59.726 44.4 109.082 101.995 116.862l0.608 0.067h0.943c2.644 0.216 5.723 0.34 8.83 0.34 63.004 0 114.175-50.664 114.994-113.474l0.001-0.077v-249.207l215.621-31.039c55.416-8.392 97.424-55.611 97.598-112.674v-0.018c-0.051-136.424-32.688-265.214-90.55-379.023l2.198 4.764-4.245-8.491-42.171 21.086 4.245 8.491c52.525 102.902 83.317 224.438 83.352 353.162v0.012c-0.047 33.449-24.656 61.136-56.755 65.994l-0.37 0.046-256.094 36.888v290.011c0.001 0.136 0.002 0.296 0.002 0.457 0 17.936-7.487 34.123-19.507 45.607l-0.024 0.023-0.708 0.66c-11.716 12.113-28.115 19.633-46.271 19.633-1.978 0-3.934-0.089-5.867-0.264l0.249 0.018c-34.698-4.921-61.090-34.425-61.090-70.094 0-0.233 0.001-0.466 0.003-0.699v0.036-501.056l-103.542 100.428c-12.875 12.875-30.662 20.838-50.308 20.838-39.293 0-71.147-31.854-71.147-71.147 0-19.647 7.963-37.433 20.838-50.308v0l244.349-242.462zM151.562 635.024l-151.515 152.081 151.515 151.562 33.35-33.35-118.259-118.306 118.306-118.684zM393.741 763.472h-360.391v47.172h360.391z" />
<glyph unicode="&#xe918;" glyph-name="move-right-thin" horiz-adv-x="956" d="M277.206-85.378l-242.618 242.618c-21.391 21.391-34.622 50.944-34.622 83.586 0 65.285 52.924 118.208 118.208 118.208 32.642 0 62.194-13.231 83.586-34.622l23.721-23.721v391.345c-0.020 0.809-0.032 1.762-0.032 2.718 0 59.112 44.186 107.904 101.33 115.15l0.574 0.059h0.767c3.041 0.291 6.575 0.458 10.148 0.458 62.265 0 112.741-50.476 112.741-112.741 0-0.161 0-0.322-0.001-0.482v0.025-250.915l218.717-31.071c55.131-8.153 96.96-55.144 96.96-111.905 0-0.294-0.001-0.588-0.003-0.881v0.045c-0.023-136.64-32.728-265.635-90.723-379.602l2.199 4.762-0.496-0.947-4.059-7.215-39.324 22.097 3.788 6.764c52.655 103.215 83.511 225.118 83.518 354.227v0.229c0.002 0.198 0.003 0.432 0.003 0.666 0 34.019-25.113 62.173-57.812 66.935l-0.365 0.044-257.499 36.573v290.194c0 0.071 0 0.155 0 0.239 0 37.359-30.285 67.644-67.644 67.644-2 0-3.98-0.087-5.937-0.257l0.254 0.018c-35.146-4.662-61.982-34.441-61.982-70.488 0-0.586 0.007-1.17 0.021-1.752l-0.002 0.086v-500.884l-100.745 100.7c-13.232 13.232-31.512 21.416-51.703 21.416-40.382 0-73.119-32.736-73.119-73.119 0-20.191 8.184-38.471 21.416-51.703l242.618-242.618zM805.193 636.162l-31.883 31.883 119.325 119.37-119.37 119.325 31.883 31.883 151.253-151.208zM924.518 764.866h-360.77v45.096h360.77z" />
<glyph unicode="&#xe919;" glyph-name="move-thin" horiz-adv-x="1031" d="M275.583-85.15l-240.952 240.952c-21.402 21.528-34.632 51.201-34.632 83.964 0 0.114 0 0.227 0 0.341v-0.018 0.687c2.361 63.234 54.192 113.601 117.788 113.601 32.6 0 62.109-13.235 83.446-34.625l22.906-22.906v389.371c-0.041 1.153-0.065 2.507-0.065 3.867 0 58.875 44.251 107.415 101.308 114.175l0.543 0.052h1.008c2.219 0.153 4.81 0.241 7.421 0.241 63.248 0 114.521-51.273 114.521-114.521 0-0.085 0-0.169 0-0.254v0.013-246.678l217.681-31.15c53.974-9.28 94.665-55.295 95.601-110.987l0.001-0.098v-0.412c-0.481-135.687-33.301-263.598-91.147-376.575l2.187 4.703-4.077-8.154-40.953 20.476 4.123 8.246c52.558 102.185 83.593 222.896 84.149 350.803l0.001 0.18c-0.654 33.311-24.915 60.767-56.71 66.362l-0.413 0.060-256.206 36.647v286.715c0 0.034 0 0.073 0 0.113 0 37.949-30.764 68.713-68.713 68.713-1.386 0-2.762-0.041-4.128-0.122l0.188 0.009c-34.36-4.286-60.684-33.312-60.684-68.486 0-0.756 0.012-1.51 0.036-2.26l-0.003 0.11v-501.372l-100.778 100.778c-13.066 13.202-31.19 21.377-51.223 21.377-38.808 0-70.45-30.679-71.997-69.107l-0.004-0.14c0-0.033 0-0.071 0-0.11 0-20.051 8.103-38.21 21.212-51.381l240.949-240.949zM963.35 669.314h-358.221v45.808h358.221zM807.143 513.107h-45.808v358.221h45.808zM683.461 837.889l100.778 100.778 100.778-100.778zM929.91 792.996l100.778-100.778-100.778-100.778zM885.017 546.547l-100.778-100.778-100.778 100.778zM638.568 591.44l-100.778 100.778 100.778 100.778z" />
<glyph unicode="&#xe91a;" glyph-name="move-up-down-thin" horiz-adv-x="1012" d="M533.861-85.333l-240.428 238.571c-21.122 21.076-34.189 50.216-34.189 82.409 0 64.293 52.12 116.413 116.413 116.413 32.1 0 61.166-12.993 82.226-34.006l-0.002 0.002 22.697-22.001v383.292c-0.003 0.293-0.004 0.638-0.004 0.984 0 58.768 43.688 107.332 100.358 114.986l0.598 0.066h0.928c2.601 0.213 5.631 0.334 8.689 0.334 61.993 0 112.343-49.851 113.149-111.653l0.001-0.076v-245.209l212.161-30.541c54.527-8.258 95.861-54.718 96.032-110.867v-0.018c-0.050-134.235-32.164-260.958-89.097-372.942l2.163 4.688-4.177-8.355-41.495 20.747 4.177 8.355c51.682 101.251 81.98 220.836 82.015 347.495v0.012c-0.047 32.912-24.261 60.155-55.844 64.935l-0.364 0.045-251.985 36.296v285.357c0.001 0.134 0.002 0.291 0.002 0.449 0 17.648-7.367 33.576-19.194 44.875l-0.024 0.023-0.696 0.65c-11.528 11.919-27.664 19.318-45.529 19.318-1.946 0-3.871-0.088-5.772-0.26l0.245 0.018c-34.141-4.842-60.11-33.873-60.11-68.969 0-0.23 0.001-0.459 0.003-0.688v0.035-493.016l-101.88 98.817c-12.668 12.668-30.17 20.504-49.501 20.504-38.663 0-70.005-31.342-70.005-70.005 0-19.331 7.836-36.833 20.504-49.501v0l240.428-238.571zM149.13 296.984l-149.13 149.687 32.862 32.769 116.362-116.64 116.779 116.779 32.815-32.815zM172.384 329.846h-46.415v354.608h46.415zM442.796 756.675l-116.315 116.362-116.315-116.362-32.815 32.815 149.13 149.177 149.177-149.177zM349.688 551.244h-46.415v354.608h46.415z" />
<glyph unicode="&#xe91b;" glyph-name="move-up-thin" horiz-adv-x="1059" d="M558.148-85.333l-251.366 248.939c-21.782 21.549-35.398 51.314-35.812 84.26l-0.001 0.078v0.34c0.055 33.808 13.622 64.436 35.587 86.783l-0.017-0.018c22.199 22.198 52.867 35.928 86.741 35.928 33.705 0 64.235-13.593 86.408-35.596l-0.008 0.008 22.759-22.079v400.826c-0.003 0.306-0.004 0.667-0.004 1.029 0 61.442 45.675 112.215 104.924 120.218l0.625 0.069h1.407c2.495 0.194 5.403 0.304 8.336 0.304 33.098 0 62.913-14.059 83.798-36.531l0.065-0.071c21.352-20.732 34.601-49.708 34.601-81.778 0-0.252-0.001-0.504-0.002-0.755v0.039-253.016l221.813-31.93c57.086-8.571 100.382-57.193 100.546-115.96v-0.017c-0.109-140.507-33.675-273.15-93.159-390.425l2.269 4.933-0.243-0.485-4.367-8.249-42.897 22.71 4.464 8.055c53.826 105.946 85.373 231.016 85.406 363.45v0.011c-0.049 34.409-25.364 62.891-58.385 67.889l-0.38 0.047-263.449 37.947v295.185c0.001 0.163 0.002 0.355 0.002 0.548 0 18.527-7.719 35.251-20.117 47.131l-0.023 0.022-1.116 1.165c-12.129 13.171-29.457 21.393-48.706 21.393-1.507 0-3.003-0.050-4.485-0.15l0.201 0.011c-35.579-5.171-62.602-35.466-62.602-72.073 0-0.252 0.001-0.503 0.004-0.755v0.038-515.397l-105.545 102.342c-13.252 13.252-31.559 21.449-51.78 21.449-0.101 0-0.203 0-0.304-0.001h-0.227c-0.071 0-0.156 0-0.24 0-20.222 0-38.529-8.197-51.78-21.449v0c-13.32-13.604-21.553-32.235-21.594-52.788v-0.008c0.302-19.725 8.446-37.49 21.443-50.365l0.006-0.006 251.317-248.891zM278.104 748.396l-122.092 121.704-121.655-121.704-34.308 34.308 155.866 155.915 156.448-155.866zM180.226 441.419h-48.526v462.94h48.526z" />
<glyph unicode="&#xe91c;" glyph-name="one-finger-thin" horiz-adv-x="700" d="M612.585-85.333h-46.545v136.378l6.889 12.195c50.423 99.441 80.015 216.791 80.151 341.041v0.044c-0.426 31.816-23.968 58.006-54.573 62.561l-0.351 0.043-249.018 35.607v324.422c0.001 0.146 0.002 0.318 0.002 0.491 0 17.872-7.54 33.983-19.611 45.326l-0.033 0.030-0.838 0.838c-11.084 11.397-26.565 18.469-43.697 18.469-2.183 0-4.34-0.115-6.464-0.339l0.265 0.023c-33.188-4.124-58.619-32.155-58.619-66.126 0-1.037 0.024-2.068 0.071-3.093l-0.005 0.145v-517.073h-46.545v515.77c-0.042 1.158-0.066 2.519-0.066 3.885 0 57.809 43.191 105.529 99.064 112.653l0.564 0.059h0.372c3.444 0.39 7.437 0.613 11.481 0.613 30.133 0 57.378-12.363 76.939-32.294l0.016-0.017c20.919-19.857 33.934-47.867 33.934-78.916 0-0.238-0.001-0.476-0.002-0.713v0.037-283.927l208.989-29.743c53.597-8.011 94.327-53.428 94.952-108.479l0.001-0.065c-0.182-132.127-31.731-256.842-87.597-367.155l2.14 4.659-0.559-1.024-1.164-2.095zM220.207-85.333h-46.545v120.692l-116.084 116.038c-35.541 35.404-57.532 84.387-57.532 138.507 0 0.315 0.001 0.631 0.002 0.946v-0.049 203.543c-0.027 1.024-0.043 2.229-0.043 3.439 0 51.785 28.677 96.872 71.016 120.247l0.707 0.358 0.652 0.512c17.264 8.862 37.668 14.056 59.284 14.056 29.92 0 57.515-9.951 79.658-26.723l-0.33 0.24-27.927-37.236c-14.079 10.673-31.892 17.098-51.205 17.098-13.821 0-26.873-3.29-38.417-9.129l0.487 0.223c-28.435-15.726-47.37-45.538-47.37-79.774 0-0.869 0.012-1.736 0.036-2.599l-0.003 0.127v-204.428c-0.001-0.19-0.001-0.415-0.001-0.641 0-41.341 16.796-78.76 43.936-105.804l129.68-129.68z" />
<glyph unicode="&#xe91d;" glyph-name="peace-thin" horiz-adv-x="818" d="M178.352-85.333l-23.623 23.623c-95.6 95.607-154.729 227.684-154.729 373.571 0 0.011 0 0.022 0 0.033v-0.001c-0.007 0.667-0.010 1.454-0.010 2.243 0 132.497 107.41 239.907 239.907 239.907 0.994 0 1.987-0.006 2.978-0.018l-0.151 0.001h80.272c59.838 0 108.347-48.508 108.347-108.347s-48.508-108.347-108.347-108.347v0h-128.562v45.428h128.562c34.749 0 62.918 28.169 62.918 62.918s-28.169 62.918-62.918 62.918h-80.681c-0.52 0.005-1.135 0.008-1.75 0.008-53.52 0-102.034-21.434-137.427-56.186l0.030 0.029c-35.682-35.857-57.74-85.3-57.74-139.894 0-0.184 0-0.369 0.001-0.553v0.028c-0.001-0.406-0.002-0.886-0.002-1.367 0-132.96 54.081-253.288 141.445-340.188l23.644-23.644zM386.141 59.765c-0.051 122.999-75.587 228.342-182.795 272.223l-1.962 0.711-15.582 6.405 17.308 42.021 15.446-6.36c125.695-51.801 212.637-173.2 213.013-314.952v-0.048zM662.981-61.71l-32.118 32.118c87.358 86.903 141.42 207.201 141.42 340.126 0 0.478-0.001 0.956-0.002 1.434v-0.075h45.428c0-0.010 0-0.021 0-0.032 0-145.887-59.129-277.963-154.729-373.571l0.001 0.001zM286.198 522.362l-55.831 317.998c-5.827 29.367-31.385 51.198-62.042 51.198-0.084 0-0.169 0-0.253 0h-2.031c-1.483 0.128-3.209 0.201-4.952 0.201s-3.469-0.073-5.175-0.216l0.223 0.015c-29.325-6.16-51.026-31.811-51.026-62.53 0-3.618 0.301-7.166 0.88-10.62l-0.052 0.374 52.697-283.336-44.656-8.313-52.788 283.791c-0.957 5.434-1.504 11.691-1.504 18.076 0 53.317 38.144 97.725 88.631 107.424l0.686 0.11 2.044 0.363c2.722 0.247 5.887 0.388 9.086 0.388s6.364-0.141 9.491-0.417l-0.405 0.029c52.39-0.521 95.863-38.052 105.555-87.672l0.112-0.686v-0.273l55.877-317.998zM357.158 507.825l-44.747 7.905 58.603 332.535c8.993 51.202 52.936 89.674 105.941 90.084h0.044c2.722 0.247 5.887 0.388 9.086 0.388s6.364-0.141 9.491-0.417l-0.405 0.029 2.044-0.273c51.177-9.806 89.324-54.216 89.324-107.535 0-6.4-0.55-12.672-1.604-18.771l0.093 0.651-51.152-289.288-44.747 7.859 50.88 288.924c0.571 3.2 0.897 6.885 0.897 10.645 0 30.7-21.752 56.319-50.684 62.287l-0.411 0.071c-1.483 0.128-3.209 0.201-4.952 0.201s-3.469-0.073-5.175-0.216l0.223 0.015h-1.999c-0.007 0-0.016 0-0.025 0-31.076 0-56.897-22.497-62.067-52.093l-0.055-0.377zM537.417 554.025c59.932-0.078 108.496-48.641 108.574-108.566v-128.569c0-59.964-48.61-108.574-108.574-108.574s-108.574 48.61-108.574 108.574v0 128.562c0.078 59.932 48.641 108.496 108.566 108.574h0.007zM537.417 253.744c34.853 0.052 63.094 28.292 63.145 63.14v128.567c0 34.874-28.271 63.145-63.145 63.145s-63.145-28.271-63.145-63.145v0-128.562c0.052-34.853 28.292-63.094 63.14-63.145h0.005zM709.136 511.323c59.932-0.078 108.496-48.641 108.574-108.566v-85.867c0-59.964-48.61-108.574-108.574-108.574s-108.574 48.61-108.574 108.574v0 85.86c0.078 59.932 48.641 108.496 108.566 108.574h0.007zM709.136 253.744c34.853 0.052 63.094 28.292 63.145 63.14v85.865c0 34.874-28.271 63.145-63.145 63.145s-63.145-28.271-63.145-63.145v0-85.86c0.052-34.853 28.292-63.094 63.14-63.145h0.005z" />
<glyph unicode="&#xe91e;" glyph-name="photographer-thin" horiz-adv-x="1077" d="M335.081-81.609h-0.372c-117.31 0.987-227.696 29.673-325.237 79.82l4.074-1.903-7.354 3.677 20.48 41.612 7.447-3.724c87.505-45.181 190.856-72.035 300.394-72.935l0.289-0.002c26.967 0.007 49.288 19.885 53.119 45.787l0.036 0.293v1.164l32.954 171.055h217.833c23.907 0 43.287 19.38 43.287 43.287v0c0.002 0.138 0.003 0.302 0.003 0.465 0 23.907-19.38 43.287-43.287 43.287-0.001 0-0.002 0-0.003 0h-395.031l77.498 120.32 1.722 1.722c10.503 10.657 16.989 25.297 16.989 41.453 0 0.072 0 0.144 0 0.216v-0.011c-0.156 16.112-6.586 30.693-16.96 41.443l0.017-0.018c-10.689 10.392-25.276 16.823-41.365 16.896h-0.014c-0.042 0-0.093 0-0.143 0-15.982 0-30.457-6.454-40.96-16.899l-207.59-207.59-32.908 32.908 207.593 207.593c18.973 18.87 45.129 30.535 74.010 30.535 0.163 0 0.325 0 0.488-0.001h-0.025c28.782-0.115 54.843-11.676 73.884-30.364l0.449-0.449c18.529-19.039 30.038-44.991 30.301-73.63v-0.051c0-0.025 0-0.054 0-0.083 0-28.194-11.004-53.818-28.952-72.811l0.047 0.051-28.579-44.684h309.527c0 0 0.001 0 0.001 0 49.613 0 89.833-40.219 89.833-89.833 0-0.164 0-0.327-0.001-0.491v0.025c-0.080-49.553-40.268-89.693-89.833-89.693 0 0 0 0 0 0h-179.2l-25.6-132.794c-7.458-48.569-48.822-85.373-98.834-85.644h-0.029zM334.336-85.333c-117.3 0.083-227.854 28.888-325.033 79.762l3.87-1.845-7.308 3.631 20.806 41.658 7.727-3.863c87.222-45.844 190.573-72.762 300.207-72.797h0.011c27.774 0.44 50.47 21.604 53.321 48.683l0.020 0.236 0.279 2.048 29.324 152.204 45.708-8.797-29.137-151.273c-5.825-50.246-47.812-88.979-98.981-89.646l-0.068-0.001h-0.745zM796.020 314.492h-0.559c-28.782 0.115-54.843 11.676-73.884 30.364l-0.449 0.449c-18.529 19.039-30.038 44.991-30.301 73.63v0.051c-0.001 0.126-0.001 0.274-0.001 0.423 0 28.075 10.912 53.602 28.725 72.57l-0.052-0.056 28.625 44.591h-309.527c0 0-0.001 0-0.001 0-49.613 0-89.833 40.219-89.833 89.833 0 0.164 0 0.327 0.001 0.491v-0.025c0 49.613 40.219 89.833 89.833 89.833v0h179.2l25.553 130.327c7.462 48.72 49.058 85.609 99.278 85.644h0.004c117.037-0.163 227.528-28.032 325.315-77.397l-4.152 1.9 7.54-3.77-20.666-41.612-7.494 3.724c-87.667 44.423-191.117 70.491-300.644 70.609h-0.039c-26.939-0.052-49.225-19.91-53.072-45.786l-0.036-0.294v-1.21l-33.327-168.681h-217.46c-23.907 0-43.287-19.38-43.287-43.287v0c-0.002-0.138-0.003-0.302-0.003-0.465 0-23.907 19.38-43.287 43.287-43.287 0.001 0 0.002 0 0.003 0h395.031l-77.498-120.32-1.722-1.722c-10.503-10.65-16.99-25.284-16.99-41.434 0-0.079 0-0.158 0-0.236v0.012c0.156-16.112 6.586-30.693 16.96-41.443l-0.017 0.018c10.689-10.392 25.276-16.823 41.365-16.896h0.014c0.042 0 0.093 0 0.143 0 15.982 0 30.457 6.454 40.96 16.899l207.59 207.59 32.908-32.908-207.593-207.593c-18.905-18.809-44.949-30.46-73.714-30.534h-0.014zM659.689 688.951l-45.708 8.797 29.137 151.273c5.829 50.277 47.866 89.028 99.079 89.646l0.063 0.001h0.279c117.41-0.027 228.084-28.838 325.358-79.761l-3.869 1.844 7.308-3.677-20.666-41.612-7.727 3.863c-87.222 45.844-190.573 72.762-300.207 72.797h-0.011c-27.774-0.44-50.47-21.604-53.321-48.683l-0.020-0.236-0.279-2.048z" />
<glyph unicode="&#xe91f;" glyph-name="pointer-down-thin" horiz-adv-x="743" d="M417.902-85.333c-0.031 0-0.068 0-0.104 0-60.735 0-110.075 48.79-110.964 109.314l-0.001 0.083v285.195l-212.155 29.717c-53.815 7.989-94.64 53.85-94.678 109.254v0.004c0.126 132.126 31.728 256.842 87.711 367.092l-2.134-4.631 1.718 3.25v124.721h46.434v-136.236l-6.733-12.769c-50.68-99.468-80.428-216.911-80.562-341.289v-0.045c0.042-32.163 23.739-58.779 54.626-63.385l0.352-0.043 251.949-35.29v-325.035c0.586-35.195 29.254-63.501 64.534-63.501 1.081 0 2.156 0.027 3.223 0.079l-0.15-0.006c33.073 4.579 58.265 32.665 58.265 66.635 0 0.783-0.013 1.563-0.040 2.339l0.003-0.113v529.622l100.018-100.018c12.513-12.399 29.74-20.060 48.755-20.060s36.242 7.661 48.76 20.065l-0.005-0.005c12.328 12.597 19.935 29.858 19.935 48.895s-7.607 36.297-19.947 48.907l0.012-0.012-238.854 241.455v139.812h46.434v-120.727l225.435-227.525c20.588-21.003 33.293-49.798 33.293-81.561s-12.706-60.558-33.312-81.58l0.019 0.019c-20.916-20.799-49.748-33.655-81.584-33.655s-60.668 12.856-81.589 33.66l0.005-0.005-20.942 20.106v-416.231c0.030-0.976 0.047-2.123 0.047-3.275 0-57.98-43.321-105.841-99.361-112.982l-0.565-0.059h-1.393q-3.204-0.186-6.454-0.186z" />
<glyph unicode="&#xe920;" glyph-name="point-left-thin" horiz-adv-x="1413" d="M737.092-85.333h-0.942c-76.177 0.366-139.086 56.702-149.733 129.975l-0.098 0.82-41.337 286.971h-393.706c-83.679 0.375-151.369 68.297-151.369 152.028 0 4.733 0.216 9.416 0.64 14.040l-0.044-0.594v1.319c10.45 77.512 76.181 136.644 155.723 136.644 0.468 0 0.936-0.002 1.403-0.006h580.028l-30.908 31.851c-29.191 28.543-47.291 68.323-47.291 112.331 0 44.193 18.253 84.122 47.63 112.661l0.038 0.037c28.905 28.36 68.534 45.878 112.254 45.923h0.009c0.117 0 0.254 0 0.392 0 43.673 0 83.207-17.719 111.806-46.361l314.112-314.112h167.672v-62.822h-193.304l-332.957 332.957c-17.177 17.232-40.937 27.893-67.186 27.893-0.1 0-0.2 0-0.3 0h0.015c-26.729-0.255-50.865-11.152-68.416-28.649l0.002 0.002c-17.674-17.149-28.643-41.123-28.643-67.659s10.969-50.511 28.619-67.637l0.024-0.023 0.691-0.691 134.502-138.523h-728.862c-0.263 0.003-0.573 0.004-0.884 0.004-47.503 0-86.796-35.149-93.291-80.857l-0.058-0.501c-0.187-2.165-0.293-4.684-0.293-7.228 0-48.995 39.499-88.765 88.391-89.204h447.963l49.127-341.061c6.248-43.51 43.219-76.596 87.939-76.706h0.012c171.852 0.058 334.114 41.060 477.578 113.782l-6.036-2.775 17.904 8.984h187.461v-62.822h-172.886l-4.649-2.324c-145.35-73.997-316.947-117.442-498.671-117.666h-0.074z" />
<glyph unicode="&#xe921;" glyph-name="point-right-thin" horiz-adv-x="1413" d="M676.28-85.333c-181.776 0.229-353.351 43.673-505.075 120.606l6.393-2.94-4.712 2.324h-172.886v62.822h187.712l17.967-8.984c137.43-69.94 299.69-110.942 471.521-111.007h0.022c44.686 0.068 81.643 33.075 87.894 76.037l0.057 0.48 49.127 341.25h447.796c48.852 0.544 88.244 40.273 88.244 89.202 0 2.545-0.107 5.065-0.315 7.555l0.022-0.326c-6.553 46.21-45.847 81.359-93.35 81.359-0.311 0-0.621-0.002-0.931-0.005h-730.385l136.889 136.889c17.655 17.146 28.61 41.108 28.61 67.628s-10.955 50.482-28.587 67.606l-0.023 0.022-0.691 0.691c-16.726 17.352-39.725 28.557-65.336 29.955l-0.251 0.011c-26.072-0.108-49.643-10.724-66.716-27.829l-0.001-0.001-336.035-332.957h-193.241v62.822h167.358l317.503 314.613c28.563 28.53 68.004 46.175 111.567 46.175 0.134 0 0.268 0 0.402-0.001h1.298c42.549-2.041 80.472-20.313 108.014-48.709l0.039-0.041c29.246-28.551 47.383-68.367 47.383-112.42s-18.137-83.869-47.351-112.39l-0.031-0.030-29.149-29.149h578.78c0.396 0.004 0.864 0.006 1.332 0.006 79.542 0 145.274-59.132 155.634-135.834l0.089-0.809v-1.319c0.383-4.048 0.601-8.753 0.601-13.509 0-83.667-67.586-151.548-151.14-152.027h-393.94l-41.337-287.16c-10.801-74.005-73.662-130.25-149.73-130.607h-0.037z" />
<glyph unicode="&#xe922;" glyph-name="point-up-thin" horiz-adv-x="742" d="M655.122-85.333h-46.423v136.205l6.731 12.766c50.669 99.445 80.41 216.861 80.544 341.211v0.045c-0.042 32.156-23.734 58.766-54.613 63.371l-0.352 0.043-251.892 35.282v324.961c-0.064 17.496-7.303 33.289-18.926 44.599l-0.432 0.432c-11.171 11.425-26.74 18.51-43.963 18.51-2.010 0-3.998-0.097-5.959-0.285l0.249 0.019c-33.26-4.391-58.663-32.566-58.663-66.674 0-0.715 0.011-1.427 0.033-2.136l-0.003 0.104v-529.501l-100.274 100.274c-11.828 12.299-28.113 20.237-46.249 21.208l-0.174 0.007c-18.935-0.068-36.066-7.733-48.516-20.105l0.004 0.004c-12.325-12.594-19.931-29.851-19.931-48.883s7.605-36.289 19.943-48.896l238.788-238.788v-140.058h-46.423v120.7l-225.291 225.43c-20.61 21.003-33.331 49.81-33.331 81.589s12.721 60.585 33.349 81.607l-0.018-0.018c20.861 20.908 49.704 33.843 81.569 33.843 0.113 0 0.226 0 0.339 0h1.003c30.797-1.38 58.26-14.608 78.144-35.201l0.032-0.034 20.565-20.565v416.090c-0.030 0.976-0.047 2.123-0.047 3.274 0 57.967 43.311 105.817 99.338 112.957l0.565 0.059h0.464c3.134 0.324 6.773 0.509 10.454 0.509 30.073 0 57.267-12.325 76.806-32.2l0.015-0.015c20.221-19.737 32.808-47.217 32.96-77.637v-284.835l212.107-29.711c53.842-7.945 94.705-53.811 94.749-109.229v-0.005c-0.124-132.096-31.719-256.783-87.69-367.008l2.133 4.629-1.718-3.25z" />
<glyph unicode="&#xe923;" glyph-name="press-thin" horiz-adv-x="749" d="M269.739-85.333l-235.869 235.869c-20.846 21.255-33.712 50.402-33.712 82.554s12.866 61.299 33.731 82.573l-0.019-0.019c21.154 21.069 50.333 34.095 82.554 34.095s61.4-13.026 82.558-34.099l-0.004 0.004 20.19-20.332v465.888c-0.043 1.174-0.067 2.553-0.067 3.937 0 58.589 43.774 106.954 100.401 114.174l0.571 0.059h1.274c2.4 0.183 5.198 0.288 8.020 0.288 61.599 0 111.562-49.816 111.801-111.359v-333.919l211.81-30.144c54.314-8.382 95.458-54.652 95.763-110.59v-0.032c-0.387-133.219-32.089-258.944-88.126-370.32l2.175 4.771-0.283-0.566-4.246-8.020-41.702 22.077 4.104 7.736c50.707 100.436 80.547 218.876 80.903 344.251v0.117c-0.161 32.332-23.918 59.066-54.923 63.874l-0.364 0.046-252.285 35.899v374.748c-0.149 35.58-29.026 64.367-64.627 64.367-1.361 0-2.712-0.042-4.052-0.125l0.184 0.009c-33.414-4.397-58.939-32.698-58.939-66.96 0-1.055 0.024-2.104 0.072-3.147l-0.005 0.148v-581.322l-100.716 101.518c-12.63 12.606-30.065 20.401-49.32 20.401s-36.691-7.795-49.321-20.402l0.001 0.001c-12.42-12.792-20.078-30.268-20.078-49.532s7.657-36.74 20.095-49.55l235.852-235.852zM114.066 594.016c-43.993 44.161-71.191 105.079-71.191 172.349s27.199 128.189 71.199 172.357l-0.008-0.008 33.399-33.352c-35.47-35.619-57.399-84.747-57.399-138.997s21.929-103.378 57.406-139.004l-0.007 0.007zM546.602 594.063l-33.541 33.022c35.299 35.759 57.101 84.915 57.101 139.162s-21.802 103.404-57.122 139.184l0.021-0.021 33.541 33.022c43.749-44.21 70.777-105.041 70.777-172.184s-27.028-127.974-70.797-172.205l0.021 0.021z" />
<glyph unicode="&#xe924;" glyph-name="rocker-thin" horiz-adv-x="917" d="M522.588 437.76c-0.718 34.945-29.142 63.016-64.158 63.163h-0.014c-35.029-0.147-63.454-28.218-64.171-63.096l-0.001-0.067-45.837 0.733c0 60.756 49.253 110.009 110.009 110.009s110.009-49.253 110.009-110.009v0zM696.769 438.126c0 35.441-28.731 64.172-64.172 64.172s-64.172-28.731-64.172-64.172v0h-45.837c0.26 60.559 49.413 109.551 110.008 109.551 0 0 0.001 0 0.001 0v0c0 0 0.001 0 0.001 0 60.595 0 109.748-48.992 110.008-109.526v-0.025zM829.697-85.333h-45.837c0 0.074 0 0.162 0 0.25 0 63.456 12.563 123.977 35.337 179.213l-1.142-3.128 21.956 55.738c19.573 47.112 30.94 101.833 30.94 159.209 0 0.059 0 0.117 0 0.176v-0.010 435.452c0 35.441-28.731 64.172-64.172 64.172s-64.172-28.731-64.172-64.172v0-303.441h-45.837v303.441c0 60.756 49.253 110.009 110.009 110.009s110.009-49.253 110.009-110.009v-435.452c0-0.074 0-0.162 0-0.25 0-63.456-12.563-123.977-35.337-179.213l1.142 3.128-21.956-55.738c-19.573-47.112-30.94-101.833-30.94-159.209 0-0.059 0-0.117 0-0.176v0.010zM220.064 306.574h-45.837v522.084c0 60.756 49.253 110.009 110.009 110.009s110.009-49.253 110.009-110.009v0-390.532h-45.837v390.532c0 35.441-28.731 64.172-64.172 64.172s-64.172-28.731-64.172-64.172v0zM220.064-85.333h-45.837v77.556l-116.564 116.151c-35.597 35.546-57.618 84.679-57.618 138.955 0 0.201 0 0.403 0.001 0.604v-0.031 74.027c-0.023 0.932-0.036 2.030-0.036 3.131 0 51.669 28.602 96.658 70.837 119.997l0.705 0.357 0.733 0.367c17.306 8.938 37.772 14.178 59.462 14.178 29.851 0 57.384-9.925 79.479-26.656l-0.33 0.239-27.502-36.67c-14.227 10.77-32.219 17.251-51.726 17.251-14.043 0-27.302-3.359-39.017-9.318l0.49 0.226c-28.4-15.863-47.288-45.737-47.288-80.023 0-0.825 0.011-1.647 0.033-2.467l-0.003 0.121v-74.76c-0.001-0.145-0.001-0.316-0.001-0.487 0-41.646 16.887-79.349 44.187-106.633l0.001-0.001 129.994-129.49z" />
<glyph unicode="&#xe925;" glyph-name="rock-thin" horiz-adv-x="1003" d="M480.955 437.882l-45.588 0.456c0 60.552 49.087 109.639 109.639 109.639s109.639-49.087 109.639-109.639v0l-45.588-0.456c0 35.375-28.677 64.051-64.051 64.051s-64.051-28.677-64.051-64.051v0zM654.645 438.11l-45.588 0.228c0 60.678 49.189 109.867 109.867 109.867s109.867-49.189 109.867-109.867v0h-45.588c0 35.5-28.779 64.279-64.279 64.279s-64.279-28.779-64.279-64.279v0zM870.277-85.242c0 0.173 0 0.379 0 0.584 0 63.293 12.494 123.668 35.149 178.793l-1.14-3.134 22.338 56.028c19.439 46.98 30.727 101.536 30.727 158.727 0 0.212 0 0.424 0 0.636v-0.033 435.366c0 35.5-28.779 64.279-64.279 64.279s-64.279-28.779-64.279-64.279v0-303.617h-45.588v303.617c0 60.678 49.189 109.867 109.867 109.867s109.867-49.189 109.867-109.867v0-435.366c0-0.173 0-0.379 0-0.584 0-63.293-12.494-123.668-35.149-178.793l1.14 3.134-22.338-56.028c-19.468-47.011-30.772-101.606-30.772-158.84 0-0.172 0-0.345 0-0.517v0.027zM350.117-85.333h-45.588c0 0.023 0 0.051 0 0.079 0 51.595-20.905 98.307-54.707 132.128l-216.269 216.451c-20.732 20.739-33.554 49.385-33.554 81.026 0 0.155 0 0.309 0.001 0.464v-0.024c0.046 31.739 12.774 60.496 33.387 81.483l-0.017-0.017c20.729 21.292 49.669 34.501 81.694 34.501s60.965-13.209 81.669-34.476l0.025-0.025 64.462-64.735v467.278c0 60.678 49.189 109.867 109.867 109.867s109.867-49.189 109.867-109.867v0-390.69h-45.588v390.69c0 35.5-28.779 64.279-64.279 64.279s-64.279-28.779-64.279-64.279v0-577.601l-142.691 143.238c-12.44 12.798-29.819 20.738-49.053 20.738s-36.612-7.941-49.037-20.722l-0.016-0.016c-12.614-12.834-20.406-30.442-20.423-49.87v-0.003c0-0.088-0.001-0.193-0.001-0.297 0-19.003 7.7-36.208 20.151-48.665l216.133-216.133c42.162-42.089 68.246-100.273 68.246-164.55 0-0.088 0-0.177 0-0.265v0.014z" />
<glyph unicode="&#xe926;" glyph-name="rotate-left-thin" horiz-adv-x="1029" d="M545.758-85.333l-242.705 240.831c-21.322 21.275-34.513 50.692-34.513 83.19 0 64.902 52.614 117.516 117.516 117.516 32.404 0 61.746-13.116 83.004-34.328l-0.002 0.002 22.912-22.209v386.923c-0.003 0.295-0.004 0.644-0.004 0.993 0 59.325 44.102 108.349 101.309 116.076l0.604 0.067h0.937c2.626 0.215 5.684 0.337 8.771 0.337 62.58 0 113.407-50.323 114.221-112.711l0.001-0.077v-247.531l214.171-30.83c55.043-8.336 96.769-55.237 96.941-111.917v-0.018c-0.051-135.506-32.469-263.43-89.941-376.474l2.183 4.732-4.217-8.434-41.888 20.944 4.217 8.434c52.172 102.21 82.756 222.928 82.791 350.786v0.012c-0.047 33.224-24.49 60.724-56.373 65.55l-0.367 0.046-254.372 36.64v288.060c0.001 0.135 0.002 0.294 0.002 0.454 0 17.815-7.437 33.894-19.375 45.3l-0.024 0.023-0.703 0.656c-11.637 12.032-27.926 19.501-45.96 19.501-1.964 0-3.908-0.089-5.827-0.262l0.247 0.018c-34.465-4.888-60.679-34.194-60.679-69.622 0-0.232 0.001-0.463 0.003-0.694v0.035-497.686l-102.845 99.753c-12.788 12.788-30.456 20.698-49.97 20.698-39.029 0-70.668-31.639-70.668-70.668 0-19.515 7.91-37.182 20.698-49.97v0l242.705-240.831zM291.902 533.846h-89.492c-111.788 0-202.41 90.622-202.41 202.41s90.622 202.41 202.41 202.41c111.788 0 202.41-90.622 202.41-202.41v0h-46.854c0 85.911-69.645 155.556-155.556 155.556s-155.556-69.645-155.556-155.556c0-85.911 69.645-155.556 155.556-155.556v0h89.492zM218.997 406.684l-33.126 33.126 117.464 117.51-117.51 117.885 33.173 33.079 150.496-151.058z" />
<glyph unicode="&#xe927;" glyph-name="rotate-right-thin" horiz-adv-x="1029" d="M545.758-85.333l-242.705 240.831c-21.322 21.275-34.513 50.692-34.513 83.19 0 64.902 52.614 117.516 117.516 117.516 32.404 0 61.746-13.116 83.004-34.328l-0.002 0.002 22.912-22.209v386.923c-0.003 0.295-0.004 0.644-0.004 0.993 0 59.325 44.102 108.349 101.309 116.076l0.604 0.067h0.937c2.626 0.215 5.684 0.337 8.771 0.337 62.58 0 113.407-50.323 114.221-112.711l0.001-0.077v-247.531l214.171-30.83c55.043-8.336 96.769-55.237 96.941-111.917v-0.018c-0.051-135.506-32.469-263.43-89.941-376.474l2.183 4.732-4.217-8.434-41.888 20.944 4.217 8.434c52.172 102.21 82.756 222.928 82.791 350.786v0.012c-0.047 33.224-24.49 60.724-56.373 65.55l-0.367 0.046-254.372 36.64v288.060c0.001 0.135 0.002 0.294 0.002 0.454 0 17.815-7.437 33.894-19.375 45.3l-0.024 0.023-0.703 0.656c-11.637 12.032-27.926 19.501-45.96 19.501-1.964 0-3.908-0.089-5.827-0.262l0.247 0.018c-34.465-4.888-60.679-34.194-60.679-69.622 0-0.232 0.001-0.463 0.003-0.694v0.035-497.686l-102.845 99.753c-12.788 12.788-30.456 20.698-49.97 20.698-39.029 0-70.668-31.639-70.668-70.668 0-19.515 7.91-37.182 20.698-49.97v0l242.705-240.831zM202.41 533.846h-89.492v46.854h89.492c85.911 0 155.556 69.645 155.556 155.556s-69.645 155.556-155.556 155.556c-85.911 0-155.556-69.645-155.556-155.556h-46.854c0 111.788 90.622 202.41 202.41 202.41s202.41-90.622 202.41-202.41c0-111.788-90.622-202.41-202.41-202.41v0zM185.824 406.684l-150.496 150.543 150.496 151.058 33.173-33.079-117.51-117.885 117.464-117.464z" />
<glyph unicode="&#xe928;" glyph-name="three-finger-thin" horiz-adv-x="917" d="M568.324 828.678h-45.829c0 35.435-28.726 64.16-64.16 64.16s-64.16-28.726-64.16-64.16v0h-45.829c0 60.745 49.244 109.989 109.989 109.989s109.989-49.244 109.989-109.989v0zM742.473 785.14h-45.829c0 35.435-28.726 64.16-64.16 64.16s-64.16-28.726-64.16-64.16v0h-45.829c0 60.745 49.244 109.989 109.989 109.989s109.989-49.244 109.989-109.989v0zM829.548-84.233h-45.829c0 0.074 0 0.162 0 0.25 0 63.444 12.56 123.955 35.33 179.181l-1.142-3.128 21.952 55.728c19.569 47.103 30.935 101.815 30.935 159.181 0 0.059 0 0.117 0 0.176v-0.010 131.071c0 35.435-28.726 64.16-64.16 64.16s-64.16-28.726-64.16-64.16v0h-45.829c0.26 60.548 49.404 109.531 109.988 109.531 0 0 0.001 0 0.001 0v0c0 0 0.001 0 0.001 0 60.584 0 109.728-48.983 109.988-109.506v-131.096c0-0.074 0-0.162 0-0.25 0-63.444-12.56-123.955-35.33-179.181l1.142 3.128-21.952-55.728c-19.569-47.103-30.935-101.815-30.935-159.181 0-0.059 0-0.117 0-0.176v0.010zM220.024 306.687h-45.829v478.453c0 60.745 49.244 109.989 109.989 109.989s109.989-49.244 109.989-109.989v0-346.924h-45.829v346.924c0 35.435-28.726 64.16-64.16 64.16s-64.16-28.726-64.16-64.16v0zM394.174 437.299h-45.829v391.378h45.829zM568.324 437.299h-45.829v391.378h45.829zM742.473 437.299h-45.829v347.841h45.829zM220.024-85.333l-45.829 0.412c0.007 0.606 0.011 1.321 0.011 2.038 0 50.587-20.163 96.464-52.89 130.034l0.038-0.039-63.748 61.456c-35.563 35.521-57.562 84.615-57.562 138.847 0 0.215 0 0.429 0.001 0.644v-0.033 160.401c-0.023 0.932-0.036 2.030-0.036 3.131 0 51.726 28.565 96.781 70.781 120.249l0.702 0.358 0.779 0.412c17.377 9.028 37.942 14.323 59.743 14.323 29.717 0 57.137-9.838 79.179-26.436l-0.336 0.243-27.497-36.663c-14.224 10.768-32.214 17.248-51.717 17.248-14.041 0-27.297-3.359-39.010-9.316l0.489 0.226c-28.406-15.939-47.285-45.866-47.285-80.201 0-0.902 0.013-1.801 0.039-2.697l-0.003 0.132v-161.409c-0.001-0.145-0.001-0.316-0.001-0.487 0-41.571 16.829-79.211 44.045-106.479l-0.002 0.002 64.16-61.777c40.795-41.751 65.963-98.923 65.963-161.974 0-0.929-0.005-1.857-0.016-2.784l0.001 0.141z" />
<glyph unicode="&#xe929;" glyph-name="thumbs-down-thin" horiz-adv-x="1047" d="M630.981-85.333h-3.21c-64.114 0.159-116.026 52.17-116.026 116.305 0 0 0 0 0 0v0c-0.161 19.538-8.289 37.147-21.29 49.762l-0.018 0.017-1.442 1.489-277.272 320.491h-211.723v46.522h233.030l290.578-335.751c21.259-21.035 34.489-50.147 34.705-82.35v-0.041c0-38.54 31.243-69.783 69.783-69.783v0h0.558c0.672-0.015 1.463-0.024 2.257-0.024 28.801 0 54.886 11.632 73.812 30.455l-0.005-0.005c18.783 19.089 30.379 45.297 30.379 74.214 0 0.078 0 0.156 0 0.234v-0.012c0 69.783-93.044 210.466-128.913 258.71l-27.634 37.218h325.237c52.979 0.698 95.742 43.461 96.44 96.374l0.001 0.066c-0.096 6.873-0.786 13.519-2.021 19.973l0.113-0.713-72.528 362.222c-6.5 29.979-32.801 52.108-64.27 52.108-0.221 0-0.442-0.001-0.662-0.003h-360.56c-64.317-1.262-124.591-17.371-177.914-45.023l2.247 1.060c-57.924-30.243-126.393-48.3-199.006-49.079l-0.248-0.002h-125.377v46.522h125.145c65.195 0.724 126.45 16.896 180.495 45.016l-2.222-1.052c57.069 29.718 124.419 47.706 195.839 49.074l0.438 0.007h360.966c0.211 0.001 0.46 0.002 0.71 0.002 53.896 0 98.928-37.95 109.833-88.586l0.133-0.739 72.668-362.873c1.643-8.338 2.637-17.974 2.744-27.823l0.001-0.090v-0.512c-0.927-78.411-64.087-141.766-142.333-143.008l-0.118-0.001h-234.751c12.049-17.818 26.983-40.846 41.87-66.341 36.183-51.637 61.029-113.77 69.573-180.991l0.21-2.027c0.001-0.249 0.002-0.543 0.002-0.838 0-83.067-67.339-150.406-150.406-150.406-0.066 0-0.133 0-0.199 0h0.010z" />
<glyph unicode="&#xe92a;" glyph-name="thumbs-up-thin" horiz-adv-x="1047" d="M861.591-85.333h-361.477c-71.624 0.495-139.132 17.622-199.011 47.703l2.594-1.181h-0.279c-51.878 27.088-113.201 43.263-178.235 43.962l-0.224 0.002h-124.959v46.522h125.145c72.883-0.743 141.389-18.769 201.837-50.164l-2.489 1.176c51.247-25.924 111.642-41.329 175.583-41.869l0.178-0.001h360.64c0.153-0.001 0.333-0.002 0.513-0.002 31.612 0 58.012 22.314 64.309 52.050l0.076 0.429 72.482 362.036c1.11 5.679 1.8 12.259 1.906 18.982l0.001 0.092c-1.833 52.165-44.16 93.858-96.409 94.672l-0.078 0.001h-325.144l27.588 37.218c35.869 48.337 128.913 188.88 128.913 258.803v0.465c0.007 0.446 0.011 0.973 0.011 1.5 0 29.166-11.669 55.606-30.593 74.907l0.017-0.017c-18.893 18.734-44.909 30.311-73.629 30.311-0.807 0-1.612-0.009-2.415-0.027l0.119 0.002h-0.512c-38.54 0-69.783-31.243-69.783-69.783v0c-0.201-32.276-13.434-61.422-34.696-82.474l-0.010-0.010-290.531-335.89h-233.030v46.522h211.723l278.714 321.934c13.036 12.656 21.168 30.301 21.307 49.846v0.026c0 0 0 0 0 0 0 64.136 51.913 116.146 116.011 116.305h0.015c0.888 0.019 1.934 0.029 2.983 0.029 41.66 0 79.391-16.823 106.77-44.046l-0.007 0.007c27.249-27.779 44.068-65.875 44.068-107.899 0-0.649-0.004-1.298-0.012-1.945l0.001 0.098c-8.804-69.196-33.642-131.273-70.661-184.203l0.878 1.325c-15.027-25.494-30.007-48.523-41.87-66.341h234.704c77.387-1.129 139.949-63.040 142.121-140.062l0.005-0.202v-0.93c-0.108-9.939-1.102-19.575-2.907-28.922l0.162 1.008v-0.279l-72.621-362.361c-11.059-51.298-55.982-89.2-109.779-89.323h-0.013z" />
<glyph unicode="&#xe92b;" glyph-name="touch-gesture-thin" horiz-adv-x="763" d="M272.806-85.381l-238.217 238.217c-21.168 21.487-34.239 51.002-34.239 83.57 0 65.458 52.802 118.583 118.137 119.105h0.383c32.634-0.235 62.093-13.636 83.365-35.15l0.011-0.011 21.201-21.058v385.912c-0.031 1.001-0.048 2.179-0.048 3.361 0 59.49 44.45 108.599 101.949 115.926l0.58 0.060h1.429c1.984 0.123 4.302 0.194 6.637 0.194 62.252 0 112.836-49.955 113.852-111.965l0.001-0.095v-249.318l217.73-30.921c55.089-8.195 96.911-55.033 97.192-111.694v-0.029c-0.113-135.471-32.542-263.343-89.992-376.356l2.185 4.737-0.238-0.476-4.288-8.099-42.117 22.297 4.145 7.861c52.021 101.994 82.548 222.437 82.661 349.999v0.037c-0.171 32.773-24.364 59.844-55.861 64.513l-0.358 0.044-258.704 36.733v290.148c-0.601 36.112-30.017 65.156-66.216 65.156-1.109 0-2.212-0.027-3.307-0.081l0.154 0.006c-33.935-4.698-59.783-33.516-59.783-68.371 0-0.803 0.014-1.603 0.041-2.4l-0.003 0.116v-501.685l-102.529 101.766c-12.496 11.276-29.132 18.174-47.38 18.174-39.127 0-70.846-31.719-70.846-70.846 0-18.247 6.899-34.883 18.23-47.442l-0.056 0.063 238.217-238.217zM235.835 464.234c-29.781 13.126-55.172 30.902-76.471 52.695l-0.045 0.046c-44.559 44.715-72.108 106.405-72.108 174.53 0 136.563 110.706 247.269 247.269 247.269s247.269-110.706 247.269-247.269c0-68.125-27.55-129.815-72.115-174.537l0.007 0.007c-21.241-21.854-46.542-39.632-74.703-52.136l-1.526-0.605-19.057 43.641c23.791 10.55 44.063 24.841 61.030 42.352l0.049 0.050 0.238 0.238c36.034 36.11 58.316 85.954 58.316 141.003 0 110.25-89.376 199.626-199.626 199.626s-199.626-89.376-199.626-199.626c0-55.049 22.282-104.893 58.319-141.007l-0.004 0.004c17.166-17.582 37.594-31.89 60.317-41.961l1.238-0.49z" />
<glyph unicode="&#xe92c;" glyph-name="two-finger-point-thin" horiz-adv-x="1265" d="M1075.2 398.566h-376.047v56.202h375.991c43.641 0.164 78.956 35.58 78.956 79.244 0 2.315-0.099 4.606-0.294 6.871l0.020-0.295c-5.736 41.474-40.954 73.066-83.551 73.066-0.265 0-0.529-0.001-0.793-0.004h-599.129l122.858 123.644c15.631 15.384 25.316 36.77 25.316 60.417 0 46.757-37.863 84.671-84.601 84.752h-0.57c-0.514 0.011-1.119 0.018-1.725 0.018-23.805 0-45.306-9.867-60.636-25.734l-0.023-0.024-0.393-0.393-297.646-296.465h-172.933v56.202h149.666l281.010 279.942c25.722 26.253 61.542 42.528 101.164 42.528 78.195 0 141.584-63.39 141.584-141.584 0-38.573-15.425-73.544-40.444-99.080l0.023 0.024-27.651-28.101h464.172c0.326 0.003 0.712 0.004 1.098 0.004 71.419 0 130.392-53.286 139.332-122.269l0.075-0.705v-1.012c0.344-3.621 0.54-7.829 0.54-12.083 0-74.797-60.629-135.434-135.424-135.447h-0.001zM605.914-85.333v0c-163.045 0.33-316.907 39.327-453.003 108.302l5.748-2.642-3.597 1.686h-155.061v56.202h167.594l15.849-7.475c123.099-62.692 268.415-99.552 422.309-99.871h0.105c0.007 0 0.015 0 0.022 0 37.669 0 68.72 28.332 73.007 64.849l0.033 0.345 17.366 201.203h432.755c43.787 0.38 79.136 35.964 79.136 79.804 0 6.765-0.842 13.334-2.426 19.606l0.118-0.551c-10.695 35.138-42.815 60.265-80.803 60.265-1.231 0-2.455-0.026-3.673-0.079l0.174 0.006h-422.414v56.202h421.009c1.484 0.056 3.226 0.088 4.976 0.088 63.611 0 117.349-42.272 134.656-100.257l0.255-0.995v-0.955c2.625-9.988 4.133-21.455 4.133-33.274 0-74.83-60.431-135.545-135.152-136.006h-381.037l-13.039-150.902c-7.353-65.279-62.25-115.551-128.888-115.551-0.053 0-0.107 0-0.16 0h0.008z" />
<glyph unicode="&#xe92d;" glyph-name="two-finger-thin" horiz-adv-x="786" d="M220.175-85.333h-46.255v77.385l-116.286 116.24c-35.612 35.692-57.634 84.958-57.634 139.367v0 204.495c-0.024 0.964-0.038 2.1-0.038 3.238 0 51.809 28.679 96.919 71.027 120.322l0.707 0.358 0.648 0.324c17.302 8.899 37.756 14.116 59.427 14.116 29.92 0 57.518-9.944 79.67-26.706l-0.331 0.24-27.753-37.004c-14.183 10.818-32.155 17.333-51.649 17.333-13.896 0-27.018-3.31-38.622-9.185l0.489 0.224c-28.432-15.831-47.348-45.707-47.348-80.002 0-0.804 0.010-1.606 0.031-2.405l-0.002 0.118v-205.42c0.019-41.68 16.894-79.414 44.177-106.76l129.743-129.743zM221.1 262.969h-46.255v516.209c-0.002 0.267-0.003 0.582-0.003 0.898 0 58.21 42.908 106.399 98.82 114.664l0.632 0.077h1.434c2.508 0.209 5.429 0.328 8.377 0.328 29.868 0 56.881-12.229 76.303-31.953l0.013-0.014c20.215-19.764 32.749-47.309 32.749-77.783 0-0.072 0-0.143 0-0.215v0.011-304.822h-46.255v304.822c0 0.066 0 0.144 0 0.223 0 17.519-7.225 33.351-18.859 44.678l-0.014 0.013-0.416 0.416c-11.068 11.305-26.487 18.313-43.542 18.313-1.427 0-2.842-0.049-4.245-0.146l0.189 0.010c-33.562-5.255-58.934-33.96-58.934-68.592 0-0.278 0.002-0.556 0.005-0.834v0.042zM699.38-85.333h-46.255v135.621l6.152 13.044c50.748 99.448 80.577 216.872 80.808 341.242v0.076c-0.892 29.951-24.107 54.207-53.53 56.74l-0.218 0.015-164.114 14.339v352.928c-0.078 35.195-28.627 63.695-63.832 63.695-5.419 0-10.681-0.675-15.705-1.947l0.441 0.095c-29.012-8.77-49.8-35.194-49.956-66.497v-343.649h-46.255v343.677c0.276 52.412 35.209 96.59 83.039 110.803l0.822 0.21h0.694c8.081 2.123 17.359 3.342 26.921 3.342 60.674 0 109.884-49.084 110.087-109.71v-310.531l121.836-10.639c53.14-4.612 94.705-48.246 96.024-101.863l0.003-0.129v-0.555c-0.186-132-31.78-256.577-87.706-366.718l2.133 4.631-1.388-2.914z" />
<glyph unicode="&#xe92e;" glyph-name="up-down-move-thin" horiz-adv-x="1015" d="M444.632-85.333l-238.809 238.809c-21.128 21.136-34.196 50.33-34.196 82.577 0 0.141 0 0.283 0.001 0.424v-0.022c0 64.149 52.003 116.152 116.152 116.152v0c0.084 0 0.183 0 0.282 0 32.287 0 61.513-13.105 82.649-34.287l0.002-0.002 21.604-21.465v382.746c-0.003 0.293-0.004 0.639-0.004 0.985 0 58.827 43.732 107.439 100.458 115.101l0.599 0.066h0.976c2.798 0.247 6.053 0.388 9.341 0.388 61.934 0 112.187-50.014 112.573-111.858v-312.719h-46.461v312.682c0 0.025 0 0.055 0 0.085 0 17.833-7.286 33.964-19.043 45.58l-0.285 0.285c-11.808 12.002-28.225 19.439-46.378 19.439-1.812 0-3.606-0.074-5.38-0.219l0.233 0.015c-34.153-4.868-60.124-33.917-60.124-69.032 0-0.232 0.001-0.464 0.003-0.695v0.035-494.531l-100.96 100.17c-12.715 12.772-30.312 20.675-49.754 20.675-0.067 0-0.135 0-0.202 0h0.010c-38.49 0-69.691-31.202-69.691-69.691v0c0-0.098-0.001-0.214-0.001-0.33 0-19.373 7.847-36.914 20.537-49.616l238.855-238.855zM923.923-80.687l-41.072 21.744 4.042 7.666c51.618 101.435 81.901 221.189 82.004 348.006v0.033c-0.048 31.618-24.254 57.568-55.145 60.382l-0.236 0.017-166.237 14.403v356.82c-0.371 36.154-29.765 65.319-65.971 65.319-5.442 0-10.729-0.659-15.788-1.901l0.452 0.094c-28.997-8.873-49.721-35.401-49.721-66.769 0-0.374 0.003-0.748 0.009-1.12l-0.001 0.056v-352.499h-46.461v352.035c-0.005 0.383-0.007 0.835-0.007 1.287 0 52.623 34.897 97.096 82.812 111.538l0.825 0.214 0.929 0.232c8.092 2.082 17.382 3.278 26.95 3.278 61.811 0 111.973-49.878 112.432-111.581v-314.353l123.726-10.686c55.037-5.045 97.821-50.945 97.893-106.853v-0.007c-0.117-134.497-32.253-261.461-89.195-373.716l2.173 4.723-0.232-0.465zM149.279 385.224l-149.279 149.233 32.848 32.848 116.478-116.478 116.942 116.524 32.801-32.894zM266.268 756.54l-116.896 116.524-116.478-116.524-32.848 32.848 149.233 149.279 149.79-149.233zM172.556 418.025h-46.461v443.702h46.461z" />
<glyph unicode="&#xe92f;" glyph-name="up-move-thin" horiz-adv-x="1059" d="M462.786-85.381l-248.976 248.492c-22.143 22.062-35.845 52.584-35.845 86.306 0 0.039 0 0.077 0 0.115v-0.006c-0.005 0.398-0.007 0.867-0.007 1.338 0 34.008 13.547 64.852 35.539 87.43l-0.026-0.027c22.152 22.115 52.735 35.79 86.512 35.79s64.36-13.676 86.514-35.792l22.522-22.522v398.798c-0.003 0.305-0.004 0.666-0.004 1.027 0 61.331 45.593 112.013 104.735 120.001l0.624 0.069h0.969c3.121 0.296 6.748 0.465 10.414 0.465 64.466 0 116.727-52.255 116.738-116.718v-324.542h-48.439v324.541c-0.146 37.61-30.668 68.042-68.298 68.042-1.961 0-3.902-0.083-5.821-0.245l0.25 0.017c-35.63-5.053-62.732-35.35-62.732-71.977 0-0.24 0.001-0.479 0.003-0.718v0.037-515.73l-105.306 105.258c-13.245 13.286-31.564 21.507-51.804 21.507-0.077 0-0.154 0-0.232 0h-0.23c-0.057 0-0.124 0-0.191 0-20.209 0-38.503-8.201-51.734-21.458l-0.001-0.001c-13.339-13.744-21.562-32.517-21.562-53.211 0-0.366 0.003-0.731 0.008-1.096l-0.001 0.055v-0.339c0-0.071 0-0.155 0-0.24 0-20.209 8.202-38.503 21.458-51.734l248.832-248.638zM963.258-75.694l-42.82 22.669 4.214 7.992c53.816 105.753 85.388 230.605 85.495 362.822v0.035c-0.137 32.777-25.295 59.636-57.354 62.469l-0.24 0.017-173.46 15.016v372.496c-0.386 37.693-31.032 68.1-68.78 68.1-5.673 0-11.186-0.687-16.46-1.982l0.472 0.098c-30.26-9.233-51.893-36.904-51.893-69.628 0-1.066 0.023-2.126 0.068-3.181l-0.005 0.15v-366.538h-48.439v365.278c-0.048 1.279-0.076 2.781-0.076 4.289 0 54.825 36.433 101.14 86.409 116.056l0.857 0.22 0.969 0.242c8.436 2.171 18.121 3.417 28.098 3.417 64.443 0 116.74-52.001 117.219-116.331v-328.22l128.993-11.141c57.343-4.973 102.012-52.725 102.061-110.92v-0.005c-0.121-140.223-33.626-272.592-92.992-389.626l2.266 4.924-0.242-0.484zM277.604 748.738l-121.872 121.485-121.437-121.485-34.246 34.246 155.586 155.634 156.167-155.586zM179.902 442.313h-48.439v462.108h48.439z" />
<glyph unicode="&#xe930;" glyph-name="zoom-in-thin" horiz-adv-x="1029" d="M545.758-85.333l-242.705 240.831c-21.322 21.275-34.513 50.692-34.513 83.19 0 64.902 52.614 117.516 117.516 117.516 32.404 0 61.746-13.116 83.004-34.328l-0.002 0.002 22.912-22.209v386.923c-0.003 0.295-0.004 0.644-0.004 0.993 0 59.325 44.102 108.349 101.309 116.076l0.604 0.067h0.937c2.626 0.215 5.684 0.337 8.771 0.337 62.58 0 113.407-50.323 114.221-112.711l0.001-0.077v-247.531l214.171-30.83c55.043-8.336 96.769-55.237 96.941-111.917v-0.018c-0.051-135.506-32.469-263.43-89.941-376.474l2.183 4.732-4.217-8.434-41.888 20.944 4.217 8.434c52.172 102.21 82.756 222.928 82.791 350.786v0.012c-0.047 33.224-24.49 60.724-56.373 65.55l-0.367 0.046-254.372 36.64v288.060c0.001 0.135 0.002 0.294 0.002 0.454 0 17.815-7.437 33.894-19.375 45.3l-0.024 0.023-0.703 0.656c-11.637 12.032-27.926 19.501-45.96 19.501-1.964 0-3.908-0.089-5.827-0.262l0.247 0.018c-34.465-4.888-60.679-34.194-60.679-69.622 0-0.232 0.001-0.463 0.003-0.694v0.035-497.686l-102.845 99.753c-12.788 12.788-30.456 20.698-49.97 20.698-39.029 0-70.668-31.639-70.668-70.668 0-19.515 7.91-37.182 20.698-49.97v0l242.705-240.831zM202.41 489.335h-202.41v202.41h46.854v-155.556h155.556zM449.332 736.257h-46.854v155.556h-155.556v46.854h202.41zM40.014 496.175l-33.126 33.126 178.983 178.983 33.126-33.126zM263.508 719.67l-33.126 33.126 178.983 178.983 33.126-33.126z" />
<glyph unicode="&#xe931;" glyph-name="zoom-out-thin" horiz-adv-x="1079" d="M585.862-85.382l-240.366 240.366c-21.781 21.775-35.253 51.859-35.253 85.091 0 66.45 53.869 120.319 120.319 120.319 33.219 0 63.294-13.462 85.066-35.229l20.088-20.088v384.142c-0.060 1.402-0.094 3.048-0.094 4.701 0 59.176 43.702 108.145 100.592 116.393l0.634 0.075h1.382c3.003 0.278 6.495 0.436 10.024 0.436 63.436 0 114.926-51.143 115.49-114.445v-249.303l216.725-31.045c55.706-8.793 97.846-56.311 98.17-113.732v-0.034c-0.301-136.616-32.96-265.534-90.713-379.591l2.217 4.827-0.345-0.345-4.442-8.391-43.631 23.099 4.294 8.094c52.196 102.687 82.916 223.869 83.264 352.194v0.113c-0.186 32.767-24.207 59.868-55.595 64.855l-0.376 0.049-258.924 37.067v291.895c-0.447 36.185-29.884 65.347-66.133 65.347-1.791 0-3.565-0.071-5.32-0.211l0.231 0.015c-33.113-5.16-58.154-33.473-58.154-67.635 0-1.018 0.022-2.031 0.066-3.039l-0.005 0.144v-504.819l-104.34 104.34c-12.851 12.796-30.575 20.707-50.146 20.707-39.21 0-71.004-31.751-71.073-70.945v-0.007c0-0.062 0-0.136 0-0.21 0-19.472 7.947-37.088 20.773-49.782l240.52-240.52zM468.097 716.365h-204.83v204.83h49.357v-155.473h155.473zM222.302 470.57h-49.357v155.967h-155.473v49.357h204.83zM34.944 453.147l-34.944 34.846 180.349 180.645 34.55-34.846zM305.418 723.769l-34.944 34.55 180.349 180.349 34.55-34.944z" />
<glyph unicode="&#xe932;" glyph-name="click" d="M729.266 18.403h-324.118c-67.619 0-122.435 54.816-122.435 122.435s54.816 122.435 122.435 122.435v0h3.384l-240.417 243.489c-22.641 22.24-36.672 53.18-36.672 87.397 0 28.19 9.524 54.156 25.529 74.855l-0.21-0.282 0.757 0.979c22.030 25.988 54.698 42.372 91.193 42.372 32.655 0 62.246-13.118 83.791-34.372l160.265-160.265 158.497 118.873c19.564 14.687 44.256 23.519 71.011 23.519 32.776 0 62.456-13.255 83.973-34.697l-0.003 0.003c85.285-85.655 151.356-190.513 191.155-307.517l1.669-5.649v-0.445l2.671-8.459-63.666-20.124-2.582 8.237c-37.943 112.333-98.4 208.378-176.473 286.887l0.034-0.034c-9.384 9.37-22.34 15.165-36.649 15.165-11.673 0-22.445-3.856-31.113-10.364l0.134 0.096-204.8-153.6-201.238 201.416c-8.839 8.967-21.119 14.523-34.696 14.523-0.324 0-0.647-0.003-0.97-0.009l0.048 0.001h-1.291c-0.194 0.003-0.424 0.004-0.654 0.004-15.332 0-29.055-6.889-38.242-17.74l-0.060-0.073c-6.953-9.187-11.137-20.805-11.137-33.401 0-15.611 6.428-29.72 16.781-39.827l0.456-0.456 352.612-357.376h-163.083c-30.736 0-55.652-24.916-55.652-55.652s24.916-55.652 55.652-55.652v0h324.118zM246.205 357.213c-135.968 0.009-246.189 110.235-246.189 246.205 0 135.975 110.23 246.205 246.205 246.205 134.989 0 244.605-108.637 246.188-243.25l0.001-0.15c0.045-1.747 0.071-3.804 0.071-5.868 0-34.125-7.051-66.603-19.775-96.056l0.604 1.572-61.529 25.912c8.79 20.236 13.904 43.806 13.904 68.57 0 1.579-0.021 3.153-0.062 4.722l0.005-0.232v0.445c-1.060 98.283-80.98 177.548-179.413 177.548-99.092 0-179.423-80.33-179.423-179.423s80.33-179.423 179.423-179.423c0.466 0 0.932 0.002 1.397 0.005h0.285c0.173-0.001 0.378-0.001 0.584-0.001 20.528 0 40.225 3.556 58.51 10.085l-1.215-0.379 21.994-63.043c-23.564-8.465-50.751-13.358-79.082-13.358-0.278 0-0.555 0-0.833 0.001h0.043z" />
<glyph unicode="&#xe933;" glyph-name="count-finger" horiz-adv-x="929" d="M584.644 818.575h-67.977c0 28.783-23.333 52.115-52.115 52.115s-52.115-23.333-52.115-52.115v0h-67.977c0 66.325 53.767 120.092 120.092 120.092s120.092-53.767 120.092-120.092v0zM756.852 775.523h-67.977c0 28.783-23.333 52.115-52.115 52.115s-52.115-23.333-52.115-52.115v0h-67.977c0 66.325 53.767 120.092 120.092 120.092s120.092-53.767 120.092-120.092v0zM842.956-85.061h-67.977c0 0.047 0 0.103 0 0.159 0 64.254 12.72 125.538 35.779 181.469l-1.156-3.167 21.798 55.378c18.807 45.287 29.728 97.886 29.728 153.037 0 0.048 0 0.097 0 0.145v-0.008 344.415c0 28.783-23.333 52.115-52.115 52.115s-52.115-23.333-52.115-52.115v0-213.9h-67.977v213.9c0 66.325 53.767 120.092 120.092 120.092s120.092-53.767 120.092-120.092v0-344.415c0-0.047 0-0.103 0-0.159 0-64.254-12.72-125.538-35.779-181.469l1.156 3.167-21.798-55.378c-18.807-45.287-29.728-97.886-29.728-153.037 0-0.048 0-0.097 0-0.145v0.008zM240.229 302.406h-67.977v473.117c0 66.325 53.767 120.092 120.092 120.092s120.092-53.767 120.092-120.092v0-343.055h-67.977v343.055c0 28.783-23.333 52.115-52.115 52.115s-52.115-23.333-52.115-52.115v0zM412.437 431.561h-67.977v387.014h67.977zM584.644 431.561h-67.977v387.014h67.977zM756.852 431.561h-67.977v343.962h67.977zM240.229-85.333l-67.977 0.589c0.006 0.548 0.010 1.196 0.010 1.844 0 46.881-18.655 89.405-48.946 120.553l0.039-0.040-63.082 60.907c-37.21 37.167-60.228 88.536-60.228 145.281 0 0.21 0 0.42 0.001 0.63v-0.033 158.612c-0.026 1.033-0.041 2.249-0.041 3.468 0 55.407 30.604 103.665 75.831 128.794l0.752 0.383 1.133 0.589c18.579 9.587 40.55 15.208 63.833 15.208 32.052 0 61.616-10.651 85.345-28.607l-0.355 0.257-40.786-54.381c-12.192 9.212-27.605 14.756-44.312 14.756-11.921 0-23.182-2.822-33.153-7.834l0.425 0.194c-24.526-13.851-40.813-39.746-40.813-69.444 0-0.727 0.010-1.451 0.029-2.174l-0.002 0.106v-159.926c-0.001-0.139-0.001-0.305-0.001-0.47 0-37.95 15.34-72.318 40.157-97.24l-0.005 0.005 63.445-61.224c42.491-43.348 68.714-102.779 68.714-168.334 0-0.868-0.005-1.735-0.014-2.601l0.001 0.132z" />
<glyph unicode="&#xe934;" glyph-name="double-click" d="M710.237-41.766h-325.818c-70.847 0.64-128.034 58.221-128.034 129.159 0 33.362 12.648 63.769 33.411 86.689l-0.098-0.11 1.257 1.303c22.8 22.771 54.191 36.943 88.893 37.236h0.335l-211.084 210.944c-23.477 22.683-38.054 54.449-38.054 89.619 0 28.839 9.801 55.389 26.254 76.5l-0.209-0.278 0.977 1.21c22.428 26.404 55.655 43.048 92.769 43.048 33.371 0 63.599-13.455 85.555-35.236l183.009-183.009-49.338-49.338-182.924 182.924c-9.323 9.196-22.135 14.875-36.274 14.875-15.509 0-29.422-6.834-38.893-17.654l-0.051-0.060c-6.871-9.060-11.006-20.523-11.006-32.952 0-15.54 6.465-29.571 16.853-39.548l330.956-330.956h-168.308c-0.473 0.015-1.028 0.024-1.586 0.024-29.1 0-52.689-23.59-52.689-52.689 0-1.122 0.035-2.236 0.104-3.34l-0.008 0.151v-0.605c0.079-32.082 26.092-58.062 58.179-58.089h325.821zM977.78 286.984l-2.793 8.378c-38.44 113.773-99.367 211.126-177.993 291.007l0.096-0.098-0.652 0.698c-8.451 8.917-20.38 14.465-33.604 14.465-10.79 0-20.717-3.694-28.587-9.886l0.099 0.075-132.468-113.711-223.046 223.185c-9.317 9.162-22.106 14.818-36.216 14.818-18.438 0-34.62-9.658-43.763-24.192l-0.126-0.214c-4.158-7.552-6.604-16.553-6.604-26.124 0-15.569 6.472-29.626 16.873-39.627l0.018-0.017 210.385-210.432-49.338-49.338-209.687 209.687c-23.474 22.726-38.045 54.526-38.045 89.729 0 22.252 5.822 43.145 16.027 61.237l-0.324-0.624 0.605 1.164c21.671 35.311 60.070 58.508 103.886 58.508 33.374 0 63.605-13.458 85.562-35.243l177.377-177.377 84.806 72.751c19.686 15.774 44.959 25.315 72.461 25.315 33.199 0 63.15-13.903 84.35-36.204l0.047-0.050c85.641-87.046 152.12-193.219 192.426-311.505l1.715-5.796 2.746-8.285zM252.649 262.175h-2.653c-0.035 0-0.077 0-0.119 0-138.043 0-249.949 111.906-249.949 249.949 0 79.689 37.292 150.667 95.377 196.436l0.532 0.404c21.681 118.058 123.783 206.337 246.505 206.337 138.3 0 250.415-112.114 250.415-250.415 0 0 0 0 0 0v0c0.007-0.658 0.010-1.435 0.010-2.213 0-32.106-6.33-62.733-17.811-90.701l0.579 1.592-64.745 26.112c7.835 18.82 12.386 40.682 12.386 63.607 0 0.449-0.002 0.898-0.005 1.346v-0.068 0.279c0 0.113 0 0.247 0 0.381 0 99.741-80.856 180.596-180.596 180.596-92.676 0-169.047-69.807-179.401-159.708l-0.078-0.836-1.815-15.825-13.126-8.983c-47.499-32.91-78.215-87.131-78.215-148.527 0-99.484 80.647-180.131 180.131-180.131 0.17 0 0.341 0 0.511 0.001h0.392c0.432-0.004 0.942-0.006 1.453-0.006 22.961 0 44.858 4.551 64.84 12.8l-1.13-0.413 26.391-64.605c-26.523-11.013-57.328-17.408-89.627-17.408-0.089 0-0.177 0-0.266 0h0.014z" />
</font>
</defs>
</svg>
