<?xml version="1.0" standalone="no"?>
<!DOCTYPE svg PUBLIC "-//W3C//DTD SVG 1.1//EN" "http://www.w3.org/Graphics/SVG/1.1/DTD/svg11.dtd" >
<svg xmlns="http://www.w3.org/2000/svg">
<metadata>Generated by IcoMoon</metadata>
<defs>
<font id="internet-security" horiz-adv-x="1024">
<font-face units-per-em="1024" ascent="960" descent="-64" />
<missing-glyph horiz-adv-x="1024" />
<glyph unicode="&#x20;" horiz-adv-x="512" d="" />
<glyph unicode="&#xe900;" glyph-name="arrow-down-shield-thin" d="M514.327-86.264l-4.655 0.884c-265.924 54.448-463.127 286.515-463.127 564.642 0 0 0 0.001 0 0.001v0 365.847l467.782 93.556 467.782-93.556v-365.847c-0.023-278.108-197.218-510.152-459.412-563.959l-3.715-0.637zM93.091 806.943v-327.68c0.578-253.834 179.3-465.759 417.74-517.416l3.497-0.635c241.937 52.292 420.658 264.217 421.236 517.987v327.744l-421.236 84.247zM514.327 400.741l-142.15 142.103 32.908 32.908 109.242-109.196 109.196 109.196 32.908-32.908zM715.404 225.125h-402.153v156.393h46.545v-109.847h309.062v109.847h46.545zM537.6 426.202h-46.545v310.924h46.545z" />
<glyph unicode="&#xe901;" glyph-name="arrow-up-shield-thin" d="M514.327-86.264l-4.655 0.884c-265.924 54.448-463.127 286.515-463.127 564.642 0 0 0 0.001 0 0.001v0 365.847l467.782 93.556 467.782-93.556v-365.847c-0.023-278.108-197.218-510.152-459.412-563.959l-3.715-0.637zM93.091 806.943v-327.68c0.578-253.834 179.3-465.759 417.74-517.416l3.497-0.635c241.937 52.292 420.658 264.217 421.236 517.987v327.744l-421.236 84.247zM623.523 542.844l-109.196 109.242-109.196-109.242-32.908 32.908 142.103 142.15 142.15-142.15zM715.404 225.125h-402.153v156.393h46.545v-109.847h309.062v109.847h46.545zM537.6 381.983h-46.545v310.924h46.545z" />
<glyph unicode="&#xe902;" glyph-name="block-shield-thin" d="M514.327-86.264l-4.655 0.884c-265.924 54.448-463.127 286.515-463.127 564.642 0 0 0 0.001 0 0.001v0 365.847l467.782 93.556 467.782-93.556v-365.847c-0.023-278.108-197.218-510.152-459.412-563.959l-3.715-0.637zM93.091 806.943v-327.68c0.578-253.834 179.3-465.759 417.74-517.416l3.497-0.635c241.937 52.292 420.658 264.217 421.236 517.987v327.744l-421.236 84.247zM514.327 671.496c135.472 0 245.295-109.822 245.295-245.295s-109.822-245.295-245.295-245.295c-135.472 0-245.295 109.822-245.295 245.295v0c0.159 135.408 109.886 245.136 245.279 245.295h0.015zM514.327 227.452c109.766 0 198.749 88.983 198.749 198.749s-88.983 198.749-198.749 198.749c-109.766 0-198.749-88.983-198.749-198.749v0c0.132-109.713 89.036-198.617 198.737-198.749h0.012zM375.343 254.263l-32.908 32.908 312.785 312.785 32.908-32.908z" />
<glyph unicode="&#xe903;" glyph-name="block-thin" d="M512 938.667c282.763-0.009 511.984-229.236 511.984-512 0-141.381-57.304-269.378-149.953-362.031v0c-92.888-94.106-221.865-152.395-364.456-152.395-282.77 0-512 229.23-512 512 0 142.591 58.29 271.568 152.34 364.402l0.055 0.054c92.145 92.639 219.706 149.971 360.658 149.971 0.483 0 0.966-0.001 1.448-0.002h-0.075zM512-38.788c257.063 0 465.455 208.391 465.455 465.455s-208.391 465.455-465.455 465.455c-257.063 0-465.455-208.391-465.455-465.455v0c0.291-256.946 208.508-465.163 465.427-465.455h0.028zM514.001 760.863c57.771-0.048 112.064-14.889 159.311-40.939l-1.708 0.863 27.369-14.895-466.246-466.292-14.801 27.601c-25.105 45.861-39.87 100.474-39.87 158.536 0 184.67 149.368 334.453 333.88 335.125h0.064zM620.684 693.466c-31.559 13.164-68.222 20.823-106.671 20.852h-2.013c-158.983-0.524-287.661-129.525-287.661-288.58 0-38.774 7.647-75.761 21.515-109.537l-0.699 1.922zM791.273 613.64l14.895-27.369c25.203-45.585 40.034-99.939 40.034-157.758 0-0.649-0.002-1.298-0.006-1.946v0.099c-0.185-184.497-149.699-334.011-334.178-334.196h-2.019c-57.771 0.048-112.064 14.889-159.311 40.939l1.708-0.863-27.369 14.848zM510.045 138.876h1.955c158.829 0.212 287.519 128.951 287.651 287.778v0.012c0.003 0.515 0.005 1.124 0.005 1.734 0 38.549-7.664 75.309-21.55 108.838l0.693-1.888-375.482-375.482c31.559-13.164 68.222-20.823 106.671-20.852h0.011z" />
<glyph unicode="&#xe904;" glyph-name="bomb-thin" horiz-adv-x="1023" d="M234.477-85.333c-66.341 0.125-128.938 16.032-184.275 44.166l2.324-1.072-7.23 3.591-3.543 7.23c-26.286 52.354-41.676 114.084-41.676 179.408 0 111.788 45.069 213.049 118.027 286.605l-0.027-0.028 127.366 128.323c35.806 35.905 85.324 58.119 140.030 58.119s104.224-22.214 140.026-58.114l123.061-123.061c35.89-35.803 58.095-85.312 58.095-140.006s-22.205-104.203-58.091-140.003l-125.933-125.933c-73.268-73.649-174.69-119.228-286.758-119.228-0.49 0-0.981 0.001-1.471 0.003h0.076zM81.255-3.024c44.866-21.645 97.551-34.332 153.189-34.427h0.033c0.297-0.001 0.649-0.001 1-0.001 98.951 0 188.497 40.273 253.138 105.323l125.947 125.947c27.2 27.134 44.028 64.655 44.028 106.106s-16.828 78.972-44.025 106.103l-123.059 123.059c-27.134 27.2-64.655 44.028-106.106 44.028s-78.972-16.828-106.103-44.025l-0.003-0.003-127.318-128.227c-64.35-64.878-104.116-154.226-104.116-252.861 0-54.803 12.276-106.739 34.228-153.207l-0.929 2.186zM415.853-37.834l-369.647 369.647 33.9 33.9 369.647-369.647zM538.91 85.222l-369.647 369.647 33.9 33.9 369.647-369.647zM811.884 389.654l-241.42 96.769-96.769 241.42 206.754 210.68 27.101-62.246 75.797-177.163 239.409-102.706zM607.093 523.053l193.347-77.521 137.852 134.979-191.527 82.117-81.974 191.527-134.979-137.517z" />
<glyph unicode="&#xe905;" glyph-name="bug-envelope-thin" d="M1024-85.333h-1024v612.771l187.392 136.378 27.369-37.655-168.215-122.461v-542.487h930.909v542.487l-168.215 122.415 27.369 37.655 187.392-136.332zM512 85.675l-503.482 411.881 29.51 36.166 473.972-387.91 473.972 387.91 29.463-36.026zM846.196 386.172h-46.545v505.949h-575.302v-505.949h-46.545v552.495h668.393zM512 805.547c61.92-0.079 112.095-50.254 112.175-112.167v-177.812c0-61.952-50.222-112.175-112.175-112.175s-112.175 50.222-112.175 112.175v0 177.804c0.079 61.92 50.254 112.095 112.167 112.175h0.008zM512 449.94c36.225 0.053 65.576 29.404 65.629 65.624v177.809c0 36.246-29.383 65.629-65.629 65.629s-65.629-29.383-65.629-65.629v0-177.804c0.053-36.225 29.404-65.576 65.624-65.629h0.005zM412.625 716.785l-88.902 44.684 20.945 41.612 88.902-44.684zM611.375 716.785l-20.945 41.612 88.902 44.684 20.899-41.565zM344.576 405.722l-20.759 41.891 88.902 44.218 20.713-41.891zM679.424 405.722l-88.902 44.311 20.713 41.891 88.948-44.311zM734.022 581.198h-133.12v46.545h133.12zM423.098 581.198h-133.12v46.545h133.12z" />
<glyph unicode="&#xe906;" glyph-name="bug-laptop-thin" d="M111.709 183.234h276.806l44.218-44.218h158.394l44.218 44.218h276.945c0.173 0.001 0.377 0.002 0.581 0.002 30.683 0 58.457-12.453 78.544-32.581l0.002-0.002c20.138-20.307 32.583-48.271 32.583-79.142 0-0.159 0-0.317-0.001-0.476v0.025c-0.079-86.341-70.051-156.313-156.385-156.393h-711.222c-86.331 0.106-156.287 70.062-156.393 156.383v0.010c0 0.098 0 0.214 0 0.331 0 30.864 12.445 58.822 32.59 79.13l-0.007-0.007c20.102 20.213 47.933 32.722 78.685 32.722 0.156 0 0.311 0 0.467-0.001h-0.024zM369.245 136.689h-257.536c-0.053 0-0.116 0-0.178 0-17.939 0-34.173-7.295-45.899-19.081l-0.003-0.003c-11.794-11.856-19.084-28.201-19.084-46.249 0-0.104 0-0.208 0.001-0.312v0.016c0.079-60.635 49.212-109.768 109.84-109.847h711.223c60.635 0.079 109.768 49.212 109.847 109.84v0.008c0 0.082 0.001 0.18 0.001 0.277 0 18.054-7.29 34.406-19.087 46.271l0.003-0.003c-11.728 11.788-27.963 19.084-45.902 19.084-0.063 0-0.125 0-0.188 0h-257.526l-44.218-44.218h-197.073zM935.098 159.962h-46.545v488.727c-0.366 36.147-29.61 65.343-65.741 65.629h-44.106v46.545h44.218c61.703-0.495 111.6-50.343 112.174-111.98v-0.055zM135.447 159.962h-46.545v488.727c0.495 61.703 50.343 111.6 111.98 112.174h44.413v-46.545h-44.218c-36.147-0.366-65.343-29.61-65.629-65.741v-0.027zM512 938.667c61.92-0.079 112.095-50.254 112.175-112.167v-177.812c0-61.952-50.222-112.175-112.175-112.175s-112.175 50.222-112.175 112.175v0 177.804c0.079 61.92 50.254 112.095 112.167 112.175h0.008zM512 583.060c36.225 0.053 65.576 29.404 65.629 65.624v177.809c0 36.246-29.383 65.629-65.629 65.629s-65.629-29.383-65.629-65.629v0-177.804c0.053-36.225 29.404-65.576 65.624-65.629h0.005zM412.719 850.231l-88.902 44.311 20.713 41.891 88.948-44.311zM611.281 850.231l-20.759 41.891 88.902 44.218 20.713-41.891zM344.669 538.981l-20.945 41.612 88.902 44.684 20.899-41.565zM679.331 538.981l-88.902 44.684 20.945 41.612 88.902-44.684zM734.022 714.318h-133.12v46.545h133.12zM423.098 714.318h-133.12v46.545h133.12z" />
<glyph unicode="&#xe907;" glyph-name="bug-monitor-thin" d="M111.709 938.667h800.582c0.173 0.001 0.377 0.002 0.581 0.002 30.683 0 58.457-12.453 78.544-32.581l0.002-0.002c20.138-20.307 32.583-48.271 32.583-79.142 0-0.159 0-0.317-0.001-0.476v0.025-621.847c0-0.098 0-0.214 0-0.331 0-30.864-12.445-58.822-32.59-79.13l0.007 0.007c-20.089-20.13-47.863-32.583-78.546-32.583-0.204 0-0.408 0.001-0.612 0.002h-800.551c-0.173-0.001-0.377-0.002-0.581-0.002-30.683 0-58.457 12.453-78.544 32.581l-0.002 0.002c-20.138 20.307-32.583 48.271-32.583 79.142 0 0.159 0 0.317 0.001 0.476v-0.025 621.708c-0.001 0.14-0.001 0.305-0.001 0.47 0 30.865 12.445 58.823 32.59 79.13l-0.007-0.007c20.089 20.13 47.863 32.583 78.546 32.583 0.204 0 0.408-0.001 0.612-0.002h-0.031zM822.924 892.122h-711.215c-0.053 0-0.116 0-0.178 0-17.939 0-34.173-7.295-45.899-19.081l-0.003-0.003c-11.794-11.856-19.084-28.201-19.084-46.249 0-0.104 0-0.208 0.001-0.312v0.016-621.847c0-0.082-0.001-0.18-0.001-0.277 0-18.054 7.29-34.406 19.087-46.271l-0.003 0.003c11.728-11.788 27.963-19.084 45.902-19.084 0.063 0 0.125 0 0.188 0h800.572c0.053 0 0.116 0 0.178 0 17.939 0 34.173 7.295 45.899 19.081l0.003 0.003c11.794 11.856 19.084 28.201 19.084 46.249 0 0.104 0 0.208-0.001 0.312v-0.016 621.847c0 0.082 0.001 0.18 0.001 0.277 0 18.054-7.29 34.406-19.087 46.271l0.003-0.003c-11.728 11.788-27.963 19.084-45.902 19.084-0.063 0-0.125 0-0.188 0h-89.357zM535.273-62.060h-46.545v177.804h46.545zM734.022-85.333h-444.044v46.545h444.044zM1000.727 270.274h-977.455v46.545h977.455zM512 805.547c61.92-0.079 112.095-50.254 112.175-112.167v-177.812c0-61.952-50.222-112.175-112.175-112.175s-112.175 50.222-112.175 112.175v0 177.804c0.079 61.92 50.254 112.095 112.167 112.175h0.008zM512 449.94c36.225 0.053 65.576 29.404 65.629 65.624v177.809c0 36.246-29.383 65.629-65.629 65.629s-65.629-29.383-65.629-65.629v0-177.804c0.053-36.225 29.404-65.576 65.624-65.629h0.005zM412.625 716.785l-88.902 44.684 20.945 41.612 88.902-44.684zM611.375 716.785l-20.945 41.612 88.902 44.684 20.899-41.565zM344.576 405.722l-20.759 41.891 88.902 44.218 20.713-41.891zM679.424 405.722l-88.902 44.311 20.713 41.891 88.948-44.311zM734.022 581.198h-133.12v46.545h133.12zM423.098 581.198h-133.12v46.545h133.12z" />
<glyph unicode="&#xe908;" glyph-name="check-padlock-thin" d="M46.545 494.158h935.098v-579.491h-935.098zM935.098 447.612h-842.007v-486.4h842.007zM514.327 938.667c184.486-0.212 333.984-149.71 334.196-334.176v-154.552h-668.393v154.531c0.212 184.486 149.71 333.984 334.176 334.196h0.021zM801.978 496.485v107.985c0 158.865-128.786 287.651-287.651 287.651s-287.651-128.786-287.651-287.651v0-107.985zM469.644 82.836l-149.597 149.551 32.908 32.908 116.689-116.689 206.010 205.591 32.861-32.954z" />
<glyph unicode="&#xe909;" glyph-name="check-shield-thin" d="M514.327-86.264l-4.655 0.884c-265.924 54.448-463.127 286.515-463.127 564.642 0 0 0 0.001 0 0.001v0 365.847l467.782 93.556 467.782-93.556v-365.847c-0.023-278.108-197.218-510.152-459.412-563.959l-3.715-0.637zM93.091 806.943v-327.68c0.578-253.834 179.3-465.759 417.74-517.416l3.497-0.635c241.937 52.292 420.658 264.217 421.236 517.987v327.744l-421.236 84.247zM458.938 276.465l-183.11 183.063 32.908 32.908 150.202-150.016 260.934 261.399 32.954-32.908z" />
<glyph unicode="&#xe90a;" glyph-name="clickbait-window-thin" horiz-adv-x="1022" d="M865.929-85.333c-85.905 0.024-155.606 69.366-156.212 155.132v0.058l46.478 0.279c0.374-60.295 49.339-109.029 109.686-109.029 60.579 0 109.688 49.109 109.688 109.688 0 31.512-13.288 59.92-34.567 79.927l-0.057 0.053c-58.287 50.831-95.567 124.469-97.827 206.855l-0.008 0.39v22.914h46.478v-22.031c2.023-69.214 33.3-130.743 81.836-172.929l0.291-0.247 0.651-0.604c30.612-28.587 49.693-69.186 49.693-114.243 0-86.235-69.896-156.144-156.126-156.166h-0.002zM866.347 494.804c37.22 0 67.393-30.173 67.393-67.393s-30.173-67.393-67.393-67.393c-37.22 0-67.393 30.173-67.393 67.393v0c0.053 37.199 30.194 67.34 67.388 67.393h0.005zM866.347 406.496c11.551 0 20.915 9.364 20.915 20.915s-9.364 20.915-20.915 20.915c-11.551 0-20.915-9.364-20.915-20.915v0c0.026-11.54 9.375-20.889 20.913-20.915h0.003zM644.183 49.081h-644.183v889.586h933.74v-378.33h-46.478v331.852h-840.784v-796.63h597.705zM910.501 625.871h-887.262v46.478h887.262zM244.938 759.262h-88.773v46.478h88.773zM422.484 759.262h-88.773v46.478h88.773z" />
<glyph unicode="&#xe90b;" glyph-name="credit-card-padlock-thin" d="M734.022 90.143v46.545h177.804c36.147 0.366 65.343 29.61 65.629 65.741v577.516c-0.366 36.147-29.61 65.343-65.741 65.629h-799.538c-36.147-0.366-65.343-29.61-65.629-65.741v-577.516c0.366-36.147 29.61-65.343 65.741-65.629h177.691v-46.545h-177.804c-61.703 0.495-111.6 50.343-112.174 111.98v577.824c0.495 61.703 50.343 111.6 111.98 112.174h799.846c61.703-0.495 111.6-50.343 112.174-111.98v-577.824c-0.495-61.703-50.343-111.6-111.98-112.174h-0.055zM0 714.318h1024v-224.349h-1024zM977.455 667.772h-930.909v-131.258h930.909zM355.607 180.907h313.251v-224.349h-313.251zM622.313 134.362h-220.16v-131.258h220.16zM512 358.711c61.92-0.079 112.095-50.254 112.175-112.167v-112.183h-224.349v112.175c0.079 61.92 50.254 112.095 112.167 112.175h0.008zM577.629 180.907v65.629c0 36.246-29.383 65.629-65.629 65.629s-65.629-29.383-65.629-65.629v0-65.629z" />
<glyph unicode="&#xe90c;" glyph-name="credit-card-shield-thin" horiz-adv-x="1032" d="M785.129 130.542v46.929h134.218c36.445 0.369 65.882 29.855 66.17 66.284v582.281c-0.345 36.311-29.822 65.623-66.163 65.701h-806.254c-36.349-0.078-65.826-29.39-66.17-65.669v-582.427c0.369-36.445 29.855-65.882 66.284-66.17h134.105v-46.929h-134.218c-62.212 0.5-112.52 50.758-113.1 112.904v582.59c0.425 62.197 50.865 112.473 113.085 112.631h806.262c62.246-0.132 112.701-50.423 113.1-112.593v-582.432c-0.5-62.212-50.758-112.52-112.904-113.1h-0.055zM0 759.866h1032.447v-226.2h-1032.447zM985.518 712.936h-938.588v-132.341h938.588zM516.224-85.333l-6.429 1.877c-112.734 33.415-193.7 135.741-194.428 257.089v158.237l200.623 61.571 204.847-58.38v-158.528c-0.895-123.213-83.518-226.886-196.307-259.559l-1.922-0.477zM362.295 297.142v-123.424c1.113-97.623 64.559-180.138 152.35-209.689l1.578-0.461c91.346 29.797 156.405 113.699 157.588 212.967l0.001 0.139v122.955l-157.448 44.865z" />
<glyph unicode="&#xe90d;" glyph-name="exclamation-document-thin" d="M757.295 159.962h-46.545v222.487h46.545zM757.295 26.842h-46.545v88.902h46.545zM734.022 494.623c160.151 0 289.978-129.828 289.978-289.978s-129.828-289.978-289.978-289.978c-160.151 0-289.978 129.828-289.978 289.978v0c0.185 160.076 129.902 289.793 289.961 289.978h0.017zM734.022-38.788c134.444 0 243.433 108.989 243.433 243.433s-108.989 243.433-243.433 243.433c-134.444 0-243.433-108.989-243.433-243.433v0c0.159-134.38 109.052-243.274 243.418-243.433h0.015zM378.88 3.569h-378.88v935.098h757.295v-378.88h-46.545v332.335h-664.204v-842.007h332.335zM600.902 714.318h-444.509v46.545h444.509zM600.902 536.514h-444.509v46.545h444.509zM378.88 359.176h-222.487v46.545h222.487zM378.88 181.372h-222.487v46.545h222.487z" />
<glyph unicode="&#xe90e;" glyph-name="exclamation-laptop-thin" horiz-adv-x="981" d="M107.484 172.451h265.143l42.369-44.599h151.415l42.369 44.599h264.92c59.331-0.076 107.408-48.153 107.484-107.477v-0.007c0-0.132 0.001-0.289 0.001-0.446 0-82.762-67.092-149.854-149.854-149.854 0 0-0.001 0-0.001 0h-681.477c0 0-0.001 0-0.001 0-82.762 0-149.854 67.092-149.854 149.854 0 0.188 0 0.376 0.001 0.564v-0.029c0.101 59.303 48.174 107.344 107.48 107.395h0.005zM353.449 127.852h-245.965c-34.71-0.051-62.834-28.175-62.885-62.88v-0.005c-0.001-0.132-0.001-0.289-0.001-0.446 0-58.13 47.124-105.254 105.254-105.254 0 0 0.001 0 0.001 0h681.477c0 0 0 0 0.001 0 58.13 0 105.254 47.124 105.254 105.254 0 0.125 0 0.251-0.001 0.376v-0.020c0 0 0 0 0 0 0 34.748-28.144 62.923-62.88 62.974h-245.97l-42.369-44.599h-189.547zM896 150.151h-44.599v468.293c-0.328 34.508-28.341 62.365-62.878 62.439h-85.192v44.599h85.185c59.155-0.125 107.105-47.919 107.484-107.002v-0.036zM129.784 150.151h-44.599v468.293c0.404 59.109 48.339 106.888 107.47 107.038h85.199v-44.599h-85.185c-34.544-0.074-62.557-27.931-62.885-62.408v-0.031zM512.892 618.444h-44.599v212.739h44.599zM512.892 490.444h-44.599v85.185h44.599zM490.592 938.667c153.454 0 277.854-124.399 277.854-277.854s-124.399-277.854-277.854-277.854c-153.454 0-277.854 124.399-277.854 277.854v0c0.178 153.383 124.471 277.676 277.837 277.854h0.017zM490.592 427.559c128.823 0 233.254 104.432 233.254 233.254s-104.432 233.254-233.254 233.254c-128.823 0-233.254-104.432-233.254-233.254v0c0.152-128.762 104.493-233.102 233.24-233.254h0.015z" />
<glyph unicode="&#xe90f;" glyph-name="exclamation-message-alert-thin" d="M378.88 270.274h-378.88v668.393h935.098v-378.88h-46.545v332.335h-842.007v-575.302h332.335zM757.295 159.962h-46.545v222.487h46.545zM757.295 26.842h-46.545v88.902h46.545zM734.022 494.623c160.151 0 289.978-129.828 289.978-289.978s-129.828-289.978-289.978-289.978c-160.151 0-289.978 129.828-289.978 289.978v0c0.185 160.076 129.902 289.793 289.961 289.978h0.017zM734.022-38.788c134.444 0 243.433 108.989 243.433 243.433s-108.989 243.433-243.433 243.433c-134.444 0-243.433-108.989-243.433-243.433v0c0.159-134.38 109.052-243.274 243.418-243.433h0.015zM467.316 529.998l-458.612 367.244 29.091 36.352 429.521-344.017 429.94 343.971 29.091-36.352z" />
<glyph unicode="&#xe910;" glyph-name="exclamation-mobile-thin" horiz-adv-x="1022" d="M557.65-85.333h-445.73c-61.563 0.494-111.347 50.229-111.92 111.726v798.032c0.494 61.563 50.229 111.347 111.726 111.92h445.553c61.563-0.494 111.347-50.229 111.92-111.726v-46.495h-46.44v46.44c-0.441 35.957-29.512 64.979-65.446 65.341h-445.394c-36.065-0.365-65.194-29.543-65.48-65.592v-797.725c0.365-36.065 29.543-65.194 65.592-65.48h444.875c35.305 1.21 63.472 30.093 63.53 65.567v44.031h46.44v-44.118c-0.027-60.732-48.383-110.161-108.693-111.916l-0.162-0.004zM422.603 845.787h-179.026c-36.944 1.907-66.177 32.326-66.177 69.573 0 0.031 0 0.061 0 0.092v-0.005 23.22h312.541v-23.22c0-0.017 0-0.036 0-0.056 0-37.492-29.619-68.066-66.735-69.6l-0.139-0.005zM245.435 892.227v0zM378.021 47.485h-88.7v46.44h88.7zM755.577 381.388h-46.44v221.518h46.44zM755.577 248.106h-46.44v88.7h46.44zM732.357 714.827c159.787 0 289.321-129.533 289.321-289.321s-129.533-289.321-289.321-289.321c-159.787 0-289.321 129.533-289.321 289.321v0c0.185 159.713 129.608 289.136 289.303 289.321h0.017zM732.357 182.625c134.139 0 242.881 108.741 242.881 242.881s-108.741 242.881-242.881 242.881c-134.139 0-242.881-108.741-242.881-242.881v0c0.158-134.076 108.805-242.722 242.866-242.881h0.015z" />
<glyph unicode="&#xe911;" glyph-name="exclamation-monitor-thin" d="M111.709 92.471c-0.001 0-0.001 0-0.002 0-61.695 0-111.709 50.014-111.709 111.709 0 0.213 0.001 0.425 0.002 0.638v-0.033 443.904c-0.001 0.139-0.001 0.303-0.001 0.467 0 61.695 50.014 111.709 111.709 111.709 0.213 0 0.426-0.001 0.639-0.002h46.512v-46.545h-46.545c-0.18 0.002-0.393 0.003-0.606 0.003-35.989 0-65.164-29.175-65.164-65.164 0-0.116 0-0.231 0.001-0.346v0.018-444.183c-0.001-0.139-0.002-0.302-0.002-0.466 0-35.989 29.175-65.164 65.164-65.164 0.115 0 0.23 0 0.345 0.001h799.773c0.139-0.001 0.302-0.002 0.466-0.002 35.989 0 65.164 29.175 65.164 65.164 0 0.115 0 0.23-0.001 0.345v-0.018 444.183c0.001 0.139 0.002 0.302 0.002 0.466 0 35.989-29.175 65.164-65.164 65.164-0.115 0-0.23 0-0.345-0.001h-44.34v46.545h44.218c0.139 0.001 0.303 0.001 0.467 0.001 61.695 0 111.709-50.014 111.709-111.709 0-0.213-0.001-0.426-0.002-0.639v0.033-443.904c0.001-0.139 0.001-0.303 0.001-0.467 0-61.695-50.014-111.709-111.709-111.709-0.213 0-0.426 0.001-0.639 0.002h-799.944zM535.273-62.060h-46.545v177.804h46.545zM734.022-85.333h-444.044v46.545h444.044zM535.273 604.471h-46.545v222.022h46.545zM535.273 470.885h-46.545v88.902h46.545zM512 938.667c160.151 0 289.978-129.828 289.978-289.978s-129.828-289.978-289.978-289.978c-160.151 0-289.978 129.828-289.978 289.978v0c0.185 160.076 129.902 289.793 289.961 289.978h0.017zM512 405.256c134.444 0 243.433 108.989 243.433 243.433s-108.989 243.433-243.433 243.433c-134.444 0-243.433-108.989-243.433-243.433v0c0.159-134.38 109.052-243.274 243.418-243.433h0.015z" />
<glyph unicode="&#xe912;" glyph-name="exclamation-triangle-thin" d="M511.721 845.576h0.559c0.074 0 0.161 0 0.249 0 36.693 0 68.878-19.299 86.959-48.301l0.251-0.433 409.088-656.291c8.902-13.919 14.189-30.895 14.189-49.105 0-50.847-41.22-92.067-92.067-92.067-0.014 0-0.028 0-0.041 0h-838.747c-0.081 0-0.176 0-0.272 0-25.146 0-47.926 10.133-64.479 26.538l0.007-0.007c-16.94 16.699-27.434 39.897-27.434 65.547 0 18.285 5.333 35.324 14.528 49.647l-0.22-0.366 409.972 656.291c18.352 29.329 50.48 48.548 87.096 48.548 0.128 0 0.255 0 0.383-0.001h-0.020zM512.186 799.031h-0.465c-0.081 0-0.176 0.001-0.271 0.001-20.051 0-37.635-10.566-47.487-26.433l-0.138-0.238-410.112-656.291c-4.512-6.95-7.195-15.45-7.195-24.576 0-25.167 20.401-45.568 45.568-45.568 0.026 0 0.052 0 0.078 0h838.745c0.013 0 0.029 0 0.045 0 25.141 0 45.521 20.381 45.521 45.521 0 9.011-2.618 17.411-7.136 24.48l0.109-0.183-409.228 656.291c-9.979 16.158-27.592 26.764-47.681 26.764-0.092 0-0.183 0-0.275-0.001h0.014zM535.273 289.358h-46.545v310.924h46.545zM535.273 155.772h-46.545v88.902h46.545z" />
<glyph unicode="&#xe913;" glyph-name="exclamation-usb-stick-thin" d="M292.026-85.892c-0.014 0-0.030 0-0.047 0-135.55 0-245.434 109.885-245.434 245.434 0 0.164 0 0.327 0 0.491v-0.025 512h491.055v-269.498h-46.545v222.906h-397.964v-465.455c-0.001-0.185-0.001-0.405-0.001-0.625 0-109.766 88.983-198.749 198.749-198.749 70.857 0 133.054 37.080 168.245 92.894l0.483 0.821 39.517-24.576c-44.042-69.848-120.708-115.618-208.077-115.805h-0.028zM91.229 938.667h402.153v-313.251h-402.153zM446.836 892.122h-309.062v-220.16h309.062zM715.404 159.962h-46.545v222.487h46.545zM715.404 26.842h-46.545v88.902h46.545zM692.131 494.623c160.151 0 289.978-129.828 289.978-289.978s-129.828-289.978-289.978-289.978c-160.151 0-289.978 129.828-289.978 289.978v0c0.185 160.076 129.902 289.793 289.961 289.978h0.017zM692.131-38.788c134.444 0 243.433 108.989 243.433 243.433s-108.989 243.433-243.433 243.433c-134.444 0-243.433-108.989-243.433-243.433v0c0.159-134.38 109.052-243.274 243.418-243.433h0.015zM381.207 447.612h-177.804v46.545h177.804z" />
<glyph unicode="&#xe914;" glyph-name="fingerprint-thin" d="M46.545 648.689h-46.545v289.978h289.978v-46.545h-243.433zM1024 648.689h-46.545v243.433h-243.433v46.545h289.978zM289.978-85.333h-289.978v289.978h46.545v-243.433h243.433zM1024-85.333h-289.978v46.545h243.433v243.433h46.545zM535.273 293.547h-46.545v222.022h46.545zM380.276 253.471c-15.468 23.57-24.672 52.455-24.672 83.49 0 0.332 0.001 0.664 0.003 0.995v-0.051 132.98c0 86.373 70.019 156.393 156.393 156.393s156.393-70.019 156.393-156.393v0h-46.545c0 60.667-49.18 109.847-109.847 109.847s-109.847-49.18-109.847-109.847v-133.12c-0.002-0.223-0.003-0.486-0.003-0.749 0-21.676 6.426-41.852 17.476-58.726l-0.251 0.409zM509.999 181.372c-0.013 0-0.028 0-0.043 0-16.781 0-32.898 2.846-47.893 8.083l1.018-0.31 14.988 44.079c9.5-3.343 20.454-5.274 31.86-5.274 0.598 0 1.194 0.005 1.789 0.016l-0.089-0.001h0.372c0.153-0.001 0.335-0.001 0.517-0.001 59.232 0 107.467 47.081 109.326 105.861l0.004 0.171v46.127h46.545v-47.29c-2.742-84.224-71.677-151.459-156.315-151.459-0.027 0-0.055 0-0.082 0h0.004zM268.567 380.122h-46.545v88.436c0 0.15 0 0.328 0 0.505 0 44.352 10.095 86.346 28.113 123.811l-0.743-1.715 41.891-19.921c-14.454-29.91-22.9-65.045-22.9-102.153 0-0.087 0-0.173 0-0.26v0.013zM511.721 45.506c-0.012 0-0.027 0-0.042 0-143.804 0-263.041 105.184-284.973 242.813l-0.216 1.644 45.987 7.168c18.732-116.901 118.864-205.144 239.607-205.144 74.027 0 140.307 33.17 184.788 85.458l0.286 0.344 35.514-30.068c-53.497-62.708-132.593-102.214-220.915-102.214-0.013 0-0.026 0-0.038 0h0.002zM782.243 232.014l-43.334 16.943c10.488 26.006 16.572 56.162 16.572 87.739 0 0.343-0.001 0.687-0.002 1.030v-0.053 133.213h46.545v-133.12c0.001-0.319 0.002-0.697 0.002-1.075 0-37.674-7.264-73.652-20.467-106.609l0.683 1.932zM683.939 640.776c-44.017 44.709-105.197 72.41-172.847 72.41s-128.83-27.701-172.816-72.379l-0.030-0.031-33.187 32.582c52.466 53.297 125.393 86.32 206.033 86.32s153.567-33.022 205.997-86.282l0.037-0.037z" />
<glyph unicode="&#xe915;" glyph-name="firewall-thin" d="M20.48 339.672h343.263v-215.040h-343.263zM319.221 295.15h-254.219v-125.997h254.219zM660.257 339.672h343.263v-215.040h-343.263zM958.998 295.15h-254.219v-125.997h254.219zM319.221 339.672h386.003v-215.040h-386.003zM660.703 295.15h-296.96v-125.997h296.96zM489.739 169.153h343.263v-215.040h-343.263zM788.48 124.632h-254.219v-125.997h254.219zM190.998 169.153h343.263v-215.040h-343.263zM489.739 124.632h-254.219v-125.997h254.219zM235.52-45.887h-235.52v44.522h190.998v125.997h-148.257v44.522h192.779zM1024-45.887h-235.52v215.040h192.779v-44.522h-148.257v-125.997h190.998zM512 295.595c-129.972 0.253-235.267 105.548-235.52 235.496v0.024c0 53.693 37.398 130.404 111.304 227.996 36.181 47.498 71.641 89.338 109.097 129.284l-0.82-0.883 27.559 28.895 47.816-183.118 75.464 35.885 10.374-17.363c61.529-103.246 90.246-173.368 90.246-220.694-0.253-129.972-105.548-235.267-235.496-235.52h-0.024zM500.781 827.006c-67.45-75.999-179.779-218.691-179.779-295.891 0-105.485 85.513-190.998 190.998-190.998s190.998 85.513 190.998 190.998v0c0 49.508-47.549 135.658-73.773 180.447l-87.441-41.583zM512 294.259c-59.474 0.076-107.667 48.269-107.743 107.735v0.007c0 54.049 76.978 129.736 92.427 144.384l15.315 14.425 15.315-14.336c15.449-14.47 92.516-89.533 92.516-144.473-0.076-59.505-48.319-107.717-107.829-107.743h-0.002zM512 498.837c-28.616-25.628-50.428-58.282-62.768-95.268l-0.453-1.567c0-34.916 28.305-63.221 63.221-63.221s63.221 28.305 63.221 63.221v0c-12.6 38.626-34.45 71.323-62.995 96.638l-0.226 0.197z" />
<glyph unicode="&#xe916;" glyph-name="fish-hook-thin" d="M522.705 938.667c61.952 0 112.175-50.222 112.175-112.175s-50.222-112.175-112.175-112.175c-61.952 0-112.175 50.222-112.175 112.175v0c0.079 61.92 50.254 112.095 112.167 112.175h0.008zM522.705 760.863c36.246 0 65.629 29.383 65.629 65.629s-29.383 65.629-65.629 65.629c-36.246 0-65.629-29.383-65.629-65.629v0c0.053-36.225 29.404-65.576 65.624-65.629h0.005zM522.705-85.333c-0.028 0-0.060 0-0.093 0-160.099 0-289.885 129.786-289.885 289.885 0 0.033 0 0.065 0 0.098v-0.005h46.545c0-0.062 0-0.135 0-0.209 0-134.444 108.989-243.433 243.433-243.433s243.433 108.989 243.433 243.433c0 78.298-36.966 147.963-94.397 192.493l-0.555 0.414c-102.496 75.478-168.993 194.698-171.746 329.573l-0.007 0.434v10.24h46.545v-9.542c2.879-120.191 61.964-226.007 151.884-292.517l1.018-0.719 0.465-0.326c69.164-53.526 113.263-136.557 113.263-229.888 0-160.115-129.791-289.915-289.902-289.932h-0.001zM373.155 188.168l-93.882 93.556v-77.079h-46.545v189.161l173.289-172.684z" />
<glyph unicode="&#xe917;" glyph-name="folder-padlock-thin" d="M111.709 3.569c-0.001 0-0.001 0-0.002 0-61.695 0-111.709 50.014-111.709 111.709 0 0.213 0.001 0.425 0.002 0.638v-0.033 822.784h395.636l44.218-133.12h584.145v-689.804c0.001-0.139 0.001-0.303 0.001-0.467 0-61.695-50.014-111.709-111.709-111.709-0.213 0-0.426 0.001-0.639 0.002h-221.849v46.545h222.022c0.139-0.001 0.302-0.002 0.466-0.002 35.989 0 65.164 29.175 65.164 65.164 0 0.115 0 0.23-0.001 0.345v-0.018 643.398h-571.159l-44.218 133.12h-315.532v-776.378c-0.001-0.139-0.002-0.302-0.002-0.466 0-35.989 29.175-65.164 65.164-65.164 0.115 0 0.23 0 0.345 0.001h222.143v-46.545h-222.487zM310.924 227.918h402.153v-313.251h-402.153zM666.531 181.372h-309.062v-220.16h309.062zM512 449.94c61.92-0.079 112.095-50.254 112.175-112.167v-156.401h-224.349v156.393c0.079 61.92 50.254 112.095 112.167 112.175h0.008zM577.629 227.918v109.847c0 36.246-29.383 65.629-65.629 65.629s-65.629-29.383-65.629-65.629v0-109.847zM1000.727 581.198h-977.455v46.545h977.455z" />
<glyph unicode="&#xe918;" glyph-name="folder-share-network-thin" d="M147.367 916.406h333.379l42.741-85.037h348.694v-597.037h-724.814zM453.32 871.884h-261.432v-593.030h635.77v507.993h-331.598zM849.92 616.775h-680.292v44.522h680.292zM509.774 151.523c59.259 0 107.297-48.039 107.297-107.297s-48.039-107.297-107.297-107.297c-59.259 0-107.297 48.039-107.297 107.297v0c0.076 59.228 48.069 107.221 107.29 107.297h0.007zM509.774-18.55c34.67 0 62.776 28.106 62.776 62.776s-28.106 62.776-62.776 62.776c-34.67 0-62.776-28.106-62.776-62.776v0c0.051-34.65 28.126-62.725 62.771-62.776h0.005zM424.737 21.964h-424.737v44.522h424.737zM1019.548 21.964h-424.737v44.522h424.737zM532.035 129.262h-44.522v127.332h44.522zM382.442 446.702h-85.037v44.522h85.037zM552.070 446.702h-84.591v44.522h84.591zM722.143 446.702h-85.037v44.522h85.037z" />
<glyph unicode="&#xe919;" glyph-name="folder-share-padlock-thin" d="M637.106 234.333h-489.739v682.073h333.379l42.741-85.037h348.694v-192.334h-44.522v147.812h-331.598l-42.741 85.037h-261.432v-593.030h445.217zM509.774 151.523c59.259 0 107.297-48.039 107.297-107.297s-48.039-107.297-107.297-107.297c-59.259 0-107.297 48.039-107.297 107.297v0c0.076 59.228 48.069 107.221 107.29 107.297h0.007zM509.774-18.55c34.67 0 62.776 28.106 62.776 62.776s-28.106 62.776-62.776 62.776c-34.67 0-62.776-28.106-62.776-62.776v0c0.051-34.65 28.126-62.725 62.771-62.776h0.005zM424.737 21.964h-424.737v44.522h424.737zM1019.548 21.964h-424.737v44.522h424.737zM532.035 129.262h-44.522v127.332h44.522zM699.882 406.632h299.631v-214.595h-299.631zM954.991 362.11h-210.588v-125.551h210.588zM849.875 576.26v0c0.011 0 0.024 0 0.037 0 58.272 0 105.695-46.453 107.258-104.348l0.003-0.145v-111.883h-214.55v111.883c1.565 58.037 48.984 104.488 107.252 104.493v0zM912.696 470.877c-0.821 33.787-28.405 60.863-62.313 60.863-0.147 0-0.294-0.001-0.441-0.002h0.023c-0.124 0.001-0.271 0.001-0.418 0.001-33.908 0-61.492-27.076-62.312-60.787l-0.001-0.076v-66.471h125.551zM679.847 616.775h-510.219v44.522h510.219z" />
<glyph unicode="&#xe91a;" glyph-name="global-padlock-thin" d="M192.419 51.836l-32.023 33.792c52.826 50.015 116.721 88.92 187.58 112.625l3.582 1.039c47.799 16.634 102.894 26.242 160.234 26.242 32.995 0 65.248-3.181 96.467-9.254l-3.168 0.513-8.657-45.708c-25.475 5.054-54.763 7.946-84.727 7.946-52.081 0-102.122-8.737-148.736-24.826l3.203 0.961h-0.279c-67.563-22.511-125.546-57.877-173.681-103.524l0.206 0.193zM512.605 625.416h-1.257c-0.241 0-0.526-0.001-0.812-0.001-135.83 0-259.207 53.314-350.347 140.158l0.206-0.195 32.023 33.652c82.634-78.671 194.714-127.071 318.099-127.071 0.521 0 1.042 0.001 1.562 0.003h-0.080c0.44-0.002 0.961-0.002 1.483-0.002 123.384 0 235.464 48.401 318.289 127.251l-0.19-0.18 32.023-33.792c-90.931-86.566-214.262-139.823-350.032-139.823-0.34 0-0.68 0-1.020 0.001h0.053zM512-85.333c-27.927 0-69.446 13.452-109.242 77.498-30.51 52.631-53.678 113.832-66.074 178.854l-0.579 3.651c-16.025 73.57-25.203 158.081-25.203 244.737 0 2.553 0.008 5.103 0.024 7.652l-0.002-0.392c-0.106 5.619-0.166 12.246-0.166 18.887 0 119.739 19.633 234.892 55.856 342.416l-2.209-7.558c37.19 101.981 89.6 158.255 147.596 158.255s110.406-56.273 147.596-158.255c34.013-99.981 53.646-215.152 53.646-334.908 0-6.624-0.060-13.234-0.18-19.829l0.014 0.991h-46.545c0 274.292-81.455 465.455-154.531 465.455s-154.531-191.162-154.531-465.455c-0.014-2.126-0.022-4.642-0.022-7.159 0-83.296 8.823-164.531 25.584-242.822l-1.358 7.573c28.3-133.399 80.663-223.046 130.327-223.046zM710.749 139.016h313.251v-224.349h-313.251zM977.455 92.471h-220.16v-131.258h220.16zM867.607 316.82c61.92-0.079 112.095-50.254 112.175-112.167v-112.183h-224.349v112.175c0.079 61.92 50.254 112.095 112.167 112.175h0.008zM933.236 139.016v65.629c0 36.246-29.383 65.629-65.629 65.629s-65.629-29.383-65.629-65.629v0-65.629zM512-85.333c-282.763 0.009-511.984 229.236-511.984 512 0 141.381 57.304 269.378 149.953 362.031v0c92.653 92.649 220.65 149.953 362.031 149.953 282.764 0 511.991-229.221 512-511.983v-23.274h-976.896c13.024-246.734 216.123-441.902 464.868-442.182h0.028c29.997 0.037 59.328 2.779 87.794 7.995l-2.988-0.455 8.192-45.801c-27.938-5.228-60.101-8.241-92.959-8.285h-0.038zM47.104 449.94h929.792c-12.736 246.855-215.993 442.189-464.873 442.189s-452.137-195.334-464.826-441.057l-0.047-1.132z" />
<glyph unicode="&#xe91b;" glyph-name="incognito-thin" d="M1024 443.585h-1024v44.522h1024zM878.236 445.366h-732.472l32.323 305.998c7.659 68.085 64.912 120.521 134.412 120.521 0.078 0 0.156 0 0.234 0h2.348c21.885-0.025 42.523-5.338 60.714-14.729l-0.743 0.349c39.943-20.161 87.057-31.993 136.928-32.056h0.021c49.892 0.063 97.005 11.895 138.733 32.868l-1.784-0.813c17.448 9.043 38.086 14.355 59.963 14.381h0.008c0.71 0.013 1.547 0.021 2.386 0.021 69.388 0 126.565-52.285 134.282-119.606l0.058-0.624zM195.272 489.888h633.455l-27.336 256.757c-5.186 45.618-43.564 80.732-90.142 80.732-0.569 0-1.136-0.005-1.702-0.016l0.085 0.001h-0.579c-0.029 0-0.064 0-0.098 0-14.585 0-28.344-3.538-40.464-9.804l0.493 0.232h-0.223c-45.709-23.137-99.632-36.739-156.72-36.864h-0.041c-57.129 0.072-111.074 13.63-158.846 37.66l2.040-0.93h-0.223c-11.617 6.034-25.365 9.572-39.94 9.572-0.046 0-0.091 0-0.137 0h-0.527c-0.483 0.009-1.052 0.015-1.622 0.015-46.563 0-84.93-35.091-90.099-80.27l-0.039-0.418zM277.37 317.144c94.666 0 171.409-76.742 171.409-171.409s-76.742-171.409-171.409-171.409c-94.666 0-171.409 76.742-171.409 171.409v0c0.101 94.626 76.783 171.307 171.399 171.409h0.010zM277.37 18.848c70.078 0 126.887 56.809 126.887 126.887s-56.809 126.887-126.887 126.887c-70.078 0-126.887-56.809-126.887-126.887v0c0.076-70.047 56.84-126.811 126.88-126.887h0.007zM746.63 317.144c94.666 0 171.409-76.742 171.409-171.409s-76.742-171.409-171.409-171.409c-94.666 0-171.409 76.742-171.409 171.409v0c0.101 94.626 76.783 171.307 171.399 171.409h0.010zM746.63 18.848c70.078 0 126.887 56.809 126.887 126.887s-56.809 126.887-126.887 126.887c-70.078 0-126.887-56.809-126.887-126.887v0c0.076-70.047 56.84-126.811 126.88-126.887h0.007zM619.743 124.364h-44.522c0 34.916-28.305 63.221-63.221 63.221s-63.221-28.305-63.221-63.221v0h-44.522c0 59.505 48.238 107.743 107.743 107.743s107.743-48.238 107.743-107.743v0zM170.518 230.326h-127.777v44.522h127.777zM981.259 230.326h-127.777v44.522h127.777z" />
<glyph unicode="&#xe91c;" glyph-name="incognito-window-thin" d="M0 938.667h1024v-313.251h-1024zM977.455 892.122h-930.909v-220.16h930.909zM0 671.962h1024v-757.295h-1024zM977.455 625.416h-930.909v-664.204h930.909zM245.295 759.002h-88.902v46.545h88.902zM423.098 759.002h-88.902v46.545h88.902zM718.243 270.274h-412.486l54.086 268.567h68.748l83.409-41.519 83.456 41.519h68.748zM362.636 316.82h298.775l-35.328 175.476h-19.689l-94.394-47.011-94.348 47.011h-19.735zM822.924 270.274h-621.847v46.545h621.847zM378.88 183.234c37.274 0 67.491-30.217 67.491-67.491s-30.217-67.491-67.491-67.491c-37.274 0-67.491 30.217-67.491 67.491v0c0.053 37.253 30.238 67.438 67.486 67.491h0.005zM378.88 94.798c11.568 0 20.945 9.378 20.945 20.945s-9.378 20.945-20.945 20.945c-11.568 0-20.945-9.378-20.945-20.945v0c0.026-11.557 9.388-20.919 20.943-20.945h0.003zM645.12 183.234c37.274 0 67.491-30.217 67.491-67.491s-30.217-67.491-67.491-67.491c-37.274 0-67.491 30.217-67.491 67.491v0c0.053 37.253 30.238 67.438 67.486 67.491h0.005zM645.12 94.798c11.568 0 20.945 9.378 20.945 20.945s-9.378 20.945-20.945 20.945c-11.568 0-20.945-9.378-20.945-20.945v0c0.026-11.557 9.388-20.919 20.943-20.945h0.003zM600.902 92.471h-177.804v46.545h177.804z" />
<glyph unicode="&#xe91d;" glyph-name="key-monitor-thin" d="M112.175 892.122h799.651c61.92-0.079 112.095-50.254 112.175-112.167v-533.419c-0.079-61.92-50.254-112.095-112.167-112.175h-799.659c-61.92 0.079-112.095 50.254-112.175 112.167v533.419c0.079 61.92 50.254 112.095 112.167 112.175h0.008zM911.825 180.907c36.225 0.053 65.576 29.404 65.629 65.624v533.416c-0.053 36.225-29.404 65.576-65.624 65.629h-799.656c-36.225-0.053-65.576-29.404-65.629-65.624v-533.416c0.053-36.225 29.404-65.576 65.624-65.629h0.005zM535.273-20.169h-46.545v177.804h46.545zM734.022-43.442h-444.044v46.545h444.044zM586.193 714.318h152.017c86.588-0.106 156.752-70.27 156.858-156.848v-88.912c-0.448-86.356-70.465-156.209-156.841-156.393h-147.102l-46.545 88.902h-308.922l-112.175 112.175 112.175 112.175h308.177zM738.211 358.711c60.751 0.105 109.996 49.219 110.313 109.91v88.839c-0.079 60.892-49.421 110.233-110.305 110.313h-122.609l-42.356-88.902h-318.324l-65.629-65.629 65.629-65.629h317.58l46.545-88.902zM402.153 424.34h-46.545v88.902h46.545zM757.295 468.558h-46.545v88.902h46.545z" />
<glyph unicode="&#xe91e;" glyph-name="keys-thin" horiz-adv-x="1031" d="M529.282 446.561h-239.056c-86.582 0.499-156.642 70.527-157.194 157.048v178.331c0.449 86.541 70.616 156.544 157.176 156.728h239.074l46.645-133.405h399.049l55.974-112.415-55.974-112.415h-399.049zM290.226 892.022c-60.881-0.105-110.232-49.324-110.549-110.146v-178.121c0.42-60.917 49.717-110.181 110.607-110.549h205.88l46.645 133.871h403.247l32.652 65.77-32.652 65.77h-403.247l-46.645 133.405zM357.861 603.755h-46.645v178.184h46.645zM847.635 692.847h-46.645v89.092h46.645zM714.23 692.847h-46.645v89.092h46.645zM776.128-85.333l-281.55 281.083-126.082-68.708-167.643 170.208c-28.294 28.393-45.788 67.564-45.788 110.822 0 39.652 14.699 75.87 38.944 103.504l-0.153-0.178 35.077-30.739c-16.91-19.286-27.227-44.721-27.227-72.565 0-30.417 12.31-57.958 32.22-77.914l-0.002 0.002 143.154-145.3 125.942 68.475 285.655-285.188 68.568 23.323 22.623 68.615-281.69 281.503 63.018 125.942-118.385 119.785 33.165 32.652 141.988-143.107-62.924-125.942 278.145-278.145-38.949-117.965zM359.867 360.081l-32.885 33.071 93.757 93.29 32.885-33.071zM768.991 76.665l-33.025 32.652 63.157 63.157 32.652-33.025zM674.768 171.355l-33.025 32.652 63.157 63.157 32.652-33.025zM178.418 359.008c-101.215 11.589-179.1 96.765-179.1 200.132 0 111.212 90.155 201.367 201.367 201.367 60.238 0 114.298-26.45 151.2-68.37l0.192-0.223-35.264-30.786c-28.443 32.1-69.772 52.232-115.803 52.232-85.322 0-154.489-69.167-154.489-154.489 0-79.169 59.551-144.429 136.302-153.429l0.724-0.069z" />
<glyph unicode="&#xe91f;" glyph-name="magnifying-glass-bug-thin" d="M642.589 938.667c210.648 0 381.411-170.764 381.411-381.411s-170.764-381.411-381.411-381.411c-210.648 0-381.411 170.764-381.411 381.411v0c0.24 210.551 170.86 381.171 381.388 381.411h0.023zM642.589 222.701c184.769 0 334.555 149.785 334.555 334.555s-149.785 334.555-334.555 334.555c-184.769 0-334.555-149.785-334.555-334.555v0c0.213-184.684 149.871-334.342 334.534-334.555h0.021zM33.174-85.333l-33.127 33.127 380.005 380.005 33.127-33.127zM642.589 715.162c62.334-0.080 112.844-50.59 112.924-112.916v-134.017c0-62.366-50.558-112.924-112.924-112.924s-112.924 50.558-112.924 112.924v0 134.009c0.080 62.334 50.59 112.844 112.916 112.924h0.008zM642.589 402.161c36.467 0.053 66.014 29.601 66.068 66.062v134.014c0 36.488-29.579 66.068-66.068 66.068s-66.068-29.579-66.068-66.068v0-134.009c0.053-36.467 29.601-66.014 66.062-66.068h0.005zM553.093 578.81h-89.027v46.856h89.027zM821.58 578.81h-89.496v46.856h89.496zM553.093 399.818h-89.027v46.856h89.027zM821.58 399.818h-89.496v46.856h89.496zM577.13 681.191l-44.982 89.496 41.89 21.085 44.982-89.496zM708.563 681.285l-42.171 20.851 44.607 89.543 42.171-20.851z" />
<glyph unicode="&#xe920;" glyph-name="mobile-message-thin" horiz-adv-x="1022" d="M557.65-85.333h-445.73c-61.563 0.494-111.347 50.229-111.92 111.726v798.032c0.494 61.563 50.229 111.347 111.726 111.92h445.553c61.563-0.494 111.347-50.229 111.92-111.726v-133.012h-46.44v132.818c-0.364 36.017-29.464 65.117-65.446 65.48h-445.394c-36.065-0.365-65.194-29.543-65.48-65.592v-797.725c0.365-36.065 29.543-65.194 65.592-65.48h444.875c35.305 1.21 63.472 30.093 63.53 65.567v221.431h46.44v-221.518c-0.027-60.732-48.383-110.161-108.693-111.916l-0.162-0.004zM422.603 845.787h-179.026c-36.944 1.907-66.177 32.326-66.177 69.573 0 0.031 0 0.061 0 0.092v-0.005 23.22h312.541v-23.22c0-0.017 0-0.036 0-0.056 0-37.492-29.619-68.066-66.735-69.6l-0.139-0.005zM245.435 892.227v0zM378.021 47.485h-88.7v46.44h88.7zM776.986 224.886h-531.458l109.273 161.286v83.592c0 0.138 0 0.301 0 0.464 0 135.165 109.573 244.738 244.738 244.738 0 0 0 0 0 0h177.4c135.293 0 244.971-109.677 244.971-244.971s-109.677-244.971-244.971-244.971v0zM333.113 271.326h443.78c109.645 0 198.531 88.885 198.531 198.531s-88.885 198.531-198.531 198.531v0h-177.354c0 0 0 0 0 0-109.517 0-198.298-88.781-198.298-198.298 0-0.147 0-0.294 0-0.441v0.023-97.524zM599.539 446.404h-88.7v46.44h88.7zM732.357 446.404h-88.7v46.44h88.7zM865.64 446.404h-88.7v46.44h88.7z" />
<glyph unicode="&#xe921;" glyph-name="money-mobile-shield-thin" d="M557.279-85.333h-445.359c-61.563 0.494-111.347 50.229-111.92 111.726v798.032c0.494 61.563 50.229 111.347 111.726 111.92h445.553c61.563-0.494 111.347-50.229 111.92-111.726v-266.295h-46.44v266.101c-0.364 36.017-29.464 65.117-65.446 65.48h-445.394c-36.065-0.365-65.194-29.543-65.48-65.592v-797.725c0.365-36.065 29.543-65.194 65.592-65.48h445.246zM422.603 845.787h-179.026c-36.944 1.907-66.177 32.326-66.177 69.573 0 0.031 0 0.061 0 0.092v-0.005 23.22h312.541v-23.22c0-0.017 0-0.036 0-0.056 0-37.492-29.619-68.066-66.735-69.6l-0.139-0.005zM245.435 892.227v0zM780.562-84.404h-9.288l-3.297 0.975c-136.171 41.981-233.492 166.512-233.918 313.838v193.054l242.834 70.31 247.107-70.217v-191.704c-0.268-149.721-100.851-275.877-238.108-314.859l-2.311-0.561zM580.499 388.354v-157.896c0-0.078 0-0.17 0-0.262 0-124.686 81.287-230.386 193.759-266.997l1.986-0.559c117.057 35.878 200.797 142.766 201.317 269.291v156.424l-200.574 57.121zM355.73 269.468h-155.109v46.44h155.109c23.853 0 43.189 19.336 43.189 43.189s-19.336 43.189-43.189 43.189h-46.44c-49.043 0.603-88.567 40.5-88.567 89.629 0 49.504 40.131 89.635 89.635 89.635 0.376 0 0.751-0.002 1.125-0.007l-0.057 0.001h155.295v-46.44h-156.224c-0.36 0.011-0.783 0.017-1.207 0.017-23.853 0-43.189-19.336-43.189-43.189 0-0.006 0-0.012 0-0.018v0.001c0-23.853 19.336-43.189 43.189-43.189v0h46.44c49.501 0 89.629-40.128 89.629-89.629s-40.128-89.629-89.629-89.629v0zM356.659 558.324h-46.44v133.283h46.44zM356.659 159.405h-46.44v177.4h46.44z" />
<glyph unicode="&#xe922;" glyph-name="money-padlock-thin" d="M1024 92.471h-846.196v490.589h112.175v-46.545h-65.629v-397.498h753.105v397.498h-243.433v46.545h289.978zM846.196-85.333h-846.196v490.589h201.076v-46.545h-154.531v-397.498h753.105v154.531h46.545zM600.902 449.94c61.952 0 112.175-50.222 112.175-112.175s-50.222-112.175-112.175-112.175c-61.952 0-112.175 50.222-112.175 112.175v0c0.079 61.92 50.254 112.095 112.167 112.175h0.008zM600.902 272.136c36.246 0 65.629 29.383 65.629 65.629s-29.383 65.629-65.629 65.629c-36.246 0-65.629-29.383-65.629-65.629v0c0.053-36.225 29.404-65.576 65.624-65.629h0.005zM378.88 314.492h-88.902v46.545h88.902zM911.825 314.492h-88.902v46.545h88.902zM355.607 760.863h313.251v-224.349h-313.251zM622.313 714.318h-220.16v-131.258h220.16zM512 938.667c61.92-0.079 112.095-50.254 112.175-112.167v-112.183h-224.349v112.175c0.079 61.92 50.254 112.095 112.167 112.175h0.008zM577.629 760.863v65.629c0 36.246-29.383 65.629-65.629 65.629s-65.629-29.383-65.629-65.629v0-65.629z" />
<glyph unicode="&#xe923;" glyph-name="padlock-dots-thin" d="M46.545 494.158h935.098v-579.491h-935.098zM935.098 447.612h-842.007v-486.4h842.007zM514.327 938.667c184.486-0.212 333.984-149.71 334.196-334.176v-154.552h-668.393v154.531c0.212 184.486 149.71 333.984 334.176 334.196h0.021zM801.978 496.485v107.985c0 158.865-128.786 287.651-287.651 287.651s-287.651-128.786-287.651-287.651v0-107.985zM470.109 181.372h-88.902v46.545h88.902zM292.305 181.372h-88.902v46.545h88.902zM647.447 181.372h-88.902v46.545h88.902zM825.251 181.372h-88.902v46.545h88.902z" />
<glyph unicode="&#xe924;" glyph-name="padlock-laptop-thin" d="M111.709 183.234h276.806l44.218-44.218h158.394l44.218 44.218h276.945c0.173 0.001 0.377 0.002 0.581 0.002 30.683 0 58.457-12.453 78.544-32.581l0.002-0.002c20.138-20.307 32.583-48.271 32.583-79.142 0-0.159 0-0.317-0.001-0.476v0.025c-0.079-86.341-70.051-156.313-156.385-156.393h-711.222c-86.331 0.106-156.287 70.062-156.393 156.383v0.010c0 0.098 0 0.214 0 0.331 0 30.864 12.445 58.822 32.59 79.13l-0.007-0.007c20.102 20.213 47.933 32.722 78.685 32.722 0.156 0 0.311 0 0.467-0.001h-0.024zM369.245 136.689h-257.536c-0.053 0-0.116 0-0.178 0-17.939 0-34.173-7.295-45.899-19.081l-0.003-0.003c-11.794-11.856-19.084-28.201-19.084-46.249 0-0.104 0-0.208 0.001-0.312v0.016c0.079-60.635 49.212-109.768 109.84-109.847h711.223c60.635 0.079 109.768 49.212 109.847 109.84v0.008c0 0.082 0.001 0.18 0.001 0.277 0 18.054-7.29 34.406-19.087 46.271l0.003-0.003c-11.728 11.788-27.963 19.084-45.902 19.084-0.063 0-0.125 0-0.188 0h-257.526l-44.218-44.218h-197.073zM935.098 159.962h-46.545v488.727c-0.366 36.147-29.61 65.343-65.741 65.629h-88.789v46.545h88.902c61.703-0.495 111.6-50.343 112.174-111.98v-0.055zM135.447 159.962h-46.545v488.727c0.495 61.703 50.343 111.6 111.98 112.174h89.096v-46.545h-88.902c-36.147-0.366-65.343-29.61-65.629-65.741v-0.027zM355.607 760.863h313.251v-224.349h-313.251zM622.313 714.318h-220.16v-131.258h220.16zM512 938.667c61.92-0.079 112.095-50.254 112.175-112.167v-112.183h-224.349v112.175c0.079 61.92 50.254 112.095 112.167 112.175h0.008zM577.629 760.863v65.629c0 36.246-29.383 65.629-65.629 65.629s-65.629-29.383-65.629-65.629v0-65.629z" />
<glyph unicode="&#xe925;" glyph-name="padlock-monitor-thin" d="M111.709 938.667h800.582c0.173 0.001 0.377 0.002 0.581 0.002 30.683 0 58.457-12.453 78.544-32.581l0.002-0.002c20.138-20.307 32.583-48.271 32.583-79.142 0-0.159 0-0.317-0.001-0.476v0.025-621.847c0-0.098 0-0.214 0-0.331 0-30.864-12.445-58.822-32.59-79.13l0.007 0.007c-20.089-20.13-47.863-32.583-78.546-32.583-0.204 0-0.408 0.001-0.612 0.002h-800.551c-0.173-0.001-0.377-0.002-0.581-0.002-30.683 0-58.457 12.453-78.544 32.581l-0.002 0.002c-20.138 20.307-32.583 48.271-32.583 79.142 0 0.159 0 0.317 0.001 0.476v-0.025 621.708c-0.001 0.14-0.001 0.305-0.001 0.47 0 30.865 12.445 58.823 32.59 79.13l-0.007-0.007c20.089 20.13 47.863 32.583 78.546 32.583 0.204 0 0.408-0.001 0.612-0.002h-0.031zM822.924 892.122h-711.215c-0.053 0-0.116 0-0.178 0-17.939 0-34.173-7.295-45.899-19.081l-0.003-0.003c-11.794-11.856-19.084-28.201-19.084-46.249 0-0.104 0-0.208 0.001-0.312v0.016-621.847c0-0.082-0.001-0.18-0.001-0.277 0-18.054 7.29-34.406 19.087-46.271l-0.003 0.003c11.728-11.788 27.963-19.084 45.902-19.084 0.063 0 0.125 0 0.188 0h800.572c0.053 0 0.116 0 0.178 0 17.939 0 34.173 7.295 45.899 19.081l0.003 0.003c11.794 11.856 19.084 28.201 19.084 46.249 0 0.104 0 0.208-0.001 0.312v-0.016 621.847c0 0.082 0.001 0.18 0.001 0.277 0 18.054-7.29 34.406-19.087 46.271l0.003-0.003c-11.728 11.788-27.963 19.084-45.902 19.084-0.063 0-0.125 0-0.188 0h-89.357zM355.607 627.743h313.251v-224.349h-313.251zM622.313 581.198h-220.16v-131.258h220.16zM512 805.547c61.92-0.079 112.095-50.254 112.175-112.167v-112.183h-224.349v112.175c0.079 61.92 50.254 112.095 112.167 112.175h0.008zM577.629 627.743v65.629c0 36.246-29.383 65.629-65.629 65.629s-65.629-29.383-65.629-65.629v0-65.629zM535.273-62.060h-46.545v177.804h46.545zM734.022-85.333h-444.044v46.545h444.044zM1000.727 270.274h-977.455v46.545h977.455z" />
<glyph unicode="&#xe926;" glyph-name="padlock-thin" d="M46.545 494.158h935.098v-579.491h-935.098zM935.098 447.612h-842.007v-486.4h842.007zM514.327 938.667c184.486-0.212 333.984-149.71 334.196-334.176v-154.552h-668.393v154.531c0.212 184.486 149.71 333.984 334.176 334.196h0.021zM801.978 496.485v107.985c0 158.865-128.786 287.651-287.651 287.651s-287.651-128.786-287.651-287.651v0-107.985zM514.327 316.354c37.274 0 67.491-30.217 67.491-67.491s-30.217-67.491-67.491-67.491c-37.274 0-67.491 30.217-67.491 67.491v0c0.053 37.253 30.238 67.438 67.486 67.491h0.005zM514.327 227.918c11.568 0 20.945 9.378 20.945 20.945s-9.378 20.945-20.945 20.945c-11.568 0-20.945-9.378-20.945-20.945v0c0.026-11.557 9.388-20.919 20.943-20.945h0.003zM537.6 71.060h-46.545v133.585h46.545z" />
<glyph unicode="&#xe927;" glyph-name="padlock-user-thin" d="M1024-85.333h-1024v757.295h289.978v-46.545h-243.433v-664.204h930.909v664.204h-243.433v46.545h289.978zM177.804 70.967c0 86.502 70.124 156.625 156.625 156.625s156.625-70.124 156.625-156.625v0h-46.545c0 60.796-49.284 110.080-110.080 110.080s-110.080-49.284-110.080-110.080v0zM334.196 405.722c61.952 0 112.175-50.222 112.175-112.175s-50.222-112.175-112.175-112.175c-61.952 0-112.175 50.222-112.175 112.175v0c0.079 61.92 50.254 112.095 112.167 112.175h0.008zM334.196 227.918c36.246 0 65.629 29.383 65.629 65.629s-29.383 65.629-65.629 65.629c-36.246 0-65.629-29.383-65.629-65.629v0c0.053-36.225 29.404-65.576 65.624-65.629h0.005zM867.607 270.274h-266.705v46.545h266.705zM867.607 92.471h-266.705v46.545h266.705zM355.607 760.863h313.251v-224.349h-313.251zM622.313 714.318h-220.16v-131.258h220.16zM512 938.667c61.92-0.079 112.095-50.254 112.175-112.167v-112.183h-224.349v112.175c0.079 61.92 50.254 112.095 112.167 112.175h0.008zM577.629 760.863v65.629c0 36.246-29.383 65.629-65.629 65.629s-65.629-29.383-65.629-65.629v0-65.629z" />
<glyph unicode="&#xe928;" glyph-name="passcode-thin" d="M0 361.038h1024v-446.371h-1024zM977.455 314.492h-930.909v-353.28h930.909zM178.735 183.7c25.192 0 45.615-20.422 45.615-45.615s-20.422-45.615-45.615-45.615c-25.192 0-45.615 20.422-45.615 45.615v0c0.026 25.182 20.433 45.588 45.612 45.615h0.003zM400.756 183.7c25.192 0 45.615-20.422 45.615-45.615s-20.422-45.615-45.615-45.615c-25.192 0-45.615 20.422-45.615 45.615v0c0.026 25.182 20.433 45.588 45.612 45.615h0.003zM623.244 183.7c25.192 0 45.615-20.422 45.615-45.615s-20.422-45.615-45.615-45.615c-25.192 0-45.615 20.422-45.615 45.615v0c0.026 25.182 20.433 45.588 45.612 45.615h0.003zM845.265 183.7c25.192 0 45.615-20.422 45.615-45.615s-20.422-45.615-45.615-45.615c-25.192 0-45.615 20.422-45.615 45.615v0c0.026 25.182 20.433 45.588 45.612 45.615h0.003zM355.607 760.863h313.251v-268.567h-313.251zM622.313 714.318h-220.16v-175.476h220.16zM512 938.667c61.92-0.079 112.095-50.254 112.175-112.167v-112.183h-224.349v112.175c0.079 61.92 50.254 112.095 112.167 112.175h0.008zM577.629 760.863v65.629c0 36.246-29.383 65.629-65.629 65.629s-65.629-29.383-65.629-65.629v0-65.629z" />
<glyph unicode="&#xe929;" glyph-name="pattern-security-thin" d="M112.175 938.667c61.952 0 112.175-50.222 112.175-112.175s-50.222-112.175-112.175-112.175c-61.952 0-112.175 50.222-112.175 112.175v0c0.079 61.92 50.254 112.095 112.167 112.175h0.008zM112.175 760.863c36.246 0 65.629 29.383 65.629 65.629s-29.383 65.629-65.629 65.629c-36.246 0-65.629-29.383-65.629-65.629v0c0.053-36.225 29.404-65.576 65.624-65.629h0.005zM512 938.667c61.952 0 112.175-50.222 112.175-112.175s-50.222-112.175-112.175-112.175c-61.952 0-112.175 50.222-112.175 112.175v0c0.079 61.92 50.254 112.095 112.167 112.175h0.008zM512 760.863c36.246 0 65.629 29.383 65.629 65.629s-29.383 65.629-65.629 65.629c-36.246 0-65.629-29.383-65.629-65.629v0c0.053-36.225 29.404-65.576 65.624-65.629h0.005zM911.825 938.667c61.952 0 112.175-50.222 112.175-112.175s-50.222-112.175-112.175-112.175c-61.952 0-112.175 50.222-112.175 112.175v0c0.079 61.92 50.254 112.095 112.167 112.175h0.008zM911.825 760.863c36.246 0 65.629 29.383 65.629 65.629s-29.383 65.629-65.629 65.629c-36.246 0-65.629-29.383-65.629-65.629v0c0.053-36.225 29.404-65.576 65.624-65.629h0.005zM112.175 538.842c61.952 0 112.175-50.222 112.175-112.175s-50.222-112.175-112.175-112.175c-61.952 0-112.175 50.222-112.175 112.175v0c0.079 61.92 50.254 112.095 112.167 112.175h0.008zM112.175 361.038c36.246 0 65.629 29.383 65.629 65.629s-29.383 65.629-65.629 65.629c-36.246 0-65.629-29.383-65.629-65.629v0c0.053-36.225 29.404-65.576 65.624-65.629h0.005zM512 538.842c61.952 0 112.175-50.222 112.175-112.175s-50.222-112.175-112.175-112.175c-61.952 0-112.175 50.222-112.175 112.175v0c0.079 61.92 50.254 112.095 112.167 112.175h0.008zM512 361.038c36.246 0 65.629 29.383 65.629 65.629s-29.383 65.629-65.629 65.629c-36.246 0-65.629-29.383-65.629-65.629v0c0.053-36.225 29.404-65.576 65.624-65.629h0.005zM911.825 538.842c61.952 0 112.175-50.222 112.175-112.175s-50.222-112.175-112.175-112.175c-61.952 0-112.175 50.222-112.175 112.175v0c0.079 61.92 50.254 112.095 112.167 112.175h0.008zM911.825 361.038c36.246 0 65.629 29.383 65.629 65.629s-29.383 65.629-65.629 65.629c-36.246 0-65.629-29.383-65.629-65.629v0c0.053-36.225 29.404-65.576 65.624-65.629h0.005zM112.175 139.016c61.952 0 112.175-50.222 112.175-112.175s-50.222-112.175-112.175-112.175c-61.952 0-112.175 50.222-112.175 112.175v0c0.079 61.92 50.254 112.095 112.167 112.175h0.008zM112.175-38.788c36.246 0 65.629 29.383 65.629 65.629s-29.383 65.629-65.629 65.629c-36.246 0-65.629-29.383-65.629-65.629v0c0.053-36.225 29.404-65.576 65.624-65.629h0.005zM512 139.016c61.952 0 112.175-50.222 112.175-112.175s-50.222-112.175-112.175-112.175c-61.952 0-112.175 50.222-112.175 112.175v0c0.079 61.92 50.254 112.095 112.167 112.175h0.008zM512-38.788c36.246 0 65.629 29.383 65.629 65.629s-29.383 65.629-65.629 65.629c-36.246 0-65.629-29.383-65.629-65.629v0c0.053-36.225 29.404-65.576 65.624-65.629h0.005zM911.825 139.016c61.952 0 112.175-50.222 112.175-112.175s-50.222-112.175-112.175-112.175c-61.952 0-112.175 50.222-112.175 112.175v0c0.079 61.92 50.254 112.095 112.167 112.175h0.008zM911.825-38.788c36.246 0 65.629 29.383 65.629 65.629s-29.383 65.629-65.629 65.629c-36.246 0-65.629-29.383-65.629-65.629v0c0.053-36.225 29.404-65.576 65.624-65.629h0.005zM432.687 473.026l-274.153 274.153 32.954 32.954 274.153-274.153zM535.273 115.743h-46.545v222.022h46.545zM822.924 803.22h-222.022v46.545h222.022zM423.098 803.22h-222.022v46.545h222.022z" />
<glyph unicode="&#xe92a;" glyph-name="pin-code-security-thin" d="M0 915.394h1024v-446.371h-1024zM977.455 868.849h-930.909v-353.28h930.909zM178.735 738.056c25.192 0 45.615-20.422 45.615-45.615s-20.422-45.615-45.615-45.615c-25.192 0-45.615 20.422-45.615 45.615v0c0.026 25.182 20.433 45.588 45.612 45.615h0.003zM400.756 738.056c25.192 0 45.615-20.422 45.615-45.615s-20.422-45.615-45.615-45.615c-25.192 0-45.615 20.422-45.615 45.615v0c0.026 25.182 20.433 45.588 45.612 45.615h0.003zM623.244 738.056c25.192 0 45.615-20.422 45.615-45.615s-20.422-45.615-45.615-45.615c-25.192 0-45.615 20.422-45.615 45.615v0c0.026 25.182 20.433 45.588 45.612 45.615h0.003zM845.265 738.056c25.192 0 45.615-20.422 45.615-45.615s-20.422-45.615-45.615-45.615c-25.192 0-45.615 20.422-45.615 45.615v0c0.026 25.182 20.433 45.588 45.612 45.615h0.003zM600.902 291.22h-177.804v46.545h177.804zM867.607 291.22h-177.804v46.545h177.804zM334.196 291.22h-177.804v46.545h177.804zM600.902 113.882h-177.804v46.545h177.804zM867.607 113.882h-177.804v46.545h177.804zM334.196 113.882h-177.804v46.545h177.804zM600.902-63.922h-177.804v46.545h177.804zM867.607-63.922h-177.804v46.545h177.804zM334.196-63.922h-177.804v46.545h177.804z" />
<glyph unicode="&#xe92b;" glyph-name="question-padlock-thin" horiz-adv-x="937" d="M456.932 938.667v0c180.89-0.207 327.473-146.791 327.68-327.66v-153.392h-653.995v153.372c0 0.001 0 0.002 0 0.003 0 180.493 145.93 326.902 326.241 327.677h0.074zM739.1 503.126v107.861c0 155.461-126.026 281.486-281.486 281.486s-281.486-126.026-281.486-281.486v0-107.861zM828.757 45.284h-45.511v12.47c2.395 45.229 25.926 84.498 60.824 108.371l0.48 0.31c16.678 11.751 27.44 30.928 27.44 52.619 0 35.44-28.73 64.171-64.171 64.171s-64.171-28.73-64.171-64.171c0-0.211 0.001-0.422 0.003-0.632v0.032l-45.511-0.455c-0.003 0.314-0.005 0.684-0.005 1.055 0 60.576 49.106 109.682 109.682 109.682s109.682-49.106 109.682-109.682c0-37.159-18.479-70.002-46.748-89.841l-0.351-0.233h-0.319c-23.771-16.191-39.624-42.486-41.358-72.566l-0.012-0.252zM828.757-85.333h-45.511v86.926h45.511zM675.385-64.398h-675.385v567.979h936.619v-45.511h-891.108v-476.956h629.874zM414.606 196.836h-87.381v45.511h87.381zM240.299 196.836h-86.926v45.511h86.926zM588.459 196.836h-86.926v45.511h86.926z" />
<glyph unicode="&#xe92c;" glyph-name="rack-padlock-thin" horiz-adv-x="1027" d="M0 938.667h935.949v-313.536h-935.949zM889.361 892.079h-842.773v-220.36h842.773zM467.742 358.183h-467.742v313.536h935.949v-112.277h-46.588v65.689h-842.773v-220.36h421.154zM245.518 758.838h-88.983v46.588h88.983zM245.518 491.89h-88.983v46.588h88.983zM779.414 758.838h-444.914v46.588h444.914zM468.207 491.89h-133.707v46.588h133.707zM467.742 91.701h-467.742v313.070h467.742v-46.588h-421.154v-219.894h421.154zM245.518 224.942h-88.983v46.588h88.983zM468.207 224.942h-133.707v46.588h133.707zM783.048-85.333h-9.318l-3.308 0.978c-136.604 42.115-234.235 167.042-234.663 314.837v193.669l243.608 70.534 247.894-70.441v-192.314c-0.269-150.198-101.172-276.755-238.867-315.861l-2.319-0.563zM582.348 388.931v-158.399c0-0.078 0-0.171 0-0.263 0-125.083 81.546-231.12 194.376-267.848l1.992-0.561c117.43 35.993 201.436 143.221 201.958 270.148v156.922l-201.213 57.303z" />
<glyph unicode="&#xe92d;" glyph-name="router-security-thin" d="M112.175 316.82h799.651c61.92-0.079 112.095-50.254 112.175-112.167v-177.812c-0.079-61.92-50.254-112.095-112.167-112.175h-799.659c-61.92 0.079-112.095 50.254-112.175 112.167v177.812c0.079 61.92 50.254 112.095 112.167 112.175h0.008zM911.825-38.788c36.225 0.053 65.576 29.404 65.629 65.624v177.809c-0.053 36.225-29.404 65.576-65.624 65.629h-799.656c-36.225-0.053-65.576-29.404-65.629-65.624v-177.809c0.053-36.225 29.404-65.576 65.624-65.629h0.005zM224.349 293.547h-46.545v532.945h46.545zM245.295 92.471h-88.902v46.545h88.902zM423.098 92.471h-88.902v46.545h88.902zM867.607 92.471h-355.607v46.545h355.607zM355.607 671.962h313.251v-224.349h-313.251zM622.313 625.416h-220.16v-131.258h220.16zM512 849.765c61.92-0.079 112.095-50.254 112.175-112.167v-112.183h-224.349v112.175c0.079 61.92 50.254 112.095 112.167 112.175h0.008zM577.629 671.962v65.629c0 36.246-29.383 65.629-65.629 65.629s-65.629-29.383-65.629-65.629v0-65.629zM201.076 938.667c37.274 0 67.491-30.217 67.491-67.491s-30.217-67.491-67.491-67.491c-37.274 0-67.491 30.217-67.491 67.491v0c0.053 37.253 30.238 67.438 67.486 67.491h0.005zM201.076 850.231c11.568 0 20.945 9.378 20.945 20.945s-9.378 20.945-20.945 20.945c-11.568 0-20.945-9.378-20.945-20.945v0c0.026-11.557 9.388-20.919 20.943-20.945h0.003zM844.335 648.596c-0.367 60.827-49.579 110.039-110.371 110.406h-0.035v46.545c86.437-0.446 156.4-70.344 156.951-156.712v-0.053zM1024 648.642h-46.545c0 0.152 0.001 0.332 0.001 0.512 0 134.187-108.78 242.967-242.967 242.967-0.147 0-0.295 0-0.442 0h0.023v46.545c0.124 0 0.272 0 0.419 0 159.893 0 289.513-129.619 289.513-289.513 0-0.18 0-0.36 0-0.54v0.028z" />
<glyph unicode="&#xe92e;" glyph-name="server-shield-thin" horiz-adv-x="1023" d="M112.068 316.436h798.888c61.861-0.079 111.988-50.206 112.068-112.060v-177.642c-0.079-61.861-50.206-111.988-112.060-112.068h-798.896c-61.861 0.079-111.988 50.206-112.068 112.060v177.642c0.079 61.861 50.206 111.988 112.060 112.068h0.008zM910.956-38.832c36.19 0.053 65.514 29.376 65.566 65.561v177.639c-0.053 36.19-29.376 65.514-65.561 65.566h-798.893c-36.19-0.053-65.514-29.376-65.566-65.561v-177.639c0.053-36.19 29.376-65.514 65.561-65.566h0.005zM112.068 267.61c-61.693 0.496-111.571 50.375-112.067 112.020v179.541c0.495 61.644 50.295 111.493 111.873 112.067h178.759v-46.501h-178.564c-36.112-0.365-65.28-29.582-65.566-65.679v-179.382c0.365-36.112 29.582-65.28 65.679-65.566h798.776c36.064 0.364 65.202 29.503 65.566 65.532v179.529c-0.365 36.112-29.582 65.28-65.679 65.566h-178.917v46.501h179.029c61.644-0.495 111.493-50.295 112.067-111.873v-179.689c-0.495-61.644-50.295-111.493-111.873-112.067h-0.055zM511.512 358.287l-6.324 1.814c-137.938 40.766-236.877 166.31-236.877 314.962 0 0.143 0 0.287 0 0.43v-0.022 192.235l243.201 70.961 246.921-70.728v-192.049c-0.269-149.918-100.984-276.24-238.422-315.273l-2.314-0.562zM314.812 832.831v-157.406c0.255-125.178 81.833-231.234 194.7-268.164l1.999-0.566c116.518 36.332 199.728 142.995 200.28 269.176v156.867l-200.28 57.475zM245.061 447.104h-88.817v46.501h88.817zM245.061 92.301h-88.817v46.501h88.817zM422.695 92.301h-88.817v46.501h88.817zM866.78 92.301h-355.268v46.501h355.268zM866.78 447.104h-213.44v46.501h213.44z" />
<glyph unicode="&#xe92f;" glyph-name="settings-laptop-thin" horiz-adv-x="1003" d="M109.227 177.721h271.11l45.511-45.511h155.011l45.511 45.511h271.519c58.524-1.943 105.228-49.852 105.228-108.67 0-0.404-0.002-0.807-0.007-1.21l0.001 0.061c-0.008-42.327-17.115-80.656-44.789-108.459l0.006 0.006c-27.52-27.664-65.615-44.784-107.709-44.784-0.166 0-0.331 0-0.497 0.001h-697.205c-0.127 0-0.276-0.001-0.426-0.001-42.094 0-80.189 17.12-107.702 44.777l-0.006 0.006c-27.675 27.824-44.783 66.183-44.783 108.537 0 0.050 0 0.101 0 0.151v-0.008c0 0.075 0 0.163 0 0.251 0 30.173 12.168 57.503 31.865 77.352l-0.007-0.007c19.656 19.764 46.867 31.995 76.936 31.995 0.152 0 0.304 0 0.456-0.001h-0.024zM109.682 132.21h-0.455c-0.052 0-0.113 0-0.174 0-17.54 0-33.414-7.133-44.879-18.657l-0.003-0.003c-11.532-11.592-18.66-27.574-18.66-45.221 0-0.102 0-0.204 0.001-0.305v0.016c0-0.068 0-0.148 0-0.228 0-29.761 12.013-56.716 31.454-76.282l-0.006 0.006c19.323-19.372 46.044-31.358 75.564-31.358 0.139 0 0.277 0 0.415 0.001h697.209c0.090 0 0.197 0 0.304 0 29.565 0 56.323 12.022 75.65 31.444l0.004 0.004c19.435 19.546 31.448 46.489 31.448 76.238 0 0.029 0 0.059 0 0.088v-0.005c0.002 0.18 0.003 0.392 0.003 0.605 0 34.23-26.992 62.155-60.853 63.652l-0.135 0.005h-251.358l-45.511-45.511h-192.694l-45.511 45.511zM916.139 154.966h-45.511v478.777c-0.076 35.502-28.706 64.292-64.139 64.626h-87.413v45.511h87.381c60.569-0.412 109.528-49.531 109.682-110.122v-0.015zM132.437 154.966h-45.511v478.777c0.128 60.616 49.102 109.75 109.645 110.137h87.418v-45.511h-87.381c-35.465-0.334-64.095-29.124-64.171-64.618v-0.007zM501.532 874.496c84.705 0 153.372-68.667 153.372-153.372s-68.667-153.372-153.372-153.372c-84.705 0-153.372 68.667-153.372 153.372v0c0.104 84.664 68.709 153.269 153.362 153.372h0.010zM501.532 613.263c59.57 0 107.861 48.291 107.861 107.861s-48.291 107.861-107.861 107.861c-59.57 0-107.861-48.291-107.861-107.861v0c0.078-59.539 48.322-107.784 107.854-107.861h0.007zM524.288 851.741h-45.511v86.926h45.511zM524.288 503.126h-45.511v87.381h45.511zM376.832 766.544l-75.139 43.691 22.756 39.322 75.139-43.691zM678.571 592.646l-75.048 43.236 22.756 39.458 75.048-43.281zM626.278 766.544l-22.756 39.322 75.048 43.691 22.756-39.322zM324.449 592.646l-22.756 39.458 75.139 43.19 22.756-39.458z" />
<glyph unicode="&#xe930;" glyph-name="settings-monitor-thin" d="M111.709 938.667h800.582c0.173 0.001 0.377 0.002 0.581 0.002 30.683 0 58.457-12.453 78.544-32.581l0.002-0.002c20.138-20.307 32.583-48.271 32.583-79.142 0-0.159 0-0.317-0.001-0.476v0.025-621.847c0-0.098 0-0.214 0-0.331 0-30.864-12.445-58.822-32.59-79.13l0.007 0.007c-20.089-20.13-47.863-32.583-78.546-32.583-0.204 0-0.408 0.001-0.612 0.002h-800.551c-0.173-0.001-0.377-0.002-0.581-0.002-30.683 0-58.457 12.453-78.544 32.581l-0.002 0.002c-20.138 20.307-32.583 48.271-32.583 79.142 0 0.159 0 0.317 0.001 0.476v-0.025 621.708c-0.001 0.14-0.001 0.305-0.001 0.47 0 30.865 12.445 58.823 32.59 79.13l-0.007-0.007c20.089 20.13 47.863 32.583 78.546 32.583 0.204 0 0.408-0.001 0.612-0.002h-0.031zM822.924 892.122h-711.215c-0.053 0-0.116 0-0.178 0-17.939 0-34.173-7.295-45.899-19.081l-0.003-0.003c-11.794-11.856-19.084-28.201-19.084-46.249 0-0.104 0-0.208 0.001-0.312v0.016-621.847c0-0.082-0.001-0.18-0.001-0.277 0-18.054 7.29-34.406 19.087-46.271l-0.003 0.003c11.728-11.788 27.963-19.084 45.902-19.084 0.063 0 0.125 0 0.188 0h800.572c0.053 0 0.116 0 0.178 0 17.939 0 34.173 7.295 45.899 19.081l0.003 0.003c11.794 11.856 19.084 28.201 19.084 46.249 0 0.104 0 0.208-0.001 0.312v-0.016 621.847c0 0.082 0.001 0.18 0.001 0.277 0 18.054-7.29 34.406-19.087 46.271l0.003-0.003c-11.728 11.788-27.963 19.084-45.902 19.084-0.063 0-0.125 0-0.188 0h-89.357zM535.273-62.060h-46.545v177.804h46.545zM734.022-85.333h-444.044v46.545h444.044zM1000.727 270.274h-977.455v46.545h977.455zM512 760.863c86.373 0 156.393-70.019 156.393-156.393s-70.019-156.393-156.393-156.393c-86.373 0-156.393 70.019-156.393 156.393v0c0.106 86.331 70.062 156.287 156.383 156.393h0.010zM512 494.623c60.667 0 109.847 49.18 109.847 109.847s-49.18 109.847-109.847 109.847c-60.667 0-109.847-49.18-109.847-109.847v0c0.079-60.635 49.212-109.768 109.84-109.847h0.008zM535.273 737.591h-46.545v88.902h46.545zM535.273 382.449h-46.545v88.436h46.545zM384.931 650.876l-76.753 44.218 23.273 40.355 76.753-44.265zM692.596 473.119l-76.847 44.684 23.273 40.215 76.847-44.684zM639.023 650.876l-23.273 40.355 76.847 44.172 23.273-40.355zM331.45 473.119l-23.273 40.215 76.753 44.684 23.273-40.215z" />
<glyph unicode="&#xe931;" glyph-name="settings-shield-thin" horiz-adv-x="1011" d="M611.654-85.333h-224.489v23.273c0 0.101 0 0.221 0 0.341 0 93.828-76.063 169.891-169.891 169.891-31.352 0-60.72-8.492-85.93-23.302l0.798 0.433-20.154-11.683-111.988 193.629 19.596 11.776c49.386 30.217 81.842 83.86 81.842 145.084 0 0.785-0.005 1.569-0.016 2.351l0.001-0.119v0.698c0.009 0.65 0.014 1.418 0.014 2.186 0 61.223-32.456 114.866-81.1 144.662l-0.741 0.422-19.409 11.683 109.801 193.769 20.34-11.776c24.412-14.377 53.78-22.869 85.132-22.869 93.828 0 169.891 76.063 169.891 169.891 0 0.136 0 0.272 0 0.409v-0.021 23.273h224.442v-23.273c0-0.107 0-0.234 0-0.361 0-93.828 76.063-169.891 169.891-169.891 31.333 0 60.685 8.482 85.884 23.276l-0.799-0.434 20.433 11.823 108.684-193.955-19.456-11.59c-46.867-28.224-78.518-77.579-81.76-134.538l-0.020-0.444-46.545 2.607c3.709 65.389 36.23 122.496 84.961 159.259l0.543 0.392-64.698 115.433c-25.699-11.624-55.72-18.397-87.323-18.397-111.472 0-203.261 84.271-215.137 192.58l-0.086 0.968h-133.679c-11.982-109.257-103.762-193.503-215.218-193.503-31.605 0-61.627 6.774-88.695 18.949l1.367-0.55-65.722-115.572c52.218-39.916 85.564-102.234 85.564-172.341 0-0.857-0.005-1.713-0.015-2.568l0.001 0.13c0.009-0.725 0.014-1.582 0.014-2.439 0-70.024-33.268-132.278-84.861-171.819l-0.517-0.381 67.025-115.805c25.799 11.727 55.948 18.561 87.693 18.561 111.48 0 203.275-84.284 215.139-192.605l0.086-0.967h133.679c3.502 32.395 13.676 61.804 29.125 87.702l-0.546-0.987 40.122-23.599c-14.627-24.503-23.274-54.042-23.274-85.601 0-0.261 0.001-0.521 0.002-0.781v0.040zM767.907-84.402h-9.309l-3.258 0.977c-136.802 41.75-234.663 166.701-235.008 314.56v193.484l242.921 70.516 247.668-70.423v-192.14c-0.156-149.785-100.502-276.090-237.622-315.519l-2.319-0.571zM566.877 389.431v-158.255c0-0.175-0.001-0.382-0.001-0.589 0-124.994 81.679-230.91 194.575-267.286l1.987-0.553c116.954 36.278 200.501 143.306 200.937 269.912v156.77l-201.030 57.251zM500.038 225.544h-3.212c-110.951 0.132-200.844 90.107-200.844 201.076 0 111.051 90.025 201.076 201.076 201.076 103.443 0 188.642-78.112 199.831-178.57l0.082-0.909-46.266-4.98c-8.649 77.915-74.132 137.961-153.64 137.961-85.345 0-154.531-69.186-154.531-154.531 0-85.343 69.182-154.527 154.524-154.531h0.419c0.762-0.015 1.66-0.024 2.56-0.024 13.245 0 26.047 1.896 38.149 5.431l-0.96-0.24 12.753-44.777c-14.963-4.429-32.155-6.979-49.942-6.982h-0.001z" />
<glyph unicode="&#xe932;" glyph-name="shield-document-thin" horiz-adv-x="1027" d="M467.742 2.718h-467.742v935.949h757.984v-379.225h-46.588v332.637h-664.808v-842.773h421.154zM601.449 714.114h-444.914v46.588h444.914zM601.449 536.148h-444.914v46.588h444.914zM468.207 358.649h-311.672v46.588h311.672zM468.207 180.683h-311.672v46.588h311.672zM783.048-85.333h-9.318l-3.308 0.978c-136.604 42.115-234.235 167.042-234.663 314.837v193.669l243.608 70.534 247.894-70.441v-192.314c-0.269-150.198-101.172-276.755-238.867-315.861l-2.319-0.563zM582.348 388.931v-158.399c0-0.078 0-0.171 0-0.263 0-125.083 81.546-231.12 194.376-267.848l1.992-0.561c117.43 35.993 201.436 143.221 201.958 270.148v156.922l-201.213 57.303z" />
<glyph unicode="&#xe933;" glyph-name="shield-exclamation-thin" d="M514.327-86.264l-4.655 0.884c-265.924 54.448-463.127 286.515-463.127 564.642 0 0 0 0.001 0 0.001v0 365.847l467.782 93.556 467.782-93.556v-365.847c-0.023-278.108-197.218-510.152-459.412-563.959l-3.715-0.637zM93.091 806.943v-327.68c0.578-253.834 179.3-465.759 417.74-517.416l3.497-0.635c241.937 52.292 420.658 264.217 421.236 517.987v327.744l-421.236 84.247zM537.6 426.202h-46.545v222.022h46.545zM537.6 293.082h-46.545v88.902h46.545zM514.327 760.398c160.151 0 289.978-129.828 289.978-289.978s-129.828-289.978-289.978-289.978c-160.151 0-289.978 129.828-289.978 289.978v0c0.185 160.076 129.903 289.793 289.961 289.978h0.017zM514.327 226.987c134.444 0 243.433 108.989 243.433 243.433s-108.989 243.433-243.433 243.433c-134.444 0-243.433-108.989-243.433-243.433v0c0.159-134.38 109.052-243.274 243.418-243.433h0.015z" />
<glyph unicode="&#xe934;" glyph-name="shield-keyhole-thin" d="M514.327-86.264l-4.655 0.884c-265.924 54.448-463.127 286.515-463.127 564.642 0 0 0 0.001 0 0.001v0 365.847l467.782 93.556 467.782-93.556v-365.847c-0.023-278.108-197.218-510.152-459.412-563.959l-3.715-0.637zM93.091 806.943v-327.68c0.578-253.834 179.3-465.759 417.74-517.416l3.497-0.635c241.937 52.292 420.658 264.217 421.236 517.987v327.744l-421.236 84.247zM514.327 582.594c37.274 0 67.491-30.217 67.491-67.491s-30.217-67.491-67.491-67.491c-37.274 0-67.491 30.217-67.491 67.491v0c0.053 37.253 30.238 67.438 67.486 67.491h0.005zM514.327 494.158c11.568 0 20.945 9.378 20.945 20.945s-9.378 20.945-20.945 20.945c-11.568 0-20.945-9.378-20.945-20.945v0c0.026-11.557 9.388-20.919 20.943-20.945h0.003zM537.6 337.3h-46.545v133.12h46.545zM514.327 760.398c160.151 0 289.978-129.828 289.978-289.978s-129.828-289.978-289.978-289.978c-160.151 0-289.978 129.828-289.978 289.978v0c0.185 160.076 129.903 289.793 289.961 289.978h0.017zM514.327 226.987c134.444 0 243.433 108.989 243.433 243.433s-108.989 243.433-243.433 243.433c-134.444 0-243.433-108.989-243.433-243.433v0c0.159-134.38 109.052-243.274 243.418-243.433h0.015z" />
<glyph unicode="&#xe935;" glyph-name="shield-laptop-thin" horiz-adv-x="1041" d="M113.567 187.702h281.789l44.954-47.32h160.651l44.954 47.32h281.553c0.176 0.001 0.383 0.002 0.591 0.002 31.193 0 59.43-12.661 79.851-33.123l0.002-0.002c20.473-20.645 33.125-49.074 33.125-80.458 0-0.161 0-0.322-0.001-0.483v0.025c-0.161-87.717-71.267-158.772-158.987-158.852h-723.054c-87.717 0.107-158.806 71.147-158.994 158.834v0.018c0 0.1 0 0.218 0 0.336 0 31.378 12.652 59.801 33.132 80.446l-0.007-0.008c20.437 20.549 48.73 33.267 79.994 33.267 0.158 0 0.316 0 0.475-0.001h-0.025zM375.009 140.382h-261.442c-0.054 0-0.118 0-0.181 0-18.237 0-34.742-7.417-46.663-19.399l-0.003-0.003c-11.99-12.053-19.402-28.67-19.402-47.019 0-0.106 0-0.212 0.001-0.318v0.016c0.081-61.644 50.031-111.594 111.667-111.675h723.054c61.644 0.081 111.594 50.031 111.675 111.667v0.008c0 0.084 0.001 0.183 0.001 0.282 0 18.355-7.411 34.978-19.405 47.041l0.003-0.003c-11.923 11.985-28.428 19.401-46.665 19.401-0.064 0-0.127 0-0.191 0h-261.432l-44.954-47.32h-201.109zM950.654 164.042h-47.32v496.858c-0.372 36.748-30.103 66.43-66.835 66.721h-90.267v47.32h90.381c62.729-0.504 113.456-51.181 114.040-113.843v-0.056zM137.701 164.042h-47.32v496.858c0.504 62.729 51.181 113.456 113.843 114.040h90.579v-47.32h-90.381c-36.748-0.372-66.43-30.103-66.721-66.835v-0.028zM520.518 564.888l-6.341 1.798c-88.322 25.529-151.94 105.344-152.653 200.128v125.763l158.994 46.089 160.461-46.089v-125.918c-1.317-95.061-65.439-174.792-152.683-199.659l-1.485-0.362zM408.843 856.804v-89.908c0.932-70.857 46.89-130.74 110.526-152.408l1.149-0.34c65.403 21.5 111.994 81.54 113.093 152.619l0.002 0.129v89.908l-113.094 32.651z" />
<glyph unicode="&#xe936;" glyph-name="shield-monitor-thin" d="M111.709 938.667h800.582c0.173 0.001 0.377 0.002 0.581 0.002 30.683 0 58.457-12.453 78.544-32.581l0.002-0.002c20.138-20.307 32.583-48.271 32.583-79.142 0-0.159 0-0.317-0.001-0.476v0.025-621.847c0-0.098 0-0.214 0-0.331 0-30.864-12.445-58.822-32.59-79.13l0.007 0.007c-20.089-20.13-47.863-32.583-78.546-32.583-0.204 0-0.408 0.001-0.612 0.002h-800.551c-0.173-0.001-0.377-0.002-0.581-0.002-30.683 0-58.457 12.453-78.544 32.581l-0.002 0.002c-20.138 20.307-32.583 48.271-32.583 79.142 0 0.159 0 0.317 0.001 0.476v-0.025 621.708c-0.001 0.14-0.001 0.305-0.001 0.47 0 30.865 12.445 58.823 32.59 79.13l-0.007-0.007c20.089 20.13 47.863 32.583 78.546 32.583 0.204 0 0.408-0.001 0.612-0.002h-0.031zM822.924 892.122h-711.215c-0.053 0-0.116 0-0.178 0-17.939 0-34.173-7.295-45.899-19.081l-0.003-0.003c-11.794-11.856-19.084-28.201-19.084-46.249 0-0.104 0-0.208 0.001-0.312v0.016-621.847c0-0.082-0.001-0.18-0.001-0.277 0-18.054 7.29-34.406 19.087-46.271l-0.003 0.003c11.728-11.788 27.963-19.084 45.902-19.084 0.063 0 0.125 0 0.188 0h800.572c0.053 0 0.116 0 0.178 0 17.939 0 34.173 7.295 45.899 19.081l0.003 0.003c11.794 11.856 19.084 28.201 19.084 46.249 0 0.104 0 0.208-0.001 0.312v-0.016 621.847c0 0.082 0.001 0.18 0.001 0.277 0 18.054-7.29 34.406-19.087 46.271l0.003-0.003c-11.728 11.788-27.963 19.084-45.902 19.084-0.063 0-0.125 0-0.188 0h-89.357zM535.273-62.060h-46.545v177.804h46.545zM734.022-85.333h-444.044v46.545h444.044zM1000.727 270.274h-977.455v46.545h977.455zM512 420.663l-6.284 1.769c-86.971 25.47-149.516 104.26-150.109 197.749v123.321l156.393 44.823 157.836-44.777v-122.321c-0.397-94.32-63.718-173.742-150.136-198.484l-1.463-0.358zM402.153 708.407v-88.111c0.456-70.088 45.807-129.464 108.718-150.846l1.13-0.333c64.878 21.427 110.929 81.373 111.244 152.12v87.124l-111.244 31.558z" />
<glyph unicode="&#xe937;" glyph-name="shield-network-thin" d="M512 92.005l-6.377 1.862c-138.063 40.987-237.046 166.722-237.056 315.577v237.15l243.433 71.028 247.156-70.935v-236.311c-0.414-150.078-101.085-276.531-238.547-315.939l-2.325-0.57zM315.113 611.685v-202.24c0.477-125.213 82.038-231.251 194.883-268.369l2.004-0.571c116.603 36.672 199.818 143.513 200.471 269.887v201.2l-200.471 57.53zM956.509 494.158c37.274 0 67.491-30.217 67.491-67.491s-30.217-67.491-67.491-67.491c-37.274 0-67.491 30.217-67.491 67.491v0c0.053 37.253 30.238 67.438 67.486 67.491h0.005zM956.509 405.722c11.568 0 20.945 9.378 20.945 20.945s-9.378 20.945-20.945 20.945c-11.568 0-20.945-9.378-20.945-20.945v0c0.026-11.557 9.388-20.919 20.943-20.945h0.003zM67.491 494.158c37.274 0 67.491-30.217 67.491-67.491s-30.217-67.491-67.491-67.491c-37.274 0-67.491 30.217-67.491 67.491v0c0.053 37.253 30.238 67.438 67.486 67.491h0.005zM67.491 405.722c11.568 0 20.945 9.378 20.945 20.945s-9.378 20.945-20.945 20.945c-11.568 0-20.945-9.378-20.945-20.945v0c0.026-11.557 9.388-20.919 20.943-20.945h0.003zM956.509 938.667c37.274 0 67.491-30.217 67.491-67.491s-30.217-67.491-67.491-67.491c-37.274 0-67.491 30.217-67.491 67.491v0c0.053 37.253 30.238 67.438 67.486 67.491h0.005zM956.509 850.231c11.568 0 20.945 9.378 20.945 20.945s-9.378 20.945-20.945 20.945c-11.568 0-20.945-9.378-20.945-20.945v0c0.026-11.557 9.388-20.919 20.943-20.945h0.003zM67.491 938.667c37.274 0 67.491-30.217 67.491-67.491s-30.217-67.491-67.491-67.491c-37.274 0-67.491 30.217-67.491 67.491v0c0.053 37.253 30.238 67.438 67.486 67.491h0.005zM67.491 850.231c11.568 0 20.945 9.378 20.945 20.945s-9.378 20.945-20.945 20.945c-11.568 0-20.945-9.378-20.945-20.945v0c0.026-11.557 9.388-20.919 20.943-20.945h0.003zM956.509 49.649c37.274 0 67.491-30.217 67.491-67.491s-30.217-67.491-67.491-67.491c-37.274 0-67.491 30.217-67.491 67.491v0c0.053 37.253 30.238 67.438 67.486 67.491h0.005zM956.509-38.788c11.568 0 20.945 9.378 20.945 20.945s-9.378 20.945-20.945 20.945c-11.568 0-20.945-9.378-20.945-20.945v0c0.026-11.557 9.388-20.919 20.943-20.945h0.003zM67.491 49.649c37.274 0 67.491-30.217 67.491-67.491s-30.217-67.491-67.491-67.491c-37.274 0-67.491 30.217-67.491 67.491v0c0.053 37.253 30.238 67.438 67.486 67.491h0.005zM67.491-38.788c11.568 0 20.945 9.378 20.945 20.945s-9.378 20.945-20.945 20.945c-11.568 0-20.945-9.378-20.945-20.945v0c0.026-11.557 9.388-20.919 20.943-20.945h0.003zM289.978 403.394h-177.804v46.545h177.804zM911.825 403.394h-177.804v46.545h177.804zM669.324 654.274h-46.545v239.709h289.047v-46.545h-242.502zM402.153 648.689h-46.545v198.749h-243.433v46.545h289.978zM402.153-55.544h-289.978v46.545h243.433v203.404h46.545zM911.825-55.544h-289.978v250.88h46.545v-204.335h243.433z" />
<glyph unicode="&#xe938;" glyph-name="shield-server-thin" horiz-adv-x="1027" d="M379.225 938.667c4.026 0.076 8.773 0.119 13.531 0.119 88.171 0 172.87-14.867 251.726-42.232l-5.39 1.628c76.963-28.838 119.358-69.882 119.358-116.050s-42.395-87.212-119.358-116.050c-73.466-25.737-158.165-40.604-246.336-40.604-4.758 0-9.505 0.043-14.242 0.129l0.711-0.010c-4.026-0.076-8.773-0.119-13.531-0.119-88.171 0-172.87 14.867-251.726 42.232l5.39-1.628c-76.963 28.838-119.358 70.021-119.358 116.050s42.395 87.212 119.358 116.050c73.466 25.737 158.165 40.604 246.336 40.604 4.758 0 9.505-0.043 14.242-0.129l-0.711 0.010zM379.225 672.185c4.035-0.081 8.792-0.128 13.56-0.128 82.29 0 161.358 13.794 235.019 39.196l-5.064-1.519c55.905 20.871 89.122 47.939 89.122 72.397s-33.31 51.526-89.122 72.397c-68.596 23.883-147.664 37.677-229.954 37.677-4.768 0-9.525-0.046-14.271-0.139l0.711 0.011c-4.035 0.081-8.792 0.128-13.56 0.128-82.29 0-161.358-13.794-235.019-39.196l5.064 1.519c-55.812-20.871-89.122-47.939-89.122-72.397s33.31-51.526 89.122-72.397c68.596-23.883 147.664-37.677 229.954-37.677 4.768 0 9.525 0.046 14.271 0.139l-0.711-0.011zM373.774 402.907c-69.887 0.009-137.81 8.398-202.825 24.217l5.852-1.203h-0.28c-112.183 27.953-176.521 76.59-176.521 133.521h46.588c0-26.462 43.606-63.965 141.068-88.237 55.928-13.807 120.136-21.727 186.193-21.727 1.841 0 3.681 0.006 5.519 0.018l-0.282-0.001h0.233c0.559-0.001 1.219-0.002 1.88-0.002 29.833 0 59.271 1.693 88.223 4.989l-3.543-0.328 5.031-46.308c-26.188-2.973-56.541-4.67-87.291-4.67-1.479 0-2.957 0.004-4.435 0.012l0.227-0.001zM379.225 180.683c-3.982-0.074-8.679-0.117-13.386-0.117-88.224 0-172.972 14.883-251.87 42.276l5.389-1.628c-76.963 28.791-119.358 69.882-119.358 116.004h46.588c0-24.459 33.31-51.526 89.122-72.397 68.601-23.883 147.674-37.677 229.969-37.677 4.763 0 9.515 0.046 14.256 0.138l-0.71-0.011c4.598-0.126 10.010-0.198 15.439-0.198 24.883 0 49.413 1.511 73.504 4.445l-2.895-0.287 6.802-46.075c-23.228-2.966-50.102-4.658-77.37-4.658-5.443 0-10.87 0.067-16.28 0.201l0.801-0.016zM46.588 114.995h-46.588v667.137h46.588zM757.984 559.442h-46.588v222.69h46.588zM384.070-42.006h-4.985c-3.989-0.075-8.693-0.117-13.407-0.117-88.172 0-172.864 14.901-251.695 42.323l5.375-1.627c-76.963 28.884-119.358 70.208-119.358 116.423h46.588c0-24.645 33.31-51.899 89.122-72.817 68.564-23.914 147.6-37.726 229.862-37.726 4.8 0 9.59 0.047 14.368 0.141l-0.715-0.011c1.414-0.009 3.087-0.014 4.761-0.014 55.388 0 109.467 5.602 161.702 16.271l-5.176-0.883 9.318-45.703c-49.755-10.34-106.933-16.259-165.494-16.259-0.093 0-0.187 0-0.28 0h0.015zM783.048-85.333h-9.318l-3.308 0.978c-136.604 42.115-234.235 167.042-234.663 314.837v193.669l243.608 70.534 247.894-70.441v-192.314c-0.269-150.198-101.172-276.755-238.867-315.861l-2.319-0.563zM582.348 388.931v-158.399c0-0.078 0-0.171 0-0.263 0-125.083 81.546-231.12 194.376-267.848l1.992-0.561c117.43 35.993 201.436 143.221 201.958 270.148v156.922l-201.213 57.303z" />
<glyph unicode="&#xe939;" glyph-name="siren-thin" horiz-adv-x="1045" d="M1044.898-85.333h-1044.898v45.43h1044.898zM194.896 134.096h655.106v-219.429h-655.106zM804.571 88.665h-564.245v-128.568h564.245zM522.449 656.545v0c0.002 0 0.005 0 0.007 0 132.090 0 239.29-106.565 240.319-238.412l0.001-0.098v-327.553h-480.653v327.553c1.030 131.945 108.23 238.509 240.32 238.509 0.002 0 0.005 0 0.007 0v0zM717.345 135.913v282.122c-1.281 106.753-87.995 192.83-194.872 193.079h-0.024c-106.901-0.249-193.615-86.326-194.895-192.958l-0.001-0.121v-282.122zM545.164 154.994h-45.43v261.224h45.43zM609.675 393.503h-174.453v45.43h174.453zM1044.898 393.503h-173.998v45.43h173.998zM173.998 393.503h-173.998v45.43h173.998zM545.164 764.214h-45.43v174.453h45.43zM260.134 646.368l-123.116 123.116 32.165 32.165 123.116-123.116zM784.764 646.368l-32.119 32.119 123.116 123.116 32.119-32.119z" />
<glyph unicode="&#xe93a;" glyph-name="skull-document-thin" d="M512 3.569h-512v935.098h757.295v-467.316h-46.545v420.771h-664.204v-842.007h465.455zM600.902 714.318h-444.509v46.545h444.509zM600.902 536.514h-444.509v46.545h444.509zM512 359.176h-355.607v46.545h355.607zM512 181.372h-355.607v46.545h355.607zM800.582 406.28c0 0 0.001 0 0.001 0 123.39 0 223.418-100.028 223.418-223.418 0-0.213 0-0.425-0.001-0.638v0.033c0-0.069 0-0.151 0-0.233 0-72.49-34.675-136.882-88.344-177.492l-0.558-0.404v-89.46h-268.567v89.414c-54.508 41.193-89.367 105.893-89.367 178.735 0 123.358 99.975 223.365 223.32 223.418h0.005zM888.553-38.788v67.398l10.38 6.889c47.853 32.159 78.919 86.088 78.919 147.272 0 85.555-60.744 156.922-141.457 173.326l-1.137 0.193c-10.451 2.186-22.462 3.44-34.766 3.444h-0.004c-97.493-0.252-176.429-79.344-176.429-176.872 0-61.124 31.006-115.007 78.147-146.777l0.63-0.4 10.38-6.889v-67.584zM778.24 159.962c0-24.421-19.797-44.218-44.218-44.218s-44.218 19.797-44.218 44.218c0 24.421 19.797 44.218 44.218 44.218s44.218-19.797 44.218-44.218zM911.825 159.962c0-24.421-19.797-44.218-44.218-44.218s-44.218 19.797-44.218 44.218c0 24.421 19.797 44.218 44.218 44.218s44.218-19.797 44.218-44.218z" />
<glyph unicode="&#xe93b;" glyph-name="skull-envelope-thin" d="M512 223.729h-512v668.393h935.098v-378.415h-46.545v331.869h-842.007v-575.302h465.455zM467.316 483.918l-458.566 366.778 29.091 36.352 429.475-343.552 429.987 343.552 29.044-36.352zM800.582 448.636c15.561-0.052 30.719-1.643 45.371-4.627l-1.478 0.251c103.279-21.053 179.896-111.148 179.896-219.138 0-72.759-34.78-137.394-88.621-178.188l-0.558-0.405v-89.507h-268.66v89.414c-54.508 41.193-89.367 105.893-89.367 178.735 0 123.358 99.975 223.365 223.32 223.418h0.005zM888.553 3.569v67.491l10.287 6.935c47.811 32.165 78.846 86.070 78.846 147.223 0 97.684-79.189 176.873-176.873 176.873-0.081 0-0.162 0-0.244 0h0.013c-97.623-0.081-176.731-79.238-176.731-176.873 0-61.212 31.095-115.162 78.351-146.915l0.634-0.402 10.38-6.889v-67.444zM778.24 202.783c0-24.421-19.797-44.218-44.218-44.218s-44.218 19.797-44.218 44.218c0 24.421 19.797 44.218 44.218 44.218s44.218-19.797 44.218-44.218zM911.825 202.783c0-24.421-19.797-44.218-44.218-44.218s-44.218 19.797-44.218 44.218c0 24.421 19.797 44.218 44.218 44.218s44.218-19.797 44.218-44.218z" />
<glyph unicode="&#xe93c;" glyph-name="skull-laptop-thin" horiz-adv-x="1023" d="M800.145 938.667c0.12 0 0.262 0 0.404 0 123.323 0 223.296-99.973 223.296-223.296 0-72.775-34.814-137.418-88.697-178.185l-0.56-0.406v-89.458h-268.421v89.365c-54.514 41.169-89.381 105.854-89.381 178.684 0 123.323 99.973 223.296 223.296 223.296 0.022 0 0.044 0 0.065 0h-0.003zM888.068 493.842v67.454l10.281 6.931c47.785 32.148 78.803 86.023 78.803 147.143 0 97.631-79.145 176.776-176.776 176.776-0.081 0-0.162 0-0.243 0h0.013c-97.57-0.081-176.635-79.195-176.635-176.776 0-61.179 31.078-115.099 78.309-146.835l0.634-0.401 10.374-6.885v-67.408zM777.816 692.948c0-24.408-19.786-44.194-44.194-44.194s-44.194 19.786-44.194 44.194c0 24.408 19.786 44.194 44.194 44.194s44.194-19.786 44.194-44.194zM911.328 692.948c0-24.408-19.786-44.194-44.194-44.194s-44.194 19.786-44.194 44.194c0 24.408 19.786 44.194 44.194 44.194s44.194-19.786 44.194-44.194zM111.648 183.088h276.655l44.194-44.194h158.308l44.194 44.194h276.794c0.173 0.001 0.377 0.002 0.581 0.002 30.666 0 58.426-12.447 78.502-32.564l0.002-0.002c20.127-20.296 32.565-48.245 32.565-79.099 0-0.158 0-0.317-0.001-0.475v0.025c-0.079-86.294-70.013-156.228-156.3-156.307h-710.834c-86.284 0.106-156.202 70.024-156.307 156.297v0.010c0 0.098 0 0.214 0 0.331 0 30.848 12.438 58.79 32.572 79.087l-0.007-0.007c20.091 20.202 47.907 32.704 78.642 32.704 0.156 0 0.311 0 0.467-0.001h-0.024zM369.044 136.568h-257.396c-0.053 0-0.116 0-0.178 0-17.929 0-34.155-7.291-45.874-19.071l-0.003-0.003c-11.787-11.849-19.074-28.186-19.074-46.224 0-0.104 0-0.208 0.001-0.312v0.016c0.079-60.602 49.185-109.708 109.78-109.787h710.835c60.602 0.079 109.708 49.185 109.787 109.78v0.008c0 0.082 0.001 0.18 0.001 0.277 0 18.044-7.286 34.387-19.077 46.246l0.003-0.003c-11.722 11.782-27.948 19.073-45.877 19.073-0.063 0-0.125 0-0.188 0h-257.386l-44.194-44.194h-196.966zM934.588 159.828h-46.52v222.366h46.52zM135.373 159.828h-46.52v488.461c0.495 61.669 50.316 111.539 111.919 112.113h310.949v-46.52h-310.754c-36.127-0.365-65.307-29.594-65.593-65.705v-0.027z" />
<glyph unicode="&#xe93d;" glyph-name="skull-message-thin" d="M512 223.729h-512v668.393h935.098v-378.415h-46.545v331.869h-842.007v-575.302h465.455zM467.316 438.21l-459.59 413.324 31.139 34.63 428.497-385.35 428.963 385.396 31.092-34.63zM800.582 448.636c15.561-0.052 30.719-1.643 45.371-4.627l-1.478 0.251c103.279-21.053 179.896-111.148 179.896-219.138 0-72.759-34.78-137.394-88.621-178.188l-0.558-0.405v-89.507h-268.66v89.414c-54.508 41.193-89.367 105.893-89.367 178.735 0 123.358 99.975 223.365 223.32 223.418h0.005zM888.553 3.569v67.491l10.287 6.935c47.811 32.165 78.846 86.070 78.846 147.223 0 97.684-79.189 176.873-176.873 176.873-0.081 0-0.162 0-0.244 0h0.013c-97.623-0.081-176.731-79.238-176.731-176.873 0-61.212 31.095-115.162 78.351-146.915l0.634-0.402 10.38-6.889v-67.444zM778.24 202.783c0-24.421-19.797-44.218-44.218-44.218s-44.218 19.797-44.218 44.218c0 24.421 19.797 44.218 44.218 44.218s44.218-19.797 44.218-44.218zM911.825 202.783c0-24.421-19.797-44.218-44.218-44.218s-44.218 19.797-44.218 44.218c0 24.421 19.797 44.218 44.218 44.218s44.218-19.797 44.218-44.218z" />
<glyph unicode="&#xe93e;" glyph-name="skull-monitor-thin" horiz-adv-x="1023" d="M111.648 92.374c-0.001 0-0.001 0-0.002 0-61.662 0-111.648 49.987-111.648 111.648 0 0.213 0.001 0.425 0.002 0.638v-0.033 443.662c-0.001 0.139-0.001 0.303-0.001 0.467 0 61.662 49.987 111.648 111.648 111.648 0.213 0 0.426-0.001 0.638-0.002h132.875v-46.52h-133.047c-0.138 0.001-0.302 0.002-0.466 0.002-35.969 0-65.128-29.159-65.128-65.128 0-0.115 0-0.23 0.001-0.345v0.018-443.941c-0.001-0.138-0.002-0.302-0.002-0.466 0-35.969 29.159-65.128 65.128-65.128 0.115 0 0.23 0 0.345 0.001h799.337c0.138-0.001 0.302-0.002 0.466-0.002 35.969 0 65.128 29.159 65.128 65.128 0 0.115 0 0.23-0.001 0.345v-0.018 443.941c0.001 0.138 0.002 0.302 0.002 0.466 0 35.969-29.159 65.128-65.128 65.128-0.115 0-0.23 0-0.345-0.001h-88.975v46.52h88.853c0.139 0.001 0.303 0.001 0.467 0.001 61.662 0 111.648-49.987 111.648-111.648 0-0.213-0.001-0.426-0.002-0.638v0.033-443.662c0.001-0.139 0.001-0.303 0.001-0.467 0-61.662-49.987-111.648-111.648-111.648-0.213 0-0.426 0.001-0.638 0.002h-799.508zM533.492 938.667c0.148 0 0.322 0.001 0.497 0.001 123.323 0 223.296-99.973 223.296-223.296 0-72.775-34.814-137.419-88.697-178.185l-0.56-0.406v-89.458h-268.421v89.365c-54.514 41.169-89.381 105.854-89.381 178.684 0 123.312 99.956 223.279 223.264 223.296h0.001zM621.508 493.842v67.454l10.281 6.931c47.759 32.151 78.758 86.012 78.758 147.113 0 97.631-79.145 176.776-176.776 176.776s-176.776-79.145-176.776-176.776c0-61.101 30.999-114.962 78.129-146.714l0.63-0.4 10.374-6.885v-67.501zM511.721 692.948c0-24.408-19.786-44.194-44.194-44.194s-44.194 19.786-44.194 44.194c0 24.408 19.786 44.194 44.194 44.194s44.194-19.786 44.194-44.194zM644.768 692.948c0-24.408-19.786-44.194-44.194-44.194s-44.194 19.786-44.194 44.194c0 24.408 19.786 44.194 44.194 44.194s44.194-19.786 44.194-44.194zM534.981-62.073h-46.52v177.707h46.52zM733.622-85.333h-443.802v46.52h443.802z" />
<glyph unicode="&#xe93f;" glyph-name="target-bug-thin" d="M512 875.446c247.854 0 448.779-200.925 448.779-448.779s-200.925-448.779-448.779-448.779c-247.854 0-448.779 200.925-448.779 448.779v0c0.278 247.742 201.037 448.501 448.753 448.779h0.027zM512 22.41c223.265 0 404.257 180.992 404.257 404.257s-180.992 404.257-404.257 404.257c-223.265 0-404.257-180.992-404.257-404.257v0c0.253-223.163 181.094-404.004 404.233-404.257h0.024zM534.261 725.408h-44.522v213.259h44.522zM534.261-85.333h-44.522v213.259h44.522zM1024 404.406h-213.259v44.522h213.259zM213.259 404.406h-213.259v44.522h213.259zM511.777 619.446c59.351-0.076 107.444-48.169 107.52-107.513v-170.97c0-59.382-48.138-107.52-107.52-107.52s-107.52 48.138-107.52 107.52v0 170.963c0.076 59.351 48.169 107.444 107.513 107.52h0.007zM511.777 277.964c34.773 0.051 62.948 28.226 62.998 62.993v170.968c0 34.793-28.205 62.998-62.998 62.998s-62.998-28.205-62.998-62.998v0-170.963c0.051-34.773 28.226-62.948 62.993-62.998h0.005zM416.501 534.543l-85.037 42.741 20.035 39.802 85.037-42.741zM607.499 534.543l-20.035 39.802 85.037 42.741 19.99-39.758zM351.41 236.114l-19.857 40.070 85.037 42.296 19.812-40.070zM672.59 236.114l-85.037 42.385 19.812 40.070 85.081-42.385zM725.259 404.406h-127.777v44.522h127.777zM426.518 404.406h-127.777v44.522h127.777z" />
<glyph unicode="&#xe940;" glyph-name="umbrella-protection-thin" horiz-adv-x="917" d="M263.509 306.518h-45.511c-3.203 45.13-40.601 80.529-86.267 80.529-45.441 0-82.696-35.051-86.201-79.592l-0.019-0.3-45.511 0.546c1.2 72.073 59.773 130.072 131.956 130.344h0.026c72.609-0.078 131.449-58.918 131.527-131.52v-0.007zM435.541 307.246c0 47.505-38.511 86.016-86.016 86.016s-86.016-38.511-86.016-86.016v0l-45.511 0.364c0 72.64 58.887 131.527 131.527 131.527s131.527-58.887 131.527-131.527v0zM698.596 306.518h-45.511c0 0.108 0.001 0.236 0.001 0.364 0 47.506-38.511 86.017-86.017 86.017-47.378 0-85.809-38.304-86.016-85.633v-0.020l-45.511 0.364c0.871 72.067 59.371 130.183 131.503 130.435h0.024c72.609-0.078 131.449-58.918 131.527-131.52v-0.007zM871.083 306.427c-3.154 45.174-40.574 80.625-86.273 80.625-45.411 0-82.646-35.005-86.194-79.503l-0.019-0.303-45.511 0.364c0.871 72.067 59.371 130.183 131.503 130.435h0.024c72.638-0.153 131.518-58.841 131.982-131.392v-0.044zM916.594 327.453h-45.511v45.511c0.001 0.25 0.001 0.546 0.001 0.842 0 227.976-184.811 412.787-412.787 412.787-227.68 0-412.306-184.331-412.786-411.899v-45.557h-45.511v45.511c1.215 252.189 205.934 456.158 458.292 456.158 0.002 0 0.003 0 0.005 0v0c252.935 0 458.012-204.901 458.297-457.769v-0.027zM481.052 808.050h-45.511v130.617h45.511zM371.507-85.333c-60.617 0.075-109.784 48.987-110.273 109.499v45.558h45.511v-45.511c0-35.566 28.832-64.398 64.398-64.398s64.398 28.832 64.398 64.398v0 304.924h45.511v-304.924c-0.561-60.273-49.272-108.984-109.492-109.545h-0.053z" />
<glyph unicode="&#xe941;" glyph-name="unlocked-thin" d="M46.545 494.158h935.098v-579.491h-935.098zM935.098 447.612h-842.007v-486.4h842.007zM825.251 447.612h-645.12v156.858c0 184.572 149.625 334.196 334.196 334.196s334.196-149.625 334.196-334.196v0h-46.545c0 158.865-128.786 287.651-287.651 287.651s-287.651-128.786-287.651-287.651v0-110.313h598.575zM514.327 316.354c37.274 0 67.491-30.217 67.491-67.491s-30.217-67.491-67.491-67.491c-37.274 0-67.491 30.217-67.491 67.491v0c0.053 37.253 30.238 67.438 67.486 67.491h0.005zM514.327 227.918c11.568 0 20.945 9.378 20.945 20.945s-9.378 20.945-20.945 20.945c-11.568 0-20.945-9.378-20.945-20.945v0c0.026-11.557 9.388-20.919 20.943-20.945h0.003zM537.6 71.060h-46.545v133.585h46.545z" />
<glyph unicode="&#xe942;" glyph-name="user-key-thin" horiz-adv-x="962" d="M457.842 938.667c156.843 0 283.989-127.146 283.989-283.989s-127.146-283.989-283.989-283.989c-156.843 0-283.989 127.146-283.989 283.989v0c0.181 156.77 127.22 283.808 283.972 283.989h0.017zM457.842 416.199c131.708 0 238.478 106.77 238.478 238.478s-106.77 238.478-238.478 238.478c-131.708 0-238.478-106.77-238.478-238.478v0c0.155-131.645 106.833-238.323 238.463-238.478h0.015zM45.511-85.333h-45.511v86.926c0 0.068 0 0.148 0 0.229 0 209.132 140.357 385.482 332.010 439.989l3.225 0.784 12.151-43.873c-175.336-50.15-301.57-208.856-301.875-397.094v-0.035zM661.732 329.273h146.546c84.664-0.104 153.269-68.709 153.372-153.362v-86.936c0-0.021 0-0.046 0-0.071 0-42.349-17.108-80.702-44.789-108.525l0.006 0.006c-27.52-27.663-65.615-44.784-107.708-44.784-0.15 0-0.299 0-0.449 0.001h-144.839l-45.511 86.926h-300.373l-109.818 109.636 109.591 110.182h298.462zM808.869-18.887c0.090 0 0.197 0 0.304 0 29.565 0 56.323 12.022 75.65 31.444l0.004 0.004c19.435 19.546 31.448 46.489 31.448 76.238 0 0.029 0 0.059 0 0.088v-0.005 87.017c-0.078 59.539-48.322 107.784-107.854 107.861h-119.383l-45.511-86.926h-306.836l-64.262-64.58 64.216-64.216h309.476l45.511-86.926zM480.597 45.284h-45.511v86.926h45.511zM828.757 88.975h-45.511v86.926h45.511z" />
<glyph unicode="&#xe943;" glyph-name="view-monitor-thin" d="M111.709 938.667h800.582c0.173 0.001 0.377 0.002 0.581 0.002 30.683 0 58.457-12.453 78.544-32.581l0.002-0.002c20.138-20.307 32.583-48.271 32.583-79.142 0-0.159 0-0.317-0.001-0.476v0.025-621.847c0-0.098 0-0.214 0-0.331 0-30.864-12.445-58.822-32.59-79.13l0.007 0.007c-20.089-20.13-47.863-32.583-78.546-32.583-0.204 0-0.408 0.001-0.612 0.002h-800.551c-0.173-0.001-0.377-0.002-0.581-0.002-30.683 0-58.457 12.453-78.544 32.581l-0.002 0.002c-20.138 20.307-32.583 48.271-32.583 79.142 0 0.159 0 0.317 0.001 0.476v-0.025 621.708c-0.001 0.14-0.001 0.305-0.001 0.47 0 30.865 12.445 58.823 32.59 79.13l-0.007-0.007c20.089 20.13 47.863 32.583 78.546 32.583 0.204 0 0.408-0.001 0.612-0.002h-0.031zM822.924 892.122h-711.215c-0.053 0-0.116 0-0.178 0-17.939 0-34.173-7.295-45.899-19.081l-0.003-0.003c-11.794-11.856-19.084-28.201-19.084-46.249 0-0.104 0-0.208 0.001-0.312v0.016-621.847c0-0.082-0.001-0.18-0.001-0.277 0-18.054 7.29-34.406 19.087-46.271l-0.003 0.003c11.728-11.788 27.963-19.084 45.902-19.084 0.063 0 0.125 0 0.188 0h800.572c0.053 0 0.116 0 0.178 0 17.939 0 34.173 7.295 45.899 19.081l0.003 0.003c11.794 11.856 19.084 28.201 19.084 46.249 0 0.104 0 0.208-0.001 0.312v-0.016 621.847c0 0.082 0.001 0.18 0.001 0.277 0 18.054-7.29 34.406-19.087 46.271l0.003-0.003c-11.728 11.788-27.963 19.084-45.902 19.084-0.063 0-0.125 0-0.188 0h-89.357zM535.273-62.060h-46.545v177.804h46.545zM734.022-85.333h-444.044v46.545h444.044zM1000.727 270.274h-977.455v46.545h977.455zM512 740.942c102.965-0.218 192.856-55.984 241.32-138.915l0.716-1.326 6.656-11.59-6.656-11.59c-49.107-84.399-139.133-140.23-242.199-140.23s-193.093 55.832-241.484 138.901l-0.715 1.329-6.516 11.59 6.842 11.59c49.18 84.257 139.071 140.024 242.005 140.241h0.031zM706.746 589.111c-42.197 63.78-113.615 105.272-194.723 105.272s-152.525-41.491-194.185-104.407l-0.538-0.865c42.197-63.78 113.615-105.272 194.723-105.272s152.525 41.491 194.185 104.407l0.538 0.865zM512 636.587c26.22 0 47.476-21.256 47.476-47.476s-21.256-47.476-47.476-47.476c-26.22 0-47.476 21.256-47.476 47.476v0c0.026 26.21 21.267 47.45 47.474 47.476h0.003z" />
<glyph unicode="&#xe944;" glyph-name="view-padlock-thin" d="M490.589 938.667c184.486-0.212 333.984-149.71 334.196-334.176v-154.552h-668.393v154.531c0.212 184.486 149.71 333.984 334.176 334.196h0.021zM778.24 496.485v107.985c0 158.865-128.786 287.651-287.651 287.651s-287.651-128.786-287.651-287.651v0-107.985zM446.371 181.372h-88.902v46.545h88.902zM268.567 181.372h-88.902v46.545h88.902zM740.305-85.333c-94.69 0.139-177.486 50.928-222.761 126.72l-0.657 1.187-6.703 11.729 6.796 11.729c45.727 77.758 128.981 129.126 224.233 129.126s178.506-51.368 223.572-127.912l0.661-1.213 20.294-34.956h-29.37c-47.1-70.402-126.211-116.19-216.030-116.41h-0.034zM564.596 54.303c38.706-56.553 102.928-93.182 175.705-93.182 73.368 0 138.042 37.227 176.163 93.822l0.48 0.757c-38.832 56.35-103.008 92.815-175.702 92.815-73.286 0-137.917-37.062-176.17-93.466l-0.477-0.746zM734.953 101.78c25.192 0 45.615-20.422 45.615-45.615s-20.422-45.615-45.615-45.615c-25.192 0-45.615 20.422-45.615 45.615v0c0.026 25.182 20.433 45.588 45.612 45.615h0.003zM446.371-85.333h-423.098v579.956h935.098v-245.76h-46.545v199.215h-842.007v-486.865h376.553z" />
<glyph unicode="&#xe945;" glyph-name="virus-thin" d="M511.976-75.852l-75.848 134.841c-147.643 31.358-261.956 145.655-292.896 290.815l-0.442 2.475-133.309 74.364 134.841 75.848c31.358 147.643 145.655 261.956 290.815 292.896l2.475 0.442 74.364 133.309 75.848-134.841c147.643-31.358 261.956-145.655 292.896-290.815l0.442-2.475 133.596-74.364-133.596-74.364c-30.942-148.677-146.098-263.833-292.323-294.346l-2.451-0.428zM107.548 426.643l78.434-43.67 1.963-11.253c24.643-136.844 130.971-243.173 265.809-267.515l2.007-0.3 11.205-1.963 45.011-79.727 43.67 78.482 11.301 1.915c137.817 24.189 244.967 131.339 268.868 267.177l0.288 1.979 1.915 11.301 78.195 43.574-78.243 43.527-1.963 11.253c-24.643 136.844-130.971 243.173-265.809 267.515l-2.007 0.3-11.205 1.963-45.011 79.871-43.67-78.434-11.253-1.963c-136.844-24.643-243.173-130.971-267.515-265.809l-0.3-2.007-1.963-11.205zM902.997 1.72l-158.975 158.975 33.902 33.902 158.975-158.975zM246.028 658.689l-158.975 158.975 33.902 33.902 158.975-158.975zM120.955 1.72l-33.854 33.854 158.975 158.975 33.854-33.854zM777.924 658.689l-33.854 33.854 158.975 158.975 33.854-33.854zM18.387 196.273l-18.387 44.149 83.797 34.955 18.435-44.197zM940.155 577.909l-18.387 44.149 83.797 34.955 18.435-44.197zM1005.565 196.273l-83.797 34.955 18.387 44.149 83.797-34.955zM83.797 577.909l-83.797 34.955 18.387 44.149 83.797-34.955zM316.561 836.435l-34.955 83.797 44.149 18.387 34.955-83.797zM698.197-85.333l-34.955 83.797 44.149 18.387 34.955-83.797zM325.755-85.333l-44.197 18.435 34.955 83.797 44.197-18.435zM707.391 836.435l-44.197 18.435 34.955 83.797 44.197-18.435zM511.976 405.095c63.205 0 114.443-51.238 114.443-114.443s-51.238-114.443-114.443-114.443c-63.205 0-114.443 51.238-114.443 114.443v0c0.082 63.172 51.271 114.361 114.435 114.443h0.008zM511.976 224.094c36.759 0 66.559 29.799 66.559 66.559s-29.799 66.559-66.559 66.559c-36.759 0-66.559-29.799-66.559-66.559v0c0.054-36.738 29.821-66.504 66.554-66.559h0.005zM375.985 517.144c0-25.123-20.366-45.49-45.49-45.49s-45.49 20.366-45.49 45.49c0 25.123 20.366 45.49 45.49 45.49s45.49-20.366 45.49-45.49zM602.477 632.066c38.346 0 69.432-31.086 69.432-69.432s-31.086-69.432-69.432-69.432c-38.346 0-69.432 31.086-69.432 69.432v0c0.054 38.324 31.108 69.377 69.427 69.432h0.005zM602.477 541.086c11.901 0 21.548 9.647 21.548 21.548s-9.647 21.548-21.548 21.548c-11.901 0-21.548-9.647-21.548-21.548v0c0.027-11.89 9.658-21.521 21.545-21.548h0.003z" />
<glyph unicode="&#xe946;" glyph-name="vision-thin" d="M44.522 649.276h-44.522v289.391h289.391v-44.522h-244.87zM1024 649.276h-44.522v244.87h-244.87v44.522h289.391zM289.391-85.333h-289.391v289.391h44.522v-244.87h244.87zM1024-85.333h-289.391v44.522h244.87v244.87h44.522zM512 147.026c-197.477 0.317-369.945 107.086-463.123 265.978l-1.373 2.533-6.411 11.13 6.411 11.13c94.341 161.641 266.947 268.527 464.518 268.527s370.177-106.886 463.147-265.988l1.371-2.539 6.411-11.13-6.411-11.13c-94.557-161.437-267.045-268.21-464.496-268.511h-0.043zM92.65 426.667c87.866-141.946 242.719-235.091 419.328-235.091s331.462 93.145 418.115 232.989l1.213 2.101c-87.866 141.946-242.719 235.091-419.328 235.091s-331.462-93.145-418.115-232.989l-1.213-2.101zM512 582.493c86.060 0 155.826-69.766 155.826-155.826s-69.766-155.826-155.826-155.826c-86.060 0-155.826 69.766-155.826 155.826v0c0 86.060 69.766 155.826 155.826 155.826v0zM512 315.363c61.472 0 111.304 49.833 111.304 111.304s-49.833 111.304-111.304 111.304c-61.472 0-111.304-49.833-111.304-111.304v0c0-61.472 49.833-111.304 111.304-111.304v0z" />
<glyph unicode="&#xe947;" glyph-name="warning-thin" d="M299.892 938.667h424.215l299.892-299.892v-424.215l-299.892-299.892h-424.215l-299.892 299.892v424.215zM704.838 892.122h-385.676l-272.617-272.617v-385.676l272.617-272.617h385.676l272.617 272.617v385.676zM535.273 337.765h-46.545v355.607h46.545zM535.273 159.962h-46.545v88.902h46.545z" />
<glyph unicode="&#xe948;" glyph-name="window-padlock-thin" d="M645.12 47.787h-645.12v890.88h935.098v-556.684h-46.545v510.138h-842.007v-797.789h598.575zM911.825 625.416h-888.553v46.545h888.553zM245.295 759.002h-88.902v46.545h88.902zM423.098 759.002h-88.902v46.545h88.902zM710.749 139.016h313.251v-224.349h-313.251zM977.455 92.471h-220.16v-131.258h220.16zM867.607 316.82c61.92-0.079 112.095-50.254 112.175-112.167v-112.183h-224.349v112.175c0.079 61.92 50.254 112.095 112.167 112.175h0.008zM933.236 139.016v65.629c0 36.246-29.383 65.629-65.629 65.629s-65.629-29.383-65.629-65.629v0-65.629z" />
<glyph unicode="&#xe949;" glyph-name="window-shield-thin" horiz-adv-x="1027" d="M467.742 46.976h-467.742v891.691h935.949v-379.225h-46.588v332.637h-842.773v-798.515h421.154zM912.655 625.131h-889.361v46.588h889.361zM245.518 758.838h-88.983v46.588h88.983zM423.483 758.838h-88.983v46.588h88.983zM783.048-85.333h-9.318l-3.308 0.978c-136.604 42.115-234.235 167.042-234.663 314.837v193.669l243.608 70.534 247.894-70.441v-192.314c-0.269-150.198-101.172-276.755-238.867-315.861l-2.319-0.563zM582.348 388.931v-158.399c0-0.078 0-0.171 0-0.263 0-125.083 81.546-231.12 194.376-267.848l1.992-0.561c117.43 35.993 201.436 143.221 201.958 270.148v156.922l-201.213 57.303z" />
</font>
</defs>
</svg>
