<?xml version="1.0" standalone="no"?>
<!DOCTYPE svg PUBLIC "-//W3C//DTD SVG 1.1//EN" "http://www.w3.org/Graphics/SVG/1.1/DTD/svg11.dtd" >
<svg xmlns="http://www.w3.org/2000/svg">
<metadata>Generated by IcoMoon</metadata>
<defs>
<font id="school" horiz-adv-x="1024">
<font-face units-per-em="1024" ascent="960" descent="-64" />
<missing-glyph horiz-adv-x="1024" />
<glyph unicode="&#x20;" horiz-adv-x="512" d="" />
<glyph unicode="&#xe900;" glyph-name="abacus-thin" horiz-adv-x="1003" d="M959.715 88.829h-915.947v849.838h45.592v-804.246h824.762v804.246h45.592zM0 134.421h1003.028v-219.754h-1003.028zM957.435 88.829h-911.843v-128.57h911.843zM936.919 828.79h-870.81v45.592h870.81zM263.067 764.505h-45.592v174.162h45.592zM393.916 764.505h-45.592v174.162h45.592zM524.31 764.505h-45.592v174.162h45.592zM936.919 567.547h-870.81v45.592h870.81zM437.229 503.262h-45.592v174.162h45.592zM567.622 503.262h-45.592v174.162h45.592zM785.553 503.262h-45.592v174.162h45.592zM936.919 306.304h-870.81v45.592h870.81zM263.067 242.019h-45.592v174.162h45.592zM393.916 242.019h-45.592v174.162h45.592zM698.472 242.019h-45.592v174.162h45.592z" />
<glyph unicode="&#xe901;" glyph-name="backpack-thin" d="M422.633 760.863h177.804c135.408-0.159 245.136-109.886 245.295-245.279v-600.917h-668.393v600.902c0.159 135.408 109.886 245.136 245.279 245.295h0.015zM799.185-38.788v554.356c-0.132 109.713-89.036 198.617-198.737 198.749h-177.816c-109.713-0.132-198.617-89.036-198.749-198.737v-554.368zM486.772 938.667h48.966c72.974-0.079 132.11-59.215 132.189-132.181v-92.168h-312.785v92.16c0.157 72.747 58.928 131.715 131.585 132.189h0.045zM621.382 760.863v45.615c-0.053 47.278-38.365 85.591-85.639 85.644h-48.785c-47.097-0.316-85.167-38.517-85.271-85.634v-45.625zM799.185 316.82h98.676c69.407 0 125.673-56.266 125.673-125.673v0-150.807c0-69.407-56.266-125.673-125.673-125.673v0h-98.676zM897.862-38.788c43.701 0 79.127 35.426 79.127 79.127v0 150.807c0 43.701-35.426 79.127-79.127 79.127v0h-52.131v-309.062zM223.884-85.333h-98.211c-69.407 0-125.673 56.266-125.673 125.673v0 150.807c0 69.407 56.266 125.673 125.673 125.673v0h98.211zM125.673 270.274c-43.701 0-79.127-35.426-79.127-79.127v0-150.807c0-43.701 35.426-79.127 79.127-79.127v0h51.665v309.062zM689.338 225.591h-355.607v46.545h355.607zM623.709 159.962h-46.545v88.902h46.545z" />
<glyph unicode="&#xe902;" glyph-name="bookshelf-books-thin" d="M46.545 938.667h491.055v-1024h-491.055zM491.055 892.122h-397.964v-930.909h397.964zM491.055 938.667h491.055v-1024h-491.055zM935.564 892.122h-397.964v-930.909h397.964zM381.207 714.318h-177.804v46.545h177.804zM381.207 536.514h-177.804v46.545h177.804zM825.251 714.318h-177.804v46.545h177.804zM825.251 536.514h-177.804v46.545h177.804zM46.545 405.722h313.251v-313.251h-313.251zM313.251 359.176h-220.16v-220.16h220.16zM491.055 405.722h313.251v-313.251h-313.251zM757.76 359.176h-220.16v-220.16h220.16z" />
<glyph unicode="&#xe903;" glyph-name="bookshelf-library-thin" d="M1019.548-63.072h-1019.548v44.522h1019.548zM62.33 916.406h256.89v-979.478h-256.89zM274.699 871.884h-167.847v-890.435h167.847zM275.144 661.297h214.595v-724.369h-214.595zM445.217 616.775h-125.551v-635.325h125.551zM699.882 874.11h256.89v-937.183h-256.89zM912.25 829.589h-167.847v-848.139h167.847zM445.217 789.074h299.631v-852.146h-299.631zM700.327 744.552h-210.588v-763.103h210.588zM467.478 149.297h-170.073v44.522h170.073zM637.106 107.001h-85.037v44.522h85.037zM297.405 107.001h-212.814v44.522h212.814zM297.405 701.811h-212.814v44.522h212.814z" />
<glyph unicode="&#xe904;" glyph-name="book-thin" d="M916.015-85.333h-711.121c-61.553 0.527-111.247 50.547-111.247 112.175 0 61.954 50.224 112.178 112.178 112.178 0.327 0 0.654-0.001 0.981-0.004h709.21v-46.545h-709.353c-0.173 0.002-0.377 0.003-0.582 0.003-36.247 0-65.632-29.384-65.632-65.632 0-36.043 29.054-65.3 65.019-65.629h710.547zM895.069-62.060h-46.545v177.804h46.545zM205.219 938.667h734.068v-846.196h-734.022c-36.225-0.053-65.576-29.404-65.629-65.624v-0.005h-46.545v799.651c0.495 61.703 50.343 111.6 111.98 112.174h0.055zM892.742 892.122h-687.43c-36.156-0.365-65.363-29.605-65.675-65.739v-708.638c18.157 13.294 40.934 21.271 65.574 21.271 0.019 0 0.039 0 0.058 0h687.473zM315.113 300.017v638.65h224.349v-638.278l-113.012 55.622zM426.263 408.049l66.653-32.815v516.887h-131.258v-516.655z" />
<glyph unicode="&#xe905;" glyph-name="cells-thin" d="M279.273-93.060l-256 153.6v305.617l256 153.6 256-153.6v-305.617zM69.818 86.885l209.455-125.673 209.455 125.673v252.928l-209.455 125.673-209.455-125.673zM744.727-93.060l-256 153.6v305.617l256 153.6 256-153.6v-305.617zM535.273 86.885l209.455-125.673 209.455 125.673v252.928l-209.455 125.673-209.455-125.673zM512 325.85l-256 153.6v305.617l256 153.6 256-153.6v-305.617zM302.545 505.794l209.455-125.673 209.455 125.673v252.928l-209.455 125.673-209.455-125.673z" />
<glyph unicode="&#xe906;" glyph-name="clipboard-lines-document-thin" d="M93.091 849.765h268.428v-23.273c0.392-36.185 29.7-65.395 65.886-65.629h178.291c17.659 0.025 33.59 7.408 44.894 19.246l0.023 0.024 0.838 0.838c11.883 11.339 19.271 27.299 19.271 44.984 0 0.124 0 0.247-0.001 0.37v-0.019 23.273h268.567v-934.912h-846.196zM317.626 803.22h-177.99v-842.007h753.105v842.007h-177.897c-4.913-21.947-15.885-40.822-31.053-55.352l-0.039-0.037c-19.794-20.536-47.521-33.31-78.231-33.373h-178.235c-53.507 0.406-98.145 37.888-109.516 88.004l-0.145 0.758zM427.148 938.667h177.943c61.703-0.495 111.6-50.343 112.174-111.98v-0.055c0-0.073 0-0.16 0-0.247 0-30.857-12.843-58.715-33.476-78.519l-0.037-0.035c-19.8-20.519-47.527-33.276-78.233-33.327h-178.233c-61.638 0.494-111.496 50.237-112.174 111.784l-0.001 0.065v0.605c0.777 61.38 50.329 110.932 111.635 111.708l0.074 0.001zM605.649 760.863c17.659 0.025 33.59 7.408 44.894 19.246l0.023 0.024 0.838 0.838c11.883 11.339 19.271 27.299 19.271 44.984 0 0.124 0 0.247-0.001 0.37v-0.019c-0.287 36.2-29.53 65.476-65.69 65.815h-177.556c-36.030-0.64-65.076-29.653-65.768-65.61l-0.001-0.065c0.417-36.116 29.637-65.271 65.739-65.582h178.299zM782.895 492.296h-533.411v46.545h533.411zM782.895 314.492h-533.411v46.545h533.411zM560.407 136.689h-310.924v46.545h310.924z" />
<glyph unicode="&#xe907;" glyph-name="clip-thin" d="M211.923 448.928h595.256c82.577-0.101 149.492-67.016 149.593-149.583v-362.417h-894.442v362.407c0.117 41.378 16.902 78.814 43.99 105.965l-0.003-0.003c26.911 26.956 64.112 43.632 105.208 43.632 0.14 0 0.28 0 0.419-0.001h-0.022zM912.25-18.55v317.885c-0.076 57.999-47.073 104.995-105.064 105.071h-595.263c-0.088 0-0.192 0-0.297 0-28.856 0-54.978-11.707-73.876-30.63l-0.001-0.001c-19.029-19.071-30.82-45.371-30.898-74.425v-317.9zM1019.548-63.072h-1019.548v44.522h1019.548zM807.179 64.26h-146.031l-90.201 540.182 101.242 100.263c17.708 17.722 28.66 42.198 28.66 69.231 0 54.095-43.853 97.948-97.948 97.948-0.027 0-0.054 0-0.081 0h-185.206c-54.095 0-97.948-43.853-97.948-97.948v0c-0.006-0.401-0.009-0.875-0.009-1.349 0-26.545 10.661-50.6 27.935-68.116l100.074-100.074-89.266-540.138h-146.031v44.522h108.455l79.204 480.301-84.102 84.057c-25.214 25.498-40.79 60.571-40.79 99.283 0 0.532 0.003 1.064 0.009 1.595l-0.001-0.081c0 78.684 63.786 142.47 142.47 142.47h185.21c0.020 0 0.044 0 0.068 0 78.684 0 142.47-63.786 142.47-142.47 0-39.37-15.969-75.010-41.783-100.796l-0.001-0.001-84.903-84.102 80.139-480.256h108.366z" />
<glyph unicode="&#xe908;" glyph-name="compass-geometry-thin" d="M857.043-102.696l-267.13 601.934-12.466 28.494c38.877 22.627 64.593 64.1 64.593 111.579 0 71.061-57.607 128.668-128.668 128.668s-128.668-57.607-128.668-128.668c0-35.811 14.63-68.205 38.239-91.532l0.013-0.012 21.816-21.816-12.021-26.713-267.13-601.934-76.577 34.727 267.13 601.934 9.795-48.529c-40.9 38.931-66.337 93.782-66.337 154.575 0 117.78 95.479 213.259 213.259 213.259s213.259-95.479 213.259-213.259c0-60.793-25.437-115.644-66.249-154.492l-0.088-0.083 9.795 48.529 267.13-601.934-77.913-34.727zM682.518 318.924h-341.037v44.522h341.037zM534.261 256.149h-44.522v170.518h44.522zM534.261 810.444h-44.522v128.223h44.522z" />
<glyph unicode="&#xe909;" glyph-name="compass-tool-thin" d="M235.638 857.861c0.127 0 0.278 0.001 0.429 0.001 42.369 0 80.712-17.232 108.405-45.070l0.006-0.007c27.837-27.986 45.051-66.561 45.075-109.157v-0.005c0.012-0.695 0.018-1.515 0.018-2.336 0-18.5-3.366-36.214-9.519-52.563l0.34 1.028c-16.084-43.152-49.965-76.403-92.475-91.292l-1.065-0.325c-15.327-5.813-33.049-9.179-51.556-9.179-0.798 0-1.594 0.006-2.388 0.019l0.12-0.001c-84.834 0.61-153.37 69.523-153.37 154.443 0 85.299 69.148 154.447 154.447 154.447 0.379 0 0.757-0.001 1.135-0.004h-0.058zM235.363 594.921c0.005 0 0.012 0 0.018 0 12.888 0 25.226 2.352 36.609 6.65l-0.714-0.236h0.504c30.574 10.603 54.356 33.891 65.403 63.398l0.241 0.734c4.042 10.641 6.382 22.944 6.382 35.794 0 0.606-0.005 1.21-0.016 1.814l0.001-0.091v0.458c0 0.066 0 0.144 0 0.221 0 29.966-12.11 57.104-31.704 76.787l0.004-0.004c-19.454 19.526-46.367 31.608-76.103 31.608-0.123 0-0.247 0-0.37-0.001h-0.347c-0.252 0.002-0.55 0.003-0.847 0.003-59.961 0-108.569-48.608-108.569-108.569 0-59.663 48.126-108.086 107.676-108.566h0.046zM131.47 774.765l-131.47 131.47 32.432 32.432 131.47-131.47zM724.001 636.607h-397.983l11.315 30.829c4.042 10.641 6.382 22.944 6.382 35.794 0 0.606-0.005 1.21-0.016 1.814l0.001-0.091c-0.82 58.994-48.568 106.566-107.553 107.1h-0.967v45.808h636.278v-123.224zM388.088 682.415h322.033l115.529 76.866v52.771h-480.438c27.131-27.359 44.002-64.929 44.342-106.439v-0.065c0.013-0.734 0.020-1.599 0.020-2.467 0-7.29-0.524-14.457-1.535-21.467l0.095 0.8zM80.806 703.579h45.808v-1.008c0.26-59.509 48.562-107.65 108.107-107.65 0 0 0.001 0 0.001 0h0.687c0.029 0 0.063 0 0.096 0 12.841 0 25.137 2.335 36.486 6.603l-0.714-0.236 30.783 11.315v-397.983l-98.030-147.411h-123.224zM234.722 549.113c-0.133 0-0.291-0.001-0.449-0.001-41.998 0-80.040 16.937-107.669 44.353l0.010-0.010v-480.438h52.771l76.866 115.483v322.079c-6.26-0.93-13.487-1.462-20.839-1.466h-0.004zM170.59-85.333h-45.808v175.446h45.808zM1024 768.077h-175.446v45.808h175.446zM279.614 330.149h-0.458v45.808c0.136 0 0.297 0 0.458 0 156.349 0 283.096 126.746 283.096 283.096 0 0.145 0 0.29 0 0.435v-0.022h45.808c0-0.122 0-0.267 0-0.412 0-181.649-147.255-328.904-328.904-328.904 0 0 0 0-0.001 0v0zM547.868 358.367l-131.47 131.47 32.432 32.432 131.47-131.47zM301.19-62.429v45.808c360.664 1.529 652.621 293.518 654.097 654.048v0.142h45.808c-0.754-386.262-313.651-699.191-699.829-699.997h-0.077z" />
<glyph unicode="&#xe90a;" glyph-name="desk-lamp-light-thin" d="M475.194 766.882l0.362-0.362c94.694-94.956 94.683-248.635-0.022-343.564l-38.519-38.519-343.937 343.937 38.508 38.508c94.885 94.885 248.723 94.885 343.608 0v0zM437.015 450.262l5.595 5.595c76.576 76.764 76.576 201.019 0.009 277.774l-0.338 0.338c-76.707 76.707-201.075 76.707-277.782 0v0l-5.595-5.595zM536.529 616.852l-32.954 32.582 57.716 57.716c18.571 18.553 30.058 44.194 30.058 72.518 0 56.613-45.894 102.506-102.506 102.506-28.289 0-53.901-11.459-72.449-29.989l-57.669-57.715-32.908 32.908 57.716 57.716c26.968 26.991 64.235 43.686 105.402 43.686 82.288 0 148.995-66.708 148.995-148.995 0-41.121-16.658-78.351-43.594-105.31l0.001 0.001zM724.247-82.447l-41.612 20.806 219.555 439.11v29.556l-304.128 304.128 32.908 32.908 317.719-317.719v-59.811zM881.245-95.294h-622.313v46.545h622.313zM415.791-72.021h-46.545v88.902h46.545z" />
<glyph unicode="&#xe90b;" glyph-name="dna-science-thin" d="M519.658 400.978l-85.482 46.57c-167.568 98.081-278.333 277.197-278.333 482.183 0 3.142 0.026 6.278 0.078 9.407l-0.006-0.471 44.522-0.712c-0.042-2.454-0.066-5.348-0.066-8.249 0-188.494 101.806-353.21 253.432-442.161l2.411-1.308 63.443-34.593 63.443 34.593c154.038 90.259 255.844 254.975 255.844 443.469 0 2.9-0.024 5.795-0.072 8.684l0.006-0.435 44.522 0.712c0.046-2.658 0.072-5.794 0.072-8.936 0-204.986-110.764-384.102-275.706-480.761l-3.116-1.689zM883.4-86.045l-44.522 0.712c0.042 2.454 0.066 5.348 0.066 8.249 0 188.494-101.806 353.21-253.432 442.161l-2.411 1.308-63.443 34.593-63.443-34.593c-154.038-90.259-255.844-254.975-255.844-443.469 0-2.9 0.024-5.795 0.072-8.684l-0.006 0.435-44.522-0.712c-0.046 2.658-0.072 5.794-0.072 8.936 0 204.986 110.764 384.102 275.706 480.761l3.116 1.689 84.992 46.303 85.482-46.57c167.568-98.081 278.333-277.197 278.333-482.183 0-3.142-0.026-6.278-0.078-9.407l0.006 0.471zM853.126 787.827h-503.986v44.522h503.986zM787.679 617.309h-353.503v44.522h353.503zM605.139 190.791h-353.503v44.522h353.503zM690.176 19.827h-503.986v44.522h503.986z" />
<glyph unicode="&#xe90c;" glyph-name="education-thin" d="M785.809-63.072h-785.809v44.522h785.809c46.35 0 83.923 37.574 83.923 83.923s-37.574 83.923-83.923 83.923h-785.809v44.522h785.809c70.938 0 128.445-57.507 128.445-128.445s-57.507-128.445-128.445-128.445v0zM100.486-56.394l-31.789 31.165c23.044 23.423 37.482 55.375 38.153 90.696l0.002 0.128c-0.643 35.292-15.076 67.093-38.12 90.344l0.010-0.010 31.699 31.165c30.853-31.141 50.158-73.77 50.931-120.907l0.002-0.148v-0.757c-0.744-47.479-20.029-90.313-50.912-121.702l0.023 0.024zM1019.548 149.297h-785.809c-71.031 0.076-128.592 57.637-128.668 128.66v0.452c1.497 69.903 58.518 125.997 128.64 125.997 0.010 0 0.019 0 0.029 0h785.807v-44.522h-785.809c-45.858 0-83.033-37.175-83.033-83.033s37.175-83.033 83.033-83.033h785.809zM918.84 156.197c-30.283 31.567-48.928 74.501-48.928 121.789s18.646 90.223 48.987 121.85l-0.058-0.061 32.189-30.765c-22.635-23.592-36.572-55.681-36.572-91.025s13.937-67.433 36.616-91.070l-0.043 0.045zM604.783 788.139c38.879-0.010 73.857-16.701 98.167-43.306l0.092-0.103c25.701-28.874 41.403-67.14 41.403-109.074 0-1.317-0.015-2.63-0.046-3.939l0.004 0.194c-1.049-62.725-16.51-121.601-43.202-173.78l1.040 2.238c-32.634-62.865-77.735-97.458-127.021-97.458-24.361 0.545-46.904 7.872-65.947 20.159l0.5-0.302c-18.273-11.376-40.361-18.292-64.033-18.742l-0.123-0.002c-58.525 5.902-106.874 44.028-127.417 96.154l-0.36 1.037c-25.882 49.624-41.534 108.203-42.691 170.326l-0.005 0.37c-0.024 1.030-0.037 2.243-0.037 3.459 0 41.793 15.872 79.879 41.918 108.558l-0.119-0.133c24.656 26.49 59.722 43.008 98.646 43.008 0.021 0 0.042 0 0.062 0h-0.003c36.068-0.482 68.941-13.773 94.366-35.52l-0.203 0.169c25.278 22.251 58.473 36.041 94.876 36.684l0.133 0.002zM575.265 407.434c42.963 0 73.283 46.035 87.485 73.461 22.587 43.965 36.204 95.796 37.127 150.718l0.004 0.3c0.324 3.046 0.508 6.58 0.508 10.157 0 54.030-42.12 98.223-95.316 101.533l-0.291 0.014c-31.553-1.025-59.549-15.431-78.637-37.698l-0.122-0.146-16.25-17.23-16.25 17.007c-19.206 21.843-46.909 35.819-77.89 36.727l-0.157 0.004c-53.723-2.794-96.226-47.035-96.226-101.203 0-3.227 0.151-6.42 0.446-9.57l-0.031 0.403c0.984-54.901 14.697-106.38 38.3-151.906l-0.902 1.912c14.381-27.381 44.967-73.372 88.376-73.372 19.615 0.962 37.427 7.962 51.805 19.164l-0.205-0.153 12.956 8.904 12.822-9.216c14.309-11.483 32.414-18.782 52.18-19.803l0.222-0.009zM532.035 766.813h-44.522c0 72.17-32.545 105.071-62.776 105.071v44.522c51.69 0 107.297-46.792 107.297-149.593z" />
<glyph unicode="&#xe90d;" glyph-name="eraser-thin" d="M375.53-85.333v0c-0.097 0-0.212 0-0.327 0-35.507 0-67.66 14.364-90.964 37.598l-246.598 246.368c-23.232 23.474-37.585 55.774-37.585 91.426s14.353 67.953 37.596 91.437l-0.011-0.011 146.872 146.688 428.992-428.992-146.319-146.872c-23.472-23.265-55.789-37.641-91.463-37.641-0.068 0-0.136 0-0.204 0h0.011zM184.513 462.855l-114.26-113.844c-14.914-15.124-24.125-35.906-24.125-58.839 0-0.023 0-0.047 0-0.070v0.004c0-0.088-0.001-0.192-0.001-0.296 0-22.878 9.253-43.595 24.22-58.612l246.276-246.276c15.006-14.91 35.685-24.125 58.517-24.125 0.072 0 0.143 0 0.215 0h-0.011c0.002 0 0.005 0 0.008 0 23.021 0 43.877 9.265 59.044 24.271l-0.007-0.007 113.798 114.121zM151.757 495.375l443.273 443.273 428.921-428.921-443.273-443.273zM595.030 873.413l-378.038-378.038 363.686-363.686 378.038 378.038z" />
<glyph unicode="&#xe90e;" glyph-name="geography-thin" d="M570.368 907.063c204.88 0 370.967-166.088 370.967-370.967s-166.088-370.967-370.967-370.967c-204.88 0-370.967 166.088-370.967 370.967v0c0.238 204.784 166.184 370.729 370.944 370.967h0.023zM570.368 211.674c179.173 0 324.422 145.249 324.422 324.422s-145.249 324.422-324.422 324.422c-179.173 0-324.422-145.249-324.422-324.422v0c0.212-179.088 145.334-324.21 324.401-324.422h0.021zM307.868 798.354c31.958 31.958 89.95 31.234 163.247-2.106 68.623-32.971 137.486-81.24 198.457-142.211 3.271-3.271 6.506-6.565 9.704-9.881l-0.483 0.497c2.82-2.716 6.113-5.95 9.385-9.221 60.971-60.971 109.239-129.835 144.805-203.302l-2.594 4.845c33.34-73.296 34.065-131.288 2.106-163.247s-89.95-31.234-163.247 2.106c-68.623 32.971-137.486 81.24-198.457 142.211-3.271 3.271-6.506 6.565-9.704 9.881l0.483-0.497c-2.82 2.716-6.113 5.95-9.385 9.221-60.971 60.971-109.239 129.835-144.805 203.302l2.594-4.845c-33.34 73.296-34.065 131.288-2.106 163.247zM799.582 306.639c31.596 31.596-11.585 162.983-153.702 305.1s-273.504 185.298-305.1 153.702 11.585-162.983 153.702-305.1 273.504-185.298 305.1-153.702zM411.741 213.256l-24.39 39.657c97.948 60.789 182.711 129.271 258.11 206.899l0.311 0.321 0.512 0.512c78.080 75.768 146.579 160.699 203.963 253.245l3.257 5.641 39.703-24.297c-62.672-101.554-133.449-189.399-213.784-267.461l-0.325-0.315c-78.33-80.569-166.024-151.359-261.51-210.81l-5.847-3.392zM287.651 352.613l-39.657 24.297c62.842 101.426 133.473 189.227 213.481 267.48l0.256 0.249c78.438 80.485 166.289 151.179 261.942 210.481l5.88 3.395 24.297-39.703c-98.169-60.602-183.104-128.943-258.657-206.471l-0.276-0.284-0.419-0.419c-77.688-75.945-146.043-160.893-203.531-253.304l-3.317-5.722zM591.639 10.83c-0.044 0-0.095 0-0.147 0-300.996 0-545.001 244.005-545.001 545.001 0 140.358 53.058 268.323 140.212 364.934l16.095 18.136 138.38-140.707-33.14-32.582-103.238 104.681c-69.544-85.023-111.687-194.815-111.687-314.449 0-275.315 223.187-498.502 498.502-498.502 119.251 0 228.721 41.873 314.511 111.717l-0.91-0.718-105.053 105.053 32.908 32.908 140.288-140.288-18.339-16.384c-95.772-86.125-223.127-138.799-362.784-138.799-0.209 0-0.419 0-0.628 0h0.032zM593.641-72.719h-46.545v87.040h46.545z" />
<glyph unicode="&#xe90f;" glyph-name="glasses-thin" d="M334.358 357.658c0.086 0 0.188 0 0.29 0 31.504 0 60.014-12.817 80.601-33.52l0.005-0.005c20.718-20.822 33.525-49.532 33.525-81.233 0-0.038 0-0.076 0-0.114v0.006-68.118c-0.249-88.107-71.353-159.523-159.316-160.278h-65.964c-88.724 0.101-160.622 71.999-160.723 160.714v182.549zM289.391 58.917c63.356 0.972 114.398 52.326 114.866 115.712v68.163c0 0.062 0 0.136 0 0.21 0 19.375-7.823 36.924-20.484 49.658l0.003-0.003c-12.582 12.651-30.001 20.48-49.249 20.48-0.060 0-0.12 0-0.18 0h-227.052v-138.017c0.076-64.146 52.056-116.126 116.194-116.202h0.007zM688.306 357.658h273.363v-182.539c-0.101-88.724-71.999-160.622-160.714-160.723h-66.347c-88.724 0.101-160.622 71.999-160.723 160.714v67.683c0 0.068 0 0.148 0 0.228 0 31.965 13.042 60.884 34.094 81.727l0.010 0.009c20.543 20.337 48.813 32.902 80.018 32.902 0.105 0 0.21 0 0.316 0h-0.016zM917.148 313.137h-227.506c-0.451 0.011-0.983 0.017-1.517 0.017-19.084 0-36.372-7.692-48.931-20.145l0.005 0.005c-12.842-12.742-20.792-30.398-20.792-49.911 0-0.109 0-0.218 0.001-0.327v0.017-67.673c0.076-64.146 52.056-116.126 116.194-116.202h66.345c64.146 0.076 116.126 52.056 116.202 116.194v0.007zM619.743 207.62h-44.522c0 34.916-28.305 63.221-63.221 63.221s-63.221-28.305-63.221-63.221v0h-44.522c0 59.505 48.238 107.743 107.743 107.743s107.743-48.238 107.743-107.743v0zM85.482 313.137h-85.482v44.522h85.482zM1024 313.137h-85.482v44.522h85.482zM63.666 327.784l-41.85 15.226 129.558 356.174c27.352 75.087 98.124 127.738 181.193 127.738 0.473 0 0.946-0.002 1.418-0.005h93.424v-44.522h-93.496c-0.378 0.003-0.826 0.005-1.274 0.005-63.911 0-118.357-40.525-139.043-97.281l-0.328-1.028zM960.334 327.784l-129.558 356.174c-21.028 58.109-75.728 98.885-139.952 98.885-0.259 0-0.518-0.001-0.776-0.002h-93.456v44.522h93.496c0.222 0.001 0.485 0.001 0.748 0.001 83.399 0 154.437-52.922 181.365-127.016l0.426-1.342 129.514-356.174z" />
<glyph unicode="&#xe910;" glyph-name="graduate-thin" d="M510.635 865.524l510.635-306.371-510.635-306.371-510.635 306.371zM926.476 559.153l-415.842 249.515-415.842-249.515 415.842-249.515zM859.282 234.886h-48.762v239.909h48.762zM510.635-21.114c-2.802-0.057-6.106-0.090-9.418-0.090-84.71 0-164.446 21.296-234.147 58.826l2.632-1.295c-59.977 27.175-102.129 84.189-107.672 151.579l-0.043 0.656v286.232h48.762v-286.232c0-87.235 137.314-160.914 299.886-160.914s299.886 73.679 299.886 160.914v46.324h48.762v-46.324c-5.586-68.045-47.738-125.060-106.569-151.769l-1.146-0.466c-67.069-36.235-146.805-57.531-231.515-57.531-3.312 0-6.616 0.033-9.912 0.097l0.494-0.008zM678.668 356.596l-185.295 185.295 34.523 34.523 185.295-185.295zM720.311 188.563h-48.762v185.295h48.762z" />
<glyph unicode="&#xe911;" glyph-name="graduation-thin" d="M514.327 449.94c258.232-0.291 467.491-209.55 467.782-467.754v-69.846h-935.564v69.818c0.291 258.232 209.55 467.491 467.754 467.782h0.028zM935.564-41.115v23.273c0 232.642-188.594 421.236-421.236 421.236s-421.236-188.594-421.236-421.236v0-23.273zM269.033 938.667h491.055v-289.978c0-135.472-109.822-245.295-245.295-245.295v0h-0.465c-135.408 0.159-245.136 109.886-245.295 245.279v0.015zM713.542 892.122h-397.964v-243.433c0.132-109.713 89.036-198.617 198.737-198.749h0.478c109.766 0 198.749 88.983 198.749 198.749v0zM515.025 713.713l-227.328 45.754 9.309 45.615 216.762-43.613 216.809 56.832 11.776-45.009zM914.153 892.122h-799.651v46.545h799.651zM593.641 206.367l-32.954 32.861 159.185 159.651 32.954-32.861zM435.014 206.367l-159.185 159.651 32.954 32.861 159.185-159.651zM514.327 272.136c61.952 0 112.175-50.222 112.175-112.175s-50.222-112.175-112.175-112.175c-61.952 0-112.175 50.222-112.175 112.175v0c0.079 61.92 50.254 112.095 112.167 112.175h0.008zM514.327 94.332c36.246 0 65.629 29.383 65.629 65.629s-29.383 65.629-65.629 65.629c-36.246 0-65.629-29.383-65.629-65.629v0c0.053-36.225 29.404-65.576 65.624-65.629h0.005z" />
<glyph unicode="&#xe912;" glyph-name="ink-pen-thin" d="M121.905 938.667h791.893v-73.143c-0.111-90.442-73.398-163.729-163.829-163.84h-464.224c-90.442 0.111-163.729 73.398-163.84 163.829v0.011zM865.036 889.905h-694.37v-24.381c0.083-63.522 51.556-114.995 115.070-115.078h464.221c63.522 0.083 114.995 51.556 115.078 115.070v0.008zM517.851-97.962l-351.72 401.798 100.059 449.048h503.32l100.059-449.048zM219.087 317.392l298.764-341.333 298.764 341.333-86.211 386.731h-425.106zM517.851 520.777c39.049 0 70.705-31.656 70.705-70.705s-31.656-70.705-70.705-70.705c-39.049 0-70.705 31.656-70.705 70.705v0c0.055 39.027 31.678 70.649 70.7 70.705h0.005zM517.851 428.13c12.119 0 21.943 9.824 21.943 21.943s-9.824 21.943-21.943 21.943c-12.119 0-21.943-9.824-21.943-21.943v0c0.028-12.108 9.835-21.915 21.94-21.943h0.003zM542.232-60.952h-48.762v464.213h48.762z" />
<glyph unicode="&#xe913;" glyph-name="language-translation-thin" horiz-adv-x="1045" d="M522.449 785.567h-522.449v45.43h522.449zM283.94 808.282h-45.43v130.385h45.43zM54.516 308.957l-21.489 40.024c96.695 53.615 177.141 125.167 239.329 210.833l1.451 2.099c53.803 67.513 88.574 152.341 95.008 244.974l0.078 1.395h45.43c0-171.681-158.098-391.019-359.808-499.325zM466.070 309.093c-129.044 72.008-232.555 176.117-301.839 301.746l-1.999 3.954 39.933 21.67c67.062-121.918 164.444-219.868 282.201-285.745l3.647-1.874zM936.319-70.386l-168.547 463.889h-11.812l-168.547-463.889-42.705 15.537 179.45 493.782h75.414l179.45-493.782zM905.427 88.665h-243.507v45.43h243.507zM653.288-85.333h-174.453v45.43h174.453zM1044.898-85.333h-173.998v45.43h173.998z" />
<glyph unicode="&#xe914;" glyph-name="library-thin" d="M270.895 760.863h491.055v-224.349h-491.055zM715.404 714.318h-397.964v-131.258h397.964zM916.015-85.333h-711.121c-61.553 0.527-111.247 50.547-111.247 112.175 0 61.954 50.224 112.178 112.178 112.178 0.327 0 0.654-0.001 0.981-0.004h709.21v-46.545h-709.353c-0.173 0.002-0.377 0.003-0.582 0.003-36.247 0-65.632-29.384-65.632-65.632 0-36.043 29.054-65.3 65.019-65.629h710.547zM895.069-62.060h-46.545v177.804h46.545zM205.219 938.667h734.068v-846.196h-734.022c-36.225-0.053-65.576-29.404-65.629-65.624v-0.005h-46.545v799.651c0.495 61.703 50.343 111.6 111.98 112.174h0.055zM892.742 892.122h-687.43c-36.156-0.365-65.363-29.605-65.675-65.739v-708.638c18.157 13.294 40.934 21.271 65.574 21.271 0.019 0 0.039 0 0.058 0h687.473z" />
<glyph unicode="&#xe915;" glyph-name="lockers-storage-thin" horiz-adv-x="1003" d="M0 938.667h524.31v-959.715h-524.31zM478.718 893.075h-433.126v-868.531h433.126zM478.718 938.667h524.31v-959.715h-524.31zM957.435 893.075h-433.126v-868.531h433.126zM849.838 718.913h-217.931v45.592h217.931zM371.12 718.913h-217.931v45.592h217.931zM849.838 544.751h-217.931v45.592h217.931zM371.12 544.751h-217.931v45.592h217.931zM414.433 370.589h-87.081v45.592h87.081zM893.151 370.589h-87.081v45.592h87.081zM132.673-85.333h-45.592v87.081h45.592zM437.229-85.333h-45.592v87.081h45.592zM611.391-85.333h-45.592v87.081h45.592zM915.947-85.333h-45.592v87.081h45.592z" />
<glyph unicode="&#xe916;" glyph-name="math-thin" horiz-adv-x="1045" d="M435.541 698.368h-435.541v45.511h435.541zM240.299 503.126h-45.511v435.541h45.511zM375.922-78.506l-348.342 347.978 32.222 32.222 347.978-348.342zM59.802-78.506l-32.222 31.858 348.342 348.342 31.858-32.222zM1044.935 698.368h-435.541v45.511h435.541zM1044.935 88.975h-435.541v45.511h435.541zM870.628 262.827h-86.926v45.511h86.926zM870.628-85.333h-86.926v45.511h86.926z" />
<glyph unicode="&#xe917;" glyph-name="media-thin" horiz-adv-x="1003" d="M501.514 413.673l-196.958 48.966v214.785h393.916v-214.785zM350.148 498.292l151.366-37.431 151.366 37.659v133.311h-302.732zM849.838 631.832h-696.648v45.592h696.648zM0 938.667h1003.028v-741.785h-1003.028zM957.435 893.075h-911.843v-650.6h911.843zM458.201-21.048h-392.093v45.592h392.093zM936.919-21.048h-348.324v45.592h348.324zM480.997-85.333h-45.592v174.162h45.592z" />
<glyph unicode="&#xe918;" glyph-name="notebook-thin" d="M111.304 875.891h811.186v-938.963h-811.186zM877.969 831.37h-722.143v-849.92h722.143zM326.344 768.149h-44.522v170.518h44.522zM539.158 768.149h-44.522v170.518h44.522zM751.972 768.149h-44.522v170.518h44.522zM772.452 448.037h-511.11v44.522h511.11zM772.452 618.11h-511.11v44.522h511.11zM772.452 277.519h-511.11v44.522h511.11zM516.897 107.446h-255.555v44.522h255.555z" />
<glyph unicode="&#xe919;" glyph-name="open-book-thin" d="M0 845.576h378.88c86.331-0.106 156.287-70.062 156.393-156.383v-622.416h-46.545v0.745c-0.023 30.144-12.257 57.426-32.022 77.171l-0.001 0.001c-19.914 19.962-47.409 32.354-77.798 32.489h-378.906zM488.727 178.673v510.511c-0.079 60.635-49.212 109.768-109.84 109.847h-332.343v-575.302h332.335c42.798-0.118 81.561-17.292 109.871-45.080l-0.024 0.024zM645.12 845.576h378.88v-668.393h-378.88c-30.391-0.082-57.886-12.409-77.826-32.305l0.002 0.002c-19.766-19.746-32-47.028-32.023-77.168v-0.843h-46.545v622.313c0.106 86.331 70.062 156.287 156.383 156.393h0.010zM977.455 799.031h-332.335c-60.635-0.079-109.768-49.212-109.847-109.84v-510.519c28.286 27.763 67.049 44.937 109.824 45.056h332.358zM1024-0.62h-1024v201.076h46.545v-154.531h930.909v154.531h46.545z" />
<glyph unicode="&#xe91a;" glyph-name="paperclip-thin" d="M407.226-85.333c-0.422-0.002-0.921-0.003-1.42-0.003-185.548 0-335.965 150.417-335.965 335.965 0 93.568 38.25 178.202 99.967 239.118l0.036 0.035 376.413 377.809c44.227 44.442 105.441 71.945 173.079 71.945 134.847 0 244.163-109.315 244.163-244.163 0-67.21-27.156-128.077-71.093-172.228l-387.248-387.248c-27.177-27.035-64.647-43.748-106.020-43.748-83.031 0-150.342 67.31-150.342 150.342 0 40.030 15.645 76.407 41.154 103.348l-0.065-0.069 359.331 365.847 33.187-32.582-358.959-365.382c-17.557-18.256-28.37-43.109-28.37-70.487 0-0.78 0.009-1.557 0.026-2.333l-0.002 0.115v-0.465c0.517-56.16 46.163-101.487 102.396-101.487 0.672 0 1.343 0.006 2.013 0.019l-0.1-0.002h0.419c28.25 0.034 53.825 11.461 72.382 29.933l387.254 387.254c34.111 35.455 55.121 83.728 55.121 136.908 0 109.123-88.462 197.585-197.585 197.585-53.678 0-102.356-21.405-137.966-56.144l0.041 0.039-376.413-377.809c-52.294-52.467-84.627-124.858-84.627-204.8 0-160.232 129.893-290.125 290.125-290.125 80.289 0 152.961 32.614 205.49 85.317l0.008 0.008 308.271 307.805 32.908-32.954-308.131-307.665c-60.956-61.284-145.225-99.326-238.381-99.7h-0.071z" />
<glyph unicode="&#xe91b;" glyph-name="papers-lines-thin" d="M223.884 938.667h757.295v-846.196h-757.295zM934.633 892.122h-664.204v-753.105h664.204zM803.84-85.333h-757.295v846.196h200.611v-46.545h-154.065v-753.105h664.204v154.531h46.545zM824.785 670.1h-444.044v46.545h444.044zM824.785 492.296h-444.044v46.545h444.044zM646.982 314.492h-266.24v46.545h266.24z" />
<glyph unicode="&#xe91c;" glyph-name="pencil-case-thin" d="M186.182 496.485h668.393v-423.098c-0.106-86.331-70.062-156.287-156.383-156.393h-355.617c-86.331 0.106-156.287 70.062-156.393 156.383v0.010zM808.029 449.94h-575.302v-376.553c0.079-60.635 49.212-109.768 109.84-109.847h355.615c60.635 0.079 109.768 49.212 109.847 109.84v0.008zM275.084 938.667h224.349v-491.055h-224.349zM452.887 892.122h-131.258v-397.964h131.258zM632.553 470.885h-46.545v355.607h46.545zM765.673 470.885h-46.545v444.509h46.545zM452.887 316.82h402.153v-224.349h-402.153zM808.495 270.274h-309.062v-131.258h309.062z" />
<glyph unicode="&#xe91d;" glyph-name="pencil-ruler-thin" d="M821.414 938.667c0.091 0 0.199 0 0.307 0 36.288 0 69.144-14.697 92.94-38.462l71.525-71.525c23.286-23.976 37.643-56.734 37.643-92.845 0-36.574-14.728-69.709-38.576-93.797l-215.811-215.811-444.556-443.172-296.847-39.106 40.167 295.832 659.87 660.331c23.811 23.82 56.71 38.553 93.050 38.553 0.101 0 0.202 0 0.303 0h-0.016zM303.395 26.774l433.488 432.104 215.776 215.776c15.498 15.53 25.083 36.966 25.087 60.641v0.416c0.003 0.26 0.004 0.567 0.004 0.874 0 23.23-9.275 44.295-24.323 59.692l-71.325 71.279c-15.581 15.461-37.042 25.015-60.734 25.015s-45.153-9.554-60.74-25.020l-648.797-649.305-29.929-220.664zM849.36 539.212l-225.045 225.045 32.65 32.65 225.045-225.045zM28.592-56.003l42.011 313.587 25.133-6.41c118.441-31.030 209.909-122.331 240.659-238.342l0.527-2.336 6.502-25.225zM109.294 199.109l-26.978-201.526 202.31 26.655c-29.873 81.862-93.368 145.206-173.323 174.233l-2.009 0.637zM249.302 131.549l-32.604 32.604 520.139 520.232 32.604-32.604zM585.485 467.733l-32.604 32.604 63.64 63.64 32.604-32.604zM-0.005 622.82l302.935 302.935 257.935-257.935-302.935-302.935zM302.93 860.538l-237.718-237.718 192.718-192.718 237.718 237.718zM450.085 172.592l302.935 302.935 257.935-257.935-302.935-302.935zM753.020 410.31l-237.718-237.718 192.718-192.718 237.718 237.718zM161.175 494.204l-32.558 32.281 90.387 89.926 32.512-32.696zM611.771 43.514l-32.696 32.512 90.156 90.433 32.281-32.558z" />
<glyph unicode="&#xe91e;" glyph-name="pencil-thin" horiz-adv-x="1023" d="M835.572 938.667v0c0.156 0 0.34 0.001 0.524 0.001 51.829 0 98.724-21.127 132.542-55.239l0.013-0.013c33.886-34.019 54.836-80.945 54.836-132.764 0-52.036-21.126-99.138-55.269-133.197l-0.004-0.004-661.66-662.631-306.554-40.104 40.152 306.554 662.874 661.757c33.825 34.191 80.685 55.429 132.505 55.64h0.040zM283.832 0.846l650.105 650.882c25.311 25.151 40.977 59.982 40.977 98.473 0 0.013 0 0.027 0 0.040v-0.002c0 0.022 0 0.049 0 0.075 0 38.548-15.539 73.467-40.696 98.834l0.010-0.010c-25.090 25.299-59.863 40.961-98.295 40.961-38.599 0-73.508-15.799-98.613-41.283l-0.017-0.017-651.173-650.25-29.811-227.512zM843.146 526.756l-231.105 231.105 34.374 34.374 231.105-231.105zM0-85.333l42.725 325.781 26.703-7.089c61.656-16.716 114.54-48.274 156.502-90.665l0.028-0.029c43.443-42.211 75.745-95.664 92.216-155.667l0.566-2.416 7.137-26.703zM83.46 178.059l-27.14-206.975 206.975 27.48c-16.208 42.897-40.534 79.429-71.344 109.314l-0.075 0.072-0.388 0.388c-29.715 30.087-65.784 53.825-106.037 69.044l-2.038 0.676zM227.901 108.242l-34.326 34.326 534.067 534.067 34.326-34.326z" />
<glyph unicode="&#xe91f;" glyph-name="pen-thin" horiz-adv-x="1022" d="M856.613 600.161l-171.701 171.701 129.345 130.847c21.964 22.165 52.414 35.888 86.070 35.888 66.717 0 120.838-53.927 121.153-120.569v-0.030c0.045-1.241 0.071-2.698 0.071-4.161 0-32.492-12.725-62.013-33.463-83.85l0.050 0.053-0.533-0.533zM753.243 772.055l103.563-103.563 96.439 95.228c12.279 13.043 19.825 30.664 19.825 50.046 0 0.977-0.019 1.949-0.057 2.916l0.004-0.139v0.969c0 0.010 0 0.022 0 0.034 0 40.147-32.546 72.693-72.693 72.693-20.178 0-38.437-8.222-51.607-21.498l-0.005-0.005zM673.039 852.259l263.972-263.972-615.466-615.466-321.351-58.154 57.379 321.884zM868.486 588.287l-195.447 195.447-570.639-570.639-42.453-238.336 237.899 42.889zM234.604 575.494l-34.214 34.311 191.231 190.746h239.741v-48.462h-219.678z" />
<glyph unicode="&#xe920;" glyph-name="pillar-thin" horiz-adv-x="1007" d="M153.691 938.667h699.749c0.057 0 0.125 0 0.192 0 84.604 0 153.19-68.585 153.19-153.19s-68.585-153.19-153.19-153.19c-60.393 0-112.624 34.948-137.572 85.724l-0.4 0.901h-423.278c-25.296-52.189-77.868-87.537-138.696-87.537-84.856 0-153.646 68.789-153.646 153.646s68.789 153.646 153.646 153.646c0.002 0 0.003 0 0.005 0v0zM853.577 677.88c59.424 0 107.598 48.173 107.598 107.598s-48.173 107.598-107.598 107.598v0h-699.885c-0.008 0-0.017 0-0.026 0-59.676 0-108.053-48.377-108.053-108.053s48.377-108.053 108.053-108.053c46.867 0 86.766 29.839 101.734 71.555l0.236 0.754 5.562 15.228h485.693l5.38-15.137c15.325-41.971 54.867-71.408 101.296-71.488h0.010zM728.061 718.913h-450.451v45.592h450.451zM786.875-85.333h-45.592v773.699h45.592zM264.389-85.333h-45.592v773.699h45.592zM438.551-85.333h-45.592v652.88h45.592zM612.713-85.333h-45.592v652.88h45.592z" />
<glyph unicode="&#xe921;" glyph-name="pin-thin" d="M0-46.853l330.376 369.405 77.509-77.509-369.405-330.376-38.48 38.48zM602.427 11.636l-19.405 19.35-486.054 486.109 19.35 19.46c64.249 64.2 152.893 103.993 250.833 104.28h3.078c26.209-0.008 51.689-3.113 76.098-8.97l-2.217 0.449 168.596 167.112c-2.657 8.979-4.185 19.296-4.185 29.969 0 60.416 48.977 109.392 109.392 109.392 17.75 0 34.513-4.228 49.337-11.731l-0.625 0.287c12.058-5.413 22.34-12.667 30.984-21.528l0.020-0.021 193.498-193.718c8.881-8.663 16.136-18.945 21.295-30.376l0.253-0.628c7.148-14.138 11.335-30.819 11.335-48.479 0-60.385-48.952-109.337-109.337-109.337-10.654 0-20.952 1.524-30.688 4.365l0.773-0.193-167.112-168.596c5.423-22.234 8.534-47.76 8.534-74.012 0-1.036-0.005-2.072-0.015-3.106l0.001 0.158c-0.358-97.978-40.205-186.579-104.443-250.776l-0.002-0.002zM175.467 516.27l426.080-426.080c43.13 51.574 69.403 118.538 69.648 191.631v0.328c0.009 0.801 0.013 1.747 0.013 2.694 0 26.592-3.84 52.287-10.996 76.561l0.483-1.912-4.453 15.502 216.146 217.96 17.811-8.96c7.113-3.649 15.518-5.788 24.423-5.788 30.056 0 54.421 24.365 54.421 54.421 0 8.905-2.139 17.311-5.931 24.731l0.143-0.308-0.66 1.374c-2.453 5.588-5.789 10.351-9.885 14.338l-194.552 194.552c-3.996 4.106-8.759 7.442-14.060 9.782l-0.287 0.113-1.374 0.66c-7.113 3.649-15.518 5.788-24.423 5.788-30.056 0-54.421-24.365-54.421-54.421 0-8.905 2.139-17.311 5.931-24.731l-0.143 0.308 8.96-17.811-218.015-216.036-15.502 4.453c-22.297 6.63-47.917 10.445-74.427 10.445-0.040 0-0.080 0-0.12 0h-3.072c-73.139-0.234-140.102-26.487-192.162-69.982l0.478 0.388z" />
<glyph unicode="&#xe922;" glyph-name="presentation-thin" d="M196.341 875.446h642.003v-642.003h-642.003zM793.823 830.924h-552.96v-552.96h552.96zM901.565 233.888h-768v44.522h768zM539.603 853.185h-44.522v85.482h44.522zM282.179-93.169l-41.672 15.672 133.565 355.907h286.854l133.209-355.951-41.717-15.583-122.301 327.012h-225.146zM687.861 62.924h-383.777v44.522h383.777z" />
<glyph unicode="&#xe923;" glyph-name="projector-device-thin" d="M1024 174.856h-1024v535.273h536.204v-46.545h-489.658v-442.182h930.909v442.182h-134.051v46.545h180.596zM689.804 799.031c111.051 0 201.076-90.025 201.076-201.076s-90.025-201.076-201.076-201.076c-111.051 0-201.076 90.025-201.076 201.076v0c0.132 110.998 90.078 200.944 201.064 201.076h0.013zM689.804 443.423c85.345 0 154.531 69.186 154.531 154.531s-69.186 154.531-154.531 154.531c-85.345 0-154.531-69.186-154.531-154.531v0c0.106-85.302 69.228-154.425 154.521-154.531h0.010zM245.295 485.78h-88.902v46.545h88.902zM423.098 485.78h-88.902v46.545h88.902zM135.447 64.543h-46.545v133.585h46.545zM935.098 64.543h-46.545v133.585h46.545z" />
<glyph unicode="&#xe924;" glyph-name="rulers-thin" d="M0 938.667h402.153v-621.847h621.847v-402.153h-1024zM355.607 892.122h-309.062v-930.909h930.909v309.062h-621.847zM112.175 92.471h-88.902v46.545h88.902zM156.393 270.274h-133.12v46.545h133.12zM112.175 447.612h-88.902v46.545h88.902zM156.393 625.416h-133.12v46.545h133.12zM224.349-62.060h-46.545v88.902h46.545zM402.153-62.060h-46.545v133.12h46.545zM579.491-62.060h-46.545v88.902h46.545zM757.295-62.060h-46.545v133.12h46.545z" />
<glyph unicode="&#xe925;" glyph-name="ruler-tool-thin" d="M306.583-85.338l-306.558 306.558 717.455 717.455 306.558-306.558zM64.632 221.22l241.951-241.951 652.849 652.849-241.951 241.951zM800.424 456.156l-96.849 96.849 32.344 32.344 96.849-96.849zM671.139 326.871l-64.871 64.871 32.344 32.344 64.871-64.871zM541.854 197.586l-96.849 96.849 32.344 32.344 96.849-96.849zM412.524 68.393l-64.414 64.871 32.435 31.979 64.414-64.871z" />
<glyph unicode="&#xe926;" glyph-name="school-bell-thin" horiz-adv-x="1023" d="M401.076 136.841c-220.937 0.076-400.013 179.198-400.013 400.145 0 220.994 179.151 400.145 400.145 400.145s400.145-179.151 400.145-400.145c0-159.83-93.708-297.774-229.18-361.887l-2.432-1.035c-49.453-23.5-107.457-37.223-168.666-37.223v0zM400.471 892.138c-195.578-0.172-354.059-158.759-354.059-354.361 0-195.708 158.653-354.361 354.361-354.361 0.106 0 0.213 0 0.319 0h-0.017c0.101 0 0.22 0 0.34 0 53.931 0 105.020 12.164 150.675 33.899l-2.123-0.91c121.833 57.845 204.567 179.877 204.567 321.233 0 195.632-158.466 354.252-354.040 354.501h-0.024zM400.332 580.025c22.834-0.099 41.719-16.881 45.1-38.781l0.033-0.256 0.279-1.815v-1.815c-0.16-13.711-6.227-25.975-15.769-34.387l-0.051-0.044-0.372-0.326c-7.793-6.57-17.946-10.562-29.031-10.562-0.001 0-0.002 0-0.003 0h-0.419c-0.003 0-0.007 0-0.011 0-24.926 0-45.133 20.207-45.133 45.133 0 0.344 0.004 0.686 0.011 1.028l-0.001-0.051v2.885c3.444 22.199 22.42 38.991 45.317 38.991 0.017 0 0.034 0 0.051 0h-0.003zM756.507-85.333h-712.817v201.003c0 68.408 34.333 128.797 86.707 164.877l0.674 0.439 26.196-38.433c-40.704-28.027-67.048-74.368-67.048-126.863 0-0.007 0-0.014 0-0.021v0.001-154.475h619.76v154.475c-0.054 52.442-26.232 98.759-66.219 126.644l-0.503 0.332 26.428 38.293c52.7-36.724 86.768-97.013 86.822-165.261v-0.008zM978.914 47.739h-245.671v46.529h199.142v465.285h46.529zM955.65 627.019c37.261 0 67.466-30.206 67.466-67.466s-30.206-67.466-67.466-67.466c-37.261 0-67.466 30.206-67.466 67.466v0c0.053 37.239 30.227 67.414 67.461 67.466h0.005zM955.65 538.615c11.564 0 20.938 9.374 20.938 20.938s-9.374 20.938-20.938 20.938c-11.564 0-20.938-9.374-20.938-20.938v0c0.026-11.553 9.385-20.911 20.935-20.938h0.003z" />
<glyph unicode="&#xe927;" glyph-name="school-chair-desk-thin" d="M365.078 470.298h555.631v-215.040h-555.631zM876.188 425.777h-466.588v-125.997h466.588zM407.819 938.667h470.595v-300.077h-470.595zM833.892 894.145h-381.551v-211.033h381.551zM835.228-63.072h-44.522v318.33h-296.070v-318.33h-44.522v362.852h385.113zM792.932 405.297h-44.522v233.294h-211.033v-233.294h-44.522v277.816h300.077zM515.117 255.258h-362.852v320.557h44.522v-276.035h318.33zM344.598 553.554h-255.555v44.522h255.555z" />
<glyph unicode="&#xe928;" glyph-name="scienctific-thin" d="M347.357 591.311c3.435 3.582 7.529 7.76 11.674 11.906 83.056 83.056 179.019 145.339 281.433 186.848l-5.425-2.462c98.853 37.067 178.49 32.257 224.384-13.637s50.629-125.456 13.637-224.384c-39.047-96.987-101.33-192.951-184.387-276.008-4.145-4.145-8.323-8.239-12.532-12.281l0.626 0.606c-3.435-3.582-7.529-7.76-11.674-11.906-83.056-83.056-179.019-145.339-281.433-186.848l5.425 2.462c-99.002-36.918-178.639-32.108-224.458 13.711s-50.629 125.456-13.637 224.384c39.045 96.896 101.295 192.774 184.286 275.765 4.206 4.206 8.445 8.359 12.716 12.458l-0.636-0.615zM651.825 286.843c3.592 3.438 7.779 7.537 11.933 11.691 79.331 79.331 138.888 170.948 178.672 268.726l-2.37-5.206c31.513 83.977 29.505 152.184-5.504 187.193s-103.216 37.017-187.193 5.504c-92.572-37.413-184.189-96.97-263.52-176.301-4.153-4.153-8.253-8.341-12.298-12.56l0.607 0.628c-3.592-3.438-7.779-7.537-11.933-11.691-79.331-79.331-138.888-170.948-178.672-268.726l2.37 5.206c-31.513-83.977-29.505-152.184 5.504-187.193s103.216-37.017 187.193-5.504c92.572 37.413 184.189 96.97 263.52 176.301 4.153 4.153 8.253 8.341 12.298 12.56l-0.607-0.628zM164.627 774.015c45.819 45.819 125.456 50.629 224.384 13.637 96.987-39.047 192.951-101.33 276.008-184.387 4.145-4.145 8.239-8.323 12.281-12.532l-0.606 0.626c3.582-3.435 7.76-7.529 11.906-11.674 83.056-83.056 145.339-179.019 186.848-281.433l-2.462 5.425c37.067-98.853 32.257-178.49-13.637-224.384s-125.456-50.629-224.384-13.637c-96.896 39.045-192.774 101.295-275.765 184.286-4.206 4.206-8.359 8.445-12.458 12.716l0.615-0.636c-3.582 3.435-7.76 7.529-11.906 11.674-83.056 83.056-145.339 179.019-186.848 281.433l2.462-5.425c-37.067 98.853-32.257 178.49 13.562 224.309zM834.555 104.087c35.009 35.009 37.017 103.216 5.504 187.193-37.413 92.572-96.97 184.189-176.301 263.52-4.153 4.153-8.341 8.253-12.56 12.298l0.628-0.607c-3.438 3.592-7.537 7.779-11.691 11.933-79.331 79.331-170.948 138.888-268.726 178.672l5.206-2.37c-83.977 31.513-152.184 29.505-187.193-5.504s-37.017-103.216-5.504-187.193c37.413-92.572 96.97-184.189 176.301-263.52 4.153-4.153 8.341-8.253 12.56-12.298l-0.628 0.607c3.438-3.592 7.537-7.779 11.691-11.933 79.331-79.331 170.948-138.888 268.726-178.672l-5.206 2.37c83.977-31.513 152.184-29.505 187.193 5.504zM511.965 477.509c28.079 0 50.842-22.763 50.842-50.842s-22.763-50.842-50.842-50.842c-28.079 0-50.842 22.763-50.842 50.842v0c0.040 28.063 22.779 50.803 50.839 50.842h0.004zM511.965 410.888c8.714 0 15.779 7.064 15.779 15.779s-7.064 15.779-15.779 15.779c-8.714 0-15.779-7.064-15.779-15.779v0c0.020-8.706 7.072-15.759 15.777-15.779h0.002z" />
<glyph unicode="&#xe929;" glyph-name="scissor-thin" d="M372.643 376.212l-249.204 249.158c-38.099 37.936-61.675 90.432-61.675 148.433s23.576 110.498 61.668 148.426l0.007 0.007 16.477 16.431 397.359-397.824zM141.079 871.688c-20.405-26.914-32.687-60.965-32.687-97.885 0-45.105 18.331-85.928 47.948-115.427l216.302-216.348 98.816 98.816zM791.552-64.667c-8.798 0.005-17.464 0.546-25.973 1.592l1.025-0.103c-104.444 12.891-184.507 101.077-184.507 207.963 0 0.164 0 0.328 0.001 0.493v-0.026c0 6.842 0.419 13.638 1.071 20.433l-111.709 111.709 164.631 164.631 96.023-96.023c17.55 5.493 37.73 8.658 58.649 8.658 0.048 0 0.097 0 0.145 0h0.644c115.794 0 209.664-93.87 209.664-209.664s-93.87-209.664-209.664-209.664v0zM537.274 277.396l95.232-95.232-1.815-11.683c-1.243-7.597-1.985-16.393-2.048-25.351v-0.063c0-0.077 0-0.168 0-0.259 0-83.181 62.342-151.802 142.851-161.687l0.788-0.079c5.821-0.735 12.562-1.157 19.401-1.164h0.008c90.088 0 163.119 73.031 163.119 163.119s-73.031 163.119-163.119 163.119v0h-0.745c-0.023 0-0.050 0-0.076 0-20.349 0-39.792-3.878-57.63-10.936l1.061 0.37-13.964-5.446-84.247 84.108zM869.283 938.667l16.477-16.431c37.96-37.913 61.442-90.315 61.442-148.201s-23.482-110.288-61.44-148.199l-446.326-446.187c1.88-10.238 2.954-22.020 2.954-34.053 0-29.687-6.542-57.846-18.264-83.113l0.508 1.221c-29.335-66.829-90.219-114.994-163.278-125.948l-1.168-0.144h-0.465c-8.119-1.115-17.502-1.752-27.033-1.752-115.679 0-209.455 93.776-209.455 209.455 0 19.245 2.596 37.884 7.456 55.586l-0.344-1.47c15.64 57.127 53.603 103.418 103.688 129.784l1.132 0.543c28.682 15.467 62.773 24.557 98.987 24.557 16.673 0 32.897-1.927 48.459-5.57l-1.433 0.283 74.985 76.614zM253.533-16.539c58.021 8.795 105.57 46.544 128.002 97.794l0.417 1.068v0.465c8.632 18.421 13.669 40.001 13.669 62.758 0 12.785-1.59 25.199-4.583 37.054l0.223-1.042-3.165 12.753 464.524 464.524c29.544 29.491 47.821 70.261 47.821 115.3 0 36.815-12.212 70.777-32.805 98.058l0.298-0.412-478.72-478.999-94.022-96.116-13.498 4.003c-14.215 4.425-30.559 6.974-47.498 6.974-28.297 0-54.933-7.113-78.216-19.648l0.88 0.433c-39.747-20.882-69.193-56.833-81.006-100.065l-0.262-1.125c-3.515-12.63-5.536-27.133-5.536-42.107 0-89.972 72.937-162.909 162.909-162.909 7.334 0 14.555 0.485 21.633 1.424l-0.83-0.090z" />
<glyph unicode="&#xe92a;" glyph-name="sharpener-thin" d="M871.558 831.37h152.442v-894.887h-152.442l-2.76 0.712c-100.136 26.95-215.269 42.876-333.973 43.806l-0.564 0.003c-119.282-0.93-234.43-16.856-344.205-45.981l9.624 2.171-2.76-0.712h-152.398v893.106h152.353l2.671-0.668c100.389-26.445 215.694-41.774 334.531-42.073h0.183c119.267 0.929 234.401 16.856 344.16 45.981l-9.624-2.172zM979.478 786.848h-102.4c-102.625-27.399-220.62-43.584-342.245-44.518l-0.572-0.003c-121.882 0.307-239.989 15.877-352.694 44.899l9.877-2.158h-102.4v-804.063h102.4c102.627 27.399 220.622 43.584 342.248 44.518l0.57 0.003c122.195-0.937 240.19-17.122 352.736-46.74l-9.918 2.218h102.4zM214.595 147.516v469.704h809.405v-469.704zM259.117 572.698v-380.661h720.362v380.661zM1001.739 317.589h-764.883v44.522h764.883z" />
<glyph unicode="&#xe92b;" glyph-name="speech-thin" d="M184.32 627.743h668.393v-224.349h-668.393zM806.167 581.198h-575.302v-131.258h575.302zM273.222 449.94h491.055v-535.273h-491.055zM717.731 403.394h-397.964v-442.182h397.964zM874.124-85.333h-711.215v46.545h711.215zM319.767 604.471h-46.545v133.12c0.157 86.371 69.973 156.383 156.254 156.858h0.045v-46.545c-60.641-0.422-109.65-49.627-109.754-110.303v-0.010zM429.615 938.667c37.274 0 67.491-30.217 67.491-67.491s-30.217-67.491-67.491-67.491c-37.274 0-67.491 30.217-67.491 67.491v0c0.053 37.253 30.238 67.438 67.486 67.491h0.005zM429.615 850.231c11.568 0 20.945 9.378 20.945 20.945s-9.378 20.945-20.945 20.945c-11.568 0-20.945-9.378-20.945-20.945v0c0.026-11.557 9.388-20.919 20.943-20.945h0.003z" />
<glyph unicode="&#xe92c;" glyph-name="teacher-desk-thin" d="M105.071 619.001h809.405v-554.296h-809.405zM869.955 574.479h-720.362v-465.252h720.362zM275.144 448.928h469.704v-214.595h-469.704zM700.327 404.406h-380.661v-125.551h380.661zM1019.548 574.479h-1019.548v44.522h1019.548zM149.593-40.811h-44.522v127.332h44.522zM914.477-40.811h-44.522v127.332h44.522zM234.63 596.74h-44.522v297.405h44.522zM361.962 596.74h-44.522v170.073h44.522zM106.852 596.74h-44.522v255.11h44.522z" />
<glyph unicode="&#xe92d;" glyph-name="telescope-thin" horiz-adv-x="1045" d="M867.607 448.078h-245.295v46.545h198.749v219.695h-486.4v-219.695h109.847v-46.545h-156.393v312.785h579.491zM110.313 716.645h224.349v-224.349h-224.349zM288.116 670.1h-131.258v-131.258h131.258zM844.335 403.394h-23.273v402.153h23.273c111.051 0 201.076-90.025 201.076-201.076s-90.025-201.076-201.076-201.076v0zM867.607 757.14v-305.338c74.802 11.655 131.37 75.614 131.37 152.785s-56.568 141.13-130.5 152.674l-0.87 0.112zM867.607 337.765h-46.545v533.411h46.545zM556.684 737.591h-46.545v177.804h46.545zM622.313 892.122h-177.804v46.545h177.804zM133.585 581.198h-133.585v46.545h133.585zM533.411 583.060c61.952 0 112.175-50.222 112.175-112.175s-50.222-112.175-112.175-112.175c-61.952 0-112.175 50.222-112.175 112.175v0c0.079 61.92 50.254 112.095 112.167 112.175h0.008zM533.411 405.256c36.246 0 65.629 29.383 65.629 65.629s-29.383 65.629-65.629 65.629c-36.246 0-65.629-29.383-65.629-65.629v0c0.053-36.225 29.404-65.576 65.624-65.629h0.005zM733.929-70.997l-188.044 451.491 43.008 17.873 188.044-451.491zM332.428-70.997l-42.961 17.873 188.044 451.491 42.868-17.873zM444.509-85.333h-222.022v46.545h222.022zM844.335-85.333h-222.022v46.545h222.022z" />
<glyph unicode="&#xe92e;" glyph-name="textbook-thin" d="M88.902 938.667h890.88v-1024h-890.88zM933.236 892.122h-797.789v-930.909h797.789zM201.076 670.1h-177.804v46.545h177.804zM201.076 314.492h-177.804v46.545h177.804zM201.076 492.296h-177.804v46.545h177.804zM201.076 136.689h-177.804v46.545h177.804zM310.924 716.645h491.055v-224.349h-491.055zM755.433 670.1h-397.964v-131.258h397.964zM822.924 314.492h-533.411v46.545h533.411z" />
<glyph unicode="&#xe92f;" glyph-name="timer-thin" d="M467.782 850.231c258.349 0 467.782-209.433 467.782-467.782s-209.433-467.782-467.782-467.782c-258.349 0-467.782 209.433-467.782 467.782v0c0.291 258.232 209.55 467.491 467.754 467.782h0.028zM467.782-38.788c232.642 0 421.236 188.594 421.236 421.236s-188.594 421.236-421.236 421.236c-232.642 0-421.236-188.594-421.236-421.236v0c0.265-232.536 188.701-420.972 421.211-421.236h0.025zM889.484 938.667c74.291 0 134.516-60.225 134.516-134.516s-60.225-134.516-134.516-134.516c-74.291 0-134.516 60.225-134.516 134.516v0c0.079 74.259 60.257 134.437 134.509 134.516h0.008zM889.484 716.18c48.585 0 87.971 39.386 87.971 87.971s-39.386 87.971-87.971 87.971c-48.585 0-87.971-39.386-87.971-87.971v0c0.053-48.564 39.407-87.918 87.966-87.971h0.005zM762.228 54.583l-91.229 91.229 32.954 32.954 91.229-91.229zM231.145 585.666l-91.229 91.229 32.954 32.954 91.229-91.229zM172.87 54.583l-32.908 32.908 91.229 91.229 32.908-32.908zM703.953 585.666l-32.908 32.908 91.229 91.229 32.908-32.908zM350.673 232.386l-32.908 32.908 266.705 266.705 32.908-32.908zM467.782 449.94c37.274 0 67.491-30.217 67.491-67.491s-30.217-67.491-67.491-67.491c-37.274 0-67.491 30.217-67.491 67.491v0c0.053 37.253 30.238 67.438 67.486 67.491h0.005zM467.782 361.503c11.568 0 20.945 9.378 20.945 20.945s-9.378 20.945-20.945 20.945c-11.568 0-20.945-9.378-20.945-20.945v0c0.026-11.557 9.388-20.919 20.943-20.945h0.003z" />
<glyph unicode="&#xe930;" glyph-name="whiteboard-thin" d="M63.221 782.841h898.003v-727.040h-898.003zM916.703 738.319h-808.96v-637.997h808.96zM1024 55.356h-1024v44.522h1024zM573.885 270.841h87.708c71.031-0.076 128.592-57.637 128.668-128.66v-86.379h-345.043v86.372c0.095 35.902 14.789 68.353 38.455 91.747l0.012 0.012c23.090 22.816 54.843 36.909 89.888 36.909 0.11 0 0.22 0 0.33 0h-0.017zM745.739 100.323v41.85c-0.051 46.452-37.694 84.095-84.141 84.146h-86.288c-0.488 0.010-1.062 0.016-1.638 0.016-22.918 0-43.682-9.221-58.786-24.154l0.008 0.008c-15.493-15.304-25.104-36.532-25.155-60.006v-41.86z" />
<glyph unicode="&#xe931;" glyph-name="abacus" horiz-adv-x="1015" d="M971.695 86.912h-928.409v851.755h67.635v-784.12h793.138v784.12h67.635zM0 154.547h1014.531v-239.88h-1014.531zM946.896 86.912h-879.26v-104.609h879.26zM937.878 818.727h-861.224v67.635h861.224zM282.716 766.422h-67.635v172.245h67.635zM412.125 766.422h-67.635v172.245h67.635zM541.083 766.422h-67.635v172.245h67.635zM937.878 560.36h-861.224v67.635h861.224zM454.961 508.055h-67.635v172.245h67.635zM583.919 508.055h-67.635v172.245h67.635zM799.45 508.055h-67.635v172.245h67.635zM937.878 301.992h-861.224v67.635h861.224zM282.716 249.688h-67.635v172.245h67.635zM412.125 249.688h-67.635v172.245h67.635zM713.328 249.688h-67.635v172.245h67.635z" />
<glyph unicode="&#xe932;" glyph-name="backpack" d="M437.649 768.594h170.073c135.668-0.152 245.608-110.092 245.76-245.745v-585.921h-661.593v585.906c0.152 135.668 110.092 245.608 245.745 245.76h0.015zM786.699 3.71v519.123c-0.127 98.795-80.182 178.851-178.965 178.977h-170.085c-98.795-0.127-178.851-80.182-178.977-178.965v-519.135zM499 938.667h46.837c75.938-0.101 137.471-61.634 137.572-137.562v-99.293h-321.447v99.283c0.25 75.675 61.365 136.994 136.938 137.572h0.055zM616.626 768.594v32.501c-0.051 39.076-31.714 70.739-70.785 70.79h-46.708c-38.893-0.302-70.314-31.864-70.389-70.782v-32.508zM786.699 343.857h105.517c72.506-0.076 131.263-58.833 131.339-131.332v-144.257c-0.076-72.506-58.833-131.263-131.332-131.339h-105.524zM892.216 3.71c35.633 0.051 64.506 28.923 64.557 64.552v144.255c-0.051 35.633-28.923 64.506-64.552 64.557h-38.739v-273.363zM258.671-63.072h-105.071c-72.506 0.076-131.263 58.833-131.339 131.332v144.257c0.076 72.506 58.833 131.263 131.332 131.339h105.079zM153.6 277.074c-35.633-0.051-64.506-28.923-64.557-64.552v-144.255c0.051-35.633 28.923-64.506 64.552-64.557h38.294v273.363zM692.758 234.333h-340.146v66.783h340.146zM641.113 182.688h-66.783v85.037h66.783z" />
<glyph unicode="&#xe933;" glyph-name="book" d="M887.318-63.072h-680.381c-64.976 0.567-117.43 53.372-117.43 118.428 0 65.408 53.024 118.432 118.432 118.432 0.352 0 0.704-0.002 1.055-0.005h678.324v-66.783h-678.511c-0.152 0.002-0.332 0.003-0.512 0.003-28.524 0-51.648-23.123-51.648-51.648 0-28.344 22.833-51.356 51.108-51.645h679.562zM878.414-29.681h-66.783v170.073h66.783zM207.382 938.667h713.327v-831.666h-713.238c-28.513-0.025-51.62-23.133-51.645-51.643v-0.003h-66.783v764.883c0.499 65.142 53.123 117.828 118.193 118.427h0.057zM853.927 871.884h-646.367c-28.482-0.299-51.485-23.334-51.734-51.8v-658.322c15.033 7.471 32.74 11.843 51.468 11.843 0.062 0 0.124 0 0.187 0h646.446zM301.412 298.622v640.045h236.856v-639.555l-119.185 58.546zM418.771 432.188l52.714-25.956v465.653h-103.29v-464.985z" />
<glyph unicode="&#xe934;" glyph-name="bookshelf-books" d="M44.522 938.667h491.965v-1001.739h-491.965zM469.704 871.884h-358.4v-868.174h358.4zM469.704 938.667h491.965v-1001.739h-491.965zM894.887 871.884h-358.4v-868.174h358.4zM375.763 701.811h-170.073v66.783h170.073zM375.763 531.738h-170.073v66.783h170.073zM800.501 701.811h-170.073v66.783h170.073zM800.501 531.738h-170.073v66.783h170.073zM44.522 428.893h321.892v-321.892h-321.892zM299.631 362.11h-188.327v-188.327h188.327zM469.704 428.893h321.892v-321.892h-321.892zM724.814 362.11h-188.327v-188.327h188.327z" />
<glyph unicode="&#xe935;" glyph-name="bookshelf-library" horiz-adv-x="1042" d="M1042.204-85.333h-1042.204v68.267h1042.204zM52.338 938.667h285.355v-1024h-285.355zM269.426 870.4h-148.821v-887.467h148.821zM269.881 677.888h242.119v-763.221h-242.119zM443.733 609.622h-105.586v-626.688h105.586zM704.057 895.431h285.355v-980.764h-285.355zM921.145 827.165h-148.821v-844.231h148.821zM443.733 808.505h329.045v-893.838h-329.045zM704.512 740.239h-192.512v-757.305h192.512zM477.867 131.755h-173.852v68.267h173.852zM651.264 88.519h-86.926v68.267h86.926zM304.014 88.519h-217.543v68.267h217.543zM304.014 696.548h-217.543v68.267h217.543z" />
<glyph unicode="&#xe936;" glyph-name="cells" d="M278.261-74.203l-256 153.6v304.974l256 153.6 256-153.6v-304.929zM89.043 117.241l189.217-113.53 189.217 113.53v229.287l-189.217 113.53-189.217-113.53zM723.478-74.203l-256 153.6v304.974l256 153.6 256-153.6v-304.929zM534.261 117.241l189.217-113.53 189.217 113.53v229.287l-189.217 113.53-189.217-113.53zM500.87 326.493l-256 153.6v304.974l256 153.6 256-153.6v-304.929zM311.652 517.937l189.217-113.53 189.217 113.53v229.287l-189.217 113.53-189.217-113.53z" />
<glyph unicode="&#xe937;" glyph-name="clip" horiz-adv-x="1042" d="M216.633 460.8h608.484c90.696-0.104 164.192-73.599 164.295-164.285v-381.848h-937.074v381.838c0.094 45.497 18.544 86.666 48.335 116.511l-0.002-0.002c29.54 29.526 70.341 47.788 115.407 47.788 0.195 0 0.39 0 0.585-0.001h-0.030zM921.145-17.066v313.572c-0.052 53.014-43.014 95.977-96.023 96.028h-608.489c-0.056 0-0.122 0-0.189 0-26.39 0-50.282-10.696-67.577-27.99v0c-17.403-17.427-28.188-41.466-28.262-68.025v-313.586zM1042.204-85.333h-1042.204v68.267h1042.204zM825.116 44.829h-159.289l-94.39 567.524 107.679 106.633c15.972 16.052 25.845 38.185 25.845 62.623 0 49.021-39.725 88.763-88.738 88.792h-189.329c-49.013 0-88.747-39.733-88.747-88.747v0-0.319c-0.004-0.321-0.007-0.701-0.007-1.081 0-23.962 9.61-45.679 25.186-61.508l-0.011 0.012 106.496-106.496-93.616-567.433h-159.107v68.267h101.217l78.416 475.682-81.92 81.92c-27.772 28.079-44.928 66.705-44.928 109.339 0 0.568 0.003 1.136 0.009 1.703l-0.001-0.086c0 86.716 70.297 157.013 157.013 157.013h189.326c86.732-0.012 157.038-70.325 157.038-157.059 0-43.365-17.575-82.626-45.991-111.047v0l-82.648-81.92 79.28-475.591h101.217z" />
<glyph unicode="&#xe938;" glyph-name="clipboard-lines-document" d="M89.043 853.63h278.973v-33.213c0.251-28.582 23.405-51.674 51.987-51.823h170.488c13.705 0.026 26.067 5.756 34.843 14.941l0.017 0.018 1.247 1.247c9.225 8.806 14.96 21.199 14.96 34.931 0 0.1 0 0.201-0.001 0.301v-0.015l-0.223 33.614h279.374v-916.703h-831.666zM306.354 786.848h-150.528v-783.137h698.101v783.137h-150.394c-5.99-19.669-16.471-36.465-30.288-49.834l-0.032-0.030c-20.954-21.652-50.26-35.111-82.71-35.172h-170.663c-53.327 0.431-98.296 35.726-113.261 84.19l-0.225 0.847zM419.662 938.667h170.251c65.142-0.499 117.828-53.123 118.427-118.193v-0.057c0.001-0.16 0.001-0.35 0.001-0.539 0-32.526-13.472-61.906-35.141-82.864l-0.032-0.031c-20.954-21.652-50.26-35.111-82.71-35.172h-170.618c-65.142 0.499-117.828 53.123-118.427 118.193v0.68c0.746 64.889 53.175 117.287 118.005 117.982l0.066 0.001zM590.492 768.594c13.705 0.026 26.067 5.756 34.843 14.941l0.017 0.018 1.247 1.247c9.225 8.806 14.96 21.199 14.96 34.931 0 0.1 0 0.201-0.001 0.301v-0.015c-0.225 28.539-23.288 51.618-51.799 51.868h-169.741c-28.362-0.561-51.212-23.38-51.822-51.677l-0.001-0.058c0.398-28.406 23.396-51.309 51.8-51.556h170.498zM759.986 489.443h-510.219v66.783h510.219zM759.986 319.37h-510.219v66.783h510.219zM547.172 149.297h-297.405v66.783h297.405z" />
<glyph unicode="&#xe939;" glyph-name="compass-geometry" d="M857.043-102.696l-267.13 601.934-12.466 28.494c38.877 22.627 64.593 64.1 64.593 111.579 0 71.061-57.607 128.668-128.668 128.668s-128.668-57.607-128.668-128.668c0-35.811 14.63-68.205 38.239-91.532l0.013-0.012 21.816-21.816-12.021-26.713-267.13-601.934-76.577 34.727 267.13 601.934 9.795-48.529c-40.9 38.931-66.337 93.782-66.337 154.575 0 117.78 95.479 213.259 213.259 213.259s213.259-95.479 213.259-213.259c0-60.793-25.437-115.644-66.249-154.492l-0.088-0.083 9.795 48.529 267.13-601.934-77.913-34.727zM682.518 307.794h-341.037v66.783h341.037zM545.391 256.149h-66.783v170.518h66.783zM545.391 810.444h-66.783v128.223h66.783z" />
<glyph unicode="&#xe93a;" glyph-name="compass-tool" d="M241.797 861.856c0.143 0 0.313 0.001 0.483 0.001 45.158 0 86.027-18.366 115.545-48.035l0.007-0.007c29.656-29.821 47.999-70.918 48.041-116.3v-0.008c0.010-0.679 0.016-1.481 0.016-2.284 0-19.788-3.606-38.735-10.197-56.217l0.363 1.098c-17.158-45.97-53.252-81.395-98.537-97.281l-1.136-0.347c-16.294-6.145-35.129-9.702-54.794-9.702-0.918 0-1.833 0.008-2.747 0.023l0.138-0.002c-90.361 0.67-163.353 74.076-163.353 164.531 0 90.87 73.665 164.535 164.535 164.535 0.415 0 0.831-0.002 1.245-0.005h-0.064zM241.524 600.97c0.057 0 0.124 0 0.192 0 11.353 0 22.223 2.067 32.254 5.844l-0.631-0.208 0.727 0.273c27.013 9.421 48.019 30.025 57.782 56.118l0.213 0.65c3.577 9.405 5.648 20.281 5.648 31.64 0 0.525-0.004 1.049-0.013 1.572l0.001-0.079v0.682c0 0.030 0 0.065 0 0.101 0 26.565-10.73 50.624-28.093 68.079l0.004-0.004c-17.281 17.325-41.178 28.043-67.578 28.043-0.082 0-0.165 0-0.247 0h-0.305c-0.236 0.002-0.516 0.003-0.795 0.003-53.217 0-96.358-43.141-96.358-96.358 0-52.938 42.689-95.905 95.52-96.355h0.043zM130.443 760.046l-130.443 130.443 48.178 48.178 130.443-130.443zM729.799 619.604h-414.827l16.862 45.86c3.715 9.574 5.868 20.654 5.868 32.237 0 0.315-0.002 0.63-0.005 0.944v-0.048c-0.686 52.362-43.054 94.602-95.4 95.082h-0.955v68.176h642.67v-139.624zM405.646 687.78h303.564l106.627 70.994v34.906h-440.87c19.064-26.106 30.608-58.763 30.906-94.102v-0.072q0-5.863-0.227-11.726zM76.811 697.461h68.176v-1.045c0.258-52.769 43.095-95.446 95.899-95.446 0 0 0.001 0 0.001 0h0.682c0.057 0 0.124 0 0.192 0 11.353 0 22.223 2.067 32.254 5.844l-0.631-0.208 45.678 16.862v-414.554l-102.627-154.259h-139.624zM240.888 532.794c-0.133 0-0.291-0.001-0.448-0.001-35.859 0-69.011 11.59-95.915 31.229l0.462-0.322v-440.87h34.906l70.994 106.672v303.564q-4.545-0.273-9.317-0.273zM188.62-85.333h-68.176v174.075h68.176zM1024 750.047h-174.075v68.176h174.075zM285.429 315.541h-0.5v68.176c0.149 0 0.324 0 0.5 0 148.853 0 269.522 120.669 269.522 269.522 0 0.144 0 0.288 0 0.432v-0.023h68.176c0-0.121 0-0.265 0-0.409 0-186.505-151.192-337.697-337.697-337.697v0zM543.588 346.901l-130.443 130.443 48.178 48.178 130.443-130.443zM306.882-73.97v68.176c351.568 1.543 636.141 286.18 637.579 637.624v0.137h68.176c-0.723-389.524-316.247-705.111-705.677-705.937h-0.079z" />
<glyph unicode="&#xe93b;" glyph-name="desk-lamp-light" d="M478.164 766.46l0.378-0.378c94.892-95.179 94.87-249.198-0.053-344.336l-44.714-44.714-344.724 344.724 44.704 44.704c95.106 95.106 249.303 95.106 344.409 0v0zM433.744 471.509c66.398 69.394 65.526 179.221-2.478 247.405l-0.324 0.324c-68.141 68.134-178.070 69.006-247.28 2.617l-0.134-0.13zM536.799 607.069l-47.193 47.193 55.207 55.207c15.351 15.654 24.825 37.12 24.825 60.798 0 47.973-38.889 86.862-86.862 86.862-23.7 0-45.184-9.492-60.856-24.882l0.013 0.013-55.207-55.118-47.193 47.193 55.207 55.207c27.81 27.838 66.244 45.058 108.7 45.058 84.856 0 153.646-68.79 153.646-153.646 0-42.401-17.175-80.79-44.948-108.59l0.001 0.001zM718.492-58.754l-59.748 29.874 208.851 417.703v21.014l-287.61 287.61 47.193 47.193 307.2-307.2v-64.467zM858.691-77.23h-595.256v66.783h595.256zM424.604-43.839h-66.783v85.037h66.783z" />
<glyph unicode="&#xe93c;" glyph-name="dna-science" d="M508.527 388.111l-91.047 49.597c-170.92 100.041-283.9 282.738-283.9 491.824 0 3.212 0.027 6.418 0.080 9.617l-0.006-0.482 66.783-1.113c-0.040-2.368-0.063-5.162-0.063-7.961 0-184.394 99.59-345.528 247.916-432.548l2.359-1.279 57.878-31.61 57.878 31.61c150.686 88.299 250.276 249.434 250.276 433.828 0 2.815-0.023 5.624-0.069 8.428l0.005-0.422 66.783 1.113c0.047-2.731 0.074-5.952 0.074-9.179 0-209.085-112.98-391.783-281.222-490.373l-2.679-1.451-0.712-0.401zM883.4-86.402l-66.783 1.113c0.040 2.368 0.063 5.162 0.063 7.961 0 184.394-99.59 345.528-247.916 432.548l-2.359 1.279-57.878 31.61-57.878-31.61c-150.686-88.299-250.276-249.434-250.276-433.828 0-2.815 0.023-5.624 0.069-8.428l-0.005 0.422-66.783-1.113c-0.047 2.731-0.074 5.952-0.074 9.179 0 209.085 112.98 391.783 281.222 490.373l2.679 1.451 0.712 0.401 90.335 49.197 91.047-49.642c170.919-100.042 283.899-282.738 283.899-491.823 0-3.197-0.026-6.387-0.079-9.571l0.006 0.481zM841.995 776.519h-503.986v66.783h503.986zM776.548 606.001h-353.503v66.783h353.503zM594.009 179.482h-353.503v66.783h353.503zM679.046 8.519h-503.986v66.783h503.986z" />
<glyph unicode="&#xe93d;" glyph-name="education" horiz-adv-x="1042" d="M803.271-85.333h-803.271v68.267h803.271c41.096 0 74.411 33.315 74.411 74.411s-33.315 74.411-74.411 74.411h-803.271v68.267h803.271c78.799 0 142.677-63.879 142.677-142.677s-63.879-142.677-142.677-142.677v0zM110.865-75.093l-48.742 47.787c21.533 21.898 35.041 51.747 35.724 84.747l0.002 0.131c-0.667 32.953-14.168 62.629-35.689 84.341l0.009-0.009 48.606 48.105c33.632-33.937 54.632-80.44 55.34-131.847l0.001-0.136v-1.138c-0.85-51.501-21.779-97.955-55.276-132.008l0.026 0.026zM1042.204 131.755h-803.271c-78.882 0.103-142.801 64.022-142.905 142.895v0.738c1.684 77.621 65.005 139.901 142.873 139.901 0.011 0 0.022 0 0.033 0h803.269v-68.267h-803.271c-40.593 0-73.5-32.907-73.5-73.5s32.907-73.5 73.5-73.5h803.271zM931.066 142.314c-32.942 34.288-53.228 80.948-53.228 132.346s20.286 98.058 53.289 132.41l-0.061-0.064 49.38-47.15c-21.183-22.083-34.225-52.117-34.225-85.197s13.043-63.114 34.266-85.24l-0.041 0.043zM618.223 807.549c0.004 0 0.009 0 0.013 0 43.028 0 81.744-18.464 108.657-47.902l0.102-0.113c28.265-31.558 45.545-73.467 45.545-119.412 0-1.219-0.012-2.436-0.036-3.65l0.003 0.182c0-117.055-65.627-286.356-184.32-286.356-24.81 0.377-47.94 7.241-67.867 18.966l0.647-0.352c-18.876-10.689-41.399-17.113-65.397-17.43l-0.094-0.001c-64.262 5.757-117.595 47.168-140.459 104.099l-0.398 1.123c-27.382 52.238-43.82 113.982-44.734 179.478l-0.003 0.291c-0.023 1.070-0.037 2.332-0.037 3.597 0 45.732 17.403 87.4 45.948 118.742l-0.127-0.141c27.27 29.294 66.051 47.559 109.098 47.559 0.045 0 0.090 0 0.136 0h-0.007c36.308-0.396 69.654-12.758 96.36-33.32l-0.377 0.279c26.545 21.035 60.401 33.902 97.245 34.36l0.103 0.001zM588.049 418.384c37.911 0 65.991 43.19 79.371 68.949 22.296 43.42 35.732 94.609 36.633 148.847l0.004 0.293c0.427 3.327 0.671 7.175 0.671 11.080 0 48.854-38.126 88.804-86.248 91.717l-0.256 0.012c-28.963-1.102-54.607-14.434-72.064-34.948l-0.117-0.141-24.667-26.351-24.94 26.123c-17.584 20.111-42.965 33.025-71.378 33.992l-0.166 0.004c-48.754-2.899-87.195-43.146-87.195-92.37 0-3.212 0.164-6.385 0.483-9.512l-0.032 0.393c0.971-54.189 14.505-104.999 37.799-149.935l-0.89 1.887c13.653-25.714 41.87-68.904 80.236-68.904 17.592 1.022 33.52 7.404 46.37 17.519l-0.177-0.134 19.843 13.881 19.661-14.154c12.81-10.439 29.035-17.141 46.778-18.238l0.235-0.012zM555.236 774.372h-68.267c0 63.033-26.578 96.028-52.793 96.028v68.267c58.3 0 121.060-51.428 121.060-164.295z" />
<glyph unicode="&#xe93e;" glyph-name="eraser" d="M376.871-85.333v0c-0.098 0-0.215 0-0.331 0-37.652 0-71.745 15.237-96.449 39.882l-240.122 239.897c-24.642 24.883-39.867 59.131-39.867 96.935s15.225 72.051 39.878 96.946l-0.011-0.011 150.892 150.578 433.365-433.365-150.443-151.072c-24.841-24.594-59.028-39.789-96.763-39.789-0.052 0-0.105 0-0.157 0h0.008zM87.571 340.892c-12.522-12.702-20.265-30.143-20.299-49.393v-0.007c0-0.079-0.001-0.174-0.001-0.268 0-19.178 7.755-36.544 20.301-49.133l239.809-239.853c12.572-12.49 29.896-20.21 49.023-20.21 0.132 0 0.264 0 0.396 0.001h-0.020c19.256 0.034 36.697 7.777 49.407 20.307l-0.008-0.008 102.84 103.199-338.16 338.16zM143.093 491.245l447.428 447.428 433.456-433.456-447.428-447.428zM590.521 843.408l-352.163-352.163 338.191-338.191 352.163 352.163z" />
<glyph unicode="&#xe93f;" glyph-name="geography" d="M558.732 901.71c211.306 0 382.604-171.297 382.604-382.604s-171.297-382.604-382.604-382.604c-211.306 0-382.604 171.297-382.604 382.604v0c0.238 211.21 171.393 382.365 382.58 382.604h0.023zM558.732 206.321c172.747 0 312.785 140.039 312.785 312.785s-140.039 312.785-312.785 312.785c-172.747 0-312.785-140.039-312.785-312.785v0c0.212-172.661 140.124-312.574 312.765-312.785h0.020zM288.003 789.593c25.211 25.211 76.291 45.749 176.313 0.23 69.824-33.509 139.885-82.59 201.906-144.611 3.249-3.249 6.463-6.521 9.642-9.814l-0.479 0.493c2.8-2.699 6.072-5.913 9.321-9.163 62.021-62.021 111.102-132.082 147.244-206.828l-2.633 4.922c45.518-100.021 24.981-151.102-0.23-176.313s-76.291-45.749-176.313-0.23c-69.824 33.509-139.885 82.59-201.906 144.611-3.249 3.249-6.463 6.521-9.642 9.814l0.479-0.493c-2.8 2.699-6.072 5.913-9.321 9.163-62.021 62.021-111.102 132.082-147.244 206.828l2.633-4.922c-45.518 100.021-24.981 151.102 0.23 176.313zM779.718 297.878c23.039 23.039-10.598 145.54-153.702 288.644s-265.605 176.741-288.644 153.702 10.598-145.54 153.702-288.644 265.605-176.741 288.644-153.702zM406.063 186.353l-36.585 59.485c97.026 60.263 180.995 128.143 255.686 205.080l0.314 0.325 0.745 0.745c77.525 75.102 145.53 159.285 202.507 251.032l3.224 5.573 59.578-36.445c-63.206-102.381-134.582-190.943-215.592-269.642l-0.332-0.321c-78.973-81.178-167.384-152.507-263.644-212.41l-5.901-3.422zM285.929 329.573l-59.485 36.538c63.351 102.274 134.551 190.807 215.206 269.717l0.253 0.247c79.068 81.092 167.619 152.324 264.030 212.081l5.933 3.425 36.445-59.578c-97.304-60.031-181.491-127.727-256.386-204.526l-0.266-0.274-0.605-0.605c-77.049-75.352-144.837-159.644-201.835-251.341l-3.291-5.683zM580.003-17.796c-0.043 0-0.094 0-0.145 0-307.422 0-556.637 249.215-556.637 556.637 0 143.351 54.188 274.045 143.198 372.717l-0.438-0.493 24.809 27.601 147.037-149.318-49.711-48.966-94.022 95.418c-63.17-81.308-101.271-184.827-101.271-297.246 0-268.888 217.977-486.865 486.865-486.865 112.080 0 215.315 37.873 297.604 101.518l-1.122-0.834-95.884 95.837 49.338 49.338 148.945-148.945-27.508-24.623c-97.817-87.973-227.896-141.778-370.541-141.778-0.183 0-0.365 0-0.548 0h0.029zM593.641-89.708h-69.818v87.040h69.818z" />
<glyph unicode="&#xe940;" glyph-name="glasses" d="M334.358 379.919c0.003 0 0.007 0 0.011 0 34.643 0 65.985-14.131 88.577-36.943l0.010-0.010c22.776-22.803 36.883-54.269 36.953-89.030v-68.131c-0.247-94.145-76.159-170.479-170.118-171.408l-0.088-0.001h-66.204c-94.872 0.101-171.753 76.982-171.854 171.844v193.68zM289.391 81.178c57.24 0.971 103.319 47.393 103.735 104.675v68.069c0 0.062 0 0.135 0 0.208 0 16.301-6.582 31.065-17.233 41.778l0.003-0.003c-10.576 10.643-25.222 17.23-41.406 17.23-0.047 0-0.093 0-0.14 0h-215.923v-126.887c0.076-57.999 47.073-104.995 105.064-105.071h0.007zM688.306 379.919h284.494v-193.67c-0.101-94.872-76.982-171.753-171.844-171.854h-66.347c-94.872 0.101-171.753 76.982-171.854 171.844v67.683c0 0.068 0 0.149 0 0.23 0 35.062 14.301 66.783 37.388 89.65l0.010 0.010c22.518 22.318 53.52 36.108 87.742 36.108 0.144 0 0.289 0 0.433-0.001h-0.022zM906.017 313.137h-217.711c-0.047 0-0.103 0-0.159 0-16.035 0-30.562-6.461-41.117-16.923l0.004 0.004c-10.807-10.71-17.498-25.558-17.498-41.969 0-0.115 0-0.23 0.001-0.344v0.018-67.673c0.076-57.999 47.073-104.995 105.064-105.071h66.344c57.999 0.076 104.995 47.073 105.071 105.064v0.007zM630.873 218.75h-66.783c0 28.769-23.322 52.090-52.090 52.090s-52.090-23.322-52.090-52.090v0h-66.783c0 65.652 53.221 118.873 118.873 118.873s118.873-53.221 118.873-118.873v0zM85.482 313.137h-85.482v66.783h85.482zM1024 313.137h-85.482v66.783h85.482zM74.129 335.13l-62.776 22.84 129.514 356.174c28.988 79.388 103.849 135.039 191.707 135.039 0.471 0 0.941-0.002 1.411-0.005h93.424v-66.783h-93.763c-0.306 0.002-0.668 0.004-1.030 0.004-59.079 0-109.41-37.459-128.536-89.922l-0.303-0.951v-0.223zM949.871 335.13l-129.647 356.397c-19.466 53.667-70.008 91.316-129.343 91.316-0.279 0-0.558-0.001-0.837-0.002h-93.453v66.783h93.496c0.243 0.001 0.531 0.002 0.819 0.002 88.155 0 163.253-55.905 191.775-134.196l0.452-1.419 129.514-356.174z" />
<glyph unicode="&#xe941;" glyph-name="graduate" d="M510.045 868.849l510.045-306.036-510.045-306.036-510.045 306.036zM884.364 562.812l-374.319 224.582-374.319-224.582 374.319-224.582zM854.481 253.285h-69.818v229.004h69.818zM510.045-2.715c-2.647-0.052-5.768-0.082-8.896-0.082-83.014 0-161.148 20.896-229.428 57.716l2.571-1.268c-60.861 27.885-103.482 86.116-108.646 154.796l-0.037 0.619v273.222h69.818v-273.222c6.455-42.967 34.557-78.142 72.655-94.464l0.794-0.303c55.69-29.796 121.821-47.298 192.040-47.298 3.21 0 6.412 0.037 9.605 0.109l-0.475-0.009c2.718-0.064 5.92-0.101 9.13-0.101 70.219 0 136.349 17.502 194.267 48.382l-2.228-1.084c38.892 16.625 66.994 51.8 73.366 94.095l0.083 0.672v44.218h69.818v-44.218c-5.201-69.3-47.822-127.53-107.531-154.941l-1.153-0.474c-65.708-35.552-143.842-56.448-226.856-56.448-3.128 0-6.25 0.030-9.364 0.089l0.467-0.007zM662.249 361.271l-176.873 176.873 49.338 49.338 176.873-176.873zM721.827 209.067h-69.818v176.873h69.818z" />
<glyph unicode="&#xe942;" glyph-name="graduation" d="M503.096 471.189c253.141-0.304 458.27-205.432 458.574-458.544v-77.943h-917.148v77.913c0.304 253.141 205.432 458.27 458.544 458.574h0.030zM894.887 1.484v11.13c0 216.38-175.411 391.791-391.791 391.791s-391.791-175.411-391.791-391.791v0-11.13zM257.336 938.667h491.965v-288.501c0-135.729-110.030-245.76-245.76-245.76v0h-0.445c-135.668 0.152-245.608 110.092-245.76 245.745v0.015zM682.518 871.884h-358.4v-221.718c0.127-98.795 80.182-178.851 178.965-178.977h0.458c98.846 0 178.977 80.131 178.977 178.977v0zM504.075 700.921l-219.937 44.077 13.357 65.491 204.8-41.227 204.8 53.693 16.829-64.601zM885.537 871.884h-764.883v66.783h764.883zM586.841 219.196l-47.282 47.193 152.264 152.71 47.282-47.193zM419.35 219.196l-152.264 152.71 47.282 47.193 152.264-152.71zM503.096 301.116c65.406 0 118.428-53.022 118.428-118.428s-53.022-118.428-118.428-118.428c-65.406 0-118.428 53.022-118.428 118.428v0c0.076 65.375 53.053 118.352 118.421 118.428h0.007zM503.096 131.043c28.523 0 51.645 23.122 51.645 51.645s-23.122 51.645-51.645 51.645c-28.523 0-51.645-23.122-51.645-51.645v0c0.025-28.513 23.133-51.62 51.643-51.645h0.003z" />
<glyph unicode="&#xe943;" glyph-name="ink-pen" d="M116.364 938.667h779.171v-81.455c-0.106-92.757-75.272-167.923-168.019-168.029h-443.123c-92.757 0.106-167.923 75.272-168.029 168.019v0.010zM825.716 868.849h-639.535v-11.636c0.053-54.219 43.992-98.158 98.206-98.211h443.118c54.219 0.053 98.158 43.992 98.211 98.206v0.005zM505.949-80.166l-348.393 398.010 98.863 443.485h499.060l98.816-443.485zM233.425 337.207l272.524-311.343 272.524 311.343-79.127 354.304h-386.979zM505.949 539.772c43.701 0 79.127-35.426 79.127-79.127s-35.426-79.127-79.127-79.127c-43.701 0-79.127 35.426-79.127 79.127v0c0 43.701 35.426 79.127 79.127 79.127v0zM505.949 451.336c5.141 0 9.309 4.168 9.309 9.309s-4.168 9.309-9.309 9.309c-5.141 0-9.309-4.168-9.309-9.309v0c0-5.141 4.168-9.309 9.309-9.309v0zM540.858-27.151h-69.818v443.113h69.818z" />
<glyph unicode="&#xe944;" glyph-name="language-translation" horiz-adv-x="1033" d="M516.718 776.013h-516.718v67.398h516.718zM292.058 809.712h-67.398v128.955h67.398zM59.086 305.98l-31.857 59.4c94.138 52.183 172.456 121.834 232.997 205.228l1.413 2.044c51.543 65.106 85.072 146.606 91.885 235.583l0.091 1.479h67.398c-6.421-105.284-44.777-200.525-105.401-277.383l0.8 1.051c-68.013-93.746-153.988-170.163-253.364-225.381l-3.961-2.020zM455.52 306.159c-129.521 72.276-233.413 176.773-302.947 302.872l-2.006 3.969 59.22 32.171c65.284-118.676 160.082-214.022 274.713-278.147l3.551-1.825zM915.489-63.137l-161.98 445.77-161.98-445.77-63.354 23.005 180.177 495.78h90.358l180.132-495.78zM895.494 86.757h-240.835v67.398h240.835zM646.122-85.333h-172.539v67.398h172.539zM1033.436-85.333h-172.090v67.398h172.090z" />
<glyph unicode="&#xe945;" glyph-name="library" d="M259.117 768.594h491.965v-236.856h-491.965zM684.299 701.811h-358.4v-103.29h358.4zM887.318-63.072h-680.381c-64.976 0.567-117.43 53.372-117.43 118.428 0 65.408 53.024 118.432 118.432 118.432 0.352 0 0.704-0.002 1.055-0.005h678.324v-66.783h-678.511c-0.152 0.002-0.332 0.003-0.512 0.003-28.524 0-51.648-23.123-51.648-51.648 0-28.344 22.833-51.356 51.108-51.645h679.562zM878.414-29.681h-66.783v170.073h66.783zM207.382 938.667h713.327v-831.666h-713.238c-28.513-0.025-51.62-23.133-51.645-51.643v-0.003h-66.783v764.883c0.499 65.142 53.123 117.828 118.193 118.427h0.057zM853.927 871.884h-646.367c-28.482-0.299-51.485-23.334-51.734-51.8v-658.322c15.033 7.471 32.74 11.843 51.468 11.843 0.062 0 0.124 0 0.187 0h646.446z" />
<glyph unicode="&#xe946;" glyph-name="lockers-storage" horiz-adv-x="1015" d="M0 938.667h541.083v-971.695h-541.083zM473.448 871.032h-405.812v-836.424h405.812zM473.448 938.667h541.083v-971.695h-541.083zM946.896 871.032h-405.812v-836.424h405.812zM851.755 698.787h-215.531v67.635h215.531zM378.307 698.787h-215.531v67.635h215.531zM851.755 526.542h-215.531v67.635h215.531zM378.307 526.542h-215.531v67.635h215.531zM421.143 354.297h-86.122v67.635h86.122zM894.591 354.297h-86.122v67.635h86.122zM153.758-85.333h-67.635v86.122h67.635zM454.961-85.333h-67.635v86.122h67.635zM627.206-85.333h-67.635v86.122h67.635zM928.409-85.333h-67.635v86.122h67.635z" />
<glyph unicode="&#xe947;" glyph-name="math" horiz-adv-x="1033" d="M430.755 689.756h-430.755v67.516h430.755zM248.911 507.912h-67.516v430.755h67.516zM363.689-75.431l-344.334 344.334 47.712 47.712 344.334-344.334zM67.066-75.431l-47.712 47.712 344.334 344.334 47.712-47.712zM1033.452 689.756h-430.755v67.516h430.755zM1033.452 87.059h-430.755v67.516h430.755zM861.060 259.001h-85.971v67.516h85.971zM861.060-85.333h-85.971v67.516h85.971z" />
<glyph unicode="&#xe948;" glyph-name="media" horiz-adv-x="1015" d="M507.266 396.547l-206.063 51.268v232.485h412.125v-232.485zM368.838 500.66l138.427-34.404 138.427 34.404v112.004h-276.854zM851.755 612.664h-688.979v67.635h688.979zM0 938.667h1014.531v-756.164h-1014.531zM946.896 871.032h-879.26v-620.893h879.26zM464.43-33.028h-387.776v67.635h387.776zM937.878-33.028h-344.49v67.635h344.49zM498.247-85.333h-67.635v172.245h67.635z" />
<glyph unicode="&#xe949;" glyph-name="notebook" d="M89.043 887.022h833.447v-961.224h-833.447zM855.708 820.239h-699.882v-827.659h699.882zM326.344 768.149h-66.783v170.518h66.783zM539.158 768.149h-66.783v170.518h66.783zM751.972 768.149h-66.783v170.518h66.783zM761.322 436.907h-511.11v66.783h511.11zM761.322 606.98h-511.11v66.783h511.11zM761.322 266.389h-511.11v66.783h511.11zM505.767 96.316h-255.555v66.783h255.555z" />
<glyph unicode="&#xe94a;" glyph-name="open-book" d="M0 849.624h373.537c88.724-0.101 160.622-71.999 160.723-160.714v-595.399h-66.783v0.757c-0.036 25.77-10.493 49.091-27.381 65.981v0c-17.031 17.073-40.547 27.67-66.539 27.781h-373.558zM467.478 224.538v464.362c-0.051 51.862-42.079 93.89-93.936 93.941h-306.76v-528.028h306.755c35.264-0.075 67.865-11.411 94.415-30.601l-0.475 0.327zM628.202 849.624h373.537v-661.593h-373.537c-25.995-0.073-49.512-10.624-66.561-27.649l0.001 0.001c-16.888-16.89-27.345-40.211-27.381-65.974v-0.764h-66.783v595.256c0.101 88.724 71.999 160.622 160.714 160.723h0.010zM934.957 782.841h-306.755c-51.862-0.051-93.89-42.079-93.941-93.936v-464.367c26.068 18.894 58.667 30.26 93.916 30.364h306.78zM1001.739 17.957h-1001.739v203.464h66.783v-136.682h868.174v136.682h66.783z" />
<glyph unicode="&#xe94b;" glyph-name="paperclip" d="M400.651-63.072c-0.396-0.002-0.864-0.003-1.332-0.003-183.628 0-332.488 148.86-332.488 332.488 0 92.556 37.819 176.278 98.846 236.558l0.034 0.033 360.047 361.383c44.577 46.285 107.084 75.033 176.304 75.033 135.115 0 244.647-109.532 244.647-244.647 0-68.756-28.363-130.887-74.027-175.332l-0.055-0.053-370.421-370.421c-28.033-28.175-66.837-45.611-109.713-45.611-84.82 0-153.702 68.237-154.746 152.809l-0.001 0.099c-0.021 0.944-0.033 2.055-0.033 3.17 0 41.133 16.272 78.465 42.729 105.91l-0.045-0.047 0.267 0.312 343.708 349.941 47.638-46.792-343.485-349.718c-14.865-15.477-24.020-36.536-24.020-59.733 0-0.694 0.008-1.386 0.024-2.076l-0.002 0.103v-0.401c0.37-47.666 39.097-86.164 86.815-86.164 0.564 0 1.128 0.005 1.689 0.016l-0.084-0.001h0.623c23.934 0.025 45.6 9.716 61.308 25.379l370.552 370.419c32.108 32.046 51.971 76.351 51.971 125.295 0 97.765-79.254 177.018-177.018 177.018-0.678 0-1.355-0.004-2.032-0.011l0.103 0.001h-0.267c-48.905-0.001-93.19-19.784-125.289-51.783l0.004 0.004-360.225-361.561c-49.484-48.399-80.166-115.846-80.166-190.458 0-147.089 119.24-266.329 266.329-266.329 75.056 0 142.86 31.047 191.27 80.999l0.067 0.069 294.734 294.289 47.193-47.238-294.689-294.244c-60.296-60.718-143.683-98.439-235.88-98.882h-0.085z" />
<glyph unicode="&#xe94c;" glyph-name="papers-lines" d="M214.15 938.667h746.63v-831.666h-746.63zM893.997 871.884h-613.064v-698.101h613.064zM791.151-63.072h-746.63v831.666h203.019v-66.783h-136.237v-698.101h613.064v136.682h66.783zM800.056 659.516h-424.737v66.783h424.737zM800.056 489.443h-424.737v66.783h424.737zM629.983 319.37h-254.664v66.783h254.664z" />
<glyph unicode="&#xe94d;" glyph-name="pen" horiz-adv-x="1022" d="M849.076 580.463l-183.847 183.847 134.226 136.115c23.522 23.612 56.065 38.222 92.021 38.222 71.41 0 129.36-57.629 129.879-128.916v-0.049c0.044-1.261 0.069-2.744 0.069-4.232 0-34.826-13.637-66.466-35.862-89.873l-0.702-0.746zM765.085 764.593l84.322-84.322 85.503 84.369c9.884 10.573 15.953 24.82 15.953 40.485 0 0.789-0.015 1.574-0.046 2.355l0.003-0.112v1.464c-0.032 32.596-26.463 59.008-59.063 59.008-16.367 0-31.178-6.657-41.875-17.411l-0.003-0.003zM670.281 859.397l273.835-273.835-610.746-610.793-333.37-60.102 59.488 333.937zM843.977 585.562l-173.696 173.649-544.978-544.978-37.77-211.844 211.419 38.101zM251.503 564.694l-50.046 50.14 189.796 189.276h238.425v-70.819h-209.153z" />
<glyph unicode="&#xe94e;" glyph-name="pencil" horiz-adv-x="1023" d="M828.402 938.667v0c0.17 0.001 0.371 0.001 0.572 0.001 53.783 0 102.447-21.92 137.545-57.313l0.013-0.013c35.172-35.309 56.917-84.014 56.917-137.799 0-54.020-21.936-102.916-57.386-138.268l-0.004-0.004-647.905-648.899-318.154-41.657 41.657 318.154 648.899 647.953c35.171 35.566 83.91 57.651 137.809 57.846h0.037zM285.018 23.685l630.959 631.905c22.514 22.352 36.461 53.307 36.497 87.52v0.007c0 0.035 0 0.077 0 0.119 0 34.315-13.831 65.4-36.222 87.985l0.009-0.009c-22.314 22.529-53.257 36.479-87.457 36.479-34.317 0-65.354-14.045-87.676-36.701l-0.252-0.252-631.905-631.006-26.556-202.604zM827.503 516.892l-225.325 225.325 50.178 50.178 225.325-225.325zM0-85.333l45.349 346.32 39.053-10.367c62.2-16.848 115.554-48.672 157.889-91.427l0.028-0.028c43.814-42.59 76.394-96.513 93.015-157.040l0.571-2.439 10.462-39.053zM104.852 168.584l-22.438-171.361 171.361 22.769c-15.143 34.444-35.732 63.798-61 88.363l-0.065 0.063-0.568 0.568c-24.39 24.668-53.35 44.757-85.515 58.902l-1.775 0.696zM244.308 108.845l-50.178 50.178 520.71 520.71 50.178-50.178z" />
<glyph unicode="&#xe94f;" glyph-name="pencil-case" d="M162.909 496.485h691.665v-434.735c-0.106-92.757-75.272-167.923-168.019-168.029h-355.618c-92.757 0.106-167.923 75.272-168.029 168.019v0.010zM784.756 426.667h-552.029v-364.916c0.053-54.219 43.992-98.158 98.206-98.211h355.612c54.219 0.053 98.158 43.992 98.211 98.206v0.005zM251.811 938.667h247.622v-514.327h-247.622zM429.615 868.849h-107.985v-374.691h107.985zM632.553 459.249h-69.818v355.607h69.818zM765.673 459.249h-69.818v444.509h69.818zM429.615 316.82h425.425v-247.622h-425.425zM785.222 247.002h-285.789v-107.985h285.789z" />
<glyph unicode="&#xe950;" glyph-name="pencil-ruler" d="M815.51 938.757c0.132 0 0.289 0.001 0.446 0.001 38.388 0 73.146-15.542 98.324-40.677l69.899-69.899c24.626-25.359 39.809-60.004 39.809-98.196 0-38.755-15.634-73.859-40.94-99.348l0.008 0.008-210.196-209.972-435.477-434.13-307.303-40.405 41.572 306.316 645.090 645.584c25.181 25.16 59.957 40.72 98.367 40.72 0.141 0 0.282 0 0.423-0.001h-0.022zM936.141 780.908l-69.452 69.407c-13.139 13.028-31.23 21.078-51.202 21.078s-38.064-8.050-51.207-21.083l-628.968-629.462-26.667-196.503 197.536 25.994 419.315 418.013 209.882 210.017c13.039 13.080 21.1 31.128 21.1 51.058 0 0.011 0 0.022 0 0.033v-0.002 0.539c0.003 0.232 0.004 0.506 0.004 0.78 0 19.486-7.759 37.161-20.357 50.101l0.016-0.016zM834.814 530.665l-219.085 219.085 47.588 47.588 219.085-219.085zM30.618-53.907l44.535 332.714 36.679-9.383c119.286-31.26 211.402-123.227 242.35-240.078l0.53-2.352 9.518-36.814zM131.496 191.936l-22.447-167.591 168.265 22.133c-28.070 66.053-79.7 117.537-144.090 144.749l-1.772 0.665zM266.449 133.797l-47.588 47.588 506.411 506.411 47.588-47.588zM593.731 461.079l-47.588 47.588 61.954 61.954 47.588-47.588zM-0.030 619.961l310.786 310.786 266.978-266.978-310.786-310.786zM310.756 835.511l-215.55-215.55 171.742-171.742 215.55 215.55zM438.141 181.655l310.786 310.786 266.978-266.978-310.786-310.786zM748.927 397.205l-215.55-215.55 171.742-171.742 215.55 215.55zM180.656 486.579l-47.498 47.768 87.993 87.544 47.498-47.768zM619.41 48.094l-47.768 47.498 87.544 87.993 47.768-47.498z" />
<glyph unicode="&#xe951;" glyph-name="pillar" horiz-adv-x="1018" d="M163.272 938.667h692.045c0.058 0 0.126 0 0.194 0 89.899 0 162.776-72.877 162.776-162.776s-72.877-162.776-162.776-162.776c-61.657 0-115.307 34.28-142.93 84.821l-0.425 0.85h-404.775c-28.021-51.903-82.016-86.573-144.108-86.573-90.148 0-163.227 73.079-163.227 163.227s73.079 163.227 163.227 163.227v0zM855.453 680.751c52.545 0 95.14 42.596 95.14 95.14s-42.596 95.14-95.14 95.14v0h-692.181c-0.005 0-0.012 0-0.018 0-52.794 0-95.591-42.798-95.591-95.591s42.798-95.591 95.591-95.591c41.45 0 76.739 26.382 89.989 63.271l0.209 0.667 7.936 22.545h496.489l8.026-22.545c13.597-37.035 48.536-62.989 89.544-63.036h0.006zM731.319 698.787h-445.492v67.635h445.492zM800.758-85.333h-67.635v765.182h67.635zM284.024-85.333h-67.635v765.182h67.635zM456.268-85.333h-67.635v645.693h67.635zM628.513-85.333h-67.635v645.693h67.635z" />
<glyph unicode="&#xe952;" glyph-name="pin" d="M0-47.363l326.001 364.513 76.483-76.483-364.513-326.001-37.97 37.97zM594.449-8.796l-517.912 517.912 28.64 28.749c65.855 65.812 156.717 106.609 257.108 106.913h3.041c0.009 0 0.019 0 0.029 0 24.287 0 47.971-2.588 70.788-7.503l-2.2 0.397 155.678 154.267c-1.692 7.601-2.661 16.331-2.661 25.288 0 67.105 54.399 121.504 121.504 121.504 19.494 0 37.916-4.591 54.244-12.75l-0.703 0.318c13.409-6.045 24.846-14.114 34.479-23.956l0.019-0.020 191.152-191.152c9.857-9.638 17.925-21.056 23.69-33.743l0.285-0.701c7.842-15.621 12.434-34.040 12.434-53.531 0-67.075-54.375-121.45-121.45-121.45-8.938 0-17.65 0.965-26.038 2.798l0.803-0.147-154.321-155.732c4.528-20.636 7.121-44.341 7.121-68.651 0-1.133-0.006-2.264-0.017-3.394l0.001 0.172c-0.344-100.391-41.133-191.189-106.915-257.005l0.002 0.002zM193.539 507.109l398.903-398.903c34.998 46.494 56.116 105.164 56.304 168.76v0.478c0.009 0.774 0.013 1.689 0.013 2.604 0 24.887-3.591 48.935-10.284 71.654l0.452-1.79-6.563 22.945 225.76 227.821 26.362-13.235c5.235-2.678 11.42-4.248 17.971-4.248 22.169 0 40.14 17.971 40.14 40.14 0 6.551-1.57 12.736-4.353 18.199l0.105-0.228-0.922 1.844c-1.683 3.824-3.969 7.083-6.773 9.811l-0.007 0.007-0.38 0.488-191.858 191.858c-2.735 2.812-5.994 5.098-9.622 6.703l-0.196 0.078-2.061 0.976c-5.235 2.678-11.42 4.248-17.971 4.248-22.169 0-40.14-17.971-40.14-40.14 0-6.551 1.57-12.736 4.353-18.199l-0.105 0.228 13.235-26.362-227.821-225.76-22.945 6.563c-20.865 6.197-44.838 9.764-69.644 9.764-0.040 0-0.079 0-0.119 0h-3.032c-63.639-0.193-122.309-21.31-169.532-56.828l0.727 0.524z" />
<glyph unicode="&#xe953;" glyph-name="presentation" d="M185.21 886.577h664.264v-664.264h-664.264zM782.692 819.794h-530.699v-530.699h530.699zM901.565 222.757h-768v66.783h768zM550.734 853.185h-66.783v85.482h66.783zM292.597-97.087l-62.33 23.463 136.147 363.164h302.303l135.88-363.164-62.33-23.418-119.853 319.8h-209.697zM687.861 51.794h-383.777v66.783h383.777z" />
<glyph unicode="&#xe954;" glyph-name="projector-device" d="M1001.739 163.544h-1001.739v534.261h524.021v-66.783h-457.238v-400.696h868.174v400.696h-117.092v66.783h183.875zM670.943 782.841c112.37 0 203.464-91.094 203.464-203.464s-91.094-203.464-203.464-203.464c-112.37 0-203.464 91.094-203.464 203.464v0c0.127 112.319 91.145 203.338 203.452 203.464h0.012zM670.943 442.695c75.487 0 136.682 61.194 136.682 136.682s-61.194 136.682-136.682 136.682c-75.487 0-136.682-61.194-136.682-136.682v0c0.076-75.457 61.225-136.606 136.674-136.682h0.007zM245.76 460.949h-85.037v66.783h85.037zM415.833 460.949h-85.037v66.783h85.037zM151.819 69.157h-66.783v127.777h66.783zM916.703 69.157h-66.783v127.777h66.783z" />
<glyph unicode="&#xe955;" glyph-name="rulers" d="M0 938.667h415.972v-608.028h608.028v-415.972h-1024zM347.705 870.4h-279.438v-887.467h887.467v279.438h-608.028zM121.060 88.519h-86.926v68.267h86.926zM164.295 262.372h-130.162v68.267h130.162zM121.060 435.769h-86.926v68.267h86.926zM164.295 609.622h-130.162v68.267h130.162zM242.119-51.2h-68.267v86.926h68.267zM415.972-51.2h-68.267v130.162h68.267zM589.369-51.2h-68.267v86.926h68.267zM763.221-51.2h-68.267v130.162h68.267z" />
<glyph unicode="&#xe956;" glyph-name="ruler-tool" d="M312.842-85.362l-312.842 312.842 711.175 711.175 312.842-312.842zM93.947 227.48l218.895-218.895 617.229 617.229-218.895 218.895zM783.788 447.438l-93.888 93.888 46.944 46.944 93.888-93.888zM658.457 322.106l-62.887 62.887 46.944 46.944 62.887-62.887zM533.125 196.774l-93.888 93.888 46.944 46.944 93.888-93.888zM407.705 71.531l-62.444 62.887 47.121 46.767 62.444-62.887z" />
<glyph unicode="&#xe957;" glyph-name="school-bell" d="M417.169 149.163c-0.034 0-0.074 0-0.115 0-217.634 0-394.062 176.428-394.062 394.062s176.428 394.062 394.062 394.062c217.634 0 394.062-176.428 394.062-394.062 0-157.302-92.167-293.076-225.445-356.267l-2.392-1.020c-48.695-23.184-105.815-36.738-166.098-36.775h-0.013zM416.59 871.884c-180.996-0.165-327.658-146.929-327.658-327.947 0-181.12 146.827-327.947 327.947-327.947 0.102 0 0.204 0 0.305 0h-0.016c0.139 0 0.303 0 0.467 0 49.936 0 97.242 11.262 139.517 31.385l-1.966-0.842c112.729 53.543 189.277 166.468 189.277 297.272 0 181.121-146.769 327.963-327.862 328.081h-0.011zM416.456 595.538c27.383-0.136 50.032-20.235 54.143-46.482l0.040-0.311 0.356-2.582v-2.627c-0.204-16.398-7.456-31.061-18.862-41.13l-0.060-0.052-0.579-0.49c-9.369-7.905-21.574-12.715-34.901-12.733h-0.36c-0.003 0-0.007 0-0.011 0-29.998 0-54.317 24.318-54.317 54.317 0 0.391 0.004 0.782 0.012 1.171l-0.001-0.058v2.048l0.445 2.137c4.146 26.528 26.748 46.611 54.075 46.792h0.019zM768.401-63.428h-704.334v203.464c0 0.019 0 0.042 0 0.064 0 69.258 34.779 130.393 87.826 166.893l0.683 0.444 37.621-55.207c-36.027-24.764-59.347-65.75-59.347-112.183 0-0.004 0-0.008 0-0.012v0.001-136.682h570.769v136.682c-0.055 46.393-23.216 87.365-58.591 112.034l-0.445 0.294 37.933 54.94c53.322-37.166 87.799-98.159 87.886-167.21v-0.014zM981.215 63.904h-246.205v66.783h179.423v434.087h66.783zM947.823 640.46c41.801 0 75.687-33.886 75.687-75.687s-33.886-75.687-75.687-75.687c-41.801 0-75.687 33.886-75.687 75.687v0c0 41.801 33.886 75.687 75.687 75.687v0zM947.823 555.869c4.918 0 8.904 3.987 8.904 8.904s-3.987 8.904-8.904 8.904c-4.918 0-8.904-3.987-8.904-8.904v0c0-4.918 3.987-8.904 8.904-8.904v0z" />
<glyph unicode="&#xe958;" glyph-name="school-chair-desk" d="M353.948 470.298h577.892v-237.301h-577.892zM865.057 403.516h-444.327v-103.736h444.327zM396.689 938.667h492.856v-322.337h-492.856zM822.762 871.884h-359.29v-188.772h359.29zM846.358-74.203h-66.783v307.2h-273.809v-307.2h-66.783v373.983h407.374zM804.063 394.166h-66.783v222.163h-188.772v-222.163h-66.783v288.946h322.337zM515.117 232.997h-373.983v331.687h66.783v-264.904h307.2zM344.598 531.293h-255.555v66.783h255.555z" />
<glyph unicode="&#xe959;" glyph-name="scienctific" d="M345.214 593.488c3.342 3.483 7.324 7.546 11.356 11.578 82.014 82.014 176.786 143.493 277.928 184.437l-5.352-2.425c99.833 37.425 180.904 32.124 228.134-15.106s52.652-128.228 15.106-228.134c-38.519-95.79-99.998-190.563-182.012-272.577-4.032-4.032-8.094-8.014-12.187-11.947l0.61 0.591c-3.342-3.483-7.324-7.546-11.356-11.578-82.014-82.014-176.786-143.493-277.928-184.437l5.352 2.425c-99.833-37.474-180.832-32.051-228.061 15.178s-52.749 128.325-15.178 228.061c38.519 95.79 99.998 190.563 182.012 272.577 4.032 4.032 8.094 8.014 12.187 11.947l-0.61-0.591zM642.485 296.217c3.543 3.388 7.671 7.427 11.765 11.521 76.511 76.511 133.978 164.855 172.402 259.14l-2.294-5.030c29.485 78.724 28.226 142.051-3.462 173.739s-94.943 32.874-173.715 3.437c-89.286-36.131-177.657-93.608-254.189-170.141-4.074-4.074-8.095-8.182-12.061-12.323l0.595 0.615c-3.525-3.372-7.633-7.392-11.708-11.466-76.532-76.532-134.010-164.903-172.434-259.218l2.293 5.029c-29.437-78.772-28.25-142.027 3.437-173.715s95.015-32.947 173.739-3.462c89.256 36.13 177.599 93.597 254.11 170.108 4.094 4.094 8.133 8.221 12.118 12.382l-0.597-0.617zM166.803 771.873c47.229 47.229 128.228 52.652 228.134 15.106 95.789-38.519 190.56-99.997 272.572-182.010 4.007-4.007 7.966-8.045 11.875-12.113l-0.587 0.606c3.483-3.342 7.546-7.324 11.578-11.356 82.014-82.014 143.493-176.786 184.437-277.928l-2.425 5.352c37.425-99.833 32.124-180.904-15.106-228.134s-128.228-52.652-228.134-15.106c-95.79 38.519-190.563 99.998-272.577 182.012-4.032 4.032-8.014 8.094-11.947 12.187l0.591-0.61c-3.483 3.342-7.546 7.324-11.578 11.356-82.014 82.014-143.493 176.786-184.437 277.928l2.425-5.352c-37.57 99.736-32.075 180.808 15.178 228.061zM820.896 117.781c31.688 31.688 32.947 95.015 3.437 173.715-36.131 89.286-93.608 177.657-170.141 254.189-4.074 4.074-8.182 8.095-12.323 12.061l0.615-0.595c-3.388 3.543-7.427 7.671-11.521 11.765-76.511 76.511-164.855 133.978-259.14 172.402l5.030-2.294c-78.724 29.485-142.051 28.226-173.739-3.462s-32.874-94.943-3.437-173.715c36.131-89.286 93.608-177.657 170.141-254.189 4.074-4.074 8.182-8.095 12.323-12.061l-0.615 0.595c3.372-3.525 7.392-7.633 11.466-11.708 76.532-76.532 164.903-134.010 259.218-172.434l-5.029 2.293c78.772-29.437 142.027-28.25 173.715 3.437zM511.983 484.883c32.143 0 58.199-26.057 58.199-58.199s-26.057-58.199-58.199-58.199c-32.143 0-58.199 26.057-58.199 58.199v0c0 32.143 26.057 58.199 58.199 58.199v0zM511.983 419.837c3.781 0 6.847 3.065 6.847 6.847s-3.065 6.847-6.847 6.847c-3.781 0-6.847-3.065-6.847-6.847v0c0-3.781 3.065-6.847 6.847-6.847v0z" />
<glyph unicode="&#xe95a;" glyph-name="scissor" horiz-adv-x="994" d="M358.416 347.576l-255.549 255.596c-39.923 39.756-64.627 94.767-64.627 155.548s24.704 115.792 64.619 155.54l0.008 0.007 24.492 24.4 410.774-411.282zM130.178 837.834c-14.187-22.497-22.606-49.866-22.606-79.201 0-41.576 16.909-79.202 44.226-106.378l206.617-206.617 81.794 81.794zM774.319-85.379c0 0 0 0 0 0-121.306 0-219.643 98.338-219.643 219.643 0 0.114 0 0.227 0 0.341v-0.017q0 7.948 0.647 15.897l-115.159 115.344 179.809 179.809 98.893-98.708c16.437 4.549 35.311 7.163 54.796 7.163 0.069 0 0.138 0 0.207 0h0.451c121.357 0 219.736-98.379 219.736-219.736s-98.379-219.736-219.736-219.736v0zM538.040 265.828l90.528-90.528-2.726-17.376c-1.152-7.047-1.839-15.204-1.894-23.512v-0.056c0-0.064 0-0.139 0-0.215 0-76.683 57.488-139.939 131.717-149.022l0.725-0.072c5.367-0.689 11.592-1.092 17.908-1.109h0.022c83.061 0 150.395 67.334 150.395 150.395s-67.334 150.395-150.395 150.395h-0.739c-0.028 0-0.062 0-0.096 0-18.699 0-36.567-3.562-52.96-10.045l0.976 0.34-21.026-8.133-80.5 80.685zM851.493 938.667l24.492-24.492c39.771-39.731 64.372-94.639 64.372-155.294s-24.601-115.563-64.37-155.292l-439.011-439.011c1.365-8.953 2.145-19.282 2.145-29.794 0-31.196-6.869-60.787-19.178-87.344l0.535 1.286c-30.702-69.939-94.414-120.35-170.868-131.829l-1.223-0.151h-0.647c-8.481-1.161-18.282-1.824-28.238-1.824-121.229 0-219.504 98.276-219.504 219.504 0 20.156 2.717 39.677 7.804 58.217l-0.36-1.54c16.352 59.956 56.141 108.556 108.66 136.262l1.185 0.57c30.038 16.198 65.742 25.716 103.669 25.716 15.168 0 29.98-1.522 44.292-4.423l-1.424 0.241 70.103 71.628zM238.544-14.537c53.55 8.139 97.433 42.981 118.147 90.281l0.385 0.987 0.277 0.647c7.893 16.861 12.5 36.611 12.5 57.438 0 11.715-1.457 23.090-4.201 33.952l0.204-0.955-4.621 18.993 465.765 465.812c27.23 27.208 44.074 64.807 44.074 106.341 0 29.194-8.322 56.444-22.723 79.508l0.369-0.633-465.673-465.719-98.153-100.233-20.056 6.007c-13.126 4.088-28.218 6.443-43.859 6.443-26.104 0-50.676-6.559-72.158-18.118l0.812 0.399h-0.323c-36.604-19.247-63.723-52.357-74.621-92.171l-0.242-1.037c-3.25-11.659-5.118-25.048-5.118-38.873 0-82.946 67.241-150.187 150.187-150.187 6.708 0 13.313 0.44 19.788 1.292l-0.761-0.082z" />
<glyph unicode="&#xe95b;" glyph-name="sharpener" d="M870.177 842.5h164.953v-917.148h-164.953l-4.096 1.069c-99.322 26.73-213.52 42.527-331.26 43.45l-0.561 0.003c-118.286-0.931-232.468-16.727-341.323-45.607l9.547 2.154-4.096-1.069h-164.998v915.367h164.73l4.051-1.024c99.605-26.234 214.007-41.434 331.914-41.717h0.173c118.313 0.922 232.527 16.719 341.411 45.607l-9.546-2.154zM968.348 775.717h-89.711c-103.015-27.393-221.459-43.577-343.532-44.518l-0.577-0.003h-0.267c-122.391 0.294-241.010 15.865-354.231 44.904l9.944-2.163h-89.8v-781.802h89.711c103.015 27.393 221.459 43.577 343.532 44.518l0.577 0.003h0.49c122.65-0.944 241.094-17.129 354.099-46.746l-9.991 2.225h89.756zM203.464 136.385v491.965h831.666v-491.965zM270.247 561.568v-358.4h698.101v358.4zM1001.739 306.458h-764.883v66.783h764.883z" />
<glyph unicode="&#xe95c;" glyph-name="speech" d="M187.437 641.262h661.593v-236.856h-661.593zM782.247 574.479h-528.028v-103.29h528.028zM272.473 471.189h491.965v-534.261h-491.965zM697.656 404.406h-358.4v-400.696h358.4zM858.379-63.072h-680.292v66.783h680.292zM339.256 607.87h-66.783v127.332c0.175 88.737 71.899 160.664 160.542 161.168h0.048l0.223-66.783c-51.934-0.303-93.93-42.423-94.030-94.376v-0.010zM433.197 938.667c41.801 0 75.687-33.886 75.687-75.687s-33.886-75.687-75.687-75.687c-41.801 0-75.687 33.886-75.687 75.687v0c0 41.801 33.886 75.687 75.687 75.687v0zM433.197 854.076c4.918 0 8.904 3.987 8.904 8.904s-3.987 8.904-8.904 8.904c-4.918 0-8.904-3.987-8.904-8.904v0c0-4.918 3.987-8.904 8.904-8.904v0z" />
<glyph unicode="&#xe95d;" glyph-name="teacher-desk" d="M93.941 630.131h831.666v-576.557h-831.666zM858.824 563.349h-698.101v-442.991h698.101zM264.014 460.058h491.965v-236.856h-491.965zM689.197 393.276h-358.4v-103.29h358.4zM1019.548 563.349h-1019.548v66.783h1019.548zM160.723-40.811h-66.783v127.332h66.783zM925.607-40.811h-66.783v127.332h66.783zM245.76 596.74h-66.783v297.405h66.783zM373.092 596.74h-66.783v170.073h66.783zM117.983 596.74h-66.783v255.11h66.783z" />
<glyph unicode="&#xe95e;" glyph-name="telescope" horiz-adv-x="1034" d="M859.705 436.224h-251.221v68.267h182.955v192.057h-452.836v-192.057h96.028v-68.267h-164.295v328.59h589.369zM96.484 721.579h242.119v-242.119h-242.119zM270.336 653.312h-105.586v-105.586h105.586zM825.572 392.534h-34.133v415.972h34.133c114.867 0 207.986-93.118 207.986-207.986s-93.118-207.986-207.986-207.986v0zM859.705 736.006v-271.11c61.191 15.75 105.68 70.434 105.68 135.509s-44.489 119.759-104.71 135.297l-0.97 0.212zM859.705 339.741h-68.267v521.557h68.267zM555.691 730.681h-68.267v173.852h68.267zM608.484 870.4h-173.852v68.267h173.852zM130.617 566.386h-130.617v68.267h130.617zM521.557 590.962c66.859 0 121.060-54.2 121.060-121.060s-54.2-121.060-121.060-121.060c-66.859 0-121.060 54.2-121.060 121.060v0c0.078 66.828 54.231 120.982 121.052 121.060h0.007zM521.557 417.11c29.157 0 52.793 23.636 52.793 52.793s-23.636 52.793-52.793 52.793c-29.157 0-52.793-23.636-52.793-52.793v0c0.026-29.146 23.647-52.767 52.79-52.793h0.003zM707.152-64.307l-183.865 441.458 62.987 26.214 183.865-441.458zM335.508-64.307l-62.987 26.214 183.865 441.458 62.987-26.214zM434.631-85.333h-217.088v68.267h217.088zM825.572-85.333h-217.088v68.267h217.088z" />
<glyph unicode="&#xe95f;" glyph-name="textbook" d="M96.167 938.667h874.407v-1001.739h-874.407zM903.791 871.884h-740.842v-868.174h740.842zM214.595 659.516h-170.073v66.783h170.073zM214.595 319.37h-170.073v66.783h170.073zM214.595 489.443h-170.073v66.783h170.073zM214.595 149.297h-170.073v66.783h170.073zM308.536 726.298h491.965v-236.856h-491.965zM733.718 659.516h-358.4v-103.29h358.4zM809.405 319.37h-510.219v66.783h510.219z" />
<glyph unicode="&#xe960;" glyph-name="timer" d="M468.764 852.196c258.891 0 468.764-209.873 468.764-468.764s-209.873-468.764-468.764-468.764c-258.891 0-468.764 209.873-468.764 468.764v0c0.31 258.766 209.998 468.454 468.734 468.764h0.030zM468.764-17.066c221.189 0 400.498 179.309 400.498 400.498s-179.309 400.498-400.498 400.498c-221.189 0-400.498-179.309-400.498-400.498v0c0.259-221.085 179.413-400.239 400.473-400.498h0.025zM881.095 938.667c78.924 0 142.905-63.981 142.905-142.905s-63.981-142.905-142.905-142.905c-78.924 0-142.905 63.981-142.905 142.905v0c0.103 78.882 64.022 142.801 142.895 142.905h0.010zM881.095 721.124c41.222 0 74.638 33.417 74.638 74.638s-33.417 74.638-74.638 74.638c-41.222 0-74.638-33.417-74.638-74.638v0c0.052-41.201 33.437-74.586 74.633-74.638h0.005zM748.658 54.841l-89.202 89.202 48.242 48.242 89.202-89.202zM229.376 574.123l-89.202 89.202 48.242 48.242 89.202-89.202zM188.416 54.841l-48.242 48.242 89.202 89.202 48.242-48.242zM707.698 574.123l-48.242 48.242 89.202 89.202 48.242-48.242zM362.268 228.694l-48.242 48.242 260.779 260.779 48.242-48.242zM468.764 460.8c42.73 0 77.369-34.639 77.369-77.369s-34.639-77.369-77.369-77.369c-42.73 0-77.369 34.639-77.369 77.369v0c0 42.73 34.639 77.369 77.369 77.369v0zM468.764 374.329c5.027 0 9.102 4.075 9.102 9.102s-4.075 9.102-9.102 9.102c-5.027 0-9.102-4.075-9.102-9.102v0c0-5.027 4.075-9.102 9.102-9.102v0z" />
<glyph unicode="&#xe961;" glyph-name="whiteboard" d="M52.090 805.102h920.264v-749.301h-920.264zM905.572 738.319h-786.699v-615.736h786.699zM1024 55.356h-1024v66.783h1024zM573.885 293.102h87.708c77.168-0.101 139.697-62.63 139.798-139.788v-97.513h-367.304v97.503c0.107 39.005 16.076 74.259 41.792 99.671l0.014 0.013c25.086 24.797 59.587 40.114 97.667 40.114 0.114 0 0.229 0 0.343 0h-0.018zM734.609 122.584v30.72c-0.051 40.305-32.711 72.965-73.011 73.016h-87.713c-0.051 0-0.112 0-0.172 0-19.897 0-37.925-8.008-51.034-20.976l0.006 0.006c-13.437-13.288-21.772-31.712-21.816-52.082v-30.728z" />
<glyph unicode="&#xe962;" glyph-name="abacus-bold" horiz-adv-x="1026" d="M983.415 85.036h-940.599v853.631h89.199v-764.432h762.202v764.432h89.199zM0 174.235h1025.784v-259.568h-1025.784zM936.585 85.036h-847.387v-81.171h847.387zM938.815 808.883h-851.847v89.199h851.847zM301.937 768.298h-89.199v170.369h89.199zM429.937 768.298h-89.199v170.369h89.199zM557.491 768.298h-89.199v170.369h89.199zM938.815 553.329h-851.847v89.199h851.847zM472.307 512.744h-89.199v170.369h89.199zM599.861 512.744h-89.199v170.369h89.199zM813.045 512.744h-89.199v170.369h89.199zM938.815 297.775h-851.847v89.199h851.847zM301.937 257.19h-89.199v170.369h89.199zM429.937 257.19h-89.199v170.369h89.199zM727.861 257.19h-89.199v170.369h89.199z" />
</font>
</defs>
</svg>
