<?xml version="1.0" standalone="no"?>
<!DOCTYPE svg PUBLIC "-//W3C//DTD SVG 1.1//EN" "http://www.w3.org/Graphics/SVG/1.1/DTD/svg11.dtd" >
<svg xmlns="http://www.w3.org/2000/svg">
<metadata>Generated by IcoMoon</metadata>
<defs>
<font id="medical" horiz-adv-x="1024">
<font-face units-per-em="1024" ascent="960" descent="-64" />
<missing-glyph horiz-adv-x="1024" />
<glyph unicode="&#x20;" horiz-adv-x="512" d="" />
<glyph unicode="&#xe900;" glyph-name="ambulance-thin" d="M251.345 184.631c61.695 0 111.709-50.014 111.709-111.709s-50.014-111.709-111.709-111.709c-61.695 0-111.709 50.014-111.709 111.709v0c0 61.695 50.014 111.709 111.709 111.709v0zM251.345 7.758c35.989 0 65.164 29.175 65.164 65.164s-29.175 65.164-65.164 65.164c-35.989 0-65.164-29.175-65.164-65.164v0c0-35.989 29.175-65.164 65.164-65.164v0zM781.964 184.631c61.695 0 111.709-50.014 111.709-111.709s-50.014-111.709-111.709-111.709c-61.695 0-111.709 50.014-111.709 111.709v0c0 61.695 50.014 111.709 111.709 111.709v0zM781.964 7.758c35.989 0 65.164 29.175 65.164 65.164s-29.175 65.164-65.164 65.164c-35.989 0-65.164-29.175-65.164-65.164v0c0-35.989 29.175-65.164 65.164-65.164v0zM693.527 49.649h-353.745v46.545h353.745zM158.255 44.994h-158.255v600.436c0 61.695 50.014 111.709 111.709 111.709v0h595.782c0.425 0.006 0.928 0.009 1.431 0.009 51.783 0 95.495-34.558 109.332-81.869l0.202-0.805 71.261-271.779 138.892-47.895v-305.152h-158.255v46.545h111.709v225.466l-131.072 45.196-77.684 296.215c-8.887 27.775-34.475 47.532-64.678 47.532-0.4 0-0.799-0.003-1.197-0.010l0.060 0.001h-595.782c-35.989 0-65.164-29.175-65.164-65.164v0-553.891h111.709zM470.109 449.94h-265.309v46.545h265.309zM363.055 338.231h-46.545v265.309h46.545zM651.636 845.576h-181.527v46.545h181.527zM870.4 356.849h-242.036v381.673h46.545v-335.127h195.491z" />
<glyph unicode="&#xe901;" glyph-name="bacteria-organism-thin" d="M342.817 831.815c130.259-0.152 235.813-105.707 235.965-235.951v-0.014c2.046-56.984 48.735-102.403 106.031-102.403 0.289 0 0.577 0.001 0.865 0.003h-0.044c64.465-0.047 122.636-26.951 163.938-70.127l0.080-0.084c41.74-42.658 67.495-101.104 67.495-165.564 0-0.067 0-0.134 0-0.201v0.010c-0.152-130.259-105.707-235.813-235.951-235.965h-0.014c-0.37-0.001-0.809-0.001-1.248-0.001-157.735 0-300.536 63.939-403.899 167.313l-0.001 0.001c-104.483 103.348-169.185 246.73-169.185 405.224 0 0.631 0.001 1.261 0.003 1.892v-0.098c0.152 130.259 105.707 235.813 235.951 235.965h0.014zM681.183 66.041c105.731 0 191.443 85.712 191.443 191.443v0c0.007 0.587 0.010 1.281 0.010 1.975 0 103.776-83.426 188.068-186.87 189.467l-0.132 0.001c-0.058 0-0.127 0-0.196 0-41.553 0-79.216 16.654-106.678 43.652l0.021-0.021c-27.101 26.186-44.066 62.714-44.521 103.206l-0.001 0.085c0 105.731-85.712 191.443-191.443 191.443v0c-105.731 0-191.443-85.712-191.443-191.443v0c0.329-292.473 237.336-529.479 529.777-529.809h0.032zM213.704 662.632c59.013 0 106.852-47.839 106.852-106.852s-47.839-106.852-106.852-106.852c-59.013 0-106.852 47.839-106.852 106.852v0c0 59.013 47.839 106.852 106.852 106.852v0zM213.704 493.45c34.424 0 62.33 27.906 62.33 62.33s-27.906 62.33-62.33 62.33c-34.424 0-62.33-27.906-62.33-62.33v0c0-34.424 27.906-62.33 62.33-62.33v0zM681.183 488.997c59.013 0 106.852-47.839 106.852-106.852s-47.839-106.852-106.852-106.852c-59.013 0-106.852 47.839-106.852 106.852v0c0 59.013 47.839 106.852 106.852 106.852v0zM681.183 319.815c34.424 0 62.33 27.906 62.33 62.33s-27.906 62.33-62.33 62.33c-34.424 0-62.33-27.906-62.33-62.33v0c0-34.424 27.906-62.33 62.33-62.33v0zM427.409 359.884h-84.591v44.522h84.591zM467.478 573.589h-84.591v44.522h84.591zM556.522 190.702h-89.043v44.522h89.043zM725.704 146.18h-84.591v44.522h84.591zM365.078 809.554h-44.522v129.113h44.522zM1024 190.702h-129.113v44.522h129.113zM207.204 90.35l-31.477 31.477 106.852 106.852 31.477-31.477zM612.352 495.498l-31.477 31.477 106.852 106.852 31.477-31.477zM870.934 366.83l-32.278 30.675 84.591 89.043 32.278-30.675zM482.794 753.323l-30.675 32.278 89.043 84.591 30.675-32.278zM618.852-85.333h-44.522v129.113h44.522zM129.113 573.589h-129.113v44.522h129.113zM153.422 709.202l-84.591 84.591 31.521 31.521 84.591-84.591zM923.96-56.839l-129.113 124.661 30.898 32.056 129.113-124.661zM60.55 282.105l-32.056 30.898 124.661 129.113 32.056-30.898zM398.336-56.839l-30.898 32.056 129.113 124.661 30.898-32.056z" />
<glyph unicode="&#xe902;" glyph-name="bacteria-view-thin" d="M512 938.667c282.763-0.009 511.984-229.236 511.984-512 0-141.381-57.304-269.378-149.953-362.031v0c-92.888-94.106-221.865-152.395-364.456-152.395-282.77 0-512 229.23-512 512 0 142.591 58.29 271.568 152.34 364.402l0.055 0.054c92.145 92.639 219.706 149.971 360.658 149.971 0.483 0 0.966-0.001 1.448-0.002h-0.075zM512-38.788c257.063 0 465.455 208.391 465.455 465.455s-208.391 465.455-465.455 465.455c-257.063 0-465.455-208.391-465.455-465.455v0c0.291-256.946 208.508-465.163 465.427-465.455h0.028zM798.068 442.772c-15.502 14.946-27.14 33.796-33.337 54.969l-0.222 0.885c-4.071 14.761-11.839 27.368-22.256 37.2l-0.039 0.036c-9.868 10.456-22.475 18.225-36.676 22.163l-0.56 0.133c-22.059 6.419-40.909 18.058-55.818 33.521l-0.036 0.038c-15.502 14.946-27.14 33.796-33.337 54.969l-0.222 0.885c-4.071 14.761-11.839 27.368-22.256 37.2l-0.039 0.036 32.908 32.908c15.502-14.946 27.14-33.796 33.337-54.969l0.222-0.885c4.071-14.761 11.839-27.368 22.256-37.2l0.039-0.036c9.867-10.458 22.475-18.227 36.676-22.163l0.56-0.132c22.059-6.419 40.909-18.058 55.818-33.521l0.036-0.038c15.502-14.946 27.14-33.796 33.337-54.969l0.222-0.885c4.071-14.761 11.839-27.368 22.256-37.2l0.039-0.036zM256 296.34h-46.545c0 0.085 0 0.185 0 0.285 0 20.88 6.458 40.252 17.485 56.227l-0.216-0.332c6.657 8.886 10.659 20.095 10.659 32.239 0 0.006 0 0.012 0 0.018v-0.001c0 0.005 0 0.011 0 0.017 0 12.144-4.002 23.353-10.76 32.38l0.101-0.141c-10.811 15.643-17.269 35.015-17.269 55.895 0 0.1 0 0.2 0 0.3v-0.015c-0.018 0.695-0.028 1.513-0.028 2.333 0 21.34 6.794 41.094 18.336 57.216l-0.202-0.297c6.126 7.729 9.827 17.623 9.827 28.38 0 0.266-0.002 0.532-0.007 0.797l0.001-0.040h46.545c0.004-0.325 0.007-0.709 0.007-1.094 0-19.876-6.389-38.259-17.224-53.209l0.182 0.264c-6.818-8.942-10.923-20.272-10.923-32.561 0-0.646 0.011-1.289 0.034-1.929l-0.003 0.093c0-0.005 0-0.011 0-0.017 0-12.144 4.002-23.353 10.76-32.38l-0.101 0.141c10.811-15.643 17.269-35.015 17.269-55.895 0-0.1 0-0.2 0-0.3v0.015c0-0.085 0-0.185 0-0.285 0-20.88-6.458-40.252-17.485-56.227l0.216 0.332c-6.651-8.878-10.652-20.076-10.659-32.208v-0.002zM384.698 109.041l-24.669 39.471c14.508 9.598 32.314 15.312 51.456 15.312 1.793 0 3.574-0.050 5.342-0.149l-0.245 0.011c1.338-0.129 2.893-0.202 4.466-0.202 10.219 0 19.713 3.101 27.594 8.413l-0.176-0.112c9.597 5.75 17.066 14.194 21.465 24.283l0.132 0.339c8.378 18.409 22.65 32.922 40.362 41.394l0.505 0.217c14.9 7.702 32.52 12.224 51.194 12.241h0.006c0.673-0.027 1.463-0.043 2.257-0.043 12.278 0 23.683 3.737 33.14 10.137l-0.209-0.133 24.669-39.471c-16.142-10.651-35.944-16.991-57.227-16.991-0.221 0-0.442 0.001-0.663 0.002h0.034c-0.479 0.012-1.042 0.019-1.608 0.019-11.297 0-21.958-2.725-31.361-7.553l0.387 0.18c-9.399-4.326-16.656-11.961-20.387-21.377l-0.093-0.266c-8.456-17.824-21.529-32.288-37.693-42.205l-0.428-0.244c-14.508-9.598-32.314-15.312-51.456-15.312-1.793 0-3.574 0.050-5.342 0.149l0.245-0.011c-1.289 0.119-2.787 0.187-4.301 0.187-10.21 0-19.696-3.095-27.573-8.398l0.176 0.112zM423.564 668.703h-88.436v46.545h88.436zM512 403.394h-88.436v46.545h88.436zM823.855 226.522h-88.436v46.545h88.436z" />
<glyph unicode="&#xe903;" glyph-name="bandages-thin" horiz-adv-x="1019" d="M702.565 934.075h9.184c47.877-0.622 90.957-20.657 121.823-52.575l0.046-0.048 133.166-133.166c31.967-30.913 52.002-73.992 52.622-121.754l0.001-0.116v-9.184c0.045-1.401 0.071-3.049 0.071-4.702 0-46.854-20.567-88.904-53.164-117.616l-0.172-0.149-527.475-527.475c-30.903-31.956-73.963-51.988-121.706-52.622l-0.118-0.001h-9.184c-1.401-0.045-3.049-0.071-4.702-0.071-46.854 0-88.904 20.567-117.616 53.164l-0.149 0.172-132.569 132.569c-31.956 30.903-51.988 73.963-52.622 121.706l-0.001 0.118v9.184c0.622 47.877 20.657 90.957 52.575 121.823l0.048 0.046 528.072 528.072c30.913 31.967 73.992 52.002 121.754 52.622l0.116 0.001zM316.843-39.414c35.179 0.688 66.75 15.584 89.314 39.168l0.045 0.047 529.357 529.266c23.33 20.38 37.986 50.185 37.986 83.412 0 1.672-0.037 3.335-0.111 4.989l0.008-0.235v9.184c-0.688 35.179-15.584 66.75-39.168 89.314l-0.047 0.045-133.166 133.166c-22.599 23.621-54.151 38.514-89.185 39.213l-0.128 0.002h-9.184c-35.179-0.688-66.75-15.584-89.314-39.168l-0.045-0.047-528.072-528.072c-23.631-22.609-38.528-54.18-39.213-89.233l-0.002-0.126v-9.184c0.688-35.179 15.584-66.75 39.168-89.314l0.047-0.045 134.36-134.452c20.38-23.33 50.185-37.986 83.412-37.986 1.672 0 3.335 0.037 4.989 0.111l-0.235-0.008zM707.157-85.333h-9.184c-1.405-0.045-3.057-0.071-4.715-0.071-46.725 0-88.673 20.454-117.378 52.896l-0.144 0.166-91.012 86.466 31.638 33.291 92.711-88.073 0.781-0.872c20.38-23.33 50.185-37.986 83.412-37.986 1.672 0 3.335 0.037 4.989 0.111l-0.235-0.008h9.184c35.179 0.688 66.75 15.584 89.314 39.168l0.045 0.047 134.452 134.36c23.33 20.38 37.986 50.185 37.986 83.412 0 1.672-0.037 3.335-0.111 4.989l0.008-0.235v9.184c-0.688 35.179-15.584 66.75-39.168 89.314l-0.047 0.045-46.746 46.792-41.327 45.919 34.118 30.72 40.914-45.46 45.506-45.506c31.973-30.896 52.021-73.957 52.668-121.703l0.001-0.12v-9.184c0.046-1.413 0.072-3.074 0.072-4.742 0-46.833-20.548-88.866-53.121-117.577l-0.171-0.148-132.569-132.569c-30.913-31.967-73.992-52.002-121.754-52.622l-0.116-0.001zM144.462 412.708l-87.247 87.247c-31.967 30.913-52.002 73.992-52.622 121.754l-0.001 0.116v9.184c0.622 47.877 20.657 90.957 52.575 121.823l0.048 0.046 133.166 133.166c30.913 31.967 73.992 52.002 121.754 52.622l0.116 0.001h9.184c47.877-0.622 90.957-20.657 121.823-52.575l0.046-0.048 87.247-87.247-32.465-32.465-87.247 87.247c-22.609 23.631-54.18 38.528-89.233 39.213l-0.126 0.002h-9.184c-35.179-0.688-66.75-15.584-89.314-39.168l-0.045-0.047-133.166-133.166c-23.658-22.613-38.574-54.203-39.259-89.279l-0.002-0.126v-9.184c0.688-35.179 15.584-66.75 39.168-89.314l0.047-0.045 87.247-87.247zM486.744 244.964l-161.039 161.039 206.958 206.958 161.039-161.039zM390.635 406.003l96.109-96.109 142.028 142.028-96.109 96.109zM247.964 231.51h-87.247v45.919h87.247zM376.538 98.344h-87.247v45.919h87.247zM730.117 713.663h-87.247v45.919h87.247zM858.691 580.497h-87.247v45.919h87.247z" />
<glyph unicode="&#xe904;" glyph-name="bandage-thin" d="M705.73 938.667h9.225c48.093-0.625 91.366-20.75 122.372-52.812l0.046-0.048 133.766-133.766c32.111-31.052 52.236-74.326 52.859-122.303l0.001-0.116v-9.225c0.045-1.408 0.071-3.062 0.071-4.723 0-47.065-20.659-89.305-53.404-118.145l-0.173-0.15-529.851-529.851c-31.042-32.1-74.296-52.223-122.254-52.859l-0.118-0.001h-9.225c-1.408-0.045-3.062-0.071-4.723-0.071-47.065 0-89.305 20.659-118.145 53.404l-0.15 0.173-133.166 133.166c-32.1 31.042-52.223 74.296-52.859 122.254l-0.001 0.118v9.225c0.625 48.093 20.75 91.366 52.812 122.372l0.048 0.046 530.45 530.45c31.052 32.111 74.326 52.236 122.303 52.859l0.116 0.001zM318.27-39.207c35.338 0.691 67.050 15.654 89.717 39.345l0.045 0.047 531.742 531.65c23.435 20.472 38.157 50.411 38.157 83.787 0 1.679-0.037 3.35-0.111 5.011l0.008-0.236v9.225c-0.691 35.338-15.654 67.050-39.345 89.717l-0.047 0.045-133.766 133.766c-22.701 23.727-54.395 38.688-89.586 39.39l-0.129 0.002h-9.225c-35.338-0.691-67.050-15.654-89.717-39.345l-0.045-0.047-530.45-530.45c-23.738-22.711-38.701-54.424-39.39-89.635l-0.002-0.127v-9.225c0.691-35.338 15.654-67.050 39.345-89.717l0.047-0.045 134.965-135.057c20.472-23.435 50.411-38.157 83.787-38.157 1.679 0 3.35 0.037 5.011 0.111l-0.236-0.008zM488.937 246.452l-161.764 161.764 207.89 207.89 161.764-161.764zM392.395 408.217l96.542-96.542 142.668 142.668-96.542 96.542z" />
<glyph unicode="&#xe905;" glyph-name="blood-drip-thin" horiz-adv-x="760" d="M45.511-85.333h-45.511v1024h760.036v-45.511h-714.524zM477.867-85.333h-45.511v131.982h45.511zM477.867 742.969h-45.511v172.942h45.511zM177.493 765.725h564.338v-459.662c-0.181-155.765-126.404-281.988-282.151-282.169h-0.018c-155.765 0.181-281.988 126.404-282.169 282.151v0.018zM696.32 720.214h-473.316v-414.151c0.155-130.64 106.018-236.502 236.643-236.658h0.015c130.64 0.155 236.502 106.018 236.658 236.643v0.015zM458.615 246.625c-3.186 0-6.463 0-9.648 0.364-69.747 5.146-125.078 60.429-130.27 129.692l-0.028 0.47v1.729c0 110.137 117.737 200.886 122.88 204.8l13.653 10.24 13.653-10.012c5.234-3.823 127.431-94.572 127.431-204.8v-1.638c-4.736-72.654-64.37-129.911-137.579-130.844l-0.092-0.001zM364.089 379.791c3.431-47.105 41.012-84.419 87.925-87.413l0.275-0.014c2.002 0 4.187 0 6.281 0 48.865 0.898 88.566 38.938 92.096 87.028l0.018 0.308c-0.501 68.267-66.082 131.482-95.255 156.331-28.171-25.168-90.795-88.428-91.341-156.285z" />
<glyph unicode="&#xe906;" glyph-name="blood-pressure-thin" d="M0 916.406h396.243c0.764 0.019 1.664 0.029 2.567 0.029 62.529 0 113.219-50.69 113.219-113.219 0-0.903-0.011-1.803-0.032-2.7l0.002 0.133v-280.487c0.019-0.764 0.029-1.664 0.029-2.567 0-62.529-50.69-113.219-113.219-113.219-0.903 0-1.803 0.011-2.7 0.032l0.133-0.002h-396.243zM396.243 448.928c0.702-0.026 1.527-0.040 2.355-0.040 38.063 0 68.92 30.856 68.92 68.92 0 0.828-0.015 1.653-0.044 2.474l0.003-0.119v280.487c0.026 0.702 0.040 1.527 0.040 2.355 0 38.063-30.856 68.92-68.92 68.92-0.828 0-1.653-0.015-2.474-0.044l0.119 0.003h-351.722v-422.957zM788.035 871.884c105.731 0 191.443-85.712 191.443-191.443s-85.712-191.443-191.443-191.443c-105.731 0-191.443 85.712-191.443 191.443v0c0 105.731 85.712 191.443 191.443 191.443v0zM788.035 533.519c81.143 0 146.922 65.779 146.922 146.922s-65.779 146.922-146.922 146.922c-81.143 0-146.922-65.779-146.922-146.922v0c0-81.143 65.779-146.922 146.922-146.922v0zM618.852 235.224h-129.113c-105.731 0-191.443 85.712-191.443 191.443v0 44.522h44.522v-44.522c0-81.143 65.779-146.922 146.922-146.922v0h129.113c81.143 0 146.922 65.779 146.922 146.922v0 253.774h44.522v-253.774c0-105.731-85.712-191.443-191.443-191.443v0zM703.443 150.632h129.113c59.013 0 106.852-47.839 106.852-106.852v0c0-59.013-47.839-106.852-106.852-106.852v0h-129.113c-59.013 0-106.852 47.839-106.852 106.852v0c-0.017 0.711-0.027 1.548-0.027 2.387 0 57.71 46.783 104.493 104.493 104.493 0.839 0 1.676-0.010 2.511-0.030l-0.124 0.002zM832.557-18.55c34.424 0 62.33 27.906 62.33 62.33v0c0 34.424-27.906 62.33-62.33 62.33v0h-129.113c-0.83 0.041-1.803 0.065-2.781 0.065-32.924 0-59.615-26.69-59.615-59.615 0-0.978 0.024-1.951 0.070-2.917l-0.005 0.136c0-34.424 27.906-62.33 62.33-62.33v0zM1001.739 21.519h-84.591v44.522h84.591zM614.4 21.519h-169.183c-0.322-0.001-0.704-0.002-1.087-0.002-99.25 0-189.076 40.353-253.964 105.548l-0.014 0.014c-65.209 64.902-105.563 154.728-105.563 253.978 0 0.382 0.001 0.764 0.002 1.145v-0.059 89.043h44.522v-89.043c0.202-174.498 141.606-315.902 316.085-316.104h169.202zM213.704 555.78h-44.522v338.365h44.522z" />
<glyph unicode="&#xe907;" glyph-name="bone-joint-thin" d="M618.852-85.333h-44.522v190.108l20.881 1.291c29.436 1.896 55.36 15.521 73.398 36.203l0.108 0.126c16.14 18.022 26.007 41.954 26.007 68.19 0 1.885-0.051 3.758-0.152 5.619l0.011-0.259c-2.075 53.821-44.993 96.971-98.524 99.409l-0.225 0.008c-0.771 0.021-1.678 0.032-2.588 0.032-56.789 0-102.896-45.73-103.507-102.375v-4.51h-44.522v4.452c0.352 81.245 66.295 146.97 147.588 146.97 1.331 0 2.658-0.018 3.981-0.053l-0.195 0.004h1.469c76.286-3.765 137.191-64.67 140.942-140.609l0.014-0.347c0.149-2.477 0.234-5.373 0.234-8.288 0-37.533-14.052-71.783-37.183-97.777l0.13 0.148c-21.229-24.276-49.866-41.599-82.363-48.445l-0.982-0.173zM449.67-80.881h-44.522v148.569c-73.43 11.32-129.013 74.017-129.113 149.716v0.011c-0.069 1.636-0.109 3.555-0.109 5.483 0 36.776 14.384 70.193 37.833 94.931l-0.058-0.062c28.137 29.498 67.746 47.84 111.639 47.84 39.031 0 74.675-14.503 101.835-38.415l-0.17 0.147-30.097-32.813c-19.117 16.441-44.176 26.452-71.574 26.452-31.593 0-60.077-13.312-80.149-34.632l-0.052-0.056c-15.362-17.013-24.762-39.668-24.762-64.518 0-1.517 0.035-3.025 0.104-4.525l-0.008 0.213c0-59.013 47.839-106.852 106.852-106.852v0h22.261zM427.409 493.45h-1.469c-76.286 3.765-137.191 64.67-140.942 140.609l-0.014 0.347c-0.149 2.477-0.234 5.373-0.234 8.288 0 37.533 14.052 71.783 37.183 97.777l-0.13-0.148c21.229 24.276 49.866 41.599 82.363 48.445l0.982 0.173v149.727h44.522v-190.108l-20.881-1.291c-29.436-1.896-55.36-15.521-73.398-36.203l-0.108-0.126c-16.14-18.022-26.007-41.954-26.007-68.19 0-1.885 0.051-3.758 0.152-5.619l-0.011 0.259c2.075-53.821 44.993-96.971 98.524-99.409l0.225-0.008c0.771-0.021 1.678-0.032 2.588-0.032 56.789 0 102.896 45.73 103.507 102.375v4.51h44.522v-4.452c-0.352-81.245-66.295-146.97-147.588-146.97-1.331 0-2.658 0.018-3.981 0.053l0.195-0.004zM596.591 487.662c-0.228-0.001-0.497-0.002-0.767-0.002-38.142 0-72.878 14.583-98.937 38.478l0.108-0.098 30.097 32.813c19.117-16.441 44.176-26.452 71.574-26.452 31.593 0 60.077 13.312 80.149 34.632l0.052 0.056c15.362 17.013 24.762 39.668 24.762 64.518 0 1.517-0.035 3.025-0.104 4.525l0.008-0.213c0 59.013-47.839 106.852-106.852 106.852v0h-22.261v191.443h44.522v-148.569c73.43-11.32 129.013-74.017 129.113-149.716v-0.011c0.069-1.636 0.109-3.555 0.109-5.483 0-36.776-14.384-70.193-37.833-94.931l0.058 0.062c-29.033-29.388-69.258-47.664-113.752-47.905h-0.046zM1024 448.928h-129.113v44.522h129.113zM867.328 621.939l-25.021 36.819 124.661 84.591 25.021-36.819zM966.968 194.531l-124.661 84.591 25.021 36.864 124.661-84.591zM129.113 448.928h-129.113v44.522h129.113zM57.032 194.531l-25.021 36.819 124.661 84.591 25.021-36.819zM156.672 621.939l-124.661 84.591 25.021 36.864 124.661-84.591z" />
<glyph unicode="&#xe908;" glyph-name="bone-thin" horiz-adv-x="1021" d="M434.289 478.73l-32.909 32.909 158.913 158.913c-14.307 24.72-22.749 54.383-22.749 86.017 0 11.042 1.029 21.845 2.995 32.316l-0.169-1.080c8.739 48.342 35.272 89.299 72.431 116.663l0.509 0.358c28.415 21.084 64.175 33.751 102.894 33.751 11.067 0 21.891-1.035 32.383-3.013l-1.080 0.169c48.378-8.764 89.356-35.348 116.708-72.567l0.359-0.513c15.319-19.546 26.524-43.064 31.881-68.729l0.191-1.093-45.663-9.31c-4.013 19.658-12.321 36.925-23.925 51.442l0.185-0.24c-20.741 28.304-51.442 48.251-86.85 54.705l-0.845 0.128c-6.933 1.337-14.907 2.101-23.060 2.101-28.398 0-54.629-9.278-75.828-24.968l0.346 0.245c-28.304-20.741-48.251-51.442-54.705-86.85l-0.128-0.845c-1.337-6.933-2.101-14.907-2.101-23.060 0-28.398 9.278-54.629 24.968-75.828l-0.245 0.346 11.823-16.105zM144.53 39.275c-38.252 5.318-71.679 22.839-96.941 48.438l-0.018 0.018-1.21 1.303c-28.944 33.069-46.597 76.656-46.597 124.366 0 1.525 0.018 3.046 0.054 4.563l-0.004-0.225c1.049 49.028 23.173 92.687 57.644 122.426l0.214 0.181c29.011 27.041 67.149 44.63 109.317 47.678l0.582 0.034c3.627 0.265 7.857 0.416 12.123 0.416 31.426 0 60.939-8.196 86.516-22.566l-0.889 0.459 159.239 159.239 32.909-32.909-186.19-186.19-15.966 11.078c-21.134 15.124-47.507 24.183-75.995 24.183-35.119 0-67.022-13.767-90.607-36.198l0.055 0.052-0.559-0.512c-25.164-21.679-41.198-53.353-41.891-88.787l-0.002-0.119c-0.023-0.955-0.036-2.079-0.036-3.206 0-35.68 13.089-68.302 34.728-93.328l-0.153 0.181c18.215-18.386 42.293-30.935 69.196-34.608l0.626-0.070zM299.115-85.333c-0.047 0-0.104 0-0.16 0-49.027 0-93.409 19.889-125.517 52.038l-0.002 0.002c-32.153 32.23-52.035 76.714-52.035 125.841s19.882 93.612 52.039 125.845l-0.003-0.003 32.909-32.909c-23.744-23.801-38.426-56.652-38.426-92.932s14.682-69.131 38.429-92.935l-0.003 0.003c23.801-23.744 56.652-38.426 92.932-38.426s69.131 14.682 92.935 38.429l-0.003-0.003c24.093 24.014 39 57.231 39 93.931 0 30.305-10.165 58.235-27.271 80.568l0.233-0.317-12.475 16.199 354.413 354.413 16.105-11.823c22.35-16.638 50.501-26.637 80.986-26.637 42.525 0 80.505 19.456 105.526 49.951l0.19 0.239c16.084 22.269 25.726 50.116 25.726 80.215 0 42.494-19.218 80.499-49.436 105.799l-0.216 0.176c-21.992 16.802-49.871 26.922-80.114 26.922-36.694 0-69.909-14.898-93.925-38.975l-0.003-0.003-32.909 32.909c32.454 32.488 77.307 52.584 126.853 52.584 41.009 0 78.803-13.768 109.012-36.933l-0.427 0.315c41.377-33.984 67.566-85.15 67.566-142.432 0-40.988-13.409-78.844-36.079-109.421l0.351 0.496c-33.858-41.552-85.031-67.876-142.352-67.876-33.724 0-65.32 9.112-92.461 25.008l0.865-0.468-298.928-298.928c15.723-26.148 25.022-57.707 25.022-91.438 0-49.58-20.092-94.468-52.579-126.964l0.001 0.001c-32.113-32.363-76.596-52.412-125.762-52.459h-0.009z" />
<glyph unicode="&#xe909;" glyph-name="bottle-spoon-thin" d="M465.455-85.333h-353.745c-61.695 0-111.709 50.014-111.709 111.709v0 498.362l134.982 134.982v78.801h46.545v-98.071l-134.982-134.982v-479.092c0-35.989 29.175-65.164 65.164-65.164v0h353.745c0.205-0.002 0.446-0.004 0.688-0.004 34.241 0 62.26 26.637 64.465 60.32l0.010 0.193v483.747l-134.982 134.982v98.071h46.545v-78.801l134.982-134.982v-503.017c-2.139-59.575-50.95-107.058-110.851-107.058-0.302 0-0.603 0.001-0.905 0.004h0.046zM88.436 938.667h400.291v-223.418h-400.291zM442.182 892.122h-307.2v-130.327h307.2zM823.855 496.485c-121.577 0-200.145 71.261-200.145 181.527 1.407 64.582 22.101 124.065 56.525 173.229l-0.671-1.011c30.127 50.336 82.829 84.468 143.757 88.409l0.534 0.028c61.461-3.969 114.164-38.1 143.835-87.615l0.456-0.821c33.753-48.153 54.448-107.636 55.849-171.873l0.006-0.346c0.139-2.576 0.218-5.591 0.218-8.625 0-52.258-23.485-99.031-60.477-130.34l-0.25-0.207c-36.026-26.587-81.306-42.553-130.314-42.553-3.279 0-6.541 0.071-9.785 0.213l0.462-0.016zM823.855 892.122c-82.711 0-153.6-117.713-153.6-214.109 0-125.254 117.574-134.982 153.6-134.982 57.344 0 153.6 17.548 153.6 134.982 0 96.396-70.889 214.109-153.6 214.109zM847.127 161.358h-46.545v353.745h46.545zM823.855 184.631c0.415 0.008 0.904 0.013 1.394 0.013 36.069 0 66.096-25.868 72.541-60.063l0.072-0.459 43.101-204.8h-234.217l43.101 204.8c6.518 34.655 36.545 60.522 72.613 60.522 0.49 0 0.979-0.005 1.467-0.014l-0.073 0.001zM883.619-34.133l-31.372 148.945c-2.134 13.277-13.509 23.298-27.224 23.298-0.411 0-0.82-0.009-1.227-0.027l0.058 0.002c-0.349 0.016-0.758 0.025-1.169 0.025-13.715 0-25.090-10.020-27.203-23.14l-0.021-0.158-31.372-148.945zM288.582 175.322c-61.695 0-111.709 50.014-111.709 111.709v0c0 89.833 93.929 160.070 97.745 162.909l13.964 10.193 13.964-10.193c4.003-2.932 97.745-73.169 97.745-162.909 0-61.695-50.014-111.709-111.709-111.709v0zM288.582 401.020c-34.736-27.587-58.636-67.516-65.056-113.060l-0.107-0.929c0-35.989 29.175-65.164 65.164-65.164v0c35.989 0 65.164 29.175 65.164 65.164v0c-6.528 46.473-30.427 86.403-64.803 113.713l-0.361 0.277z" />
<glyph unicode="&#xe90a;" glyph-name="brain-thin" horiz-adv-x="1032" d="M385.191 938.667c3.019 0 6.039 0 9.011-0.283 39.156-0.069 74.578-15.996 100.198-41.7l0.004-0.004c26.12-26.771 42.939-62.721 45.176-102.567l0.019-0.418v-765.806c0-62.531-50.691-113.222-113.222-113.222v0c-0.009 0-0.020 0-0.031 0-54.176 0-99.465 38.051-110.6 88.885l-0.138 0.749h-2.453c-49.447 0.042-94.163 20.26-126.366 52.866l-0.018 0.018c-32.589 32.234-52.775 76.95-52.79 126.381v0.003c0 5.189 0 11.558 0.66 18.257-48.895 22.073-87.612 59.51-110.744 106.058l-0.591 1.314c-14.633 28.332-23.213 61.839-23.213 97.35 0 25.902 4.565 50.739 12.934 73.748l-0.477-1.5c14.893 46.896 44.622 85.52 83.581 111.328l0.769 0.479c-3.277 12.305-5.23 26.46-5.377 41.047l-0.001 0.091c-0.014 0.816-0.021 1.78-0.021 2.745 0 84.431 58.989 155.085 138.002 172.995l1.188 0.226c6.593 34.948 23.754 65.104 47.984 87.807l0.088 0.082c27.621 26.454 65.090 42.819 106.379 43.071h0.049zM492.516 791.337c-0.773 54.564-44.575 98.646-98.954 99.869l-0.115 0.002h-1.557c-2.217 0-4.482 0-6.699 0-58.537-1.518-105.884-47.406-109.713-105.193l-0.018-0.34-1.227-19.672-19.578-2.312c-65.574-7.685-115.974-62.922-115.974-129.932 0-0.71 0.006-1.419 0.017-2.126l-0.001 0.107c0.43-16.046 3.403-31.262 8.527-45.449l-0.318 1.009 6.18-18.587-17.125-9.435c-37.27-20.195-65.286-53.471-78.181-93.531l-0.32-1.151-0.425-1.274c-6.211-16.882-9.804-36.379-9.804-56.714 0-27.936 6.781-54.288 18.786-77.501l-0.443 0.943c21.093-42.921 57.805-75.458 102.54-90.589l1.247-0.366 26.277-8.35-12.313-24.673c-1.478-5.527-2.328-11.872-2.328-18.416 0-1.421 0.040-2.833 0.119-4.234l-0.009 0.194c0.97-72.559 59.533-131.122 132-132.092l0.092-0.001h47.176v-23.588c0-36.476 29.57-66.046 66.046-66.046v0c36.476 0 66.046 29.57 66.046 66.046v0zM264.751 457.19c-96.947 5.917-173.332 85.988-173.332 183.9 0 2.154 0.037 4.299 0.11 6.435l-0.008-0.31c6.672 92.823 80.318 166.485 172.531 173.148l0.604 0.035 2.783-47.176c-69.031-4.985-123.805-59.759-128.764-128.341l-0.026-0.45c-0.013-0.698-0.020-1.522-0.020-2.347 0-72.991 56.614-132.76 128.327-137.788l0.436-0.025zM539.692 164.699h-47.176c0 85.98-69.701 155.68-155.68 155.68v0 47.176c112.034 0 202.856-90.822 202.856-202.856v0zM379.294 636.458v47.176c62.531 0 113.222 50.691 113.222 113.222v0h47.176c0-88.585-71.813-160.398-160.398-160.398v0zM647.017 938.667c41.333-0.239 78.802-16.588 106.486-43.079l-0.057 0.054c24.318-22.785 41.479-52.94 47.915-86.892l0.157-0.997c80.201-18.136 139.191-88.79 139.191-173.221 0-0.982-0.008-1.961-0.024-2.939l0.002 0.147c-0.144-14.693-2.097-28.864-5.647-42.389l0.269 1.204c39.728-26.287 69.458-64.911 83.946-110.34l0.404-1.467c7.892-21.509 12.457-46.345 12.457-72.248 0-35.511-8.58-69.018-23.779-98.561l0.566 1.211c-23.723-47.862-62.44-85.299-109.915-106.797l-1.42-0.576c0.66-6.746 0.66-13.115 0.66-18.257-0.042-49.447-20.26-94.163-52.866-126.366l-0.018-0.018c-32.227-32.607-76.944-52.809-126.379-52.837h-2.459c-11.273-51.584-56.562-89.634-110.738-89.634-0.011 0-0.022 0-0.033 0h0.002c-62.531 0-113.222 50.691-113.222 113.222v0 765.806c2.255 40.264 19.075 76.214 45.226 103.018l-0.032-0.033c25.624 25.707 61.046 41.635 100.188 41.703h0.013c3.066 0 6.086 0.283 9.105 0.283zM718.961 51.477c72.559 0.97 131.122 59.533 132.092 132l0.001 0.092c0.070 1.207 0.11 2.619 0.11 4.040 0 6.544-0.849 12.889-2.443 18.932l0.116-0.516-12.313 24.673 26.277 8.35c45.982 15.497 82.694 48.034 103.325 89.917l0.462 1.038c11.562 22.27 18.343 48.622 18.343 76.558 0 20.335-3.593 39.831-10.179 57.888l0.374-1.174-0.425 1.274c-13.215 41.211-41.231 74.487-77.645 94.257l-0.856 0.425-17.125 9.435 6.18 18.587c4.825 13.189 7.814 28.42 8.251 44.288l0.004 0.199c0.011 0.643 0.018 1.401 0.018 2.161 0 67.010-50.401 122.248-115.363 129.873l-0.613 0.059-19.578 2.312-1.227 19.672c-3.847 58.126-51.194 104.015-109.585 105.529l-0.146 0.003c-2.217 0-4.482 0-6.699 0h-1.557c-54.495-1.226-98.296-45.308-99.069-99.798l-0.001-0.074v-763.589c0-36.476 29.57-66.046 66.046-66.046v0c36.476 0 66.046 29.57 66.046 66.046v0 23.588zM762.74 457.19l-2.595 47.176c72.154 5.077 128.764 64.856 128.764 137.857 0 0.843-0.008 1.684-0.023 2.523l0.002-0.126c-5.008 69.011-59.774 123.761-128.341 128.717l-0.449 0.026 2.783 47.176c92.803-6.695 166.441-80.333 173.101-172.532l0.035-0.604c0.068-1.868 0.107-4.062 0.107-6.266 0-97.94-76.408-178.033-172.866-183.922l-0.518-0.025zM539.692 164.699h-47.176c0 112.034 90.822 202.856 202.856 202.856v0-47.176c-85.98 0-155.68-69.701-155.68-155.68v0zM652.914 636.458c-88.585 0-160.398 71.813-160.398 160.398v0h47.176c0-62.531 50.691-113.222 113.222-113.222v0z" />
<glyph unicode="&#xe90b;" glyph-name="breasts-thin" d="M283.788 36.756q-4.655 0-9.309 0c-67.417 2.385-127.504 31.9-170.022 77.894l-0.148 0.162c-41.17 44.522-66.422 104.29-66.422 169.956 0 2.956 0.051 5.9 0.153 8.832l-0.012-0.425v89.926l18.991 113.943c3.773 20.099 5.932 43.223 5.932 66.85 0 77.944-23.488 150.403-63.771 210.684l0.868-1.38 38.726 25.833c44.313-66.194 70.72-147.63 70.72-235.234 0-26.471-2.411-52.379-7.026-77.516l0.399 2.618-18.292-109.615v-87.412c-0.080-2.135-0.126-4.643-0.126-7.161 0-53.399 20.539-102.001 54.149-138.336l-0.124 0.135c34.553-37.384 83.22-61.286 137.482-63.199l0.339-0.009c2.148-0.081 4.672-0.127 7.206-0.127 53.4 0 102.002 20.54 138.338 54.151l-0.135-0.124c37.289 34.458 61.168 82.956 63.198 137.043l0.011 0.359v18.153h46.545v-19.456c-2.378-67.433-31.893-127.537-77.895-170.069l-0.162-0.148c-44.46-41.045-104.085-66.242-169.594-66.327h-0.017zM331.217 185.701h-88.436v46.545h88.436zM732.346 36.756c-65.494 0.163-125.062 25.402-169.639 66.62l0.167-0.153c-46.164 42.679-75.679 102.784-78.045 169.797l-0.012 0.42v19.316h46.545v-18.153c2.041-54.447 25.919-102.944 63.077-137.282l0.132-0.12c36.2-33.486 84.802-54.025 138.201-54.025 2.518 0 5.026 0.046 7.522 0.136l-0.361-0.010c54.617 1.915 103.301 25.818 137.748 63.077l0.12 0.131c33.486 36.2 54.025 84.802 54.025 138.201 0 2.518-0.046 5.026-0.136 7.522l0.010-0.361v87.412l-18.292 109.615c-4.215 22.519-6.627 48.427-6.627 74.898 0 87.604 26.407 169.040 71.694 236.783l-0.975-1.549 38.726-25.833c-39.416-58.901-62.903-131.36-62.903-209.304 0-23.627 2.158-46.75 6.288-69.183l-0.357 2.333v-0.326l18.944-113.617v-89.926c0.090-2.506 0.141-5.45 0.141-8.406 0-65.666-25.252-125.433-66.574-170.123l0.152 0.167c-42.679-46.164-102.784-75.679-169.797-78.045l-0.42-0.012q-4.701 0-9.356 0zM773.399 185.701h-88.436v46.545h88.436zM486.028 336.602c-25.812 76.92-85.244 136.352-160.372 161.641l-1.793 0.524 14.708 44.172c90.873-30.496 161.086-100.709 190.963-189.463l0.619-2.118zM530.153 336.602l-44.172 14.708c30.496 90.873 100.709 161.086 189.463 190.963l2.118 0.619 14.708-44.172c-76.892-25.815-136.303-85.226-161.594-160.325l-0.524-1.793zM531.363 297.41h-46.545v46.545h46.545z" />
<glyph unicode="&#xe90c;" glyph-name="butt-thin" horiz-adv-x="988" d="M325.009 146.18h-26.713c-46.42 0.603-88.188 20.028-118.116 50.975l-0.045 0.047 31.477 31.477c21.921-22.912 52.531-37.355 86.517-38.020l0.122-0.002h26.713c81.143 0 146.922 65.779 146.922 146.922v0 93.496c-0.572 73.689-30.269 140.333-78.132 189.081l0.040-0.041 31.477 31.477c56.183-56.561 90.972-134.433 91.18-220.432v-93.536c0-105.731-85.712-191.443-191.443-191.443v0zM690.087 146.18h-26.713c-105.731 0-191.443 85.712-191.443 191.443v0 93.496c0.158 86.059 34.921 163.968 91.11 220.58l-0.019-0.019 31.477-31.477c-47.816-48.723-77.5-115.384-78.046-188.978l-0.001-0.106v-93.496c0-81.143 65.779-146.922 146.922-146.922h26.713c34.109 0.667 64.718 15.11 86.596 37.976l0.043 0.046 31.477-31.477c-29.956-31-71.706-50.438-117.999-51.065l-0.117-0.001zM431.861-85.333h-44.522c-0.043 4.426-0.067 9.656-0.067 14.892 0 85.348 6.499 169.178 19.029 251.022l-1.153-9.157 4.452 39.58 44.255-4.897-4.452-41.094c-11.201-71.133-17.6-153.162-17.6-236.685 0-4.803 0.021-9.601 0.063-14.394l-0.005 0.734zM601.043-80.881h-44.522c0.037 4.048 0.058 8.832 0.058 13.621 0 83.522-6.399 165.55-18.733 245.62l1.133-8.94v1.024l-4.452 40.070 44.255 4.897 4.452-39.58c11.377-72.687 17.876-156.516 17.876-241.863 0-5.221-0.024-10.437-0.073-15.647l0.006 0.797zM40.070-83.597l-22.261 182.539c-11.382 91.387-17.877 197.155-17.877 304.44 0 6.621 0.025 13.237 0.074 19.846l-0.006-1.014v17.809c-0.016 1.606-0.025 3.503-0.025 5.403 0 81.714 17.077 159.44 47.857 229.803l-1.44-3.693c26.978 61.437 42.679 133.051 42.679 208.331 0 1.889-0.010 3.776-0.030 5.661l0.002-0.288v53.426h44.522v-53.426c0.016-1.606 0.025-3.503 0.025-5.403 0-81.714-17.077-159.44-47.857-229.803l1.44 3.693c-26.978-61.437-42.679-133.051-42.679-208.331 0-1.889 0.010-3.776 0.030-5.661l-0.002 0.288v-17.809c-0.032-4.776-0.050-10.422-0.050-16.072 0-106.334 6.489-211.152 19.092-314.080l-1.233 12.356 22.261-182.539zM943.861-79.278l-44.166 5.654 22.261 173.635c13.295 94.664 21.356 204.797 22.254 316.636l0.007 1.071v22.261c-1.559 77.489-17.177 150.895-44.394 218.379l1.475-4.14c-29.392 66.748-46.499 144.568-46.499 226.384 0 1.631 0.007 3.261 0.020 4.888l-0.002-0.25v53.426h44.522v-53.426c-0.017-1.597-0.027-3.484-0.027-5.373 0-75.281 15.701-146.895 44.007-211.745l-1.328 3.414 0.445-1.113c27.66-68.136 44.39-147.097 45.937-229.771l0.009-0.629v-22.261c-0.773-114.759-8.839-226.864-23.757-336.792l1.496 13.475z" />
<glyph unicode="&#xe90d;" glyph-name="capsule-medicine-thin" horiz-adv-x="1010" d="M764.223 446.874l-245.76 250.766 188.871 188.871c32.296 31.874 76.549 51.701 125.432 52.155l0.087 0.001c0.329 0.002 0.719 0.003 1.109 0.003 48.715 0 92.823-19.721 124.778-51.616l-0.003 0.003c31.892-31.951 51.613-76.060 51.613-124.775 0-0.39-0.001-0.779-0.004-1.169v0.060c-0.505-48.904-20.323-93.084-52.175-125.357l0.019 0.020zM582.724 697.185l182.044-186.14 161.109 156.968c23.478 24.053 38.155 56.79 38.774 92.951l0.002 0.119c0.005 0.422 0.008 0.92 0.008 1.419 0 72.113-58.459 130.571-130.571 130.571-0.499 0-0.997-0.003-1.494-0.008l0.076 0.001c-36.309-0.634-69.063-15.345-93.141-38.891l0.025 0.025zM246.124 446.874l-193.968 189.008c-31.823 32.243-51.638 76.404-52.155 125.193l-0.001 0.099c-0.002 0.329-0.003 0.719-0.003 1.109 0 48.715 19.721 92.823 51.616 124.778l-0.003-0.003c31.951 31.892 76.060 51.613 124.775 51.613 0.39 0 0.779-0.001 1.169-0.004h-0.060c48.904-0.505 93.084-20.323 125.357-52.175l-0.020 0.019 188.871-188.871zM84.287 668.149l161.109-156.968 182.044 186.14-157.013 157.013c-24.016 23.465-56.697 38.15-92.805 38.819l-0.129 0.002c-0.422 0.005-0.92 0.008-1.419 0.008-72.113 0-130.571-58.459-130.571-130.571 0-0.499 0.003-0.997 0.008-1.494l-0.001 0.076c0.62-36.281 15.297-69.017 38.802-93.098l-0.027 0.027zM527.929 479.005h-45.511v91.022h45.511zM395.947 351.574h-45.511v86.471h45.511zM659.911 306.063h-45.511v86.471h45.511zM482.418 219.591h-45.511v86.471h45.511zM746.382 133.12h-45.511v86.471h45.511zM309.476 133.12h-45.511v86.471h45.511zM441.458-85.333h-45.511v86.471h45.511zM573.44 46.649h-45.511v86.471h45.511zM700.871-85.333h-45.511v86.471h45.511z" />
<glyph unicode="&#xe90e;" glyph-name="cardiogram-thin" d="M111.709 938.667h800.582c61.695 0 111.709-50.014 111.709-111.709v0-553.891h-1024v553.891c1.591 61.045 50.664 110.118 111.56 111.706l0.149 0.003zM977.455 319.612v507.345c0 35.989-29.175 65.164-65.164 65.164v0h-800.582c-35.239-1.805-63.359-29.924-65.157-64.998l-0.007-0.166v-507.345zM1024-85.333h-1024v377.018h46.545v-330.473h930.909v330.473h46.545zM246.691 91.54h-88.436v46.545h88.436zM423.564 91.54h-88.436v46.545h88.436zM865.745 91.54h-218.764v46.545h218.764zM463.127 425.131l-128.186 260.98-73.868-147.735h-191.255v46.545h162.49l103.005 206.010 132.468-269.638 131.724 213.504 101.702-149.876h76.102v-46.545h-100.771l-75.171 110.778zM912.291 538.376h-88.436v46.545h88.436z" />
<glyph unicode="&#xe90f;" glyph-name="cast-thin" d="M428.218 938.667h512v-777.309c-0.159-136.18-110.511-246.532-246.676-246.691h-377.033c-0.305-0.002-0.666-0.002-1.028-0.002-61.408 0-117 24.905-157.225 65.164l-0.002 0.002c-40.261 40.227-65.166 95.819-65.166 157.227 0 0.361 0.001 0.722 0.003 1.083v-0.056c-0.002 0.305-0.002 0.666-0.002 1.028 0 61.408 24.905 117 65.164 157.225l0.002 0.002c40.227 40.261 95.819 65.166 157.227 65.166 0.361 0 0.722-0.001 1.083-0.003h-0.056c0.589-0.014 1.282-0.023 1.978-0.023 47.762 0 86.481 38.719 86.481 86.481 0 0.695-0.008 1.389-0.025 2.080l0.002-0.103v488.727zM893.673 892.122h-442.182v-442.182c0.005-0.431 0.008-0.941 0.008-1.451 0-73.752-59.787-133.539-133.539-133.539-0.51 0-1.020 0.003-1.528 0.009l0.078-0.001c-0.556 0.006-1.214 0.010-1.872 0.010-96.656 0-175.011-78.355-175.011-175.011 0-0.658 0.004-1.315 0.011-1.972l-0.001 0.1c-0.006-0.556-0.010-1.214-0.010-1.872 0-96.656 78.355-175.011 175.011-175.011 0.658 0 1.315 0.004 1.972 0.011l-0.1-0.001h377.018c110.537 0 200.145 89.608 200.145 200.145v0zM635.159-78.537l-400.291 400.291 32.954 32.954 400.291-400.291zM309.9-78.305l-33.327 32.582 176.873 181.527 33.327-32.582zM853.923-31.992l-442.182 442.182 32.954 32.954 442.182-442.182zM598.156 256.497l-32.582 33.14 335.127 330.473 32.582-33.14zM467.968 386.917l-32.908 32.908 465.455 465.455 32.908-32.908zM740.073 668.703h-311.855v46.545h311.855zM710.004 98.335l-32.908 32.908 223.418 223.418 32.908-32.908zM165.423 23.863l-32.908 32.908 200.145 200.145 32.908-32.908z" />
<glyph unicode="&#xe910;" glyph-name="chemical-test-tube-thin" d="M740.073 892.122h-446.836v46.545h446.836zM828.509-80.678h-623.709c-61.695 0-111.709 50.014-111.709 111.709v0 186.508l265.309 265.309v432.547h46.545v-451.817l-265.309-265.309v-167.238c0-35.989 29.175-65.164 65.164-65.164v0h623.709c35.989 0 65.164 29.175 65.164 65.164v0 167.238l-265.309 265.309v451.817h46.545v-432.547l265.309-265.309v-186.508c0-61.695-50.014-111.709-111.709-111.709v0zM716.8 138.085c-45.352 0.387-86.179 19.438-115.235 49.836l-0.058 0.061c-21.024 23.308-51.17 38.042-84.764 38.539l-0.088 0.001c-34.633-0.072-65.735-15.131-87.176-39.035l-0.097-0.11c-28.265-30.246-68.348-49.141-112.845-49.292h-0.027c-0.406-0.004-0.887-0.006-1.368-0.006-45.455 0-86.371 19.433-114.895 50.443l-0.101 0.111c-14.225 15.137-31.918 26.849-51.82 33.882l-0.916 0.282 12.8 44.777c28.010-9.274 51.9-24.519 71.127-44.316l0.041-0.042c20.537-23.639 50.647-38.499 84.226-38.499 0.4 0 0.8 0.002 1.199 0.006l-0.061-0.001c32.677 0.297 61.923 14.737 81.954 37.487l0.105 0.122c29.431 31.265 71.089 50.736 117.295 50.736 0.196 0 0.392 0 0.589-0.001h-0.030c45.352-0.387 86.179-19.438 115.235-49.836l0.058-0.061c21.024-23.308 51.17-38.042 84.764-38.539l0.088-0.001c33.316 0.398 63.131 15.058 83.682 38.146l0.1 0.115c19.927 19.797 44.342 35.103 71.582 44.256l1.308 0.381 12.8-44.777c-21.604-7.631-40.021-19.589-54.989-34.927l-0.028-0.029c-28.781-30.449-69.373-49.472-114.411-49.71h-0.044zM651.636 449.94h-88.436v46.545h88.436zM651.636 580.267h-88.436v46.545h88.436zM651.636 715.249h-88.436v46.545h88.436z" />
<glyph unicode="&#xe911;" glyph-name="condom-thin" d="M903.064 938.62h3.795c0.012 0 0.026 0 0.040 0 64.695 0 117.141-52.446 117.141-117.141 0-1.071-0.014-2.138-0.043-3.203l0.003 0.157c0.001-0.148 0.001-0.323 0.001-0.499 0-32.568-13.217-62.049-34.579-83.372l-0.002-0.002-0.937-0.89-8.996-8.012v-49.434c-0.126-55.833-22.748-106.358-59.279-143.011l-545.637-545.777-301.755 301.755 545.69 545.596c36.661 36.569 87.225 59.213 143.079 59.32h48.516l10.027 10.027c21.239 21.225 50.541 34.383 82.916 34.486h0.020zM905.688 891.764h-0.469c-0.586 0.017-1.275 0.027-1.966 0.027-19.545 0-37.24-7.925-50.044-20.738l-23.803-23.803h-67.801c-42.963-0.134-81.829-17.564-110.022-45.688l-512.372-512.372 235.36-235.36 512.422 512.469c28.078 28.177 45.486 67.003 45.638 109.896v70.314l24.225 21.507c12.547 12.745 20.294 30.247 20.294 49.559 0 0.302-0.002 0.603-0.006 0.904v-0.046 0.937c0.020 0.628 0.032 1.367 0.032 2.109 0 38.817-31.467 70.285-70.285 70.285-0.011 0-0.022 0-0.033 0h0.002zM447.666-85.192l-447.666 447.291 33.174 33.174 447.291-447.666z" />
<glyph unicode="&#xe912;" glyph-name="crutches-thin" d="M246.691 212.232l-72.332 72.332c-53.056 52.18-85.932 124.735-85.932 204.97 0 0.808 0.003 1.615 0.010 2.421l-0.001-0.124v446.836h311.855v-446.836c0.023-1.383 0.037-3.015 0.037-4.649 0-78.671-30.98-150.106-81.406-202.771l0.101 0.106zM134.982 892.122v-400.291c-0.004-0.528-0.007-1.153-0.007-1.778 0-67.553 27.675-128.642 72.305-172.549l0.033-0.032 39.377-39.377 39.377 39.377c41.929 44.132 67.72 103.945 67.72 169.781 0 1.61-0.015 3.216-0.046 4.818l0.004-0.24v400.291zM465.455 887.467h-442.182v46.545h442.182zM269.964 21.722h-46.545v265.309h46.545zM288.582-89.988h-88.436v46.545h88.436zM377.018 533.722h-265.309v46.545h265.309zM777.309 212.232l-72.332 72.332c-53.056 52.18-85.932 124.735-85.932 204.97 0 0.808 0.003 1.615 0.010 2.421l-0.001-0.124v446.836h311.855v-446.138c0.447-5.701 0.702-12.345 0.702-19.049 0-74.678-31.637-141.967-82.238-189.196l-0.151-0.14zM665.6 892.122v-400.291c-0.004-0.528-0.007-1.153-0.007-1.778 0-67.553 27.675-128.642 72.305-172.549l0.033-0.032 39.377-39.377 40.215 40.169c41.616 38.891 67.554 94.109 67.554 155.384 0 5.925-0.243 11.794-0.718 17.596l0.050-0.762v401.641zM1000.727 887.467h-442.182v46.545h442.182zM800.582 21.722h-46.545v265.309h46.545zM823.855-89.988h-88.436v46.545h88.436zM912.291 533.722h-265.309v46.545h265.309z" />
<glyph unicode="&#xe913;" glyph-name="cup-measurement-thin" d="M204.8 938.667h781.964v-865.745c0-87.402-70.853-158.255-158.255-158.255v0h-488.727c-87.402 0-158.255 70.853-158.255 158.255v0 655.732l-134.982 130.327v79.686zM940.218 892.122h-847.127v-13.405l134.982-130.327v-675.468c0-61.695 50.014-111.709 111.709-111.709v0h488.727c61.695 0 111.709 50.014 111.709 111.709v0zM828.509 668.703h-176.873v46.545h176.873zM828.509 538.376h-88.436v46.545h88.436zM828.509 403.394h-176.873v46.545h176.873zM828.509 268.412h-88.436v46.545h88.436zM828.509 138.085h-176.873v46.545h176.873z" />
<glyph unicode="&#xe914;" glyph-name="dental-plus-thin" horiz-adv-x="1030" d="M51.258 603.158h-46.598c0.212 185.211 150.298 335.297 335.489 335.509h0.020c0.865 0.008 1.888 0.013 2.911 0.013 70.541 0 135.776-22.716 188.789-61.233l-0.927 0.642-27.4-37.698c-44.149 32.314-99.529 51.706-159.438 51.706-1.384 0-2.766-0.010-4.145-0.031l0.208 0.002c-159.486-0.186-288.725-129.424-288.91-288.892v-0.018zM1029.825 603.158h-46.598c-0.186 159.486-129.424 288.725-288.892 288.91h-0.018c-0.217 0.001-0.474 0.001-0.731 0.001-113.369 0-211.266-66.238-257.104-162.124l-0.739-1.717-41.939 20.084c27.75 57.384 69.413 104.265 120.731 137.509l1.31 0.795c50.42 32.644 112.053 52.051 178.218 52.051 0.089 0 0.179 0 0.268 0h-0.014c185.211-0.212 335.297-150.298 335.509-335.489v-0.020zM694.316-85.333c-35.646 0.115-67.853 14.746-91.037 38.288l-0.016 0.016c-19.718 19.329-32.605 45.563-34.74 74.782l-0.022 0.382-27.959 186.394v1.864c0.089 0.727 0.14 1.57 0.14 2.424 0 11.607-9.409 21.016-21.016 21.016-0.854 0-1.696-0.051-2.523-0.15l0.1 0.010c-0.727 0.089-1.57 0.14-2.424 0.14-11.607 0-21.016-9.409-21.016-21.016 0-0.854 0.051-1.696 0.15-2.523l-0.010 0.1v-1.724l-28.285-188.491c-9.895-62.28-63.212-109.319-127.516-109.319-7.115 0-14.096 0.576-20.898 1.684l0.744-0.1h-1.025c-26.79 5.568-50.333 16.801-70.264 32.43l0.366-0.277-1.305 0.979-1.165 1.165c-149.99 149.84-243.201 356.492-244.594 584.917l-0.001 0.266v65.238h46.598v-65.238c1.375-215.149 88.849-409.603 229.657-550.86l-0.021 0.021c13.819-10.821 30.437-18.746 48.57-22.557l0.778-0.137c3.681-0.58 7.926-0.911 12.249-0.911 41.267 0 75.484 30.188 81.772 69.685l0.062 0.471 27.679 184.623c-0.001 0.165-0.002 0.36-0.002 0.554 0 37.291 30.23 67.521 67.521 67.521 0.837 0 1.67-0.015 2.499-0.045l-0.12 0.003c0.709 0.027 1.542 0.042 2.379 0.042 37.291 0 67.521-30.23 67.521-67.521 0-0.195-0.001-0.39-0.002-0.584v0.030l27.959-186.394v-1.724c1.619-17.422 9.409-32.77 21.134-44.061l0.022-0.021c14.766-15.080 35.333-24.43 58.085-24.43s43.319 9.349 58.071 24.415l0.527 0.527c72.499 69.87 130.598 154.128 169.774 248.24l1.802 4.883c37.152 85.441 58.765 184.967 58.765 289.541 0 3.055-0.018 6.105-0.055 9.152l0.004-0.463v65.238h46.598v-65.238c0.035-2.751 0.054-6.001 0.054-9.255 0-111.108-22.986-216.846-64.463-312.721l1.967 5.107c-43.563-105.012-105.269-194.385-181.999-268.263l-0.247-0.237c-23.199-23.354-55.314-37.827-90.809-37.884h-0.011zM871.39 579.859h-354.148v46.598h354.148zM717.615 426.085h-46.598v354.148h46.598z" />
<glyph unicode="&#xe915;" glyph-name="digital-thermometer-thin" horiz-adv-x="1029" d="M752.804 938.667v0c0.391 0.002 0.854 0.003 1.317 0.003 75.81 0 144.436-30.756 194.082-80.471l0.003-0.003c49.718-49.649 80.474-118.275 80.474-194.085 0-0.463-0.001-0.925-0.003-1.388v0.071c-0.635-75.959-31.721-144.536-81.629-194.223l-422.983-422.983h-219.763l-101.886-101.886-1.309-0.982c-22.818-17.509-51.775-28.058-83.197-28.058-0.34 0-0.68 0.001-1.020 0.004h0.052c-64.559 0-116.895 52.336-116.895 116.895v0c0.228 32.156 13.535 61.159 34.859 81.992l0.396 0.396 100.343 95.947v224.111l422.973 422.973c49.68 49.925 118.238 81.025 194.060 81.685l0.126 0.001zM504.659 92.347l409.319 409.319c41.2 41.382 66.97 98.154 67.937 160.944l0.002 0.184c-0.159 126.472-102.642 228.954-229.099 229.114h-0.016c-62.98-0.983-119.752-26.769-161.135-67.993l-409.312-409.312v-224.766l-114.557-109.554c-12.755-12.375-20.756-29.587-21.040-48.669l-0.001-0.053c0-38.736 31.401-70.137 70.137-70.137v0c0.196-0.002 0.427-0.002 0.659-0.002 20.39 0 39.223 6.669 54.435 17.945l-0.247-0.175 113.154 113.154zM469.45 212.557l-168.621 168.621 254.584 254.584 168.621-168.621zM366.955 381.178l102.495-102.495 188.458 188.458-102.495 102.495zM827.616 568.952l-168.656 168.656 33.058 33.058 168.656-168.656z" />
<glyph unicode="&#xe916;" glyph-name="dna-genetics-thin" horiz-adv-x="641" d="M320.557 849.624h-307.2v44.522h307.2zM454.122 849.624h-89.043v44.522h89.043zM627.757 849.624h-129.113v44.522h129.113zM44.522-85.333h-44.522c0 266.24 155.603 399.761 306.042 528.874 149.415 128.223 290.549 249.322 290.549 495.126h44.522c0-266.24-155.603-399.761-306.042-528.874-149.415-128.223-290.549-249.366-290.549-495.126zM641.113-85.333h-44.522c0 245.76-141.134 366.904-290.549 495.126-150.483 129.113-306.042 262.678-306.042 528.874h44.522c0-245.76 141.134-366.904 290.549-495.126 150.439-129.113 306.042-262.634 306.042-528.874zM235.965 658.18h-151.374v44.522h151.374zM365.078 658.18h-89.043v44.522h89.043zM556.522 658.18h-151.374v44.522h151.374zM235.965 146.18h-151.374v44.522h151.374zM365.078 146.18h-89.043v44.522h89.043zM556.522 146.18h-151.374v44.522h151.374zM191.443-23.003h-164.73v44.522h164.73zM320.557-23.003h-84.591v44.522h84.591zM614.4-23.003h-249.322v44.522h249.322z" />
<glyph unicode="&#xe917;" glyph-name="drugs-thin" horiz-adv-x="1029" d="M447.857 938.667c0.21 0.001 0.458 0.001 0.707 0.001 49.169 0 93.674-19.967 125.851-52.234l0.004-0.004c32.26-33.102 52.157-78.386 52.157-128.318 0-49.626-19.654-94.661-51.603-127.747l0.051 0.054-266.217-266.217c-32.18-32.272-76.686-52.238-125.855-52.238-0.249 0-0.497 0.001-0.745 0.002h0.039c-50.169 0.228-95.71 19.858-129.544 51.765l0.094-0.088-0.606 0.606c-32.26 33.102-52.157 78.386-52.157 128.318 0 49.626 19.654 94.661 51.603 127.747l-0.051-0.054 266.822 266.822c33.752 31.786 79.293 51.383 129.41 51.584h0.040zM541.054 662.432c23.989 24.717 38.779 58.479 38.779 95.696 0 37.051-14.658 70.679-38.492 95.4l0.040-0.042c-23.801 23.866-56.717 38.631-93.081 38.631-0.188 0-0.376 0-0.564-0.001h0.029c-37.754-0.234-72.016-14.999-97.511-38.979l0.074 0.069-264.959-264.959c-23.983-24.723-38.767-58.486-38.767-95.703 0-36.886 14.523-70.379 38.163-95.075l-0.048 0.050c25.422-23.91 59.683-38.676 97.39-38.909h0.047c0.159-0.001 0.347-0.001 0.535-0.001 36.364 0 69.28 14.766 93.078 38.628l0.003 0.003zM739.657 492.487c159.561 0 288.91-129.349 288.91-288.91s-129.349-288.91-288.91-288.91c-159.561 0-288.91 129.349-288.91 288.91v0c0.186 159.486 129.424 288.725 288.892 288.91h0.018zM739.657-38.735c133.825 0 242.312 108.487 242.312 242.312s-108.487 242.312-242.312 242.312c-133.825 0-242.312-108.487-242.312-242.312v0c0.159-133.761 108.551-242.153 242.296-242.312h0.015zM909.554 0.688l-363.468 363.468 32.992 32.992 363.468-363.468zM410.951 499.291l-223.672 223.672 32.992 32.992 223.672-223.672z" />
<glyph unicode="&#xe918;" glyph-name="ear-drops-bottle-thin" d="M465.455-85.333h-353.745c-61.695 0-111.709 50.014-111.709 111.709v0 321.722l134.982 130.327v36.678h46.545v-56.413l-134.982-130.327v-301.987c0-35.989 29.175-65.164 65.164-65.164v0h353.745c0.205-0.002 0.446-0.004 0.688-0.004 34.241 0 62.26 26.637 64.465 60.32l0.010 0.193v306.874l-134.982 134.982v56.18h46.545v-36.911l134.982-134.982v-326.144c-2.139-59.575-50.95-107.058-110.851-107.058-0.302 0-0.603 0.001-0.905 0.004h0.046zM88.436 715.249h400.291v-223.418h-400.291zM442.182 668.703h-307.2v-130.327h307.2zM288.582 938.667c61.695 0 111.709-50.014 111.709-111.709v0-158.255h-223.418v158.255c0.509 30.647 13.252 58.222 33.542 78.133l0.017 0.017c19.928 20.308 47.503 33.050 78.055 33.558l0.095 0.001zM353.745 715.249v111.709c0 35.989-29.175 65.164-65.164 65.164v0c-17.789-0.498-33.722-8.052-45.176-19.947l-0.020-0.021c-11.916-11.474-19.47-27.407-19.966-45.105l-0.002-0.091v-111.709zM623.709 715.249h400.291v-223.418h-400.291zM977.455 668.703h-307.2v-130.327h307.2zM823.855 938.667c61.695 0 111.709-50.014 111.709-111.709v0-158.255h-223.418v158.255c0.158 30.244 12.157 57.655 31.593 77.861l-0.035-0.037c20.112 20.902 48.324 33.887 79.568 33.887 0.205 0 0.41-0.001 0.615-0.002h-0.032zM889.018 715.249v111.709c0 35.989-29.175 65.164-65.164 65.164v0c-0.098 0.001-0.215 0.001-0.331 0.001-18.14 0-34.523-7.525-46.196-19.624l-0.018-0.019c-11.402-11.78-18.475-27.811-18.618-45.493v-111.737zM823.855-56.94l-111.709 164.631v430.685h223.418v-430.732zM758.691 121.98l65.164-96.023 65.164 96.023v369.85h-130.327zM223.418 314.958h358.4v-223.418h-358.4zM535.273 268.412h-265.309v-130.327h265.309z" />
<glyph unicode="&#xe919;" glyph-name="ear-thin" d="M367.709-89.988c-0.337-0.002-0.735-0.004-1.134-0.004-49.822 0-94.933 20.17-127.613 52.789l0.003-0.003c-32.617 32.678-52.786 77.789-52.786 127.611 0 0.399 0.001 0.797 0.004 1.195v-0.061c0.516 50.016 20.785 95.2 53.361 128.206l-0.020-0.020 32.908-32.908c-24.056-24.6-39.101-58.098-39.748-95.108l-0.002-0.124c-0.005-0.431-0.008-0.941-0.008-1.451 0-73.752 59.787-133.539 133.539-133.539 0.51 0 1.020 0.003 1.528 0.009l-0.078-0.001c66.624 0.143 126.755 27.825 169.637 72.261l0.067 0.070 60.509 60.509c130.814 131.948 211.735 313.544 212.014 514.040v0.054c-0.185 159.305-129.277 288.396-288.564 288.582h-0.018c-159.305-0.185-288.396-129.277-288.582-288.564v-0.018h-46.545c0.212 185.001 150.127 334.916 335.107 335.127h0.020c185.001-0.212 334.916-150.127 335.127-335.107v-0.020c0-0.289 0.001-0.631 0.001-0.973 0-106.752-21.61-208.456-60.694-300.977l1.907 5.083c-40.654-97.365-97.032-180.477-166.812-250.175l-60.516-60.516c-51.541-52.671-123.198-85.478-202.52-85.969h-0.092zM474.764 226.522c-61.695 0-111.709 50.014-111.709 111.709v0 265.309c0 87.402 70.853 158.255 158.255 158.255v0c87.402 0 158.255-70.853 158.255-158.255v0h-46.545c0 61.695-50.014 111.709-111.709 111.709v0c-61.695 0-111.709-50.014-111.709-111.709v0-153.6h65.164c61.695 0 111.709-50.014 111.709-111.709v0c0.018-0.743 0.029-1.618 0.029-2.495 0-60.333-48.909-109.242-109.242-109.242-0.877 0-1.752 0.010-2.625 0.031l0.13-0.002zM409.6 403.394v-65.164c0-35.989 29.175-65.164 65.164-65.164v0c0.868-0.043 1.885-0.068 2.907-0.068 34.421 0 62.324 27.904 62.324 62.324 0 1.022-0.025 2.039-0.073 3.050l0.005-0.143c0 35.989-29.175 65.164-65.164 65.164v0z" />
<glyph unicode="&#xe91a;" glyph-name="emergency-siren-thin" horiz-adv-x="1047" d="M154.738 133.12h741.831v-218.453h-741.831zM851.058 87.609h-650.809v-127.431h650.809zM523.014 702.009h0.364c155.765-0.181 281.988-126.404 282.169-282.151v-327.698h-568.889v323.129c1.671 157.42 128.633 284.637 285.794 286.718l0.198 0.002zM760.036 137.671v282.169c-0.155 130.512-105.81 236.296-236.259 236.658h-0.035c-132.654-1.569-239.798-108.585-241.571-241.041l-0.002-0.168v-277.618zM655.36 351.574h-263.964v45.511h263.964zM546.133 242.347h-45.511v259.413h45.511zM546.133 806.685h-45.511v131.982h45.511zM1046.756 392.534h-131.982v45.511h131.982zM131.982 392.534h-131.982v45.511h131.982zM229.649 676.796l-91.022 91.022 32.222 32.222 91.022-91.022zM817.106 676.796l-32.176 32.176 91.022 91.022 32.176-32.176z" />
<glyph unicode="&#xe91b;" glyph-name="eye-drops-thin" d="M698.182-85.333h-353.745c-61.695 0-111.709 50.014-111.709 111.709v0 269.964l90.065 227.561 43.287-17.129-86.807-219.741v-260.655c0-35.989 29.175-65.164 65.164-65.164v0h353.745c35.989 0 65.164 29.175 65.164 65.164v0 260.655l-86.807 219.276 43.287 17.129 90.065-227.561v-269.964c-0.264-61.495-50.177-111.244-111.708-111.244 0 0-0.001 0-0.001 0v0zM521.309 86.885c-61.695 0-111.709 50.014-111.709 111.709v0c0 89.833 93.929 160.070 97.745 162.909l13.964 10.193 13.964-10.193c4.003-2.932 97.745-73.169 97.745-162.909 0-61.695-50.014-111.709-111.709-111.709v0zM521.309 312.584c-34.736-27.587-58.636-67.516-65.056-113.060l-0.107-0.929c0-35.989 29.175-65.164 65.164-65.164v0c35.989 0 65.164 29.175 65.164 65.164v0c-6.528 46.473-30.427 86.403-64.803 113.713l-0.361 0.277zM274.618 715.249h493.382v-223.418h-493.382zM721.455 668.703h-400.291v-130.327h400.291zM521.309 938.667c61.695 0 111.709-50.014 111.709-111.709v0-23.273c0.245-6.224 0.962-12.112 2.122-17.839l-0.12 0.711c0.99-5.108 1.848-11.482 2.376-17.95l0.044-0.668 52.969-99.328h-342.9l54.551 102.4c3.894 9.558 6.563 20.629 7.469 32.195l0.024 0.386v23.273c0 0.028 0 0.060 0 0.093 0 61.695 50.014 111.709 111.709 111.709 0.016 0 0.033 0 0.049 0h-0.002zM612.864 715.249l-21.737 40.727v5.818c-0.245 6.224-0.962 12.111-2.121 17.839l0.12-0.71c-1.486 7.336-2.442 15.867-2.65 24.584l-0.003 0.178v23.273c0 35.989-29.175 65.164-65.164 65.164v0c-35.989 0-65.164-29.175-65.164-65.164v0-23.273c-0.9-17.935-4.681-34.733-10.891-50.301l0.371 1.055-0.605-1.862-19.921-37.236z" />
<glyph unicode="&#xe91c;" glyph-name="eye-minus-thin" d="M651.311 393.946h-269.964v46.545h269.964zM503.249 705.8c4.329 0 8.751 0 13.079 0s8.751 0 13.079 0c207.956-1.126 390.216-110.098 493.819-273.791l1.424-2.41 8.006-12.521-8.006-12.521c-105.028-166.103-287.287-275.075-495.077-276.2l-0.167-0.001c-4.655 0-8.89 0-13.359 0-0.357-0.001-0.778-0.001-1.2-0.001-105.807 0-205.334 26.89-292.119 74.21l3.201-1.598c-89.647 49.444-163.072 118.207-216.552 201.054l-1.421 2.35-8.006 12.521 8.006 12.521c105.002 166.182 287.285 275.226 495.117 276.386l0.173 0.001zM516.329 659.255h-0.559c-4.189 0-8.378 0-12.521 0-186.234-1.030-350.046-96.092-446.488-240.082l-1.233-1.955c100.961-146.931 268.095-242.047 457.444-242.047 1.18 0 2.359 0.004 3.537 0.011l-0.181-0.001h0.559c4.189 0 8.378 0 12.521 0 186.234 1.030 350.046 96.092 446.488 240.082l1.233 1.955c-97.692 145.97-261.544 241.039-447.662 242.036l-0.151 0.001c-4.143 0-8.378 0-12.521 0zM516.329 705.8c159.379 0 288.582-129.202 288.582-288.582s-129.202-288.582-288.582-288.582c-159.379 0-288.582 129.202-288.582 288.582v0c0.185 159.305 129.277 288.396 288.564 288.582h0.018zM516.329 175.182c133.673 0 242.036 108.363 242.036 242.036s-108.363 242.036-242.036 242.036c-133.673 0-242.036-108.363-242.036-242.036v0c0.159-133.609 108.427-241.878 242.021-242.036h0.015z" />
<glyph unicode="&#xe91d;" glyph-name="eye-plus-thin" d="M651.311 393.946h-269.964v46.545h269.964zM539.601 282.236h-46.545v269.964h46.545zM503.249 705.8c4.329 0 8.751 0 13.079 0s8.751 0 13.079 0c207.956-1.126 390.216-110.098 493.819-273.791l1.424-2.41 8.006-12.521-8.006-12.521c-105.028-166.103-287.287-275.075-495.077-276.2l-0.167-0.001c-4.655 0-8.89 0-13.359 0-0.357-0.001-0.778-0.001-1.2-0.001-105.807 0-205.334 26.89-292.119 74.21l3.201-1.598c-89.647 49.444-163.072 118.207-216.552 201.054l-1.421 2.35-8.006 12.521 8.006 12.521c105.002 166.182 287.285 275.226 495.117 276.386l0.173 0.001zM516.329 659.255h-0.559c-4.189 0-8.378 0-12.521 0-186.234-1.030-350.046-96.092-446.488-240.082l-1.233-1.955c100.961-146.931 268.095-242.047 457.444-242.047 1.18 0 2.359 0.004 3.537 0.011l-0.181-0.001h0.559c4.189 0 8.378 0 12.521 0 186.234 1.030 350.046 96.092 446.488 240.082l1.233 1.955c-97.692 145.97-261.544 241.039-447.662 242.036l-0.151 0.001c-4.143 0-8.378 0-12.521 0zM516.329 705.8c159.379 0 288.582-129.202 288.582-288.582s-129.202-288.582-288.582-288.582c-159.379 0-288.582 129.202-288.582 288.582v0c0.185 159.305 129.277 288.396 288.564 288.582h0.018zM516.329 175.182c133.673 0 242.036 108.363 242.036 242.036s-108.363 242.036-242.036 242.036c-133.673 0-242.036-108.363-242.036-242.036v0c0.159-133.609 108.427-241.878 242.021-242.036h0.015z" />
<glyph unicode="&#xe91e;" glyph-name="eye-thin" d="M503.249 705.8c4.329 0 8.751 0 13.079 0s8.751 0 13.079 0c207.956-1.126 390.216-110.098 493.819-273.791l1.424-2.41 8.006-12.521-8.006-12.521c-105.028-166.103-287.287-275.075-495.077-276.2l-0.167-0.001c-4.655 0-8.89 0-13.359 0-0.357-0.001-0.778-0.001-1.2-0.001-105.807 0-205.334 26.89-292.119 74.21l3.201-1.598c-89.647 49.444-163.072 118.207-216.552 201.054l-1.421 2.35-8.006 12.521 8.006 12.521c105.002 166.182 287.285 275.226 495.117 276.386l0.173 0.001zM516.329 659.255h-0.559c-4.189 0-8.378 0-12.521 0-186.234-1.030-350.046-96.092-446.488-240.082l-1.233-1.955c100.961-146.931 268.095-242.047 457.444-242.047 1.18 0 2.359 0.004 3.537 0.011l-0.181-0.001h0.559c4.189 0 8.378 0 12.521 0 186.234 1.030 350.046 96.092 446.488 240.082l1.233 1.955c-97.692 145.97-261.544 241.039-447.662 242.036l-0.151 0.001c-4.143 0-8.378 0-12.521 0zM516.329 705.8c159.379 0 288.582-129.202 288.582-288.582s-129.202-288.582-288.582-288.582c-159.379 0-288.582 129.202-288.582 288.582v0c0.185 159.305 129.277 288.396 288.564 288.582h0.018zM516.329 175.182c133.673 0 242.036 108.363 242.036 242.036s-108.363 242.036-242.036 242.036c-133.673 0-242.036-108.363-242.036-242.036v0c0.159-133.609 108.427-241.878 242.021-242.036h0.015zM516.329 528.927c61.695 0 111.709-50.014 111.709-111.709s-50.014-111.709-111.709-111.709c-61.695 0-111.709 50.014-111.709 111.709v0c0 61.695 50.014 111.709 111.709 111.709v0zM516.329 352.055c35.989 0 65.164 29.175 65.164 65.164s-29.175 65.164-65.164 65.164c-35.989 0-65.164-29.175-65.164-65.164v0c0-35.989 29.175-65.164 65.164-65.164v0z" />
<glyph unicode="&#xe91f;" glyph-name="face-mask-plus-thin" d="M516.452 159.537c-0.742-0.006-1.62-0.009-2.498-0.009-61.607 0-119.526 15.787-169.934 43.537l1.825-0.921-190.019 95.009v418.905h725.704v-427.409h-21.459l-173.056-86.506c-49.381-26.828-108.129-42.602-170.561-42.607h-0.002zM200.348 324.668l166.467-83.256c42.546-23.521 93.277-37.363 147.24-37.363 0.843 0 1.685 0.003 2.527 0.010l-0.129-0.001c0.067 0 0.148 0 0.228 0 54.694 0 106.158 13.83 151.085 38.185l-1.675-0.831 170.963 85.482v344.643h-636.705zM641.113 417.763h-258.226v44.522h258.226zM534.261 310.91h-44.522v258.226h44.522zM169.183 288.65h-169.183v44.522h169.183zM1024 288.65h-169.183v44.522h169.183zM1024 671.537h-129.113v44.522h129.113zM169.183 671.537h-169.183v44.522h169.183z" />
<glyph unicode="&#xe920;" glyph-name="female-thin" d="M644.463 938.667c209.612 0 379.537-169.924 379.537-379.537s-169.924-379.537-379.537-379.537c-209.612 0-379.537 169.924-379.537 379.537v0c0.24 209.516 170.021 379.297 379.514 379.537h0.023zM644.463 226.45c183.734 0 332.681 148.946 332.681 332.681s-148.946 332.681-332.681 332.681c-183.734 0-332.681-148.946-332.681-332.681v0c0.213-183.648 149.032-332.467 332.66-332.68h0.021zM644.463 760.613c111.276 0 201.483-90.207 201.483-201.483s-90.207-201.483-201.483-201.483c-111.276 0-201.483 90.207-201.483 201.483v0c0 111.276 90.207 201.483 201.483 201.483v0zM644.463 404.504c85.398 0 154.626 69.228 154.626 154.626s-69.228 154.626-154.626 154.626c-85.398 0-154.626-69.228-154.626-154.626v0c0-85.398 69.228-154.626 154.626-154.626v0zM33.174-85.333l-33.127 33.127 379.537 379.537 33.127-33.127zM356.109-85.333l-356.109 356.109 33.174 33.174 356.109-356.109z" />
<glyph unicode="&#xe921;" glyph-name="first-aid-box-thin" d="M111.709 715.249h800.582c61.695 0 111.709-50.014 111.709-111.709v0-535.273c0-61.695-50.014-111.709-111.709-111.709v0h-800.582c-61.695 0-111.709 50.014-111.709 111.709v0 535.273c0 61.695 50.014 111.709 111.709 111.709v0zM912.291 3.103c35.989 0 65.164 29.175 65.164 65.164v0 535.273c0 35.989-29.175 65.164-65.164 65.164v0h-800.582c-35.989 0-65.164-29.175-65.164-65.164v0-535.273c0-35.989 29.175-65.164 65.164-65.164v0zM718.289 668.703h-412.625l52.922 223.418h306.781zM364.544 715.249h294.865l-30.86 130.327h-232.913zM646.982 403.394h-269.964v46.545h269.964zM535.273 291.685h-46.545v269.964h46.545zM1000.727 138.085h-977.455v46.545h977.455z" />
<glyph unicode="&#xe922;" glyph-name="foot-thin" horiz-adv-x="912" d="M803.115-85.333h-130.175l-48.119 14.454c-37.589 10.244-80.748 16.13-125.281 16.13s-87.692-5.886-128.741-16.921l3.459 0.792-48.119-14.454h-121.113c-102.076 0.448-186.703 74.589-203.447 171.943l-0.175 1.231v1.042c-0.955 7.075-1.5 15.253-1.5 23.558 0 39.132 12.1 75.439 32.762 105.382l-0.406-0.622c15.352 22.884 24.503 51.049 24.503 81.352 0 5.419-0.293 10.769-0.863 16.037l0.057-0.653-4.531 18.532c-31.332 181.816-49.597 391.611-50.292 605.542l-0.002 0.657h45.31c0.628-211.669 18.566-418.673 52.469-620.258l-3.081 22.17 4.531-18.622v-1.495c0.782-6.525 1.228-14.082 1.228-21.743 0-39.466-11.842-76.166-32.166-106.741l0.444 0.711-0.77-1.178c-15.229-22.126-24.324-49.502-24.324-79.003 0-6.38 0.425-12.661 1.249-18.816l-0.079 0.72c13.438-76.554 79.24-134.043 158.542-134.434h114.54l42.863 12.868c41.156 11.249 88.411 17.712 137.175 17.712s96.019-6.463 140.955-18.58l-3.779 0.868h0.725l42.138-12.641h123.56c0.845-0.042 1.835-0.066 2.83-0.066 33.507 0 60.67 27.163 60.67 60.67 0 0.995-0.024 1.985-0.071 2.969l0.005-0.139c0.126 1.165 0.197 2.516 0.197 3.884 0 4.72-0.853 9.241-2.414 13.417l0.087-0.265-0.544 1.042-0.408 1.133c-10.558 26.040-35.596 44.096-64.868 44.222h-0.016c-59.847 0.233-116.312 14.481-166.355 39.629l2.152-0.98-194.832 99.681c-50.896 25.856-85.162 77.822-85.162 137.791 0 3.841 0.141 7.649 0.417 11.42l-0.030-0.504 36.248 561.841 45.31-2.9-36.248-562.248c-0.159-2.202-0.249-4.771-0.249-7.361 0-42.398 24.264-79.129 59.664-97.064l0.62-0.285 194.832-99.681c41.925-21.12 91.348-33.565 143.66-33.756h0.063c48.101-0.366 89.22-29.874 106.602-71.725l0.284-0.771c4.127-9.285 6.53-20.117 6.53-31.511 0-1.666-0.051-3.321-0.153-4.962l0.011 0.225c0.026-0.87 0.040-1.893 0.040-2.92 0-58.731-47.611-106.342-106.342-106.342-0.731 0-1.46 0.007-2.188 0.022l0.109-0.002z" />
<glyph unicode="&#xe923;" glyph-name="heart-rate-clipboard-thin" d="M810.296-63.072h-810.296v934.957h258.226v-66.783c2.119-32.403 28.92-57.882 61.672-57.882 0.232 0 0.463 0.001 0.694 0.004h169.148c34.424 0 62.33 27.906 62.33 62.33v0 66.783h258.226v-302.748h-44.522v258.226h-169.183v-22.261c0-59.013-47.839-106.852-106.852-106.852v0h-169.183c-0.244-0.002-0.532-0.003-0.821-0.003-57.296 0-103.985 45.419-106.026 102.217l-0.005 0.186v22.261h-169.183v-845.913h721.252v195.896h44.522zM487.736 211.093l-123.325 251.058-74.93-142.47h-267.13v44.522h240.417l103.157 195.896 125.997-256.49 126.353 209.252 97.369-148.658h157.162v-44.522h-181.203l-71.814 109.568zM1001.739 319.815h-84.591v44.522h84.591zM213.704 916.406h382.887v-106.852c0-59.013-47.839-106.852-106.852-106.852v0h-169.183c-59.013 0-106.852 47.839-106.852 106.852v0zM552.070 871.884h-293.843v-62.33c0-34.424 27.906-62.33 62.33-62.33v0h169.183c34.424 0 62.33 27.906 62.33 62.33v0z" />
<glyph unicode="&#xe924;" glyph-name="heart-rate-thin" d="M515.491-33.156l-291.095 291.095 32.908 32.908 258.141-258.141 406.9 406.9c38.332 40.616 61.892 95.532 61.892 155.951 0 64.759-27.067 123.196-70.506 164.615l-0.091 0.086c-40.636 38.427-95.619 62.051-156.119 62.051-64.768 0-123.213-27.075-164.633-70.524l-0.086-0.091-77.359-77.359-76.753 76.753c-41.848 41.371-99.407 66.928-162.935 66.928-63.342 0-120.749-25.407-162.588-66.585l0.030 0.030c-41.367-41.84-66.921-99.39-66.921-162.909s25.554-121.069 66.942-162.931l-0.021 0.022 7.168-7.168h154.671l106.124 161.978 85.783-216.716 85.411 170.868 61.114-116.364h27.927v-46.545h-55.855l-31.977 60.509-91.462-182.877-91.089 230.121-70.749-107.985h-199.075l-20.759 20.759c-49.487 49.317-80.107 117.539-80.107 192.912 0 0.35 0.001 0.701 0.002 1.051v-0.054c0.138 76.582 30.51 146.045 79.812 197.11l-0.080-0.083 0.372 0.372c49.317 49.487 117.539 80.107 192.912 80.107 0.35 0 0.701-0.001 1.051-0.002h-0.054c76.582-0.138 146.045-30.51 197.11-79.812l-0.083 0.080 44.404-44.404 43.892 43.892c49.982 52.248 120.261 84.725 198.124 84.725 72.943 0 139.229-28.502 188.329-74.976l-0.126 0.119c52.417-50.004 85.010-120.394 85.010-198.396 0-72.97-28.523-139.278-75.027-188.383l0.118 0.125-0.419-0.419zM771.491 372.116h-88.436v46.545h88.436z" />
<glyph unicode="&#xe925;" glyph-name="herbal-mix-plus-thin" horiz-adv-x="1023" d="M871.132 938.667c0.199 0.001 0.435 0.002 0.671 0.002 40.315 0 76.611-17.207 101.944-44.678l0.087-0.096c29.976-25.418 48.903-63.072 49.003-105.149v-0.018c-0.318-40.975-17.069-77.976-43.978-104.79l-146.27-146.27h-423.734l355.855 355.855c27.079 27.652 64.713 44.876 106.371 45.144h0.050zM813.249 584.161l132.69 132.69c18.41 18.451 29.939 43.774 30.405 71.789l0.001 0.089c-0.119 28.329-13.062 53.612-33.32 70.359l-0.154 0.124-1.255 1.023-1.069 1.209c-17.088 18.904-41.698 30.732-69.071 30.732-0.12 0-0.241 0-0.361-0.001h0.019c-28.904-0.29-54.943-12.321-73.62-31.544l-0.024-0.025-276.445-276.445zM0 584.161h1022.838v-111.582c-0.088-107.819-33.79-207.75-91.19-289.897l1.087 1.643c-55.214-80.017-130.229-142.727-218.089-181.775l-3.309-1.313v-86.569h-399.837v86.802c-184.562 80.192-311.325 260.826-311.501 471.087v0.022zM976.345 537.668h-929.852v-65.090c0.312-196.378 121.842-364.292 293.754-432.946l3.148-1.109 14.599-5.858v-71.506h306.851v71.552l14.599 5.858c174.014 71.104 294.815 238.191 296.9 433.747l0.002 0.261zM646.247 268.011h-269.657v46.493h269.657zM534.665 161.078h-46.493v265.008h46.493z" />
<glyph unicode="&#xe926;" glyph-name="hospital-building-thin" d="M954.182 892.122h-884.364v46.545h884.364zM646.982 668.703h-269.964v46.545h269.964zM535.273 561.649h-46.545v265.309h46.545zM465.455 449.94h-88.436v46.545h88.436zM646.982 449.94h-88.436v46.545h88.436zM465.455 268.412h-88.436v46.545h88.436zM646.982 268.412h-88.436v46.545h88.436zM288.582 449.94h-88.436v46.545h88.436zM288.582 268.412h-88.436v46.545h88.436zM288.582 91.54h-88.436v46.545h88.436zM823.855 449.94h-88.436v46.545h88.436zM823.855 268.412h-88.436v46.545h88.436zM823.855 91.54h-88.436v46.545h88.436zM1024-85.333h-446.836v176.873h-130.327v-176.873h-446.836v613.004l134.982 88.436v322.56h754.036v-322.56l134.982-88.436zM623.709-38.788h353.745v541.324l-134.982 88.436v301.149h-660.945v-301.149l-134.982-88.436v-541.324h353.745v176.873h223.418z" />
<glyph unicode="&#xe927;" glyph-name="hospital-sign-thin" d="M111.709 938.667h800.582c61.695 0 111.709-50.014 111.709-111.709v0-800.582c0-61.695-50.014-111.709-111.709-111.709v0h-800.582c-61.695 0-111.709 50.014-111.709 111.709v0 800.582c1.591 61.045 50.664 110.118 111.56 111.706l0.149 0.003zM912.291-38.788c35.989 0 65.164 29.175 65.164 65.164v0 800.582c0 35.989-29.175 65.164-65.164 65.164v0h-800.582c-35.239-1.805-63.359-29.924-65.157-64.998l-0.007-0.166v-800.582c0-35.989 29.175-65.164 65.164-65.164v0zM358.4 161.358h-46.545v530.618h46.545zM712.145 161.358h-46.545v530.618h46.545zM688.873 403.394h-353.745v46.545h353.745z" />
<glyph unicode="&#xe928;" glyph-name="intestine-thin" horiz-adv-x="984" d="M661.799 491.505h-384.559v44.716h384.559c81.497 0 147.563 66.066 147.563 147.563v0c0 81.497-66.066 147.563-147.563 147.563v0h-384.559c-58.646 1.529-105.79 48.673-107.316 107.175l-0.003 0.144h44.716c1.734-33.854 28.748-60.869 62.443-62.596l0.159-0.007h384.559c106.193 0 192.279-86.086 192.279-192.279v0c0-106.193-86.086-192.279-192.279-192.279v0zM809.362-80.861h-44.716c0 34.574-28.028 62.603-62.603 62.603v0h-509.764c-106.193 0-192.279 86.086-192.279 192.279v0c0.124 93.996 67.567 172.204 156.696 189.006l1.197 0.188c-44.595 35.478-72.932 89.743-72.932 150.627 0 0.008 0 0.015 0 0.023v-0.001c0.009 70.058 37.484 131.361 93.48 164.965l0.872 0.485c-105.595 40.829-179.156 141.481-179.312 259.334v0.019h44.716c0.153-128.358 104.166-232.371 232.509-232.524h0.015v-44.716c-81.497 0-147.563-66.066-147.563-147.563v0c0-81.497 66.066-147.563 147.563-147.563v0-44.716h-84.961c-81.497 0-147.563-66.066-147.563-147.563v0c0-81.497 66.066-147.563 147.563-147.563h509.764c59.271 0 107.319-48.048 107.319-107.319v0zM983.755-85.333h-44.716c-0.153 128.358-104.166 232.371-232.509 232.524h-0.015v44.716h84.961c81.497 0 147.563 66.066 147.563 147.563v0c0 81.497-66.066 147.563-147.563 147.563h-554.48v44.716h554.48c106.193 0 192.279-86.086 192.279-192.279v0c-0.108-87.046-57.933-160.558-137.256-184.327l-1.364-0.351c83.454-48.828 138.62-138.020 138.62-240.097 0-0.010 0-0.020 0-0.030v0.001z" />
<glyph unicode="&#xe929;" glyph-name="kidneys-thin" horiz-adv-x="1006" d="M182.857 284.953c-100.433 1.371-181.486 82.424-182.856 182.727l-0.001 0.13v274.286c0 108.563 88.008 196.571 196.571 196.571v0c108.563 0 196.571-88.008 196.571-196.571v0-51.611l-27.429-238.354c-2.592-48.298-24.616-90.991-58.327-120.752l-0.187-0.162c-32.768-28.736-75.986-46.266-123.299-46.266-0.367 0-0.734 0.001-1.101 0.003h0.056zM196.571 892.953c-83.316 0-150.857-67.541-150.857-150.857v0-274.286c1.016-75.33 61.813-136.127 137.046-137.142l0.096-0.001c1.291-0.045 2.809-0.071 4.333-0.071 70.544 0 128.268 54.891 132.789 124.293l0.021 0.395v1.417l27.429 236.389v49.006c0 83.316-67.541 150.857-150.857 150.857v0zM822.857 284.953c-0.376-0.003-0.821-0.004-1.266-0.004-95.159 0-173.285 72.925-181.542 165.938l-0.050 0.695-27.429 238.903v51.611c0 108.563 88.008 196.571 196.571 196.571v0c108.563 0 196.571-88.008 196.571-196.571v0-274.286c-1.371-100.433-82.424-181.486-182.727-182.856l-0.13-0.001zM658.286 693.136l27.429-236.617c6.040-70.705 64.922-125.807 136.674-125.807 0.165 0 0.33 0 0.495 0.001h-0.026c75.33 1.016 136.127 61.813 137.142 137.046l0.001 0.096v274.286c0 83.316-67.541 150.857-150.857 150.857v0c-83.316 0-150.857-67.541-150.857-150.857v0zM525.714-85.333h-45.714v438.857c-0.156 131.223-106.491 237.558-237.699 237.714h-0.015v45.714c156.46-0.182 283.246-126.969 283.429-283.411v-0.018zM525.714-85.333h-45.714v438.857c0.182 156.46 126.969 283.246 283.411 283.429h0.018v-45.714c-131.223-0.156-237.558-106.491-237.714-237.699v-0.015z" />
<glyph unicode="&#xe92a;" glyph-name="line-bone-thin" horiz-adv-x="1017" d="M468.622 513.609l-32.8 32.8 125.959 125.959c-14.018 25.075-22.273 55.017-22.273 86.888 0 60.118 29.372 113.375 74.549 146.204l0.52 0.36 0.51 0.371c28.419 20.214 63.833 32.316 102.074 32.316 4.176 0 8.319-0.144 12.423-0.428l-0.554 0.031c42.736-3.076 80.853-20.697 109.915-47.879l-0.101 0.094 0.742-0.696c25.532-25.196 42.995-58.513 48.195-95.757l0.101-0.88-45.93-6.542c-3.72 27.623-16.338 51.779-34.827 69.993l-0.015 0.015c-23.404 22.108-55.058 35.698-89.886 35.698-28.274 0-54.455-8.956-75.863-24.186l0.403 0.272c-34.184-24.472-56.197-64.056-56.197-108.781 0-28.772 9.11-55.416 24.602-77.205l-0.277 0.411 11.784-16.052zM146.836 43.224c-48.001 8.382-88.43 35.609-114.111 73.619l-0.389 0.611c-20.216 28.943-32.301 64.866-32.301 103.612 0 10.464 0.882 20.723 2.575 30.706l-0.151-1.075c5.363 38.021 22.814 71.232 48.276 96.341l0.019 0.019c32.186 32.383 76.756 52.427 126.007 52.427 33.734 0 65.271-9.403 92.135-25.731l-0.787 0.444 102.762 102.762 32.8-32.8-129.902-129.902-16.006 11.413c-22.033 17.241-50.137 27.646-80.673 27.646-36.609 0-69.724-14.957-93.569-39.092l-0.013-0.013c-18.708-18.281-31.466-42.578-35.144-69.759l-0.069-0.621v-0.51c-1.098-6.538-1.725-14.072-1.725-21.752 0-29.104 9.008-56.103 24.388-78.363l-0.301 0.461c19.063-28.359 48.662-48.377 83.069-54.493l0.764-0.113zM621.721 355.87l-32.8 32.8 153.099 153.099 16.006-11.413c22.033-17.241 50.137-27.646 80.673-27.646 36.609 0 69.724 14.957 93.569 39.092l0.013 0.013c23.665 23.723 38.299 56.465 38.299 92.625s-14.633 68.902-38.301 92.627l0.003-0.003c-23.723 23.665-56.465 38.299-92.625 38.299s-68.902-14.633-92.627-38.301l0.003 0.003-32.8 32.8c32.123 32.047 76.46 51.863 125.425 51.863s93.302-19.816 125.429-51.867l-0.003 0.003c32.047-32.123 51.863-76.46 51.863-125.425s-19.816-93.302-51.867-125.429l0.003 0.003c-32.186-32.383-76.756-52.427-126.007-52.427-33.734 0-65.271 9.403-92.135 25.731l0.787-0.444zM301.79-85.333c-0.386-0.003-0.843-0.005-1.3-0.005-56.614 0-107.102 26.231-139.974 67.202l-0.273 0.352c-22.775 29.683-36.497 67.351-36.497 108.225 0 49.383 20.030 94.087 52.409 126.432l0.002 0.002 32.8-32.8c-23.997-23.939-38.843-57.041-38.843-93.611 0-30.166 10.102-57.972 27.107-80.221l-0.234 0.319c25.127-30.53 62.919-49.848 105.223-49.848 30.225 0 58.146 9.861 80.723 26.542l-0.371-0.262c30.46 25.134 49.727 62.89 49.727 105.145 0 30.378-9.958 58.431-26.788 81.071l0.258-0.363-11.784 16.052 51.033 51.033 78.869 83.277 33.728-31.872-79.333-83.972-23.846-23.846c15.377-26.189 24.459-57.68 24.459-91.293 0-57.132-26.237-108.136-67.32-141.619l-0.332-0.262-0.603-0.464c-29.856-22.003-67.368-35.215-107.966-35.215-0.307 0-0.614 0.001-0.92 0.002h0.047zM625.989 188.853l-357.231 357.231 32.847 32.847 357.231-357.231z" />
<glyph unicode="&#xe92b;" glyph-name="lips-thin" d="M366.685 705.94c1.153 0.020 2.514 0.031 3.877 0.031 43.611 0 84.564-11.383 120.049-31.341l-1.232 0.637 26.252-13.126 26.81 13.405c35.466 18.727 77.441 29.913 121.984 30.393l0.152 0.001c55.172-0.312 106.303-17.352 148.65-46.298l-0.915 0.591 224.023-144.291-5.027-16.756c-29.332-97.403-87.151-178.803-163.672-236.828l-1.146-0.833c-74.317-56.652-168.473-90.765-270.596-90.765-0.399 0-0.798 0.001-1.198 0.002h-153.538c-0.854-0.006-1.863-0.009-2.874-0.009-102.698 0-197.43 34.102-273.492 91.6l1.142-0.827c-77.443 58.492-134.456 140.386-160.731 235.068l-0.735 3.105-4.655 16.291 218.345 143.919c40.878 28.807 91.712 46.041 146.571 46.041 0.687 0 1.374-0.003 2.060-0.008l-0.105 0.001zM515.631 610.103l-48.78 24.436c-27.802 15.663-61.035 24.89-96.424 24.89-1.316 0-2.629-0.013-3.938-0.038l0.196 0.003c-0.67 0.008-1.46 0.012-2.252 0.012-44.444 0-85.632-13.942-119.429-37.69l0.663 0.442-1.164-0.791-190.371-125.673c53.28-162.909 203.9-278.519 381.523-278.519 1.935 0 3.866 0.014 5.794 0.041l-0.292-0.003h153.6c178.929 0.172 330.878 115.492 385.753 275.843l0.854 2.871-194.746 125.673c-34.22 23.509-76.47 37.662-122.008 37.981h-0.081c-37.092-0.503-71.887-9.863-102.513-26.053l1.23 0.593zM515.631 390.594c-178.355 0.001-349.112 32.534-506.661 91.987l9.881-3.271 16.058 43.706c142.915-54.134 308.146-85.476 480.698-85.476s337.783 31.342 490.312 88.643l-9.614-3.167 16.058-43.706c-147.654-56.177-318.394-88.709-496.732-88.716h-0.001z" />
<glyph unicode="&#xe92c;" glyph-name="liquid-bottle-thin" d="M740.073-85.333h-442.182c-61.695 0-111.709 50.014-111.709 111.709v0 498.362l134.982 134.982v78.801h46.545v-98.071l-134.982-134.982v-479.092c0-35.989 29.175-65.164 65.164-65.164v0h442.182c35.989 0 65.164 29.175 65.164 65.164v0 479.092l-134.982 134.982v98.071h46.545v-78.801l134.982-134.982v-498.362c0-61.695-50.014-111.709-111.709-111.709v0zM516.655 96.194c-0.445-0.005-0.971-0.008-1.498-0.008-76.296 0-138.147 61.85-138.147 138.147 0 0.527 0.003 1.052 0.009 1.578l-0.001-0.080c0 112.64 120.413 205.452 125.673 209.455l13.964 10.473 13.964-10.24c5.353-3.91 130.327-96.721 130.327-209.455 0.003-0.326 0.004-0.71 0.004-1.096 0-38.475-15.841-73.25-41.356-98.159l-0.027-0.027c-26.212-25.128-61.853-40.599-101.108-40.599-0.634 0-1.268 0.004-1.9 0.012l0.096-0.001zM516.98 396.552c-28.951-25.74-93.417-90.996-93.417-160.721-0.003-0.292-0.005-0.637-0.005-0.983 0-50.873 41.241-92.113 92.113-92.113 0.345 0 0.691 0.002 1.035 0.006h-0.052c1.292-0.064 2.806-0.1 4.329-0.1 51.513 0 93.288 41.696 93.416 93.179v0.012c0 69.818-67.444 134.982-97.42 160.721zM274.618 938.667h493.382v-223.418h-493.382zM721.455 892.122h-400.291v-130.327h400.291z" />
<glyph unicode="&#xe92d;" glyph-name="liquid-drop-thin" d="M512-91.384c-0.058 0-0.126 0-0.194 0-109.127 0-207.861 44.496-279.050 116.334l-0.029 0.029c-71.868 71.218-116.364 169.952-116.364 279.079 0 0.068 0 0.136 0 0.205v-0.011 1.583c8.751 147.288 63.606 280.287 150.185 386.377l-0.96-1.214c7.308 9.728 14.569 18.153 21.551 26.345s13.452 15.732 20.015 24.436l0.931 1.164c57.599 67.797 119.632 128.311 186.868 182.644l2.619 2.048 13.964 11.031 14.289-10.705c70.478-55.682 132.723-116.024 188.418-182.070l1.581-1.924c49.632-57.481 93.336-122.389 128.78-192.197l2.525-5.482c36.624-70.377 58.798-153.427 60.501-241.49l0.008-0.546c0-0.058 0-0.126 0-0.194 0-109.127-44.496-207.861-116.334-279.050l-0.029-0.029c-71.218-71.868-169.952-116.364-279.079-116.364-0.068 0-0.136 0-0.205 0h0.011zM162.909 303.461c0.687-192.361 156.666-348.063 349.068-348.3h0.023c192.701 0.238 348.852 156.389 349.091 349.068v0.023c0 161.28-98.257 311.855-180.689 409.6-51.498 60.636-106.61 114.907-166.174 163.968l-2.227 1.781c-61.45-51.279-116.467-105.735-166.584-164.496l-1.584-1.904c-7.261-9.635-14.476-18.060-21.411-26.159s-13.452-15.732-20.015-24.436l-0.698-0.838c-79.616-97.578-130.634-221.295-138.716-356.579l-0.083-1.728zM512 48.252v46.545c2.443-0.149 5.299-0.234 8.174-0.234 46.976 0 88.652 22.69 114.667 57.708l0.271 0.382c25.171 39.26 40.124 87.164 40.124 138.56 0 4.586-0.119 9.145-0.354 13.672l0.026-0.634h46.545c0-160.303-78.289-256-209.455-256zM721.455 350.798h-46.545v93.091h46.545z" />
<glyph unicode="&#xe92e;" glyph-name="liquid-medicine-bag-thin" horiz-adv-x="742" d="M0 938.667h741.831v-587.093c-0.181-155.765-126.404-281.988-282.151-282.169h-177.511c-155.765 0.181-281.988 126.404-282.169 282.151v0.018zM696.32 893.156h-650.809v-541.582c0.155-130.64 106.018-236.502 236.643-236.658h177.508c130.64 0.155 236.502 106.018 236.658 236.643v0.015zM395.947-85.333h-45.511v172.942h45.511zM372.144 246.625c-3.186 0-6.463 0-9.648 0.364-69.747 5.146-125.078 60.429-130.27 129.692l-0.028 0.47v1.729c0 110.41 122.425 201.159 127.431 204.8l13.653 10.012 13.653-10.24c5.006-3.823 122.88-94.572 122.88-204.8v-1.638c-4.968-72.459-64.517-129.474-137.581-130.388l-0.090-0.001zM277.618 379.745c3.431-47.105 41.012-84.419 87.925-87.413l0.275-0.014c2.002 0 4.187 0 6.281 0 48.919 0.932 88.636 39.083 92.052 87.264l0.017 0.3c-0.501 67.857-63.124 131.209-91.295 156.331-29.127-25.122-94.709-88.565-95.255-156.467zM719.076 720.214h-564.338v45.511h564.338z" />
<glyph unicode="&#xe92f;" glyph-name="liver-thin" horiz-adv-x="1001" d="M300.373-85.333h-54.613c-135.667 0.155-245.605 110.093-245.76 245.745v81.935c0.259 228.625 185.526 413.892 414.127 414.151h341.358c135.667-0.155 245.605-110.093 245.76-245.745v-1.335c-5.231-87.185-51.067-162.664-118.692-208.332l-0.957-0.609h-0.319l-359.538-223.004c-61.697-39.414-136.93-62.822-217.631-62.822-1.313 0-2.625 0.006-3.936 0.019l0.2-0.001zM414.151 610.987c-203.501-0.233-368.407-165.14-368.64-368.618v-81.942c0-110.594 89.654-200.249 200.249-200.249v0h54.613c1.197-0.014 2.61-0.022 4.026-0.022 71.563 0 138.29 20.711 194.511 56.467l-1.473-0.876h0.319l359.538 223.004c56.479 38.343 94.225 100.634 98.592 171.947l0.031 0.631c-0.388 110.3-89.893 199.566-200.248 199.566 0 0-0.001 0-0.001 0v0zM277.618-85.333v45.511c108.081 0 195.698 87.617 195.698 195.698v0 345.884h45.511v-345.884c-0.155-133.154-108.056-241.054-241.194-241.209h-0.015zM364.089 610.987v45.511c108.081 0 195.698 87.617 195.698 195.698v0 86.471h45.511v-86.471c-0.155-133.154-108.056-241.054-241.194-241.209h-0.015zM541.582 610.987v45.511c108.081 0 195.698 87.617 195.698 195.698v0 86.471h45.511v-86.471c-0.155-133.154-108.056-241.054-241.194-241.209h-0.015z" />
<glyph unicode="&#xe930;" glyph-name="lotion-plus-bottle-thin" d="M578.467 91.54h-111.709c-65.621 0.189-125.231 25.768-169.556 67.426l0.13-0.121c-45.047 41.090-74.12 99.026-77.199 163.77l-0.020 0.535-33.932 615.517h672.908l-33.932-615.517c-6.59-129.294-113.028-231.633-243.368-231.633-1.168 0-2.335 0.008-3.499 0.025l0.176-0.002zM235.334 892.122l31.232-566.924c6.781-104.734 93.39-187.115 199.241-187.115 0.318 0 0.636 0.001 0.954 0.002h111.66c0.936-0.016 2.040-0.025 3.146-0.025 105.383 0 191.465 82.638 196.979 186.647l0.021 0.491v0.372l31.232 566.551zM657.594 403.394h-269.964v46.545h269.964zM545.885 291.685h-46.545v269.964h46.545zM364.358 138.085h311.855v-223.418h-311.855zM629.667 91.54h-218.764v-130.327h218.764zM834.467 715.249h-488.727v46.545h488.727z" />
<glyph unicode="&#xe931;" glyph-name="lungs-thin" horiz-adv-x="1006" d="M172.942-85.333h-4.551c-45.89 0.354-87.395 18.838-117.764 48.632l0.027-0.026c-31.255 30.301-50.654 72.676-50.654 119.582 0 0.071 0 0.143 0 0.214v-0.011 27.307c0.745 187.454 34.547 366.786 95.871 532.782l-3.483-10.77v0.455c26.777 67.496 91.387 114.409 166.991 114.688h0.035c0.329 0.002 0.719 0.003 1.109 0.003 48.715 0 92.823-19.721 124.778-51.616l-0.003 0.003c31.892-31.951 51.613-76.060 51.613-124.775 0-0.39-0.001-0.779-0.004-1.169v0.060-446.009c-0.494-70.391-43.087-130.713-103.834-157.083l-1.115-0.431-94.891-40.641c-16.171-7.27-35.053-11.505-54.924-11.505-3.237 0-6.449 0.112-9.63 0.334l0.429-0.024zM135.122 616.676c-56.089-150.556-88.874-324.491-89.61-505.988l-0.001-0.323v-27.307c0.91-67.495 55.385-121.97 122.794-122.879l0.086-0.001h4.551c2.494-0.231 5.394-0.362 8.325-0.362 13.011 0 25.417 2.591 36.729 7.286l-0.635-0.234 1.229 0.546 95.573 40.96c45.521 19.589 76.885 63.911 77.232 115.599v446.053c0.005 0.422 0.008 0.92 0.008 1.419 0 72.113-58.459 130.571-130.571 130.571-0.499 0-0.997-0.003-1.494-0.008l0.076 0.001c-56.102-0.79-103.913-35.455-123.963-84.427l-0.328-0.906zM837.404-85.333c-21.734 0.841-42.312 4.359-61.868 10.236l0.337-0.087-106.496 41.688c-31.856 13.378-57.826 35.523-75.564 63.417l-0.394 0.663c-15.663 24.666-24.962 54.711-24.962 86.927 0 4.18 0.157 8.323 0.464 12.424l-0.033-0.546v440.639c-0.002 0.329-0.003 0.719-0.003 1.109 0 48.715 19.721 92.823 51.616 124.778l-0.003-0.003c31.951 31.892 76.060 51.613 124.775 51.613 0.39 0 0.779-0.001 1.169-0.004h-0.060c75.594-0.346 140.143-47.261 166.463-113.517l0.426-1.216v-0.455c57.84-155.227 91.643-334.558 92.387-521.688l0.001-0.325v-27.307c0-0.060 0-0.132 0-0.203 0-46.906-19.399-89.281-50.611-119.541l-0.043-0.041c-30.316-29.721-71.766-48.181-117.527-48.56h-0.073zM789.709-31.766c14.076-4.313 30.377-7.197 47.216-8.036l0.48-0.019c67.495 0.91 121.97 55.385 122.879 122.794l0.001 0.086v27.307c-0.737 181.82-33.522 355.755-92.991 516.763l3.38-10.452c-20.378 49.879-68.189 84.544-124.193 85.332l-0.098 0.001c-0.422 0.005-0.92 0.008-1.419 0.008-72.113 0-130.571-58.459-130.571-130.571 0-0.499 0.003-0.997 0.008-1.494l-0.001 0.076v-443.096c-0.262-2.938-0.411-6.356-0.411-9.809 0-48.713 29.686-90.492 71.955-108.232l0.773-0.288zM282.169 438.045v45.511c108.081 0 195.698 87.617 195.698 195.698v0 259.413h45.511v-259.413c-0.155-133.154-108.056-241.054-241.194-241.209h-0.015zM719.076 438.045c-133.154 0.155-241.054 108.056-241.209 241.194v259.428h45.511v-259.413c0-108.081 87.617-195.698 195.698-195.698v0z" />
<glyph unicode="&#xe932;" glyph-name="male-thin" d="M377.018 668.703c208.221 0 377.018-168.797 377.018-377.018s-168.797-377.018-377.018-377.018c-208.221 0-377.018 168.797-377.018 377.018v0c0.238 208.126 168.893 376.78 376.996 377.018h0.022zM377.018-38.788c182.515 0 330.473 147.958 330.473 330.473s-147.958 330.473-330.473 330.473c-182.515 0-330.473-147.958-330.473-330.473v0c0.212-182.43 148.043-330.261 330.452-330.473h0.021zM377.018 491.831c110.537 0 200.145-89.608 200.145-200.145s-89.608-200.145-200.145-200.145c-110.537 0-200.145 89.608-200.145 200.145v0c0 110.537 89.608 200.145 200.145 200.145v0zM377.018 138.085c84.831 0 153.6 68.769 153.6 153.6s-68.769 153.6-153.6 153.6c-84.831 0-153.6-68.769-153.6-153.6v0c0-84.831 68.769-153.6 153.6-153.6v0zM640.186 521.899l-32.908 32.908 377.018 377.018 32.908-32.908zM1024 473.212h-46.545v418.909h-418.909v46.545h465.455z" />
<glyph unicode="&#xe933;" glyph-name="medical-center-thin" d="M646.982 626.812h-269.964v46.545h269.964zM535.273 515.103h-46.545v265.309h46.545zM465.455 268.412h-88.436v46.545h88.436zM646.982 268.412h-88.436v46.545h88.436zM288.582 268.412h-88.436v46.545h88.436zM288.582 91.54h-88.436v46.545h88.436zM823.855 268.412h-88.436v46.545h88.436zM823.855 91.54h-88.436v46.545h88.436zM1024-85.333h-446.836v176.873h-130.327v-176.873h-446.836v475.089l176.873 176.873v36.911c0.212 185.001 150.127 334.916 335.107 335.127h0.020c0.575 0.004 1.254 0.006 1.934 0.006 91.419 0 174.314-36.499 234.906-95.719l-0.064 0.062c60.705-59.235 98.354-141.859 98.354-233.276 0-0.544-0.001-1.087-0.004-1.63v0.084-37.236l176.873-181.527zM623.709-38.788h353.745v409.6l-176.873 181.527v55.855c0.001 0.222 0.001 0.485 0.001 0.749 0 156.423-126.806 283.229-283.229 283.229-1.882 0-3.761-0.018-5.634-0.055l0.281 0.004c-159.305-0.185-288.396-129.277-288.582-288.564v-56.198l-176.873-176.873v-409.274h353.745v176.873h223.418z" />
<glyph unicode="&#xe934;" glyph-name="medical-drip-thin" horiz-adv-x="760" d="M45.511-85.333h-45.511v1024h760.036v-45.511h-714.524zM477.867-85.333h-45.511v131.982h45.511zM477.867 742.969h-45.511v172.942h45.511zM719.076 547.271h-172.942v45.511h172.942zM719.076 415.289h-131.982v45.511h131.982zM719.076 283.307h-172.942v45.511h172.942zM177.493 765.725h564.338v-459.662c-0.181-155.765-126.404-281.988-282.151-282.169h-0.018c-155.765 0.181-281.988 126.404-282.169 282.151v0.018zM696.32 720.214h-473.316v-414.151c0.155-130.64 106.018-236.502 236.643-236.658h0.015c130.64 0.155 236.502 106.018 236.658 236.643v0.015z" />
<glyph unicode="&#xe935;" glyph-name="medication-bottle-thin" d="M740.073-85.333h-442.182c-61.695 0-111.709 50.014-111.709 111.709v0 498.362l134.982 134.982v78.801h46.545v-98.071l-134.982-134.982v-479.092c0-35.989 29.175-65.164 65.164-65.164v0h442.182c35.989 0 65.164 29.175 65.164 65.164v0 479.092l-134.982 134.982v98.071h46.545v-78.801l134.982-134.982v-498.362c0-61.695-50.014-111.709-111.709-111.709v0zM274.618 938.667h493.382v-223.418h-493.382zM721.455 892.122h-400.291v-130.327h400.291zM472.716 496.485h379.066v-400.291h-377.018c-61.695 0-111.709 50.014-111.709 111.709v0 171.241c-0.243 2.638-0.381 5.706-0.381 8.807 0 28.436 11.649 54.152 30.436 72.635l0.014 0.013c20.783 20.137 48.402 33.327 79.050 35.765l0.45 0.029zM805.236 449.94h-329.356c-36.716-0.261-66.38-30.085-66.38-66.838 0-0.312 0.002-0.623 0.006-0.933l-0.001 0.047v-174.313c0-35.989 29.175-65.164 65.164-65.164v0h330.473zM786.618 268.412h-265.309v46.545h265.309z" />
<glyph unicode="&#xe936;" glyph-name="medicine-bag-thin" d="M338.365 404.406c-1.636-0.069-3.555-0.109-5.483-0.109-36.776 0-70.193 14.384-94.931 37.833l0.062-0.058 31.477 31.477c17.013-15.362 39.668-24.762 64.518-24.762 1.517 0 3.025 0.035 4.525 0.104l-0.213-0.008c33.128 0.069 62.877 14.474 83.385 37.338l0.093 0.105c27.040 28.958 65.398 47.050 107.983 47.193h0.026c0.058 0 0.126 0 0.194 0 44.193 0 83.991-18.816 111.821-48.874l0.091-0.1c13.242-13.4 28.897-24.381 46.266-32.241l0.972-0.393-15.983-41.539c-23.661 10.221-43.876 24.044-60.961 41.015l0.011-0.011c-20.149 23.071-49.603 37.577-82.447 37.621h-0.008c-31.256-0.284-59.23-14.096-78.391-35.857l-0.101-0.117c-28.157-29.959-68.039-48.619-112.279-48.619-0.221 0-0.441 0-0.662 0.001h0.034zM725.704 831.815h-725.704v44.522h725.704zM106.852-85.333h-44.522v1024h44.522zM472.376 146.18h-0.445c-0.056 0-0.123 0-0.19 0-64.461 0-122.906 25.755-165.607 67.537l0.043-0.041c-43.26 41.382-70.164 99.553-70.211 164.009v320.566h471.93v-321.447c-2.889-62.838-29.79-118.882-71.669-159.601l-0.055-0.054c-42.169-41.775-99.422-68.389-162.87-70.952l-0.48-0.015zM280.487 653.728v-276.035c1.378-103.569 85.658-186.998 189.424-186.998 0.553 0 1.106 0.002 1.658 0.007l-0.084-0.001c102.944 3.648 185.774 84.932 191.863 186.888l0.026 0.549v275.59zM489.739 680.441h-44.522v173.635h44.522zM636.661-23.003c-105.731 0-191.443 85.712-191.443 191.443v0h44.522c0-81.143 65.779-146.922 146.922-146.922v0c81.143 0 146.922 65.779 146.922 146.922v0 84.591c0 59.013 47.839 106.852 106.852 106.852v0c59.013 0 106.852-47.839 106.852-106.852v0-213.704h-44.522v213.704c0 34.424-27.906 62.33-62.33 62.33v0c-34.424 0-62.33-27.906-62.33-62.33v0-84.591c0-105.731-85.712-191.443-191.443-191.443v0zM1024-63.072h-84.591v44.522h84.591z" />
<glyph unicode="&#xe937;" glyph-name="microscope-medical-thin" d="M828.509-78.537h-581.818v46.545h581.818zM537.181-77.188c-0.038 0-0.082 0-0.126 0-60.802 0-117.523 17.474-165.415 47.673l1.283-0.755c-69.161 43.179-119.54 110.94-139.191 190.789l-0.446 2.142 45.242 10.985c29.746-118.001 134.938-203.959 260.206-203.959 21.622 0 42.645 2.561 62.784 7.396l-1.826-0.37c70.535 16.338 128.934 59.326 165.196 117.533l0.645 1.112c24.283 39.533 38.666 87.411 38.666 138.648 0 22.658-2.813 44.66-8.108 65.674l0.395-1.85v0.279c-17.792 78.176-69.897 141.461-139.257 174.17l-1.543 0.654 19.828 41.891c83.797-39.473 145.371-114.293 166.014-204.699l0.386-2.009c5.688-22.362 8.953-48.034 8.953-74.469 0-60.218-16.941-116.479-46.318-164.277l0.78 1.364c-43.347-69.78-111.975-120.368-192.798-139.226l-2.088-0.41c-21.727-5.266-46.67-8.286-72.319-8.286-0.332 0-0.663 0.001-0.995 0.002h0.052zM559.151 731.354c31.803-0.316 60.455-13.55 81.009-34.696l0.026-0.027 51.2-51.2c19.329-20.719 31.196-48.619 31.196-79.29s-11.867-58.571-31.259-79.359l0.063 0.069-174.732-174.732-209.78 209.78 174.173 174.173c19.006 21.673 46.752 35.282 77.676 35.282 0.15 0 0.301 0 0.451-0.001h-0.023zM516.655 377.934l141.777 141.777c10.945 12.272 17.634 28.546 17.634 46.383s-6.688 34.111-17.694 46.452l0.060-0.069-51.2 51.2c-12.174 12.734-29.179 20.762-48.060 21.131l-0.068 0.001c-0.035 0-0.077 0-0.119 0-17.343 0-32.886-7.712-43.385-19.894l-0.063-0.074-1.071-1.117-141.777-141.777zM705.35 567.229l-144.815 144.815 187.602 187.602 144.815-144.815zM626.36 712.045l78.99-78.99 121.777 121.777-78.99 78.99zM900.468 682.295l-223.418 223.418 32.954 32.954 223.418-223.418zM470.109 144.881h-400.291v46.545h400.291z" />
<glyph unicode="&#xe938;" glyph-name="mri-thin" d="M684.218 198.594v46.545c0.223-0.001 0.487-0.001 0.752-0.001 113.123 0 210.823 66.037 256.651 161.665l0.738 1.711c16.516 32.157 26.197 70.163 26.197 110.431 0 4.395-0.115 8.764-0.343 13.102l0.025-0.607v2.327c-0.185 159.305-129.277 288.396-288.564 288.582h-0.018c-159.305-0.185-288.396-129.277-288.582-288.564v-0.018c-0.033-1.511-0.051-3.292-0.051-5.077 0-43.42 10.998-84.271 30.359-119.92l-0.658 1.325-40.681-22.621c-22.39 40.787-35.561 89.375-35.561 141.039 0 1.847 0.017 3.69 0.050 5.53l-0.004-0.276c0.212 185.001 150.127 334.916 335.107 335.127h0.020c184.593-0.209 334.256-149.463 335.127-333.88v-0.083c0.281-4.789 0.441-10.391 0.441-16.030 0-47.205-11.218-91.79-31.134-131.234l0.764 1.669-0.279-0.605c-27.718-57.319-69.334-104.147-120.594-137.353l-1.308-0.794c-50.363-32.607-111.925-51.992-178.015-51.992-0.155 0-0.309 0-0.464 0h0.024zM560.547 389.431c-18.914 42.208-29.93 91.478-29.93 143.322 0 0.341 0 0.681 0.001 1.022v-0.053c-0.021 1.386-0.033 3.021-0.033 4.659 0 149.906 100.748 276.281 238.227 315.11l2.307 0.557 12.381-44.87c-119.951-33.93-206.369-142.431-206.369-271.117 0-1.526 0.012-3.048 0.036-4.568l-0.003 0.229c-0.002-0.386-0.003-0.844-0.003-1.302 0-44.984 9.543-87.74 26.715-126.353l-0.787 1.981zM688.873 198.594h-688.873v111.709c0 61.695 50.014 111.709 111.709 111.709v0h856.436v-46.545h-856.436c-35.989 0-65.164-29.175-65.164-65.164v0-65.164h642.327zM130.327-1.551h-46.545v223.418h46.545zM1019.345 21.722h-670.255v200.145h46.545v-153.6h577.164v465.455h46.545z" />
<glyph unicode="&#xe939;" glyph-name="nose-thin" horiz-adv-x="1010" d="M368.64-44.373h-150.187c-0.293-0.001-0.639-0.002-0.986-0.002-60.050 0-114.412 24.351-153.75 63.717l-0.001 0.001c-39.367 39.34-63.718 93.702-63.718 153.752 0 0.347 0.001 0.693 0.002 1.039v-0.053c-0.033 1.353-0.051 2.948-0.051 4.546 0 48.752 17.343 93.453 46.196 128.271l-0.269-0.334 181.68 245.259c22.326 28.643 35.954 65.025 36.408 104.572l0.001 0.104v282.169h45.511v-282.169c-0.416-49.952-17.471-95.841-45.884-132.482l0.373 0.5-182.955-246.898c-22.132-26.755-35.558-61.417-35.558-99.215 0-1.52 0.022-3.035 0.065-4.545l-0.005 0.222c-0.006-0.544-0.010-1.187-0.010-1.83 0-94.508 76.614-171.122 171.122-171.122 0.643 0 1.286 0.004 1.928 0.011l-0.098-0.001h150.187zM500.622-85.333h-18.204c-37.881 0.077-72.577 13.646-99.554 36.156l0.249-0.202c-27.325 22.973-46.9 54.375-54.734 90.17l-0.198 1.080c-10.445 51.95-55.512 90.597-109.681 91.022h-18.25v45.511h18.204c37.881-0.077 72.577-13.646 99.554-36.156l-0.249 0.202c27.325-22.973 46.9-54.375 54.734-90.17l0.198-1.080c10.445-51.95 55.512-90.597 109.681-91.022h18.25zM791.893-44.373h-150.187v45.511h150.187c0.544-0.006 1.187-0.010 1.83-0.010 94.508 0 171.122 76.614 171.122 171.122 0 0.643-0.004 1.286-0.011 1.928l0.001-0.098c0.038 1.288 0.060 2.803 0.060 4.323 0 37.798-13.426 72.46-35.769 99.478l0.211-0.263-0.91 1.138-182.044 245.76c-28.049 36.136-45.106 82.029-45.511 131.889l-0.001 0.093v282.169h45.511v-282.169c0.448-39.651 14.077-76.035 36.701-105.065l-0.292 0.389 181.68-245.259c28.584-34.484 45.927-79.185 45.927-127.937 0-1.598-0.019-3.193-0.056-4.782l0.004 0.236c0.001-0.293 0.002-0.639 0.002-0.986 0-60.050-24.351-114.412-63.717-153.75l-0.001-0.001c-39.34-39.367-93.702-63.718-153.752-63.718-0.347 0-0.693 0.001-1.039 0.002h0.053zM527.929-85.333h-18.204v45.511h18.204c54.216 0.425 99.283 39.072 109.606 90.301l0.121 0.722c8.032 36.875 27.607 68.277 54.683 91.046l0.249 0.204c26.728 22.307 61.424 35.877 99.288 35.954h18.221v-45.511h-18.204c-54.216-0.425-99.283-39.072-109.606-90.301l-0.121-0.722c-8.032-36.875-27.607-68.277-54.683-91.046l-0.249-0.204c-26.728-22.307-61.424-35.877-99.288-35.954h-0.017z" />
<glyph unicode="&#xe93a;" glyph-name="nurse-thin" d="M144.431 268.412h758.691v-223.418h-758.691zM856.576 221.867h-665.6v-130.327h665.6zM889.67 221.867h-740.911l-148.945 292.445 10.985 11.916c71.090 79.989 153.681 147.711 245.611 201.131l4.757 2.552c73.532 42.346 161.468 67.83 255.251 69.116l0.377 0.004c94.117-1.33 181.999-26.827 258.083-70.541l-2.595 1.374c96.687-55.972 179.278-123.694 249.484-202.671l0.884-1.012 10.799-11.729zM177.524 268.412h683.38l116.876 237.894c-153.972 163.375-308.969 246.179-460.8 246.179s-306.641-82.758-460.8-245.993zM656.431 487.176h-269.964v46.545h269.964zM544.721 375.467h-46.545v269.964h46.545z" />
<glyph unicode="&#xe93b;" glyph-name="oxygen-thin" horiz-adv-x="1001" d="M195.698 742.969c108.081 0 195.698-87.617 195.698-195.698v0-632.604h-391.396v632.604c0 108.081 87.617 195.698 195.698 195.698v0zM345.884-39.822v587.093c0 82.946-67.241 150.187-150.187 150.187v0c-82.946 0-150.187-67.241-150.187-150.187v0-587.093zM218.453 720.214h-45.511v218.453h45.511zM696.32 92.16c-47.702 0.040-90.84 19.545-121.907 51l-0.017 0.017c-31.473 31.084-50.978 74.222-51.018 121.917v368.648c0 108.081-87.617 195.698-195.698 195.698v0h-263.964v45.511h263.964c133.154-0.155 241.054-108.056 241.209-241.194v-368.655c0.936-69.999 57.433-126.495 127.342-127.43l0.089-0.001c69.999 0.936 126.495 57.433 127.43 127.342l0.001 0.089v195.698h45.511v-195.698c-0.040-47.702-19.545-90.84-51-121.907l-0.017-0.017c-31.084-31.473-74.222-50.978-121.917-51.018h-0.008zM368.64 87.609h-213.902v45.511h213.902zM846.507 438.045c-3.335-0.216-7.231-0.339-11.156-0.339-35.138 0-67.968 9.878-95.865 27.010l0.798-0.456c-29.776 22.089-48.864 57.128-48.864 96.625 0 3.218 0.127 6.406 0.375 9.559l-0.026-0.417c1.423 52.229 16.908 100.563 42.781 141.703l-0.684-1.165c21.299 43.047 62.976 73.173 112.075 77.871l0.565 0.044c49.664-4.742 91.341-34.868 112.275-77.101l0.365-0.814c25.19-39.976 40.675-88.31 42.090-140.157l0.008-0.382c0.151-2.257 0.238-4.893 0.238-7.549 0-39.309-18.906-74.203-48.122-96.084l-0.312-0.224c-27.508-17.791-61.127-28.367-97.216-28.367-3.28 0-6.54 0.087-9.777 0.26l0.452-0.019zM846.507 742.969c-55.205 0-109.227-99.032-109.227-172.942 0-60.621 32.677-86.471 109.227-86.471 109.227 0 109.227 65.081 109.227 86.471-1.494 43.357-14.426 83.406-35.85 117.589l0.579-0.99c-13.811 29.499-40.908 50.775-73.373 56.261l-0.583 0.081z" />
<glyph unicode="&#xe93c;" glyph-name="paramedic-sign-thin" d="M343.692 915.394h325.818v-206.569l180.783 103.331 162.909-282.345-180.41-103.145 180.41-103.098-162.909-282.345-180.783 103.331v-206.615h-325.818v206.569l-180.783-103.331-162.909 282.345 180.41 103.098-180.41 103.098 162.909 282.345 180.783-103.331zM622.964 868.849h-232.727v-240.268l-210.199 120.087-116.364-201.728 210.572-120.32-210.572-120.32 116.364-201.728 210.199 120.087v-240.175h232.727v240.268l210.199-120.087 116.364 201.728-210.572 120.273 210.572 120.32-116.364 201.728-210.199-120.087z" />
<glyph unicode="&#xe93d;" glyph-name="pill-bottle-thin" horiz-adv-x="1045" d="M44.684 716.645h489.658v-687.942c-0.079-62.948-51.088-113.957-114.029-114.036h-261.593c-62.948 0.079-113.957 51.088-114.036 114.029v0.008zM487.796 670.1h-396.567v-641.396c0.053-37.253 30.238-67.438 67.486-67.491h261.59c37.253 0.053 67.438 30.238 67.491 67.486v0.005zM0 938.667h579.491v-268.567h-579.491zM532.945 892.122h-486.4v-175.476h486.4zM266.705 494.158h268.567v-357.469h-268.567zM488.727 447.612h-175.476v-264.378h175.476zM822.924 671.962c111.051 0 201.076-90.025 201.076-201.076s-90.025-201.076-201.076-201.076c-111.051 0-201.076 90.025-201.076 201.076v0c0.132 110.998 90.078 200.944 201.064 201.076h0.013zM822.924 316.354c85.345 0 154.531 69.186 154.531 154.531s-69.186 154.531-154.531 154.531c-85.345 0-154.531-69.186-154.531-154.531v0c0.106-85.302 69.228-154.425 154.521-154.531h0.010zM1045.411-85.333h-444.509v46.545h444.509zM1045.411 92.471h-444.509v46.545h444.509zM940.032 321.288l-266.705 266.705 32.954 32.954 266.705-266.705z" />
<glyph unicode="&#xe93e;" glyph-name="plus-account-monitor-thin" horiz-adv-x="1029" d="M158.255 938.667h712.145c87.402 0 158.255-70.853 158.255-158.255v0-488.727c0-87.402-70.853-158.255-158.255-158.255v0h-712.145c-87.402 0-158.255 70.853-158.255 158.255v0 488.727c0 87.402 70.853 158.255 158.255 158.255v0zM870.4 179.976c61.695 0 111.709 50.014 111.709 111.709v0 488.727c0 61.695-50.014 111.709-111.709 111.709v0h-712.145c-61.695 0-111.709-50.014-111.709-111.709v0-488.727c0-61.695 50.014-111.709 111.709-111.709v0zM716.8-85.333h-409.6l50.595 269.964h308.596zM363.055-38.788h297.891l-33.14 176.873h-231.331zM823.855-85.333h-623.709v46.545h623.709zM335.127 584.922c84.938-0.368 153.651-69.308 153.651-154.297 0-1.392-0.018-2.779-0.055-4.162l0.004 0.204v-69.818h-311.855v69.818c0 87.402 70.853 158.255 158.255 158.255v0zM442.182 403.394v23.273c0.034 1.015 0.054 2.207 0.054 3.405 0 59.396-47.809 107.625-107.044 108.304l-0.064 0.001c-61.695 0-111.709-50.014-111.709-111.709v0-23.273zM335.127 761.794c61.695 0 111.709-50.014 111.709-111.709s-50.014-111.709-111.709-111.709c-61.695 0-111.709 50.014-111.709 111.709v0c0 61.695 50.014 111.709 111.709 111.709v0zM335.127 584.922c35.989 0 65.164 29.175 65.164 65.164s-29.175 65.164-65.164 65.164c-35.989 0-65.164-29.175-65.164-65.164v0c0-35.989 29.175-65.164 65.164-65.164v0zM865.745 626.812h-265.309v46.545h265.309zM758.691 515.103h-46.545v265.309h46.545z" />
<glyph unicode="&#xe93f;" glyph-name="plus-bed-thin" horiz-adv-x="979" d="M44.522-85.333h-44.522v765.774h44.522zM0 364.337h512v-213.704h-512zM467.478 319.815h-422.957v-124.661h422.957zM979.478-85.333h-44.522v427.409h44.522zM467.478 364.337h512v-298.296h-512zM934.957 319.815h-422.957v-209.252h422.957zM979.478 342.076h-44.522v129.113h44.522zM556.522 680.441h-44.522v258.226h44.522zM658.922 787.293h-253.774v44.522h253.774zM344.865 326.315l-253.774 253.774 31.521 31.521 253.774-253.774z" />
<glyph unicode="&#xe940;" glyph-name="plus-bottle-thin" d="M740.073-85.333h-442.182c-61.695 0-111.709 50.014-111.709 111.709v0 498.362l134.982 134.982v78.801h46.545v-98.071l-134.982-134.982v-479.092c0-35.989 29.175-65.164 65.164-65.164v0h442.182c35.989 0 65.164 29.175 65.164 65.164v0 479.092l-134.982 134.982v98.071h46.545v-78.801l134.982-134.982v-498.362c0-61.695-50.014-111.709-111.709-111.709v0zM274.618 938.667h493.382v-223.418h-493.382zM721.455 892.122h-400.291v-130.327h400.291zM698.182 268.412h-353.745v46.545h353.745zM544.582 114.812h-46.545v358.4h46.545z" />
<glyph unicode="&#xe941;" glyph-name="plus-call-center-thin" d="M816.37-85.333h-9.995c-0.576-0.001-1.258-0.002-1.939-0.002-112.276 0-219.161 23.085-316.167 64.767l5.213-1.993c-99.648 42.55-184.743 100.652-256.41 172.199l0.011-0.011c-146.43 145.123-237.089 346.308-237.089 568.668 0 0.966 0.002 1.932 0.005 2.898v-0.15 9.995l207.63 207.63 265.911-265.911-169.001-169.001c5.357-157.687 131.722-284.17 288.861-289.701l0.517-0.014 169.001 169.001 261.082-261.082zM48.286 711.095c6.024-410.743 337.401-742.119 747.572-748.136l0.571-0.007 159.344 159.344-192.806 192.806-149.348-149.348h-9.995c-191.918 0.22-347.439 155.741-347.659 347.638v10.016l149.348 149.348-197.634 197.634zM832.739-29.997l-135.201 135.201 34.186 34.186 135.201-135.201zM282.28 520.462l-135.201 135.201 34.186 34.186 135.201-135.201zM989.862 696.899h-366.973v48.286h366.973zM830.518 537.556h-48.286v366.973h48.286z" />
<glyph unicode="&#xe942;" glyph-name="plus-clipboard-add-thin" d="M93.091 892.122h269.964v-69.818c0-35.989 29.175-65.164 65.164-65.164v0h176.873c35.989 0 65.164 29.175 65.164 65.164v0 69.818h269.964v-977.455h-847.127zM316.509 845.576h-176.873v-884.364h754.036v884.364h-176.873v-23.273c0-61.695-50.014-111.709-111.709-111.709v0h-176.873c-61.695 0-111.709 50.014-111.709 111.709v0zM651.636 491.831h-269.964v46.545h269.964zM539.927 380.122h-46.545v269.964h46.545zM781.964 91.54h-530.618v46.545h530.618zM781.964 268.412h-530.618v46.545h530.618zM316.509 938.667h400.291v-111.709c0-61.695-50.014-111.709-111.709-111.709v0h-176.873c-61.695 0-111.709 50.014-111.709 111.709v0zM670.255 892.122h-307.2v-65.164c0-35.989 29.175-65.164 65.164-65.164v0h176.873c35.989 0 65.164 29.175 65.164 65.164v0z" />
<glyph unicode="&#xe943;" glyph-name="plus-document-thin" d="M93.091 938.667h610.071l237.056-237.056v-786.944h-847.127zM683.892 892.122h-544.256v-930.909h754.036v721.129zM916.945 626.812h-288.582v288.582h46.545v-242.036h242.036zM516.655 626.812h-265.309v46.545h265.309zM404.945 515.103h-46.545v265.309h46.545zM781.964 314.958h-400.291v46.545h400.291zM781.964 138.085h-530.618v46.545h530.618zM339.782 314.958h-88.436v46.545h88.436z" />
<glyph unicode="&#xe944;" glyph-name="plus-drip-thin" horiz-adv-x="760" d="M45.511-85.333h-45.511v1024h760.036v-45.511h-714.524zM477.867-85.333h-45.511v131.982h45.511zM477.867 742.969h-45.511v172.942h45.511zM177.493 765.725h564.338v-459.662c-0.181-155.765-126.404-281.988-282.151-282.169h-0.018c-155.765 0.181-281.988 126.404-282.169 282.151v0.018zM696.32 720.214h-473.316v-414.151c0.155-130.64 106.018-236.502 236.643-236.658h0.015c130.64 0.155 236.502 106.018 236.658 236.643v0.015zM587.093 369.778h-259.413v45.511h259.413zM477.867 260.551h-45.511v263.964h45.511z" />
</font>
</defs>
</svg>
