<?xml version="1.0" standalone="no"?>
<!DOCTYPE svg PUBLIC "-//W3C//DTD SVG 1.1//EN" "http://www.w3.org/Graphics/SVG/1.1/DTD/svg11.dtd" >
<svg xmlns="http://www.w3.org/2000/svg">
<metadata>Generated by IcoMoon</metadata>
<defs>
<font id="christmas" horiz-adv-x="1024">
<font-face units-per-em="1024" ascent="960" descent="-64" />
<missing-glyph horiz-adv-x="1024" />
<glyph unicode="&#x20;" horiz-adv-x="512" d="" />
<glyph unicode="&#xe900;" glyph-name="angel-thin" d="M245.341 181.372c-135.25 0.553-244.742 110.045-245.294 245.242v23.326h267.636c38.321-0.233 72.895-16.079 97.719-41.492l0.026-0.027-33.373-32.582c-16.365 16.844-39.168 27.356-64.428 27.555h-219.638c12.449-99.099 95.989-175.053 197.355-175.476h22.339c6.506 0.056 12.819 0.731 18.928 1.969l-0.635-0.107 9.030-45.661c-8.125-1.677-17.492-2.673-27.078-2.746h-0.058zM778.799 181.372h-22.388c-9.715 0.080-19.144 1.093-28.265 2.953l0.943-0.161 9.030 45.661c5.581-1.149 12.009-1.825 18.589-1.862h22.185c101.391 0.448 184.906 76.393 197.252 174.494l0.101 0.982h-219.834c-25.205-0.194-47.935-10.632-64.262-27.351l-0.017-0.018-33.373 32.582c24.845 25.448 59.423 41.297 97.704 41.518h267.585v-23.505c-0.553-135.233-110.018-244.715-245.192-245.294h-0.056zM806.4-85.333h-590.103l51.2 296.262 14.383 88.436c7.259 41.267 24.432 77.635 48.975 107.758l-0.335-0.424c23.811 30.084 54.453 53.734 89.649 68.787l1.487 0.565 17.967-42.961c-29.23-12.434-53.645-31.277-72.321-54.87l-0.29-0.379v-0.279c-19.456-23.744-33.273-52.84-38.977-84.746l-0.167-1.13-14.383-88.436-41.891-242.036h479.418l-41.891 241.804-14.476 88.436c-5.771 33.033-19.498 62.15-39.134 86.263l0.268-0.34v0.279c-18.966 23.972-43.381 42.815-71.426 54.799l-1.185 0.45 17.967 42.961c36.68-15.606 67.321-39.241 90.774-68.833l0.362-0.473c24.177-29.731 41.307-66.135 48.297-106.029l0.203-1.398 14.476-88.436zM512.047 716.18c86.373 0 156.393-70.019 156.393-156.393s-70.019-156.393-156.393-156.393c-86.373 0-156.393 70.019-156.393 156.393v0c0.106 86.331 70.062 156.287 156.383 156.393h0.010zM512.047 449.94c60.667 0 109.847 49.18 109.847 109.847s-49.18 109.847-109.847 109.847c-60.667 0-109.847-49.18-109.847-109.847v0c0.079-60.635 49.212-109.768 109.84-109.847h0.008zM512.047 938.667c89.181 0 156.393-38.633 156.393-89.833s-67.212-89.833-156.393-89.833-156.393 38.633-156.393 89.833 67.212 89.833 156.393 89.833zM512.047 805.547c66.048 0 109.847 26.065 109.847 43.287s-43.799 43.287-109.847 43.287-109.847-26.065-109.847-43.287 43.799-43.287 109.847-43.287z" />
<glyph unicode="&#xe901;" glyph-name="antlers-thin" horiz-adv-x="982" d="M854.003-85.333h-44.619v127.61c0.001 0.311 0.002 0.68 0.002 1.049 0 175.947-142.633 318.58-318.58 318.58-175.578 0-317.982-142.036-318.578-317.474v-127.533h-44.619v127.61c1.265 199.626 163.386 360.966 363.19 360.966 0.002 0 0.004 0 0.007 0v0c200.496-0.228 362.968-162.7 363.196-363.174v-0.022zM427.894 383.164h-44.619v44.619c-0.076 58.125-47.175 105.224-105.293 105.3h-85.229c-106.403 0.127-192.626 86.35-192.753 192.741v212.843h44.619v-212.831c0.101-81.771 66.363-148.033 148.124-148.134h85.232c82.757-0.102 149.817-67.162 149.919-149.909v-0.010zM257.45 555.392h-44.619v213.278h44.619zM598.337 383.164h-44.619v44.619c0.102 82.757 67.162 149.817 149.909 149.919h85.232c81.771 0.101 148.033 66.363 148.134 148.124v212.841h44.619v-212.831c-0.127-106.403-86.35-192.626-192.741-192.753h-85.234c-58.125-0.076-105.224-47.175-105.3-105.293v-0.007zM768.781 555.392h-44.619v213.278h44.619zM790.778 235.030h-32.259v44.619h31.992c73.147 1.114 133.415 54.853 144.675 124.974l0.113 0.851h-61.217c-40.907-0.023-77.931-16.628-104.718-43.457l-0.27-0.27c-17.682-17.051-31.068-38.438-38.454-62.453l-0.275-1.039-42.745 12.806c25.396 80.581 99.067 138.152 186.314 139.031l0.103 0.001h107.576v-22.309c0-0.003 0-0.007 0-0.010 0-105.749-85.158-191.608-190.638-192.742l-0.107-0.001zM223.094 235.030h-30.341c-106.455 0-192.753 86.298-192.753 192.753v0 22.309h107.843c52.321-0.636 99.525-22.030 133.859-56.311l-0.002 0.002c22.996-22.228 40.407-50.090 50.016-81.368l0.358-1.355-42.745-12.806c-7.659 25.055-21.046 46.442-38.684 63.45l-0.045 0.043-0.268 0.268c-26.397 26.418-62.71 42.925-102.879 43.458l-0.101 0.001h-61.083c11.258-71.649 72.543-125.805 146.481-125.825h30.343z" />
<glyph unicode="&#xe902;" glyph-name="ball-ornament-thin" horiz-adv-x="742" d="M370.916 656.498c204.851 0 370.916-166.065 370.916-370.916s-166.065-370.916-370.916-370.916c-204.851 0-370.916 166.065-370.916 370.916v0c0.233 204.758 166.159 370.683 370.894 370.916h0.022zM370.916-39.822c179.716 0 325.404 145.689 325.404 325.404s-145.689 325.404-325.404 325.404c-179.716 0-325.404-145.689-325.404-325.404v0c0.207-179.633 145.772-325.197 325.385-325.404h0.020zM567.979 586.866h-45.511v198.428h-303.104v-198.428h-45.511v243.94h394.126zM393.671 808.050h-45.511v130.617h45.511zM563.473 328.818c-67.232 1.107-131.214 13.576-190.578 35.561l3.983-1.292c-91.705 28.945-170.894 53.885-346.158-11.605l-15.929 42.644c189.963 70.997 284.444 41.233 375.785 12.379 53.14-20.6 114.64-32.536 178.928-32.536 51.406 0 101.031 7.632 147.801 21.824l-3.6-0.939 11.059-44.146c-48.212-13.284-103.681-21.231-160.901-21.887l-0.39-0.004zM564.065 111.184c-67.35 1.112-131.44 13.614-190.9 35.655l3.985-1.294c-91.75 28.945-170.94 53.931-346.385-11.878l-15.974 42.598c190.145 71.316 284.672 41.506 376.104 12.652 53.197-20.613 114.761-32.556 179.115-32.556 51.186 0 100.607 7.555 147.209 21.612l-3.605-0.934 11.014-44.146c-47.992-13.16-103.211-21.040-160.165-21.705l-0.399-0.004z" />
<glyph unicode="&#xe903;" glyph-name="bell-bow-thin" d="M516.189 671.962c184.486-0.212 333.984-149.71 334.196-334.176v-245.316h-668.393v245.295c0.212 184.486 149.71 333.984 334.176 334.196h0.021zM803.84 139.016v198.749c0 158.865-128.786 287.651-287.651 287.651s-287.651-128.786-287.651-287.651v0-198.749zM516.189 849.765c61.952 0 112.175-50.222 112.175-112.175s-50.222-112.175-112.175-112.175c-61.952 0-112.175 50.222-112.175 112.175v0c0.079 61.92 50.254 112.095 112.167 112.175h0.008zM516.189 671.962c36.246 0 65.629 29.383 65.629 65.629s-29.383 65.629-65.629 65.629c-36.246 0-65.629-29.383-65.629-65.629v0c0.053-36.225 29.404-65.576 65.624-65.629h0.005zM219.136 938.667c0.040 0 0.087 0 0.134 0 25.844 0 49.839-7.915 69.693-21.454l-0.428 0.276 185.763-124.090-12.847-19.316c-6.909-10.258-11.029-22.894-11.031-36.491v-0.001c0.064-13.615 4.191-26.254 11.23-36.781l-0.153 0.242 12.753-19.363-185.809-123.578c-19.694-13.518-44.047-21.588-70.285-21.588-69.15 0-125.207 56.057-125.207 125.207 0 0.193 0 0.386 0.001 0.579v-0.030 150.714c-0.001 0.138-0.001 0.302-0.001 0.466 0 69.15 56.057 125.207 125.207 125.207 0.049 0 0.099 0 0.148 0h-0.008zM411.974 779.109l-149.364 99.7c-12.179 8.336-27.23 13.312-43.444 13.312-0.011 0-0.021 0-0.032 0h-0.836c0 0-0.001 0-0.001 0-43.444 0-78.662-35.218-78.662-78.662 0-0.164 0-0.327 0.001-0.491v0.025-150.807c-0.001-0.105-0.001-0.23-0.001-0.355 0-43.444 35.218-78.662 78.662-78.662 16.491 0 31.796 5.074 44.44 13.747l-0.268-0.174 149.504 99.375c-5.032 12.289-7.954 26.551-7.954 41.495s2.921 29.206 8.224 42.246l-0.27-0.751zM813.242 938.667h0.838c0 0 0.001 0 0.001 0 69.15 0 125.207-56.057 125.207-125.207 0-0.164 0-0.327-0.001-0.491v0.025-150.807c0-0.108 0.001-0.235 0.001-0.363 0-69.15-56.057-125.207-125.207-125.207-26.238 0-50.59 8.070-70.711 21.864l0.427-0.276-185.716 123.485 12.753 19.363c6.901 10.31 11.031 22.984 11.078 36.619v0.012c-0.016 13.566-4.134 26.167-11.18 36.634l0.149-0.235-12.8 19.316 185.949 124.137c19.402 13.234 43.362 21.132 69.168 21.132 0.016 0 0.032 0 0.048 0h-0.002zM814.080 583.153c0 0 0.001 0 0.001 0 43.444 0 78.662 35.218 78.662 78.662 0 0.164 0 0.327-0.001 0.491v-0.025 150.714c0.001 0.138 0.001 0.302 0.001 0.465 0 43.444-35.218 78.662-78.662 78.662 0 0-0.001 0-0.001 0h-0.838c-0.024 0-0.052 0-0.081 0-16.175 0-31.192-4.958-43.613-13.438l0.267 0.172-149.411-99.747c5.034-12.296 7.957-26.565 7.959-41.518v-0.001c-0.041-14.941-2.961-29.189-8.232-42.235l0.272 0.763 149.318-99.281c12.401-8.567 27.756-13.684 44.307-13.684 0.018 0 0.036 0 0.054 0h-0.003zM516.189-87.195c-86.2 0.105-156.076 69.85-156.393 155.99v0.030c-0.049 1.392-0.077 3.028-0.077 4.67 0 18.205 3.445 35.605 9.718 51.585l-0.332-0.959 43.427-16.756c-4.064-10.177-6.422-21.972-6.422-34.317 0-1.027 0.016-2.049 0.049-3.068l-0.004 0.149v-0.745c0-60.667 49.18-109.847 109.847-109.847s109.847 49.18 109.847 109.847v0.745c0.029 0.87 0.045 1.893 0.045 2.919 0 12.345-2.357 24.14-6.646 34.959l0.224-0.642 43.427 16.756c5.942-15.020 9.386-32.421 9.386-50.626 0-1.642-0.028-3.278-0.084-4.907l0.006 0.237c-0.316-86.040-69.98-155.704-155.99-156.020h-0.030zM916.015 92.471h-799.651v46.545h799.651z" />
<glyph unicode="&#xe904;" glyph-name="berries-thin" horiz-adv-x="1023" d="M358.563 268.108h-0.466v46.567h0.466zM333.464-85.286c-0.004 0-0.009 0-0.015 0-110.845 0-200.702 89.857-200.702 200.702 0 79.018 45.664 147.37 112.042 180.107l1.176 0.524 20.303-41.91c-51.901-25.537-86.986-78.041-86.986-138.74 0-85.127 69.009-154.136 154.136-154.136 85.117 0 154.119 68.992 154.136 154.105v0.002c-0.070 28.625-7.879 55.411-21.443 78.397l0.395-0.724 40.234 23.283c17.194-28.974 27.356-63.872 27.356-101.143 0-110.819-89.837-200.656-200.656-200.656-0.007 0-0.015 0-0.022 0h0.001zM663.574 268.108h-0.466v46.567h0.466zM688.208-85.286c-0.030 0-0.066 0-0.102 0-110.793 0-200.609 89.816-200.609 200.609 0 37.291 10.175 72.205 27.9 102.119l-0.51-0.929 40.234-23.283c-13.175-22.275-20.984-49.079-21.048-77.701v-0.018c0-0.026 0-0.057 0-0.089 0-85.127 69.009-154.136 154.136-154.136s154.136 69.009 154.136 154.136c0 60.68-35.065 113.171-86.037 138.315l-0.903 0.403 20.303 41.91c67.554-33.262 113.218-101.614 113.218-180.632 0-110.834-89.839-200.684-200.669-200.702h-0.002zM492.209 581.967h39.861c101.944-12.601 180.083-98.682 180.083-203.014 0-38.322-10.542-74.182-28.885-104.838l0.517 0.931c-30.288-51.674-82.179-87.881-142.952-96.322l-1.032-0.117h-1.257c-4.183-0.353-9.053-0.555-13.97-0.555s-9.787 0.201-14.602 0.596l0.632-0.042h-10.99c-2.192-0.135-4.754-0.211-7.334-0.211s-5.142 0.077-7.684 0.228l0.35-0.017h-2.095c-62.643 9.903-114.766 47.86-143.838 100.355l-0.518 1.020c-17.8 29.327-28.334 64.776-28.334 102.685 0 103.774 78.942 189.109 180.049 199.231l0.837 0.068zM528.391 535.4h-33.901c-77.726-8.349-137.719-73.589-137.719-152.84 0-29.237 8.165-56.566 22.338-79.833l-0.384 0.678 0.559-0.978c22.418-40.806 61.932-69.844 108.638-77.598l0.886-0.122c1.308-0.076 2.837-0.119 4.377-0.119s3.069 0.043 4.588 0.128l-0.211-0.009h15.879c3.096-0.263 6.699-0.413 10.338-0.413s7.242 0.15 10.805 0.444l-0.467-0.031c47.036 6.722 86.48 34.374 109.14 73.052l0.384 0.71v0.233c13.726 22.582 21.851 49.885 21.851 79.085 0 0.65-0.004 1.298-0.012 1.946l0.001-0.099v0.512c0.010 0.656 0.016 1.431 0.016 2.207 0 79.157-59.741 144.36-136.595 152.982l-0.7 0.064zM254.952 241.937l-11.036 6.799c-147.328 91.794-243.922 252.916-243.922 436.599 0 0.855 0.002 1.709 0.006 2.563l-0.001-0.132v250.901h23.283c0.309 0.001 0.675 0.001 1.042 0.001 116.278 0 223.41-39.157 308.93-105.004l-1.189 0.88c87.381-66.521 151.877-159.097 182.143-266.049l0.864-3.572 7.404-26.59-27.474-2.794c-78.222-7.835-138.789-73.318-138.789-152.948 0-0.876 0.007-1.751 0.022-2.623l-0.002 0.131v-0.512c-0.007-0.546-0.011-1.19-0.011-1.835 0-29.204 8.125-56.511 22.237-79.783l-0.386 0.686 23.283-38.79-45.123 3.586c-3.2 0.273-6.925 0.429-10.687 0.429s-7.487-0.156-11.169-0.461l0.482 0.032h-1.909c-24.207-0.027-47.055-5.822-67.251-16.084l0.847 0.391zM46.567 891.495v-203.822c0-0.218-0.001-0.477-0.001-0.735 0-163.142 83.278-306.833 209.642-390.882l1.724-1.079c18.699 7.995 40.379 13.254 63.105 14.642l0.551 0.027c-8.026 20.974-12.675 45.233-12.675 70.578 0 94.584 64.737 174.048 152.319 196.502l1.406 0.306c-61.918 177.069-222.912 303.82-414.872 314.412l-1.2 0.053zM1023.069 938.667v-245.406c0.004-0.75 0.006-1.637 0.006-2.524 0-183.683-96.595-344.806-241.758-435.341l-2.164-1.258-11.036-6.799-11.595 5.821c-19.335 9.864-42.165 15.658-66.346 15.693h-1.967c-3.2 0.273-6.925 0.429-10.687 0.429s-7.487-0.156-11.169-0.461l0.482 0.032-45.17-3.632 23.283 38.837c13.799 22.595 21.97 49.934 21.97 79.181 0 79.652-60.601 145.149-138.211 152.902l-0.642 0.052-27.707 2.701 7.637 27.241c62.385 216.693 258.872 372.533 491.758 372.533 0.011 0 0.023 0 0.034 0h-0.001zM765.136 300.704c128.088 85.118 211.366 228.801 211.366 391.936 0 0.186 0 0.371 0 0.557v-0.029 198.327c-192.861-10.562-353.693-136.827-414.974-310.131l-1.006-3.263c88.52-21.98 153.091-100.753 153.091-194.607 0-24.491-4.397-47.956-12.445-69.647l0.45 1.386c23.217-1.384 44.853-6.595 64.806-15.011l-1.289 0.483zM348.598 466.761l-210.015 210.015 32.969 32.969 210.015-210.015zM673.074 466.761l-32.923 32.923 210.015 210.015 32.923-32.923z" />
<glyph unicode="&#xe905;" glyph-name="bible-book-thin" d="M251.671 139.016h645.725v-224.349h-645.585c-61.703 0.495-111.6 50.343-112.174 111.98v0.427c0.777 61.38 50.329 110.932 111.635 111.708l0.074 0.001zM850.851 92.471h-598.9c-36.246 0-65.629-29.383-65.629-65.629s29.383-65.629 65.629-65.629v0h598.9zM251.764 938.667h645.632v-846.196h-645.446c-36.174-0.646-65.307-29.893-65.768-66.051v-0.044l-46.545 0.233v799.884c0.495 61.703 50.343 111.6 111.98 112.174h0.055zM850.851 892.122h-598.993c-36.156-0.365-65.363-29.605-65.675-65.739v-709.010c18.032 13.303 40.629 21.383 65.102 21.643l0.062 0.001h599.505zM541.789 293.547h-46.545v444.044h46.545zM740.538 492.296h-444.044v46.545h444.044zM429.615 625.416h-88.902v46.545h88.902zM429.615 359.176h-88.902v46.545h88.902zM696.32 625.416h-88.902v46.545h88.902zM696.32 359.176h-88.902v46.545h88.902z" />
<glyph unicode="&#xe906;" glyph-name="bottle-glass-thin" d="M133.12 938.667h224.349v-366.313l4.375-2.886c78.314-52.616 129.169-140.848 129.21-240.96v-413.842h-491.055v413.789c0.016 100.079 50.818 188.289 128.037 240.264l1.034 0.656 4.049 2.746zM310.924 892.122h-131.258v-344.669l-24.669-16.71c-65.746-44.185-108.433-118.272-108.451-202.33v-367.2h397.964v367.244c-0.016 83.989-42.646 158.017-107.444 201.643l-0.867 0.55-25.274 16.57zM423.098 892.122h-355.607v46.545h355.607zM621.847 627.743h402.153v-289.978c0-111.051-90.025-201.076-201.076-201.076s-201.076 90.025-201.076 201.076v0zM977.455 581.198h-309.062v-243.433c0-85.345 69.186-154.531 154.531-154.531s154.531 69.186 154.531 154.531v0zM467.782 314.492h-444.509v46.545h444.509zM467.782 136.689h-444.509v46.545h444.509zM846.196-62.060h-46.545v222.022h46.545zM956.509-85.333h-266.705v46.545h266.705zM1000.727 359.176h-355.607v46.545h355.607z" />
<glyph unicode="&#xe907;" glyph-name="building-church-thin" horiz-adv-x="1001" d="M740.466-83.513h-479.687v642.162l239.844 192.102 239.844-192.057zM306.29-38.001h388.665v574.805l-194.332 155.602-194.332-155.602zM306.29-83.513h-306.29v382.657l306.29 204.208zM45.511-38.001h215.268v456.294l-215.268-143.542zM1001.244-83.513h-306.29v586.82l306.29-204.163zM740.466-38.001h215.268v312.752l-215.268 143.497zM283.534 134.031h-130.617v45.511h130.617zM848.327 134.031h-130.617v45.511h130.617zM500.622 179.542v0c37.703 0 68.267-30.564 68.267-68.267v0-196.608h-136.533v199.339c1.507 36.509 31.47 65.536 68.212 65.536 0.019 0 0.038 0 0.058 0h-0.003zM523.378-39.822v151.097c0 12.568-10.188 22.756-22.756 22.756v0 0c-0.011 0-0.023 0-0.036 0-12.119 0-22.026-9.474-22.717-21.42l-0.003-0.061v-152.371zM500.622 483.101c36.446 0 65.991-29.545 65.991-65.991s-29.545-65.991-65.991-65.991c-36.446 0-65.991 29.545-65.991 65.991v0c0.052 36.425 29.566 65.939 65.986 65.991h0.005zM500.622 396.63c11.311 0 20.48 9.169 20.48 20.48s-9.169 20.48-20.48 20.48c-11.311 0-20.48-9.169-20.48-20.48v0c0.026-11.3 9.18-20.454 20.478-20.48h0.002zM523.378 721.124h-45.511v217.543h45.511zM587.548 828.985h-173.852v45.511h173.852z" />
<glyph unicode="&#xe908;" glyph-name="calendar-bell-thin" horiz-adv-x="1003" d="M0 874.353h1003.474v-263.184h-1003.474zM957.862 828.741h-912.249v-171.959h912.249zM0 656.782h1003.474v-742.115h-1003.474zM957.862 611.169h-912.249v-650.89h912.249zM263.184 764.427h-45.612v174.24h45.612zM785.903 764.427h-45.612v174.24h45.612zM524.543 764.427h-45.612v174.24h45.612zM501.737 483.455v0c84.6-0.104 153.154-68.658 153.258-153.248v-153.268h-306.516v151.798c-0.004 0.434-0.007 0.946-0.007 1.46 0 84.642 68.616 153.258 153.258 153.258 0.002 0 0.005 0 0.007 0v0zM609.383 222.551v107.645c-0.078 59.42-48.226 107.568-107.638 107.645h-0.007c-0.002 0-0.004 0-0.006 0-59.451 0-107.645-48.195-107.645-107.645 0-0.401 0.002-0.801 0.007-1.201l-0.001 0.061v-106.505zM719.309 175.57h-435.143v45.612h435.143zM501.737 221.183c36.527 0 66.138-29.611 66.138-66.138s-29.611-66.138-66.138-66.138c-36.527 0-66.138 29.611-66.138 66.138v0c0.052 36.506 29.632 66.086 66.133 66.138h0.005zM501.737 134.519c11.336 0 20.526 9.19 20.526 20.526s-9.19 20.526-20.526 20.526c-11.336 0-20.526-9.19-20.526-20.526v0c0.026-11.326 9.2-20.5 20.523-20.526h0.002z" />
<glyph unicode="&#xe909;" glyph-name="calendar-date-thin" horiz-adv-x="1003" d="M0 874.496h1003.065v-263.054h-1003.065zM957.554 828.985h-912.043v-172.032h912.043zM0 656.498h1003.065v-741.831h-1003.065zM957.554 610.987h-912.043v-650.809h912.043zM263.054 764.359h-45.511v174.308h45.511zM785.522 764.359h-45.511v174.308h45.511zM524.288 764.359h-45.511v174.308h45.511zM456.021 88.975h-238.478v79.872l113.778 82.694c36.739 28.219 60.26 72.069 60.53 121.425v0.044c0.001 0.122 0.001 0.266 0.001 0.41 0 35.692-28.934 64.626-64.626 64.626 0 0-0.001 0-0.001 0h-86.926v45.511h86.926c0.001 0 0.001 0 0.002 0 60.827 0 110.137-49.31 110.137-110.137 0-0.208-0.001-0.416-0.002-0.624v0.032c-0.308-64.183-30.881-121.161-78.168-157.437l-0.475-0.35-0.364-0.273-95.3-69.131v-11.15h192.967zM675.84 89.885h-128.796v45.511h128.796c35.44 0 64.171 28.73 64.171 64.171s-28.73 64.171-64.171 64.171v0h-110.137v219.819h197.063v-45.511h-151.552v-128.796h64.626c60.576 0 109.682-49.106 109.682-109.682s-49.106-109.682-109.682-109.682v0z" />
<glyph unicode="&#xe90a;" glyph-name="candle-holder-thin" horiz-adv-x="1014" d="M375.348 618.791c-61.343 0.079-111.050 49.786-111.129 111.121v0.008c0 96.512 90.932 188.596 94.805 192.47l16.324 16.277 16.324-16.324c3.873-3.873 94.805-95.958 94.805-192.47-0.105-61.323-49.802-111.004-111.121-111.083h-0.008zM375.348 871.482c-34.879-37.735-58.411-86.426-64.9-140.361l-0.118-1.202c0-35.908 29.109-65.017 65.017-65.017s65.017 29.109 65.017 65.017v0c-6.527 55.146-30.057 103.853-65.122 141.727l0.15-0.164zM398.404 509.968h-46.112v131.879h46.112zM131.879 533.023h486.477v-442.21h-486.477zM572.245 486.912h-394.254v-349.987h394.254zM0 136.925h750.236v-23.056c0-0.005 0-0.011 0-0.017 0-109.108-87.72-197.729-196.483-199.184l-0.137-0.001h-354.414c-109.963 0.131-199.071 89.239-199.202 199.189v0.013zM702.372 90.813h-654.508c11.687-74.001 74.966-129.93 151.327-130.035h354.148c75.329 1.49 137.281 56.905 148.916 129.153l0.117 0.881zM859.52 268.804c85.568 0 154.935-69.367 154.935-154.935s-69.367-154.935-154.935-154.935c-85.568 0-154.935 69.367-154.935 154.935v0c0.105 85.526 69.409 154.83 154.925 154.935h0.010zM859.52 5.046c60.101 0 108.823 48.722 108.823 108.823s-48.722 108.823-108.823 108.823c-60.101 0-108.823-48.722-108.823-108.823v0c0.079-60.070 48.754-108.745 108.816-108.823h0.008z" />
<glyph unicode="&#xe90b;" glyph-name="candle-light-thin" horiz-adv-x="1035" d="M517.705 625.384c-59.992 0.077-108.605 48.69-108.682 108.674v0.007c0 94.702 88.93 184.895 92.718 188.683l15.964 15.919 15.964-15.964c3.788-3.788 92.718-93.845 92.718-188.683-0.103-59.973-48.705-108.56-108.674-108.637h-0.007zM517.705 872.962c-34.166-37.033-57.19-84.814-63.473-137.73l-0.113-1.167c0-35.117 28.468-63.586 63.586-63.586s63.586 28.468 63.586 63.586v0c-6.334 54.095-29.371 101.892-63.736 139.060l0.15-0.164zM540.253 518.505h-45.096v129.426h45.096zM279.597 541.054h476.667v-605.642h-476.667zM711.167 495.957h-386.475v-515.45h386.475zM755.813-85.333h-45.096v40.136c0 0.032 0 0.070 0 0.108 0 209.519 85.1 399.161 222.621 536.248l0.019 0.019 31.838-31.928c-94.228-94.412-162.285-214.975-192.344-349.863l-0.894-4.774c10.716 14.697 21.827 27.654 33.865 39.683l0.002 0.002c58.432 58.723 139.31 95.064 228.677 95.064 0.319 0 0.638 0 0.957-0.001h-0.049v-45.096c-154.417 0-279.597-125.18-279.597-279.597v0zM324.693-85.333h-45.096c-0.18 154.345-125.252 279.417-279.579 279.597h-0.017v45.096c108.151-0.063 203.927-52.993 262.891-134.345l0.651-0.944c-30.894 139.839-98.996 260.568-193.339 355.099l0.011-0.011 31.838 31.928c68.873-68.526 124.548-150.244 162.926-241.054l1.856-4.946c36.587-85.528 57.859-185.048 57.859-289.537 0-0.263 0-0.526 0-0.789v0.041zM474.412 323.69h-86.134v45.096h86.134zM647.131 323.69h-86.134v45.096h86.134zM949.275-64.589h-863.142v45.096h863.142z" />
<glyph unicode="&#xe90c;" glyph-name="candle-lines-thin" d="M518.516 615.781c-61.92 0.079-112.095 50.254-112.175 112.167v0.008c0 97.42 91.788 190.371 95.697 194.281l16.477 16.431 16.477-16.477c3.91-3.91 95.697-96.861 95.697-194.281-0.106-61.9-50.27-112.049-112.167-112.128h-0.008zM518.516 870.85c-35.207-38.090-58.96-87.239-65.51-141.681l-0.119-1.213c0-36.246 29.383-65.629 65.629-65.629s65.629 29.383 65.629 65.629v0c-6.602 55.67-30.369 104.835-65.78 143.059l0.151-0.165zM541.789 505.934h-46.545v133.12h46.545zM273.222 529.207h491.055v-624.175h-491.055zM717.731 482.661h-397.964v-531.084h397.964zM874.124-94.968h-711.215v46.545h711.215zM735.977 261.105l-444.137 88.902 9.309 45.615 444.044-88.902zM735.977 38.618l-444.137 88.902 9.309 45.615 444.044-88.902z" />
<glyph unicode="&#xe90d;" glyph-name="candles-thin" d="M297.405 607.559c-59.228 0.076-107.221 48.069-107.297 107.29v0.007c0 93.184 87.797 182.094 91.537 185.834l15.761 15.716 15.761-15.761c3.74-3.695 91.537-92.605 91.537-185.789-0.076-59.228-48.069-107.221-107.29-107.297h-0.007zM297.405 851.538c-33.676-36.434-56.397-83.446-62.662-135.521l-0.114-1.16c0-34.67 28.106-62.776 62.776-62.776s62.776 28.106 62.776 62.776v0c-6.302 53.245-29.020 100.273-62.876 136.841l0.145-0.159zM319.666 502.488h-44.522v127.332h44.522zM62.33 524.748h469.704v-597.037h-469.704zM487.513 480.227h-380.661v-507.993h380.661zM722.143 437.486c-59.228 0.076-107.221 48.069-107.297 107.29v0.007c0 93.184 87.797 182.094 91.537 185.834l15.761 15.761 15.761-15.761c3.74-3.74 91.537-92.65 91.537-185.834-0.076-59.228-48.069-107.221-107.29-107.297h-0.007zM722.143 681.465c-33.676-36.434-56.397-83.446-62.662-135.521l-0.114-1.16c0-34.67 28.106-62.776 62.776-62.776s62.776 28.106 62.776 62.776v0c-6.302 53.245-29.020 100.273-62.876 136.841l0.145-0.159zM744.403 332.414h-44.522v127.332h44.522zM487.513 354.675h469.704v-426.963h-469.704zM912.696 310.154h-380.661v-337.92h380.661zM1019.548-72.288h-1019.548v44.522h1019.548z" />
<glyph unicode="&#xe90e;" glyph-name="candy-cane-thin" d="M519.447 938.667v0c196.787-0.264 356.247-159.707 356.538-356.463v-0.028c0-74.163-60.121-134.284-134.284-134.284s-134.284 60.121-134.284 134.284v0c0 48.585-39.386 87.971-87.971 87.971s-87.971-39.386-87.971-87.971v0-532.992c0-74.163-60.121-134.284-134.284-134.284s-134.284 60.121-134.284 134.284v0 532.945c0.265 196.804 159.734 356.274 356.513 356.538h0.025zM741.516 494.158c48.564 0.053 87.918 39.407 87.971 87.966v0.005c0 171.204-138.788 309.993-309.993 309.993s-309.993-138.788-309.993-309.993v0-532.945c0-48.456 39.282-87.738 87.738-87.738s87.738 39.282 87.738 87.738v532.945c0 74.291 60.225 134.516 134.516 134.516s134.516-60.225 134.516-134.516v0c-0.001-0.138-0.001-0.302-0.001-0.465 0-48.328 39.178-87.505 87.505-87.505 0 0 0.001 0 0.001 0v0zM391.727 54.629l-222.022 222.487 32.954 32.861 222.022-222.487zM391.727 410.19l-222.022 222.022 32.954 32.954 222.022-222.022zM520.378 693.372h-46.545v222.022h46.545zM852.713 625.416h-222.022v46.545h222.022z" />
<glyph unicode="&#xe90f;" glyph-name="candy-thin" d="M423.098 636.122h177.338c111.051 0 201.076-90.025 201.076-201.076s-90.025-201.076-201.076-201.076v0h-177.338c-111.051 0-201.076 90.025-201.076 201.076s90.025 201.076 201.076 201.076v0zM600.436 280.514c85.345 0 154.531 69.186 154.531 154.531s-69.186 154.531-154.531 154.531v0h-177.338c-85.345 0-154.531-69.186-154.531-154.531s69.186-154.531 154.531-154.531v0zM911.825 591.438h112.175v-313.251h-112.175c-86.502 0-156.625 70.124-156.625 156.625s70.124 156.625 156.625 156.625v0zM977.455 544.892h-65.629c-60.796 0-110.080-49.284-110.080-110.080s49.284-110.080 110.080-110.080v0h65.629zM112.175 278.652h-112.175v313.251h112.175c86.502 0 156.625-70.124 156.625-156.625s-70.124-156.625-156.625-156.625v0zM46.545 325.198h65.629c60.796 0 110.080 49.284 110.080 110.080s-49.284 110.080-110.080 110.080v0h-65.629zM445.207 251.61l-88.902 355.607 45.149 11.311 89.135-355.654zM622.545 251.61l-88.902 355.607 45.149 11.311 89.135-355.654z" />
<glyph unicode="&#xe910;" glyph-name="chimney-thin" d="M147.367 151.523h384.668v-214.595h-384.668zM487.513 107.001h-295.624v-125.551h295.624zM317.44 321.596h384.668v-214.595h-384.668zM657.586 277.074h-295.624v-125.551h295.624zM657.586 321.596h214.595v-214.595h-214.595zM827.659 277.074h-125.551v-125.551h125.551zM147.367 321.596h214.595v-214.595h-214.595zM317.44 277.074h-125.551v-125.551h125.551zM487.513 151.523h384.668v-214.595h-384.668zM827.659 107.001h-295.624v-125.551h295.624zM147.367 491.224h384.668v-214.595h-384.668zM487.513 446.702h-295.624v-125.551h295.624zM317.44 661.297h384.668v-214.595h-384.668zM657.586 616.775h-295.624v-125.551h295.624zM657.586 661.297h214.595v-214.595h-214.595zM827.659 616.775h-125.551v-125.551h125.551zM147.367 661.297h214.595v-214.595h-214.595zM317.44 616.775h-125.551v-125.551h125.551zM487.513 491.224h384.668v-214.595h-384.668zM827.659 446.702h-295.624v-125.551h295.624zM62.33 916.406h894.442v-299.631h-894.442zM912.25 871.884h-805.398v-210.588h805.398zM1019.548-63.072h-1019.548v44.522h1019.548z" />
<glyph unicode="&#xe911;" glyph-name="christmas-tree-thin" d="M859.804 113.323h-695.608l188.55 215.485h318.509zM262.322 157.845h499.356l-110.637 126.442h-278.083zM772.764 284.286h-521.528l179.111 215.040h163.35zM346.246 328.808h331.509l-104.938 125.997h-121.633zM679.58 454.805h-334.625l167.046 278.706zM423.491 499.326h177.553l-89.043 147.723zM512 916.406l28.004-56.008 62.82-8.548-45.59-44.522 10.374-62.33-55.608 29.251-55.608-29.206 10.374 62.33-45.59 44.522 62.82 8.548zM534.261-34.934h-44.522v170.518h44.522zM1024-57.195h-1024v44.522h1024z" />
<glyph unicode="&#xe912;" glyph-name="church-building-thin" horiz-adv-x="934" d="M933.751 175.901h-292.818v45.511h229.649l-72.181 215.723h-157.468v45.511h190.236zM292.318 175.901h-292.318l102.081 306.745h190.236v-45.511h-157.423l-71.817-215.723h229.239zM881.232-85.333h-829.212v306.745h240.299v-45.511h-194.788v-215.723h738.19v215.723h-194.788v45.511h240.299zM466.625 705.878l197.063-147.684v-643.527h-394.126v643.527zM618.177 535.439l-151.552 113.55-151.552-113.55v-575.26h303.104zM489.381 372.964h-45.511v86.926h45.511zM489.381-62.577h-45.511v174.308h45.511zM489.381 198.656h-45.511v86.926h45.511zM489.381 677.433h-45.511v261.234h45.511zM553.552 828.985h-173.852v45.511h173.852z" />
<glyph unicode="&#xe913;" glyph-name="cross-thin" d="M345.507 938.9l156.393-52.736 156.393 52.736v-276.015h275.689l-51.945-156.393 51.898-156.858h-275.642v-453.027l-156.393 51.945-156.393-51.945v453.027h-275.642l51.898 156.858-51.945 156.393h275.689zM501.9 837.105l-109.847 36.631v-257.396h-257.862l36.492-109.847-36.492-110.313h257.862v-435.060l109.847 36.492 109.847-36.492v435.060h257.862l-36.538 110.313 36.538 109.847h-257.862v257.396z" />
<glyph unicode="&#xe914;" glyph-name="deer-thin" horiz-adv-x="1003" d="M501.737 46.943c36.527 0 66.138-29.611 66.138-66.138s-29.611-66.138-66.138-66.138c-36.527 0-66.138 29.611-66.138 66.138v0c0.052 36.506 29.632 66.086 66.133 66.138h0.005zM501.737-39.721c11.336 0 20.526 9.19 20.526 20.526s-9.19 20.526-20.526 20.526c-11.336 0-20.526-9.19-20.526-20.526v0c0.026-11.326 9.2-20.5 20.523-20.526h0.002zM261.359 483.455h481.212v-284.166c0-0.104 0-0.228 0-0.351 0-66.476-26.832-126.686-70.256-170.389l0.013 0.013c-43.272-43.585-103.219-70.563-169.468-70.563-0.235 0-0.469 0-0.704 0.001h-0.419c-132.694 0.156-240.222 107.683-240.378 240.363v0.015zM696.959 437.842h-389.987v-239.465c0.13-107.514 87.252-194.636 194.753-194.765h0.468c0.001 0 0.001 0 0.002 0 107.566 0 194.765 87.199 194.765 194.765 0 0.289-0.001 0.577-0.002 0.865v-0.044zM696.502 483.455h109.926c60.679-0.078 109.848-49.247 109.926-109.919v-109.933h-109.926c-60.679 0.078-109.848 49.247-109.926 109.919v0.007zM870.742 309.215v64.314c-0.052 35.499-28.815 64.262-64.309 64.314h-64.319v-64.314c0.052-35.499 28.815-64.262 64.309-64.314h0.005zM307.884 482.542v-109.926c-0.078-60.679-49.247-109.848-109.919-109.926h-109.933v109.926c0.078 60.679 49.247 109.848 109.919 109.926h0.007zM133.645 308.303h64.314c35.499 0.052 64.262 28.815 64.314 64.309v64.319h-64.314c-35.499-0.052-64.262-28.815-64.314-64.309v-0.005zM394.092 460.648h-45.612v86.208c-0.358 35.422-29.017 64.033-64.424 64.313h-45.639c-131.911 1.111-238.416 108.302-238.416 240.37 0 0.003 0 0.006 0 0.008v0 87.12h45.612v-87.12c0.302-106.869 86.388-193.531 193.007-194.764l0.117-0.001h45.612c60.388-0.588 109.182-49.398 109.743-109.736v-0.054zM263.184 633.976h-45.612v173.784h45.612zM654.995 460.648h-45.612v86.208c0.486 60.466 49.334 109.363 109.735 109.926h45.666c106.726 1.235 192.801 87.902 193.078 194.739v87.147h45.612v-87.12c0-0.002 0-0.005 0-0.008 0-132.051-106.48-239.233-238.263-240.369l-0.108-0.001h-45.612c-35.422-0.358-64.033-29.017-64.313-64.424v-0.027zM785.903 633.976h-45.612v173.784h45.612z" />
<glyph unicode="&#xe915;" glyph-name="elf-thin" d="M246.737 316.82h534.249l5.585-15.267c10.907-28.794 17.236-62.084 17.268-96.847v-0.014c0-160.151-129.828-289.978-289.978-289.978s-289.978 129.828-289.978 289.978v0c0.027 34.793 6.357 68.099 17.908 98.85l-0.64-1.942zM747.939 270.274h-468.108c-5.908-19.622-9.309-42.172-9.309-65.515 0-0.056 0-0.113 0-0.169v0.009c0-134.444 108.989-243.433 243.433-243.433s243.433 108.989 243.433 243.433v0c-0.049 23.424-3.515 46.020-9.925 67.341l0.43-1.665zM223.884 494.158h579.491v-224.349h-579.491zM756.829 447.612h-486.4v-131.258h486.4zM981.644 403.394v-112.175c-0.132-110.998-90.078-200.944-201.064-201.076h-23.285v114.828c1.496 109.904 90.94 198.423 201.059 198.423 0.006 0 0.012 0 0.019 0h-0.001zM803.84 138.458c74.697 11.797 131.152 75.671 131.258 152.751v63.871c-73.88-11.874-129.847-74.505-131.256-150.475l-0.002-0.146zM270.895 94.332h-23.273c-110.998 0.132-200.944 90.078-201.076 201.064v112.188h23.273c110.998-0.132 200.944-90.078 201.076-201.064v-0.013zM93.091 359.269v-63.86c0.106-77.091 56.561-140.965 130.38-152.648l0.878-0.114v63.86c-0.106 77.091-56.561 140.965-130.38 152.648l-0.878 0.114zM513.862 938.667c61.952 0 112.175-50.222 112.175-112.175s-50.222-112.175-112.175-112.175c-61.952 0-112.175 50.222-112.175 112.175v0c0.079 61.92 50.254 112.095 112.167 112.175h0.008zM513.862 760.863c36.246 0 65.629 29.383 65.629 65.629s-29.383 65.629-65.629 65.629c-36.246 0-65.629-29.383-65.629-65.629v0c0.364-36.098 29.531-65.265 65.594-65.629h0.035zM719.965 458.318l-178.269 280.762 39.284 24.948 178.269-280.669zM296.308 457.992l-38.726 25.786 187.578 281.6 38.726-25.786z" />
<glyph unicode="&#xe916;" glyph-name="gift-square-thin" d="M289.513 492.296c-0.173-0.001-0.377-0.002-0.581-0.002-30.683 0-58.457 12.453-78.544 32.581l-0.002 0.002c-20.307 20.329-32.865 48.401-32.865 79.407 0 62.055 50.306 112.361 112.361 112.361 0.034 0 0.068 0 0.103 0h7.442c30.906-0.113 58.858-12.666 79.129-32.909l79.126-79.126-79.127-79.127c-20.268-20.237-48.225-32.777-79.111-32.861h-0.016zM289.978 670.1c-36.275-0.097-65.644-29.526-65.644-65.815 0-18.086 7.295-34.467 19.103-46.364l-0.004 0.004c11.728-11.788 27.963-19.084 45.902-19.084 0.063 0 0.125 0 0.188 0h7.903c0.035 0 0.077 0 0.118 0 18.13 0 34.543 7.346 46.427 19.224l46.545 46.545-46.545 46.545c-11.827 11.851-28.158 19.203-46.207 19.27h-0.013zM548.631 716.645h9.914c61.977-0.103 112.179-50.369 112.179-112.361 0-30.936-12.502-58.952-32.73-79.271l0.004 0.004c-20.089-20.13-47.863-32.583-78.546-32.583-0.204 0-0.408 0.001-0.612 0.002h-7.882c-30.862 0.020-58.816 12.459-79.136 32.59l0.009-0.009-82.060 79.127 79.593 79.593c20.294 20.286 48.308 32.85 79.256 32.908h0.011zM559.011 538.842c0.053 0 0.116 0 0.178 0 17.939 0 34.173 7.295 45.899 19.081l0.003 0.003c11.804 11.892 19.099 28.274 19.099 46.359 0 36.289-29.369 65.718-65.635 65.815h-9.923c-18.056-0.048-34.389-7.385-46.219-19.223l-46.127-46.127 48.454-46.545c11.831-11.838 28.164-19.175 46.21-19.223h0.009zM112.175 938.667h799.651c61.92-0.079 112.095-50.254 112.175-112.167v-799.659c-0.079-61.92-50.254-112.095-112.167-112.175h-799.659c-61.92 0.079-112.095 50.254-112.175 112.167v799.659c0.079 61.92 50.254 112.095 112.167 112.175h0.008zM911.825-38.788c36.225 0.053 65.576 29.404 65.629 65.624v799.656c-0.053 36.225-29.404 65.576-65.624 65.629h-799.656c-36.225-0.053-65.576-29.404-65.629-65.624v-799.656c0.053-36.225 29.404-65.576 65.624-65.629h0.005zM446.371-62.060h-46.545v977.455h46.545zM201.076 581.198h-177.804v46.545h177.804zM1000.727 581.198h-355.607v46.545h355.607zM535.412 327.386l-133.12 266.705 41.612 20.759 133.12-266.705zM310.784 327.386l-41.658 20.806 133.12 266.705 41.658-20.806z" />
<glyph unicode="&#xe917;" glyph-name="gifts-thin" horiz-adv-x="1001" d="M587.522-64.399h-543.834v653.511h566.588v-196.599h-45.509v151.090h-475.57v-562.492h498.325zM0 762.956h653.511v-219.354h-653.511zM608.001 717.447h-562.492v-128.336h562.492zM434.612 415.267h566.588v-480.121h-566.588zM955.691 369.758h-475.57v-389.103h475.57zM978.445 152.68h-521.079v45.509h521.079zM740.433-85.333h-45.509v521.534h45.509zM196.599 936.801c0 0 0.001 0 0.001 0 84.45 0 152.911-68.46 152.911-152.911 0-0.192 0-0.384-0.001-0.576v0.030-68.264h-152.911c-61.201 0-110.815 49.613-110.815 110.815s49.613 110.815 110.815 110.815v0zM304.001 760.681v22.755c0.001 0.135 0.001 0.295 0.001 0.455 0 59.316-48.085 107.401-107.401 107.401 0 0-0.001 0-0.001 0v0c-35.418-0.052-64.116-28.75-64.168-64.163v-0.597c-0.014-0.502-0.022-1.092-0.022-1.684 0-35.431 28.716-64.154 64.143-64.168h0.001zM457.366 717.447h-155.186v68.264c0.103 84.297 68.32 152.626 152.565 152.91h0.027c0.841 0.023 1.832 0.037 2.826 0.037 30.112 0 57.378-12.186 77.136-31.895l-0.002 0.002c19.966-20.066 32.308-47.733 32.308-78.284 0-60.836-48.943-110.242-109.603-110.988l-0.071-0.001zM347.689 762.956h109.677c35.418 0.052 64.116 28.75 64.168 64.163v0.506c0.005 0.302 0.008 0.659 0.008 1.016 0 17.918-7.313 34.127-19.116 45.807l-0.006 0.006c-11.532 11.545-27.471 18.687-45.077 18.687-0.664 0-1.325-0.010-1.984-0.030l0.096 0.002h-0.592c-59.187-0.207-107.097-48.196-107.174-107.394v-0.007z" />
<glyph unicode="&#xe918;" glyph-name="hat-santa-thin" d="M889.484 183.7c74.291 0 134.516-60.225 134.516-134.516s-60.225-134.516-134.516-134.516c-74.291 0-134.516 60.225-134.516 134.516v0c0.079 74.259 60.257 134.437 134.509 134.516h0.008zM889.484-38.788c48.585 0 87.971 39.386 87.971 87.971s-39.386 87.971-87.971 87.971c-48.585 0-87.971-39.386-87.971-87.971v0c0.053-48.564 39.407-87.918 87.966-87.971h0.005zM979.782 115.743h-46.545v444.044c-0.212 183.458-148.876 332.123-332.314 332.335h-0.020c-0.001 0-0.002 0-0.003 0-281.742 0-510.138-228.397-510.138-510.138 0-0.655 0.001-1.309 0.004-1.963v0.101-110.313h664.669v289.978h46.545v-336.524h-757.76v156.858c-0.002 0.553-0.003 1.207-0.003 1.862 0 307.448 249.236 556.684 556.684 556.684 0.001 0 0.002 0 0.003 0v0c209.25 0 378.88-169.63 378.88-378.88v0zM112.175 274.463h23.273v-2.327h666.531v-268.567h-689.804c-61.92 0.079-112.095 50.254-112.175 112.167v46.553c0.079 61.92 50.254 112.095 112.167 112.175h0.008zM755.433 225.591h-660.62c-28.024-7.92-48.223-33.246-48.268-63.297v-46.55c0.053-36.225 29.404-65.576 65.624-65.629h643.263z" />
<glyph unicode="&#xe919;" glyph-name="lollipop-thin" horiz-adv-x="655" d="M327.68 938.667c180.973 0 327.68-146.707 327.68-327.68s-146.707-327.68-327.68-327.68c-180.973 0-327.68 146.707-327.68 327.68v0c0.207 180.89 146.791 327.473 327.66 327.68h0.020zM327.68 328.818c155.838 0 282.169 126.331 282.169 282.169s-126.331 282.169-282.169 282.169c-155.838 0-282.169-126.331-282.169-282.169v0c0.181-155.765 126.404-281.988 282.151-282.169h0.018zM319.26 283.307c-94.709 2.69-170.46 80.107-170.46 175.218 0 96.807 78.477 175.284 175.284 175.284 1.696 0 3.387-0.024 5.072-0.072l-0.248 0.006-2.503-45.511c-2.177 0.13-4.723 0.205-7.286 0.205-71.635 0-129.707-58.072-129.707-129.707s58.072-129.707 129.707-129.707c2.563 0 5.109 0.074 7.635 0.221l-0.349-0.016 2.503-45.511q-4.824-0.41-9.648-0.41zM327.68 588.231v45.511c71.635 0 129.707 58.072 129.707 129.707s-58.072 129.707-129.707 129.707v0 45.511c96.77 0 175.218-78.448 175.218-175.218s-78.448-175.218-175.218-175.218v0zM350.436 610.987h-45.511c0 71.635-58.072 129.707-129.707 129.707s-129.707-58.072-129.707-129.707h-45.511c0 96.77 78.448 175.218 175.218 175.218s175.218-78.448 175.218-175.218v0zM480.142 435.769c-96.728 0.104-175.114 78.489-175.218 175.208v0.010h45.511c0-71.635 58.072-129.707 129.707-129.707s129.707 58.072 129.707 129.707v0h45.511c-0.104-96.728-78.489-175.114-175.208-175.218h-0.010zM350.436-85.333h-45.511v391.851h45.511z" />
<glyph unicode="&#xe91a;" glyph-name="magic-wand-sparkles-thin" d="M32.432-85.333l-32.387 32.387 744.798 744.89 32.387-32.387zM739.988 763.221h-45.808v175.446h45.808zM739.988 325.293h-45.808v174.988h45.808zM585.614 608.847h-174.988v45.808h174.988zM1024 608.847h-175.446v45.808h175.446zM608.335 708.526l-124.141 124.141 32.432 32.432 124.141-124.141zM917.999 398.861l-124.141 124.141 32.432 32.432 124.141-124.141zM826.291 708.526l-32.387 32.387 124.141 124.141 32.387-32.387z" />
<glyph unicode="&#xe91b;" glyph-name="ornament-lines-thin" horiz-adv-x="742" d="M370.916 656.498c204.851 0 370.916-166.065 370.916-370.916s-166.065-370.916-370.916-370.916c-204.851 0-370.916 166.065-370.916 370.916v0c0.233 204.758 166.159 370.683 370.894 370.916h0.022zM370.916-39.822c179.716 0 325.404 145.689 325.404 325.404s-145.689 325.404-325.404 325.404c-179.716 0-325.404-145.689-325.404-325.404v0c0.207-179.633 145.772-325.197 325.385-325.404h0.020zM567.979 586.866h-45.511v198.428h-303.104v-198.428h-45.511v243.94h394.126zM393.671 808.050h-45.511v130.617h45.511zM138.263 300.829l-109.227 82.603 27.307 36.409 81.92-62.032 116.463 86.881 115.553-86.926 116.008 86.881 116.736-86.926 82.33 62.123 27.307-36.409-109.636-82.603-116.463 87.154-116.099-86.972-115.644 86.972zM370.415 83.058l-115.644 86.926-116.508-86.926-115.507 86.926 27.307 36.409 88.337-66.264 116.508 86.926 115.553-86.926 116.008 86.881 116.508-86.926 88.792 66.31 27.307-36.409-116.008-86.471-116.508 86.926z" />
<glyph unicode="&#xe91c;" glyph-name="ornament-star-thin" horiz-adv-x="742" d="M370.916 656.498c204.851 0 370.916-166.065 370.916-370.916s-166.065-370.916-370.916-370.916c-204.851 0-370.916 166.065-370.916 370.916v0c0.233 204.758 166.159 370.683 370.894 370.916h0.022zM370.916-39.822c179.716 0 325.404 145.689 325.404 325.404s-145.689 325.404-325.404 325.404c-179.716 0-325.404-145.689-325.404-325.404v0c0.207-179.633 145.772-325.197 325.385-325.404h0.020zM567.979 586.866h-45.511v198.428h-303.104v-198.428h-45.511v243.94h394.126zM393.671 808.050h-45.511v130.617h45.511zM393.671 68.039h-45.511v435.086h45.511zM588.459 262.827h-435.086v45.511h435.086zM283.989 393.444h-87.381v45.511h87.381zM545.223 393.444h-87.381v45.511h87.381zM283.989 132.21h-87.381v45.511h87.381zM545.223 132.21h-87.381v45.511h87.381z" />
<glyph unicode="&#xe91d;" glyph-name="ornament-thin" horiz-adv-x="742" d="M370.916 656.498c204.851 0 370.916-166.065 370.916-370.916s-166.065-370.916-370.916-370.916c-204.851 0-370.916 166.065-370.916 370.916v0c0.233 204.758 166.159 370.683 370.894 370.916h0.022zM370.916-39.822c179.716 0 325.404 145.689 325.404 325.404s-145.689 325.404-325.404 325.404c-179.716 0-325.404-145.689-325.404-325.404v0c0.207-179.633 145.772-325.197 325.385-325.404h0.020zM567.979 586.866h-45.511v198.428h-303.104v-198.428h-45.511v243.94h394.126zM393.671 808.050h-45.511v130.617h45.511zM370.46 88.975c-41.499 0.725-78.358 19.979-102.754 49.82l-0.192 0.242c-16.508 21.895-42.2 36.106-71.242 36.862l-0.12 0.002c-29.807-0.905-56.020-15.535-72.642-37.756l-0.176-0.246c-13.57-15.081-29.461-27.737-47.177-37.488l-0.928-0.468-20.025 40.96c13.866 8.031 25.711 17.746 35.781 29.073l0.127 0.145c25.052 30.778 62.665 50.5 104.908 51.289l0.131 0.002c41.687-0.627 78.749-19.898 103.302-49.823l0.19-0.239c15.84-22.419 41.65-36.881 70.838-36.881s54.998 14.461 70.656 36.61l0.182 0.271c24.274 30.726 61.533 50.267 103.356 50.267s79.082-19.541 103.145-49.99l0.211-0.276c10.745-12.168 23.4-22.341 37.553-30.129l0.722-0.364-19.115-41.324c-20.001 10.414-37.007 23.672-51.239 39.479l-0.143 0.162c-15.96 22.455-41.88 36.929-71.179 36.929s-55.219-14.473-70.998-36.661l-0.181-0.268c-24.576-30.146-61.456-49.452-102.867-50.197l-0.124-0.002zM370.46 305.607c-41.785 0.75-78.933 19.978-103.719 49.836l-0.183 0.227c-16.328 21.642-41.611 35.779-70.236 36.859l-0.169 0.005c-28.892-0.79-54.355-14.805-70.651-36.185l-0.164-0.224c-24.014-28.826-59.239-47.605-98.888-49.594l-0.326-0.013-1.229 45.511c27.874 1.794 52.206 15.574 68.105 36.191l0.161 0.217c24.7 29.883 61.554 48.963 102.883 49.606l0.109 0.001c41.212-0.911 77.792-19.988 102.169-49.513l0.185-0.231c16.723-21.985 42.581-36.278 71.81-37.179l0.143-0.003c28.953 0.821 54.44 14.966 70.647 36.494l0.169 0.234c24.385 30.739 61.737 50.277 103.652 50.277s79.266-19.539 103.443-50.005l0.209-0.272c15.867-21.065 40.309-34.939 68.041-36.399l0.225-0.009-0.956-45.511c-40.233 1.717-75.697 20.763-99.338 49.815l-0.195 0.248c-16.065 22.455-42.058 36.916-71.43 36.916s-55.365-14.461-71.25-36.652l-0.18-0.264c-24.556-30.226-61.458-49.6-102.908-50.379l-0.129-0.002z" />
<glyph unicode="&#xe91e;" glyph-name="present-thin" horiz-adv-x="1003" d="M43.313 547.030h915.947v-611.391h-915.947zM913.667 501.438h-824.762v-520.207h824.762zM0 720.736h1003.028v-219.754h-1003.028zM957.435 675.144h-911.843v-128.57h911.843zM392.457 938.667v0c72.778-0.026 131.775-58.991 131.853-131.754v-131.768h-131.761c-72.77 0-131.761 58.992-131.761 131.761s58.992 131.761 131.761 131.761v0zM478.718 720.736v86.169c-0.13 47.366-38.557 85.713-85.941 85.713-47.464 0-85.941-38.477-85.941-85.941 0-47.416 38.399-85.863 85.797-85.941h0.007zM610.023 675.144h-131.761v131.761c0 72.77 58.992 131.761 131.761 131.761s131.761-58.992 131.761-131.761c0-72.77-58.992-131.761-131.761-131.761v0zM523.854 720.736h86.169c47.59 0 86.169 38.579 86.169 86.169s-38.579 86.169-86.169 86.169c-47.59 0-86.169-38.579-86.169-86.169v0zM524.31-85.333h-45.592v783.273h45.592zM936.919 240.195h-827.042v45.592h827.042z" />
<glyph unicode="&#xe91f;" glyph-name="ribbon-bow-thin" horiz-adv-x="1041" d="M520.397 394.615c-0.046 0-0.1 0-0.154 0-24.631 0-48.258 4.299-70.172 12.187l1.444-0.454c-79.607 29.127-135.397 104.223-135.397 192.349 0 112.847 91.48 204.327 204.327 204.327 112.694 0 204.079-91.233 204.326-203.869v-0.308c-0.851-87.807-56.187-162.475-133.784-191.884l-1.425-0.474h-0.284c-20.507-7.495-44.182-11.844-68.868-11.875h-0.013zM520.397 756.055c-86.755-0.091-157.048-70.44-157.048-157.207 0-67.744 42.85-125.481 102.925-147.584l1.090-0.351c15.783-5.843 34.013-9.224 53.033-9.224 86.745 0 157.065 70.321 157.065 157.065 0 0.083 0 0.166 0 0.248v-0.013c-0.323 48.694-22.615 92.116-57.45 120.896l-0.267 0.214c-26.758 22.279-61.458 35.841-99.324 35.955h-0.025zM886.189 259.312c-0.029 0-0.064 0-0.098 0-39.215 0-75.025 14.578-102.306 38.609l0.17-0.147-164.54 141.927 30.893 35.813 164.824-141.927c18.822-16.632 43.707-26.787 70.963-26.787 59.31 0 107.391 48.081 107.391 107.391 0 0.070 0 0.14 0 0.21v-0.011 369.34c-1.454 58.42-49.14 105.227-107.766 105.262h-0.003c-27.187-0.090-52.023-10.086-71.103-26.564l0.14 0.118-164.635-141.927-30.893 35.813 164.635 141.927c27.082 23.371 62.57 37.666 101.392 37.847h0.038c0.247 0.001 0.539 0.002 0.831 0.002 84.425 0 153.054-67.627 154.671-151.665l0.002-0.151v-369.908c0.001-0.169 0.001-0.368 0.001-0.568 0-85.386-69.219-154.605-154.605-154.605 0 0-0.001 0-0.001 0v0zM154.605 261.204c0 0-0.001 0-0.001 0-85.386 0-154.605 69.219-154.605 154.605 0 0.233 0.001 0.466 0.002 0.698v-0.036 367.495c0.251 85.483 69.607 154.684 155.125 154.684 38.936 0 74.522-14.345 101.761-38.039l-0.188 0.16 164.824-144.434-31.177-35.576-164.682 144.292c-18.857 16.24-43.548 26.173-70.557 26.304h-0.028c-0.112 0-0.245 0.001-0.378 0.001-59.31 0-107.391-48.081-107.391-107.391 0 0 0-0.001 0-0.001v0-367.59c-0.001-0.158-0.001-0.345-0.001-0.531 0-59.31 48.081-107.391 107.391-107.391 27.257 0 52.143 10.155 71.080 26.888l-0.115-0.1 164.635 141.927 30.893-35.813-164.54-141.927c-27.072-23.742-62.777-38.226-101.866-38.226-0.063 0-0.126 0-0.189 0h0.010zM301.215-85.333l-109.473 163.925h-162.459l117.373 216.154 41.584-22.566-79.432-146.279h108.195l71.247-106.681 148.834 417.406 44.565-15.896zM739.579-85.333l-180.436 506.205 44.565 15.896 148.834-417.406 71.247 106.681h108.479l-80.141 146.184 41.49 22.756 118.556-216.201h-163.121zM339.678 575.335h-180.72v47.309h180.72zM881.837 575.335h-180.72v47.309h180.72z" />
<glyph unicode="&#xe920;" glyph-name="santa-bag-thin" d="M460.521 671.962h107.706l393.635-396.009c38.418-38.53 62.172-91.698 62.172-150.415 0-58.298-23.417-111.128-61.358-149.594l0.024 0.024c-37.682-37.881-89.845-61.324-147.484-61.324-1.103 0-2.204 0.009-3.303 0.026l0.166-0.002h-600.157c-0.883-0.013-1.925-0.021-2.969-0.021-57.685 0-109.891 23.46-147.597 61.359l-0.009 0.009c-37.917 38.443-61.334 91.272-61.334 149.57 0 58.74 23.773 111.927 62.223 150.466l-0.004-0.004zM548.957 625.416h-69.26l-384.652-382.371c-29.957-29.742-48.5-70.945-48.5-116.479 0-0.058 0-0.115 0-0.172v0.009-0.233c-0.005-0.495-0.008-1.080-0.008-1.666 0-45.109 18.23-85.96 47.724-115.588l-0.006 0.006c29.34-29.482 69.95-47.727 114.82-47.727 0.854 0 1.706 0.007 2.556 0.020l-0.128-0.002h600.995c0.722-0.012 1.574-0.018 2.428-0.018 44.871 0 85.48 18.245 114.814 47.721l0.006 0.006c29.488 29.622 47.718 70.473 47.718 115.582 0 0.586-0.003 1.171-0.009 1.755l0.001-0.089v0.233c0 0.043 0 0.094 0 0.145 0 45.563-18.562 86.791-48.536 116.534l-0.010 0.010zM355.607 938.667h313.251v-156.393c0-0.022 0-0.047 0-0.073 0-43.311-17.497-82.536-45.807-110.991l0.007 0.007c-28.145-28.292-67.106-45.801-110.156-45.801-0.153 0-0.306 0-0.459 0.001h-0.441c0 0-0.001 0-0.001 0-86.373 0-156.393 70.019-156.393 156.393 0 0.196 0 0.393 0.001 0.589v-0.030zM622.313 892.122h-220.16v-109.847c-0.001-0.138-0.001-0.302-0.001-0.465 0-60.667 49.18-109.847 109.847-109.847 0 0 0.001 0 0.001 0h0.465c0.092 0 0.201 0 0.31 0 30.237 0 57.603 12.295 77.37 32.159l0.004 0.004c19.877 19.99 32.163 47.546 32.163 77.971 0 0.030 0 0.060 0 0.090v-0.005zM645.12 625.416h-310.924v46.545h310.924zM659.084 630.071l-27.927 37.236 177.804 133.585 27.927-37.236zM812.684 538.981l-177.99 88.902 20.852 41.612 177.804-88.902zM535.273 26.842h-46.545v444.044h46.545zM734.022 225.591h-444.044v46.545h444.044zM423.098 359.176h-88.902v46.545h88.902zM423.098 92.471h-88.902v46.545h88.902zM689.804 359.176h-88.902v46.545h88.902zM689.804 92.471h-88.902v46.545h88.902z" />
<glyph unicode="&#xe921;" glyph-name="santa-claus-thin" d="M296.541 317.052c2.839 0 5.725 0 8.564-0.233h264.937c2.839 0 5.725 0.233 8.564 0.233 86.63 0 156.858-70.228 156.858-156.858s-70.228-156.858-156.858-156.858v0c-25.399-53.343-78.871-89.555-140.8-89.555s-115.401 36.212-140.397 88.616l-0.403 0.939c-86.63 0-156.858 70.228-156.858 156.858s70.228 156.858 156.858 156.858v0zM570.694 270.274h-267.636c-2.188 0-4.375 0-6.516 0-60.924 0-110.313-49.389-110.313-110.313s49.389-110.313 110.313-110.313v0c2.188 0 4.375 0 6.516 0h25.972l5.353-15.825c15.005-43.394 55.512-74 103.168-74s88.163 30.607 102.937 73.235l0.231 0.765 5.353 15.825h25.972c2.188 0 4.375 0 6.516 0 59.766 1.547 107.625 50.364 107.625 110.359 0 60.969-49.425 110.394-110.394 110.394-0.974 0-1.945-0.013-2.912-0.038l0.143 0.003zM682.868 259.103h-46.545v188.975h-397.498v-188.975h-46.545v235.52h490.589zM147.596 671.962h579.491v-224.349h-579.491zM680.541 625.416h-486.4v-131.258h486.4zM237.894 641.474l-44.265 14.383 18.618 57.484c45.567 132.043 168.784 225.197 313.757 225.197 122.306 0 229.127-66.301 286.482-164.922l0.849-1.581 46.545-79.453-40.169-23.273-46.545 79.593c-49.996 86.234-141.865 143.306-247.064 143.306-124.522 0-230.368-79.964-268.988-191.344l-0.603-1.999zM793.181 716.645c61.952 0 112.175-50.222 112.175-112.175s-50.222-112.175-112.175-112.175c-61.952 0-112.175 50.222-112.175 112.175v0c0.079 61.92 50.254 112.095 112.167 112.175h0.008zM793.181 538.842c36.246 0 65.629 29.383 65.629 65.629s-29.383 65.629-65.629 65.629c-36.246 0-65.629-29.383-65.629-65.629v0c0.053-36.225 29.404-65.576 65.624-65.629h0.005zM638.65 648.689h-46.545v133.585h46.545z" />
<glyph unicode="&#xe922;" glyph-name="santa-hat-thin" d="M112.175 227.918h666.531c61.92-0.079 112.095-50.254 112.175-112.167v-88.91c-0.079-61.92-50.254-112.095-112.167-112.175h-666.539c-61.92 0.079-112.095 50.254-112.175 112.167v88.91c0.079 61.92 50.254 112.095 112.167 112.175h0.008zM778.705-38.788c36.225 0.053 65.576 29.404 65.629 65.624v88.907c-0.053 36.225-29.404 65.576-65.624 65.629h-666.536c-36.225-0.053-65.576-29.404-65.629-65.624v-88.907c0.053-36.225 29.404-65.576 65.624-65.629h0.005zM911.825 361.038c61.952 0 112.175-50.222 112.175-112.175s-50.222-112.175-112.175-112.175c-61.952 0-112.175 50.222-112.175 112.175v0c0.079 61.92 50.254 112.095 112.167 112.175h0.008zM911.825 183.234c36.246 0 65.629 29.383 65.629 65.629s-29.383 65.629-65.629 65.629c-36.246 0-65.629-29.383-65.629-65.629v0c0.053-36.225 29.404-65.576 65.624-65.629h0.005zM90.391 192.59l-45.801 8.332 72.145 396.567c37.35 195.657 207.084 341.541 410.891 341.541 208.786 0 381.813-153.099 412.942-353.156l0.301-2.348 38.633-254.557-46.033-6.982-38.633 254.604c-28.222 179.596-181.865 315.337-367.212 315.337-180.898 0-331.595-129.303-364.711-300.527l-0.376-2.337zM755.805 200.503l-88.902 488.727 45.801 8.285 88.902-488.727z" />
<glyph unicode="&#xe923;" glyph-name="santa-sleigh-thin" d="M62.33 488.997h235.075c58.944-0.123 106.744-47.658 107.297-106.488v-0.053c0.965-33.741 28.468-60.745 62.315-60.906h134.917c0.034 0 0.073 0 0.113 0 17.341 0 33.042 7.027 44.409 18.388l36.107 36.062c19.608 17.623 45.676 28.402 74.262 28.405h200.794v-22.261c-1.361-152.15-125.018-274.966-277.36-274.966-0.004 0-0.007 0-0.011 0h-297.806c-176.472 0.252-319.505 143.065-320.111 319.43v0.058zM466.989 277.074c-0.007 0-0.015 0-0.023 0-58.23 0-105.581 46.579-106.827 104.51l-0.002 0.116v0.445c-0.327 34.448-28.292 62.256-62.769 62.33h-190.516v-17.809c0.506-151.911 123.644-274.892 275.565-275.144h297.429c119.811 0.405 218.355 90.924 231.416 207.3l0.097 1.062h-154.758c-16.946 0-32.418-6.312-44.193-16.713l0.072 0.062-34.727-34.727c-19.386-19.357-46.128-31.352-75.672-31.432h-135.094zM127.332 446.702h-127.332v44.522h127.332zM1019.548 362.11h-127.332v44.522h127.332zM828.060 380.765l-44.522 2.805c0.189 2.842 0.297 6.161 0.297 9.505s-0.108 6.663-0.32 9.954l0.023-0.449v1.291c-0.204 67.005-31.491 126.661-80.193 165.331l-0.436 0.334-0.534 0.445-156.227 131.829h-68.653l-161.792-128.712c-33.71-27.447-58.57-64.587-70.394-107.153l-0.351-1.48-42.963 11.709c14.78 53.376 44.944 98.374 85.369 131.237l0.469 0.369 174.080 138.552h100.486l168.47-142.158c59.082-47.039 96.744-118.804 97.191-199.383v-0.075c0.232-3.58 0.364-7.763 0.364-11.976s-0.132-8.396-0.393-12.544l0.029 0.567zM402.477 916.406h214.595v-107.297c0-59.259-48.039-107.297-107.297-107.297s-107.297 48.039-107.297 107.297v0zM572.55 871.884h-125.551v-62.776c0-34.67 28.106-62.776 62.776-62.776s62.776 28.106 62.776 62.776v0zM807.179-63.072h-764.883v44.522h764.883c81.634 0 147.812 66.178 147.812 147.812v0h44.522c0-106.223-86.111-192.334-192.334-192.334v0zM276.925-40.811h-44.522v170.073h44.522zM787.144-40.811h-44.522v170.073h44.522z" />
<glyph unicode="&#xe924;" glyph-name="snowglobe-thin" d="M704.233 136.503h-376.18l-4.98 2.56c-137.706 71.728-230.121 213.392-230.121 376.64 0 233.773 189.511 423.284 423.284 423.284s423.284-189.511 423.284-423.284c0-163.248-92.414-304.911-227.781-375.529l-2.34-1.111zM339.409 183.048h353.606c119.681 64.659 199.62 189.192 199.62 332.395 0 186.99-136.297 342.146-314.964 371.541l-2.183 0.297c-17.812 2.962-38.338 4.655-59.258 4.655-0.129 0-0.258 0-0.386 0h0.020c-207.715-0.364-375.96-168.833-375.96-376.599 0-143.111 79.825-267.577 197.379-331.303l1.987-0.986zM900.189-85.519h-768.093l54.039 268.567h659.968zM188.975-38.974h654.336l-35.328 175.476h-583.727zM539.415 159.775h-46.545v177.804h46.545zM684.544 314.306h-336.803l168.401 393.309zM418.304 360.852h195.491l-97.652 228.538zM383.023 625.23h-88.902v46.545h88.902zM338.339 447.426h-88.902v46.545h88.902zM827.066 447.426h-88.902v46.545h88.902zM693.946 714.132h-88.902v46.545h88.902z" />
<glyph unicode="&#xe925;" glyph-name="star-decoration-thin" d="M359.098 715.482l156.393-104.448 156.393 104.448v-242.269h242.735l-104.448-156.393 104.355-156.858h-242.641v-242.269l-156.393 104.448-156.393-104.448v242.269h-242.641l104.355 156.858-104.448 156.393h242.735zM515.491 555.086l-109.847 73.356v-201.775h-202.007l73.356-109.847-73.681-110.313h202.333v-201.775l109.847 73.356 109.847-73.356v201.775h202.333l-73.449 110.313 73.123 109.847h-202.007v201.775zM648.611 293.547h-266.24v46.545h266.24zM538.764 183.234h-46.545v266.705h46.545zM538.764 583.060h-46.545v355.607h46.545z" />
<glyph unicode="&#xe926;" glyph-name="star-decor-thin" d="M507.578 915.394l178.176-288.303 329.169-80.71-219.276-258.327 25.367-338.013-313.437 128.419-313.67-128.419 25.367 338.013-219.043 258.327 329.169 80.71zM931.142 519.106l-274.618 67.305-148.945 240.454-148.573-240.454-274.991-67.305 182.877-215.505-21.178-281.972 261.865 107.101 261.632-107.055-21.178 281.972zM530.851 102.664h-46.545v0.931h46.545zM530.851 381.937h-46.545v489.193h46.545zM776.378-27.663l-287.418 395.916 37.236 27.369 287.651-396.102zM238.545-27.663l-37.236 27.183 287.651 396.102 37.655-27.369zM514.793 359.781l-14.383 44.265 465.455 151.273 14.383-44.265zM500.364 359.781l-465.455 151.273 14.429 44.311 465.455-151.273z" />
<glyph unicode="&#xe927;" glyph-name="star-ornament-thin" horiz-adv-x="742" d="M370.916 656.498c204.851 0 370.916-166.065 370.916-370.916s-166.065-370.916-370.916-370.916c-204.851 0-370.916 166.065-370.916 370.916v0c0.233 204.758 166.159 370.683 370.894 370.916h0.022zM370.916-39.822c179.716 0 325.404 145.689 325.404 325.404s-145.689 325.404-325.404 325.404c-179.716 0-325.404-145.689-325.404-325.404v0c0.207-179.633 145.772-325.197 325.385-325.404h0.020zM567.979 586.866h-45.511v198.428h-303.104v-198.428h-45.511v243.94h394.126zM393.671 808.050h-45.511v130.617h45.511zM370.916 503.171l71.771-116.235 132.255-31.858-87.836-104.357 9.694-136.215-125.884 51.792-125.884-51.837 9.694 136.215-87.836 104.357 132.255 31.858zM492.749 328.044l-78.916 18.978-42.917 69.586-42.917-69.586-78.916-19.069 52.338-62.214-5.78-81.328 75.275 31.13 75.275-30.993-5.78 81.328z" />
<glyph unicode="&#xe928;" glyph-name="star-topper-thin" d="M516.375 938.667l132.515-213.737 244.131-59.718-162.537-192.279 18.618-250.973-232.727 95.372-232.727-95.418 18.851 251.020-162.909 192.233 244.271 59.764zM809.007 637.844l-189.673 46.545-102.959 165.935-103.005-166.074-189.58-46.545 126.604-149.411-14.662-194.7 180.643 74.007 180.689-74.054-14.243 194.932zM683.939-85.752h-335.127l73.402 403.084 45.801-8.332-63.348-348.207h223.418l-63.395 348.16 45.801 8.332z" />
<glyph unicode="&#xe929;" glyph-name="stockings-thin" d="M114.036 760.863h444.509c37.253-0.053 67.438-30.238 67.491-67.486v-89.372c-0.053-37.253-30.238-67.438-67.486-67.491h-444.514c-37.253 0.053-67.438 30.238-67.491 67.486v89.372c0.053 37.253 30.238 67.438 67.486 67.491h0.005zM558.545 583.060c11.557 0.026 20.919 9.388 20.945 20.943v89.37c-0.026 11.557-9.388 20.919-20.943 20.945h-444.512c-11.557-0.026-20.919-9.388-20.945-20.943v-89.37c0.026-11.557 9.388-20.919 20.943-20.945h0.003zM458.985-83.192c-0.123 0-0.268 0-0.414 0-56.987 0-108.692 22.612-146.633 59.354l0.056-0.054-117.481 115.433c-36.477 36.459-59.046 86.829-59.066 142.471v349.048h402.153v-235.52l71.401-71.401c28.106-27.732 48.375-63.341 57.225-103.246l0.258-1.388v-0.605c2.635-13.239 4.143-28.46 4.143-44.033 0-0.131 0-0.261 0-0.392v0.020c-1.315-115.947-95.604-209.435-211.733-209.455h-0.002zM344.343 9.573c29.663-28.591 70.077-46.204 114.606-46.204 90.598 0 164.165 72.913 165.225 163.259l0.001 0.1c0 0.061 0 0.133 0 0.205 0 12.355-1.186 24.432-3.45 36.125l0.192-1.189c-7.135 32.039-22.899 59.658-44.711 81.156l-85.151 85.104v208.384h-309.062v-302.545c0.040-42.648 17.339-81.247 45.289-109.196v0zM772.794 89.399c-0.115 0-0.251 0-0.388 0-56.271 0-107.336 22.289-144.848 58.52l0.061-0.058-5.12 4.934-1.489 6.935c-7.109 32.153-22.913 59.874-44.803 81.435l-0.346 0.346-84.806 86.761v254.79h69.818c12.853 0 23.273 10.42 23.273 23.273v0 86.342c-0.877 12.133-10.936 21.644-23.216 21.644-0.020 0-0.040 0-0.060 0h0.003v46.545h289.978v-235.66l71.54-71.54c36.945-37.934 59.729-89.816 59.729-147.020 0-0.775-0.004-1.55-0.013-2.323l0.001 0.118c0.047-1.65 0.073-3.591 0.073-5.539 0-115.679-93.776-209.455-209.455-209.455-0.026 0-0.052 0-0.078 0h0.004zM664.762 176.904c28.603-25.422 66.492-40.951 108.008-40.951 89.972 0 162.909 72.937 162.909 162.909 0 1.666-0.025 3.327-0.075 4.981l0.006-0.242v1.024c0.007 0.566 0.011 1.234 0.011 1.903 0 44.545-17.762 84.942-46.589 114.494l0.033-0.034-84.759 84.806v208.524h-177.524c2.122-5.841 3.508-12.593 3.857-19.618l0.006-0.164v-88.436c-0.132-38.443-31.314-69.559-69.769-69.585h-23.275v-189.254l71.447-73.123c26.327-25.997 45.772-58.904 55.393-95.78l0.322-1.453zM425.425 938.667h444.509c37.253-0.053 67.438-30.238 67.491-67.486v-89.372c-0.053-37.253-30.238-67.438-67.486-67.491h-444.514c-37.253 0.053-67.438 30.238-67.491 67.486v89.372c0.053 37.253 30.238 67.438 67.486 67.491h0.005zM869.935 760.863c11.557 0.026 20.919 9.388 20.945 20.943v89.37c-0.026 11.557-9.388 20.919-20.943 20.945h-444.512c-11.557-0.026-20.919-9.388-20.945-20.943v-89.37c0.026-11.557 9.388-20.919 20.943-20.945h0.003z" />
<glyph unicode="&#xe92a;" glyph-name="stocking-thin" d="M645.12-85.333v0c-0.072 0-0.158 0-0.244 0-58.262 0-111.021 23.563-149.266 61.679l-177.891 177.844c-52.473 52.653-84.934 125.28-84.992 205.487v401.186h402.153v-279.273c0.182-29.983 12.483-57.059 32.246-76.604l128.289-128.289c37.772-38.382 61.093-91.082 61.093-149.229 0-117.031-94.47-211.997-211.312-212.801h-0.076zM279.273 714.318v-354.676c0.049-67.339 27.301-128.303 71.361-172.504l177.797-177.797c29.631-29.884 70.702-48.385 116.094-48.385 90.281 0 163.468 73.187 163.468 163.468 0 0.614-0.003 1.228-0.010 1.84l0.001-0.093v0.838c0.023 1.020 0.036 2.221 0.036 3.426 0 44.216-17.511 84.343-45.975 113.824l0.046-0.048-127.86 127.86c-28.185 27.931-45.696 66.593-45.894 109.344v232.765zM186.182 938.667h491.055v-224.349h-491.055zM630.691 892.122h-397.964v-131.258h397.964zM312.785 486.524l-73.076 54.644 27.927 37.236 45.196-33.792 59.066 44.172 59.578-44.218 59.159 44.265 59.159-44.265 45.661 33.885 27.927-37.236-73.495-54.551-59.299 44.079-59.066-44.172-59.578 44.218zM312.785 308.721l-73.076 54.644 27.927 37.236 45.196-33.792 59.066 44.172 59.578-44.218 59.159 44.265 59.159-44.265 45.661 33.885 27.927-37.236-73.495-54.551-59.066 44.172-59.066-44.172-59.578 44.218z" />
<glyph unicode="&#xe92b;" glyph-name="string-lights-thin" d="M519.213 542.869c-0.155 0-0.337 0-0.52 0-185.737 0-364.071 31.697-529.887 89.978l11.194-3.428 14.425 42.118c150.514-53.050 324.071-83.701 504.787-83.701s354.274 30.65 515.758 87.036l-10.97-3.335 14.425-42.118c-154.622-54.853-332.956-86.55-518.693-86.55-0.182 0-0.365 0-0.547 0h0.027zM519.213 416.739c59.505 0 107.743-48.238 107.743-107.743s-48.238-107.743-107.743-107.743c-59.505 0-107.743 48.238-107.743 107.743v0c0.076 59.474 48.269 107.667 107.735 107.743h0.007zM519.213 245.775c34.916 0 63.221 28.305 63.221 63.221s-28.305 63.221-63.221 63.221c-34.916 0-63.221-28.305-63.221-63.221v0c0.051-34.895 28.325-63.17 63.216-63.221h0.005zM541.473 394.478h-44.522v170.518h44.522zM860.694 459.48c59.505 0 107.743-48.238 107.743-107.743s-48.238-107.743-107.743-107.743c-59.505 0-107.743 48.238-107.743 107.743v0c0.076 59.474 48.269 107.667 107.735 107.743h0.007zM860.694 288.516c34.916 0 63.221 28.305 63.221 63.221s-28.305 63.221-63.221 63.221c-34.916 0-63.221-28.305-63.221-63.221v0c0.051-34.895 28.325-63.17 63.216-63.221h0.005zM882.955 437.219h-44.522v170.518h44.522zM177.731 459.48c59.505 0 107.743-48.238 107.743-107.743s-48.238-107.743-107.743-107.743c-59.505 0-107.743 48.238-107.743 107.743v0c0.076 59.474 48.269 107.667 107.735 107.743h0.007zM177.731 288.516c34.916 0 63.221 28.305 63.221 63.221s-28.305 63.221-63.221 63.221c-34.916 0-63.221-28.305-63.221-63.221v0c0.051-34.895 28.325-63.17 63.216-63.221h0.005zM199.992 437.219h-44.522v170.518h44.522z" />
<glyph unicode="&#xe92c;" glyph-name="tree-calendar-thin" horiz-adv-x="1003" d="M0 874.353h1003.474v-263.184h-1003.474zM957.862 828.741h-912.249v-171.959h912.249zM0 656.782h1003.474v-742.115h-1003.474zM957.862 611.169h-912.249v-650.89h912.249zM263.184 764.427h-45.612v174.24h45.612zM785.903 764.427h-45.612v174.24h45.612zM524.543 764.427h-45.612v174.24h45.612zM524.543 67.925h-45.612v130.452h45.612zM632.919 182.868h-262.363l131.181 185.46zM458.679 228.481h86.116l-43.058 60.847zM631.505 262.69h-259.535l129.767 194.309zM457.265 308.303h88.944l-44.472 66.594zM600.579 393.142h-197.684l98.842 98.842z" />
<glyph unicode="&#xe92d;" glyph-name="tree-light-thin" horiz-adv-x="568" d="M283.989 656.498c4.699 0.267 10.196 0.42 15.729 0.42 69.832 0 133.993-24.279 184.503-64.855l-0.575 0.447c52.46-50.448 85.050-121.23 85.050-199.624 0-7.010-0.261-13.96-0.773-20.839l0.055 0.918c-1.644-110.638-30.788-214.116-80.875-304.367l1.686 3.311c-56.707-101.399-129.388-157.241-204.8-157.241s-148.093 55.842-204.8 157.241c-48.401 86.94-77.545 190.418-79.184 300.562l-0.006 0.494c-0.468 6.033-0.735 13.065-0.735 20.158 0 78.408 32.596 149.203 84.977 199.574l0.090 0.086c49.911 39.972 113.98 64.148 183.696 64.148 5.615 0 11.193-0.157 16.73-0.466l-0.769 0.034zM283.989-39.822c57.344 0 117.419 48.788 164.841 133.894 44.927 80.52 72.019 176.37 73.631 278.407l0.006 0.485c0 196.745-129.707 238.023-238.478 238.023s-238.478-41.279-238.478-238.023c1.618-102.523 28.71-198.372 75.198-281.951l-1.561 3.058c47.423-85.106 107.497-133.894 164.841-133.894zM481.052 586.866h-45.511v198.428h-303.104v-198.428h-45.511v243.94h394.126zM306.745 808.050h-45.511v130.617h45.511zM471.859 74.821l-417.792 78.279 8.374 44.692 417.792-78.279zM529.203 238.615l-510.18 95.118 8.374 44.783 510.089-95.209zM536.439 410.693l-482.873 91.022 8.465 44.692 482.873-91.022z" />
<glyph unicode="&#xe92e;" glyph-name="tree-snowglobe-thin" d="M93.091 139.016h846.196v-224.349h-846.196zM892.742 92.471h-753.105v-131.258h753.105zM516.189 938.667c209.153-0.238 378.642-169.726 378.88-378.857v-467.805h-757.76v467.782c0.238 209.153 169.726 378.642 378.857 378.88h0.023zM848.524 138.551v421.236c0 183.543-148.791 332.335-332.335 332.335s-332.335-148.791-332.335-332.335v0-421.236zM539.462 115.743h-46.545v177.804h46.545zM684.591 270.274h-336.803l168.401 393.309zM418.351 316.82h195.491l-97.652 228.538zM471.971 714.318h-88.902v46.545h88.902zM738.211 670.1h-88.902v46.545h88.902zM338.385 492.296h-88.902v46.545h88.902zM782.895 447.612h-88.902v46.545h88.902z" />
<glyph unicode="&#xe92f;" glyph-name="wreath-bell-thin" d="M512 938.667c282.763-0.009 511.984-229.236 511.984-512 0-141.381-57.304-269.378-149.953-362.031v0c-92.888-94.106-221.865-152.395-364.456-152.395-282.77 0-512 229.23-512 512 0 142.591 58.29 271.568 152.34 364.402l0.055 0.054c92.145 92.639 219.706 149.971 360.658 149.971 0.483 0 0.966-0.001 1.448-0.002h-0.075zM512-38.788c257.063 0 465.455 208.391 465.455 465.455s-208.391 465.455-465.455 465.455c-257.063 0-465.455-208.391-465.455-465.455v0c0.291-256.946 208.508-465.163 465.427-465.455h0.028zM512 716.645c160.151 0 289.978-129.828 289.978-289.978s-129.828-289.978-289.978-289.978c-160.151 0-289.978 129.828-289.978 289.978v0c0.185 160.076 129.902 289.793 289.961 289.978h0.017zM512 183.234c134.444 0 243.433 108.989 243.433 243.433s-108.989 243.433-243.433 243.433c-134.444 0-243.433-108.989-243.433-243.433v0c0.159-134.38 109.052-243.274 243.418-243.433h0.015zM512 716.645c86.331-0.106 156.287-70.062 156.393-156.383v-156.868h-312.785v156.393c0 0.138-0.001 0.302-0.001 0.465 0 86.373 70.019 156.393 156.393 156.393 0 0 0.001 0 0.001 0v0zM621.847 449.94v110.313c-0.106 60.587-49.246 109.661-109.847 109.661-60.667 0-109.847-49.18-109.847-109.847 0-0.065 0-0.131 0-0.196v0.010-109.94zM512 449.94c37.274 0 67.491-30.217 67.491-67.491s-30.217-67.491-67.491-67.491c-37.274 0-67.491 30.217-67.491 67.491v0c0.053 37.253 30.238 67.438 67.486 67.491h0.005zM512 361.503c11.568 0 20.945 9.378 20.945 20.945s-9.378 20.945-20.945 20.945c-11.568 0-20.945-9.378-20.945-20.945v0c0.026-11.557 9.388-20.919 20.943-20.945h0.003zM295.052 538.981l-39.936 23.924 3.584 6.004c4.736 9.979 7.502 21.683 7.502 34.032 0 0.407-0.003 0.812-0.009 1.217l0.001-0.061v0.372c0.004 0.291 0.006 0.634 0.006 0.978 0 20.58-7.371 39.438-19.616 54.078l0.108-0.133c-16.817 21.468-26.969 48.86-26.969 78.624 0 30.214 10.461 57.984 27.958 79.887l-0.198-0.257c10.511 12.316 17.335 28.064 18.603 45.355l0.015 0.259 46.545-2.979c-1.88-26.576-11.841-50.517-27.411-69.725l0.182 0.232c-11.969-14.166-19.244-32.634-19.244-52.801 0-19.937 7.11-38.214 18.933-52.432l-0.108 0.134c17.408-21.892 27.929-49.939 27.929-80.444 0-0.241-0.001-0.481-0.002-0.722v0.037c0.005-0.422 0.008-0.921 0.008-1.421 0-20.17-4.675-39.248-13.002-56.209l0.333 0.752-1.024-1.908zM759.575-9.557l-46.545 2.979c1.681 25.775 11.066 49.076 25.849 67.945l-0.203-0.268c11.621 14.083 18.668 32.314 18.668 52.192 0 1.010-0.018 2.015-0.054 3.016l0.004-0.145c0.007 0.385 0.010 0.838 0.010 1.293 0 19.855-7.224 38.023-19.186 52.018l0.092-0.11c-17.114 21.238-27.47 48.547-27.47 78.275 0 0.513 0.003 1.024 0.009 1.535l-0.001-0.078c-0.006 0.48-0.010 1.047-0.010 1.614 0 20.058 4.624 39.037 12.864 55.928l-0.333-0.756 1.024 1.908 4.189 6.982 39.889-23.924-3.584-6.004c-4.736-9.979-7.502-21.683-7.502-34.032 0-0.407 0.003-0.812 0.009-1.217l-0.001 0.061v-0.372c-0.007-0.385-0.010-0.838-0.010-1.293 0-19.855 7.224-38.023 19.186-52.018l-0.092 0.11c17.115-21.238 27.473-48.548 27.473-78.277 0-0.577-0.004-1.153-0.012-1.728l0.001 0.087c0.026-0.958 0.041-2.085 0.041-3.216 0-29.59-10.070-56.829-26.97-78.475l0.213 0.283c-10.019-12.014-16.466-27.319-17.536-44.087l-0.011-0.224zM267.59 272.834l-3.165 5.911c-6.944 10.029-15.876 18.188-26.277 24.046l-0.394 0.204c-13.426 7.855-29.562 12.492-46.78 12.492-4.58 0-9.083-0.328-13.487-0.962l0.503 0.059c-4.706-0.614-10.149-0.964-15.674-0.964-23.797 0-46.077 6.496-65.162 17.812l0.592-0.325c-25.267 14.339-44.94 36.024-56.407 62.129l-0.332 0.847c-6.499 15.825-16.982 28.898-30.223 38.36l-0.265 0.18 26.438 38.307c19.954-13.999 35.578-32.912 45.285-55.012l0.33-0.842c7.615-18.764 21.041-33.859 38.012-43.389l0.435-0.224c12.021-7.15 26.505-11.376 41.975-11.376 4.422 0 8.764 0.345 12.999 1.010l-0.47-0.061c4.735 0.568 10.218 0.892 15.776 0.892 25.381 0 49.184-6.756 69.709-18.567l-0.679 0.36c17.692-9.928 32.279-23.414 43.191-39.584l0.283-0.445 1.164-1.955 3.724-6.982zM989.184 382.216c-20.153 13.587-35.688 32.646-44.633 55.049l-0.284 0.805c-7.152 19.252-20.998 34.608-38.646 43.545l-0.452 0.207c-12.806 7.576-28.222 12.053-44.684 12.053-4.632 0-9.181-0.354-13.622-1.038l0.496 0.063c-4.845-0.64-10.447-1.005-16.134-1.005-24.271 0-46.988 6.651-66.429 18.23l0.597-0.329c-17.633 9.931-32.172 23.398-43.051 39.537l-0.283 0.446-1.164 1.955-3.724 6.982 41.053 21.923 3.165-5.911c6.944-10.029 15.876-18.188 26.277-24.046l0.394-0.204h0.326c12.348-7.469 27.265-11.889 43.214-11.889 4.461 0 8.841 0.346 13.116 1.012l-0.475-0.061c4.9 0.632 10.569 0.992 16.321 0.992 24.654 0 47.76-6.623 67.638-18.187l-0.643 0.345c26.759-13.939 47.387-36.555 58.444-64.051l0.296-0.834c5.522-15.295 15.484-27.871 28.316-36.511l0.263-0.167zM256.698-4.623l-20.945 41.565c16.723 8.602 36.493 13.645 57.439 13.645 5.446 0 10.812-0.341 16.078-1.002l-0.627 0.064c3.77-0.597 8.118-0.938 12.545-0.938 15.991 0 30.944 4.451 43.685 12.181l-0.375-0.211c16.526 9.366 29.208 23.883 36.022 41.338l0.19 0.553c11.796 27.065 31.445 48.875 56.047 63.052l0.645 0.343c16.286 9.822 35.685 16.18 56.443 17.573l0.389 0.021h8.937v-46.545h-6.516c-13.193-0.988-25.268-4.996-35.786-11.328l0.365 0.204c-17.454-9.921-30.907-25.163-38.33-43.492l-0.21-0.587c-11.31-26.153-30.285-47.214-54.068-60.832l-0.623-0.329c-18.878-11.321-41.652-18.016-65.99-18.016-5.615 0-11.147 0.356-16.574 1.048l0.644-0.067c-3.541 0.54-7.627 0.848-11.785 0.848-13.729 0-26.673-3.36-38.055-9.302l0.455 0.216zM509.487 670.1h-8.192v46.545h6.656c13.193 0.988 25.268 4.996 35.786 11.328l-0.365-0.204c16.954 9.553 29.985 24.374 37.040 42.211l0.197 0.565c11.465 26.747 30.868 48.268 55.216 62.084l0.638 0.333c19.571 12.288 43.363 19.576 68.857 19.576 5.572 0 11.063-0.348 16.451-1.024l-0.642 0.066c3.683-0.581 7.929-0.913 12.253-0.913 12.613 0 24.566 2.825 35.261 7.876l-0.503-0.214 19.735-42.17c-15.866-7.572-34.482-11.995-54.131-11.995-5.529 0-10.977 0.35-16.321 1.030l0.635-0.066c-3.794 0.598-8.17 0.939-12.625 0.939-16.897 0-32.646-4.912-45.899-13.386l0.342 0.205c-16.954-9.553-29.985-24.374-37.040-42.211l-0.197-0.565c-11.415-26.7-30.735-48.197-54.989-62.038l-0.633-0.333c-16.3-9.829-35.715-16.187-56.492-17.574l-0.386-0.021z" />
<glyph unicode="&#xe930;" glyph-name="wreath-bow-thin" d="M516.189-85.519c-0.018 0-0.039 0-0.060 0-233.671 0-423.098 189.428-423.098 423.098 0 108.642 40.947 207.719 108.251 282.642l-0.345-0.39 34.676-31.046c-59.571-66.327-96-154.49-96-251.162 0-207.964 168.588-376.553 376.553-376.553s376.553 168.588 376.553 376.553c0 96.671-36.429 184.834-96.308 251.51l0.308-0.348 34.676 31.046c66.958-74.532 107.906-173.61 107.906-282.252 0-233.671-189.428-423.098-423.098-423.098-0.005 0-0.009 0-0.014 0v0zM516.189 493.972c86.373 0 156.393-70.019 156.393-156.393s-70.019-156.393-156.393-156.393c-86.373 0-156.393 70.019-156.393 156.393v0c0.106 86.331 70.062 156.287 156.383 156.393h0.010zM516.189 227.732c60.667 0 109.847 49.18 109.847 109.847s-49.18 109.847-109.847 109.847c-60.667 0-109.847-49.18-109.847-109.847v0c0.079-60.635 49.212-109.768 109.84-109.847h0.008zM478.953 894.263h71.68c47.641-0.142 88.791-27.791 108.414-67.894l0.316-0.714c8.269-15.153 13.157-33.181 13.219-52.345v-71.42c0.028-0.913 0.044-1.986 0.044-3.063 0-13.664-2.596-26.721-7.322-38.706l0.249 0.716c-17.317-46.858-61.546-79.686-113.461-79.825h-71.557c-0.385-0.004-0.84-0.007-1.296-0.007-52.078 0-96.473 32.895-113.54 79.041l-0.271 0.838c-4.477 11.267-7.073 24.321-7.073 37.982 0 1.080 0.016 2.156 0.048 3.228l-0.004-0.157v70.982c-0.020 0.791-0.032 1.723-0.032 2.658 0 18.112 4.31 35.216 11.961 50.345l-0.293-0.639c19.868 41.023 61.127 68.841 108.898 68.98h0.019zM552.076 627.557c32.012 0.010 59.282 20.305 69.654 48.73l0.164 0.515 0.233 0.652c2.551 6.369 4.030 13.751 4.030 21.479 0 0.631-0.010 1.259-0.029 1.885l0.002-0.092v72.518c-0.034 11.282-2.944 21.878-8.035 31.101l0.169-0.334-0.605 1.21c-12.214 25.264-37.607 42.401-67.013 42.496h-71.693c-29.382-0.133-54.731-17.26-66.738-42.052l-0.194-0.444-0.279-0.512c-4.328-8.482-6.864-18.501-6.864-29.112 0-0.598 0.008-1.195 0.024-1.789l-0.002 0.088v-73.076c-0.017-0.535-0.027-1.163-0.027-1.794 0-7.728 1.479-15.11 4.17-21.879l-0.14 0.4 0.233-0.652c10.506-28.979 37.784-49.314 69.815-49.338h73.173zM814.545 938.481c0 0 0 0 0 0 68.893 0 124.742-55.849 124.742-124.742 0-0.082 0-0.164 0-0.245v0.013-107.753c-0.151-34.419-14.177-65.533-36.768-88.061l-0.003-0.003c-22.351-22.373-53.24-36.213-87.362-36.213-0.116 0-0.232 0-0.348 0h-9.757c-0.079 0-0.172 0-0.265 0-18.945 0-36.908 4.203-53.008 11.727l0.77-0.323-138.612 64.14 7.913 20.387c2.551 6.369 4.030 13.751 4.030 21.479 0 0.631-0.010 1.259-0.029 1.885l0.002-0.092v73.216c0.014 0.507 0.022 1.103 0.022 1.701 0 10.611-2.536 20.629-7.035 29.482l0.171-0.371-8.983 17.92 132.748 93.463c19.829 14.008 44.501 22.39 71.131 22.39 0.226 0 0.451-0.001 0.677-0.002h-0.035zM815.011 627.836c0.039 0 0.085 0 0.132 0 21.418 0 40.799 8.72 54.788 22.803l0.004 0.004c14.069 14.124 22.777 33.597 22.807 55.104v107.991c0 0.047 0 0.103 0 0.158 0 43.187-35.010 78.196-78.196 78.196-16.783 0-32.331-5.287-45.069-14.286l0.245 0.165-101.469-71.447c2.768-9.259 4.361-19.898 4.361-30.909 0-0.948-0.012-1.894-0.035-2.836l0.003 0.14v-71.028c0.025-0.866 0.040-1.885 0.040-2.908 0-6.041-0.505-11.964-1.476-17.729l0.087 0.623 100.957-46.545c9.66-4.526 20.976-7.168 32.909-7.168 0.032 0 0.065 0 0.097 0h-0.005zM217.367 580.081c-0.002 0-0.005 0-0.008 0-68.636 0-124.276 55.64-124.276 124.276 0 0.491 0.003 0.981 0.009 1.471l-0.001-0.075v107.985c0 0.063 0 0.137 0 0.212 0 68.893 55.849 124.742 124.742 124.742 26.788 0 51.604-8.444 71.931-22.816l-0.391 0.262 132.794-93.51-8.983-17.92c-4.328-8.482-6.864-18.501-6.864-29.112 0-0.598 0.008-1.195 0.024-1.789l-0.002 0.088v-73.076c-0.017-0.535-0.027-1.163-0.027-1.794 0-7.728 1.479-15.11 4.17-21.879l-0.14 0.4 7.82-20.154-138.519-65.908c-15.327-7.201-33.287-11.404-52.228-11.404-0.080 0-0.161 0-0.241 0h0.013zM217.833 891.935c-43.17 0-78.17-34.983-78.196-78.147v-108.361c-0.005-0.318-0.007-0.694-0.007-1.071 0-42.93 34.801-77.731 77.731-77.731 0.003 0 0.005 0 0.008 0h9.774c0.071 0 0.155 0 0.24 0 11.894 0 23.175 2.624 33.296 7.325l-0.488-0.204 101.004 47.942c-0.887 5.151-1.394 11.083-1.394 17.134 0 1.078 0.016 2.153 0.048 3.223l-0.004-0.157v71.028c-0.021 0.803-0.033 1.749-0.033 2.697 0 11.011 1.593 21.65 4.561 31.699l-0.2-0.79-101.562 71.447c-12.402 8.737-27.823 13.964-44.466 13.964-0.109 0-0.219 0-0.328-0.001h0.017z" />
<glyph unicode="&#xe931;" glyph-name="wreath-thin" d="M832.791 128.171l-31.697 34.118c82.914 77.147 134.616 186.88 134.616 308.689 0 232.642-188.594 421.236-421.236 421.236-177.24 0-328.913-109.464-391.101-264.475l-1.004-2.835c-18.734-45.816-29.608-98.983-29.608-154.69 0-121.648 51.852-231.185 134.659-307.715l0.281-0.256-31.697-34.118c-92.014 85.664-149.388 207.483-149.388 342.702 0 258.349 209.433 467.782 467.782 467.782s467.782-209.433 467.782-467.782c0-135.219-57.373-257.038-149.104-342.441l-0.283-0.261zM513.955 625.090c86.373 0 156.393-70.019 156.393-156.393s-70.019-156.393-156.393-156.393c-86.373 0-156.393 70.019-156.393 156.393v0c0.106 86.331 70.062 156.287 156.383 156.393h0.010zM513.955 358.85c60.667 0 109.847 49.18 109.847 109.847s-49.18 109.847-109.847 109.847c-60.667 0-109.847-49.18-109.847-109.847v0c0.079-60.635 49.212-109.768 109.84-109.847h0.008zM558.173 756.814h-88.436v46.545h88.436zM848.151 424.479h-46.545v88.902h46.545zM226.304 424.479h-46.545v88.902h46.545zM749.009 640.916l-63.023 62.65 32.954 32.954 62.65-63.023zM279.087 640.916l-32.954 32.582 63.023 63.023 32.582-32.954zM301.242-87.521v0c-68.122 0-123.345 55.224-123.345 123.345v0 66.56c0.079 68.090 55.256 123.266 123.338 123.345h0.24c27.489-0.353 52.76-9.563 73.163-24.899l46.225-33.19-27.183-37.795-46.732 33.978c-12.644 9.491-28.553 15.264-45.803 15.453h-0.044c-42.367-0.132-76.66-34.508-76.66-76.893 0 0 0 0 0 0v0-66.56c0-0.083-0.001-0.181-0.001-0.28 0-42.236 34.239-76.474 76.474-76.474 17.286 0 33.233 5.735 46.041 15.407l-0.193-0.14 0.465 0.326 46.545 33.513 27.183-37.795-46.545-33.373c-20.133-15.232-45.567-24.432-73.147-24.529h-0.023zM726.668-87.521c-27.689 0.058-53.213 9.282-73.709 24.799l0.307-0.223-46.545 33.373 27.183 37.795 47.011-33.839c12.565-9.584 28.485-15.357 45.753-15.36h0.001c42.394 0.053 76.747 34.406 76.8 76.795v66.565c-0.053 42.345-34.326 76.668-76.648 76.8h-0.013c-17.294-0.189-33.204-5.962-46.050-15.598l0.202 0.145h-0.233l-46.545-33.513-27.136 37.609 46.545 33.42c20.161 15.089 45.527 24.245 73.020 24.483h0.289c68.090-0.079 123.266-55.256 123.345-123.338v-66.568c-0.080-68.139-55.335-123.345-123.485-123.345-0.033 0-0.066 0-0.098 0h0.005zM513.955 225.265c86.373 0 156.393-70.019 156.393-156.393s-70.019-156.393-156.393-156.393c-86.373 0-156.393 70.019-156.393 156.393v0c0.106 86.331 70.062 156.287 156.383 156.393h0.010zM513.955-40.975c60.667 0 109.847 49.18 109.847 109.847s-49.18 109.847-109.847 109.847c-60.667 0-109.847-49.18-109.847-109.847v0c0.079-60.635 49.212-109.768 109.84-109.847h0.008z" />
<glyph unicode="&#xe932;" glyph-name="angel" d="M273.294 175.446h-21.982c-138.527 0.541-250.68 112.693-251.221 251.169v34.276h273.067c40.64-0.245 77.31-17.042 103.648-43.982l0.027-0.027-48.97-47.696c-13.941 14.284-33.336 23.19-54.811 23.347h-201.416c16.98-85.11 90.9-148.418 179.68-148.821h21.662c5.639 0.059 11.103 0.652 16.39 1.733l-0.552-0.094 13.244-66.947c-8.583-1.776-18.48-2.832-28.609-2.912h-0.063zM772.961 175.446h-22.209c-10.192 0.080-20.089 1.137-29.663 3.081l0.991-0.168 13.244 66.947c4.735-0.986 10.199-1.579 15.791-1.638h21.71c88.811 0.407 162.717 63.717 179.482 147.648l0.195 1.173h-201.478c-21.422-0.222-40.725-9.116-54.598-23.332l-0.015-0.016-48.97 47.559c26.328 26.944 62.945 43.736 103.486 44.009h273.118v-34.224c-0.643-138.402-112.679-250.422-251.026-251.039h-0.059zM813.42-85.333h-604.023l52.383 302.649 14.063 86.471c7.315 42.457 24.859 79.908 50.005 110.95l-0.352-0.449c24.47 30.872 55.944 55.145 92.087 70.598l1.529 0.581 26.351-62.987c-26.668-11.364-48.946-28.559-66-50.081l-0.264-0.345-0.319-0.41c-17.767-21.823-30.354-48.552-35.486-77.846l-0.149-1.025-14.108-86.471-38.593-223.004h441.822l-38.639 223.414-14.108 86.471c-5.302 30.254-17.886 56.919-35.88 78.999l0.245-0.31-0.364 0.182c-17.341 21.936-39.668 39.18-65.318 50.151l-1.083 0.412 26.351 62.987c37.676-16.047 69.15-40.335 93.244-70.738l0.373-0.487c24.794-30.511 42.362-67.863 49.535-108.792l0.208-1.436 14.108-86.471zM512.091 721.124c90.738 0 164.295-73.557 164.295-164.295s-73.557-164.295-164.295-164.295c-90.738 0-164.295 73.557-164.295 164.295v0c0.104 90.696 73.599 164.192 164.285 164.295h0.010zM512.091 460.8c53.035 0 96.028 42.993 96.028 96.028s-42.993 96.028-96.028 96.028c-53.035 0-96.028-42.993-96.028-96.028v0c0.052-53.014 43.014-95.977 96.023-96.028h0.005zM512.091 938.667c1.214 0.022 2.646 0.034 4.081 0.034 37.464 0 72.967-8.402 104.725-23.424l-1.491 0.634c31.778-12.225 54.425-41.406 56.963-76.17l0.017-0.288c-2.52-35.089-25.176-64.312-56.376-76.345l-0.604-0.205c-30.267-14.388-65.769-22.79-103.234-22.79-1.435 0-2.867 0.012-4.296 0.037l0.215-0.003c-1.24-0.023-2.703-0.035-4.169-0.035-37.466 0-72.969 8.402-104.728 23.426l1.491-0.635c-31.766 12.264-54.385 41.48-56.873 76.266l-0.016 0.284c2.504 35.069 25.122 64.285 56.285 76.344l0.603 0.205c30.218 14.334 65.656 22.703 103.048 22.703 1.532 0 3.062-0.014 4.587-0.042l-0.229 0.003zM608.119 839.453c-1.866 7.646-33.633 30.948-96.028 30.948s-94.162-23.302-96.028-30.948c1.866-7.646 33.587-30.948 96.028-30.948s94.162 23.211 96.028 30.948z" />
<glyph unicode="&#xe933;" glyph-name="antlers" horiz-adv-x="1004" d="M876.312-85.333h-66.928v127.61c0.001 0.298 0.002 0.651 0.002 1.004 0 169.786-137.639 307.425-307.425 307.425-169.433 0-306.852-137.067-307.423-306.366v-127.441h-66.928v127.61c1.266 205.787 168.381 372.12 374.345 372.12 0.003 0 0.005 0 0.008 0h-0.001c206.647-0.254 374.098-167.705 374.351-374.327v-0.024zM450.203 383.164h-66.928v44.619c-0.051 51.975-42.171 94.095-94.141 94.146h-85.227c-112.564 0.127-203.781 91.344-203.908 203.895v212.843h66.928v-212.831c0.076-75.621 61.358-136.903 136.972-136.98h85.229c88.918-0.102 160.972-72.156 161.074-161.064v-0.010zM279.759 555.392h-66.928v213.278h66.928zM620.647 383.164h-66.928v44.619c0.102 88.918 72.156 160.972 161.064 161.074h85.232c75.621 0.076 136.903 61.358 136.98 136.972v212.838h66.928v-212.831c-0.127-112.564-91.344-203.781-203.895-203.908h-85.234c-51.975-0.051-94.095-42.171-94.146-94.141v-0.005zM791.090 555.392h-66.928v213.278h66.928zM801.977 223.875h-32.304v66.928h31.947c63.029 0.99 115.695 44.208 131.010 102.557l0.214 0.958h-47.608c-37.834-0.008-72.082-15.353-96.866-40.156l-0.402-0.402c-16.306-15.763-28.646-35.527-35.442-57.714l-0.253-0.96-64.117 19.186c26.723 85.306 104.632 146.294 196.926 147.241l0.111 0.001h118.73v-33.732c0-0.003 0-0.007 0-0.011 0-111.862-90.076-202.686-201.651-203.895l-0.114-0.001zM234.248 223.875h-30.341c-112.615 0-203.908 91.293-203.908 203.908v0 33.464h119.132c55.368-0.633 105.331-23.255 141.668-59.524l-0.003 0.003c24.315-23.515 42.727-52.984 52.895-86.062l0.38-1.435-64.117-19.186c-7.049 23.147-19.389 42.911-35.657 58.637l-0.038 0.037-0.402 0.402c-24.424 24.422-58.016 39.675-95.17 40.156l-0.091 0.001h-47.564c15.537-59.915 69.119-103.448 132.872-103.471h30.343z" />
<glyph unicode="&#xe934;" glyph-name="ball-ornament" horiz-adv-x="756" d="M378.092 670.852c208.815 0 378.092-169.278 378.092-378.092s-169.278-378.092-378.092-378.092c-208.815 0-378.092 169.278-378.092 378.092v0c0.256 208.712 169.381 377.836 378.068 378.092h0.025zM378.092-17.817c171.526 0 310.576 139.050 310.576 310.576s-139.050 310.576-310.576 310.576c-171.526 0-310.576-139.050-310.576-310.576v0c0.205-171.444 139.132-310.371 310.556-310.576h0.020zM584.243 590.732h-67.516v184.995h-277.268v-184.995h-67.516v252.512h412.301zM411.851 809.485h-67.516v129.182h67.516zM568.354 324.402c-67.645 1.112-132.019 13.657-191.748 35.778l4.007-1.299c-88.717 27.997-165.325 52.123-335.017-11.298l-23.631 63.24c191.522 71.612 286.81 41.545 378.993 12.468 51.453-20.168 111.032-31.858 173.341-31.858 49.902 0 98.054 7.498 143.389 21.428l-3.454-0.913 16.429-65.491c-48.512-13.369-104.328-21.375-161.907-22.052l-0.403-0.004zM568.939 108.979c-67.755 1.104-132.239 13.666-192.066 35.824l4.010-1.301c-88.762 27.997-165.37 52.168-335.242-11.568l-23.721 63.015c191.702 72.018 287.080 41.815 379.308 12.738 51.53-20.199 111.199-31.906 173.602-31.906 49.722 0 97.709 7.433 142.909 21.248l-3.459-0.909 16.339-65.491c-48.349-13.187-103.964-21.050-161.321-21.647l-0.359-0.003z" />
<glyph unicode="&#xe935;" glyph-name="bell-bow" horiz-adv-x="849" d="M424.319 678.351c186.339-0.207 337.341-151.208 337.547-337.528v-250.796h-675.095v250.776c0.207 186.339 151.208 337.341 337.528 337.547h0.020zM693.721 158.174v182.63c0 148.787-120.615 269.402-269.402 269.402s-269.402-120.615-269.402-269.402v0-182.63zM424.319 851.895c66.741 0 120.845-54.104 120.845-120.845s-54.104-120.845-120.845-120.845c-66.741 0-120.845 54.104-120.845 120.845v0c0.078 66.709 54.135 120.767 120.837 120.845h0.007zM424.319 678.351c29.105 0 52.699 23.594 52.699 52.699s-23.594 52.699-52.699 52.699c-29.105 0-52.699-23.594-52.699-52.699v0c0.026-29.095 23.605-52.673 52.697-52.699h0.003zM134.383 938.667c0.001 0 0.001 0 0.002 0 27.654 0 53.325-8.491 74.548-23.008l-0.453 0.293 190.807-127.205-18.763-28.303c-5.55-8.249-8.859-18.409-8.859-29.341 0-0.003 0-0.005 0-0.008v0c0.111-10.972 3.489-21.134 9.207-29.583l-0.121 0.19 18.672-28.349-190.807-126.796c-21.025-14.452-47.031-23.081-75.052-23.081-73.766 0-133.565 59.799-133.565 133.565 0 0.192 0 0.385 0.001 0.577v-0.030 147.058c0 0.135-0.001 0.295-0.001 0.454 0 73.766 59.799 133.565 133.565 133.565 0 0 0 0 0.001 0v0zM308.926 767.031l-138.381 92.405c-10.126 6.941-22.644 11.085-36.13 11.085-0.075 0-0.151 0-0.226 0h-0.624c0 0-0.001 0-0.002 0-36.13 0-65.42-29.289-65.42-65.42 0-0.16 0.001-0.319 0.002-0.479v0.025-147.194c-0.001-0.118-0.001-0.258-0.001-0.398 0-36.13 29.289-65.42 65.42-65.42 13.722 0 26.458 4.225 36.977 11.445l-0.222-0.144h0.273l138.381 92.224c-3.476 10.751-5.48 23.121-5.48 35.958s2.004 25.207 5.716 36.813l-0.236-0.855zM714.256 938.667h0.818c0 0 0.001 0 0.001 0 73.766 0 133.565-59.799 133.565-133.565 0-0.16 0-0.319-0.001-0.479v0.025-147.194c0-0.099 0-0.216 0-0.333 0-73.766-59.799-133.565-133.565-133.565-27.944 0-53.883 8.581-75.327 23.253l0.458-0.296-190.807 126.796 18.672 28.349c5.614 8.299 8.996 18.511 9.086 29.507v0.023c-0.091 10.914-3.474 21.019-9.203 29.393l0.117-0.181-18.763 28.303 190.807 127.432c20.699 14.113 46.258 22.534 73.785 22.534 0.126 0 0.252 0 0.377-0.001h-0.020zM715.074 591.67c0 0 0 0 0 0 36.13 0 65.42 29.289 65.42 65.42 0 0.080 0 0.16 0 0.24v-0.012 147.331c0.001 0.135 0.002 0.295 0.002 0.454 0 36.13-29.289 65.42-65.42 65.42-0.001 0-0.001 0-0.002 0h-0.818c-0.022 0-0.047 0-0.073 0-13.415 0-25.87-4.109-36.175-11.137l0.222 0.143-138.517-92.496c3.458-10.746 5.452-23.108 5.452-35.935 0-0.016 0-0.032 0-0.048v0.003c-0.041-12.84-2.048-25.196-5.735-36.804l0.238 0.869 138.653-92.178c10.262-7.055 22.957-11.267 36.634-11.267 0.042 0 0.083 0 0.125 0h-0.006zM424.319-85.333c-90.376 0.103-163.642 73.21-164.003 163.515v0.034c-0.041 1.312-0.065 2.854-0.065 4.403 0 19.367 3.693 37.872 10.412 54.849l-0.352-1.010 63.602-24.532c-3.479-8.715-5.496-18.816-5.496-29.388 0-0.944 0.016-1.885 0.048-2.822l-0.004 0.136v-1.090c0-52.941 42.917-95.858 95.858-95.858s95.858 42.917 95.858 95.858v0 1.090c0.028 0.801 0.044 1.741 0.044 2.686 0 10.572-2.017 20.673-5.688 29.939l0.192-0.55 63.602 24.532c6.367-15.967 10.060-34.472 10.060-53.839 0-1.548-0.024-3.091-0.070-4.628l0.005 0.225c-0.361-90.34-73.628-163.447-163.994-163.549h-0.010zM814.566 90.028h-780.493v68.146h780.493z" />
<glyph unicode="&#xe936;" glyph-name="berries" horiz-adv-x="1023" d="M361.974 260.25h-0.455v68.297h0.455zM337.433-85.287c-0.045 0-0.099 0-0.152 0-114.667 0-207.623 92.956-207.623 207.623 0 81.742 47.238 152.452 115.906 186.318l1.217 0.542 29.778-61.467c-46.841-23.109-78.496-70.531-78.496-125.345 0-76.948 62.378-139.326 139.326-139.326 76.915 0 139.273 62.325 139.326 139.227v0.005c-0.061 25.89-7.122 50.119-19.389 70.91l0.357-0.655 59.191 34.376c17.787-29.974 28.299-66.075 28.299-104.631 0-114.642-92.936-207.577-207.577-207.577-0.009 0-0.017 0-0.026 0h0.002zM660.205 260.25h-0.455v68.297h0.455zM684.291-85.287c-0.031 0-0.067 0-0.103 0-114.617 0-207.532 92.915-207.532 207.532 0 38.576 10.525 74.693 28.86 105.638l-0.527-0.961 59.191-34.376c-11.916-20.149-18.977-44.395-19.032-70.285v-0.016c0.042-76.916 62.404-139.253 139.326-139.253 76.948 0 139.326 62.378 139.326 139.326 0 54.868-31.716 102.328-77.816 125.048l-0.817 0.364 29.778 61.467c69.884-34.409 117.122-105.118 117.122-186.861 0-114.656-92.939-207.606-207.591-207.623h-0.002zM491.921 589.897h40.751c105.431-12.945 186.272-101.943 186.272-209.822 0-39.609-10.898-76.673-29.859-108.357l0.534 0.963c-31.353-53.475-85.059-90.944-147.955-99.683l-1.069-0.122h-1.821c-4.301-0.358-9.309-0.562-14.365-0.562s-10.064 0.204-15.017 0.605l0.651-0.042h-10.017c-2.286-0.137-4.958-0.215-7.649-0.215s-5.364 0.078-8.016 0.232l0.367-0.017h-1.548l-1.503 0.228c-64.773 10.231-118.682 49.434-148.807 103.67l-0.536 1.052c-18.348 30.299-29.205 66.909-29.205 106.055 0 107.368 81.677 195.658 186.287 206.128l0.866 0.070zM527.207 521.6h-31.872c-69.934-7.859-123.797-66.664-123.797-138.050 0-26.364 7.347-51.013 20.105-72.010l-0.347 0.616 0.82-1.411c20.126-36.655 55.524-62.789 97.398-69.958l0.813-0.115c2.231 0 4.553 0 6.693 0h17.211c2.727-0.23 5.901-0.36 9.106-0.36s6.38 0.131 9.519 0.388l-0.412-0.027c42.318 6.148 77.786 31.065 98.183 65.881l0.347 0.64v0.364c12.419 20.419 19.77 45.109 19.77 71.516 0 0.565-0.003 1.13-0.010 1.693l0.001-0.086v0.774c0.008 0.547 0.012 1.192 0.012 1.839 0 71.358-53.697 130.174-122.889 138.245l-0.65 0.062zM260.121 233.022l-16.209 9.971c-147.325 91.791-243.917 252.909-243.917 436.588 0 0.869 0.002 1.737 0.006 2.605l-0.001-0.134v256.615h34.149c0.321 0.001 0.7 0.001 1.080 0.001 116.285 0 223.423-39.16 308.948-105.011l-1.189 0.879c87.394-66.523 151.9-159.105 182.172-266.065l0.864-3.572 10.882-39.020-40.295-4.143c-70.77-7.155-125.544-66.42-125.544-138.478 0-0.699 0.005-1.396 0.015-2.092l-0.001 0.105v-0.774c-0.006-0.474-0.009-1.034-0.009-1.595 0-26.411 7.351-51.104 20.118-72.147l-0.349 0.619 34.057-56.914-66.112 5.327c-2.857 0.244-6.181 0.383-9.539 0.383s-6.682-0.139-9.969-0.412l0.431 0.029h-2.777c-21.813-0.026-42.398-5.255-60.59-14.512l0.762 0.352zM68.297 869.004v-187.134c0-0.198 0-0.431 0-0.665 0-153.51 77.33-288.958 195.16-369.515l1.536-0.991c13.16 5.197 28.52 9.245 44.469 11.445l1.063 0.12c-5.399 17.692-8.508 38.027-8.508 59.087 0 93.35 61.072 172.437 145.44 199.484l1.483 0.411c-60.575 159.232-205.666 273.188-379.027 287.65l-1.615 0.108zM1023.089 938.667v-251.333c0.003-0.68 0.005-1.484 0.005-2.289 0-183.678-96.592-344.796-241.752-435.329l-2.165-1.258-16.209-9.971-16.983 8.514c-17.416 8.9-37.985 14.128-59.772 14.16h-2.833c-2.856 0.244-6.181 0.383-9.539 0.383s-6.682-0.139-9.969-0.412l0.431 0.029-66.294-5.373 34.24 57.005c12.465 20.415 19.845 45.116 19.845 71.54 0 71.98-54.763 131.169-124.898 138.176l-0.58 0.047-40.523 4.052 11.019 39.294c62.316 216.809 258.86 372.759 491.829 372.765v0zM758.188 316.162c119.313 81.546 196.605 216.957 196.605 370.42 0 0.2 0 0.4 0 0.6v-0.031 181.898c-174.634-14.467-319.536-127.903-379.431-283.533l-1.029-3.041c85.405-26.969 146.243-105.484 146.243-198.208 0-20.217-2.892-39.759-8.285-58.233l0.367 1.466c16.992-2.237 32.361-6.209 46.923-11.808l-1.392 0.47zM344.217 457.856l-205.346 205.346 48.263 48.263 205.346-205.346zM677.506 457.856l-48.263 48.263 205.346 205.346 48.263-48.263z" />
<glyph unicode="&#xe937;" glyph-name="bible-book" horiz-adv-x="764" d="M120.878 156.786h642.799v-242.119h-642.617c-66.589 0.51-120.446 54.303-121.059 120.819v0.604c0.712 66.37 54.325 119.984 120.628 120.695l0.068 0.001zM695.41 88.519h-574.168c-29.002-0.549-52.375-23.89-52.974-52.827l-0.001-0.057c0.407-29.037 23.915-52.449 52.951-52.702h574.192zM120.969 938.667h642.708v-850.148h-642.435c-29.127-0.555-52.574-24.098-52.975-53.21v-0.038l-68.267 0.364v781.972c0.51 66.589 54.303 120.446 120.819 121.059h0.058zM695.41 870.4h-574.259c-29.115-0.306-52.629-23.852-52.884-52.951v-672.951c15.301 7.66 33.314 12.213 52.374 12.379h574.769zM415.972 296.505h-68.267v434.176h68.267zM598.926 479.46h-434.176v68.267h434.176zM294.912 609.622h-86.926v68.267h86.926zM294.912 349.298h-86.926v68.267h86.926zM555.691 609.622h-86.926v68.267h86.926zM555.691 349.298h-86.926v68.267h86.926z" />
<glyph unicode="&#xe938;" glyph-name="bottle-glass" d="M130.162 938.667h242.119v-363.406c79.214-53.572 130.602-143.071 130.617-244.574v-416.019h-502.898v415.972c0.003 101.325 51.199 190.691 129.135 243.645l1.027 0.658zM304.014 870.4h-105.586v-331.685l-29.309-19.843c-61.146-41.136-100.841-110.071-100.853-188.278v-347.661h366.364v347.705c-0.039 78.141-39.688 147.013-99.956 187.631l-0.806 0.512-29.855 19.615zM425.074 870.4h-347.705v68.267h347.705zM608.028 634.653h415.972v-294.912c0-114.867-93.118-207.986-207.986-207.986s-207.986 93.118-207.986 207.986v0zM955.733 566.386h-279.438v-226.645c0-77.165 62.554-139.719 139.719-139.719s139.719 62.554 139.719 139.719v0zM468.764 305.607h-434.631v68.267h434.631zM468.764 131.755h-434.631v68.267h434.631zM850.148-51.2h-68.267v217.088h68.267zM946.631-85.333h-260.779v68.267h260.779zM989.867 349.298h-347.705v68.267h347.705z" />
<glyph unicode="&#xe939;" glyph-name="building-church" horiz-adv-x="1013" d="M754.834-83.533h-496.921v651.759l248.461 198.994 248.461-198.994zM325.429-16.016h361.888v551.835l-180.944 144.89-180.944-144.89zM325.429-83.533h-325.429v395.692l325.429 216.953zM67.516-16.016h190.396v419.007l-190.396-126.931zM1012.747-83.533h-325.429v612.645l325.429-216.953zM754.834-16.016h190.396v292.076l-190.396 126.931zM291.671 131.62h-129.182v67.516h129.182zM850.258 131.62h-129.182v67.516h129.182zM506.374 199.136v0c43.482-0.051 78.718-35.287 78.769-78.764v-205.705h-157.538v208.851c1.618 42.102 36.14 75.619 78.49 75.619 0.098 0 0.197 0 0.295-0.001h-0.015zM517.671-17.817v138.184c0 6.215-5.038 11.253-11.253 11.253v0 0c-0.010 0-0.021 0-0.033 0-5.889 0-10.717-4.542-11.173-10.314l-0.002-0.039v-139.084zM506.374 499.36c42.26 0 76.519-34.259 76.519-76.519s-34.259-76.519-76.519-76.519c-42.26 0-76.519 34.259-76.519 76.519v0c0 42.26 34.259 76.519 76.519 76.519v0zM506.374 413.839c4.972 0 9.002 4.030 9.002 9.002s-4.030 9.002-9.002 9.002c-4.972 0-9.002-4.030-9.002-9.002v0c0-4.972 4.030-9.002 9.002-9.002v0zM540.132 723.514h-67.516v215.153h67.516zM592.345 818.938h-171.942v67.516h171.942z" />
<glyph unicode="&#xe93a;" glyph-name="calendar-bell" horiz-adv-x="1015" d="M0 886.339h1014.978v-282.841h-1014.978zM947.313 818.674h-879.648v-147.51h879.648zM0 671.164h1014.978v-756.497h-1014.978zM947.313 603.499h-879.648v-621.167h879.648zM282.841 766.346h-67.665v172.321h67.665zM799.803 766.346h-67.665v172.321h67.665zM541.322 766.346h-67.665v172.321h67.665zM507.489 499.745v0c89.897-0.103 162.745-72.951 162.848-162.838v-162.858h-325.695v161.314c-0.005 0.456-0.007 0.995-0.007 1.534 0 89.938 72.909 162.848 162.848 162.848 0.003 0 0.005 0 0.008 0h-0.001zM602.671 241.715v95.182c-0.051 52.547-42.635 95.131-95.177 95.182h-0.005c-0.002 0-0.003 0-0.005 0-52.568 0-95.182-42.615-95.182-95.182 0-0.349 0.002-0.697 0.006-1.045v0.053-94.19zM722.664 172.697h-430.351v67.665h430.351zM507.489 240.362c42.353 0 76.687-34.334 76.687-76.687s-34.334-76.687-76.687-76.687c-42.353 0-76.687 34.334-76.687 76.687v0c0 42.353 34.334 76.687 76.687 76.687v0zM507.489 154.653c4.983 0 9.022 4.039 9.022 9.022s-4.039 9.022-9.022 9.022c-4.983 0-9.022-4.039-9.022-9.022v0c0-4.983 4.039-9.022 9.022-9.022v0z" />
<glyph unicode="&#xe93b;" glyph-name="calendar-date" horiz-adv-x="1015" d="M0 886.454h1014.548v-282.669h-1014.548zM947.031 818.938h-879.515v-147.636h879.515zM0 670.852h1014.548v-756.185h-1014.548zM947.031 603.335h-879.515v-621.152h879.515zM282.669 766.275h-67.516v172.392h67.516zM799.395 766.275h-67.516v172.392h67.516zM541.032 766.275h-67.516v172.392h67.516zM462.263 87.059h-247.11v95.963l117.029 85.071c33.601 25.825 55.111 65.94 55.363 111.091v0.041c0.001 0.12 0.002 0.263 0.002 0.405 0 29.085-23.578 52.663-52.663 52.663-0.001 0-0.001 0-0.002 0h-85.971v67.516h85.971c0 0 0.001 0 0.002 0 66.373 0 120.179-53.806 120.179-120.179 0-0.222-0.001-0.443-0.002-0.664v0.034c-0.316-67.12-32.286-126.709-81.738-164.644l-0.497-0.366-0.585-0.315-81.38-59.099h171.402zM679.666 87.959h-127.381v67.516h127.381c28.836 0 52.213 23.376 52.213 52.213s-23.376 52.213-52.213 52.213h-120.179v239.909h206.15v-67.516h-138.634v-104.876h52.663c66.125 0 119.729-53.605 119.729-119.729s-53.605-119.729-119.729-119.729v0z" />
<glyph unicode="&#xe93c;" glyph-name="candle-holder" horiz-adv-x="1010" d="M376.632 600.147c-65.917 0.077-119.332 53.492-119.409 119.402v0.007c0 98.759 91.712 191.369 95.617 195.274l23.792 23.792 23.792-23.792c3.905-3.905 95.617-96.739 95.617-195.274-0.077-65.917-53.492-119.332-119.402-119.409h-0.007zM376.632 839.593c-27.98-32.54-46.786-73.706-51.978-119.012l-0.096-1.026c0-28.759 23.314-52.073 52.073-52.073s52.073 23.314 52.073 52.073v0c-5.209 46.339-24.013 87.521-52.271 120.326l0.243-0.289zM410.3 505.428h-67.336v128.387h67.336zM128.387 539.096h496.041v-452.946h-496.041zM557.093 471.76h-361.37v-318.275h361.37zM0 153.485h752.816v-33.668c0-0.005 0-0.011 0-0.017 0-112.37-90.345-203.639-202.361-205.132l-0.141-0.001h-345.164c-113.25 0.128-205.022 91.9-205.15 205.138v0.012zM681.26 86.149h-609.749c15.64-60.266 69.513-104.063 133.63-104.146h344.501c63.237 1.217 116.006 44.623 131.404 103.181l0.216 0.965zM847.984 281.872c89.501 0 162.055-72.555 162.055-162.055s-72.555-162.055-162.055-162.055c-89.501 0-162.055 72.555-162.055 162.055v0c0.102 89.459 72.596 161.953 162.045 162.055h0.010zM847.984 25.098c52.312 0 94.719 42.407 94.719 94.719s-42.407 94.719-94.719 94.719c-52.312 0-94.719-42.407-94.719-94.719v0c0.051-52.291 42.428-94.668 94.714-94.719h0.005z" />
<glyph unicode="&#xe93d;" glyph-name="candle-light" horiz-adv-x="1020" d="M509.758 603.373c-65.202 0.076-118.039 52.912-118.115 118.107v0.007c0 97.911 90.717 189.738 94.58 193.601l23.534 23.579 23.534-23.534c3.863-3.863 94.58-95.691 94.58-193.601-0.051-65.221-52.897-118.083-118.107-118.159h-0.007zM509.758 840.623c-27.713-32.307-46.321-73.168-51.416-118.126l-0.093-1.009c0-28.447 23.061-51.509 51.509-51.509s51.509 23.061 51.509 51.509v0c-5.121 45.98-23.741 86.856-51.752 119.425l0.243-0.29zM543.061 509.236h-66.606v127.439h66.606zM264.204 542.539h491.552v-618.547h-491.552zM689.15 475.933h-358.34v-485.335h358.34zM755.312-85.333h-66.606v39.52c0 0.024 0 0.053 0 0.081 0 209.385 85.050 398.905 222.488 535.899l0.020 0.020 47.024-47.113c-80.35-80.492-141.039-180.636-174.236-292.598l-1.249-4.909 2.886 2.931c59.535 59.903 141.979 96.979 233.083 96.979 0.279 0 0.557 0 0.836-0.001h-0.043v-66.606c-145.916 0-264.204-118.288-264.204-264.204v0zM330.81-85.333h-66.606c-0.177 145.844-118.359 264.027-264.187 264.204h-0.017v66.606c0.122 0 0.266 0 0.411 0 92.712 0 176.49-38.252 236.412-99.834l0.072-0.075c-34.484 116.881-95.218 217.024-175.623 297.512l0.006-0.006 47.024 47.157c68.835-68.476 124.479-150.134 162.84-240.879l1.855-4.941c36.504-85.408 57.726-184.784 57.726-289.116 0-0.374 0-0.748-0.001-1.122v0.058zM467.13 306.31h-84.812v66.606h84.812zM637.197 306.31h-84.812v66.606h84.812zM934.704-76.008h-849.892v66.606h849.892z" />
<glyph unicode="&#xe93e;" glyph-name="candle-lines" horiz-adv-x="686" d="M342.964 600.147c-65.917 0.077-119.332 53.492-119.409 119.402v0.007c0 98.759 91.712 191.369 95.617 195.274l23.792 23.837 23.792-23.792c3.905-3.905 95.617-96.739 95.617-195.274-0.051-65.936-53.476-119.377-119.402-119.454h-0.007zM342.964 839.593c-27.98-32.54-46.786-73.706-51.978-119.012l-0.096-1.026c0-28.759 23.314-52.073 52.073-52.073s52.073 23.314 52.073 52.073v0c-5.223 46.343-24.041 87.525-52.315 120.325l0.242-0.287zM376.632 505.428h-67.336v128.387h67.336zM95.168 539.096h496.041v-624.429h-496.041zM523.874 471.76h-361.37v-489.757h361.37zM685.929-85.333h-685.929v67.336h685.929zM550.494 258.305l-428.257 85.741 13.198 65.989 428.257-85.741zM550.494 43.728l-428.257 85.741 13.198 65.989 428.257-85.741z" />
<glyph unicode="&#xe93f;" glyph-name="candles" horiz-adv-x="1028" d="M299.869 600.147c-65.917 0.077-119.332 53.492-119.409 119.402v0.007c0 98.759 91.712 191.369 95.617 195.274l23.792 23.792 23.792-23.792c3.905-3.905 95.617-96.739 95.617-195.274-0.077-65.917-53.492-119.332-119.402-119.409h-0.007zM299.869 839.593c-27.98-32.54-46.786-73.706-51.978-119.012l-0.096-1.026c0-28.759 23.314-52.073 52.073-52.073s52.073 23.314 52.073 52.073v0c-5.209 46.339-24.013 87.521-52.271 120.326l0.243-0.289zM333.537 505.428h-67.336v128.387h67.336zM51.624 539.096h496.041v-624.429h-496.041zM480.33 471.76h-361.369v-489.757h361.369zM728.126 428.665c-65.917 0.077-119.332 53.492-119.409 119.402v0.007c0 98.759 91.712 191.369 95.617 195.274l23.792 23.792 23.792-23.792c3.905-3.905 95.617-96.739 95.617-195.274-0.077-65.917-53.492-119.332-119.402-119.409h-0.007zM728.126 668.111c-27.98-32.54-46.786-73.706-51.978-119.012l-0.096-1.026c0-28.759 23.314-52.073 52.073-52.073s52.073 23.314 52.073 52.073v0c-5.209 46.339-24.013 87.521-52.271 120.326l0.243-0.289zM761.794 333.945h-67.336v128.387h67.336zM480.33 367.613h496.041v-452.946h-496.041zM909.035 300.277h-361.369v-318.274h361.369zM1027.995-85.333h-1027.995v67.336h1027.995z" />
<glyph unicode="&#xe940;" glyph-name="candy" d="M415.833 627.015h169.628c112.37 0 203.464-91.094 203.464-203.464s-91.094-203.464-203.464-203.464v0h-169.628c-112.37 0-203.464 91.094-203.464 203.464s91.094 203.464 203.464 203.464v0zM585.461 286.869c75.487 0 136.682 61.194 136.682 136.682s-61.194 136.682-136.682 136.682v0h-169.628c-75.487 0-136.682-61.194-136.682-136.682s61.194-136.682 136.682-136.682v0zM883.311 584.274h118.428v-321.892h-118.428c-88.888 0-160.946 72.058-160.946 160.946s72.058 160.946 160.946 160.946v0zM934.957 517.491h-51.645c-52.005 0-94.163-42.158-94.163-94.163s42.158-94.163 94.163-94.163v0h51.645zM118.428 262.827h-118.428v321.892h118.428c88.888 0 160.946-72.058 160.946-160.946s-72.058-160.946-160.946-160.946v0zM66.783 329.61h51.645c52.005 0 94.163 42.158 94.163 94.163s-42.158 94.163-94.163 94.163v0h-51.645zM426.162 245.374l-85.037 340.146 64.824 16.206 85.037-340.146zM595.79 245.374l-85.037 340.146 64.824 16.206 85.037-340.146z" />
<glyph unicode="&#xe941;" glyph-name="candy-cane" horiz-adv-x="720" d="M359.993 938.667v0c198.699-0.259 359.708-161.253 359.993-359.92v-0.027c0-78.799-63.879-142.677-142.677-142.677s-142.677 63.879-142.677 142.677v0c0 41.222-33.417 74.638-74.638 74.638s-74.638-33.417-74.638-74.638v0-521.148c0-78.799-63.879-142.677-142.677-142.677s-142.677 63.879-142.677 142.677v0 521.102c0.259 198.714 161.278 359.734 359.968 359.993h0.025zM577.081 504.036c41.201 0.052 74.586 33.437 74.638 74.633v0.005c0 161.116-130.61 291.726-291.726 291.726s-291.726-130.61-291.726-291.726v0-521.102c0-41.096 33.315-74.411 74.411-74.411s74.411 33.315 74.411 74.411v521.102c0 78.924 63.981 142.905 142.905 142.905s142.905-63.981 142.905-142.905v0c-0.001-0.135-0.001-0.295-0.001-0.455 0-40.97 33.213-74.183 74.183-74.183 0.001 0 0.001 0 0.002 0v0zM227.055 54.841l-217.088 217.543 48.333 48.242 217.042-217.543zM227.1 402.546l-217.088 217.088 48.242 48.242 217.088-217.088zM372.281 687.446h-68.267v217.088h68.267zM685.852 609.622h-217.088v68.267h217.088z" />
</font>
</defs>
</svg>
